{
  "asset": {
    "version": "2.0",
    "generator": "THREE.GLTFExporter r180"
  },
  "scenes": [
    {
      "name": "AuxScene",
      "nodes": [
        0
      ]
    }
  ],
  "scene": 0,
  "nodes": [
    {
      "matrix": [
        3.422854177870249e-8,
        0.9999999657714582,
        0,
        0,
        -0.9999999657714582,
        3.422854177870249e-8,
        0,
        0,
        0,
        0,
        1,
        0,
        0,
        0,
        0,
        1
      ],
      "name": "Group_100",
      "extras": {
        "name": "Group",
        "gltfExtensions": {
          "always_face_camera": {
            "Value": false
          }
        }
      },
      "children": [
        1,
        4,
        7,
        10,
        13,
        16,
        19,
        22,
        25
      ]
    },
    {
      "matrix": [
        1,
        0,
        0,
        0,
        0,
        1,
        0,
        0,
        0,
        0,
        1,
        0,
        0.3937007784843445,
        0.3937007784843445,
        0.3937007784843445,
        1
      ],
      "name": "<组件#19>_1",
      "extras": {
        "name": "<组件#19>",
        "gltfExtensions": {
          "always_face_camera": {
            "Value": false
          }
        }
      },
      "children": [
        2,
        3
      ]
    },
    {
      "name": "mesh_2",
      "extras": {
        "gltfExtensions": {
          "uuid": {
            "Value": "lrfwumjjgszenwhldrnw_LINE"
          }
        }
      },
      "mesh": 0
    },
    {
      "name": "mesh_2_1",
      "extras": {
        "gltfExtensions": {
          "uuid": {
            "Value": "lrfwumjjgszenwhldrnw"
          }
        }
      },
      "mesh": 1
    },
    {
      "matrix": [
        1,
        -8.326672684688674e-16,
        0,
        0,
        -8.326672684688674e-16,
        -1,
        0,
        0,
        0,
        0,
        -1,
        0,
        0.3937007784843445,
        32.2047233581543,
        24.015748977661133,
        1
      ],
      "name": "<组件#5>_8",
      "extras": {
        "name": "<组件#5>",
        "gltfExtensions": {
          "always_face_camera": {
            "Value": false
          }
        }
      },
      "children": [
        5,
        6
      ]
    },
    {
      "name": "mesh_3",
      "extras": {
        "gltfExtensions": {
          "uuid": {
            "Value": "dvovyarehcqalmarocjs_LINE"
          }
        }
      },
      "mesh": 2
    },
    {
      "name": "mesh_3_1",
      "extras": {
        "gltfExtensions": {
          "uuid": {
            "Value": "dvovyarehcqalmarocjs"
          }
        }
      },
      "mesh": 3
    },
    {
      "matrix": [
        -3.422854177870249e-8,
        0.9999999657714582,
        0,
        0,
        -0.9999999657714582,
        -3.422854177870249e-8,
        0,
        0,
        0,
        0,
        -1,
        0,
        47.637794494628906,
        0.3937007784843445,
        24.015748977661133,
        1
      ],
      "name": "<组件#5>_9",
      "extras": {
        "name": "<组件#5>",
        "gltfExtensions": {
          "always_face_camera": {
            "Value": false
          }
        }
      },
      "children": [
        8,
        9
      ]
    },
    {
      "name": "mesh_3",
      "extras": {
        "gltfExtensions": {
          "uuid": {
            "Value": "dvovyarehcqalmarocjs_LINE"
          }
        }
      },
      "mesh": 2
    },
    {
      "name": "mesh_3_1",
      "extras": {
        "gltfExtensions": {
          "uuid": {
            "Value": "dvovyarehcqalmarocjs"
          }
        }
      },
      "mesh": 3
    },
    {
      "matrix": [
        1,
        0,
        0,
        0,
        0,
        -1,
        0,
        0,
        0,
        0,
        -1,
        0,
        24.015748977661133,
        16.299213409423828,
        24.015748977661133,
        1
      ],
      "name": "<组件#5>_10",
      "extras": {
        "name": "<组件#5>",
        "gltfExtensions": {
          "always_face_camera": {
            "Value": false
          }
        }
      },
      "children": [
        11,
        12
      ]
    },
    {
      "name": "mesh_3",
      "extras": {
        "gltfExtensions": {
          "uuid": {
            "Value": "dvovyarehcqalmarocjs_LINE"
          }
        }
      },
      "mesh": 2
    },
    {
      "name": "mesh_3_1",
      "extras": {
        "gltfExtensions": {
          "uuid": {
            "Value": "dvovyarehcqalmarocjs"
          }
        }
      },
      "mesh": 3
    },
    {
      "matrix": [
        -1,
        0,
        0,
        0,
        0,
        -1,
        0,
        0,
        0,
        0,
        -1,
        0,
        24.015748977661133,
        16.299213409423828,
        24.015748977661133,
        1
      ],
      "name": "<组件#5>_11",
      "extras": {
        "name": "<组件#5>",
        "gltfExtensions": {
          "always_face_camera": {
            "Value": false
          }
        }
      },
      "children": [
        14,
        15
      ]
    },
    {
      "name": "mesh_3",
      "extras": {
        "gltfExtensions": {
          "uuid": {
            "Value": "dvovyarehcqalmarocjs_LINE"
          }
        }
      },
      "mesh": 2
    },
    {
      "name": "mesh_3_1",
      "extras": {
        "gltfExtensions": {
          "uuid": {
            "Value": "dvovyarehcqalmarocjs"
          }
        }
      },
      "mesh": 3
    },
    {
      "matrix": [
        -1,
        0,
        0,
        0,
        0,
        1,
        0,
        0,
        0,
        0,
        -1,
        0,
        24.015748977661133,
        16.299213409423828,
        24.015748977661133,
        1
      ],
      "name": "<组件#5>_12",
      "extras": {
        "name": "<组件#5>",
        "gltfExtensions": {
          "always_face_camera": {
            "Value": false
          }
        }
      },
      "children": [
        17,
        18
      ]
    },
    {
      "name": "mesh_3",
      "extras": {
        "gltfExtensions": {
          "uuid": {
            "Value": "dvovyarehcqalmarocjs_LINE"
          }
        }
      },
      "mesh": 2
    },
    {
      "name": "mesh_3_1",
      "extras": {
        "gltfExtensions": {
          "uuid": {
            "Value": "dvovyarehcqalmarocjs"
          }
        }
      },
      "mesh": 3
    },
    {
      "matrix": [
        1,
        0,
        0,
        0,
        0,
        1,
        0,
        0,
        0,
        0,
        -1,
        0,
        24.015748977661133,
        16.299213409423828,
        24.015748977661133,
        1
      ],
      "name": "<组件#5>_13",
      "extras": {
        "name": "<组件#5>",
        "gltfExtensions": {
          "always_face_camera": {
            "Value": false
          }
        }
      },
      "children": [
        20,
        21
      ]
    },
    {
      "name": "mesh_3",
      "extras": {
        "gltfExtensions": {
          "uuid": {
            "Value": "dvovyarehcqalmarocjs_LINE"
          }
        }
      },
      "mesh": 2
    },
    {
      "name": "mesh_3_1",
      "extras": {
        "gltfExtensions": {
          "uuid": {
            "Value": "dvovyarehcqalmarocjs"
          }
        }
      },
      "mesh": 3
    },
    {
      "matrix": [
        -1,
        -8.326672684688674e-16,
        0,
        0,
        8.326672684688674e-16,
        -1,
        0,
        0,
        0,
        0,
        -1,
        0,
        47.637794494628906,
        32.2047233581543,
        24.015748977661133,
        1
      ],
      "name": "<组件#5>_14",
      "extras": {
        "name": "<组件#5>",
        "gltfExtensions": {
          "always_face_camera": {
            "Value": false
          }
        }
      },
      "children": [
        23,
        24
      ]
    },
    {
      "name": "mesh_3",
      "extras": {
        "gltfExtensions": {
          "uuid": {
            "Value": "dvovyarehcqalmarocjs_LINE"
          }
        }
      },
      "mesh": 2
    },
    {
      "name": "mesh_3_1",
      "extras": {
        "gltfExtensions": {
          "uuid": {
            "Value": "dvovyarehcqalmarocjs"
          }
        }
      },
      "mesh": 3
    },
    {
      "matrix": [
        3.422854177870249e-8,
        0.9999999657714582,
        0,
        0,
        0.9999999657714582,
        3.422854177870249e-8,
        0,
        0,
        0,
        0,
        -0.9999999315429164,
        0,
        0.5511810779571533,
        0.3937007784843445,
        24.015748977661133,
        1
      ],
      "name": "<组件#5>_15",
      "extras": {
        "name": "<组件#5>",
        "gltfExtensions": {
          "always_face_camera": {
            "Value": false
          }
        }
      },
      "children": [
        26,
        27
      ]
    },
    {
      "name": "mesh_3",
      "extras": {
        "gltfExtensions": {
          "uuid": {
            "Value": "dvovyarehcqalmarocjs_LINE"
          }
        }
      },
      "mesh": 2
    },
    {
      "name": "mesh_3_1",
      "extras": {
        "gltfExtensions": {
          "uuid": {
            "Value": "dvovyarehcqalmarocjs"
          }
        }
      },
      "mesh": 3
    }
  ],
  "bufferViews": [
    {
      "buffer": 0,
      "byteOffset": 0,
      "byteLength": 576,
      "target": 34962,
      "byteStride": 12
    },
    {
      "buffer": 0,
      "byteOffset": 576,
      "byteLength": 192,
      "target": 34963
    },
    {
      "buffer": 0,
      "byteOffset": 768,
      "byteLength": 288,
      "target": 34962,
      "byteStride": 12
    },
    {
      "buffer": 0,
      "byteOffset": 1056,
      "byteLength": 288,
      "target": 34962,
      "byteStride": 12
    },
    {
      "buffer": 0,
      "byteOffset": 1344,
      "byteLength": 192,
      "target": 34962,
      "byteStride": 8
    },
    {
      "buffer": 0,
      "byteOffset": 1536,
      "byteLength": 144,
      "target": 34963
    },
    {
      "buffer": 0,
      "byteOffset": 1680,
      "byteLength": 5184,
      "target": 34962,
      "byteStride": 12
    },
    {
      "buffer": 0,
      "byteOffset": 6864,
      "byteLength": 1728,
      "target": 34963
    },
    {
      "buffer": 0,
      "byteOffset": 8592,
      "byteLength": 2592,
      "target": 34962,
      "byteStride": 12
    },
    {
      "buffer": 0,
      "byteOffset": 11184,
      "byteLength": 2592,
      "target": 34962,
      "byteStride": 12
    },
    {
      "buffer": 0,
      "byteOffset": 13776,
      "byteLength": 1728,
      "target": 34962,
      "byteStride": 8
    },
    {
      "buffer": 0,
      "byteOffset": 15504,
      "byteLength": 1680,
      "target": 34963
    }
  ],
  "buffers": [
    {
      "byteLength": 17184,
      "uri": "data:application/octet-stream;base64,"
    }
  ],
  "accessors": [
    {
      "bufferView": 0,
      "componentType": 5126,
      "count": 48,
      "max": [
        47.637794494628906,
        32.2047233581543,
        24.015748977661133
      ],
      "min": [
        -0.3937007784843445,
        -0.3937007784843445,
        -0.3937007784843445
      ],
      "type": "VEC3"
    },
    {
      "bufferView": 1,
      "componentType": 5125,
      "count": 48,
      "max": [
        47
      ],
      "min": [
        0
      ],
      "type": "SCALAR"
    },
    {
      "bufferView": 2,
      "componentType": 5126,
      "count": 24,
      "max": [
        47.637794494628906,
        32.2047233581543,
        24.015748977661133
      ],
      "min": [
        -0.3937007784843445,
        -0.3937007784843445,
        -0.3937007784843445
      ],
      "type": "VEC3"
    },
    {
      "bufferView": 3,
      "componentType": 5126,
      "count": 24,
      "max": [
        1,
        1,
        1
      ],
      "min": [
        -1,
        -1,
        -1
      ],
      "type": "VEC3"
    },
    {
      "bufferView": 4,
      "componentType": 5126,
      "count": 24,
      "max": [
        1.2100000381469727,
        0.009999999776482582
      ],
      "min": [
        -1.2100000381469727,
        -0.8180000185966492
      ],
      "type": "VEC2"
    },
    {
      "bufferView": 5,
      "componentType": 5125,
      "count": 36,
      "max": [
        23
      ],
      "min": [
        0
      ],
      "type": "SCALAR"
    },
    {
      "bufferView": 6,
      "componentType": 5126,
      "count": 432,
      "max": [
        15.748031616210938,
        15.748031616210938,
        23.622047424316406
      ],
      "min": [
        0,
        0,
        0
      ],
      "type": "VEC3"
    },
    {
      "bufferView": 7,
      "componentType": 5125,
      "count": 432,
      "max": [
        431
      ],
      "min": [
        0
      ],
      "type": "SCALAR"
    },
    {
      "bufferView": 8,
      "componentType": 5126,
      "count": 216,
      "max": [
        1,
        1,
        1
      ],
      "min": [
        -1,
        -1,
        -1
      ],
      "type": "VEC3"
    },
    {
      "bufferView": 9,
      "componentType": 5126,
      "count": 216,
      "max": [
        15.748031616210938,
        15.748031616210938,
        23.622047424316406
      ],
      "min": [
        0,
        0,
        0
      ],
      "type": "VEC3"
    },
    {
      "bufferView": 10,
      "componentType": 5126,
      "count": 216,
      "max": [
        0.4000000059604645,
        0
      ],
      "min": [
        -0.4000000059604645,
        -0.5999999642372131
      ],
      "type": "VEC2"
    },
    {
      "bufferView": 11,
      "componentType": 5125,
      "count": 420,
      "max": [
        215
      ],
      "min": [
        0
      ],
      "type": "SCALAR"
    }
  ],
  "materials": [
    {
      "pbrMetallicRoughness": {
        "baseColorFactor": [
          0,
          0,
          0,
          1
        ],
        "metallicFactor": 0,
        "roughnessFactor": 1
      },
      "name": "DefaultMaterialEdge"
    },
    {
      "pbrMetallicRoughness": {
        "baseColorFactor": [
          0.29411765933036804,
          0.019607843831181526,
          1,
          1
        ],
        "metallicFactor": 0,
        "roughnessFactor": 1
      },
      "doubleSided": true,
      "name": "*"
    },
    {
      "pbrMetallicRoughness": {
        "baseColorFactor": [
          0,
          0.800000011920929,
          0.800000011920929,
          1
        ],
        "metallicFactor": 0,
        "roughnessFactor": 1
      },
      "doubleSided": true,
      "name": "[Color H06]"
    }
  ],
  "meshes": [
    {
      "primitives": [
        {
          "mode": 1,
          "attributes": {
            "POSITION": 0
          },
          "indices": 1,
          "material": 0
        }
      ]
    },
    {
      "primitives": [
        {
          "mode": 4,
          "attributes": {
            "POSITION": 2,
            "NORMAL": 3,
            "TEXCOORD_0": 4
          },
          "indices": 5,
          "material": 1
        }
      ]
    },
    {
      "primitives": [
        {
          "mode": 1,
          "attributes": {
            "POSITION": 6
          },
          "indices": 7,
          "material": 0
        }
      ]
    },
    {
      "primitives": [
        {
          "mode": 4,
          "attributes": {
            "NORMAL": 8,
            "POSITION": 9,
            "TEXCOORD_0": 10
          },
          "indices": 11,
          "material": 2
        }
      ]
    }
  ]
}