{
  "asset": {
    "version": "2.0",
    "generator": "THREE.GLTFExporter r180"
  },
  "scenes": [
    {
      "name": "AuxScene",
      "nodes": [
        0
      ]
    }
  ],
  "scene": 0,
  "nodes": [
    {
      "matrix": [
        3.422854177870249e-8,
        0,
        -0.9999999657714582,
        0,
        0,
        1,
        0,
        0,
        0.9999999657714582,
        0,
        3.422854177870249e-8,
        0,
        0,
        0,
        0,
        1
      ],
      "name": "Group_77",
      "extras": {
        "name": "Group",
        "gltfExtensions": {
          "always_face_camera": {
            "Value": false
          }
        }
      },
      "children": [
        1,
        4,
        7,
        10
      ]
    },
    {
      "matrix": [
        3.422854177870249e-8,
        0.9999999657714582,
        0,
        0,
        -0.9999999657714582,
        3.422854177870249e-8,
        -9.860760977743167e-32,
        0,
        -9.860760977743167e-32,
        0,
        1,
        0,
        7.08661413192749,
        5.511811256408691,
        102.3622055053711,
        1
      ],
      "name": "<组件#77>_12",
      "extras": {
        "name": "<组件#77>",
        "gltfExtensions": {
          "always_face_camera": {
            "Value": false
          }
        }
      },
      "children": [
        2,
        3
      ]
    },
    {
      "name": "mesh_12",
      "extras": {
        "gltfExtensions": {
          "uuid": {
            "Value": "cpqcbszxwpsawmplmera_LINE"
          }
        }
      },
      "mesh": 0
    },
    {
      "name": "mesh_12_1",
      "extras": {
        "gltfExtensions": {
          "uuid": {
            "Value": "cpqcbszxwpsawmplmera"
          }
        }
      },
      "mesh": 1
    },
    {
      "matrix": [
        3.422854177870249e-8,
        0.9999999657714582,
        0,
        0,
        -0.9999999657714582,
        3.422854177870249e-8,
        -9.860760977743167e-32,
        0,
        -9.860760977743167e-32,
        0,
        1,
        0,
        7.08661413192749,
        -1.574803113937378,
        102.3622055053711,
        1
      ],
      "name": "<组件#77>_13",
      "extras": {
        "name": "<组件#77>",
        "gltfExtensions": {
          "always_face_camera": {
            "Value": false
          }
        }
      },
      "children": [
        5,
        6
      ]
    },
    {
      "name": "mesh_12",
      "extras": {
        "gltfExtensions": {
          "uuid": {
            "Value": "cpqcbszxwpsawmplmera_LINE"
          }
        }
      },
      "mesh": 0
    },
    {
      "name": "mesh_12_1",
      "extras": {
        "gltfExtensions": {
          "uuid": {
            "Value": "cpqcbszxwpsawmplmera"
          }
        }
      },
      "mesh": 1
    },
    {
      "matrix": [
        3.422854177870249e-8,
        0.9999999657714582,
        0,
        0,
        -0.9999999657714582,
        3.422854177870249e-8,
        -9.860760977743167e-32,
        0,
        -9.860760977743167e-32,
        0,
        1,
        0,
        7.08661413192749,
        -8.661417007446289,
        102.3622055053711,
        1
      ],
      "name": "<组件#77>_14",
      "extras": {
        "name": "<组件#77>",
        "gltfExtensions": {
          "always_face_camera": {
            "Value": false
          }
        }
      },
      "children": [
        8,
        9
      ]
    },
    {
      "name": "mesh_12",
      "extras": {
        "gltfExtensions": {
          "uuid": {
            "Value": "cpqcbszxwpsawmplmera_LINE"
          }
        }
      },
      "mesh": 0
    },
    {
      "name": "mesh_12_1",
      "extras": {
        "gltfExtensions": {
          "uuid": {
            "Value": "cpqcbszxwpsawmplmera"
          }
        }
      },
      "mesh": 1
    },
    {
      "matrix": [
        3.422854177870249e-8,
        0.9999999657714582,
        0,
        0,
        -0.9999999657714582,
        3.422854177870249e-8,
        -9.860760977743167e-32,
        0,
        -9.860760977743167e-32,
        0,
        1,
        0,
        7.08661413192749,
        -15.748031616210938,
        102.3622055053711,
        1
      ],
      "name": "<组件#77>_15",
      "extras": {
        "name": "<组件#77>",
        "gltfExtensions": {
          "always_face_camera": {
            "Value": false
          }
        }
      },
      "children": [
        11,
        12
      ]
    },
    {
      "name": "mesh_12",
      "extras": {
        "gltfExtensions": {
          "uuid": {
            "Value": "cpqcbszxwpsawmplmera_LINE"
          }
        }
      },
      "mesh": 0
    },
    {
      "name": "mesh_12_1",
      "extras": {
        "gltfExtensions": {
          "uuid": {
            "Value": "cpqcbszxwpsawmplmera"
          }
        }
      },
      "mesh": 1
    }
  ],
  "bufferViews": [
    {
      "buffer": 0,
      "byteOffset": 0,
      "byteLength": 576,
      "target": 34962,
      "byteStride": 12
    },
    {
      "buffer": 0,
      "byteOffset": 576,
      "byteLength": 192,
      "target": 34963
    },
    {
      "buffer": 0,
      "byteOffset": 768,
      "byteLength": 288,
      "target": 34962,
      "byteStride": 12
    },
    {
      "buffer": 0,
      "byteOffset": 1056,
      "byteLength": 288,
      "target": 34962,
      "byteStride": 12
    },
    {
      "buffer": 0,
      "byteOffset": 1344,
      "byteLength": 192,
      "target": 34962,
      "byteStride": 8
    },
    {
      "buffer": 0,
      "byteOffset": 1536,
      "byteLength": 144,
      "target": 34963
    }
  ],
  "buffers": [
    {
      "byteLength": 1680,
      "uri": "data:application/octet-stream;base64,"
    }
  ],
  "accessors": [
    {
      "bufferView": 0,
      "componentType": 5126,
      "count": 48,
      "max": [
        7.08661413192749,
        3.149606227874756,
        0
      ],
      "min": [
        0,
        0,
        -102.3622055053711
      ],
      "type": "VEC3"
    },
    {
      "bufferView": 1,
      "componentType": 5125,
      "count": 48,
      "max": [
        47
      ],
      "min": [
        0
      ],
      "type": "SCALAR"
    },
    {
      "bufferView": 2,
      "componentType": 5126,
      "count": 24,
      "max": [
        7.08661413192749,
        3.149606227874756,
        0
      ],
      "min": [
        0,
        0,
        -102.3622055053711
      ],
      "type": "VEC3"
    },
    {
      "bufferView": 3,
      "componentType": 5126,
      "count": 24,
      "max": [
        1,
        1,
        1
      ],
      "min": [
        -1,
        -1,
        -1
      ],
      "type": "VEC3"
    },
    {
      "bufferView": 4,
      "componentType": 5126,
      "count": 24,
      "max": [
        0.17999999225139618,
        2.5999999046325684
      ],
      "min": [
        -0.17999999225139618,
        -0.07999999821186066
      ],
      "type": "VEC2"
    },
    {
      "bufferView": 5,
      "componentType": 5125,
      "count": 36,
      "max": [
        23
      ],
      "min": [
        0
      ],
      "type": "SCALAR"
    }
  ],
  "materials": [
    {
      "pbrMetallicRoughness": {
        "baseColorFactor": [
          0,
          0,
          0,
          1
        ],
        "metallicFactor": 0,
        "roughnessFactor": 1
      },
      "name": "DefaultMaterialEdge"
    },
    {
      "pbrMetallicRoughness": {
        "baseColorFactor": [
          1,
          0.24705882370471954,
          0,
          1
        ],
        "metallicFactor": 0,
        "roughnessFactor": 1
      },
      "doubleSided": true,
      "name": "[Color B05]"
    }
  ],
  "meshes": [
    {
      "primitives": [
        {
          "mode": 1,
          "attributes": {
            "POSITION": 0
          },
          "indices": 1,
          "material": 0
        }
      ]
    },
    {
      "primitives": [
        {
          "mode": 4,
          "attributes": {
            "POSITION": 2,
            "NORMAL": 3,
            "TEXCOORD_0": 4
          },
          "indices": 5,
          "material": 1
        }
      ]
    }
  ]
}