<svg width="18" height="18" viewBox="0 0 18 18" fill="none" xmlns="http://www.w3.org/2000/svg">
<g id="&#229;&#177;&#149;&#229;&#188;&#128;" clip-path="url(#clip0_2209_5579)">
<path id="Vector" d="M5.08317 2.16019C5.17025 2.07289 5.27371 2.00362 5.3876 1.95636C5.5015 1.90909 5.6236 1.88477 5.74692 1.88477C5.87023 1.88477 5.99233 1.90909 6.10623 1.95636C6.22013 2.00362 6.32358 2.07289 6.41067 2.16019L12.7182 8.46769C12.7877 8.53708 12.8429 8.61949 12.8805 8.71022C12.9181 8.80095 12.9375 8.89821 12.9375 8.99644C12.9375 9.09467 12.9181 9.19193 12.8805 9.28266C12.8429 9.37339 12.7877 9.45581 12.7182 9.52519L6.41067 15.8327C6.04317 16.2002 5.45067 16.2002 5.08317 15.8327C4.71567 15.4652 4.71567 14.8727 5.08317 14.5052L10.5882 9.00019L5.07567 3.48769C4.71567 3.12019 4.71567 2.52769 5.08317 2.16019Z" fill="#91A5CD"/>
</g>
<defs>
<clipPath id="clip0_2209_5579">
<rect width="18" height="18" fill="white"/>
</clipPath>
</defs>
</svg>
