<?xml version="1.0" standalone="no"?><!DOCTYPE svg PUBLIC "-//W3C//DTD SVG 1.1//EN" "http://www.w3.org/Graphics/SVG/1.1/DTD/svg11.dtd"><svg t="1765814988450" class="icon" viewBox="0 0 1024 1024" version="1.1" xmlns="http://www.w3.org/2000/svg" p-id="8398" xmlns:xlink="http://www.w3.org/1999/xlink" width="200" height="200"><path d="M518.143712 9.34238A35.050663 35.050663 0 0 0 493.096272 0.048047L112.028614 0.126813A70.02256 70.02256 0 0 0 39.406791 67.156283v871.93447a70.02256 70.02256 0 0 0 72.621823 67.029471h726.454528a70.02256 70.02256 0 0 0 72.621823-66.950705V385.684106a35.050663 35.050663 0 0 0-36.389677-33.632884h-236.296605a104.915692 104.915692 0 0 1-109.0115-100.583588V33.602165a35.050663 35.050663 0 0 0-11.263471-24.259785z m88.532461 45.762776a17.722245 17.722245 0 0 0-3.386918 9.451864v190.061236a34.026711 34.026711 0 0 0 35.365725 32.923993h203.372611a16.304466 16.304466 0 0 0 12.444955-28.119296L633.298924 52.820955a17.722245 17.722245 0 0 0-26.622751 2.362966zM318.945674 564.166808c0-13.075079 5.11976-25.126206 14.335327-33.632884l0.393828-0.315062a45.605245 45.605245 0 0 1 33.632883-14.335327c12.996313 0 25.913861 5.11976 35.838319 14.335327l69.628733 69.549967 69.31367-69.31367a42.375858 42.375858 0 0 1 14.807921-11.421003 44.97512 44.97512 0 0 1 18.746197-4.095808c6.537539 0 13.153844 1.339014 19.376322 3.938277a52.772908 52.772908 0 0 1 32.057572 47.495618 44.97512 44.97512 0 0 1-4.095807 18.746197 42.375858 42.375858 0 0 1-11.499768 14.886686l-69.15614 69.15614 69.549967 69.628732a55.21464 55.21464 0 0 1 13.862734 35.917084 47.338086 47.338086 0 0 1-13.626437 33.86918 47.416852 47.416852 0 0 1-33.86918 13.626438 55.21464 55.21464 0 0 1-35.99585-13.862734L472.617233 738.711233l-69.628733 69.628733a42.454623 42.454623 0 0 1-14.886686 11.499768 44.97512 44.97512 0 0 1-18.667432 4.017042 49.38599 49.38599 0 0 1-19.455087-3.938277 52.772908 52.772908 0 0 1-31.978807-47.416852c0-6.616305 1.41778-12.996313 4.095807-18.746197a42.375858 42.375858 0 0 1 11.421003-14.886686l69.313671-69.313671-69.628733-69.549967a53.403033 53.403033 0 0 1-14.256562-35.838318z" fill="#ffffff" p-id="8399"></path></svg>