<?xml version="1.0" standalone="no"?><!DOCTYPE svg PUBLIC "-//W3C//DTD SVG 1.1//EN" "http://www.w3.org/Graphics/SVG/1.1/DTD/svg11.dtd"><svg t="1765815007621" class="icon" viewBox="0 0 1024 1024" version="1.1" xmlns="http://www.w3.org/2000/svg" p-id="9520" xmlns:xlink="http://www.w3.org/1999/xlink" width="200" height="200"><path d="M0 298.666667m42.666667 0l640 0q42.666667 0 42.666666 42.666666l0 640q0 42.666667-42.666666 42.666667l-640 0q-42.666667 0-42.666667-42.666667l0-640q0-42.666667 42.666667-42.666666Z" fill="#ffffff" p-id="9521"></path><path d="M682.666667 298.666667a42.666667 42.666667 0 0 1 42.666666 42.666666v640a42.666667 42.666667 0 0 1-42.666666 42.666667H42.666667a42.666667 42.666667 0 0 1-42.666667-42.666667V341.333333a42.666667 42.666667 0 0 1 42.666667-42.666666h640z m0 42.666666H42.666667v640h640V341.333333z" fill="#ffffff" p-id="9522"></path><path d="M810.666667 149.333333a64 64 0 0 1 63.701333 57.856L874.666667 213.333333v554.666667a21.333333 21.333333 0 0 1-42.325334 3.84L832 768V213.333333a21.333333 21.333333 0 0 0-17.493333-20.992L810.666667 192H256a21.333333 21.333333 0 0 1-3.84-42.325333L256 149.333333h554.666667z" fill="#ffffff" p-id="9523"></path><path d="M960 0a64 64 0 0 1 63.701333 57.856L1024 64v554.666667a21.333333 21.333333 0 0 1-42.325333 3.84L981.333333 618.666667v-554.666667a21.333333 21.333333 0 0 0-17.493333-20.992L960 42.666667h-554.666667a21.333333 21.333333 0 0 1-3.84-42.325334L405.333333 0h554.666667z" fill="#ffffff" p-id="9524"></path></svg>