
<svg width="18" height="18" viewBox="0 0 18 18" fill="none" xmlns="http://www.w3.org/2000/svg">
<g id="&#231;&#188;&#150;&#232;&#190;&#145;" clip-path="url(#clip0_2217_8234)">
<path id="Vector" d="M13.7866 2C14.1695 2 14.4799 2.3134 14.4799 2.7V5.3299L13.0933 6.7299V3.4H3.38666V14.6H13.0933V12.6694L14.4799 11.2694V15.3C14.4799 15.6866 14.1695 16 13.7866 16H2.69333C2.31042 16 2 15.6866 2 15.3V2.7C2 2.3134 2.31042 2 2.69333 2H13.7866ZM15.0195 6.76533L16 7.75526L10.6071 13.2L9.62518 13.1985L9.62663 12.2101L15.0195 6.76533ZM8.9333 9V10.4H5.46665V9H8.9333ZM11.0133 6.2V7.6H5.46665V6.2H11.0133Z" fill="#67789D"/>
</g>
<defs>
<clipPath id="clip0_2217_8234">
<rect width="18" height="18" fill="white"/>
</clipPath>
</defs>
</svg>
