
<svg width="20" height="20" viewBox="0 0 20 20" fill="none" xmlns="http://www.w3.org/2000/svg">
<g id="&#230;&#150;&#176;&#229;&#187;&#186;&#229;&#156;&#176;&#229;&#157;&#151;" clip-path="url(#clip0_2211_7274)">
<path id="Vector" d="M9.189 11.1574L10.572 18.999H2C1.73478 18.999 1.48043 18.8937 1.29289 18.7061C1.10536 18.5186 1 18.2643 1 17.9991V12.6034L9.189 11.1584V11.1574ZM18 1.001C18.2652 1.001 18.5196 1.10635 18.7071 1.29388C18.8946 1.4814 19 1.73574 19 2.00094V18.0001C19 18.2653 18.8946 18.5196 18.7071 18.7071C18.5196 18.8947 18.2652 19 18 19L12.603 18.999L9.429 1H18V1.001ZM7.398 1L8.842 9.18754L1 10.5715V2.00094C1 1.73574 1.10536 1.4814 1.29289 1.29388C1.48043 1.10635 1.73478 1.001 2 1.001L7.398 1Z" fill="url(#paint0_linear_2211_7274)"/>
</g>
<defs>
<linearGradient id="paint0_linear_2211_7274" x1="10" y1="1" x2="10" y2="19" gradientUnits="userSpaceOnUse">
<stop stop-color="#91A5CD"/>
<stop offset="1" stop-color="#67789D"/>
</linearGradient>
<clipPath id="clip0_2211_7274">
<rect width="20" height="20" fill="white"/>
</clipPath>
</defs>
</svg>
