{
  "asset": {
    "version": "2.0",
    "generator": "THREE.GLTFExporter r180"
  },
  "scenes": [
    {
      "name": "AuxScene",
      "nodes": [
        0
      ]
    }
  ],
  "scene": 0,
  "nodes": [
    {
      "name": "Group_226",
      "extras": {
        "name": "Group",
        "gltfExtensions": {
          "always_face_camera": {
            "Value": false
          }
        }
      },
      "children": [
        1,
        4,
        7
      ]
    },
    {
      "rotation": [
        0.5,
        -0.4999999701976776,
        -0.5,
        0.5
      ],
      "translation": [
        3.9370079040527344,
        4.1338582038879395,
        1.0629922151565552
      ],
      "name": "<tuojian#1>_76",
      "extras": {
        "name": "<tuojian#1>",
        "gltfExtensions": {
          "always_face_camera": {
            "Value": false
          }
        }
      },
      "children": [
        2,
        3
      ]
    },
    {
      "name": "mesh_24",
      "extras": {
        "gltfExtensions": {
          "uuid": {
            "Value": "oyscwevufluuqplgsplx_LINE"
          }
        }
      },
      "mesh": 0
    },
    {
      "name": "mesh_24_1",
      "extras": {
        "gltfExtensions": {
          "uuid": {
            "Value": "oyscwevufluuqplgsplx"
          }
        }
      },
      "mesh": 1
    },
    {
      "rotation": [
        0.5,
        -0.4999999701976776,
        -0.5,
        0.5
      ],
      "translation": [
        110.23622131347656,
        4.1338582038879395,
        1.0629922151565552
      ],
      "name": "<tuojian#1>_77",
      "extras": {
        "name": "<tuojian#1>",
        "gltfExtensions": {
          "always_face_camera": {
            "Value": false
          }
        }
      },
      "children": [
        5,
        6
      ]
    },
    {
      "name": "mesh_24",
      "extras": {
        "gltfExtensions": {
          "uuid": {
            "Value": "oyscwevufluuqplgsplx_LINE"
          }
        }
      },
      "mesh": 0
    },
    {
      "name": "mesh_24_1",
      "extras": {
        "gltfExtensions": {
          "uuid": {
            "Value": "oyscwevufluuqplgsplx"
          }
        }
      },
      "mesh": 1
    },
    {
      "rotation": [
        -0.49999999254927197,
        0.5000000074507279,
        -0.49999999254927185,
        0.500000007450728
      ],
      "translation": [
        1.1733527571777813e-7,
        5.295275688171387,
        4.881889820098877
      ],
      "scale": [
        1.0000000000000004,
        1.0000000000000004,
        1
      ],
      "name": "<组件#29>_38",
      "extras": {
        "name": "<组件#29>",
        "gltfExtensions": {
          "always_face_camera": {
            "Value": false
          }
        }
      },
      "children": [
        8,
        9
      ]
    },
    {
      "name": "mesh_25",
      "extras": {
        "gltfExtensions": {
          "uuid": {
            "Value": "vssqlhqwnqhupnboafvn_LINE"
          }
        }
      },
      "mesh": 2
    },
    {
      "name": "mesh_25_1",
      "extras": {
        "gltfExtensions": {
          "uuid": {
            "Value": "vssqlhqwnqhupnboafvn"
          }
        }
      },
      "mesh": 3
    }
  ],
  "bufferViews": [
    {
      "buffer": 0,
      "byteOffset": 0,
      "byteLength": 1728,
      "target": 34962,
      "byteStride": 12
    },
    {
      "buffer": 0,
      "byteOffset": 1728,
      "byteLength": 576,
      "target": 34963
    },
    {
      "buffer": 0,
      "byteOffset": 2304,
      "byteLength": 864,
      "target": 34962,
      "byteStride": 12
    },
    {
      "buffer": 0,
      "byteOffset": 3168,
      "byteLength": 864,
      "target": 34962,
      "byteStride": 12
    },
    {
      "buffer": 0,
      "byteOffset": 4032,
      "byteLength": 576,
      "target": 34962,
      "byteStride": 8
    },
    {
      "buffer": 0,
      "byteOffset": 4608,
      "byteLength": 528,
      "target": 34963
    },
    {
      "buffer": 0,
      "byteOffset": 5136,
      "byteLength": 1152,
      "target": 34962,
      "byteStride": 12
    },
    {
      "buffer": 0,
      "byteOffset": 6288,
      "byteLength": 384,
      "target": 34963
    },
    {
      "buffer": 0,
      "byteOffset": 6672,
      "byteLength": 576,
      "target": 34962,
      "byteStride": 12
    },
    {
      "buffer": 0,
      "byteOffset": 7248,
      "byteLength": 576,
      "target": 34962,
      "byteStride": 12
    },
    {
      "buffer": 0,
      "byteOffset": 7824,
      "byteLength": 384,
      "target": 34962,
      "byteStride": 8
    },
    {
      "buffer": 0,
      "byteOffset": 8208,
      "byteLength": 384,
      "target": 34963
    }
  ],
  "buffers": [
    {
      "byteLength": 8592,
      "uri": "data:application/octet-stream;base64,"
    }
  ],
  "accessors": [
    {
      "bufferView": 0,
      "componentType": 5126,
      "count": 144,
      "max": [
        4.1338582038879395,
        3.031496047973633,
        3.9370079040527344
      ],
      "min": [
        -3.34645676612854,
        -1.0629920959472656,
        0
      ],
      "type": "VEC3"
    },
    {
      "bufferView": 1,
      "componentType": 5125,
      "count": 144,
      "max": [
        143
      ],
      "min": [
        0
      ],
      "type": "SCALAR"
    },
    {
      "bufferView": 2,
      "componentType": 5126,
      "count": 72,
      "max": [
        4.1338582038879395,
        3.031496047973633,
        3.9370079040527344
      ],
      "min": [
        -3.34645676612854,
        -1.0629920959472656,
        0
      ],
      "type": "VEC3"
    },
    {
      "bufferView": 3,
      "componentType": 5126,
      "count": 72,
      "max": [
        1,
        1,
        1
      ],
      "min": [
        -1,
        -1,
        -1
      ],
      "type": "VEC3"
    },
    {
      "bufferView": 4,
      "componentType": 5126,
      "count": 72,
      "max": [
        0.10499999672174454,
        0.026999998837709427
      ],
      "min": [
        -0.10499999672174454,
        -0.10000000149011612
      ],
      "type": "VEC2"
    },
    {
      "bufferView": 5,
      "componentType": 5125,
      "count": 132,
      "max": [
        71
      ],
      "min": [
        0
      ],
      "type": "SCALAR"
    },
    {
      "bufferView": 6,
      "componentType": 5126,
      "count": 96,
      "max": [
        3.149606227874756,
        4.724409580230713,
        110.23622131347656
      ],
      "min": [
        -2.2737367544323206e-12,
        0,
        0
      ],
      "type": "VEC3"
    },
    {
      "bufferView": 7,
      "componentType": 5125,
      "count": 96,
      "max": [
        95
      ],
      "min": [
        0
      ],
      "type": "SCALAR"
    },
    {
      "bufferView": 8,
      "componentType": 5126,
      "count": 48,
      "max": [
        3.149606227874756,
        4.724409580230713,
        110.23622131347656
      ],
      "min": [
        -2.2737367544323206e-12,
        0,
        0
      ],
      "type": "VEC3"
    },
    {
      "bufferView": 9,
      "componentType": 5126,
      "count": 48,
      "max": [
        1,
        1,
        1
      ],
      "min": [
        -1,
        -1,
        -1
      ],
      "type": "VEC3"
    },
    {
      "bufferView": 10,
      "componentType": 5126,
      "count": 48,
      "max": [
        0.11999999731779099,
        7.893311438283163e-18
      ],
      "min": [
        -0.11999999731779099,
        -2.799999952316284
      ],
      "type": "VEC2"
    },
    {
      "bufferView": 11,
      "componentType": 5125,
      "count": 96,
      "max": [
        47
      ],
      "min": [
        0
      ],
      "type": "SCALAR"
    }
  ],
  "materials": [
    {
      "pbrMetallicRoughness": {
        "baseColorFactor": [
          0,
          0,
          0,
          1
        ],
        "metallicFactor": 0,
        "roughnessFactor": 1
      },
      "name": "DefaultMaterialEdge"
    },
    {
      "pbrMetallicRoughness": {
        "baseColorFactor": [
          0.8666666746139526,
          0.6274510025978088,
          0.8666666746139526,
          1
        ],
        "metallicFactor": 0,
        "roughnessFactor": 1
      },
      "doubleSided": true,
      "name": "[0125_Plum]"
    },
    {
      "pbrMetallicRoughness": {
        "baseColorFactor": [
          0.49803921580314636,
          1,
          0.8313725590705872,
          1
        ],
        "metallicFactor": 0,
        "roughnessFactor": 1
      },
      "doubleSided": true,
      "name": "[0088_Aquamarine]"
    }
  ],
  "meshes": [
    {
      "primitives": [
        {
          "mode": 1,
          "attributes": {
            "POSITION": 0
          },
          "indices": 1,
          "material": 0
        }
      ]
    },
    {
      "primitives": [
        {
          "mode": 4,
          "attributes": {
            "POSITION": 2,
            "NORMAL": 3,
            "TEXCOORD_0": 4
          },
          "indices": 5,
          "material": 1
        }
      ]
    },
    {
      "primitives": [
        {
          "mode": 1,
          "attributes": {
            "POSITION": 6
          },
          "indices": 7,
          "material": 0
        }
      ]
    },
    {
      "primitives": [
        {
          "mode": 4,
          "attributes": {
            "POSITION": 8,
            "NORMAL": 9,
            "TEXCOORD_0": 10
          },
          "indices": 11,
          "material": 2
        }
      ]
    }
  ]
}