{
  "asset": {
    "version": "2.0",
    "generator": "THREE.GLTFExporter r180"
  },
  "scenes": [
    {
      "name": "AuxScene",
      "nodes": [
        0
      ]
    }
  ],
  "scene": 0,
  "nodes": [
    {
      "name": "IfcDoor_-_单嵌板木门_14D-04455344<3ID151naX4SP9QZfy4vvW9#1>_3",
      "extras": {
        "name": "IfcDoor - 单嵌板木门 14:D-04:455344<3ID151naX4SP9QZfy4vvW9#1>",
        "gltfExtensions": {
          "always_face_camera": {
            "Value": false
          }
        }
      },
      "children": [
        1,
        2,
        3,
        4,
        5
      ]
    },
    {
      "name": "mesh_59",
      "extras": {
        "gltfExtensions": {
          "uuid": {
            "Value": "lryuivysubtaxfbqynka_LINE"
          }
        }
      },
      "mesh": 0
    },
    {
      "name": "mesh_59_1",
      "extras": {
        "gltfExtensions": {
          "uuid": {
            "Value": "lryuivysubtaxfbqynka"
          }
        }
      },
      "mesh": 1
    },
    {
      "name": "mesh_59_2",
      "extras": {
        "gltfExtensions": {
          "uuid": {
            "Value": "bargaqrzmuoashtgubdu_LINE"
          }
        }
      },
      "mesh": 2
    },
    {
      "name": "mesh_59_3",
      "extras": {
        "gltfExtensions": {
          "uuid": {
            "Value": "bargaqrzmuoashtgubdu"
          }
        }
      },
      "mesh": 3
    },
    {
      "translation": [
        164.50364685058594,
        101.93384552001953,
        0
      ],
      "name": "Group_251",
      "extras": {
        "name": "Group",
        "gltfExtensions": {
          "always_face_camera": {
            "Value": false
          }
        }
      },
      "children": [
        6,
        7
      ]
    },
    {
      "name": "mesh_60",
      "extras": {
        "gltfExtensions": {
          "uuid": {
            "Value": "iwhtiqjohggvkkyvxbep_LINE"
          }
        }
      },
      "mesh": 4
    },
    {
      "name": "mesh_60_1",
      "extras": {
        "gltfExtensions": {
          "uuid": {
            "Value": "iwhtiqjohggvkkyvxbep"
          }
        }
      },
      "mesh": 5
    }
  ],
  "bufferViews": [
    {
      "buffer": 0,
      "byteOffset": 0,
      "byteLength": 21120,
      "target": 34962,
      "byteStride": 12
    },
    {
      "buffer": 0,
      "byteOffset": 21120,
      "byteLength": 7040,
      "target": 34963
    },
    {
      "buffer": 0,
      "byteOffset": 28160,
      "byteLength": 29724,
      "target": 34962,
      "byteStride": 12
    },
    {
      "buffer": 0,
      "byteOffset": 57884,
      "byteLength": 29724,
      "target": 34962,
      "byteStride": 12
    },
    {
      "buffer": 0,
      "byteOffset": 87608,
      "byteLength": 19816,
      "target": 34962,
      "byteStride": 8
    },
    {
      "buffer": 0,
      "byteOffset": 107424,
      "byteLength": 10068,
      "target": 34963
    },
    {
      "buffer": 0,
      "byteOffset": 117492,
      "byteLength": 5088,
      "target": 34962,
      "byteStride": 12
    },
    {
      "buffer": 0,
      "byteOffset": 122580,
      "byteLength": 1696,
      "target": 34963
    },
    {
      "buffer": 0,
      "byteOffset": 124276,
      "byteLength": 5124,
      "target": 34962,
      "byteStride": 12
    },
    {
      "buffer": 0,
      "byteOffset": 129400,
      "byteLength": 5124,
      "target": 34962,
      "byteStride": 12
    },
    {
      "buffer": 0,
      "byteOffset": 134524,
      "byteLength": 3416,
      "target": 34962,
      "byteStride": 8
    },
    {
      "buffer": 0,
      "byteOffset": 137940,
      "byteLength": 2028,
      "target": 34963
    },
    {
      "buffer": 0,
      "byteOffset": 139968,
      "byteLength": 576,
      "target": 34962,
      "byteStride": 12
    },
    {
      "buffer": 0,
      "byteOffset": 140544,
      "byteLength": 192,
      "target": 34963
    },
    {
      "buffer": 0,
      "byteOffset": 140736,
      "byteLength": 288,
      "target": 34962,
      "byteStride": 12
    },
    {
      "buffer": 0,
      "byteOffset": 141024,
      "byteLength": 288,
      "target": 34962,
      "byteStride": 12
    },
    {
      "buffer": 0,
      "byteOffset": 141312,
      "byteLength": 192,
      "target": 34962,
      "byteStride": 8
    },
    {
      "buffer": 0,
      "byteOffset": 141504,
      "byteLength": 144,
      "target": 34963
    }
  ],
  "buffers": [
    {
      "byteLength": 141648,
      "uri": "data:application/octet-stream;base64,"
    }
  ],
  "accessors": [
    {
      "bufferView": 0,
      "componentType": 5126,
      "count": 1760,
      "max": [
        206.03907775878906,
        108.58739471435547,
        81.10236358642578
      ],
      "min": [
        161.55088806152344,
        99.57164001464844,
        0
      ],
      "type": "VEC3"
    },
    {
      "bufferView": 1,
      "componentType": 5125,
      "count": 1760,
      "max": [
        1759
      ],
      "min": [
        0
      ],
      "type": "SCALAR"
    },
    {
      "bufferView": 2,
      "componentType": 5126,
      "count": 2477,
      "max": [
        206.03907775878906,
        108.58739471435547,
        81.10236358642578
      ],
      "min": [
        161.55088806152344,
        99.57164001464844,
        0
      ],
      "type": "VEC3"
    },
    {
      "bufferView": 3,
      "componentType": 5126,
      "count": 2477,
      "max": [
        1,
        1,
        1
      ],
      "min": [
        -1,
        -1,
        -1
      ],
      "type": "VEC3"
    },
    {
      "bufferView": 4,
      "componentType": 5126,
      "count": 2477,
      "max": [
        4.371392726898193,
        4.177804470062256
      ],
      "min": [
        -5.233392715454102,
        -4.4774489402771
      ],
      "type": "VEC2"
    },
    {
      "bufferView": 5,
      "componentType": 5125,
      "count": 2517,
      "max": [
        2476
      ],
      "min": [
        0
      ],
      "type": "SCALAR"
    },
    {
      "bufferView": 6,
      "componentType": 5126,
      "count": 424,
      "max": [
        206.03907775878906,
        108.58739471435547,
        83.66141510009766
      ],
      "min": [
        161.55088806152344,
        101.34329986572266,
        0
      ],
      "type": "VEC3"
    },
    {
      "bufferView": 7,
      "componentType": 5125,
      "count": 424,
      "max": [
        423
      ],
      "min": [
        0
      ],
      "type": "SCALAR"
    },
    {
      "bufferView": 8,
      "componentType": 5126,
      "count": 427,
      "max": [
        206.03907775878906,
        108.58739471435547,
        83.66141510009766
      ],
      "min": [
        161.55088806152344,
        101.34329986572266,
        0
      ],
      "type": "VEC3"
    },
    {
      "bufferView": 9,
      "componentType": 5126,
      "count": 427,
      "max": [
        1,
        1,
        1
      ],
      "min": [
        -1,
        -1,
        -1
      ],
      "type": "VEC3"
    },
    {
      "bufferView": 10,
      "componentType": 5126,
      "count": 427,
      "max": [
        5.233392715454102,
        2.247444851749547e-13
      ],
      "min": [
        -5.5411529541015625,
        -2.758119821548462
      ],
      "type": "VEC2"
    },
    {
      "bufferView": 11,
      "componentType": 5125,
      "count": 507,
      "max": [
        426
      ],
      "min": [
        0
      ],
      "type": "SCALAR"
    },
    {
      "bufferView": 12,
      "componentType": 5126,
      "count": 48,
      "max": [
        38.58267593383789,
        3.9370079040527344,
        80.70866394042969
      ],
      "min": [
        0,
        -4.547473508864641e-13,
        0
      ],
      "type": "VEC3"
    },
    {
      "bufferView": 13,
      "componentType": 5125,
      "count": 48,
      "max": [
        47
      ],
      "min": [
        0
      ],
      "type": "SCALAR"
    },
    {
      "bufferView": 14,
      "componentType": 5126,
      "count": 24,
      "max": [
        38.58267593383789,
        3.9370079040527344,
        80.70866394042969
      ],
      "min": [
        0,
        -4.547473508864641e-13,
        0
      ],
      "type": "VEC3"
    },
    {
      "bufferView": 15,
      "componentType": 5126,
      "count": 24,
      "max": [
        1,
        1,
        1
      ],
      "min": [
        -1,
        -1,
        -1
      ],
      "type": "VEC3"
    },
    {
      "bufferView": 16,
      "componentType": 5126,
      "count": 24,
      "max": [
        0.9799999594688416,
        1.1550582572925159e-14
      ],
      "min": [
        -0.9799999594688416,
        -2.049999952316284
      ],
      "type": "VEC2"
    },
    {
      "bufferView": 17,
      "componentType": 5125,
      "count": 36,
      "max": [
        23
      ],
      "min": [
        0
      ],
      "type": "SCALAR"
    }
  ],
  "materials": [
    {
      "pbrMetallicRoughness": {
        "baseColorFactor": [
          0,
          0,
          0,
          1
        ],
        "metallicFactor": 0,
        "roughnessFactor": 1
      },
      "name": "DefaultMaterialEdge"
    },
    {
      "pbrMetallicRoughness": {
        "baseColorFactor": [
          0.886274516582489,
          0.6941176652908325,
          0.501960813999176,
          1
        ],
        "metallicFactor": 0,
        "roughnessFactor": 1
      },
      "doubleSided": true,
      "name": "<auto>28"
    },
    {
      "pbrMetallicRoughness": {
        "baseColorFactor": [
          0.8627451062202454,
          0.8627451062202454,
          0.8627451062202454,
          1
        ],
        "metallicFactor": 0,
        "roughnessFactor": 1
      },
      "doubleSided": true,
      "name": "[0130_Gainsboro]"
    }
  ],
  "meshes": [
    {
      "primitives": [
        {
          "mode": 1,
          "attributes": {
            "POSITION": 0
          },
          "indices": 1,
          "material": 0
        }
      ]
    },
    {
      "primitives": [
        {
          "mode": 4,
          "attributes": {
            "POSITION": 2,
            "NORMAL": 3,
            "TEXCOORD_0": 4
          },
          "indices": 5,
          "material": 1
        }
      ]
    },
    {
      "primitives": [
        {
          "mode": 1,
          "attributes": {
            "POSITION": 6
          },
          "indices": 7,
          "material": 0
        }
      ]
    },
    {
      "primitives": [
        {
          "mode": 4,
          "attributes": {
            "POSITION": 8,
            "NORMAL": 9,
            "TEXCOORD_0": 10
          },
          "indices": 11,
          "material": 2
        }
      ]
    },
    {
      "primitives": [
        {
          "mode": 1,
          "attributes": {
            "POSITION": 12
          },
          "indices": 13,
          "material": 0
        }
      ]
    },
    {
      "primitives": [
        {
          "mode": 4,
          "attributes": {
            "POSITION": 14,
            "NORMAL": 15,
            "TEXCOORD_0": 16
          },
          "indices": 17,
          "material": 2
        }
      ]
    }
  ]
}