{
  "asset": {
    "version": "2.0",
    "generator": "THREE.GLTFExporter r180"
  },
  "scenes": [
    {
      "name": "AuxScene",
      "nodes": [
        0
      ]
    }
  ],
  "scene": 0,
  "nodes": [
    {
      "name": "<组件#38>_1",
      "extras": {
        "name": "<组件#38>",
        "gltfExtensions": {
          "always_face_camera": {
            "Value": false
          }
        }
      },
      "children": [
        1,
        2
      ]
    },
    {
      "name": "mesh_41",
      "extras": {
        "gltfExtensions": {
          "uuid": {
            "Value": "rqqfmmiazqpzafnhzgpo_LINE"
          }
        }
      },
      "mesh": 0
    },
    {
      "name": "mesh_41_1",
      "extras": {
        "gltfExtensions": {
          "uuid": {
            "Value": "rqqfmmiazqpzafnhzgpo"
          }
        }
      },
      "mesh": 1
    }
  ],
  "bufferViews": [
    {
      "buffer": 0,
      "byteOffset": 0,
      "byteLength": 1152,
      "target": 34962,
      "byteStride": 12
    },
    {
      "buffer": 0,
      "byteOffset": 1152,
      "byteLength": 384,
      "target": 34963
    },
    {
      "buffer": 0,
      "byteOffset": 1536,
      "byteLength": 576,
      "target": 34962,
      "byteStride": 12
    },
    {
      "buffer": 0,
      "byteOffset": 2112,
      "byteLength": 576,
      "target": 34962,
      "byteStride": 12
    },
    {
      "buffer": 0,
      "byteOffset": 2688,
      "byteLength": 384,
      "target": 34962,
      "byteStride": 8
    },
    {
      "buffer": 0,
      "byteOffset": 3072,
      "byteLength": 336,
      "target": 34963
    }
  ],
  "buffers": [
    {
      "byteLength": 3408,
      "uri": "data:application/octet-stream;base64,"
    }
  ],
  "accessors": [
    {
      "bufferView": 0,
      "componentType": 5126,
      "count": 96,
      "max": [
        7.862585067749023,
        23.622047424316406,
        1.3779528141021729
      ],
      "min": [
        0,
        0,
        -1.7763568394002505e-15
      ],
      "type": "VEC3"
    },
    {
      "bufferView": 1,
      "componentType": 5125,
      "count": 96,
      "max": [
        95
      ],
      "min": [
        0
      ],
      "type": "SCALAR"
    },
    {
      "bufferView": 2,
      "componentType": 5126,
      "count": 48,
      "max": [
        1,
        1,
        1
      ],
      "min": [
        -1,
        -1,
        -1
      ],
      "type": "VEC3"
    },
    {
      "bufferView": 3,
      "componentType": 5126,
      "count": 48,
      "max": [
        7.862585067749023,
        23.622047424316406,
        1.3779528141021729
      ],
      "min": [
        0,
        0,
        -1.7763568394002505e-15
      ],
      "type": "VEC3"
    },
    {
      "bufferView": 4,
      "componentType": 5126,
      "count": 48,
      "max": [
        0.5999999642372131,
        4.51194631754889e-17
      ],
      "min": [
        -0.5999999642372131,
        -0.5999999642372131
      ],
      "type": "VEC2"
    },
    {
      "bufferView": 5,
      "componentType": 5125,
      "count": 84,
      "max": [
        47
      ],
      "min": [
        0
      ],
      "type": "SCALAR"
    }
  ],
  "materials": [
    {
      "pbrMetallicRoughness": {
        "baseColorFactor": [
          0,
          0,
          0,
          1
        ],
        "metallicFactor": 0,
        "roughnessFactor": 1
      },
      "name": "DefaultMaterialEdge"
    },
    {
      "pbrMetallicRoughness": {
        "baseColorFactor": [
          1,
          0.8941176533699036,
          0.7098039388656616,
          1
        ],
        "metallicFactor": 0,
        "roughnessFactor": 1
      },
      "doubleSided": true,
      "name": "[0032_Moccasin]"
    }
  ],
  "meshes": [
    {
      "primitives": [
        {
          "mode": 1,
          "attributes": {
            "POSITION": 0
          },
          "indices": 1,
          "material": 0
        }
      ]
    },
    {
      "primitives": [
        {
          "mode": 4,
          "attributes": {
            "NORMAL": 2,
            "POSITION": 3,
            "TEXCOORD_0": 4
          },
          "indices": 5,
          "material": 1
        }
      ]
    }
  ]
}