{
  "asset": {
    "version": "2.0",
    "generator": "THREE.GLTFExporter r180"
  },
  "scenes": [
    {
      "name": "AuxScene",
      "nodes": [
        0
      ]
    }
  ],
  "scene": 0,
  "nodes": [
    {
      "name": "<组件#66>_1",
      "extras": {
        "name": "<组件#66>",
        "gltfExtensions": {
          "always_face_camera": {
            "Value": false
          }
        }
      },
      "children": [
        1,
        2,
        3,
        4,
        5
      ]
    },
    {
      "name": "mesh_55",
      "extras": {
        "gltfExtensions": {
          "uuid": {
            "Value": "udksxadcprzclkenbvxj_LINE"
          }
        }
      },
      "mesh": 0
    },
    {
      "name": "mesh_55_1",
      "extras": {
        "gltfExtensions": {
          "uuid": {
            "Value": "udksxadcprzclkenbvxj"
          }
        }
      },
      "mesh": 1
    },
    {
      "name": "mesh_55_2",
      "extras": {
        "gltfExtensions": {
          "uuid": {
            "Value": "lzpmungmffckkfsijqlf_LINE"
          }
        }
      },
      "mesh": 2
    },
    {
      "name": "mesh_55_3",
      "extras": {
        "gltfExtensions": {
          "uuid": {
            "Value": "lzpmungmffckkfsijqlf"
          }
        }
      },
      "mesh": 3
    },
    {
      "name": "mesh_55_4",
      "extras": {
        "gltfExtensions": {
          "uuid": {
            "Value": "lzpmungmffckkfsijqlf_standaloneOnly_LINE"
          }
        }
      },
      "mesh": 4
    }
  ],
  "bufferViews": [
    {
      "buffer": 0,
      "byteOffset": 0,
      "byteLength": 3696,
      "target": 34962,
      "byteStride": 12
    },
    {
      "buffer": 0,
      "byteOffset": 3696,
      "byteLength": 1232,
      "target": 34963
    },
    {
      "buffer": 0,
      "byteOffset": 4928,
      "byteLength": 1812,
      "target": 34962,
      "byteStride": 12
    },
    {
      "buffer": 0,
      "byteOffset": 6740,
      "byteLength": 1812,
      "target": 34962,
      "byteStride": 12
    },
    {
      "buffer": 0,
      "byteOffset": 8552,
      "byteLength": 1208,
      "target": 34962,
      "byteStride": 8
    },
    {
      "buffer": 0,
      "byteOffset": 9760,
      "byteLength": 1296,
      "target": 34963
    },
    {
      "buffer": 0,
      "byteOffset": 11056,
      "byteLength": 216,
      "target": 34962,
      "byteStride": 12
    },
    {
      "buffer": 0,
      "byteOffset": 11272,
      "byteLength": 72,
      "target": 34963
    },
    {
      "buffer": 0,
      "byteOffset": 11344,
      "byteLength": 108,
      "target": 34962,
      "byteStride": 12
    },
    {
      "buffer": 0,
      "byteOffset": 11452,
      "byteLength": 108,
      "target": 34962,
      "byteStride": 12
    },
    {
      "buffer": 0,
      "byteOffset": 11560,
      "byteLength": 72,
      "target": 34962,
      "byteStride": 8
    },
    {
      "buffer": 0,
      "byteOffset": 11632,
      "byteLength": 60,
      "target": 34963
    },
    {
      "buffer": 0,
      "byteOffset": 11692,
      "byteLength": 96,
      "target": 34962,
      "byteStride": 12
    },
    {
      "buffer": 0,
      "byteOffset": 11788,
      "byteLength": 32,
      "target": 34963
    }
  ],
  "buffers": [
    {
      "byteLength": 11820,
      "uri": "data:application/octet-stream;base64,"
    }
  ],
  "accessors": [
    {
      "bufferView": 0,
      "componentType": 5126,
      "count": 308,
      "max": [
        34.92397689819336,
        0.3937007784843445,
        35.95023727416992
      ],
      "min": [
        -5.790116786956787,
        -2.3622047901153564,
        11.333786964416504
      ],
      "type": "VEC3"
    },
    {
      "bufferView": 1,
      "componentType": 5125,
      "count": 308,
      "max": [
        307
      ],
      "min": [
        0
      ],
      "type": "SCALAR"
    },
    {
      "bufferView": 2,
      "componentType": 5126,
      "count": 151,
      "max": [
        1,
        1,
        1
      ],
      "min": [
        -1,
        -1.9370041594996001e-13,
        -1
      ],
      "type": "VEC3"
    },
    {
      "bufferView": 3,
      "componentType": 5126,
      "count": 151,
      "max": [
        34.92397689819336,
        0.3937007784843445,
        35.95023727416992
      ],
      "min": [
        -5.790116786956787,
        -2.3622047901153564,
        11.333786964416504
      ],
      "type": "VEC3"
    },
    {
      "bufferView": 4,
      "componentType": 5126,
      "count": 151,
      "max": [
        0.8870689272880554,
        0.05999999865889549
      ],
      "min": [
        -0.8870689272880554,
        -0.9131360054016113
      ],
      "type": "VEC2"
    },
    {
      "bufferView": 5,
      "componentType": 5125,
      "count": 324,
      "max": [
        150
      ],
      "min": [
        0
      ],
      "type": "SCALAR"
    },
    {
      "bufferView": 6,
      "componentType": 5126,
      "count": 18,
      "max": [
        31.740428924560547,
        2.7284841053187847e-12,
        32.776004791259766
      ],
      "min": [
        -2.6065707206726074,
        0,
        14.492716789245605
      ],
      "type": "VEC3"
    },
    {
      "bufferView": 7,
      "componentType": 5125,
      "count": 18,
      "max": [
        17
      ],
      "min": [
        0
      ],
      "type": "SCALAR"
    },
    {
      "bufferView": 8,
      "componentType": 5126,
      "count": 9,
      "max": [
        8.434491847357853e-14,
        1,
        3.691487100452239e-30
      ],
      "min": [
        -3.318732685582762e-14,
        1,
        0
      ],
      "type": "VEC3"
    },
    {
      "bufferView": 9,
      "componentType": 5126,
      "count": 9,
      "max": [
        31.740428924560547,
        2.7284841053187847e-12,
        32.776004791259766
      ],
      "min": [
        -2.6065707206726074,
        0,
        14.492716789245605
      ],
      "type": "VEC3"
    },
    {
      "bufferView": 10,
      "componentType": 5126,
      "count": 9,
      "max": [
        0.06620689481496811,
        -0.36811500787734985
      ],
      "min": [
        -0.8062068819999695,
        -0.8325105309486389
      ],
      "type": "VEC2"
    },
    {
      "bufferView": 11,
      "componentType": 5125,
      "count": 15,
      "max": [
        8
      ],
      "min": [
        0
      ],
      "type": "SCALAR"
    },
    {
      "bufferView": 12,
      "componentType": 5126,
      "count": 8,
      "max": [
        14.56692886352539,
        0,
        34.44964599609375
      ],
      "min": [
        12.869942665100098,
        -0.787401556968689,
        14.492716789245605
      ],
      "type": "VEC3"
    },
    {
      "bufferView": 13,
      "componentType": 5125,
      "count": 8,
      "max": [
        7
      ],
      "min": [
        0
      ],
      "type": "SCALAR"
    }
  ],
  "materials": [
    {
      "pbrMetallicRoughness": {
        "baseColorFactor": [
          0,
          0,
          0,
          1
        ],
        "metallicFactor": 0,
        "roughnessFactor": 1
      },
      "name": "DefaultMaterialEdge"
    },
    {
      "pbrMetallicRoughness": {
        "baseColorFactor": [
          0.8666666746139526,
          0.8666666746139526,
          0.8666666746139526,
          1
        ],
        "metallicFactor": 0,
        "roughnessFactor": 1
      },
      "doubleSided": true,
      "name": "[Color M00]"
    },
    {
      "pbrMetallicRoughness": {
        "baseColorFactor": [
          0.12941177189350128,
          0.1882352977991104,
          0.40784314274787903,
          0.5098039507865906
        ],
        "metallicFactor": 0,
        "roughnessFactor": 1
      },
      "alphaMode": "BLEND",
      "doubleSided": true,
      "name": "[Color M06]"
    }
  ],
  "meshes": [
    {
      "primitives": [
        {
          "mode": 1,
          "attributes": {
            "POSITION": 0
          },
          "indices": 1,
          "material": 0
        }
      ]
    },
    {
      "primitives": [
        {
          "mode": 4,
          "attributes": {
            "NORMAL": 2,
            "POSITION": 3,
            "TEXCOORD_0": 4
          },
          "indices": 5,
          "material": 1
        }
      ]
    },
    {
      "primitives": [
        {
          "mode": 1,
          "attributes": {
            "POSITION": 6
          },
          "indices": 7,
          "material": 0
        }
      ]
    },
    {
      "primitives": [
        {
          "mode": 4,
          "attributes": {
            "NORMAL": 8,
            "POSITION": 9,
            "TEXCOORD_0": 10
          },
          "indices": 11,
          "material": 2
        }
      ]
    },
    {
      "primitives": [
        {
          "mode": 1,
          "attributes": {
            "POSITION": 12
          },
          "indices": 13,
          "material": 0
        }
      ]
    }
  ]
}