{
  "asset": {
    "version": "2.0",
    "generator": "THREE.GLTFExporter r180"
  },
  "scenes": [
    {
      "name": "AuxScene",
      "nodes": [
        0
      ]
    }
  ],
  "scene": 0,
  "nodes": [
    {
      "name": "<组件#41>_1",
      "extras": {
        "name": "<组件#41>",
        "gltfExtensions": {
          "always_face_camera": {
            "Value": false
          }
        }
      },
      "children": [
        1,
        2,
        3
      ]
    },
    {
      "name": "mesh_33",
      "extras": {
        "gltfExtensions": {
          "uuid": {
            "Value": "rdisdmekioswmlpigbri_LINE"
          }
        }
      },
      "mesh": 0
    },
    {
      "name": "mesh_33_1",
      "extras": {
        "gltfExtensions": {
          "uuid": {
            "Value": "rdisdmekioswmlpigbri"
          }
        }
      },
      "mesh": 1
    },
    {
      "name": "mesh_33_2",
      "extras": {
        "gltfExtensions": {
          "uuid": {
            "Value": "rdisdmekioswmlpigbri_standaloneOnly_LINE"
          }
        }
      },
      "mesh": 2
    }
  ],
  "bufferViews": [
    {
      "buffer": 0,
      "byteOffset": 0,
      "byteLength": 1440,
      "target": 34962,
      "byteStride": 12
    },
    {
      "buffer": 0,
      "byteOffset": 1440,
      "byteLength": 480,
      "target": 34963
    },
    {
      "buffer": 0,
      "byteOffset": 1920,
      "byteLength": 720,
      "target": 34962,
      "byteStride": 12
    },
    {
      "buffer": 0,
      "byteOffset": 2640,
      "byteLength": 720,
      "target": 34962,
      "byteStride": 12
    },
    {
      "buffer": 0,
      "byteOffset": 3360,
      "byteLength": 480,
      "target": 34962,
      "byteStride": 8
    },
    {
      "buffer": 0,
      "byteOffset": 3840,
      "byteLength": 384,
      "target": 34963
    },
    {
      "buffer": 0,
      "byteOffset": 4224,
      "byteLength": 48,
      "target": 34962,
      "byteStride": 12
    },
    {
      "buffer": 0,
      "byteOffset": 4272,
      "byteLength": 16,
      "target": 34963
    }
  ],
  "buffers": [
    {
      "byteLength": 4288,
      "uri": "data:application/octet-stream;base64,"
    }
  ],
  "accessors": [
    {
      "bufferView": 0,
      "componentType": 5126,
      "count": 120,
      "max": [
        47.24409484863281,
        0.787401556968689,
        100.9842529296875
      ],
      "min": [
        0,
        0,
        0
      ],
      "type": "VEC3"
    },
    {
      "bufferView": 1,
      "componentType": 5125,
      "count": 120,
      "max": [
        119
      ],
      "min": [
        0
      ],
      "type": "SCALAR"
    },
    {
      "bufferView": 2,
      "componentType": 5126,
      "count": 60,
      "max": [
        47.24409484863281,
        0.787401556968689,
        100.9842529296875
      ],
      "min": [
        0,
        0,
        0
      ],
      "type": "VEC3"
    },
    {
      "bufferView": 3,
      "componentType": 5126,
      "count": 60,
      "max": [
        1,
        1,
        1
      ],
      "min": [
        -1,
        -1,
        -1
      ],
      "type": "VEC3"
    },
    {
      "bufferView": 4,
      "componentType": 5126,
      "count": 60,
      "max": [
        1.1999999284744263,
        1.5098800359660312e-16
      ],
      "min": [
        -1.1999999284744263,
        -2.565000057220459
      ],
      "type": "VEC2"
    },
    {
      "bufferView": 5,
      "componentType": 5125,
      "count": 96,
      "max": [
        59
      ],
      "min": [
        0
      ],
      "type": "SCALAR"
    },
    {
      "bufferView": 6,
      "componentType": 5126,
      "count": 4,
      "max": [
        47.24409484863281,
        0.787401556968689,
        69.48818969726562
      ],
      "min": [
        0,
        0.787401556968689,
        30.11811065673828
      ],
      "type": "VEC3"
    },
    {
      "bufferView": 7,
      "componentType": 5125,
      "count": 4,
      "max": [
        3
      ],
      "min": [
        0
      ],
      "type": "SCALAR"
    }
  ],
  "materials": [
    {
      "pbrMetallicRoughness": {
        "baseColorFactor": [
          0,
          0,
          0,
          1
        ],
        "metallicFactor": 0,
        "roughnessFactor": 1
      },
      "name": "DefaultMaterialEdge"
    },
    {
      "pbrMetallicRoughness": {
        "metallicFactor": 0,
        "roughnessFactor": 1
      },
      "name": "DefaultMaterialFront"
    }
  ],
  "meshes": [
    {
      "primitives": [
        {
          "mode": 1,
          "attributes": {
            "POSITION": 0
          },
          "indices": 1,
          "material": 0
        }
      ]
    },
    {
      "primitives": [
        {
          "mode": 4,
          "attributes": {
            "POSITION": 2,
            "NORMAL": 3,
            "TEXCOORD_0": 4
          },
          "indices": 5,
          "material": 1
        }
      ]
    },
    {
      "primitives": [
        {
          "mode": 1,
          "attributes": {
            "POSITION": 6
          },
          "indices": 7,
          "material": 0
        }
      ]
    }
  ]
}