{
  "asset": {
    "version": "2.0",
    "generator": "THREE.GLTFExporter r180"
  },
  "scenes": [
    {
      "name": "AuxScene",
      "nodes": [
        0
      ]
    }
  ],
  "scene": 0,
  "nodes": [
    {
      "name": "<组件#59>_1",
      "extras": {
        "name": "<组件#59>",
        "gltfExtensions": {
          "always_face_camera": {
            "Value": false
          }
        }
      },
      "children": [
        1,
        4,
        7,
        10,
        13,
        16
      ]
    },
    {
      "rotation": [
        0.7071067690849304,
        -6.942474001281406e-39,
        -6.938844638258805e-39,
        0.7071067690849304
      ],
      "translation": [
        0.787401556968689,
        6.299212455749512,
        7.08661413192749
      ],
      "name": "<组件#23>_27",
      "extras": {
        "name": "<组件#23>",
        "gltfExtensions": {
          "always_face_camera": {
            "Value": false
          }
        }
      },
      "children": [
        2,
        3
      ]
    },
    {
      "name": "mesh_42",
      "extras": {
        "gltfExtensions": {
          "uuid": {
            "Value": "meagppcwpsrrdctuldgh_LINE"
          }
        }
      },
      "mesh": 0
    },
    {
      "name": "mesh_42_1",
      "extras": {
        "gltfExtensions": {
          "uuid": {
            "Value": "meagppcwpsrrdctuldgh"
          }
        }
      },
      "mesh": 1
    },
    {
      "rotation": [
        0,
        1,
        0,
        0
      ],
      "translation": [
        0.787401556968689,
        13.38582706451416,
        14.17322826385498
      ],
      "scale": [
        -1,
        -1,
        -1
      ],
      "name": "<组件#23>_28",
      "extras": {
        "name": "<组件#23>",
        "gltfExtensions": {
          "always_face_camera": {
            "Value": false
          }
        }
      },
      "children": [
        5,
        6
      ]
    },
    {
      "name": "mesh_42",
      "extras": {
        "gltfExtensions": {
          "uuid": {
            "Value": "meagppcwpsrrdctuldgh_LINE"
          }
        }
      },
      "mesh": 0
    },
    {
      "name": "mesh_42_1",
      "extras": {
        "gltfExtensions": {
          "uuid": {
            "Value": "meagppcwpsrrdctuldgh"
          }
        }
      },
      "mesh": 1
    },
    {
      "translation": [
        0,
        6.299212455749512,
        6.299212455749512
      ],
      "name": "<组件#22>_7",
      "extras": {
        "name": "<组件#22>",
        "gltfExtensions": {
          "always_face_camera": {
            "Value": false
          }
        }
      },
      "children": [
        8,
        9
      ]
    },
    {
      "name": "mesh_43",
      "extras": {
        "gltfExtensions": {
          "uuid": {
            "Value": "koyqthvovtpchvcputbu_LINE"
          }
        }
      },
      "mesh": 2
    },
    {
      "name": "mesh_43_1",
      "extras": {
        "gltfExtensions": {
          "uuid": {
            "Value": "koyqthvovtpchvcputbu"
          }
        }
      },
      "mesh": 3
    },
    {
      "rotation": [
        1,
        -6.524445649896348e-42,
        -9.815574459566615e-39,
        3.0264679651281767e-13
      ],
      "translation": [
        0.787401556968689,
        13.38582706451416,
        6.299212455749512
      ],
      "name": "<组件#23>_29",
      "extras": {
        "name": "<组件#23>",
        "gltfExtensions": {
          "always_face_camera": {
            "Value": false
          }
        }
      },
      "children": [
        11,
        12
      ]
    },
    {
      "name": "mesh_42",
      "extras": {
        "gltfExtensions": {
          "uuid": {
            "Value": "meagppcwpsrrdctuldgh_LINE"
          }
        }
      },
      "mesh": 0
    },
    {
      "name": "mesh_42_1",
      "extras": {
        "gltfExtensions": {
          "uuid": {
            "Value": "meagppcwpsrrdctuldgh"
          }
        }
      },
      "mesh": 1
    },
    {
      "rotation": [
        0,
        -0.7071067690849304,
        0,
        0.7071067690849304
      ],
      "translation": [
        7.874015808105469,
        13.38582706451416,
        13.38582706451416
      ],
      "scale": [
        -1,
        -1,
        -1
      ],
      "name": "<组件#23>_30",
      "extras": {
        "name": "<组件#23>",
        "gltfExtensions": {
          "always_face_camera": {
            "Value": false
          }
        }
      },
      "children": [
        14,
        15
      ]
    },
    {
      "name": "mesh_42",
      "extras": {
        "gltfExtensions": {
          "uuid": {
            "Value": "meagppcwpsrrdctuldgh_LINE"
          }
        }
      },
      "mesh": 0
    },
    {
      "name": "mesh_42_1",
      "extras": {
        "gltfExtensions": {
          "uuid": {
            "Value": "meagppcwpsrrdctuldgh"
          }
        }
      },
      "mesh": 1
    },
    {
      "rotation": [
        0,
        0.7071067690849304,
        0,
        0.7071067690849304
      ],
      "translation": [
        -1.0913936421275139e-11,
        13.38582706451416,
        7.08661413192749
      ],
      "scale": [
        -1,
        -1,
        -1
      ],
      "name": "<组件#23>_31",
      "extras": {
        "name": "<组件#23>",
        "gltfExtensions": {
          "always_face_camera": {
            "Value": false
          }
        }
      },
      "children": [
        17,
        18
      ]
    },
    {
      "name": "mesh_42",
      "extras": {
        "gltfExtensions": {
          "uuid": {
            "Value": "meagppcwpsrrdctuldgh_LINE"
          }
        }
      },
      "mesh": 0
    },
    {
      "name": "mesh_42_1",
      "extras": {
        "gltfExtensions": {
          "uuid": {
            "Value": "meagppcwpsrrdctuldgh"
          }
        }
      },
      "mesh": 1
    }
  ],
  "bufferViews": [
    {
      "buffer": 0,
      "byteOffset": 0,
      "byteLength": 41088,
      "target": 34962,
      "byteStride": 12
    },
    {
      "buffer": 0,
      "byteOffset": 41088,
      "byteLength": 13696,
      "target": 34963
    },
    {
      "buffer": 0,
      "byteOffset": 54784,
      "byteLength": 29496,
      "target": 34962,
      "byteStride": 12
    },
    {
      "buffer": 0,
      "byteOffset": 84280,
      "byteLength": 29496,
      "target": 34962,
      "byteStride": 12
    },
    {
      "buffer": 0,
      "byteOffset": 113776,
      "byteLength": 19664,
      "target": 34962,
      "byteStride": 8
    },
    {
      "buffer": 0,
      "byteOffset": 133440,
      "byteLength": 20592,
      "target": 34963
    },
    {
      "buffer": 0,
      "byteOffset": 154032,
      "byteLength": 576,
      "target": 34962,
      "byteStride": 12
    },
    {
      "buffer": 0,
      "byteOffset": 154608,
      "byteLength": 192,
      "target": 34963
    },
    {
      "buffer": 0,
      "byteOffset": 154800,
      "byteLength": 288,
      "target": 34962,
      "byteStride": 12
    },
    {
      "buffer": 0,
      "byteOffset": 155088,
      "byteLength": 288,
      "target": 34962,
      "byteStride": 12
    },
    {
      "buffer": 0,
      "byteOffset": 155376,
      "byteLength": 192,
      "target": 34962,
      "byteStride": 8
    },
    {
      "buffer": 0,
      "byteOffset": 155568,
      "byteLength": 144,
      "target": 34963
    }
  ],
  "buffers": [
    {
      "byteLength": 155712,
      "uri": "data:application/octet-stream;base64,"
    }
  ],
  "accessors": [
    {
      "bufferView": 0,
      "componentType": 5126,
      "count": 3424,
      "max": [
        6.69291353225708,
        6.69291353225708,
        6.299212455749512
      ],
      "min": [
        -0.3937007784843445,
        -0.3937007784843445,
        0
      ],
      "type": "VEC3"
    },
    {
      "bufferView": 1,
      "componentType": 5125,
      "count": 3424,
      "max": [
        3423
      ],
      "min": [
        0
      ],
      "type": "SCALAR"
    },
    {
      "bufferView": 2,
      "componentType": 5126,
      "count": 2458,
      "max": [
        6.69291353225708,
        6.69291353225708,
        6.299212455749512
      ],
      "min": [
        -0.3937007784843445,
        -0.3937007784843445,
        0
      ],
      "type": "VEC3"
    },
    {
      "bufferView": 3,
      "componentType": 5126,
      "count": 2458,
      "max": [
        1,
        1,
        1
      ],
      "min": [
        -1,
        -1,
        -1
      ],
      "type": "VEC3"
    },
    {
      "bufferView": 4,
      "componentType": 5126,
      "count": 2458,
      "max": [
        0.17000000178813934,
        0.12890031933784485
      ],
      "min": [
        -0.17000000178813934,
        -0.17786109447479248
      ],
      "type": "VEC2"
    },
    {
      "bufferView": 5,
      "componentType": 5125,
      "count": 5148,
      "max": [
        2457
      ],
      "min": [
        0
      ],
      "type": "SCALAR"
    },
    {
      "bufferView": 6,
      "componentType": 5126,
      "count": 48,
      "max": [
        7.874015808105469,
        7.874015808105469,
        7.874015808105469
      ],
      "min": [
        0,
        0,
        0
      ],
      "type": "VEC3"
    },
    {
      "bufferView": 7,
      "componentType": 5125,
      "count": 48,
      "max": [
        47
      ],
      "min": [
        0
      ],
      "type": "SCALAR"
    },
    {
      "bufferView": 8,
      "componentType": 5126,
      "count": 24,
      "max": [
        7.874015808105469,
        7.874015808105469,
        7.874015808105469
      ],
      "min": [
        0,
        0,
        0
      ],
      "type": "VEC3"
    },
    {
      "bufferView": 9,
      "componentType": 5126,
      "count": 24,
      "max": [
        1,
        1,
        1
      ],
      "min": [
        -1,
        -1,
        -1
      ],
      "type": "VEC3"
    },
    {
      "bufferView": 10,
      "componentType": 5126,
      "count": 24,
      "max": [
        0.20000000298023224,
        0
      ],
      "min": [
        -0.20000000298023224,
        -0.20000000298023224
      ],
      "type": "VEC2"
    },
    {
      "bufferView": 11,
      "componentType": 5125,
      "count": 36,
      "max": [
        23
      ],
      "min": [
        0
      ],
      "type": "SCALAR"
    }
  ],
  "materials": [
    {
      "pbrMetallicRoughness": {
        "baseColorFactor": [
          0,
          0,
          0,
          1
        ],
        "metallicFactor": 0,
        "roughnessFactor": 1
      },
      "name": "DefaultMaterialEdge"
    },
    {
      "pbrMetallicRoughness": {
        "baseColorFactor": [
          0.27450981736183167,
          0.5098039507865906,
          0.7058823704719543,
          1
        ],
        "metallicFactor": 0,
        "roughnessFactor": 1
      },
      "doubleSided": true,
      "name": "[0100_SteelBlue]"
    },
    {
      "pbrMetallicRoughness": {
        "baseColorFactor": [
          0.95686274766922,
          0.6431372761726379,
          0.3764705955982208,
          1
        ],
        "metallicFactor": 0,
        "roughnessFactor": 1
      },
      "doubleSided": true,
      "name": "[0037_SandyBrown]"
    }
  ],
  "meshes": [
    {
      "primitives": [
        {
          "mode": 1,
          "attributes": {
            "POSITION": 0
          },
          "indices": 1,
          "material": 0
        }
      ]
    },
    {
      "primitives": [
        {
          "mode": 4,
          "attributes": {
            "POSITION": 2,
            "NORMAL": 3,
            "TEXCOORD_0": 4
          },
          "indices": 5,
          "material": 1
        }
      ]
    },
    {
      "primitives": [
        {
          "mode": 1,
          "attributes": {
            "POSITION": 6
          },
          "indices": 7,
          "material": 0
        }
      ]
    },
    {
      "primitives": [
        {
          "mode": 4,
          "attributes": {
            "POSITION": 8,
            "NORMAL": 9,
            "TEXCOORD_0": 10
          },
          "indices": 11,
          "material": 2
        }
      ]
    }
  ]
}