<?xml version="1.0" standalone="no"?><!DOCTYPE svg PUBLIC "-//W3C//DTD SVG 1.1//EN" "http://www.w3.org/Graphics/SVG/1.1/DTD/svg11.dtd"><svg t="1765815029904" class="icon" viewBox="0 0 1024 1024" version="1.1" xmlns="http://www.w3.org/2000/svg" p-id="10614" xmlns:xlink="http://www.w3.org/1999/xlink" width="200" height="200"><path d="M857.234286 298.861714l-49.737143 49.737143c52.224 41.545143 93.622857 95.085714 120.539428 156.086857-67.803429 155.062857-231.570286 258.194286-416.036571 258.194286-35.84 0-71.533714-4.022857-106.569143-11.776l-57.709714 57.051429a555.008 555.008 0 0 0 164.278857 23.405714c228.790857 0 422.4-137.508571 492.836571-328.484572a480.329143 480.329143 0 0 0-147.675428-204.214857zM173.787429 715.922286l50.176-50.249143A413.257143 413.257143 0 0 1 95.963429 504.685714C163.766857 349.622857 327.533714 246.491429 512 246.491429a487.862857 487.862857 0 0 1 117.321143 14.628571l56.832-56.832A553.545143 553.545143 0 0 0 512 176.128C283.209143 176.128 89.6 313.929143 19.236571 504.685714a481.572571 481.572571 0 0 0 154.624 211.236572z m-10.825143 94.500571l648.118857-648.192 49.737143 49.737143-648.045715 648.192-49.810285-49.737143z" fill="#ffffff" p-id="10615"></path></svg>