<?xml version="1.0" standalone="no"?><!DOCTYPE svg PUBLIC "-//W3C//DTD SVG 1.1//EN" "http://www.w3.org/Graphics/SVG/1.1/DTD/svg11.dtd"><svg t="1765815042332" class="icon" viewBox="0 0 1024 1024" version="1.1" xmlns="http://www.w3.org/2000/svg" p-id="11799" xmlns:xlink="http://www.w3.org/1999/xlink" width="200" height="200"><path d="M922.13090989 985.22797001h-820.26181978c-37.85823758 0-63.09706023-25.23882258-63.09706012-63.09706012v-820.26181978c0-37.85823758 25.23882258-63.09706023 63.09706012-63.09706012H448.90293977c18.92911874 0 31.54853382 12.61941497 31.54852641 31.54853378s-12.61941497 31.54853382-31.54852641 31.54852634h-347.03384966v820.26181978h820.26181978V575.09706023c0-18.92911874 12.61941497-31.54853382 31.54852634-31.54852641s31.54853382 12.61941497 31.54853378 31.54852641v347.03384966c0 37.85823758-25.23882258 63.09706023-63.09706012 63.09706012z m31.54852634-567.87356395c-18.92911874 0-31.54853382-12.61941497-31.54852634-31.54853394v-246.07854445l-454.29885134 454.29885137c-12.61941497 12.61941497-31.54853382 12.61941497-44.16794874 0-12.61941497-12.61941497-12.61941497-31.54853382 0-44.16794146l454.29885114-454.29885124H638.19412788c-18.92911874 0-31.54853382-12.61941497-31.54853394-31.54853379s12.61941497-31.54853382 31.54853394-31.54852647h334.41442723s6.30970381 0 6.30971115 6.30970391v6.30970375c0 6.30970381 6.30970381 6.30970381 6.30970375 12.61941503v315.48531582c0 31.54853382-12.61941497 44.16794145-31.54853378 44.16794147z" fill="#ffffff" p-id="11800"></path></svg>