{
  "asset": {
    "version": "2.0",
    "generator": "THREE.GLTFExporter r180"
  },
  "scenes": [
    {
      "name": "AuxScene",
      "nodes": [
        0
      ]
    }
  ],
  "scene": 0,
  "nodes": [
    {
      "translation": [
        0,
        0,
        9.094947017729282e-13
      ],
      "name": "<组件#27>_1",
      "extras": {
        "name": "<组件#27>",
        "gltfExtensions": {
          "always_face_camera": {
            "Value": false
          }
        }
      },
      "children": [
        1,
        2
      ]
    },
    {
      "name": "mesh_45",
      "extras": {
        "gltfExtensions": {
          "uuid": {
            "Value": "bcqlgschuzkxiuxyhkbm_LINE"
          }
        }
      },
      "mesh": 0
    },
    {
      "name": "mesh_45_1",
      "extras": {
        "gltfExtensions": {
          "uuid": {
            "Value": "bcqlgschuzkxiuxyhkbm"
          }
        }
      },
      "mesh": 1
    }
  ],
  "bufferViews": [
    {
      "buffer": 0,
      "byteOffset": 0,
      "byteLength": 75072,
      "target": 34962,
      "byteStride": 12
    },
    {
      "buffer": 0,
      "byteOffset": 75072,
      "byteLength": 25024,
      "target": 34963
    },
    {
      "buffer": 0,
      "byteOffset": 100096,
      "byteLength": 56016,
      "target": 34962,
      "byteStride": 12
    },
    {
      "buffer": 0,
      "byteOffset": 156112,
      "byteLength": 56016,
      "target": 34962,
      "byteStride": 12
    },
    {
      "buffer": 0,
      "byteOffset": 212128,
      "byteLength": 37344,
      "target": 34962,
      "byteStride": 8
    },
    {
      "buffer": 0,
      "byteOffset": 249472,
      "byteLength": 38880,
      "target": 34963
    }
  ],
  "buffers": [
    {
      "byteLength": 288352,
      "uri": "data:application/octet-stream;base64,"
    }
  ],
  "accessors": [
    {
      "bufferView": 0,
      "componentType": 5126,
      "count": 6256,
      "max": [
        7.874015808105469,
        7.874015808105469,
        228.34645080566406
      ],
      "min": [
        0,
        0,
        -9.094947017729282e-13
      ],
      "type": "VEC3"
    },
    {
      "bufferView": 1,
      "componentType": 5125,
      "count": 6256,
      "max": [
        6255
      ],
      "min": [
        0
      ],
      "type": "SCALAR"
    },
    {
      "bufferView": 2,
      "componentType": 5126,
      "count": 4668,
      "max": [
        7.874015808105469,
        7.874015808105469,
        228.34645080566406
      ],
      "min": [
        0,
        0,
        -9.094947017729282e-13
      ],
      "type": "VEC3"
    },
    {
      "bufferView": 3,
      "componentType": 5126,
      "count": 4668,
      "max": [
        1,
        1,
        1
      ],
      "min": [
        -1,
        -1,
        -1
      ],
      "type": "VEC3"
    },
    {
      "bufferView": 4,
      "componentType": 5126,
      "count": 4668,
      "max": [
        0.20000000298023224,
        0.14453989267349243
      ],
      "min": [
        -0.20000000298023224,
        -5.799999713897705
      ],
      "type": "VEC2"
    },
    {
      "bufferView": 5,
      "componentType": 5125,
      "count": 9720,
      "max": [
        4667
      ],
      "min": [
        0
      ],
      "type": "SCALAR"
    }
  ],
  "materials": [
    {
      "pbrMetallicRoughness": {
        "baseColorFactor": [
          0,
          0,
          0,
          1
        ],
        "metallicFactor": 0,
        "roughnessFactor": 1
      },
      "name": "DefaultMaterialEdge"
    },
    {
      "pbrMetallicRoughness": {
        "baseColorFactor": [
          0.6784313917160034,
          0.8470588326454163,
          0.9019607901573181,
          1
        ],
        "metallicFactor": 0,
        "roughnessFactor": 1
      },
      "doubleSided": true,
      "name": "[0095_LightBlue]"
    }
  ],
  "meshes": [
    {
      "primitives": [
        {
          "mode": 1,
          "attributes": {
            "POSITION": 0
          },
          "indices": 1,
          "material": 0
        }
      ]
    },
    {
      "primitives": [
        {
          "mode": 4,
          "attributes": {
            "POSITION": 2,
            "NORMAL": 3,
            "TEXCOORD_0": 4
          },
          "indices": 5,
          "material": 1
        }
      ]
    }
  ]
}