<svg width="30" height="31" viewBox="0 0 30 31" fill="none" xmlns="http://www.w3.org/2000/svg">
<g id="&#232;&#190;&#147;&#229;&#133;&#165;&#229;&#143;&#130;&#230;&#149;&#176;-&#231;&#130;&#185;&#229;&#135;&#187;" clip-path="url(#clip0_2204_6112)">
<g id="Group 1321315592">
<g id="Group 1321315594">
<path id="Union" d="M3.90723 23.9702L3.91406 24.0024C3.92688 24.0325 3.95663 24.0537 3.99121 24.0542H21.0986C21.4552 23.3549 22.177 22.9056 22.9736 22.9058L23.1699 22.9146C24.1431 23.0049 24.9376 23.7616 25.0605 24.7485L25.0752 24.9448C25.1033 25.8566 24.5366 26.6854 23.6768 26.9897L23.4883 27.0464C22.5281 27.2883 21.5395 26.8281 21.0996 25.9614H3.99023C2.89225 25.9612 2.00021 25.069 2 23.9712V12.7046H3.90723V23.9702ZM18.2607 14.4341C17.0888 15.606 16.0198 16.6673 15.0547 17.6187C14.641 18.0184 14.2376 18.4153 13.8447 18.8081C13.452 19.2008 13.0936 19.5527 12.7695 19.8628C12.4458 20.1728 12.1804 20.4314 11.9736 20.6382L11.6016 21.0103C11.5052 21.1066 11.3946 21.2029 11.2705 21.2993C11.1463 21.3957 11.0081 21.4794 10.8564 21.5483C10.7049 21.6172 10.4948 21.7001 10.2266 21.7964C9.94954 21.8956 9.66981 21.9879 9.38867 22.0747C9.09923 22.1642 8.82324 22.247 8.56152 22.3228C8.29993 22.3985 8.09981 22.4437 7.96191 22.4575C7.70058 22.4849 7.55909 22.4608 7.53809 22.3853C7.51749 22.3094 7.52689 22.1404 7.56836 21.8784C7.5821 21.7408 7.61666 21.5367 7.67188 21.2681C7.72705 20.9993 7.78174 20.7273 7.83691 20.4517C7.89212 20.1762 7.95161 19.9174 8.01367 19.6763C8.07572 19.4352 8.12677 19.2659 8.16797 19.1694C8.23683 19.018 8.30906 18.8869 8.38477 18.7769C8.46059 18.6664 8.56814 18.5417 8.70605 18.4038L12.2627 14.8472L15.4688 11.6421L18.2607 14.4341ZM4.65527 4.88232C5.58025 4.70884 6.49714 5.17144 6.91602 5.99561H24.0254L24.2285 6.00537C25.2312 6.10829 26.0132 6.95541 26.0146 7.98486V19.2544H24.1074V7.98486C24.1072 7.93949 24.0698 7.90186 24.0244 7.90186H6.91602C6.52537 8.67042 5.70141 9.12474 4.8418 9.0415L4.65527 9.01514C3.66141 8.82815 2.94061 7.96005 2.94043 6.94873C2.94048 5.93743 3.66128 5.06912 4.65527 4.88232ZM18.3018 9.4917C18.6185 9.51917 18.8736 9.58091 19.0664 9.67725C19.2733 9.78768 19.5045 9.98053 19.7598 10.2563C20.015 10.5322 20.2107 10.8222 20.3486 11.1255C20.4176 11.3183 20.4628 11.5461 20.4834 11.8081C20.5038 12.0697 20.3972 12.3181 20.1631 12.5522C20.0529 12.6761 19.949 12.7869 19.8525 12.8833L19.6045 13.1313C19.5219 13.2137 19.4458 13.2825 19.377 13.3374L16.585 10.5259C16.6951 10.4157 16.8336 10.284 16.999 10.1323C17.1643 9.98081 17.302 9.8634 17.4121 9.78076C17.6879 9.56019 17.9847 9.46395 18.3018 9.4917Z" fill="url(#paint0_linear_2204_6112)"/>
</g>
</g>
</g>
<defs>
<linearGradient id="paint0_linear_2204_6112" x1="24.3216" y1="22.9604" x2="22.3966" y2="18.1416" gradientUnits="userSpaceOnUse">
<stop offset="0.125" stop-color="#CCDFFF"/>
<stop offset="0.89" stop-color="white"/>
</linearGradient>
<clipPath id="clip0_2204_6112">
<rect width="30" height="30" fill="white" transform="translate(0 0.978516)"/>
</clipPath>
</defs>
</svg>
