<svg width="30" height="31" viewBox="0 0 30 31" fill="none" xmlns="http://www.w3.org/2000/svg">
<g id="&#232;&#190;&#147;&#229;&#133;&#165;&#229;&#143;&#130;&#230;&#149;&#176;- -&#233;&#187;&#152;&#232;&#174;&#164;" clip-path="url(#clip0_2204_6030)">
<g id="Group 1321315592">
<g id="Group 1321315594">
<path id="Union" d="M3.90723 23.9703L3.91406 24.0025C3.92689 24.0325 3.95666 24.0538 3.99121 24.0543H21.0986C21.4552 23.355 22.177 22.9057 22.9736 22.9059L23.1699 22.9146C24.1431 23.005 24.9377 23.7617 25.0605 24.7486L25.0752 24.9449C25.1032 25.8567 24.5366 26.6855 23.6768 26.9898L23.4883 27.0465C22.5281 27.2883 21.5396 26.8282 21.0996 25.9615H3.99023C2.89228 25.9613 2.00026 25.069 2 23.9713V12.7047H3.90723V23.9703ZM4.65527 4.88241C5.58028 4.70892 6.49716 5.17148 6.91602 5.99569H24.0254L24.2285 6.00546C25.2312 6.10839 26.0133 6.95546 26.0146 7.98495V19.2545H24.1074V7.98495C24.1072 7.93954 24.0698 7.90194 24.0244 7.90194H6.91602C6.52535 8.67046 5.70139 9.12483 4.8418 9.04159L4.65527 9.01523C3.66142 8.82826 2.94065 7.96012 2.94043 6.94882C2.94044 5.93749 3.66126 5.06922 4.65527 4.88241Z" fill="url(#paint0_linear_2204_6030)"/>
<path id="Vector" d="M19.6045 13.131L19.8526 12.8829C19.949 12.7865 20.0526 12.676 20.1627 12.5521C20.3971 12.3178 20.5039 12.0694 20.4833 11.8076C20.4627 11.5455 20.418 11.3181 20.349 11.1252C20.2111 10.8219 20.0147 10.5324 19.7595 10.2566C19.5042 9.98073 19.2735 9.78788 19.0666 9.67744C18.8738 9.58102 18.6185 9.51893 18.3015 9.49146C17.9845 9.46371 17.6881 9.56041 17.4122 9.78101C17.3021 9.8637 17.1642 9.98101 16.9988 10.1327C16.8334 10.2843 16.6955 10.4153 16.5853 10.5255L19.377 13.3375C19.446 13.2826 19.5218 13.2134 19.6045 13.131ZM12.2629 14.8474L8.70578 18.4042C8.56787 18.5421 8.46101 18.666 8.38519 18.7765C8.30936 18.8866 8.23711 19.0177 8.16816 19.1693C8.12695 19.2657 8.0753 19.4347 8.01321 19.6759C7.95113 19.9171 7.89261 20.1759 7.83739 20.4514C7.78217 20.7273 7.72723 20.9995 7.67201 21.2685C7.61679 21.5371 7.58245 21.7407 7.56871 21.8783C7.52723 22.1404 7.51707 22.3091 7.53767 22.3849C7.55828 22.4608 7.69976 22.4849 7.96157 22.4575C8.09948 22.4437 8.29947 22.3989 8.56128 22.3231C8.82309 22.2473 9.09891 22.1646 9.38847 22.075C9.6697 21.9882 9.94898 21.8951 10.2261 21.7959C10.4948 21.6995 10.7052 21.6168 10.8568 21.5479C11.0085 21.4789 11.1464 21.3962 11.2706 21.2998C11.3948 21.2034 11.5049 21.1067 11.6013 21.0102L11.9736 20.638C12.1805 20.4311 12.4458 20.1726 12.7697 19.8624C13.0939 19.5523 13.4521 19.2006 13.845 18.8078C14.2378 18.4149 14.6411 18.0185 15.0549 17.6188C16.02 16.6674 17.0883 15.6059 18.2603 14.434L15.4683 11.6417L12.2629 14.8474Z" fill="url(#paint1_linear_2204_6030)"/>
</g>
</g>
</g>
<defs>
<linearGradient id="paint0_linear_2204_6030" x1="14.0026" y1="5.1406" x2="14.0026" y2="26.8197" gradientUnits="userSpaceOnUse">
<stop stop-color="#89B7FE"/>
<stop offset="1" stop-color="#488CFD"/>
</linearGradient>
<linearGradient id="paint1_linear_2204_6030" x1="14.0066" y1="9.48682" x2="14.0066" y2="22.4684" gradientUnits="userSpaceOnUse">
<stop stop-color="#F9B56B"/>
<stop offset="1" stop-color="#FF9522"/>
</linearGradient>
<clipPath id="clip0_2204_6030">
<rect width="30" height="30" fill="white" transform="translate(0 0.978516)"/>
</clipPath>
</defs>
</svg>
