<svg width="30" height="31" viewBox="0 0 30 31" fill="none" xmlns="http://www.w3.org/2000/svg">
<g id="&#231;&#148;&#159;&#230;&#136;&#144;&#230;&#150;&#185;&#230;&#161;&#136;-&#231;&#130;&#185;&#229;&#135;&#187;" clip-path="url(#clip0_2204_6099)">
<g id="Group 1321315635">
<path id="Union" d="M24.1523 4.08008C24.377 4.08008 24.5931 4.16928 24.752 4.32812C24.9107 4.48695 25 4.70224 25 4.92676V16.002C24.9999 16.1188 24.905 16.2129 24.7881 16.2129H23.0879C22.9712 16.2127 22.8771 16.1186 22.877 16.002V6.20312H5.12402V26.9561H22.877V25.8984C22.8771 25.7819 22.9712 25.6877 23.0879 25.6875H24.7881C24.9049 25.6875 24.9998 25.7817 25 25.8984V28.2324C25 28.4569 24.9107 28.6722 24.752 28.8311C24.5931 28.9899 24.377 29.0791 24.1523 29.0791H3.84766C3.62296 29.0791 3.40693 28.9899 3.24805 28.8311C3.08933 28.6722 3 28.4569 3 28.2324V4.92676C3 4.70224 3.08934 4.48695 3.24805 4.32812C3.40693 4.16928 3.62296 4.0791 3.84766 4.0791L24.1523 4.08008ZM24 18C25.6568 18 26.9999 19.2977 27 20.8984C27 22.1608 26.1631 23.2262 25 23.624V25H23V23.624C21.8369 23.2262 21 22.1608 21 20.8984C21.0001 19.2977 22.3432 18 24 18ZM24 19.9326C23.4478 19.9326 23.0001 20.3649 23 20.8984C23 21.4321 23.4477 21.8652 24 21.8652C24.5523 21.8652 25 21.4321 25 20.8984C24.9999 20.3649 24.5522 19.9326 24 19.9326ZM10.3818 18.8779C10.4086 18.878 10.4296 18.9013 10.4326 18.9346V20.4219C10.4326 20.4518 10.4086 20.4784 10.3818 20.4785H9.05371C9.02692 20.4785 9.00295 20.4519 9.00293 20.4219V18.9346C9.00295 18.9046 9.02692 18.8779 9.05371 18.8779H10.3818ZM19.4287 18.8779C19.4584 18.878 19.4795 18.9013 19.4795 18.9346V20.4219C19.4795 20.4518 19.4554 20.4784 19.4287 20.4785H12.0283C12.0016 20.4784 11.9776 20.4518 11.9775 20.4219V18.9346C11.9776 18.9046 12.0016 18.878 12.0283 18.8779H19.4287ZM19.4287 15.1768C19.4584 15.1769 19.4795 15.2001 19.4795 15.2334V16.7207C19.4794 16.7505 19.4554 16.7772 19.4287 16.7773H12.0283C12.0017 16.7772 11.9777 16.7505 11.9775 16.7207V15.2334C11.9775 15.2035 12.0016 15.1769 12.0283 15.1768H19.4287ZM10.3789 15.1729C10.4055 15.1729 10.4295 15.1997 10.4297 15.2295V16.7168C10.4297 16.7468 10.4056 16.7733 10.3789 16.7734H9.05078C9.02398 16.7734 9 16.7468 9 16.7168V15.2295C9.00022 15.1996 9.0241 15.1729 9.05078 15.1729H10.3789ZM10.4082 11.4785C10.435 11.4785 10.459 11.5052 10.459 11.5352V13.0225C10.459 13.0525 10.435 13.0791 10.4082 13.0791H9.08008C9.05342 13.0789 9.02932 13.0523 9.0293 13.0225V11.5352C9.02932 11.5053 9.05342 11.4787 9.08008 11.4785H10.4082ZM19.4492 11.4785C19.476 11.4785 19.5 11.5052 19.5 11.5352V13.0225C19.5 13.0525 19.476 13.0791 19.4492 13.0791H12.0498C12.023 13.0791 11.999 13.0525 11.999 13.0225V11.5352C11.999 11.5052 12.023 11.4785 12.0498 11.4785H19.4492Z" fill="url(#paint0_linear_2204_6099)"/>
</g>
</g>
<defs>
<linearGradient id="paint0_linear_2204_6099" x1="25.308" y1="24.419" x2="22.964" y2="19.1967" gradientUnits="userSpaceOnUse">
<stop offset="0.125" stop-color="#CCDFFF"/>
<stop offset="0.89" stop-color="white"/>
</linearGradient>
<clipPath id="clip0_2204_6099">
<rect width="30" height="30" fill="white" transform="translate(0 0.978516)"/>
</clipPath>
</defs>
</svg>
