<svg width="30" height="31" viewBox="0 0 30 31" fill="none" xmlns="http://www.w3.org/2000/svg">
<g id="&#231;&#148;&#159;&#230;&#136;&#144;&#230;&#150;&#185;&#230;&#161;&#136;- -&#233;&#187;&#152;&#232;&#174;&#164;" clip-path="url(#clip0_2204_6041)">
<g id="Group 1321315635">
<path id="Union" d="M24.1523 4.08008C24.377 4.08008 24.5931 4.16928 24.752 4.32812C24.9107 4.48695 25 4.70224 25 4.92676V16.002C24.9999 16.1188 24.905 16.2129 24.7881 16.2129H23.0879C22.9712 16.2127 22.8771 16.1186 22.877 16.002V6.20312H5.12402V26.9561H22.877V25.8984C22.8771 25.7819 22.9712 25.6877 23.0879 25.6875H24.7881C24.9049 25.6875 24.9998 25.7817 25 25.8984V28.2324C25 28.4569 24.9107 28.6722 24.752 28.8311C24.5931 28.9899 24.377 29.0791 24.1523 29.0791H3.84766C3.62296 29.0791 3.40693 28.9899 3.24805 28.8311C3.08933 28.6722 3 28.4569 3 28.2324V4.92676C3 4.70224 3.08934 4.48695 3.24805 4.32812C3.40693 4.16928 3.62296 4.0791 3.84766 4.0791L24.1523 4.08008Z" fill="url(#paint0_linear_2204_6041)"/>
<path id="Union_2" d="M24 18C25.6569 18 27 19.2978 27 20.8986C27 22.161 26.1631 23.2258 25 23.6237V25H23V23.6237C21.8369 23.2258 21 22.161 21 20.8986C21 19.2978 22.3431 18 24 18ZM24 19.9324C23.4477 19.9324 23 20.365 23 20.8986C23 21.4323 23.4477 21.8648 24 21.8648C24.5523 21.8648 25 21.4323 25 20.8986C25 20.365 24.5523 19.9324 24 19.9324Z" fill="url(#paint1_linear_2204_6041)"/>
<path id="Vector" d="M10.4592 11.5352C10.4592 11.5052 10.4353 11.4785 10.4085 11.4785H9.0804C9.0536 11.4785 9.02978 11.5052 9.02978 11.5352V13.0224C9.02978 13.0524 9.0536 13.0791 9.0804 13.0791H10.4085C10.4353 13.0791 10.4592 13.0524 10.4592 13.0224V11.5352ZM19.4494 11.4785H12.0493C12.0225 11.4785 11.9987 11.5052 11.9987 11.5352V13.0224C11.9987 13.0524 12.0225 13.0791 12.0493 13.0791H19.4494C19.4762 13.0791 19.5 13.0524 19.5 13.0224V11.5352C19.5 11.5052 19.4762 11.4785 19.4494 11.4785ZM10.4294 15.2299C10.4294 15.1999 10.4056 15.1732 10.3788 15.1732H9.05062C9.02382 15.1732 9 15.1999 9 15.2299V16.7171C9 16.7471 9.02382 16.7738 9.05062 16.7738H10.3788C10.4056 16.7738 10.4294 16.7471 10.4294 16.7171V15.2299ZM19.4285 15.1766H12.0285C12.0017 15.1766 11.9779 15.2032 11.9779 15.2332V16.7205C11.9779 16.7505 12.0017 16.7771 12.0285 16.7771H19.4285C19.4553 16.7771 19.4792 16.7505 19.4792 16.7205V15.2332C19.4792 15.1999 19.4583 15.1766 19.4285 15.1766ZM10.3817 18.8779H9.0536C9.0268 18.8779 9.00298 18.9046 9.00298 18.9346V20.4218C9.00298 20.4518 9.0268 20.4785 9.0536 20.4785H10.3817C10.4085 20.4785 10.4324 20.4518 10.4324 20.4218V18.9346C10.4294 18.9013 10.4085 18.8779 10.3817 18.8779ZM19.4285 18.8779H12.0285C12.0017 18.8779 11.9779 18.9046 11.9779 18.9346V20.4218C11.9779 20.4518 12.0017 20.4785 12.0285 20.4785H19.4285C19.4553 20.4785 19.4792 20.4518 19.4792 20.4218V18.9346C19.4792 18.9013 19.4583 18.8779 19.4285 18.8779Z" fill="url(#paint2_linear_2204_6041)"/>
</g>
</g>
<defs>
<linearGradient id="paint0_linear_2204_6041" x1="13.9801" y1="4.08111" x2="13.9801" y2="29.379" gradientUnits="userSpaceOnUse">
<stop stop-color="#89B7FE"/>
<stop offset="1" stop-color="#488CFD"/>
</linearGradient>
<linearGradient id="paint1_linear_2204_6041" x1="24" y1="18" x2="24" y2="25" gradientUnits="userSpaceOnUse">
<stop stop-color="#F9B56B"/>
<stop offset="1" stop-color="#FF9522"/>
</linearGradient>
<linearGradient id="paint2_linear_2204_6041" x1="14.25" y1="11.4785" x2="14.25" y2="20.4785" gradientUnits="userSpaceOnUse">
<stop stop-color="#F9B56B"/>
<stop offset="1" stop-color="#FF9522"/>
</linearGradient>
<clipPath id="clip0_2204_6041">
<rect width="30" height="30" fill="white" transform="translate(0 0.978516)"/>
</clipPath>
</defs>
</svg>
