<svg width="30" height="30" viewBox="0 0 30 30" fill="none" xmlns="http://www.w3.org/2000/svg">
<g id="&#228;&#184;&#138;&#228;&#188;&#160;&#229;&#155;&#190;&#231;&#186;&#184; -&#233;&#187;&#152;&#232;&#174;&#164;" clip-path="url(#clip0_2204_6026)">
<g id="Group 1321315592">
<path id="Vector" d="M20.4088 14.0892V10.4088H22.7085C22.9165 10.4088 23.0311 10.1631 22.904 9.99731L19.428 5.47626C19.4048 5.44578 19.3751 5.42113 19.3413 5.40418C19.3074 5.38723 19.2702 5.37842 19.2325 5.37842C19.1949 5.37842 19.1577 5.38723 19.1238 5.40418C19.09 5.42113 19.0603 5.44578 19.0371 5.47626L15.5611 10.0004C15.4338 10.1662 15.5486 10.4121 15.7564 10.4121H18.0501V14.0892M3.91016 18.9785H16.0752V15.9785H3.91016V18.9785ZM22.4816 18.9785H27.0372V15.9785H22.4816V18.9785ZM17.7816 24.346H20.6834V20.6702H17.7816V24.346ZM17.7816 18.9785H20.6834V15.9785H17.7816V18.9785Z" fill="url(#paint0_linear_2204_6026)"/>
<path id="Vector_2" d="M13.993 6.77902V8.69457C13.993 8.82636 13.8892 8.93328 13.761 8.93328H4.53536V23.9858H25.8787V8.93328H24.7198C24.5919 8.93328 24.4879 8.82636 24.4879 8.69457V6.77924C24.4879 6.64744 24.5919 6.54053 24.7201 6.54053H27.2785C27.5247 6.54053 27.7609 6.6411 27.9351 6.82013C28.1092 6.99915 28.207 7.24196 28.207 7.49514V25.424C28.207 25.6772 28.1092 25.92 27.9351 26.099C27.7609 26.278 27.5247 26.3786 27.2785 26.3786H3.1356C2.88933 26.3786 2.65314 26.278 2.479 26.099C2.30486 25.92 2.20703 25.6772 2.20703 25.424V7.49514C2.20703 7.24196 2.30486 6.99915 2.479 6.82013C2.65314 6.6411 2.88933 6.54053 3.1356 6.54053H13.761C13.8892 6.54053 13.993 6.64723 13.993 6.77902Z" fill="url(#paint1_linear_2204_6026)"/>
</g>
</g>
<defs>
<linearGradient id="paint0_linear_2204_6026" x1="12.7205" y1="19.5173" x2="12.7205" y2="4.60666" gradientUnits="userSpaceOnUse">
<stop stop-color="#FFA806"/>
<stop offset="1" stop-color="#FFE284"/>
</linearGradient>
<linearGradient id="paint1_linear_2204_6026" x1="15.207" y1="26.3786" x2="15.207" y2="6.54053" gradientUnits="userSpaceOnUse">
<stop offset="0.158654" stop-color="#3A88FC"/>
<stop offset="1" stop-color="#A0C6FF"/>
</linearGradient>
<clipPath id="clip0_2204_6026">
<rect width="30" height="30" fill="white"/>
</clipPath>
</defs>
</svg>
