<svg width="172" height="49" viewBox="0 0 172 49" fill="none" xmlns="http://www.w3.org/2000/svg">
<g id="1&#233;&#128;&#137;&#229;&#157;&#128;&#229;&#134;&#179;&#231;&#173;&#150;-&#233;&#187;&#152;&#232;&#174;&#164;">
<g id="Group 1321315616">
<mask id="mask0_2204_5013" style="mask-type:alpha" maskUnits="userSpaceOnUse" x="6" y="6" width="160" height="36">
<rect id="Rectangle 34628613" x="6.29297" y="6.01611" width="158.988" height="35.9819" fill="url(#paint0_linear_2204_5013)"/>
</mask>
<g mask="url(#mask0_2204_5013)">
<rect id="Rectangle 34628616" x="6.29297" y="6.01611" width="158.988" height="35.9819" fill="url(#paint1_linear_2204_5013)"/>
</g>
</g>
<g id="Rectangle 34628615" filter="url(#filter0_f_2204_5013)">
<rect x="6.29297" y="6.01611" width="158.988" height="3.30029" fill="url(#paint2_linear_2204_5013)"/>
</g>
<g id="Rectangle 34628616_2" filter="url(#filter1_f_2204_5013)">
<rect x="6.29297" y="39.0161" width="158.988" height="3.30029" fill="url(#paint3_linear_2204_5013)"/>
</g>
<g id="Rectangle 34628617" filter="url(#filter2_f_2204_5013)">
<rect x="6.29297" y="41.0161" width="158.988" height="1" fill="url(#paint4_linear_2204_5013)"/>
</g>
<g id="Rectangle 34628618" filter="url(#filter3_f_2204_5013)">
<rect x="6.29297" y="6.01611" width="158.988" height="1" fill="url(#paint5_linear_2204_5013)"/>
</g>
<rect id="Rectangle 34628621" x="6.29297" y="6.01611" width="158.988" height="35.9819" stroke="url(#paint6_linear_2204_5013)"/>
<path id="Rectangle 34628619" d="M6 10.9955L6 6L11.9368 6M6 36.9865L6 41.9819L11.9368 41.9819M164.988 10.9955L164.988 6L159.052 6M164.988 36.9865L164.988 41.9819L159.052 41.9819" stroke="url(#paint7_linear_2204_5013)" stroke-width="2"/>
<path id="Rectangle 34628620" d="M6 10.9955L6 6L11.9368 6M6 36.9865L6 41.9819L11.9368 41.9819M164.988 10.9955L164.988 6L159.052 6M164.988 36.9865L164.988 41.9819L159.052 41.9819" stroke="url(#paint8_linear_2204_5013)"/>
<path id="Vector" d="M48.1211 15.7065C50.4954 15.7065 52.4946 16.5289 54.1484 18.1812C55.6987 19.7301 56.5183 21.5834 56.6123 23.7651L56.6211 24.2056C56.6182 26.5806 55.7957 28.5809 54.1475 30.2349C52.6032 31.7843 50.7503 32.6038 48.5635 32.6978L48.1221 32.7065L48.1211 32.7065C45.8934 32.7065 43.9976 31.9842 42.4092 30.5337L42.0957 30.2339C40.4435 28.5801 39.6211 26.5808 39.6211 24.2065C39.6211 21.9806 40.3442 20.0853 41.7959 18.4956L42.0957 18.1812C43.748 16.5288 45.7467 15.7065 48.1211 15.7065Z" fill="url(#paint9_linear_2204_5013)" stroke="url(#paint10_linear_2204_5013)"/>
<path id="&#233;&#128;&#137;&#229;&#157;&#128;&#229;&#134;&#179;&#231;&#173;&#150;" d="M81.5488 25.1992C82.153 25.4805 82.778 25.7409 83.4238 25.9805C83.2415 27.1628 83.0775 27.918 82.9316 28.2461C82.791 28.569 82.5618 28.8164 82.2441 28.9883C81.9264 29.1602 81.528 29.2461 81.0488 29.2461L79.9551 29.2461C78.7155 29.2461 78.0957 28.5534 78.0957 27.168L78.0957 24.668L76.916 24.668C76.8483 26.0273 76.5957 27.0378 76.1582 27.6992C75.7207 28.3555 75.0697 28.9492 74.2051 29.4805C73.8301 29.0117 73.3613 28.4961 72.7988 27.9336C73.2884 27.6419 73.7441 27.2643 74.166 26.8008C74.5879 26.332 74.8327 25.6211 74.9004 24.668L72.6738 24.668L72.6738 22.8242L77.2363 22.8242L77.2363 21.0898L75.1035 21.0898C74.9056 21.5951 74.7103 22.0534 74.5176 22.4648C74.0072 22.2044 73.4238 21.9232 72.7676 21.6211C73.3613 20.4128 73.8978 18.9857 74.377 17.3398L76.2051 17.9336L75.7754 19.2461L77.2363 19.2461L77.2363 16.918L79.3145 16.918L79.3145 19.2461L82.9082 19.2461L82.9082 21.0898L79.3145 21.0898L79.3145 22.8242L83.4863 22.8242L83.4863 24.668L80.1113 24.668L80.1113 26.7305C80.1113 27.1576 80.2676 27.3711 80.5801 27.3711L80.7676 27.3711C81.054 27.3711 81.2363 27.2721 81.3145 27.0742C81.3926 26.8711 81.4707 26.2461 81.5488 25.1992ZM70.5645 17.1367C71.3457 18.1576 72.0488 19.1159 72.6738 20.0117L70.8457 21.2461C70.2103 20.1628 69.5592 19.1367 68.8926 18.168L70.5645 17.1367ZM83.7363 29.9023C83.4655 30.7357 83.2467 31.4336 83.0801 31.9961L75.9551 31.9492C73.7207 31.9492 72.1009 31.4544 71.0957 30.4648L69.2832 32.3086L68.3926 29.9336C68.9551 29.4648 69.4759 29.0195 69.9551 28.5977L69.9551 24.6523L68.502 24.6523L68.502 22.668L72.002 22.668L72.002 28.6133C72.8145 29.5143 74.0905 29.9648 75.8301 29.9648L79.0254 29.9805C80.2493 29.9805 81.8197 29.9544 83.7363 29.9023ZM84.6113 30.4648L84.2051 28.2148L86.0645 27.793L86.0645 22.6836L84.3613 22.6836L84.3613 20.543L86.0645 20.543L86.0645 16.8867L88.1426 16.8867L88.1426 20.543L89.8457 20.543L89.8457 22.6836L88.1426 22.6836L88.1426 27.2852L89.9238 26.8242C89.9134 27.2513 89.9134 27.9909 89.9238 29.043L84.6113 30.4648ZM88.6895 29.5273L90.6895 29.5273L90.6895 20.1055L92.752 20.1055L92.752 29.5273L94.127 29.5273L94.127 16.918L96.2676 16.918L96.2676 21.418L99.3145 21.418L99.3145 23.4961L96.2676 23.4961L96.2676 29.5273L99.7676 29.5273L99.7676 31.6055L88.6895 31.6055L88.6895 29.5273ZM104.439 24.3555L107.455 24.3555C107.518 23.4596 107.572 22.4596 107.619 21.3555L104.877 21.3555L104.877 19.293L107.682 19.293L107.721 16.9336L109.861 16.9336C109.856 17.7357 109.843 18.5221 109.822 19.293L114.346 19.293L114.346 24.3555L115.596 24.3555L115.596 26.418L110.197 26.418C111.239 28.3503 112.976 29.6263 115.408 30.2461C114.971 30.944 114.559 31.6419 114.174 32.3398C111.684 31.5065 109.854 29.9076 108.682 27.543C108.036 29.2878 106.58 30.9128 104.314 32.418C103.919 31.7617 103.445 31.1003 102.893 30.4336C104.893 29.5065 106.244 28.168 106.947 26.418L104.439 26.418L104.439 24.3555ZM112.283 21.3555L109.752 21.3555C109.71 22.3763 109.658 23.3763 109.596 24.3555L112.283 24.3555L112.283 21.3555ZM101.705 17.6367C102.695 18.6263 103.606 19.6211 104.439 20.6211L102.689 22.1211C101.846 20.9753 101.007 19.9284 100.174 18.9805L101.705 17.6367ZM102.33 23.7773C102.851 24.0586 103.481 24.3711 104.221 24.7148L102.018 31.4805C101.455 31.1367 100.84 30.7773 100.174 30.4023C100.903 28.4336 101.622 26.2253 102.33 23.7773ZM131.564 19.4961L129.205 19.4961C129.434 19.9492 129.637 20.3919 129.814 20.8242L127.799 21.2305C127.606 20.6107 127.382 20.0326 127.127 19.4961L126.189 19.4961C125.867 19.9909 125.502 20.4805 125.096 20.9648L125.033 20.9336L125.033 21.5742L131.502 21.5742L131.502 23.1992L125.033 23.1992L125.033 24.1992L130.783 24.1992L130.783 26.6836C130.783 27.1888 130.627 27.6289 130.314 28.0039C130.007 28.3737 129.169 28.5586 127.799 28.5586C128.981 29.1836 130.309 29.6107 131.783 29.8398C131.419 30.4232 131.054 31.0898 130.689 31.8398C128.356 31.1263 126.471 30.0326 125.033 28.5586L125.033 32.3398L122.971 32.3398L122.971 28.5039C121.445 29.9987 119.559 31.1471 117.314 31.9492C117.023 31.3555 116.663 30.7148 116.236 30.0273C119.012 29.2669 121.257 28.069 122.971 26.4336L122.971 25.793L119.611 25.793L119.611 28.5898L117.58 28.5898L117.58 24.1992L122.971 24.1992L122.971 23.1992L116.564 23.1992L116.564 21.5742L122.971 21.5742L122.971 20.8711L124.916 20.8711C124.411 20.6107 123.861 20.3451 123.268 20.0742C124.174 19.1992 124.919 18.1211 125.502 16.8398L127.549 16.8398C127.403 17.2305 127.236 17.6159 127.049 17.9961L131.564 17.9961L131.564 19.4961ZM126.689 26.8242C127.2 26.9076 127.684 26.9492 128.143 26.9492C128.549 26.9492 128.752 26.7669 128.752 26.4023L128.752 25.793L125.033 25.793L125.033 26.4805C125.622 27.0846 126.262 27.6133 126.955 28.0664C126.898 27.6706 126.809 27.2565 126.689 26.8242ZM123.783 19.4961L121.564 19.4961C121.788 19.944 122.012 20.4284 122.236 20.9492L120.221 21.3555C120.018 20.7201 119.791 20.1003 119.541 19.4961L119.221 19.4961C118.564 20.2669 117.851 20.9336 117.08 21.4961C116.903 20.9648 116.606 20.3451 116.189 19.6367C117.231 18.9596 118.101 18.0326 118.799 16.8555L121.018 16.8555C120.799 17.2565 120.572 17.6367 120.338 17.9961L123.783 17.9961L123.783 19.4961Z" fill="url(#paint11_linear_2204_5013)"/>
<g id="1" filter="url(#filter4_d_2204_5013)">
<path d="M49.6294 19.1587L49.6294 29.207L47.5664 29.207L47.5664 21.4692C47.3125 21.6893 46.9655 21.8882 46.5254 22.0659C46.0853 22.2394 45.6812 22.3473 45.313 22.3896L45.313 20.6313C46.4725 20.2928 47.4754 19.8019 48.3218 19.1587L49.6294 19.1587Z" fill="white"/>
</g>
</g>
<defs>
<filter id="filter0_f_2204_5013" x="0.292969" y="0.0161133" width="170.988" height="15.3003" filterUnits="userSpaceOnUse" color-interpolation-filters="sRGB">
<feFlood flood-opacity="0" result="BackgroundImageFix"/>
<feBlend mode="normal" in="SourceGraphic" in2="BackgroundImageFix" result="shape"/>
<feGaussianBlur stdDeviation="3" result="effect1_foregroundBlur_2204_5013"/>
</filter>
<filter id="filter1_f_2204_5013" x="0.292969" y="33.0161" width="170.988" height="15.3003" filterUnits="userSpaceOnUse" color-interpolation-filters="sRGB">
<feFlood flood-opacity="0" result="BackgroundImageFix"/>
<feBlend mode="normal" in="SourceGraphic" in2="BackgroundImageFix" result="shape"/>
<feGaussianBlur stdDeviation="3" result="effect1_foregroundBlur_2204_5013"/>
</filter>
<filter id="filter2_f_2204_5013" x="4.29297" y="39.0161" width="162.988" height="5" filterUnits="userSpaceOnUse" color-interpolation-filters="sRGB">
<feFlood flood-opacity="0" result="BackgroundImageFix"/>
<feBlend mode="normal" in="SourceGraphic" in2="BackgroundImageFix" result="shape"/>
<feGaussianBlur stdDeviation="1" result="effect1_foregroundBlur_2204_5013"/>
</filter>
<filter id="filter3_f_2204_5013" x="4.29297" y="4.01611" width="162.988" height="5" filterUnits="userSpaceOnUse" color-interpolation-filters="sRGB">
<feFlood flood-opacity="0" result="BackgroundImageFix"/>
<feBlend mode="normal" in="SourceGraphic" in2="BackgroundImageFix" result="shape"/>
<feGaussianBlur stdDeviation="1" result="effect1_foregroundBlur_2204_5013"/>
</filter>
<filter id="filter4_d_2204_5013" x="44.3125" y="19.1587" width="6.31641" height="12.0483" filterUnits="userSpaceOnUse" color-interpolation-filters="sRGB">
<feFlood flood-opacity="0" result="BackgroundImageFix"/>
<feColorMatrix in="SourceAlpha" type="matrix" values="0 0 0 0 0 0 0 0 0 0 0 0 0 0 0 0 0 0 127 0" result="hardAlpha"/>
<feOffset dy="1"/>
<feGaussianBlur stdDeviation="0.5"/>
<feComposite in2="hardAlpha" operator="out"/>
<feColorMatrix type="matrix" values="0 0 0 0 0.227451 0 0 0 0 0.513726 0 0 0 0 0.988235 0 0 0 1 0"/>
<feBlend mode="normal" in2="BackgroundImageFix" result="effect1_dropShadow_2204_5013"/>
<feBlend mode="normal" in="SourceGraphic" in2="effect1_dropShadow_2204_5013" result="shape"/>
</filter>
<linearGradient id="paint0_linear_2204_5013" x1="6.29297" y1="24.0071" x2="165.281" y2="24.0071" gradientUnits="userSpaceOnUse">
<stop stop-color="#4F91FD"/>
<stop offset="0.525723" stop-color="#A2C9FF" stop-opacity="0.6"/>
<stop offset="1" stop-color="#488CFD"/>
</linearGradient>
<linearGradient id="paint1_linear_2204_5013" x1="6.29297" y1="24.0071" x2="165.281" y2="24.0071" gradientUnits="userSpaceOnUse">
<stop stop-color="#A2C9FF" stop-opacity="0.9"/>
<stop offset="0.525723" stop-color="#70E5FF" stop-opacity="0.6"/>
<stop offset="1" stop-color="#A2C9FF" stop-opacity="0.9"/>
</linearGradient>
<linearGradient id="paint2_linear_2204_5013" x1="6.29297" y1="7.66626" x2="165.281" y2="7.66626" gradientUnits="userSpaceOnUse">
<stop stop-color="white" stop-opacity="0.6"/>
<stop offset="0.525723" stop-color="#A2FFFD" stop-opacity="0.6"/>
<stop offset="1" stop-color="white" stop-opacity="0.6"/>
</linearGradient>
<linearGradient id="paint3_linear_2204_5013" x1="6.29297" y1="40.6663" x2="165.281" y2="40.6663" gradientUnits="userSpaceOnUse">
<stop stop-color="white" stop-opacity="0.6"/>
<stop offset="0.525723" stop-color="#A2FFFD" stop-opacity="0.6"/>
<stop offset="1" stop-color="white" stop-opacity="0.6"/>
</linearGradient>
<linearGradient id="paint4_linear_2204_5013" x1="6.29297" y1="41.5161" x2="165.281" y2="41.5161" gradientUnits="userSpaceOnUse">
<stop stop-color="white" stop-opacity="0.9"/>
<stop offset="0.525723" stop-color="#EBFFFF"/>
<stop offset="1" stop-color="white" stop-opacity="0.9"/>
</linearGradient>
<linearGradient id="paint5_linear_2204_5013" x1="6.29297" y1="6.51611" x2="165.281" y2="6.51611" gradientUnits="userSpaceOnUse">
<stop stop-color="white" stop-opacity="0.9"/>
<stop offset="0.525723" stop-color="#EBFFFF"/>
<stop offset="1" stop-color="white" stop-opacity="0.9"/>
</linearGradient>
<linearGradient id="paint6_linear_2204_5013" x1="6.29297" y1="24.0071" x2="165.281" y2="24.0071" gradientUnits="userSpaceOnUse">
<stop stop-color="#6DD7FF"/>
<stop offset="1" stop-color="#7DBEFF"/>
</linearGradient>
<linearGradient id="paint7_linear_2204_5013" x1="146.061" y1="23.991" x2="-12.9272" y2="23.991" gradientUnits="userSpaceOnUse">
<stop stop-color="#419FFF"/>
<stop offset="1" stop-color="#47B3FF"/>
</linearGradient>
<linearGradient id="paint8_linear_2204_5013" x1="146.061" y1="23.991" x2="-12.9272" y2="23.991" gradientUnits="userSpaceOnUse">
<stop stop-color="#7EBEFF"/>
<stop offset="1" stop-color="#8BE3FF"/>
</linearGradient>
<linearGradient id="paint9_linear_2204_5013" x1="54.9782" y1="24.2065" x2="36.9782" y2="24.2065" gradientUnits="userSpaceOnUse">
<stop stop-color="#5997FD"/>
<stop offset="1" stop-color="#58D7FF"/>
</linearGradient>
<linearGradient id="paint10_linear_2204_5013" x1="39.1211" y1="24.2065" x2="57.0955" y2="24.8848" gradientUnits="userSpaceOnUse">
<stop stop-color="#D6F0FF"/>
<stop offset="1" stop-color="#C4E8FF"/>
</linearGradient>
<linearGradient id="paint11_linear_2204_5013" x1="100.002" y1="17.207" x2="100.002" y2="30.207" gradientUnits="userSpaceOnUse">
<stop stop-color="#666666"/>
<stop offset="1"/>
</linearGradient>
</defs>
</svg>
