<svg width="172" height="49" viewBox="0 0 172 49" fill="none" xmlns="http://www.w3.org/2000/svg">
<g id="1&#233;&#128;&#137;&#229;&#157;&#128;&#229;&#134;&#179;&#231;&#173;&#150;-&#231;&#130;&#185;&#229;&#135;&#187;&#233;&#162;&#156;&#232;&#137;&#178;">
<g id="Group 1321315616">
<mask id="mask0_2204_5028" style="mask-type:alpha" maskUnits="userSpaceOnUse" x="6" y="6" width="160" height="37">
<rect id="Rectangle 34628613" x="6.29297" y="6.06738" width="158.988" height="35.9819" fill="url(#paint0_linear_2204_5028)"/>
</mask>
<g mask="url(#mask0_2204_5028)">
<rect id="Rectangle 34628616" x="6.29297" y="6.06738" width="158.988" height="35.9819" fill="url(#paint1_linear_2204_5028)" stroke="url(#paint2_linear_2204_5028)"/>
</g>
</g>
<rect id="Rectangle 34628617" x="6.29297" y="6.06738" width="158.988" height="35.9819" fill="url(#paint3_linear_2204_5028)" stroke="url(#paint4_linear_2204_5028)"/>
<g id="Rectangle 34628615" filter="url(#filter0_f_2204_5028)">
<rect x="6.29297" y="6.06738" width="158.988" height="3.30029" fill="url(#paint5_linear_2204_5028)"/>
</g>
<g id="Rectangle 34628616_2" filter="url(#filter1_f_2204_5028)">
<rect x="6.29297" y="39.0674" width="158.988" height="3.30029" fill="url(#paint6_linear_2204_5028)"/>
</g>
<g id="Rectangle 34628617_2" filter="url(#filter2_f_2204_5028)">
<rect x="6.29297" y="41.0674" width="158.988" height="1" fill="url(#paint7_linear_2204_5028)"/>
</g>
<g id="Rectangle 34628618" filter="url(#filter3_f_2204_5028)">
<rect x="6.29297" y="6.06738" width="158.988" height="1" fill="url(#paint8_linear_2204_5028)"/>
</g>
<path id="Rectangle 34628619" d="M6 11.0468L6 6.05127L11.9368 6.05127M6 37.0377L6 42.0332L11.9368 42.0332M164.988 11.0468L164.988 6.05127L159.052 6.05127M164.988 37.0377L164.988 42.0332L159.052 42.0332" stroke="url(#paint9_linear_2204_5028)" stroke-width="2"/>
<path id="Rectangle 34628620" d="M6 11.0468L6 6.05127L11.9368 6.05127M6 37.0377L6 42.0332L11.9368 42.0332M164.988 11.0468L164.988 6.05127L159.052 6.05127M164.988 37.0377L164.988 42.0332L159.052 42.0332" stroke="url(#paint10_linear_2204_5028)"/>
<path id="Vector" d="M48.1211 15.7578C50.4954 15.7578 52.4946 16.5802 54.1484 18.2324C55.6987 19.7813 56.5183 21.6347 56.6123 23.8164L56.6211 24.2568C56.6182 26.6319 55.7957 28.6322 54.1475 30.2861C52.6032 31.8355 50.7503 32.655 48.5635 32.749L48.1221 32.7578L48.1211 32.7578C45.8934 32.7578 43.9976 32.0355 42.4092 30.585L42.0957 30.2852C40.4435 28.6314 39.6211 26.6321 39.6211 24.2578C39.6211 22.0319 40.3442 20.1366 41.7959 18.5469L42.0957 18.2324C43.748 16.5801 45.7467 15.7578 48.1211 15.7578Z" fill="url(#paint11_linear_2204_5028)" stroke="url(#paint12_linear_2204_5028)"/>
<g id="&#233;&#128;&#137;&#229;&#157;&#128;&#229;&#134;&#179;&#231;&#173;&#150;">
<mask id="path-11-outside-1_2204_5028" maskUnits="userSpaceOnUse" x="67.125" y="16.2583" width="66" height="18" fill="black">
<rect fill="white" x="67.125" y="16.2583" width="66" height="18"/>
<path d="M81.5488 25.2505C82.153 25.5317 82.778 25.7922 83.4238 26.0317C83.2415 27.214 83.0775 27.9692 82.9316 28.2974C82.791 28.6203 82.5618 28.8677 82.2441 29.0396C81.9264 29.2114 81.528 29.2974 81.0488 29.2974L79.9551 29.2974C78.7155 29.2974 78.0957 28.6047 78.0957 27.2192L78.0957 24.7192L76.916 24.7192C76.8483 26.0786 76.5957 27.089 76.1582 27.7505C75.7207 28.4067 75.0697 29.0005 74.2051 29.5317C73.8301 29.063 73.3613 28.5474 72.7988 27.9849C73.2884 27.6932 73.7441 27.3156 74.166 26.8521C74.5879 26.3833 74.8327 25.6724 74.9004 24.7192L72.6738 24.7192L72.6738 22.8755L77.2363 22.8755L77.2363 21.1411L75.1035 21.1411C74.9056 21.6463 74.7103 22.1047 74.5176 22.5161C74.0072 22.2557 73.4238 21.9744 72.7676 21.6724C73.3613 20.464 73.8978 19.0369 74.377 17.3911L76.2051 17.9849L75.7754 19.2974L77.2363 19.2974L77.2363 16.9692L79.3145 16.9692L79.3145 19.2974L82.9082 19.2974L82.9082 21.1411L79.3145 21.1411L79.3145 22.8755L83.4863 22.8755L83.4863 24.7192L80.1113 24.7192L80.1113 26.7817C80.1113 27.2088 80.2676 27.4224 80.5801 27.4224L80.7676 27.4224C81.054 27.4224 81.2363 27.3234 81.3145 27.1255C81.3926 26.9224 81.4707 26.2974 81.5488 25.2505ZM70.5645 17.188C71.3457 18.2088 72.0488 19.1672 72.6738 20.063L70.8457 21.2974C70.2103 20.214 69.5592 19.188 68.8926 18.2192L70.5645 17.188ZM83.7363 29.9536C83.4655 30.7869 83.2467 31.4849 83.0801 32.0474L75.9551 32.0005C73.7207 32.0005 72.1009 31.5057 71.0957 30.5161L69.2832 32.3599L68.3926 29.9849C68.9551 29.5161 69.4759 29.0708 69.9551 28.6489L69.9551 24.7036L68.502 24.7036L68.502 22.7192L72.002 22.7192L72.002 28.6646C72.8145 29.5656 74.0905 30.0161 75.8301 30.0161L79.0254 30.0317C80.2493 30.0317 81.8197 30.0057 83.7363 29.9536ZM84.6113 30.5161L84.2051 28.2661L86.0645 27.8442L86.0645 22.7349L84.3613 22.7349L84.3613 20.5942L86.0645 20.5942L86.0645 16.938L88.1426 16.938L88.1426 20.5942L89.8457 20.5942L89.8457 22.7349L88.1426 22.7349L88.1426 27.3364L89.9238 26.8755C89.9134 27.3026 89.9134 28.0422 89.9238 29.0942L84.6113 30.5161ZM88.6895 29.5786L90.6895 29.5786L90.6895 20.1567L92.752 20.1567L92.752 29.5786L94.127 29.5786L94.127 16.9692L96.2676 16.9692L96.2676 21.4692L99.3145 21.4692L99.3145 23.5474L96.2676 23.5474L96.2676 29.5786L99.7676 29.5786L99.7676 31.6567L88.6895 31.6567L88.6895 29.5786ZM104.439 24.4067L107.455 24.4067C107.518 23.5109 107.572 22.5109 107.619 21.4067L104.877 21.4067L104.877 19.3442L107.682 19.3442L107.721 16.9849L109.861 16.9849C109.856 17.7869 109.843 18.5734 109.822 19.3442L114.346 19.3442L114.346 24.4067L115.596 24.4067L115.596 26.4692L110.197 26.4692C111.239 28.4015 112.976 29.6776 115.408 30.2974C114.971 30.9953 114.559 31.6932 114.174 32.3911C111.684 31.5578 109.854 29.9588 108.682 27.5942C108.036 29.339 106.58 30.964 104.314 32.4692C103.919 31.813 103.445 31.1515 102.893 30.4849C104.893 29.5578 106.244 28.2192 106.947 26.4692L104.439 26.4692L104.439 24.4067ZM112.283 21.4067L109.752 21.4067C109.71 22.4276 109.658 23.4276 109.596 24.4067L112.283 24.4067L112.283 21.4067ZM101.705 17.688C102.695 18.6776 103.606 19.6724 104.439 20.6724L102.689 22.1724C101.846 21.0265 101.007 19.9797 100.174 19.0317L101.705 17.688ZM102.33 23.8286C102.851 24.1099 103.481 24.4224 104.221 24.7661L102.018 31.5317C101.455 31.188 100.84 30.8286 100.174 30.4536C100.903 28.4849 101.622 26.2765 102.33 23.8286ZM131.564 19.5474L129.205 19.5474C129.434 20.0005 129.637 20.4432 129.814 20.8755L127.799 21.2817C127.606 20.6619 127.382 20.0838 127.127 19.5474L126.189 19.5474C125.867 20.0422 125.502 20.5317 125.096 21.0161L125.033 20.9849L125.033 21.6255L131.502 21.6255L131.502 23.2505L125.033 23.2505L125.033 24.2505L130.783 24.2505L130.783 26.7349C130.783 27.2401 130.627 27.6802 130.314 28.0552C130.007 28.425 129.169 28.6099 127.799 28.6099C128.981 29.2349 130.309 29.6619 131.783 29.8911C131.419 30.4744 131.054 31.1411 130.689 31.8911C128.356 31.1776 126.471 30.0838 125.033 28.6099L125.033 32.3911L122.971 32.3911L122.971 28.5552C121.445 30.05 119.559 31.1984 117.314 32.0005C117.023 31.4067 116.663 30.7661 116.236 30.0786C119.012 29.3182 121.257 28.1203 122.971 26.4849L122.971 25.8442L119.611 25.8442L119.611 28.6411L117.58 28.6411L117.58 24.2505L122.971 24.2505L122.971 23.2505L116.564 23.2505L116.564 21.6255L122.971 21.6255L122.971 20.9224L124.916 20.9224C124.411 20.6619 123.861 20.3963 123.268 20.1255C124.174 19.2505 124.919 18.1724 125.502 16.8911L127.549 16.8911C127.403 17.2817 127.236 17.6672 127.049 18.0474L131.564 18.0474L131.564 19.5474ZM126.689 26.8755C127.2 26.9588 127.684 27.0005 128.143 27.0005C128.549 27.0005 128.752 26.8182 128.752 26.4536L128.752 25.8442L125.033 25.8442L125.033 26.5317C125.622 27.1359 126.262 27.6646 126.955 28.1177C126.898 27.7218 126.809 27.3078 126.689 26.8755ZM123.783 19.5474L121.564 19.5474C121.788 19.9953 122.012 20.4797 122.236 21.0005L120.221 21.4067C120.018 20.7713 119.791 20.1515 119.541 19.5474L119.221 19.5474C118.564 20.3182 117.851 20.9849 117.08 21.5474C116.903 21.0161 116.606 20.3963 116.189 19.688C117.231 19.0109 118.101 18.0838 118.799 16.9067L121.018 16.9067C120.799 17.3078 120.572 17.688 120.338 18.0474L123.783 18.0474L123.783 19.5474Z"/>
</mask>
<path d="M81.5488 25.2505C82.153 25.5317 82.778 25.7922 83.4238 26.0317C83.2415 27.214 83.0775 27.9692 82.9316 28.2974C82.791 28.6203 82.5618 28.8677 82.2441 29.0396C81.9264 29.2114 81.528 29.2974 81.0488 29.2974L79.9551 29.2974C78.7155 29.2974 78.0957 28.6047 78.0957 27.2192L78.0957 24.7192L76.916 24.7192C76.8483 26.0786 76.5957 27.089 76.1582 27.7505C75.7207 28.4067 75.0697 29.0005 74.2051 29.5317C73.8301 29.063 73.3613 28.5474 72.7988 27.9849C73.2884 27.6932 73.7441 27.3156 74.166 26.8521C74.5879 26.3833 74.8327 25.6724 74.9004 24.7192L72.6738 24.7192L72.6738 22.8755L77.2363 22.8755L77.2363 21.1411L75.1035 21.1411C74.9056 21.6463 74.7103 22.1047 74.5176 22.5161C74.0072 22.2557 73.4238 21.9744 72.7676 21.6724C73.3613 20.464 73.8978 19.0369 74.377 17.3911L76.2051 17.9849L75.7754 19.2974L77.2363 19.2974L77.2363 16.9692L79.3145 16.9692L79.3145 19.2974L82.9082 19.2974L82.9082 21.1411L79.3145 21.1411L79.3145 22.8755L83.4863 22.8755L83.4863 24.7192L80.1113 24.7192L80.1113 26.7817C80.1113 27.2088 80.2676 27.4224 80.5801 27.4224L80.7676 27.4224C81.054 27.4224 81.2363 27.3234 81.3145 27.1255C81.3926 26.9224 81.4707 26.2974 81.5488 25.2505ZM70.5645 17.188C71.3457 18.2088 72.0488 19.1672 72.6738 20.063L70.8457 21.2974C70.2103 20.214 69.5592 19.188 68.8926 18.2192L70.5645 17.188ZM83.7363 29.9536C83.4655 30.7869 83.2467 31.4849 83.0801 32.0474L75.9551 32.0005C73.7207 32.0005 72.1009 31.5057 71.0957 30.5161L69.2832 32.3599L68.3926 29.9849C68.9551 29.5161 69.4759 29.0708 69.9551 28.6489L69.9551 24.7036L68.502 24.7036L68.502 22.7192L72.002 22.7192L72.002 28.6646C72.8145 29.5656 74.0905 30.0161 75.8301 30.0161L79.0254 30.0317C80.2493 30.0317 81.8197 30.0057 83.7363 29.9536ZM84.6113 30.5161L84.2051 28.2661L86.0645 27.8442L86.0645 22.7349L84.3613 22.7349L84.3613 20.5942L86.0645 20.5942L86.0645 16.938L88.1426 16.938L88.1426 20.5942L89.8457 20.5942L89.8457 22.7349L88.1426 22.7349L88.1426 27.3364L89.9238 26.8755C89.9134 27.3026 89.9134 28.0422 89.9238 29.0942L84.6113 30.5161ZM88.6895 29.5786L90.6895 29.5786L90.6895 20.1567L92.752 20.1567L92.752 29.5786L94.127 29.5786L94.127 16.9692L96.2676 16.9692L96.2676 21.4692L99.3145 21.4692L99.3145 23.5474L96.2676 23.5474L96.2676 29.5786L99.7676 29.5786L99.7676 31.6567L88.6895 31.6567L88.6895 29.5786ZM104.439 24.4067L107.455 24.4067C107.518 23.5109 107.572 22.5109 107.619 21.4067L104.877 21.4067L104.877 19.3442L107.682 19.3442L107.721 16.9849L109.861 16.9849C109.856 17.7869 109.843 18.5734 109.822 19.3442L114.346 19.3442L114.346 24.4067L115.596 24.4067L115.596 26.4692L110.197 26.4692C111.239 28.4015 112.976 29.6776 115.408 30.2974C114.971 30.9953 114.559 31.6932 114.174 32.3911C111.684 31.5578 109.854 29.9588 108.682 27.5942C108.036 29.339 106.58 30.964 104.314 32.4692C103.919 31.813 103.445 31.1515 102.893 30.4849C104.893 29.5578 106.244 28.2192 106.947 26.4692L104.439 26.4692L104.439 24.4067ZM112.283 21.4067L109.752 21.4067C109.71 22.4276 109.658 23.4276 109.596 24.4067L112.283 24.4067L112.283 21.4067ZM101.705 17.688C102.695 18.6776 103.606 19.6724 104.439 20.6724L102.689 22.1724C101.846 21.0265 101.007 19.9797 100.174 19.0317L101.705 17.688ZM102.33 23.8286C102.851 24.1099 103.481 24.4224 104.221 24.7661L102.018 31.5317C101.455 31.188 100.84 30.8286 100.174 30.4536C100.903 28.4849 101.622 26.2765 102.33 23.8286ZM131.564 19.5474L129.205 19.5474C129.434 20.0005 129.637 20.4432 129.814 20.8755L127.799 21.2817C127.606 20.6619 127.382 20.0838 127.127 19.5474L126.189 19.5474C125.867 20.0422 125.502 20.5317 125.096 21.0161L125.033 20.9849L125.033 21.6255L131.502 21.6255L131.502 23.2505L125.033 23.2505L125.033 24.2505L130.783 24.2505L130.783 26.7349C130.783 27.2401 130.627 27.6802 130.314 28.0552C130.007 28.425 129.169 28.6099 127.799 28.6099C128.981 29.2349 130.309 29.6619 131.783 29.8911C131.419 30.4744 131.054 31.1411 130.689 31.8911C128.356 31.1776 126.471 30.0838 125.033 28.6099L125.033 32.3911L122.971 32.3911L122.971 28.5552C121.445 30.05 119.559 31.1984 117.314 32.0005C117.023 31.4067 116.663 30.7661 116.236 30.0786C119.012 29.3182 121.257 28.1203 122.971 26.4849L122.971 25.8442L119.611 25.8442L119.611 28.6411L117.58 28.6411L117.58 24.2505L122.971 24.2505L122.971 23.2505L116.564 23.2505L116.564 21.6255L122.971 21.6255L122.971 20.9224L124.916 20.9224C124.411 20.6619 123.861 20.3963 123.268 20.1255C124.174 19.2505 124.919 18.1724 125.502 16.8911L127.549 16.8911C127.403 17.2817 127.236 17.6672 127.049 18.0474L131.564 18.0474L131.564 19.5474ZM126.689 26.8755C127.2 26.9588 127.684 27.0005 128.143 27.0005C128.549 27.0005 128.752 26.8182 128.752 26.4536L128.752 25.8442L125.033 25.8442L125.033 26.5317C125.622 27.1359 126.262 27.6646 126.955 28.1177C126.898 27.7218 126.809 27.3078 126.689 26.8755ZM123.783 19.5474L121.564 19.5474C121.788 19.9953 122.012 20.4797 122.236 21.0005L120.221 21.4067C120.018 20.7713 119.791 20.1515 119.541 19.5474L119.221 19.5474C118.564 20.3182 117.851 20.9849 117.08 21.5474C116.903 21.0161 116.606 20.3963 116.189 19.688C117.231 19.0109 118.101 18.0838 118.799 16.9067L121.018 16.9067C120.799 17.3078 120.572 17.688 120.338 18.0474L123.783 18.0474L123.783 19.5474Z" fill="url(#paint13_linear_2204_5028)"/>
<path d="M81.5488 25.2505L81.7598 24.7972L81.104 24.4919L81.0502 25.2133L81.5488 25.2505ZM83.4238 26.0317L83.918 26.1079L83.9801 25.7048L83.5977 25.563L83.4238 26.0317ZM82.9316 28.2974L82.4747 28.0943L82.4732 28.0977L82.9316 28.2974ZM78.0957 24.7192L78.5957 24.7192L78.5957 24.2192L78.0957 24.2192L78.0957 24.7192ZM76.916 24.7192L76.916 24.2192L76.4403 24.2192L76.4166 24.6944L76.916 24.7192ZM76.1582 27.7505L76.5742 28.0278L76.5752 28.0263L76.1582 27.7505ZM74.2051 29.5317L73.8146 29.8441L74.0905 30.189L74.4668 29.9577L74.2051 29.5317ZM72.7988 27.9849L72.5429 27.5553L71.991 27.8841L72.4453 28.3384L72.7988 27.9849ZM74.166 26.8521L74.5358 27.1886L74.5377 27.1865L74.166 26.8521ZM74.9004 24.7192L75.3991 24.7547L75.4372 24.2192L74.9004 24.2192L74.9004 24.7192ZM72.6738 24.7192L72.1738 24.7192L72.1738 25.2192L72.6738 25.2192L72.6738 24.7192ZM72.6738 22.8755L72.6738 22.3755L72.1738 22.3755L72.1738 22.8755L72.6738 22.8755ZM77.2363 22.8755L77.2363 23.3755L77.7363 23.3755L77.7363 22.8755L77.2363 22.8755ZM77.2363 21.1411L77.7363 21.1411L77.7363 20.6411L77.2363 20.6411L77.2363 21.1411ZM75.1035 21.1411L75.1035 20.6411L74.7624 20.6411L74.638 20.9587L75.1035 21.1411ZM74.5176 22.5161L74.2903 22.9615L74.751 23.1965L74.9704 22.7282L74.5176 22.5161ZM72.7676 21.6724L72.3188 21.4519L72.0927 21.9121L72.5585 22.1266L72.7676 21.6724ZM74.377 17.3911L74.5314 16.9156L74.041 16.7563L73.8969 17.2513L74.377 17.3911ZM76.2051 17.9849L76.6803 18.1404L76.8362 17.6641L76.3595 17.5093L76.2051 17.9849ZM75.7754 19.2974L75.3002 19.1418L75.0856 19.7974L75.7754 19.7974L75.7754 19.2974ZM77.2363 19.2974L77.2363 19.7974L77.7363 19.7974L77.7363 19.2974L77.2363 19.2974ZM77.2363 16.9692L77.2363 16.4692L76.7363 16.4692L76.7363 16.9692L77.2363 16.9692ZM79.3145 16.9692L79.8145 16.9692L79.8145 16.4692L79.3145 16.4692L79.3145 16.9692ZM79.3145 19.2974L78.8145 19.2974L78.8145 19.7974L79.3145 19.7974L79.3145 19.2974ZM82.9082 19.2974L83.4082 19.2974L83.4082 18.7974L82.9082 18.7974L82.9082 19.2974ZM82.9082 21.1411L82.9082 21.6411L83.4082 21.6411L83.4082 21.1411L82.9082 21.1411ZM79.3145 21.1411L79.3145 20.6411L78.8145 20.6411L78.8145 21.1411L79.3145 21.1411ZM79.3145 22.8755L78.8145 22.8755L78.8145 23.3755L79.3145 23.3755L79.3145 22.8755ZM83.4863 22.8755L83.9863 22.8755L83.9863 22.3755L83.4863 22.3755L83.4863 22.8755ZM83.4863 24.7192L83.4863 25.2192L83.9863 25.2192L83.9863 24.7192L83.4863 24.7192ZM80.1113 24.7192L80.1113 24.2192L79.6113 24.2192L79.6113 24.7192L80.1113 24.7192ZM81.3145 27.1255L81.7795 27.3091L81.7811 27.305L81.3145 27.1255ZM70.5645 17.188L70.9615 16.8841L70.6868 16.5251L70.302 16.7624L70.5645 17.188ZM72.6738 20.063L72.9536 20.4774L73.3744 20.1933L73.0839 19.7769L72.6738 20.063ZM70.8457 21.2974L70.4144 21.5503L70.684 22.0099L71.1255 21.7117L70.8457 21.2974ZM68.8926 18.2192L68.6301 17.7937L68.1827 18.0697L68.4807 18.5027L68.8926 18.2192ZM83.7363 29.9536L84.2118 30.1082L84.4308 29.4346L83.7227 29.4538L83.7363 29.9536ZM83.0801 32.0474L83.0768 32.5474L83.4527 32.5498L83.5595 32.1894L83.0801 32.0474ZM75.9551 32.0005L75.9584 31.5005L75.9551 31.5005L75.9551 32.0005ZM71.0957 30.5161L71.4465 30.1598L71.0899 29.8088L70.7391 30.1656L71.0957 30.5161ZM69.2832 32.3599L68.815 32.5354L69.0903 33.2694L69.6398 32.7104L69.2832 32.3599ZM68.3926 29.9849L68.0725 29.6008L67.7998 29.828L67.9244 30.1604L68.3926 29.9849ZM69.9551 28.6489L70.2855 29.0242L70.4551 28.8749L70.4551 28.6489L69.9551 28.6489ZM69.9551 24.7036L70.4551 24.7036L70.4551 24.2036L69.9551 24.2036L69.9551 24.7036ZM68.502 24.7036L68.002 24.7036L68.002 25.2036L68.502 25.2036L68.502 24.7036ZM68.502 22.7192L68.502 22.2192L68.002 22.2192L68.002 22.7192L68.502 22.7192ZM72.002 22.7192L72.502 22.7192L72.502 22.2192L72.002 22.2192L72.002 22.7192ZM72.002 28.6646L71.502 28.6646L71.502 28.8567L71.6306 28.9994L72.002 28.6646ZM75.8301 30.0161L75.8325 29.5161L75.8301 29.5161L75.8301 30.0161ZM79.0254 30.0317L79.0229 30.5317L79.0254 30.5317L79.0254 30.0317ZM81.5488 25.2505L81.3378 25.7038C81.9545 25.9909 82.5919 26.2564 83.2499 26.5005L83.4238 26.0317L83.5977 25.563C82.9641 25.3279 82.3515 25.0726 81.7598 24.7972L81.5488 25.2505ZM83.4238 26.0317L82.9297 25.9555C82.8393 26.5414 82.7545 27.0149 82.6755 27.3787C82.5944 27.752 82.5255 27.9801 82.4747 28.0943L82.9316 28.2974L83.3885 28.5004C83.4836 28.2865 83.5697 27.9729 83.6527 27.591C83.7377 27.1997 83.826 26.7043 83.918 26.1079L83.4238 26.0317ZM82.9316 28.2974L82.4732 28.0977C82.3784 28.3154 82.2284 28.4796 82.0062 28.5998L82.2441 29.0396L82.4821 29.4793C82.8953 29.2558 83.2036 28.9251 83.3901 28.497L82.9316 28.2974ZM82.2441 29.0396L82.0062 28.5998C81.7816 28.7213 81.4711 28.7974 81.0488 28.7974L81.0488 29.2974L81.0488 29.7974C81.5849 29.7974 82.0713 29.7015 82.4821 29.4793L82.2441 29.0396ZM81.0488 29.2974L81.0488 28.7974L79.9551 28.7974L79.9551 29.2974L79.9551 29.7974L81.0488 29.7974L81.0488 29.2974ZM79.9551 29.2974L79.9551 28.7974C79.4276 28.7974 79.1194 28.6525 78.9332 28.4444C78.7375 28.2257 78.5957 27.8477 78.5957 27.2192L78.0957 27.2192L77.5957 27.2192C77.5957 27.9762 77.7638 28.6372 78.1879 29.1112C78.6215 29.5958 79.2429 29.7974 79.9551 29.7974L79.9551 29.2974ZM78.0957 27.2192L78.5957 27.2192L78.5957 24.7192L78.0957 24.7192L77.5957 24.7192L77.5957 27.2192L78.0957 27.2192ZM78.0957 24.7192L78.0957 24.2192L76.916 24.2192L76.916 24.7192L76.916 25.2192L78.0957 25.2192L78.0957 24.7192ZM76.916 24.7192L76.4166 24.6944C76.3506 26.0205 76.1054 26.924 75.7412 27.4747L76.1582 27.7505L76.5752 28.0263C77.086 27.254 77.346 26.1367 77.4154 24.7441L76.916 24.7192ZM76.1582 27.7505L75.7422 27.4731C75.3545 28.0546 74.7633 28.6019 73.9433 29.1057L74.2051 29.5317L74.4668 29.9577C75.376 29.3991 76.0869 28.7588 76.5742 28.0278L76.1582 27.7505ZM74.2051 29.5317L74.5955 29.2194C74.206 28.7325 73.724 28.2029 73.1524 27.6313L72.7988 27.9849L72.4453 28.3384C72.9986 28.8918 73.4542 29.3935 73.8146 29.8441L74.2051 29.5317ZM72.7988 27.9849L73.0547 28.4144C73.5906 28.0951 74.084 27.685 74.5358 27.1886L74.166 26.8521L73.7962 26.5155C73.4042 26.9462 72.9862 27.2912 72.5429 27.5553L72.7988 27.9849ZM74.166 26.8521L74.5377 27.1865C75.0637 26.602 75.3274 25.7644 75.3991 24.7547L74.9004 24.7192L74.4016 24.6838C74.338 25.5803 74.112 26.1646 73.7944 26.5176L74.166 26.8521ZM74.9004 24.7192L74.9004 24.2192L72.6738 24.2192L72.6738 24.7192L72.6738 25.2192L74.9004 25.2192L74.9004 24.7192ZM72.6738 24.7192L73.1738 24.7192L73.1738 22.8755L72.6738 22.8755L72.1738 22.8755L72.1738 24.7192L72.6738 24.7192ZM72.6738 22.8755L72.6738 23.3755L77.2363 23.3755L77.2363 22.8755L77.2363 22.3755L72.6738 22.3755L72.6738 22.8755ZM77.2363 22.8755L77.7363 22.8755L77.7363 21.1411L77.2363 21.1411L76.7363 21.1411L76.7363 22.8755L77.2363 22.8755ZM77.2363 21.1411L77.2363 20.6411L75.1035 20.6411L75.1035 21.1411L75.1035 21.6411L77.2363 21.6411L77.2363 21.1411ZM75.1035 21.1411L74.638 20.9587C74.4433 21.4558 74.2521 21.904 74.0648 22.304L74.5176 22.5161L74.9704 22.7282C75.1684 22.3053 75.3679 21.8369 75.5691 21.3235L75.1035 21.1411ZM74.5176 22.5161L74.7448 22.0707C74.2271 21.8066 73.6375 21.5224 72.9766 21.2182L72.7676 21.6724L72.5585 22.1266C73.2101 22.4265 73.7872 22.7048 74.2903 22.9615L74.5176 22.5161ZM72.7676 21.6724L73.2163 21.8929C73.8257 20.6527 74.3718 19.1974 74.857 17.5309L74.377 17.3911L73.8969 17.2513C73.4237 18.8765 72.8969 20.2754 72.3188 21.4519L72.7676 21.6724ZM74.377 17.3911L74.2225 17.8667L76.0506 18.4604L76.2051 17.9849L76.3595 17.5093L74.5314 16.9156L74.377 17.3911ZM76.2051 17.9849L75.7299 17.8293L75.3002 19.1418L75.7754 19.2974L76.2506 19.4529L76.6803 18.1404L76.2051 17.9849ZM75.7754 19.2974L75.7754 19.7974L77.2363 19.7974L77.2363 19.2974L77.2363 18.7974L75.7754 18.7974L75.7754 19.2974ZM77.2363 19.2974L77.7363 19.2974L77.7363 16.9692L77.2363 16.9692L76.7363 16.9692L76.7363 19.2974L77.2363 19.2974ZM77.2363 16.9692L77.2363 17.4692L79.3145 17.4692L79.3145 16.9692L79.3145 16.4692L77.2363 16.4692L77.2363 16.9692ZM79.3145 16.9692L78.8145 16.9692L78.8145 19.2974L79.3145 19.2974L79.8145 19.2974L79.8145 16.9692L79.3145 16.9692ZM79.3145 19.2974L79.3145 19.7974L82.9082 19.7974L82.9082 19.2974L82.9082 18.7974L79.3145 18.7974L79.3145 19.2974ZM82.9082 19.2974L82.4082 19.2974L82.4082 21.1411L82.9082 21.1411L83.4082 21.1411L83.4082 19.2974L82.9082 19.2974ZM82.9082 21.1411L82.9082 20.6411L79.3145 20.6411L79.3145 21.1411L79.3145 21.6411L82.9082 21.6411L82.9082 21.1411ZM79.3145 21.1411L78.8145 21.1411L78.8145 22.8755L79.3145 22.8755L79.8145 22.8755L79.8145 21.1411L79.3145 21.1411ZM79.3145 22.8755L79.3145 23.3755L83.4863 23.3755L83.4863 22.8755L83.4863 22.3755L79.3145 22.3755L79.3145 22.8755ZM83.4863 22.8755L82.9863 22.8755L82.9863 24.7192L83.4863 24.7192L83.9863 24.7192L83.9863 22.8755L83.4863 22.8755ZM83.4863 24.7192L83.4863 24.2192L80.1113 24.2192L80.1113 24.7192L80.1113 25.2192L83.4863 25.2192L83.4863 24.7192ZM80.1113 24.7192L79.6113 24.7192L79.6113 26.7817L80.1113 26.7817L80.6113 26.7817L80.6113 24.7192L80.1113 24.7192ZM80.1113 26.7817L79.6113 26.7817C79.6113 27.0415 79.6562 27.3268 79.825 27.5575C80.0151 27.8173 80.2971 27.9224 80.5801 27.9224L80.5801 27.4224L80.5801 26.9224C80.5585 26.9224 80.5634 26.9187 80.5823 26.9273C80.6039 26.9372 80.6219 26.9531 80.632 26.967C80.64 26.9778 80.6341 26.975 80.6264 26.9435C80.6186 26.9117 80.6113 26.8596 80.6113 26.7817L80.1113 26.7817ZM80.5801 27.4224L80.5801 27.9224L80.7676 27.9224L80.7676 27.4224L80.7676 26.9224L80.5801 26.9224L80.5801 27.4224ZM80.7676 27.4224L80.7676 27.9224C80.964 27.9224 81.1707 27.8891 81.3577 27.7876C81.5549 27.6805 81.6986 27.5142 81.7795 27.3091L81.3145 27.1255L80.8494 26.9419C80.8493 26.9421 80.8522 26.935 80.8604 26.9257C80.8688 26.9162 80.8769 26.9107 80.8806 26.9087C80.8853 26.9062 80.8577 26.9224 80.7676 26.9224L80.7676 27.4224ZM81.3145 27.1255L81.7811 27.305C81.8455 27.1375 81.8898 26.87 81.9278 26.5664C81.9683 26.2421 82.0081 25.8148 82.0474 25.2877L81.5488 25.2505L81.0502 25.2133C81.0114 25.7331 80.9731 26.1417 80.9355 26.4424C80.9167 26.5928 80.8986 26.7116 80.8817 26.8013C80.8733 26.846 80.8656 26.8808 80.859 26.9068C80.8558 26.9197 80.853 26.9294 80.8509 26.9364C80.8487 26.9436 80.8476 26.9465 80.8478 26.946L81.3145 27.1255ZM70.5645 17.188L70.1674 17.4919C70.9449 18.5079 71.6436 19.4602 72.2638 20.3491L72.6738 20.063L73.0839 19.7769C72.454 18.8741 71.7465 17.9098 70.9615 16.8841L70.5645 17.188ZM72.6738 20.063L72.394 19.6486L70.5659 20.883L70.8457 21.2974L71.1255 21.7117L72.9536 20.4774L72.6738 20.063ZM70.8457 21.2974L71.277 21.0444C70.6359 19.9514 69.9784 18.9151 69.3045 17.9358L68.8926 18.2192L68.4807 18.5027C69.1401 19.4609 69.7847 20.4767 70.4144 21.5503L70.8457 21.2974ZM68.8926 18.2192L69.1551 18.6448L70.8269 17.6135L70.5645 17.188L70.302 16.7624L68.6301 17.7937L68.8926 18.2192ZM83.7363 29.9536L83.2608 29.7991C82.9892 30.6347 82.769 31.3371 82.6007 31.9053L83.0801 32.0474L83.5595 32.1894C83.7245 31.6326 83.9418 30.9391 84.2118 30.1082L83.7363 29.9536ZM83.0801 32.0474L83.0834 31.5474L75.9584 31.5005L75.9551 32.0005L75.9518 32.5005L83.0768 32.5474L83.0801 32.0474ZM75.9551 32.0005L75.9551 31.5005C73.7781 31.5005 72.3162 31.016 71.4465 30.1598L71.0957 30.5161L70.7449 30.8724C71.8857 31.9954 73.6634 32.5005 75.9551 32.5005L75.9551 32.0005ZM71.0957 30.5161L70.7391 30.1656L68.9266 32.0093L69.2832 32.3599L69.6398 32.7104L71.4523 30.8666L71.0957 30.5161ZM69.2832 32.3599L69.7514 32.1843L68.8607 29.8093L68.3926 29.9849L67.9244 30.1604L68.815 32.5354L69.2832 32.3599ZM68.3926 29.9849L68.7127 30.369C69.2782 29.8977 69.8025 29.4495 70.2855 29.0242L69.9551 28.6489L69.6247 28.2737C69.1494 28.6921 68.632 29.1345 68.0725 29.6008L68.3926 29.9849ZM69.9551 28.6489L70.4551 28.6489L70.4551 24.7036L69.9551 24.7036L69.4551 24.7036L69.4551 28.6489L69.9551 28.6489ZM69.9551 24.7036L69.9551 24.2036L68.502 24.2036L68.502 24.7036L68.502 25.2036L69.9551 25.2036L69.9551 24.7036ZM68.502 24.7036L69.002 24.7036L69.002 22.7192L68.502 22.7192L68.002 22.7192L68.002 24.7036L68.502 24.7036ZM68.502 22.7192L68.502 23.2192L72.002 23.2192L72.002 22.7192L72.002 22.2192L68.502 22.2192L68.502 22.7192ZM72.002 22.7192L71.502 22.7192L71.502 28.6646L72.002 28.6646L72.502 28.6646L72.502 22.7192L72.002 22.7192ZM72.002 28.6646L71.6306 28.9994C72.5731 30.0446 74.0117 30.5161 75.8301 30.5161L75.8301 30.0161L75.8301 29.5161C74.1693 29.5161 73.0558 29.0866 72.3733 28.3297L72.002 28.6646ZM75.8301 30.0161L75.8276 30.5161L79.0229 30.5317L79.0254 30.0317L79.0278 29.5317L75.8325 29.5161L75.8301 30.0161ZM79.0254 30.0317L79.0254 30.5317C80.2557 30.5317 81.8309 30.5056 83.7499 30.4534L83.7363 29.9536L83.7227 29.4538C81.8084 29.5058 80.243 29.5317 79.0254 29.5317L79.0254 30.0317ZM84.6113 30.5161L84.1193 30.605L84.2158 31.1396L84.7406 30.9991L84.6113 30.5161ZM84.2051 28.2661L84.0944 27.7785L83.6281 27.8843L83.713 28.355L84.2051 28.2661ZM86.0645 27.8442L86.1751 28.3318L86.5645 28.2435L86.5645 27.8442L86.0645 27.8442ZM86.0645 22.7349L86.5645 22.7349L86.5645 22.2349L86.0645 22.2349L86.0645 22.7349ZM84.3613 22.7349L83.8613 22.7349L83.8613 23.2349L84.3613 23.2349L84.3613 22.7349ZM84.3613 20.5942L84.3613 20.0942L83.8613 20.0942L83.8613 20.5942L84.3613 20.5942ZM86.0645 20.5942L86.0645 21.0942L86.5645 21.0942L86.5645 20.5942L86.0645 20.5942ZM86.0645 16.938L86.0645 16.438L85.5645 16.438L85.5645 16.938L86.0645 16.938ZM88.1426 16.938L88.6426 16.938L88.6426 16.438L88.1426 16.438L88.1426 16.938ZM88.1426 20.5942L87.6426 20.5942L87.6426 21.0942L88.1426 21.0942L88.1426 20.5942ZM89.8457 20.5942L90.3457 20.5942L90.3457 20.0942L89.8457 20.0942L89.8457 20.5942ZM89.8457 22.7349L89.8457 23.2349L90.3457 23.2349L90.3457 22.7349L89.8457 22.7349ZM88.1426 22.7349L88.1426 22.2349L87.6426 22.2349L87.6426 22.7349L88.1426 22.7349ZM88.1426 27.3364L87.6426 27.3364L87.6426 27.9823L88.2678 27.8205L88.1426 27.3364ZM89.9238 26.8755L90.4237 26.8877L90.4398 26.2255L89.7986 26.3914L89.9238 26.8755ZM89.9238 29.0942L90.0531 29.5772L90.4276 29.477L90.4238 29.0893L89.9238 29.0942ZM88.6895 29.5786L88.6895 29.0786L88.1895 29.0786L88.1895 29.5786L88.6895 29.5786ZM90.6895 29.5786L90.6895 30.0786L91.1895 30.0786L91.1895 29.5786L90.6895 29.5786ZM90.6895 20.1567L90.6895 19.6567L90.1895 19.6567L90.1895 20.1567L90.6895 20.1567ZM92.752 20.1567L93.252 20.1567L93.252 19.6567L92.752 19.6567L92.752 20.1567ZM92.752 29.5786L92.252 29.5786L92.252 30.0786L92.752 30.0786L92.752 29.5786ZM94.127 29.5786L94.127 30.0786L94.627 30.0786L94.627 29.5786L94.127 29.5786ZM94.127 16.9692L94.127 16.4692L93.627 16.4692L93.627 16.9692L94.127 16.9692ZM96.2676 16.9692L96.7676 16.9692L96.7676 16.4692L96.2676 16.4692L96.2676 16.9692ZM96.2676 21.4692L95.7676 21.4692L95.7676 21.9692L96.2676 21.9692L96.2676 21.4692ZM99.3145 21.4692L99.8145 21.4692L99.8145 20.9692L99.3145 20.9692L99.3145 21.4692ZM99.3145 23.5474L99.3145 24.0474L99.8145 24.0474L99.8145 23.5474L99.3145 23.5474ZM96.2676 23.5474L96.2676 23.0474L95.7676 23.0474L95.7676 23.5474L96.2676 23.5474ZM96.2676 29.5786L95.7676 29.5786L95.7676 30.0786L96.2676 30.0786L96.2676 29.5786ZM99.7676 29.5786L100.268 29.5786L100.268 29.0786L99.7676 29.0786L99.7676 29.5786ZM99.7676 31.6567L99.7676 32.1567L100.268 32.1567L100.268 31.6567L99.7676 31.6567ZM88.6895 31.6567L88.1895 31.6567L88.1895 32.1567L88.6895 32.1567L88.6895 31.6567ZM84.6113 30.5161L85.1034 30.4273L84.6971 28.1773L84.2051 28.2661L83.713 28.355L84.1193 30.605L84.6113 30.5161ZM84.2051 28.2661L84.3157 28.7537L86.1751 28.3318L86.0645 27.8442L85.9538 27.3566L84.0944 27.7785L84.2051 28.2661ZM86.0645 27.8442L86.5645 27.8442L86.5645 22.7349L86.0645 22.7349L85.5645 22.7349L85.5645 27.8442L86.0645 27.8442ZM86.0645 22.7349L86.0645 22.2349L84.3613 22.2349L84.3613 22.7349L84.3613 23.2349L86.0645 23.2349L86.0645 22.7349ZM84.3613 22.7349L84.8613 22.7349L84.8613 20.5942L84.3613 20.5942L83.8613 20.5942L83.8613 22.7349L84.3613 22.7349ZM84.3613 20.5942L84.3613 21.0942L86.0645 21.0942L86.0645 20.5942L86.0645 20.0942L84.3613 20.0942L84.3613 20.5942ZM86.0645 20.5942L86.5645 20.5942L86.5645 16.938L86.0645 16.938L85.5645 16.938L85.5645 20.5942L86.0645 20.5942ZM86.0645 16.938L86.0645 17.438L88.1426 17.438L88.1426 16.938L88.1426 16.438L86.0645 16.438L86.0645 16.938ZM88.1426 16.938L87.6426 16.938L87.6426 20.5942L88.1426 20.5942L88.6426 20.5942L88.6426 16.938L88.1426 16.938ZM88.1426 20.5942L88.1426 21.0942L89.8457 21.0942L89.8457 20.5942L89.8457 20.0942L88.1426 20.0942L88.1426 20.5942ZM89.8457 20.5942L89.3457 20.5942L89.3457 22.7349L89.8457 22.7349L90.3457 22.7349L90.3457 20.5942L89.8457 20.5942ZM89.8457 22.7349L89.8457 22.2349L88.1426 22.2349L88.1426 22.7349L88.1426 23.2349L89.8457 23.2349L89.8457 22.7349ZM88.1426 22.7349L87.6426 22.7349L87.6426 27.3364L88.1426 27.3364L88.6426 27.3364L88.6426 22.7349L88.1426 22.7349ZM88.1426 27.3364L88.2678 27.8205L90.0491 27.3595L89.9238 26.8755L89.7986 26.3914L88.0173 26.8524L88.1426 27.3364ZM89.9238 26.8755L89.424 26.8633C89.4133 27.2999 89.4134 28.0472 89.4239 29.0992L89.9238 29.0942L90.4238 29.0893C90.4134 28.0371 90.4135 27.3052 90.4237 26.8877L89.9238 26.8755ZM89.9238 29.0942L89.7946 28.6112L84.4821 30.0331L84.6113 30.5161L84.7406 30.9991L90.0531 29.5772L89.9238 29.0942ZM88.6895 29.5786L88.6895 30.0786L90.6895 30.0786L90.6895 29.5786L90.6895 29.0786L88.6895 29.0786L88.6895 29.5786ZM90.6895 29.5786L91.1895 29.5786L91.1895 20.1567L90.6895 20.1567L90.1895 20.1567L90.1895 29.5786L90.6895 29.5786ZM90.6895 20.1567L90.6895 20.6567L92.752 20.6567L92.752 20.1567L92.752 19.6567L90.6895 19.6567L90.6895 20.1567ZM92.752 20.1567L92.252 20.1567L92.252 29.5786L92.752 29.5786L93.252 29.5786L93.252 20.1567L92.752 20.1567ZM92.752 29.5786L92.752 30.0786L94.127 30.0786L94.127 29.5786L94.127 29.0786L92.752 29.0786L92.752 29.5786ZM94.127 29.5786L94.627 29.5786L94.627 16.9692L94.127 16.9692L93.627 16.9692L93.627 29.5786L94.127 29.5786ZM94.127 16.9692L94.127 17.4692L96.2676 17.4692L96.2676 16.9692L96.2676 16.4692L94.127 16.4692L94.127 16.9692ZM96.2676 16.9692L95.7676 16.9692L95.7676 21.4692L96.2676 21.4692L96.7676 21.4692L96.7676 16.9692L96.2676 16.9692ZM96.2676 21.4692L96.2676 21.9692L99.3145 21.9692L99.3145 21.4692L99.3145 20.9692L96.2676 20.9692L96.2676 21.4692ZM99.3145 21.4692L98.8145 21.4692L98.8145 23.5474L99.3145 23.5474L99.8145 23.5474L99.8145 21.4692L99.3145 21.4692ZM99.3145 23.5474L99.3145 23.0474L96.2676 23.0474L96.2676 23.5474L96.2676 24.0474L99.3145 24.0474L99.3145 23.5474ZM96.2676 23.5474L95.7676 23.5474L95.7676 29.5786L96.2676 29.5786L96.7676 29.5786L96.7676 23.5474L96.2676 23.5474ZM96.2676 29.5786L96.2676 30.0786L99.7676 30.0786L99.7676 29.5786L99.7676 29.0786L96.2676 29.0786L96.2676 29.5786ZM99.7676 29.5786L99.2676 29.5786L99.2676 31.6567L99.7676 31.6567L100.268 31.6567L100.268 29.5786L99.7676 29.5786ZM99.7676 31.6567L99.7676 31.1567L88.6895 31.1567L88.6895 31.6567L88.6895 32.1567L99.7676 32.1567L99.7676 31.6567ZM88.6895 31.6567L89.1895 31.6567L89.1895 29.5786L88.6895 29.5786L88.1895 29.5786L88.1895 31.6567L88.6895 31.6567ZM104.439 24.4067L104.439 23.9067L103.939 23.9067L103.939 24.4067L104.439 24.4067ZM107.455 24.4067L107.455 24.9067L107.921 24.9067L107.954 24.4415L107.455 24.4067ZM107.619 21.4067L108.119 21.4279L108.141 20.9067L107.619 20.9067L107.619 21.4067ZM104.877 21.4067L104.377 21.4067L104.377 21.9067L104.877 21.9067L104.877 21.4067ZM104.877 19.3442L104.877 18.8442L104.377 18.8442L104.377 19.3442L104.877 19.3442ZM107.682 19.3442L107.682 19.8442L108.173 19.8442L108.182 19.3525L107.682 19.3442ZM107.721 16.9849L107.721 16.4849L107.229 16.4849L107.221 16.9766L107.721 16.9849ZM109.861 16.9849L110.361 16.9881L110.365 16.4849L109.861 16.4849L109.861 16.9849ZM109.822 19.3442L109.322 19.3307L109.309 19.8442L109.822 19.8442L109.822 19.3442ZM114.346 19.3442L114.846 19.3442L114.846 18.8442L114.346 18.8442L114.346 19.3442ZM114.346 24.4067L113.846 24.4067L113.846 24.9067L114.346 24.9067L114.346 24.4067ZM115.596 24.4067L116.096 24.4067L116.096 23.9067L115.596 23.9067L115.596 24.4067ZM115.596 26.4692L115.596 26.9692L116.096 26.9692L116.096 26.4692L115.596 26.4692ZM110.197 26.4692L110.197 25.9692L109.36 25.9692L109.757 26.7065L110.197 26.4692ZM115.408 30.2974L115.832 30.5629L116.196 29.9821L115.532 29.8128L115.408 30.2974ZM114.174 32.3911L114.015 32.8653L114.41 32.9975L114.612 32.6328L114.174 32.3911ZM108.682 27.5942L109.13 27.3722L108.615 26.3338L108.213 27.4207L108.682 27.5942ZM104.314 32.4692L103.886 32.7275L104.156 33.1747L104.591 32.8857L104.314 32.4692ZM102.893 30.4849L102.682 30.0312L102.094 30.3041L102.507 30.8038L102.893 30.4849ZM106.947 26.4692L107.411 26.6556L107.687 25.9692L106.947 25.9692L106.947 26.4692ZM104.439 26.4692L103.939 26.4692L103.939 26.9692L104.439 26.9692L104.439 26.4692ZM112.283 21.4067L112.783 21.4067L112.783 20.9067L112.283 20.9067L112.283 21.4067ZM109.752 21.4067L109.752 20.9067L109.272 20.9067L109.252 21.3863L109.752 21.4067ZM109.596 24.4067L109.097 24.3749L109.063 24.9067L109.596 24.9067L109.596 24.4067ZM112.283 24.4067L112.283 24.9067L112.783 24.9067L112.783 24.4067L112.283 24.4067ZM101.705 17.688L102.059 17.3344L101.727 17.0032L101.375 17.3122L101.705 17.688ZM104.439 20.6724L104.765 21.052L105.139 20.7311L104.824 20.3523L104.439 20.6724ZM102.689 22.1724L102.287 22.4688L102.606 22.9024L103.015 22.552L102.689 22.1724ZM100.174 19.0317L99.844 18.6559L99.4679 18.986L99.7983 19.3619L100.174 19.0317ZM102.33 23.8286L102.568 23.3887L102.022 23.0941L101.85 23.6896L102.33 23.8286ZM104.221 24.7661L104.696 24.9209L104.833 24.4995L104.431 24.3127L104.221 24.7661ZM102.018 31.5317L101.757 31.9584L102.297 32.2885L102.493 31.6866L102.018 31.5317ZM100.174 30.4536L99.705 30.28L99.5567 30.6802L99.9287 30.8894L100.174 30.4536ZM104.439 24.4067L104.439 24.9067L107.455 24.9067L107.455 24.4067L107.455 23.9067L104.439 23.9067L104.439 24.4067ZM107.455 24.4067L107.954 24.4415C108.017 23.5403 108.072 22.5357 108.119 21.4279L107.619 21.4067L107.12 21.3855C107.073 22.4862 107.018 23.4815 106.956 24.3719L107.455 24.4067ZM107.619 21.4067L107.619 20.9067L104.877 20.9067L104.877 21.4067L104.877 21.9067L107.619 21.9067L107.619 21.4067ZM104.877 21.4067L105.377 21.4067L105.377 19.3442L104.877 19.3442L104.377 19.3442L104.377 21.4067L104.877 21.4067ZM104.877 19.3442L104.877 19.8442L107.682 19.8442L107.682 19.3442L107.682 18.8442L104.877 18.8442L104.877 19.3442ZM107.682 19.3442L108.182 19.3525L108.221 16.9931L107.721 16.9849L107.221 16.9766L107.182 19.336L107.682 19.3442ZM107.721 16.9849L107.721 17.4849L109.861 17.4849L109.861 16.9849L109.861 16.4849L107.721 16.4849L107.721 16.9849ZM109.861 16.9849L109.361 16.9816C109.356 17.7804 109.343 18.5634 109.322 19.3307L109.822 19.3442L110.322 19.3577C110.343 18.5834 110.356 17.7935 110.361 16.9881L109.861 16.9849ZM109.822 19.3442L109.822 19.8442L114.346 19.8442L114.346 19.3442L114.346 18.8442L109.822 18.8442L109.822 19.3442ZM114.346 19.3442L113.846 19.3442L113.846 24.4067L114.346 24.4067L114.846 24.4067L114.846 19.3442L114.346 19.3442ZM114.346 24.4067L114.346 24.9067L115.596 24.9067L115.596 24.4067L115.596 23.9067L114.346 23.9067L114.346 24.4067ZM115.596 24.4067L115.096 24.4067L115.096 26.4692L115.596 26.4692L116.096 26.4692L116.096 24.4067L115.596 24.4067ZM115.596 26.4692L115.596 25.9692L110.197 25.9692L110.197 26.4692L110.197 26.9692L115.596 26.9692L115.596 26.4692ZM110.197 26.4692L109.757 26.7065C110.875 28.78 112.738 30.133 115.285 30.7819L115.408 30.2974L115.532 29.8128C113.213 29.2221 111.603 28.023 110.637 26.232L110.197 26.4692ZM115.408 30.2974L114.985 30.0318C114.542 30.7373 114.126 31.4431 113.736 32.1494L114.174 32.3911L114.612 32.6328C114.992 31.9432 115.399 31.2533 115.832 30.5629L115.408 30.2974ZM114.174 32.3911L114.333 31.917C111.97 31.1261 110.243 29.6183 109.13 27.3722L108.682 27.5942L108.234 27.8163C109.464 30.2993 111.399 31.9895 114.015 32.8653L114.174 32.3911ZM108.682 27.5942L108.213 27.4207C107.617 29.0298 106.254 30.5802 104.038 32.0528L104.314 32.4692L104.591 32.8857C106.906 31.3478 108.455 29.6482 109.151 27.7678L108.682 27.5942ZM104.314 32.4692L104.743 32.211C104.332 31.531 103.844 30.8493 103.278 30.166L102.893 30.4849L102.507 30.8038C103.046 31.4537 103.505 32.095 103.886 32.7275L104.314 32.4692ZM102.893 30.4849L103.103 30.9385C105.198 29.9675 106.653 28.5435 107.411 26.6556L106.947 26.4692L106.483 26.2828C105.836 27.895 104.588 29.148 102.682 30.0312L102.893 30.4849ZM106.947 26.4692L106.947 25.9692L104.439 25.9692L104.439 26.4692L104.439 26.9692L106.947 26.9692L106.947 26.4692ZM104.439 26.4692L104.939 26.4692L104.939 24.4067L104.439 24.4067L103.939 24.4067L103.939 26.4692L104.439 26.4692ZM112.283 21.4067L112.283 20.9067L109.752 20.9067L109.752 21.4067L109.752 21.9067L112.283 21.9067L112.283 21.4067ZM109.752 21.4067L109.252 21.3863C109.211 22.4035 109.159 23.3997 109.097 24.3749L109.596 24.4067L110.095 24.4386C110.157 23.4555 110.21 22.4516 110.252 21.4271L109.752 21.4067ZM109.596 24.4067L109.596 24.9067L112.283 24.9067L112.283 24.4067L112.283 23.9067L109.596 23.9067L109.596 24.4067ZM112.283 24.4067L112.783 24.4067L112.783 21.4067L112.283 21.4067L111.783 21.4067L111.783 24.4067L112.283 24.4067ZM101.705 17.688L101.352 18.0415C102.331 19.0212 103.232 20.0049 104.055 20.9925L104.439 20.6724L104.824 20.3523C103.98 19.3398 103.058 18.3339 102.059 17.3344L101.705 17.688ZM104.439 20.6724L104.114 20.2927L102.364 21.7927L102.689 22.1724L103.015 22.552L104.765 21.052L104.439 20.6724ZM102.689 22.1724L103.092 21.8759C102.241 20.7199 101.393 19.6616 100.549 18.7016L100.174 19.0317L99.7983 19.3619C100.621 20.2977 101.451 21.3332 102.287 22.4688L102.689 22.1724ZM100.174 19.0317L100.504 19.4076L102.035 18.0638L101.705 17.688L101.375 17.3122L99.844 18.6559L100.174 19.0317ZM102.33 23.8286L102.093 24.2686C102.625 24.556 103.264 24.873 104.01 25.2195L104.221 24.7661L104.431 24.3127C103.698 23.9717 103.077 23.6638 102.568 23.3887L102.33 23.8286ZM104.221 24.7661L103.745 24.6113L101.542 31.3769L102.018 31.5317L102.493 31.6866L104.696 24.9209L104.221 24.7661ZM102.018 31.5317L102.278 31.1051C101.71 30.7578 101.09 30.3953 100.419 30.0178L100.174 30.4536L99.9287 30.8894C100.591 31.2619 101.2 31.6182 101.757 31.9584L102.018 31.5317ZM100.174 30.4536L100.643 30.6273C101.377 28.645 102.099 26.4248 102.81 23.9676L102.33 23.8286L101.85 23.6896C101.144 26.1282 100.429 28.3247 99.705 30.28L100.174 30.4536ZM131.564 19.5474L131.564 20.0474L132.064 20.0474L132.064 19.5474L131.564 19.5474ZM129.205 19.5474L129.205 19.0474L128.392 19.0474L128.759 19.773L129.205 19.5474ZM129.814 20.8755L129.913 21.3656L130.507 21.246L130.277 20.686L129.814 20.8755ZM127.799 21.2817L127.321 21.4302L127.455 21.861L127.898 21.7719L127.799 21.2817ZM127.127 19.5474L127.578 19.3326L127.443 19.0474L127.127 19.0474L127.127 19.5474ZM126.189 19.5474L126.189 19.0474L125.919 19.0474L125.771 19.2741L126.189 19.5474ZM125.096 21.0161L124.872 21.4633L125.225 21.6399L125.479 21.3374L125.096 21.0161ZM125.033 20.9849L125.257 20.5376L124.533 20.1758L124.533 20.9849L125.033 20.9849ZM125.033 21.6255L124.533 21.6255L124.533 22.1255L125.033 22.1255L125.033 21.6255ZM131.502 21.6255L132.002 21.6255L132.002 21.1255L131.502 21.1255L131.502 21.6255ZM131.502 23.2505L131.502 23.7505L132.002 23.7505L132.002 23.2505L131.502 23.2505ZM125.033 23.2505L125.033 22.7505L124.533 22.7505L124.533 23.2505L125.033 23.2505ZM125.033 24.2505L124.533 24.2505L124.533 24.7505L125.033 24.7505L125.033 24.2505ZM130.783 24.2505L131.283 24.2505L131.283 23.7505L130.783 23.7505L130.783 24.2505ZM130.314 28.0552L129.93 27.7351L129.93 27.7356L130.314 28.0552ZM127.799 28.6099L127.799 28.1099L127.565 29.0519L127.799 28.6099ZM131.783 29.8911L132.207 30.1561L132.609 29.5135L131.86 29.397L131.783 29.8911ZM130.689 31.8911L130.543 32.3693L130.952 32.4943L131.139 32.1097L130.689 31.8911ZM125.033 28.6099L125.391 28.2608L124.533 27.3811L124.533 28.6099L125.033 28.6099ZM125.033 32.3911L125.033 32.8911L125.533 32.8911L125.533 32.3911L125.033 32.3911ZM122.971 32.3911L122.471 32.3911L122.471 32.8911L122.971 32.8911L122.971 32.3911ZM122.971 28.5552L123.471 28.5552L123.471 27.3655L122.621 28.198L122.971 28.5552ZM117.314 32.0005L116.866 32.2209L117.062 32.6215L117.483 32.4713L117.314 32.0005ZM116.236 30.0786L116.104 29.5964L115.458 29.7734L115.812 30.3425L116.236 30.0786ZM122.971 26.4849L123.316 26.8466L123.471 26.6988L123.471 26.4849L122.971 26.4849ZM122.971 25.8442L123.471 25.8442L123.471 25.3442L122.971 25.3442L122.971 25.8442ZM119.611 25.8442L119.611 25.3442L119.111 25.3442L119.111 25.8442L119.611 25.8442ZM119.611 28.6411L119.611 29.1411L120.111 29.1411L120.111 28.6411L119.611 28.6411ZM117.58 28.6411L117.08 28.6411L117.08 29.1411L117.58 29.1411L117.58 28.6411ZM117.58 24.2505L117.58 23.7505L117.08 23.7505L117.08 24.2505L117.58 24.2505ZM122.971 24.2505L122.971 24.7505L123.471 24.7505L123.471 24.2505L122.971 24.2505ZM122.971 23.2505L123.471 23.2505L123.471 22.7505L122.971 22.7505L122.971 23.2505ZM116.564 23.2505L116.064 23.2505L116.064 23.7505L116.564 23.7505L116.564 23.2505ZM116.564 21.6255L116.564 21.1255L116.064 21.1255L116.064 21.6255L116.564 21.6255ZM122.971 21.6255L122.971 22.1255L123.471 22.1255L123.471 21.6255L122.971 21.6255ZM122.971 20.9224L122.971 20.4224L122.471 20.4224L122.471 20.9224L122.971 20.9224ZM124.916 20.9224L124.916 21.4224L125.145 20.4779L124.916 20.9224ZM123.268 20.1255L122.92 19.7658L122.392 20.2757L123.06 20.5804L123.268 20.1255ZM125.502 16.8911L125.502 16.3911L125.18 16.3911L125.047 16.6839L125.502 16.8911ZM127.549 16.8911L128.017 17.066L128.269 16.3911L127.549 16.3911L127.549 16.8911ZM127.049 18.0474L126.6 17.8262L126.245 18.5474L127.049 18.5474L127.049 18.0474ZM131.564 18.0474L132.064 18.0474L132.064 17.5474L131.564 17.5474L131.564 18.0474ZM126.689 26.8755L126.77 26.382L125.999 26.2561L126.208 27.009L126.689 26.8755ZM128.752 25.8442L129.252 25.8442L129.252 25.3442L128.752 25.3442L128.752 25.8442ZM125.033 25.8442L125.033 25.3442L124.533 25.3442L124.533 25.8442L125.033 25.8442ZM125.033 26.5317L124.533 26.5317L124.533 26.735L124.675 26.8806L125.033 26.5317ZM126.955 28.1177L126.681 28.5361L127.609 29.1427L127.45 28.0461L126.955 28.1177ZM123.783 19.5474L123.783 20.0474L124.283 20.0474L124.283 19.5474L123.783 19.5474ZM121.564 19.5474L121.564 19.0474L120.755 19.0474L121.117 19.771L121.564 19.5474ZM122.236 21.0005L122.335 21.4906L122.939 21.3689L122.696 20.803L122.236 21.0005ZM120.221 21.4067L119.744 21.559L119.881 21.9853L120.319 21.8969L120.221 21.4067ZM119.541 19.5474L120.003 19.3562L119.875 19.0474L119.541 19.0474L119.541 19.5474ZM119.221 19.5474L119.221 19.0474L118.99 19.0474L118.84 19.2232L119.221 19.5474ZM117.08 21.5474L116.606 21.7055L116.822 22.3546L117.375 21.9513L117.08 21.5474ZM116.189 19.688L115.917 19.2688L115.516 19.5294L115.758 19.9415L116.189 19.688ZM118.799 16.9067L118.799 16.4067L118.514 16.4067L118.369 16.6517L118.799 16.9067ZM121.018 16.9067L121.457 17.1462L121.86 16.4067L121.018 16.4067L121.018 16.9067ZM120.338 18.0474L119.919 17.7742L119.415 18.5474L120.338 18.5474L120.338 18.0474ZM123.783 18.0474L124.283 18.0474L124.283 17.5474L123.783 17.5474L123.783 18.0474ZM131.564 19.5474L131.564 19.0474L129.205 19.0474L129.205 19.5474L129.205 20.0474L131.564 20.0474L131.564 19.5474ZM129.205 19.5474L128.759 19.773C128.983 20.2153 129.18 20.646 129.352 21.065L129.814 20.8755L130.277 20.686C130.095 20.2404 129.886 19.7856 129.651 19.3217L129.205 19.5474ZM129.814 20.8755L129.716 20.3853L127.7 20.7916L127.799 21.2817L127.898 21.7719L129.913 21.3656L129.814 20.8755ZM127.799 21.2817L128.276 21.1333C128.077 20.4929 127.845 19.8924 127.578 19.3326L127.127 19.5474L126.675 19.7622C126.92 20.2753 127.135 20.831 127.321 21.4302L127.799 21.2817ZM127.127 19.5474L127.127 19.0474L126.189 19.0474L126.189 19.5474L126.189 20.0474L127.127 20.0474L127.127 19.5474ZM126.189 19.5474L125.771 19.2741C125.459 19.7511 125.107 20.2247 124.713 20.6948L125.096 21.0161L125.479 21.3374C125.897 20.8388 126.274 20.3332 126.608 19.8206L126.189 19.5474ZM125.096 21.0161L125.319 20.5689L125.257 20.5376L125.033 20.9849L124.81 21.4321L124.872 21.4633L125.096 21.0161ZM125.033 20.9849L124.533 20.9849L124.533 21.6255L125.033 21.6255L125.533 21.6255L125.533 20.9849L125.033 20.9849ZM125.033 21.6255L125.033 22.1255L131.502 22.1255L131.502 21.6255L131.502 21.1255L125.033 21.1255L125.033 21.6255ZM131.502 21.6255L131.002 21.6255L131.002 23.2505L131.502 23.2505L132.002 23.2505L132.002 21.6255L131.502 21.6255ZM131.502 23.2505L131.502 22.7505L125.033 22.7505L125.033 23.2505L125.033 23.7505L131.502 23.7505L131.502 23.2505ZM125.033 23.2505L124.533 23.2505L124.533 24.2505L125.033 24.2505L125.533 24.2505L125.533 23.2505L125.033 23.2505ZM125.033 24.2505L125.033 24.7505L130.783 24.7505L130.783 24.2505L130.783 23.7505L125.033 23.7505L125.033 24.2505ZM130.783 24.2505L130.283 24.2505L130.283 26.7349L130.783 26.7349L131.283 26.7349L131.283 24.2505L130.783 24.2505ZM130.783 26.7349L130.283 26.7349C130.283 27.1276 130.165 27.4533 129.93 27.7351L130.314 28.0552L130.699 28.3753C131.089 27.9071 131.283 27.3526 131.283 26.7349L130.783 26.7349ZM130.314 28.0552L129.93 27.7356C129.884 27.7903 129.734 27.8977 129.347 27.9829C128.978 28.0644 128.466 28.1099 127.799 28.1099L127.799 28.6099L127.799 29.1099C128.501 29.1099 129.094 29.0629 129.563 28.9595C130.015 28.8598 130.437 28.6899 130.699 28.3747L130.314 28.0552ZM127.799 28.6099L127.565 29.0519C128.802 29.7056 130.184 30.1485 131.706 30.3852L131.783 29.8911L131.86 29.397C130.435 29.1754 129.16 28.7641 128.033 28.1678L127.799 28.6099ZM131.783 29.8911L131.359 29.6261C130.984 30.2272 130.611 30.9098 130.24 31.6725L130.689 31.8911L131.139 32.1097C131.498 31.3724 131.854 30.7217 132.207 30.1561L131.783 29.8911ZM130.689 31.8911L130.836 31.413C128.568 30.7194 126.76 29.6644 125.391 28.2608L125.033 28.6099L124.675 28.959C126.181 30.5033 128.144 31.6357 130.543 32.3693L130.689 31.8911ZM125.033 28.6099L124.533 28.6099L124.533 32.3911L125.033 32.3911L125.533 32.3911L125.533 28.6099L125.033 28.6099ZM125.033 32.3911L125.033 31.8911L122.971 31.8911L122.971 32.3911L122.971 32.8911L125.033 32.8911L125.033 32.3911ZM122.971 32.3911L123.471 32.3911L123.471 28.5552L122.971 28.5552L122.471 28.5552L122.471 32.3911L122.971 32.3911ZM122.971 28.5552L122.621 28.198C121.152 29.6366 119.331 30.749 117.146 31.5296L117.314 32.0005L117.483 32.4713C119.788 31.6478 121.737 30.4633 123.321 28.9124L122.971 28.5552ZM117.314 32.0005L117.763 31.78C117.463 31.1686 117.095 30.5134 116.661 29.8148L116.236 30.0786L115.812 30.3425C116.232 31.0189 116.583 31.6449 116.866 32.2209L117.314 32.0005ZM116.236 30.0786L116.368 30.5608C119.207 29.7832 121.531 28.5503 123.316 26.8466L122.971 26.4849L122.625 26.1232C120.984 27.6903 118.817 28.8532 116.104 29.5964L116.236 30.0786ZM122.971 26.4849L123.471 26.4849L123.471 25.8442L122.971 25.8442L122.471 25.8442L122.471 26.4849L122.971 26.4849ZM122.971 25.8442L122.971 25.3442L119.611 25.3442L119.611 25.8442L119.611 26.3442L122.971 26.3442L122.971 25.8442ZM119.611 25.8442L119.111 25.8442L119.111 28.6411L119.611 28.6411L120.111 28.6411L120.111 25.8442L119.611 25.8442ZM119.611 28.6411L119.611 28.1411L117.58 28.1411L117.58 28.6411L117.58 29.1411L119.611 29.1411L119.611 28.6411ZM117.58 28.6411L118.08 28.6411L118.08 24.2505L117.58 24.2505L117.08 24.2505L117.08 28.6411L117.58 28.6411ZM117.58 24.2505L117.58 24.7505L122.971 24.7505L122.971 24.2505L122.971 23.7505L117.58 23.7505L117.58 24.2505ZM122.971 24.2505L123.471 24.2505L123.471 23.2505L122.971 23.2505L122.471 23.2505L122.471 24.2505L122.971 24.2505ZM122.971 23.2505L122.971 22.7505L116.564 22.7505L116.564 23.2505L116.564 23.7505L122.971 23.7505L122.971 23.2505ZM116.564 23.2505L117.064 23.2505L117.064 21.6255L116.564 21.6255L116.064 21.6255L116.064 23.2505L116.564 23.2505ZM116.564 21.6255L116.564 22.1255L122.971 22.1255L122.971 21.6255L122.971 21.1255L116.564 21.1255L116.564 21.6255ZM122.971 21.6255L123.471 21.6255L123.471 20.9224L122.971 20.9224L122.471 20.9224L122.471 21.6255L122.971 21.6255ZM122.971 20.9224L122.971 21.4224L124.916 21.4224L124.916 20.9224L124.916 20.4224L122.971 20.4224L122.971 20.9224ZM124.916 20.9224L125.145 20.4779C124.632 20.2134 124.075 19.9443 123.475 19.6706L123.268 20.1255L123.06 20.5804C123.648 20.8484 124.19 21.1105 124.687 21.3668L124.916 20.9224ZM123.268 20.1255L123.615 20.4852C124.571 19.5617 125.351 18.43 125.957 17.0983L125.502 16.8911L125.047 16.6839C124.487 17.9147 123.776 18.9392 122.92 19.7658L123.268 20.1255ZM125.502 16.8911L125.502 17.3911L127.549 17.3911L127.549 16.8911L127.549 16.3911L125.502 16.3911L125.502 16.8911ZM127.549 16.8911L127.08 16.7162C126.941 17.0909 126.781 17.4608 126.6 17.8262L127.049 18.0474L127.497 18.2685C127.692 17.8735 127.865 17.4726 128.017 17.066L127.549 16.8911ZM127.049 18.0474L127.049 18.5474L131.564 18.5474L131.564 18.0474L131.564 17.5474L127.049 17.5474L127.049 18.0474ZM131.564 18.0474L131.064 18.0474L131.064 19.5474L131.564 19.5474L132.064 19.5474L132.064 18.0474L131.564 18.0474ZM126.689 26.8755L126.609 27.369C127.143 27.4561 127.654 27.5005 128.143 27.5005L128.143 27.0005L128.143 26.5005C127.714 26.5005 127.257 26.4616 126.77 26.382L126.689 26.8755ZM128.143 27.0005L128.143 27.5005C128.41 27.5005 128.704 27.4416 128.934 27.2359C129.173 27.0209 129.252 26.7278 129.252 26.4536L128.752 26.4536L128.252 26.4536C128.252 26.4996 128.245 26.5181 128.245 26.5188C128.245 26.5188 128.245 26.5179 128.246 26.5161C128.247 26.5143 128.249 26.5118 128.251 26.509C128.255 26.5029 128.26 26.4969 128.266 26.4916C128.278 26.4805 128.283 26.4822 128.266 26.4873C128.247 26.4929 128.208 26.5005 128.143 26.5005L128.143 27.0005ZM128.752 26.4536L129.252 26.4536L129.252 25.8442L128.752 25.8442L128.252 25.8442L128.252 26.4536L128.752 26.4536ZM128.752 25.8442L128.752 25.3442L125.033 25.3442L125.033 25.8442L125.033 26.3442L128.752 26.3442L128.752 25.8442ZM125.033 25.8442L124.533 25.8442L124.533 26.5317L125.033 26.5317L125.533 26.5317L125.533 25.8442L125.033 25.8442ZM125.033 26.5317L124.675 26.8806C125.289 27.5105 125.957 28.0626 126.681 28.5361L126.955 28.1177L127.229 27.6992C126.567 27.2665 125.955 26.7613 125.391 26.1828L125.033 26.5317ZM126.955 28.1177L127.45 28.0461C127.389 27.627 127.296 27.1922 127.171 26.742L126.689 26.8755L126.208 27.009C126.322 27.4234 126.406 27.8167 126.46 28.1893L126.955 28.1177ZM123.783 19.5474L123.783 19.0474L121.564 19.0474L121.564 19.5474L121.564 20.0474L123.783 20.0474L123.783 19.5474ZM121.564 19.5474L121.117 19.771C121.336 20.2093 121.556 20.6849 121.777 21.198L122.236 21.0005L122.696 20.803C122.468 20.2745 122.24 19.7813 122.012 19.3238L121.564 19.5474ZM122.236 21.0005L122.138 20.5103L120.122 20.9166L120.221 21.4067L120.319 21.8969L122.335 21.4906L122.236 21.0005ZM120.221 21.4067L120.697 21.2545C120.49 20.6062 120.258 19.9734 120.003 19.3562L119.541 19.5474L119.079 19.7385C119.324 20.3297 119.545 20.9365 119.744 21.559L120.221 21.4067ZM119.541 19.5474L119.541 19.0474L119.221 19.0474L119.221 19.5474L119.221 20.0474L119.541 20.0474L119.541 19.5474ZM119.221 19.5474L118.84 19.2232C118.208 19.966 117.523 20.6055 116.785 21.1435L117.08 21.5474L117.375 21.9513C118.179 21.3643 118.921 20.6704 119.601 19.8715L119.221 19.5474ZM117.08 21.5474L117.554 21.3892C117.362 20.8133 117.047 20.1604 116.62 19.4345L116.189 19.688L115.758 19.9415C116.165 20.6323 116.444 21.2189 116.606 21.7055L117.08 21.5474ZM116.189 19.688L116.462 20.1072C117.574 19.3841 118.496 18.3981 119.229 17.1617L118.799 16.9067L118.369 16.6517C117.706 17.7695 116.888 18.6377 115.917 19.2688L116.189 19.688ZM118.799 16.9067L118.799 17.4067L121.018 17.4067L121.018 16.9067L121.018 16.4067L118.799 16.4067L118.799 16.9067ZM121.018 16.9067L120.579 16.6673C120.366 17.0576 120.146 17.4265 119.919 17.7742L120.338 18.0474L120.757 18.3205C120.999 17.9495 121.232 17.558 121.457 17.1462L121.018 16.9067ZM120.338 18.0474L120.338 18.5474L123.783 18.5474L123.783 18.0474L123.783 17.5474L120.338 17.5474L120.338 18.0474ZM123.783 18.0474L123.283 18.0474L123.283 19.5474L123.783 19.5474L124.283 19.5474L124.283 18.0474L123.783 18.0474Z" fill="url(#paint14_linear_2204_5028)" mask="url(#path-11-outside-1_2204_5028)"/>
</g>
<g id="1" filter="url(#filter4_d_2204_5028)">
<path d="M49.6294 19.21L49.6294 29.2583L47.5664 29.2583L47.5664 21.5205C47.3125 21.7406 46.9655 21.9395 46.5254 22.1172C46.0853 22.2907 45.6812 22.3986 45.313 22.4409L45.313 20.6826C46.4725 20.3441 47.4754 19.8532 48.3218 19.21L49.6294 19.21Z" fill="white"/>
</g>
</g>
<defs>
<filter id="filter0_f_2204_5028" x="0.292969" y="0.0673828" width="170.988" height="15.3003" filterUnits="userSpaceOnUse" color-interpolation-filters="sRGB">
<feFlood flood-opacity="0" result="BackgroundImageFix"/>
<feBlend mode="normal" in="SourceGraphic" in2="BackgroundImageFix" result="shape"/>
<feGaussianBlur stdDeviation="3" result="effect1_foregroundBlur_2204_5028"/>
</filter>
<filter id="filter1_f_2204_5028" x="0.292969" y="33.0674" width="170.988" height="15.3003" filterUnits="userSpaceOnUse" color-interpolation-filters="sRGB">
<feFlood flood-opacity="0" result="BackgroundImageFix"/>
<feBlend mode="normal" in="SourceGraphic" in2="BackgroundImageFix" result="shape"/>
<feGaussianBlur stdDeviation="3" result="effect1_foregroundBlur_2204_5028"/>
</filter>
<filter id="filter2_f_2204_5028" x="4.29297" y="39.0674" width="162.988" height="5" filterUnits="userSpaceOnUse" color-interpolation-filters="sRGB">
<feFlood flood-opacity="0" result="BackgroundImageFix"/>
<feBlend mode="normal" in="SourceGraphic" in2="BackgroundImageFix" result="shape"/>
<feGaussianBlur stdDeviation="1" result="effect1_foregroundBlur_2204_5028"/>
</filter>
<filter id="filter3_f_2204_5028" x="4.29297" y="4.06738" width="162.988" height="5" filterUnits="userSpaceOnUse" color-interpolation-filters="sRGB">
<feFlood flood-opacity="0" result="BackgroundImageFix"/>
<feBlend mode="normal" in="SourceGraphic" in2="BackgroundImageFix" result="shape"/>
<feGaussianBlur stdDeviation="1" result="effect1_foregroundBlur_2204_5028"/>
</filter>
<filter id="filter4_d_2204_5028" x="44.3125" y="19.21" width="6.31641" height="12.0483" filterUnits="userSpaceOnUse" color-interpolation-filters="sRGB">
<feFlood flood-opacity="0" result="BackgroundImageFix"/>
<feColorMatrix in="SourceAlpha" type="matrix" values="0 0 0 0 0 0 0 0 0 0 0 0 0 0 0 0 0 0 127 0" result="hardAlpha"/>
<feOffset dy="1"/>
<feGaussianBlur stdDeviation="0.5"/>
<feComposite in2="hardAlpha" operator="out"/>
<feColorMatrix type="matrix" values="0 0 0 0 1 0 0 0 0 0.517552 0 0 0 0 0.00183164 0 0 0 1 0"/>
<feBlend mode="normal" in2="BackgroundImageFix" result="effect1_dropShadow_2204_5028"/>
<feBlend mode="normal" in="SourceGraphic" in2="effect1_dropShadow_2204_5028" result="shape"/>
</filter>
<linearGradient id="paint0_linear_2204_5028" x1="6.29297" y1="24.0583" x2="165.281" y2="24.0583" gradientUnits="userSpaceOnUse">
<stop stop-color="#4F91FD"/>
<stop offset="0.525723" stop-color="#A2C9FF" stop-opacity="0.6"/>
<stop offset="1" stop-color="#488CFD"/>
</linearGradient>
<linearGradient id="paint1_linear_2204_5028" x1="6.29297" y1="24.0583" x2="165.281" y2="24.0583" gradientUnits="userSpaceOnUse">
<stop stop-color="#FFDB7E" stop-opacity="0.1"/>
<stop offset="0.525723" stop-color="#FFF677"/>
<stop offset="1" stop-color="#FFDB7E"/>
</linearGradient>
<linearGradient id="paint2_linear_2204_5028" x1="6.29297" y1="24.0583" x2="165.281" y2="24.0583" gradientUnits="userSpaceOnUse">
<stop stop-color="#FFC438"/>
<stop offset="1" stop-color="#FFB11F"/>
</linearGradient>
<linearGradient id="paint3_linear_2204_5028" x1="6.29297" y1="24.0583" x2="165.281" y2="24.0583" gradientUnits="userSpaceOnUse">
<stop stop-color="#FFC52D" stop-opacity="0.9"/>
<stop offset="0.525723" stop-color="#FFF677"/>
<stop offset="1" stop-color="#FFC52D" stop-opacity="0.9"/>
</linearGradient>
<linearGradient id="paint4_linear_2204_5028" x1="6.29297" y1="24.0583" x2="165.281" y2="24.0583" gradientUnits="userSpaceOnUse">
<stop stop-color="#FFB900"/>
<stop offset="1" stop-color="#FFAB0F"/>
</linearGradient>
<linearGradient id="paint5_linear_2204_5028" x1="6.29297" y1="7.71753" x2="165.281" y2="7.71753" gradientUnits="userSpaceOnUse">
<stop stop-color="white" stop-opacity="0.6"/>
<stop offset="0.525723" stop-color="#A2FFFD" stop-opacity="0.6"/>
<stop offset="1" stop-color="white" stop-opacity="0.6"/>
</linearGradient>
<linearGradient id="paint6_linear_2204_5028" x1="6.29297" y1="40.7175" x2="165.281" y2="40.7175" gradientUnits="userSpaceOnUse">
<stop stop-color="white" stop-opacity="0.6"/>
<stop offset="0.525723" stop-color="#A2FFFD" stop-opacity="0.6"/>
<stop offset="1" stop-color="white" stop-opacity="0.6"/>
</linearGradient>
<linearGradient id="paint7_linear_2204_5028" x1="6.29297" y1="41.5674" x2="165.281" y2="41.5674" gradientUnits="userSpaceOnUse">
<stop stop-color="white" stop-opacity="0.9"/>
<stop offset="0.525723" stop-color="#EBFFFF"/>
<stop offset="1" stop-color="white" stop-opacity="0.9"/>
</linearGradient>
<linearGradient id="paint8_linear_2204_5028" x1="6.29297" y1="6.56738" x2="165.281" y2="6.56738" gradientUnits="userSpaceOnUse">
<stop stop-color="white" stop-opacity="0.9"/>
<stop offset="0.525723" stop-color="#EBFFFF"/>
<stop offset="1" stop-color="white" stop-opacity="0.9"/>
</linearGradient>
<linearGradient id="paint9_linear_2204_5028" x1="146.061" y1="24.0422" x2="-12.9272" y2="24.0422" gradientUnits="userSpaceOnUse">
<stop stop-color="#FF8C00"/>
<stop offset="1" stop-color="#FFB700"/>
</linearGradient>
<linearGradient id="paint10_linear_2204_5028" x1="146.061" y1="24.0422" x2="-12.9272" y2="24.0422" gradientUnits="userSpaceOnUse">
<stop stop-color="#FFB11F"/>
<stop offset="1" stop-color="#FFD979"/>
</linearGradient>
<linearGradient id="paint11_linear_2204_5028" x1="54.9782" y1="24.2578" x2="36.9782" y2="24.2578" gradientUnits="userSpaceOnUse">
<stop stop-color="#FFA806"/>
<stop offset="1" stop-color="#FFE284"/>
</linearGradient>
<linearGradient id="paint12_linear_2204_5028" x1="48.1211" y1="37.143" x2="48.1211" y2="15.2578" gradientUnits="userSpaceOnUse">
<stop stop-color="#FFEAC4"/>
<stop offset="1" stop-color="#FFF5D4"/>
</linearGradient>
<linearGradient id="paint13_linear_2204_5028" x1="100.002" y1="17.2583" x2="100.002" y2="30.2583" gradientUnits="userSpaceOnUse">
<stop stop-color="#FFA908"/>
<stop offset="1" stop-color="#FF8C00"/>
</linearGradient>
<linearGradient id="paint14_linear_2204_5028" x1="100.002" y1="30.2583" x2="100.002" y2="17.2583" gradientUnits="userSpaceOnUse">
<stop stop-color="#FFCE78"/>
<stop offset="1" stop-color="#FFF5D4"/>
</linearGradient>
</defs>
</svg>
