<svg width="172" height="49" viewBox="0 0 172 49" fill="none" xmlns="http://www.w3.org/2000/svg">
<g id="2&#232;&#167;&#132;&#229;&#136;&#146;&#229;&#184;&#131;&#229;&#177;&#128;--&#233;&#187;&#152;&#232;&#174;&#164;">
<g id="Group 1321315616">
<mask id="mask0_2204_5820" style="mask-type:alpha" maskUnits="userSpaceOnUse" x="6" y="6" width="160" height="36">
<rect id="Rectangle 34628613" x="6.29297" y="6.01611" width="158.988" height="35.9819" fill="url(#paint0_linear_2204_5820)"/>
</mask>
<g mask="url(#mask0_2204_5820)">
<rect id="Rectangle 34628616" x="6.29297" y="6.01611" width="158.988" height="35.9819" fill="url(#paint1_linear_2204_5820)"/>
</g>
</g>
<g id="Rectangle 34628615" filter="url(#filter0_f_2204_5820)">
<rect x="6.29297" y="6.01611" width="158.988" height="3.30029" fill="url(#paint2_linear_2204_5820)"/>
</g>
<g id="Rectangle 34628616_2" filter="url(#filter1_f_2204_5820)">
<rect x="6.29297" y="39.0161" width="158.988" height="3.30029" fill="url(#paint3_linear_2204_5820)"/>
</g>
<g id="Rectangle 34628617" filter="url(#filter2_f_2204_5820)">
<rect x="6.29297" y="41.0161" width="158.988" height="1" fill="url(#paint4_linear_2204_5820)"/>
</g>
<g id="Rectangle 34628618" filter="url(#filter3_f_2204_5820)">
<rect x="6.29297" y="6.01611" width="158.988" height="1" fill="url(#paint5_linear_2204_5820)"/>
</g>
<rect id="Rectangle 34628621" x="6.29297" y="6.01611" width="158.988" height="35.9819" stroke="url(#paint6_linear_2204_5820)"/>
<path id="Rectangle 34628619" d="M6 10.9955L6 6L11.9368 6M6 36.9865L6 41.9819L11.9368 41.9819M164.988 10.9955L164.988 6L159.052 6M164.988 36.9865L164.988 41.9819L159.052 41.9819" stroke="url(#paint7_linear_2204_5820)" stroke-width="2"/>
<path id="Rectangle 34628620" d="M6 10.9955L6 6L11.9368 6M6 36.9865L6 41.9819L11.9368 41.9819M164.988 10.9955L164.988 6L159.052 6M164.988 36.9865L164.988 41.9819L159.052 41.9819" stroke="url(#paint8_linear_2204_5820)"/>
<path id="Vector" d="M48.1211 15.7065C50.4954 15.7065 52.4946 16.5289 54.1484 18.1812C55.6987 19.7301 56.5183 21.5834 56.6123 23.7651L56.6211 24.2056C56.6182 26.5806 55.7957 28.5809 54.1475 30.2349C52.6032 31.7843 50.7503 32.6038 48.5635 32.6978L48.1221 32.7065L48.1211 32.7065C45.8934 32.7065 43.9976 31.9842 42.4092 30.5337L42.0957 30.2339C40.4435 28.5801 39.6211 26.5808 39.6211 24.2065C39.6211 21.9806 40.3442 20.0853 41.7959 18.4956L42.0957 18.1812C43.748 16.5288 45.7467 15.7065 48.1211 15.7065Z" fill="url(#paint9_linear_2204_5820)" stroke="url(#paint10_linear_2204_5820)"/>
<path id="&#232;&#167;&#132;&#229;&#136;&#146;&#229;&#184;&#131;&#229;&#177;&#128;" d="M68.2207 23.293L70.2363 23.293L70.2363 21.418L68.4707 21.418L68.4707 19.4805L70.2363 19.4805L70.2363 16.9961L72.2363 16.9961L72.2363 19.4805L74.002 19.4805L74.002 21.418L72.2363 21.418L72.2363 23.293L74.2207 23.293L74.2207 25.2461L72.1895 25.2461C72.1738 25.5273 72.1504 25.8008 72.1191 26.0664C72.8587 26.7487 73.6947 27.5742 74.627 28.543C74.054 29.0846 73.5853 29.5638 73.2207 29.9805C72.8561 29.5169 72.3717 28.9362 71.7676 28.2383C71.3874 29.8737 70.7728 31.2617 69.9238 32.4023C69.2572 31.6836 68.679 31.1003 68.1895 30.6523C69.3092 29.4388 69.9681 27.6367 70.166 25.2461L68.2207 25.2461L68.2207 23.293ZM74.627 27.3867L74.627 17.543L82.7832 17.543L82.7832 27.2148L80.752 27.2148L80.752 19.5586L76.6582 19.5586L76.6582 27.3867L74.627 27.3867ZM81.8145 27.7617C82.6061 28.1471 83.2572 28.4388 83.7676 28.6367C83.5645 30.168 83.3353 31.1263 83.0801 31.5117C82.8249 31.8971 82.3561 32.0898 81.6738 32.0898L80.2676 32.0898C79.0697 32.0898 78.4707 31.5273 78.4707 30.4023L78.4707 28.5977C77.7051 30.1654 76.3926 31.4388 74.5332 32.418C74.1686 31.8971 73.6947 31.3034 73.1113 30.6367C75.0801 29.694 76.3275 28.5768 76.8535 27.2852C77.3796 25.9935 77.6426 23.7409 77.6426 20.5273L79.7207 20.5273C79.6999 22.793 79.5488 24.6523 79.2676 26.1055L80.3301 26.1055L80.3301 29.6523C80.3301 30.069 80.5124 30.2773 80.877 30.2773L81.0488 30.2773C81.2988 30.2773 81.4629 30.1602 81.541 29.9258C81.6243 29.6914 81.7155 28.9701 81.8145 27.7617ZM90.1426 16.9023C90.903 17.4648 91.6738 18.1107 92.4551 18.8398L91.0957 20.1523C90.4395 19.4544 89.7103 18.7721 88.9082 18.1055L90.1426 16.9023ZM99.0801 17.0273L99.0801 30.2617C99.0801 30.8398 98.9395 31.2799 98.6582 31.582C98.3822 31.8893 97.8952 32.0612 97.1973 32.0977C96.5046 32.1341 95.8874 32.1471 95.3457 32.1367C95.2103 31.3971 95.0332 30.7148 94.8145 30.0898C95.2884 30.1211 95.7233 30.1367 96.1191 30.1367C96.4681 30.1367 96.6947 30.0872 96.7988 29.9883C96.903 29.8841 96.9551 29.6836 96.9551 29.3867L96.9551 17.0273L99.0801 17.0273ZM90.9238 22.9805L92.7676 23.9492C91.8874 25.5586 90.8145 27.0091 89.5488 28.3008C89.752 28.7799 90.002 29.1706 90.2988 29.4727C90.6009 29.7747 90.8639 29.9258 91.0879 29.9258C91.1504 29.9258 91.2233 29.9076 91.3066 29.8711C91.39 29.8294 91.4863 29.5247 91.5957 28.957C91.7103 28.3841 91.7936 27.8919 91.8457 27.4805C92.0645 27.6055 92.6999 27.8971 93.752 28.3555C93.4603 29.9805 93.1348 31.0326 92.7754 31.5117C92.416 31.9909 91.9447 32.2305 91.3613 32.2305C89.804 32.2305 88.627 31.4414 87.8301 29.8633C87.0749 30.4727 86.2676 31.0378 85.4082 31.5586C85.0332 30.8607 84.6322 30.2148 84.2051 29.6211C85.2728 29.069 86.2389 28.4466 87.1035 27.7539C86.7702 26.3268 86.5462 24.7904 86.4316 23.1445L84.6113 23.4336L84.2676 21.4648L86.3301 21.1523L86.127 17.043L88.3301 17.043C88.3509 18.319 88.39 19.582 88.4473 20.832L92.5645 20.2148L92.877 22.1211L88.5566 22.8086C88.64 23.8607 88.7728 24.9154 88.9551 25.9727C89.7415 25.0664 90.3978 24.069 90.9238 22.9805ZM95.5645 27.9648L93.502 27.9648L93.502 18.5117L95.5645 18.5117L95.5645 27.9648ZM109.799 32.293L107.627 32.293L107.627 25.1211L105.158 25.1211L105.158 31.1055L103.002 31.1055L103.002 26.1055C102.377 26.7773 101.71 27.4232 101.002 28.043C100.742 27.1471 100.502 26.418 100.283 25.8555C101.976 24.3086 103.325 22.668 104.33 20.9336L100.502 20.9336L100.502 18.8555L105.354 18.8555C105.609 18.2305 105.825 17.5951 106.002 16.9492L108.189 17.1992C108.012 17.7617 107.814 18.3138 107.596 18.8555L115.627 18.8555L115.627 20.9336L106.65 20.9336C106.229 21.7461 105.757 22.5326 105.236 23.293L107.627 23.293L107.627 21.293L109.799 21.293L109.799 23.293L114.502 23.293L114.502 28.3555C114.502 29.0273 114.359 29.5508 114.072 29.9258C113.786 30.3008 113.411 30.5299 112.947 30.6133C112.484 30.7018 111.757 30.7461 110.768 30.7461C110.632 29.9023 110.507 29.2148 110.393 28.6836C110.893 28.7253 111.215 28.7461 111.361 28.7461C112.038 28.7461 112.377 28.3711 112.377 27.6211L112.377 25.1211L109.799 25.1211L109.799 32.293ZM117.689 17.543L130.424 17.543L130.424 22.3398L119.908 22.3398C119.903 22.6732 119.9 22.9961 119.9 23.3086L131.127 23.3086L131.025 29.5664C131.01 30.3633 130.89 30.9388 130.666 31.293C130.442 31.6471 130.161 31.9023 129.822 32.0586C129.489 32.2148 128.179 32.293 125.893 32.293C125.799 31.6471 125.663 30.9701 125.486 30.2617C126.486 30.3034 127.208 30.3242 127.65 30.3242C127.979 30.3242 128.229 30.2643 128.4 30.1445C128.572 30.0195 128.682 29.8711 128.729 29.6992C128.775 29.5221 128.812 28.5846 128.838 26.8867L128.861 25.1055L119.854 25.1055C119.848 28.168 119.221 30.569 117.971 32.3086C117.294 31.5378 116.721 30.9128 116.252 30.4336C116.794 29.5378 117.166 28.543 117.369 27.4492C117.572 26.3503 117.679 24.7201 117.689 22.5586L117.689 17.543ZM128.205 20.543L128.205 19.3398L119.908 19.3398L119.908 20.543L128.205 20.543ZM127.252 25.9336L127.252 29.8398L122.814 29.8398L122.814 30.5898L120.814 30.5898L120.814 25.9336L127.252 25.9336ZM122.814 27.3555L122.814 28.418L125.252 28.418L125.252 27.3555L122.814 27.3555Z" fill="url(#paint11_linear_2204_5820)"/>
<g id="2" filter="url(#filter4_d_2204_5820)">
<path d="M47.1602 27.4995L51.3306 27.4995L51.3306 29.207L44.7925 29.207L44.7925 28.4771C44.7925 27.965 44.8856 27.4974 45.0718 27.0742C45.2622 26.651 45.5225 26.2575 45.8525 25.8936C46.1826 25.5254 46.6947 25.0959 47.3887 24.605C48.0234 24.131 48.4678 23.7121 48.7217 23.3481C48.9756 22.98 49.1025 22.5907 49.1025 22.1802C49.1025 21.2957 48.6201 20.8535 47.6553 20.8535C46.8089 20.8535 46.0007 21.1921 45.2305 21.8691L45.2305 20.041C46.0895 19.4867 47.0544 19.2095 48.125 19.2095C49.1068 19.2095 49.8833 19.4613 50.4546 19.9648C51.0259 20.4642 51.3115 21.154 51.3115 22.0342C51.3115 22.5251 51.229 22.9694 51.064 23.3672C50.8989 23.7607 50.6598 24.131 50.3467 24.478C50.0335 24.825 49.5321 25.2419 48.8423 25.7285C48.1779 26.2025 47.7314 26.5685 47.5029 26.8267C47.2744 27.0848 47.1602 27.3091 47.1602 27.4995Z" fill="white"/>
</g>
</g>
<defs>
<filter id="filter0_f_2204_5820" x="0.292969" y="0.0161133" width="170.988" height="15.3003" filterUnits="userSpaceOnUse" color-interpolation-filters="sRGB">
<feFlood flood-opacity="0" result="BackgroundImageFix"/>
<feBlend mode="normal" in="SourceGraphic" in2="BackgroundImageFix" result="shape"/>
<feGaussianBlur stdDeviation="3" result="effect1_foregroundBlur_2204_5820"/>
</filter>
<filter id="filter1_f_2204_5820" x="0.292969" y="33.0161" width="170.988" height="15.3003" filterUnits="userSpaceOnUse" color-interpolation-filters="sRGB">
<feFlood flood-opacity="0" result="BackgroundImageFix"/>
<feBlend mode="normal" in="SourceGraphic" in2="BackgroundImageFix" result="shape"/>
<feGaussianBlur stdDeviation="3" result="effect1_foregroundBlur_2204_5820"/>
</filter>
<filter id="filter2_f_2204_5820" x="4.29297" y="39.0161" width="162.988" height="5" filterUnits="userSpaceOnUse" color-interpolation-filters="sRGB">
<feFlood flood-opacity="0" result="BackgroundImageFix"/>
<feBlend mode="normal" in="SourceGraphic" in2="BackgroundImageFix" result="shape"/>
<feGaussianBlur stdDeviation="1" result="effect1_foregroundBlur_2204_5820"/>
</filter>
<filter id="filter3_f_2204_5820" x="4.29297" y="4.01611" width="162.988" height="5" filterUnits="userSpaceOnUse" color-interpolation-filters="sRGB">
<feFlood flood-opacity="0" result="BackgroundImageFix"/>
<feBlend mode="normal" in="SourceGraphic" in2="BackgroundImageFix" result="shape"/>
<feGaussianBlur stdDeviation="1" result="effect1_foregroundBlur_2204_5820"/>
</filter>
<filter id="filter4_d_2204_5820" x="43.793" y="19.2095" width="8.53906" height="11.9976" filterUnits="userSpaceOnUse" color-interpolation-filters="sRGB">
<feFlood flood-opacity="0" result="BackgroundImageFix"/>
<feColorMatrix in="SourceAlpha" type="matrix" values="0 0 0 0 0 0 0 0 0 0 0 0 0 0 0 0 0 0 127 0" result="hardAlpha"/>
<feOffset dy="1"/>
<feGaussianBlur stdDeviation="0.5"/>
<feComposite in2="hardAlpha" operator="out"/>
<feColorMatrix type="matrix" values="0 0 0 0 0.227451 0 0 0 0 0.513726 0 0 0 0 0.988235 0 0 0 1 0"/>
<feBlend mode="normal" in2="BackgroundImageFix" result="effect1_dropShadow_2204_5820"/>
<feBlend mode="normal" in="SourceGraphic" in2="effect1_dropShadow_2204_5820" result="shape"/>
</filter>
<linearGradient id="paint0_linear_2204_5820" x1="6.29297" y1="24.0071" x2="165.281" y2="24.0071" gradientUnits="userSpaceOnUse">
<stop stop-color="#4F91FD"/>
<stop offset="0.525723" stop-color="#A2C9FF" stop-opacity="0.6"/>
<stop offset="1" stop-color="#488CFD"/>
</linearGradient>
<linearGradient id="paint1_linear_2204_5820" x1="6.29297" y1="24.0071" x2="165.281" y2="24.0071" gradientUnits="userSpaceOnUse">
<stop stop-color="#A2C9FF" stop-opacity="0.9"/>
<stop offset="0.525723" stop-color="#70E5FF" stop-opacity="0.6"/>
<stop offset="1" stop-color="#A2C9FF" stop-opacity="0.9"/>
</linearGradient>
<linearGradient id="paint2_linear_2204_5820" x1="6.29297" y1="7.66626" x2="165.281" y2="7.66626" gradientUnits="userSpaceOnUse">
<stop stop-color="white" stop-opacity="0.6"/>
<stop offset="0.525723" stop-color="#A2FFFD" stop-opacity="0.6"/>
<stop offset="1" stop-color="white" stop-opacity="0.6"/>
</linearGradient>
<linearGradient id="paint3_linear_2204_5820" x1="6.29297" y1="40.6663" x2="165.281" y2="40.6663" gradientUnits="userSpaceOnUse">
<stop stop-color="white" stop-opacity="0.6"/>
<stop offset="0.525723" stop-color="#A2FFFD" stop-opacity="0.6"/>
<stop offset="1" stop-color="white" stop-opacity="0.6"/>
</linearGradient>
<linearGradient id="paint4_linear_2204_5820" x1="6.29297" y1="41.5161" x2="165.281" y2="41.5161" gradientUnits="userSpaceOnUse">
<stop stop-color="white" stop-opacity="0.9"/>
<stop offset="0.525723" stop-color="#EBFFFF"/>
<stop offset="1" stop-color="white" stop-opacity="0.9"/>
</linearGradient>
<linearGradient id="paint5_linear_2204_5820" x1="6.29297" y1="6.51611" x2="165.281" y2="6.51611" gradientUnits="userSpaceOnUse">
<stop stop-color="white" stop-opacity="0.9"/>
<stop offset="0.525723" stop-color="#EBFFFF"/>
<stop offset="1" stop-color="white" stop-opacity="0.9"/>
</linearGradient>
<linearGradient id="paint6_linear_2204_5820" x1="6.29297" y1="24.0071" x2="165.281" y2="24.0071" gradientUnits="userSpaceOnUse">
<stop stop-color="#6DD7FF"/>
<stop offset="1" stop-color="#7DBEFF"/>
</linearGradient>
<linearGradient id="paint7_linear_2204_5820" x1="146.061" y1="23.991" x2="-12.9272" y2="23.991" gradientUnits="userSpaceOnUse">
<stop stop-color="#419FFF"/>
<stop offset="1" stop-color="#47B3FF"/>
</linearGradient>
<linearGradient id="paint8_linear_2204_5820" x1="146.061" y1="23.991" x2="-12.9272" y2="23.991" gradientUnits="userSpaceOnUse">
<stop stop-color="#7EBEFF"/>
<stop offset="1" stop-color="#8BE3FF"/>
</linearGradient>
<linearGradient id="paint9_linear_2204_5820" x1="54.9782" y1="24.2065" x2="36.9782" y2="24.2065" gradientUnits="userSpaceOnUse">
<stop stop-color="#5997FD"/>
<stop offset="1" stop-color="#58D7FF"/>
</linearGradient>
<linearGradient id="paint10_linear_2204_5820" x1="39.1211" y1="24.2065" x2="57.0955" y2="24.8848" gradientUnits="userSpaceOnUse">
<stop stop-color="#D6F0FF"/>
<stop offset="1" stop-color="#C4E8FF"/>
</linearGradient>
<linearGradient id="paint11_linear_2204_5820" x1="100.002" y1="17.207" x2="100.002" y2="30.207" gradientUnits="userSpaceOnUse">
<stop stop-color="#666666"/>
<stop offset="1"/>
</linearGradient>
</defs>
</svg>
