<svg width="172" height="49" viewBox="0 0 172 49" fill="none" xmlns="http://www.w3.org/2000/svg">
<g id="2&#232;&#167;&#132;&#229;&#136;&#146;&#229;&#184;&#131;&#229;&#177;&#128;-&#231;&#130;&#185;&#229;&#135;&#187;&#233;&#162;&#156;&#232;&#137;&#178;">
<g id="Group 1321315616">
<mask id="mask0_2204_5835" style="mask-type:alpha" maskUnits="userSpaceOnUse" x="6" y="6" width="160" height="37">
<rect id="Rectangle 34628613" x="6.29297" y="6.06738" width="158.988" height="35.9819" fill="url(#paint0_linear_2204_5835)"/>
</mask>
<g mask="url(#mask0_2204_5835)">
<rect id="Rectangle 34628616" x="6.29297" y="6.06738" width="158.988" height="35.9819" fill="url(#paint1_linear_2204_5835)" stroke="url(#paint2_linear_2204_5835)"/>
</g>
</g>
<rect id="Rectangle 34628617" x="6.29297" y="6.06738" width="158.988" height="35.9819" fill="url(#paint3_linear_2204_5835)" stroke="url(#paint4_linear_2204_5835)"/>
<g id="Rectangle 34628615" filter="url(#filter0_f_2204_5835)">
<rect x="6.29297" y="6.06738" width="158.988" height="3.30029" fill="url(#paint5_linear_2204_5835)"/>
</g>
<g id="Rectangle 34628616_2" filter="url(#filter1_f_2204_5835)">
<rect x="6.29297" y="39.0674" width="158.988" height="3.30029" fill="url(#paint6_linear_2204_5835)"/>
</g>
<g id="Rectangle 34628617_2" filter="url(#filter2_f_2204_5835)">
<rect x="6.29297" y="41.0674" width="158.988" height="1" fill="url(#paint7_linear_2204_5835)"/>
</g>
<g id="Rectangle 34628618" filter="url(#filter3_f_2204_5835)">
<rect x="6.29297" y="6.06738" width="158.988" height="1" fill="url(#paint8_linear_2204_5835)"/>
</g>
<path id="Rectangle 34628619" d="M6 11.0468L6 6.05127L11.9368 6.05127M6 37.0377L6 42.0332L11.9368 42.0332M164.988 11.0468L164.988 6.05127L159.052 6.05127M164.988 37.0377L164.988 42.0332L159.052 42.0332" stroke="url(#paint9_linear_2204_5835)" stroke-width="2"/>
<path id="Rectangle 34628620" d="M6 11.0468L6 6.05127L11.9368 6.05127M6 37.0377L6 42.0332L11.9368 42.0332M164.988 11.0468L164.988 6.05127L159.052 6.05127M164.988 37.0377L164.988 42.0332L159.052 42.0332" stroke="url(#paint10_linear_2204_5835)"/>
<path id="Vector" d="M48.1211 15.7578C50.4954 15.7578 52.4946 16.5802 54.1484 18.2324C55.6987 19.7813 56.5183 21.6347 56.6123 23.8164L56.6211 24.2568C56.6182 26.6319 55.7957 28.6322 54.1475 30.2861C52.6032 31.8355 50.7503 32.655 48.5635 32.749L48.1221 32.7578L48.1211 32.7578C45.8934 32.7578 43.9976 32.0355 42.4092 30.585L42.0957 30.2852C40.4435 28.6314 39.6211 26.6321 39.6211 24.2578C39.6211 22.0319 40.3442 20.1366 41.7959 18.5469L42.0957 18.2324C43.748 16.5801 45.7467 15.7578 48.1211 15.7578Z" fill="url(#paint11_linear_2204_5835)" stroke="url(#paint12_linear_2204_5835)"/>
<g id="&#232;&#167;&#132;&#229;&#136;&#146;&#229;&#184;&#131;&#229;&#177;&#128;">
<mask id="path-11-outside-1_2204_5835" maskUnits="userSpaceOnUse" x="67.125" y="16.2583" width="65" height="17" fill="black">
<rect fill="white" x="67.125" y="16.2583" width="65" height="17"/>
<path d="M68.2207 23.3442L70.2363 23.3442L70.2363 21.4692L68.4707 21.4692L68.4707 19.5317L70.2363 19.5317L70.2363 17.0474L72.2363 17.0474L72.2363 19.5317L74.002 19.5317L74.002 21.4692L72.2363 21.4692L72.2363 23.3442L74.2207 23.3442L74.2207 25.2974L72.1895 25.2974C72.1738 25.5786 72.1504 25.8521 72.1191 26.1177C72.8587 26.8 73.6947 27.6255 74.627 28.5942C74.054 29.1359 73.5853 29.6151 73.2207 30.0317C72.8561 29.5682 72.3717 28.9875 71.7676 28.2896C71.3874 29.925 70.7728 31.313 69.9238 32.4536C69.2572 31.7349 68.679 31.1515 68.1895 30.7036C69.3092 29.4901 69.9681 27.688 70.166 25.2974L68.2207 25.2974L68.2207 23.3442ZM74.627 27.438L74.627 17.5942L82.7832 17.5942L82.7832 27.2661L80.752 27.2661L80.752 19.6099L76.6582 19.6099L76.6582 27.438L74.627 27.438ZM81.8145 27.813C82.6061 28.1984 83.2572 28.4901 83.7676 28.688C83.5645 30.2192 83.3353 31.1776 83.0801 31.563C82.8249 31.9484 82.3561 32.1411 81.6738 32.1411L80.2676 32.1411C79.0697 32.1411 78.4707 31.5786 78.4707 30.4536L78.4707 28.6489C77.7051 30.2166 76.3926 31.4901 74.5332 32.4692C74.1686 31.9484 73.6947 31.3547 73.1113 30.688C75.0801 29.7453 76.3275 28.6281 76.8535 27.3364C77.3796 26.0448 77.6426 23.7922 77.6426 20.5786L79.7207 20.5786C79.6999 22.8442 79.5488 24.7036 79.2676 26.1567L80.3301 26.1567L80.3301 29.7036C80.3301 30.1203 80.5124 30.3286 80.877 30.3286L81.0488 30.3286C81.2988 30.3286 81.4629 30.2114 81.541 29.9771C81.6243 29.7427 81.7155 29.0213 81.8145 27.813ZM90.1426 16.9536C90.903 17.5161 91.6738 18.1619 92.4551 18.8911L91.0957 20.2036C90.4395 19.5057 89.7103 18.8234 88.9082 18.1567L90.1426 16.9536ZM99.0801 17.0786L99.0801 30.313C99.0801 30.8911 98.9395 31.3312 98.6582 31.6333C98.3822 31.9406 97.8952 32.1125 97.1973 32.1489C96.5046 32.1854 95.8874 32.1984 95.3457 32.188C95.2103 31.4484 95.0332 30.7661 94.8145 30.1411C95.2884 30.1724 95.7233 30.188 96.1191 30.188C96.4681 30.188 96.6947 30.1385 96.7988 30.0396C96.903 29.9354 96.9551 29.7349 96.9551 29.438L96.9551 17.0786L99.0801 17.0786ZM90.9238 23.0317L92.7676 24.0005C91.8874 25.6099 90.8145 27.0604 89.5488 28.3521C89.752 28.8312 90.002 29.2218 90.2988 29.5239C90.6009 29.826 90.8639 29.9771 91.0879 29.9771C91.1504 29.9771 91.2233 29.9588 91.3066 29.9224C91.39 29.8807 91.4863 29.576 91.5957 29.0083C91.7103 28.4354 91.7936 27.9432 91.8457 27.5317C92.0645 27.6567 92.6999 27.9484 93.752 28.4067C93.4603 30.0317 93.1348 31.0838 92.7754 31.563C92.416 32.0422 91.9447 32.2817 91.3613 32.2817C89.804 32.2817 88.627 31.4927 87.8301 29.9146C87.0749 30.5239 86.2676 31.089 85.4082 31.6099C85.0332 30.9119 84.6322 30.2661 84.2051 29.6724C85.2728 29.1203 86.2389 28.4979 87.1035 27.8052C86.7702 26.3781 86.5462 24.8416 86.4316 23.1958L84.6113 23.4849L84.2676 21.5161L86.3301 21.2036L86.127 17.0942L88.3301 17.0942C88.3509 18.3703 88.39 19.6333 88.4473 20.8833L92.5645 20.2661L92.877 22.1724L88.5566 22.8599C88.64 23.9119 88.7728 24.9666 88.9551 26.0239C89.7415 25.1177 90.3978 24.1203 90.9238 23.0317ZM95.5645 28.0161L93.502 28.0161L93.502 18.563L95.5645 18.563L95.5645 28.0161ZM109.799 32.3442L107.627 32.3442L107.627 25.1724L105.158 25.1724L105.158 31.1567L103.002 31.1567L103.002 26.1567C102.377 26.8286 101.71 27.4744 101.002 28.0942C100.742 27.1984 100.502 26.4692 100.283 25.9067C101.976 24.3599 103.325 22.7192 104.33 20.9849L100.502 20.9849L100.502 18.9067L105.354 18.9067C105.609 18.2817 105.825 17.6463 106.002 17.0005L108.189 17.2505C108.012 17.813 107.814 18.3651 107.596 18.9067L115.627 18.9067L115.627 20.9849L106.65 20.9849C106.229 21.7974 105.757 22.5838 105.236 23.3442L107.627 23.3442L107.627 21.3442L109.799 21.3442L109.799 23.3442L114.502 23.3442L114.502 28.4067C114.502 29.0786 114.359 29.6021 114.072 29.9771C113.786 30.3521 113.411 30.5812 112.947 30.6646C112.484 30.7531 111.757 30.7974 110.768 30.7974C110.632 29.9536 110.507 29.2661 110.393 28.7349C110.893 28.7765 111.215 28.7974 111.361 28.7974C112.038 28.7974 112.377 28.4224 112.377 27.6724L112.377 25.1724L109.799 25.1724L109.799 32.3442ZM117.689 17.5942L130.424 17.5942L130.424 22.3911L119.908 22.3911C119.903 22.7244 119.9 23.0474 119.9 23.3599L131.127 23.3599L131.025 29.6177C131.01 30.4146 130.89 30.9901 130.666 31.3442C130.442 31.6984 130.161 31.9536 129.822 32.1099C129.489 32.2661 128.179 32.3442 125.893 32.3442C125.799 31.6984 125.663 31.0213 125.486 30.313C126.486 30.3547 127.208 30.3755 127.65 30.3755C127.979 30.3755 128.229 30.3156 128.4 30.1958C128.572 30.0708 128.682 29.9224 128.729 29.7505C128.775 29.5734 128.812 28.6359 128.838 26.938L128.861 25.1567L119.854 25.1567C119.848 28.2192 119.221 30.6203 117.971 32.3599C117.294 31.589 116.721 30.964 116.252 30.4849C116.794 29.589 117.166 28.5942 117.369 27.5005C117.572 26.4015 117.679 24.7713 117.689 22.6099L117.689 17.5942ZM128.205 20.5942L128.205 19.3911L119.908 19.3911L119.908 20.5942L128.205 20.5942ZM127.252 25.9849L127.252 29.8911L122.814 29.8911L122.814 30.6411L120.814 30.6411L120.814 25.9849L127.252 25.9849ZM122.814 27.4067L122.814 28.4692L125.252 28.4692L125.252 27.4067L122.814 27.4067Z"/>
</mask>
<path d="M68.2207 23.3442L70.2363 23.3442L70.2363 21.4692L68.4707 21.4692L68.4707 19.5317L70.2363 19.5317L70.2363 17.0474L72.2363 17.0474L72.2363 19.5317L74.002 19.5317L74.002 21.4692L72.2363 21.4692L72.2363 23.3442L74.2207 23.3442L74.2207 25.2974L72.1895 25.2974C72.1738 25.5786 72.1504 25.8521 72.1191 26.1177C72.8587 26.8 73.6947 27.6255 74.627 28.5942C74.054 29.1359 73.5853 29.6151 73.2207 30.0317C72.8561 29.5682 72.3717 28.9875 71.7676 28.2896C71.3874 29.925 70.7728 31.313 69.9238 32.4536C69.2572 31.7349 68.679 31.1515 68.1895 30.7036C69.3092 29.4901 69.9681 27.688 70.166 25.2974L68.2207 25.2974L68.2207 23.3442ZM74.627 27.438L74.627 17.5942L82.7832 17.5942L82.7832 27.2661L80.752 27.2661L80.752 19.6099L76.6582 19.6099L76.6582 27.438L74.627 27.438ZM81.8145 27.813C82.6061 28.1984 83.2572 28.4901 83.7676 28.688C83.5645 30.2192 83.3353 31.1776 83.0801 31.563C82.8249 31.9484 82.3561 32.1411 81.6738 32.1411L80.2676 32.1411C79.0697 32.1411 78.4707 31.5786 78.4707 30.4536L78.4707 28.6489C77.7051 30.2166 76.3926 31.4901 74.5332 32.4692C74.1686 31.9484 73.6947 31.3547 73.1113 30.688C75.0801 29.7453 76.3275 28.6281 76.8535 27.3364C77.3796 26.0448 77.6426 23.7922 77.6426 20.5786L79.7207 20.5786C79.6999 22.8442 79.5488 24.7036 79.2676 26.1567L80.3301 26.1567L80.3301 29.7036C80.3301 30.1203 80.5124 30.3286 80.877 30.3286L81.0488 30.3286C81.2988 30.3286 81.4629 30.2114 81.541 29.9771C81.6243 29.7427 81.7155 29.0213 81.8145 27.813ZM90.1426 16.9536C90.903 17.5161 91.6738 18.1619 92.4551 18.8911L91.0957 20.2036C90.4395 19.5057 89.7103 18.8234 88.9082 18.1567L90.1426 16.9536ZM99.0801 17.0786L99.0801 30.313C99.0801 30.8911 98.9395 31.3312 98.6582 31.6333C98.3822 31.9406 97.8952 32.1125 97.1973 32.1489C96.5046 32.1854 95.8874 32.1984 95.3457 32.188C95.2103 31.4484 95.0332 30.7661 94.8145 30.1411C95.2884 30.1724 95.7233 30.188 96.1191 30.188C96.4681 30.188 96.6947 30.1385 96.7988 30.0396C96.903 29.9354 96.9551 29.7349 96.9551 29.438L96.9551 17.0786L99.0801 17.0786ZM90.9238 23.0317L92.7676 24.0005C91.8874 25.6099 90.8145 27.0604 89.5488 28.3521C89.752 28.8312 90.002 29.2218 90.2988 29.5239C90.6009 29.826 90.8639 29.9771 91.0879 29.9771C91.1504 29.9771 91.2233 29.9588 91.3066 29.9224C91.39 29.8807 91.4863 29.576 91.5957 29.0083C91.7103 28.4354 91.7936 27.9432 91.8457 27.5317C92.0645 27.6567 92.6999 27.9484 93.752 28.4067C93.4603 30.0317 93.1348 31.0838 92.7754 31.563C92.416 32.0422 91.9447 32.2817 91.3613 32.2817C89.804 32.2817 88.627 31.4927 87.8301 29.9146C87.0749 30.5239 86.2676 31.089 85.4082 31.6099C85.0332 30.9119 84.6322 30.2661 84.2051 29.6724C85.2728 29.1203 86.2389 28.4979 87.1035 27.8052C86.7702 26.3781 86.5462 24.8416 86.4316 23.1958L84.6113 23.4849L84.2676 21.5161L86.3301 21.2036L86.127 17.0942L88.3301 17.0942C88.3509 18.3703 88.39 19.6333 88.4473 20.8833L92.5645 20.2661L92.877 22.1724L88.5566 22.8599C88.64 23.9119 88.7728 24.9666 88.9551 26.0239C89.7415 25.1177 90.3978 24.1203 90.9238 23.0317ZM95.5645 28.0161L93.502 28.0161L93.502 18.563L95.5645 18.563L95.5645 28.0161ZM109.799 32.3442L107.627 32.3442L107.627 25.1724L105.158 25.1724L105.158 31.1567L103.002 31.1567L103.002 26.1567C102.377 26.8286 101.71 27.4744 101.002 28.0942C100.742 27.1984 100.502 26.4692 100.283 25.9067C101.976 24.3599 103.325 22.7192 104.33 20.9849L100.502 20.9849L100.502 18.9067L105.354 18.9067C105.609 18.2817 105.825 17.6463 106.002 17.0005L108.189 17.2505C108.012 17.813 107.814 18.3651 107.596 18.9067L115.627 18.9067L115.627 20.9849L106.65 20.9849C106.229 21.7974 105.757 22.5838 105.236 23.3442L107.627 23.3442L107.627 21.3442L109.799 21.3442L109.799 23.3442L114.502 23.3442L114.502 28.4067C114.502 29.0786 114.359 29.6021 114.072 29.9771C113.786 30.3521 113.411 30.5812 112.947 30.6646C112.484 30.7531 111.757 30.7974 110.768 30.7974C110.632 29.9536 110.507 29.2661 110.393 28.7349C110.893 28.7765 111.215 28.7974 111.361 28.7974C112.038 28.7974 112.377 28.4224 112.377 27.6724L112.377 25.1724L109.799 25.1724L109.799 32.3442ZM117.689 17.5942L130.424 17.5942L130.424 22.3911L119.908 22.3911C119.903 22.7244 119.9 23.0474 119.9 23.3599L131.127 23.3599L131.025 29.6177C131.01 30.4146 130.89 30.9901 130.666 31.3442C130.442 31.6984 130.161 31.9536 129.822 32.1099C129.489 32.2661 128.179 32.3442 125.893 32.3442C125.799 31.6984 125.663 31.0213 125.486 30.313C126.486 30.3547 127.208 30.3755 127.65 30.3755C127.979 30.3755 128.229 30.3156 128.4 30.1958C128.572 30.0708 128.682 29.9224 128.729 29.7505C128.775 29.5734 128.812 28.6359 128.838 26.938L128.861 25.1567L119.854 25.1567C119.848 28.2192 119.221 30.6203 117.971 32.3599C117.294 31.589 116.721 30.964 116.252 30.4849C116.794 29.589 117.166 28.5942 117.369 27.5005C117.572 26.4015 117.679 24.7713 117.689 22.6099L117.689 17.5942ZM128.205 20.5942L128.205 19.3911L119.908 19.3911L119.908 20.5942L128.205 20.5942ZM127.252 25.9849L127.252 29.8911L122.814 29.8911L122.814 30.6411L120.814 30.6411L120.814 25.9849L127.252 25.9849ZM122.814 27.4067L122.814 28.4692L125.252 28.4692L125.252 27.4067L122.814 27.4067Z" fill="url(#paint13_linear_2204_5835)"/>
<path d="M68.2207 23.3442L68.2207 22.8442L67.7207 22.8442L67.7207 23.3442L68.2207 23.3442ZM70.2363 23.3442L70.2363 23.8442L70.7363 23.8442L70.7363 23.3442L70.2363 23.3442ZM70.2363 21.4692L70.7363 21.4692L70.7363 20.9692L70.2363 20.9692L70.2363 21.4692ZM68.4707 21.4692L67.9707 21.4692L67.9707 21.9692L68.4707 21.9692L68.4707 21.4692ZM68.4707 19.5317L68.4707 19.0317L67.9707 19.0317L67.9707 19.5317L68.4707 19.5317ZM70.2363 19.5317L70.2363 20.0317L70.7363 20.0317L70.7363 19.5317L70.2363 19.5317ZM70.2363 17.0474L70.2363 16.5474L69.7363 16.5474L69.7363 17.0474L70.2363 17.0474ZM72.2363 17.0474L72.7363 17.0474L72.7363 16.5474L72.2363 16.5474L72.2363 17.0474ZM72.2363 19.5317L71.7363 19.5317L71.7363 20.0317L72.2363 20.0317L72.2363 19.5317ZM74.002 19.5317L74.502 19.5317L74.502 19.0317L74.002 19.0317L74.002 19.5317ZM74.002 21.4692L74.002 21.9692L74.502 21.9692L74.502 21.4692L74.002 21.4692ZM72.2363 21.4692L72.2363 20.9692L71.7363 20.9692L71.7363 21.4692L72.2363 21.4692ZM72.2363 23.3442L71.7363 23.3442L71.7363 23.8442L72.2363 23.8442L72.2363 23.3442ZM74.2207 23.3442L74.7207 23.3442L74.7207 22.8442L74.2207 22.8442L74.2207 23.3442ZM74.2207 25.2974L74.2207 25.7974L74.7207 25.7974L74.7207 25.2974L74.2207 25.2974ZM72.1895 25.2974L72.1895 24.7974L71.7165 24.7974L71.6902 25.2696L72.1895 25.2974ZM72.1191 26.1177L71.6226 26.0593L71.5928 26.3124L71.7801 26.4852L72.1191 26.1177ZM74.627 28.5942L74.9705 28.9576L75.337 28.611L74.9872 28.2475L74.627 28.5942ZM73.2207 30.0317L72.8277 30.3408L73.2002 30.8145L73.597 30.361L73.2207 30.0317ZM71.7676 28.2896L72.1456 27.9623L71.5029 27.2199L71.2806 28.1763L71.7676 28.2896ZM69.9238 32.4536L69.5572 32.7936L69.966 33.2344L70.3249 32.7521L69.9238 32.4536ZM68.1895 30.7036L67.822 30.3645L67.4815 30.7336L67.8519 31.0725L68.1895 30.7036ZM70.166 25.2974L70.6643 25.3386L70.7091 24.7974L70.166 24.7974L70.166 25.2974ZM68.2207 25.2974L67.7207 25.2974L67.7207 25.7974L68.2207 25.7974L68.2207 25.2974ZM74.627 27.438L74.127 27.438L74.127 27.938L74.627 27.938L74.627 27.438ZM74.627 17.5942L74.627 17.0942L74.127 17.0942L74.127 17.5942L74.627 17.5942ZM82.7832 17.5942L83.2832 17.5942L83.2832 17.0942L82.7832 17.0942L82.7832 17.5942ZM82.7832 27.2661L82.7832 27.7661L83.2832 27.7661L83.2832 27.2661L82.7832 27.2661ZM80.752 27.2661L80.252 27.2661L80.252 27.7661L80.752 27.7661L80.752 27.2661ZM80.752 19.6099L81.252 19.6099L81.252 19.1099L80.752 19.1099L80.752 19.6099ZM76.6582 19.6099L76.6582 19.1099L76.1582 19.1099L76.1582 19.6099L76.6582 19.6099ZM76.6582 27.438L76.6582 27.938L77.1582 27.938L77.1582 27.438L76.6582 27.438ZM81.8145 27.813L82.0333 27.3634L81.3758 27.0433L81.3161 27.7722L81.8145 27.813ZM83.7676 28.688L84.2632 28.7537L84.3149 28.364L83.9483 28.2218L83.7676 28.688ZM83.0801 31.563L82.6632 31.2869L83.0801 31.563ZM78.4707 28.6489L78.9707 28.6489L78.0214 28.4295L78.4707 28.6489ZM74.5332 32.4692L74.1236 32.756L74.3763 33.117L74.7662 32.9116L74.5332 32.4692ZM73.1113 30.688L72.8954 30.237L72.3013 30.5215L72.735 31.0172L73.1113 30.688ZM77.6426 20.5786L77.6426 20.0786L77.1426 20.0786L77.1426 20.5786L77.6426 20.5786ZM79.7207 20.5786L80.2207 20.5832L80.2253 20.0786L79.7207 20.0786L79.7207 20.5786ZM79.2676 26.1567L78.7767 26.0617L78.6615 26.6567L79.2676 26.6567L79.2676 26.1567ZM80.3301 26.1567L80.8301 26.1567L80.8301 25.6567L80.3301 25.6567L80.3301 26.1567ZM81.541 29.9771L81.0698 29.8095L81.0667 29.8189L81.541 29.9771ZM68.2207 23.3442L68.2207 23.8442L70.2363 23.8442L70.2363 23.3442L70.2363 22.8442L68.2207 22.8442L68.2207 23.3442ZM70.2363 23.3442L70.7363 23.3442L70.7363 21.4692L70.2363 21.4692L69.7363 21.4692L69.7363 23.3442L70.2363 23.3442ZM70.2363 21.4692L70.2363 20.9692L68.4707 20.9692L68.4707 21.4692L68.4707 21.9692L70.2363 21.9692L70.2363 21.4692ZM68.4707 21.4692L68.9707 21.4692L68.9707 19.5317L68.4707 19.5317L67.9707 19.5317L67.9707 21.4692L68.4707 21.4692ZM68.4707 19.5317L68.4707 20.0317L70.2363 20.0317L70.2363 19.5317L70.2363 19.0317L68.4707 19.0317L68.4707 19.5317ZM70.2363 19.5317L70.7363 19.5317L70.7363 17.0474L70.2363 17.0474L69.7363 17.0474L69.7363 19.5317L70.2363 19.5317ZM70.2363 17.0474L70.2363 17.5474L72.2363 17.5474L72.2363 17.0474L72.2363 16.5474L70.2363 16.5474L70.2363 17.0474ZM72.2363 17.0474L71.7363 17.0474L71.7363 19.5317L72.2363 19.5317L72.7363 19.5317L72.7363 17.0474L72.2363 17.0474ZM72.2363 19.5317L72.2363 20.0317L74.002 20.0317L74.002 19.5317L74.002 19.0317L72.2363 19.0317L72.2363 19.5317ZM74.002 19.5317L73.502 19.5317L73.502 21.4692L74.002 21.4692L74.502 21.4692L74.502 19.5317L74.002 19.5317ZM74.002 21.4692L74.002 20.9692L72.2363 20.9692L72.2363 21.4692L72.2363 21.9692L74.002 21.9692L74.002 21.4692ZM72.2363 21.4692L71.7363 21.4692L71.7363 23.3442L72.2363 23.3442L72.7363 23.3442L72.7363 21.4692L72.2363 21.4692ZM72.2363 23.3442L72.2363 23.8442L74.2207 23.8442L74.2207 23.3442L74.2207 22.8442L72.2363 22.8442L72.2363 23.3442ZM74.2207 23.3442L73.7207 23.3442L73.7207 25.2974L74.2207 25.2974L74.7207 25.2974L74.7207 23.3442L74.2207 23.3442ZM74.2207 25.2974L74.2207 24.7974L72.1895 24.7974L72.1895 25.2974L72.1895 25.7974L74.2207 25.7974L74.2207 25.2974ZM72.1895 25.2974L71.6902 25.2696C71.6751 25.5412 71.6526 25.8044 71.6226 26.0593L72.1191 26.1177L72.6157 26.1761C72.6482 25.8998 72.6725 25.6161 72.6887 25.3251L72.1895 25.2974ZM72.1191 26.1177L71.7801 26.4852C72.5105 27.159 73.3391 27.9771 74.2667 28.9409L74.627 28.5942L74.9872 28.2475C74.0502 27.2738 73.207 26.441 72.4582 25.7502L72.1191 26.1177ZM74.627 28.5942L74.2834 28.2309C73.7034 28.7793 73.2227 29.2702 72.8444 29.7025L73.2207 30.0317L73.597 30.361C73.9479 29.96 74.4046 29.4925 74.9705 28.9576L74.627 28.5942ZM73.2207 30.0317L73.6137 29.7226C73.2424 29.2505 72.7524 28.6632 72.1456 27.9623L71.7676 28.2896L71.3895 28.6168C71.9911 29.3117 72.4699 29.8859 72.8277 30.3408L73.2207 30.0317ZM71.7676 28.2896L71.2806 28.1763C70.9132 29.7567 70.3239 31.0787 69.5227 32.1551L69.9238 32.4536L70.3249 32.7521C71.2217 31.5473 71.8616 30.0933 72.2546 28.4028L71.7676 28.2896ZM69.9238 32.4536L70.2904 32.1136C69.6184 31.3891 69.0301 30.7951 68.527 30.3347L68.1895 30.7036L67.8519 31.0725C68.3279 31.508 68.8959 32.0807 69.5572 32.7936L69.9238 32.4536ZM68.1895 30.7036L68.5569 31.0427C69.7798 29.7174 70.4612 27.7917 70.6643 25.3386L70.166 25.2974L69.6677 25.2561C69.475 27.5843 68.8387 29.2627 67.822 30.3645L68.1895 30.7036ZM70.166 25.2974L70.166 24.7974L68.2207 24.7974L68.2207 25.2974L68.2207 25.7974L70.166 25.7974L70.166 25.2974ZM68.2207 25.2974L68.7207 25.2974L68.7207 23.3442L68.2207 23.3442L67.7207 23.3442L67.7207 25.2974L68.2207 25.2974ZM74.627 27.438L75.127 27.438L75.127 17.5942L74.627 17.5942L74.127 17.5942L74.127 27.438L74.627 27.438ZM74.627 17.5942L74.627 18.0942L82.7832 18.0942L82.7832 17.5942L82.7832 17.0942L74.627 17.0942L74.627 17.5942ZM82.7832 17.5942L82.2832 17.5942L82.2832 27.2661L82.7832 27.2661L83.2832 27.2661L83.2832 17.5942L82.7832 17.5942ZM82.7832 27.2661L82.7832 26.7661L80.752 26.7661L80.752 27.2661L80.752 27.7661L82.7832 27.7661L82.7832 27.2661ZM80.752 27.2661L81.252 27.2661L81.252 19.6099L80.752 19.6099L80.252 19.6099L80.252 27.2661L80.752 27.2661ZM80.752 19.6099L80.752 19.1099L76.6582 19.1099L76.6582 19.6099L76.6582 20.1099L80.752 20.1099L80.752 19.6099ZM76.6582 19.6099L76.1582 19.6099L76.1582 27.438L76.6582 27.438L77.1582 27.438L77.1582 19.6099L76.6582 19.6099ZM76.6582 27.438L76.6582 26.938L74.627 26.938L74.627 27.438L74.627 27.938L76.6582 27.938L76.6582 27.438ZM81.8145 27.813L81.5956 28.2625C82.3932 28.6509 83.0581 28.9492 83.5868 29.1542L83.7676 28.688L83.9483 28.2218C83.4562 28.031 82.819 27.7459 82.0333 27.3634L81.8145 27.813ZM83.7676 28.688L83.2719 28.6222C83.1715 29.3792 83.0661 29.983 82.9571 30.4389C82.8442 30.9107 82.739 31.1725 82.6632 31.2869L83.0801 31.563L83.497 31.839C83.6764 31.568 83.8133 31.158 83.9297 30.6715C84.0498 30.1691 84.1605 29.528 84.2632 28.7537L83.7676 28.688ZM83.0801 31.563L82.6632 31.2869C82.5394 31.4739 82.2736 31.6411 81.6738 31.6411L81.6738 32.1411L81.6738 32.6411C82.4387 32.6411 83.1104 32.4229 83.497 31.839L83.0801 31.563ZM81.6738 32.1411L81.6738 31.6411L80.2676 31.6411L80.2676 32.1411L80.2676 32.6411L81.6738 32.6411L81.6738 32.1411ZM80.2676 32.1411L80.2676 31.6411C79.7381 31.6411 79.4341 31.5162 79.2622 31.3548C79.0962 31.1989 78.9707 30.9307 78.9707 30.4536L78.4707 30.4536L77.9707 30.4536C77.9707 31.1015 78.1447 31.6771 78.5776 32.0837C79.0047 32.4848 79.5991 32.6411 80.2676 32.6411L80.2676 32.1411ZM78.4707 30.4536L78.9707 30.4536L78.9707 28.6489L78.4707 28.6489L77.9707 28.6489L77.9707 30.4536L78.4707 30.4536ZM78.4707 28.6489L78.0214 28.4295C77.3113 29.8836 76.0853 31.0868 74.3002 32.0268L74.5332 32.4692L74.7662 32.9116C76.6998 31.8934 78.0989 30.5497 78.92 28.8683L78.4707 28.6489ZM74.5332 32.4692L74.9428 32.1825C74.5648 31.6424 74.0786 31.0341 73.4876 30.3587L73.1113 30.688L72.735 31.0172C73.3107 31.6752 73.7725 32.2544 74.1236 32.756L74.5332 32.4692ZM73.1113 30.688L73.3273 31.139C75.3475 30.1716 76.7233 28.9818 77.3166 27.525L76.8535 27.3364L76.3904 27.1478C75.9316 28.2744 74.8127 29.3189 72.8954 30.237L73.1113 30.688ZM76.8535 27.3364L77.3166 27.525C77.8829 26.1345 78.1426 23.7941 78.1426 20.5786L77.6426 20.5786L77.1426 20.5786C77.1426 23.7902 76.8762 25.955 76.3904 27.1478L76.8535 27.3364ZM77.6426 20.5786L77.6426 21.0786L79.7207 21.0786L79.7207 20.5786L79.7207 20.0786L77.6426 20.0786L77.6426 20.5786ZM79.7207 20.5786L79.2207 20.574C79.2 22.8234 79.05 24.6497 78.7767 26.0617L79.2676 26.1567L79.7585 26.2517C80.0477 24.7576 80.1997 22.865 80.2207 20.5832L79.7207 20.5786ZM79.2676 26.1567L79.2676 26.6567L80.3301 26.6567L80.3301 26.1567L80.3301 25.6567L79.2676 25.6567L79.2676 26.1567ZM80.3301 26.1567L79.8301 26.1567L79.8301 29.7036L80.3301 29.7036L80.8301 29.7036L80.8301 26.1567L80.3301 26.1567ZM80.3301 29.7036L79.8301 29.7036C79.8301 29.9738 79.8877 30.2699 80.0905 30.5016C80.3044 30.7461 80.5989 30.8286 80.877 30.8286L80.877 30.3286L80.877 29.8286C80.8322 29.8286 80.8151 29.8221 80.8157 29.8223C80.8192 29.8237 80.8318 29.8302 80.8431 29.8431C80.8532 29.8546 80.8502 29.8575 80.8443 29.8371C80.8378 29.8151 80.8301 29.7729 80.8301 29.7036L80.3301 29.7036ZM80.877 30.3286L80.877 30.8286L81.0488 30.8286L81.0488 30.3286L81.0488 29.8286L80.877 29.8286L80.877 30.3286ZM81.0488 30.3286L81.0488 30.8286C81.2527 30.8286 81.4647 30.78 81.65 30.6476C81.8358 30.5148 81.9505 30.3296 82.0154 30.1352L81.541 29.9771L81.0667 29.8189C81.0597 29.8398 81.0544 29.8475 81.0546 29.8472C81.0547 29.847 81.0559 29.8453 81.0586 29.8425C81.0612 29.8398 81.0647 29.8368 81.0688 29.8339C81.0728 29.8309 81.0767 29.8288 81.0798 29.8273C81.0829 29.8258 81.0845 29.8254 81.0841 29.8255C81.0831 29.8258 81.0725 29.8286 81.0488 29.8286L81.0488 30.3286ZM81.541 29.9771L82.0121 30.1446C82.0749 29.9681 82.1234 29.6754 82.1679 29.3229C82.2148 28.9518 82.263 28.4612 82.3128 27.8538L81.8145 27.813L81.3161 27.7722C81.2669 28.3732 81.2201 28.8474 81.1758 29.1976C81.1292 29.5665 81.0905 29.7516 81.0699 29.8095L81.541 29.9771ZM90.1426 16.9536L90.4399 16.5516L90.0981 16.2988L89.7936 16.5956L90.1426 16.9536ZM92.4551 18.8911L92.8024 19.2508L93.1813 18.885L92.7962 18.5256L92.4551 18.8911ZM91.0957 20.2036L90.7314 20.5461L91.0785 20.9152L91.443 20.5633L91.0957 20.2036ZM88.9082 18.1567L88.5592 17.7987L88.1615 18.1863L88.5886 18.5413L88.9082 18.1567ZM99.0801 17.0786L99.5801 17.0786L99.5801 16.5786L99.0801 16.5786L99.0801 17.0786ZM98.6582 31.6333L98.2922 31.2925L98.2862 31.2992L98.6582 31.6333ZM97.1973 32.1489L97.1712 31.6496L97.171 31.6496L97.1973 32.1489ZM95.3457 32.188L94.8539 32.278L94.9275 32.68L95.3361 32.6879L95.3457 32.188ZM94.8145 30.1411L94.8473 29.6422L94.0927 29.5924L94.3425 30.3063L94.8145 30.1411ZM96.7988 30.0396L97.1433 30.4022L97.1524 30.3931L96.7988 30.0396ZM96.9551 17.0786L96.9551 16.5786L96.4551 16.5786L96.4551 17.0786L96.9551 17.0786ZM90.9238 23.0317L91.1564 22.5891L90.6986 22.3486L90.4736 22.8142L90.9238 23.0317ZM92.7676 24.0005L93.2063 24.2404L93.4502 23.7943L93.0001 23.5579L92.7676 24.0005ZM89.5488 28.3521L89.1917 28.0021L88.9584 28.2402L89.0885 28.5472L89.5488 28.3521ZM90.2988 29.5239L89.9422 29.8744L89.9453 29.8775L90.2988 29.5239ZM91.3066 29.9224L91.5071 30.3804L91.5188 30.3753L91.5302 30.3696L91.3066 29.9224ZM91.5957 29.0083L91.1054 28.9102L91.1047 28.9137L91.5957 29.0083ZM91.8457 27.5317L92.0938 27.0976L91.4437 26.7261L91.3497 27.4689L91.8457 27.5317ZM93.752 28.4067L94.2441 28.4951L94.3139 28.1062L93.9516 27.9483L93.752 28.4067ZM87.8301 29.9146L88.2764 29.6892L87.9976 29.1369L87.5161 29.5254L87.8301 29.9146ZM85.4082 31.6099L84.9678 31.8465L85.217 32.3104L85.6674 32.0375L85.4082 31.6099ZM84.2051 29.6724L83.9754 29.2282L83.461 29.4942L83.7992 29.9643L84.2051 29.6724ZM87.1035 27.8052L87.4161 28.1954L87.6621 27.9983L87.5904 27.6914L87.1035 27.8052ZM86.4316 23.1958L86.9304 23.1611L86.8925 22.6164L86.3532 22.702L86.4316 23.1958ZM84.6113 23.4849L84.1188 23.5709L84.2035 24.0559L84.6897 23.9787L84.6113 23.4849ZM84.2676 21.5161L84.1927 21.0218L83.6871 21.0984L83.775 21.6021L84.2676 21.5161ZM86.3301 21.2036L86.405 21.698L86.8518 21.6303L86.8295 21.1789L86.3301 21.2036ZM86.127 17.0942L86.127 16.5942L85.6016 16.5942L85.6276 17.1189L86.127 17.0942ZM88.3301 17.0942L88.83 17.0861L88.822 16.5942L88.3301 16.5942L88.3301 17.0942ZM88.4473 20.8833L87.9478 20.9062L87.9732 21.46L88.5214 21.3778L88.4473 20.8833ZM92.5645 20.2661L93.0579 20.1852L92.9781 19.6985L92.4903 19.7716L92.5645 20.2661ZM92.877 22.1724L92.9555 22.6662L93.4516 22.5872L93.3704 22.0915L92.877 22.1724ZM88.5566 22.8599L88.4781 22.3661L88.0217 22.4387L88.0582 22.8993L88.5566 22.8599ZM88.9551 26.0239L88.4623 26.1089L88.6415 27.1481L89.3327 26.3516L88.9551 26.0239ZM95.5645 28.0161L95.5645 28.5161L96.0645 28.5161L96.0645 28.0161L95.5645 28.0161ZM93.502 28.0161L93.002 28.0161L93.002 28.5161L93.502 28.5161L93.502 28.0161ZM93.502 18.563L93.502 18.063L93.002 18.063L93.002 18.563L93.502 18.563ZM95.5645 18.563L96.0645 18.563L96.0645 18.063L95.5645 18.063L95.5645 18.563ZM90.1426 16.9536L89.8452 17.3556C90.5885 17.9054 91.3448 18.5388 92.1139 19.2566L92.4551 18.8911L92.7962 18.5256C92.0028 17.7851 91.2174 17.1268 90.4399 16.5516L90.1426 16.9536ZM92.4551 18.8911L92.1078 18.5314L90.7484 19.8439L91.0957 20.2036L91.443 20.5633L92.8024 19.2508L92.4551 18.8911ZM91.0957 20.2036L91.46 19.8611C90.7885 19.147 90.0443 18.4508 89.2278 17.7722L88.9082 18.1567L88.5886 18.5413C89.3763 19.196 90.0904 19.8644 90.7314 20.5461L91.0957 20.2036ZM88.9082 18.1567L89.2572 18.5148L90.4916 17.3117L90.1426 16.9536L89.7936 16.5956L88.5592 17.7987L88.9082 18.1567ZM99.0801 17.0786L98.5801 17.0786L98.5801 30.313L99.0801 30.313L99.5801 30.313L99.5801 17.0786L99.0801 17.0786ZM99.0801 30.313L98.5801 30.313C98.5801 30.8155 98.458 31.1145 98.2923 31.2926L98.6582 31.6333L99.0242 31.974C99.4209 31.5479 99.5801 30.9667 99.5801 30.313L99.0801 30.313ZM98.6582 31.6333L98.2862 31.2992C98.1436 31.458 97.8227 31.6156 97.1712 31.6496L97.1973 32.1489L97.2233 32.6482C97.9677 32.6094 98.6207 32.4232 99.0302 31.9674L98.6582 31.6333ZM97.1973 32.1489L97.171 31.6496C96.4871 31.6856 95.8823 31.6982 95.3553 31.6881L95.3457 32.188L95.3361 32.6879C95.8925 32.6986 96.522 32.6852 97.2235 32.6482L97.1973 32.1489ZM95.3457 32.188L95.8375 32.0979C95.6981 31.3362 95.5148 30.6284 95.2864 29.9759L94.8145 30.1411L94.3425 30.3063C94.5516 30.9038 94.7225 31.5606 94.8539 32.278L95.3457 32.188ZM94.8145 30.1411L94.7816 30.64C95.2644 30.6719 95.7104 30.688 96.1191 30.688L96.1191 30.188L96.1191 29.688C95.7362 29.688 95.3124 29.6729 94.8473 29.6422L94.8145 30.1411ZM96.1191 30.188L96.1191 30.688C96.3134 30.688 96.4963 30.6746 96.6575 30.6394C96.8105 30.6059 96.9959 30.542 97.1432 30.4021L96.7988 30.0396L96.4545 29.6771C96.4976 29.6361 96.5176 29.6463 96.4441 29.6624C96.3787 29.6767 96.2738 29.688 96.1191 29.688L96.1191 30.188ZM96.7988 30.0396L97.1524 30.3931C97.409 30.1365 97.4551 29.7511 97.4551 29.438L96.9551 29.438L96.4551 29.438C96.4551 29.5606 96.444 29.6396 96.4321 29.6853C96.4198 29.7327 96.4138 29.7174 96.4453 29.686L96.7988 30.0396ZM96.9551 29.438L97.4551 29.438L97.4551 17.0786L96.9551 17.0786L96.4551 17.0786L96.4551 29.438L96.9551 29.438ZM96.9551 17.0786L96.9551 17.5786L99.0801 17.5786L99.0801 17.0786L99.0801 16.5786L96.9551 16.5786L96.9551 17.0786ZM90.9238 23.0317L90.6913 23.4744L92.535 24.4431L92.7676 24.0005L93.0001 23.5579L91.1564 22.5891L90.9238 23.0317ZM92.7676 24.0005L92.3289 23.7606C91.4704 25.3303 90.4248 26.7437 89.1917 28.0021L89.5488 28.3521L89.906 28.702C91.2041 27.3771 92.3044 25.8894 93.2063 24.2404L92.7676 24.0005ZM89.5488 28.3521L89.0885 28.5472C89.3107 29.0714 89.5925 29.5186 89.9422 29.8744L90.2988 29.5239L90.6554 29.1735C90.4114 28.9251 90.1932 28.5911 90.0092 28.1569L89.5488 28.3521ZM90.2988 29.5239L89.9453 29.8775C90.2655 30.1977 90.6532 30.4771 91.0879 30.4771L91.0879 29.9771L91.0879 29.4771C91.0889 29.4771 91.0532 29.477 90.9716 29.4302C90.8904 29.3835 90.7839 29.3019 90.6524 29.1704L90.2988 29.5239ZM91.0879 29.9771L91.0879 30.4771C91.2433 30.4771 91.387 30.433 91.5071 30.3804L91.3066 29.9224L91.1062 29.4643C91.085 29.4736 91.0726 29.4772 91.0682 29.4783C91.0637 29.4794 91.071 29.4771 91.0879 29.4771L91.0879 29.9771ZM91.3066 29.9224L91.5302 30.3696C91.7045 30.2824 91.7877 30.1255 91.8154 30.0721C91.8568 29.9924 91.8901 29.902 91.9181 29.8134C91.975 29.6335 92.0307 29.3932 92.0867 29.1029L91.5957 29.0083L91.1047 28.9137C91.0513 29.1911 91.0041 29.387 90.9647 29.5118C90.9445 29.5755 90.9313 29.6047 90.9278 29.6115C90.9261 29.6147 90.9325 29.6014 90.9492 29.5806C90.9636 29.5628 91.0061 29.5136 91.083 29.4752L91.3066 29.9224ZM91.5957 29.0083L92.086 29.1064C92.2021 28.5261 92.2877 28.0215 92.3417 27.5945L91.8457 27.5317L91.3497 27.4689C91.2995 27.8649 91.2185 28.3447 91.1054 28.9102L91.5957 29.0083ZM91.8457 27.5317L91.5976 27.9659C91.8457 28.1076 92.5116 28.4118 93.5523 28.8651L93.752 28.4067L93.9516 27.9483C92.8881 27.485 92.2832 27.2058 92.0938 27.0976L91.8457 27.5317ZM93.752 28.4067L93.2598 28.3184C93.116 29.1197 92.966 29.7673 92.8114 30.2668C92.6539 30.7759 92.5029 31.0929 92.3754 31.263L92.7754 31.563L93.1754 31.863C93.4072 31.5539 93.5987 31.1052 93.7667 30.5623C93.9377 30.0098 94.0962 29.3188 94.2441 28.4951L93.752 28.4067ZM92.7754 31.563L92.3754 31.263C92.1075 31.6202 91.7824 31.7817 91.3613 31.7817L91.3613 32.2817L91.3613 32.7817C92.1069 32.7817 92.7246 32.4641 93.1754 31.863L92.7754 31.563ZM91.3613 32.2817L91.3613 31.7817C90.6716 31.7817 90.087 31.6085 89.589 31.2746C89.0874 30.9384 88.6456 30.4203 88.2764 29.6892L87.8301 29.9146L87.3838 30.1399C87.8115 30.9869 88.3566 31.6524 89.0321 32.1053C89.7111 32.5604 90.4938 32.7817 91.3613 32.7817L91.3613 32.2817ZM87.8301 29.9146L87.5161 29.5254C86.7789 30.1203 85.99 30.6726 85.1491 31.1823L85.4082 31.6099L85.6674 32.0375C86.5452 31.5055 87.3709 30.9276 88.1441 30.3037L87.8301 29.9146ZM85.4082 31.6099L85.8487 31.3732C85.4642 30.6577 85.0518 29.9932 84.611 29.3804L84.2051 29.6724L83.7992 29.9643C84.2126 30.539 84.6022 31.1662 84.9678 31.8465L85.4082 31.6099ZM84.2051 29.6724L84.4347 30.1165C85.5294 29.5505 86.5237 28.9104 87.4161 28.1954L87.1035 27.8052L86.7909 27.415C85.9542 28.0853 85.0162 28.6901 83.9754 29.2282L84.2051 29.6724ZM87.1035 27.8052L87.5904 27.6914C87.2638 26.2933 87.0434 24.7836 86.9304 23.1611L86.4316 23.1958L85.9328 23.2305C86.0491 24.8997 86.2765 26.4628 86.6166 27.9189L87.1035 27.8052ZM86.4316 23.1958L86.3532 22.702L84.5329 22.9911L84.6113 23.4849L84.6897 23.9787L86.5101 23.6896L86.4316 23.1958ZM84.6113 23.4849L85.1039 23.3989L84.7601 21.4301L84.2676 21.5161L83.775 21.6021L84.1188 23.5709L84.6113 23.4849ZM84.2676 21.5161L84.3425 22.0105L86.405 21.698L86.3301 21.2036L86.2552 20.7093L84.1927 21.0218L84.2676 21.5161ZM86.3301 21.2036L86.8295 21.1789L86.6263 17.0696L86.127 17.0942L85.6276 17.1189L85.8307 21.2283L86.3301 21.2036ZM86.127 17.0942L86.127 17.5942L88.3301 17.5942L88.3301 17.0942L88.3301 16.5942L86.127 16.5942L86.127 17.0942ZM88.3301 17.0942L87.8301 17.1024C87.8511 18.3833 87.8903 19.6512 87.9478 20.9062L88.4473 20.8833L88.9467 20.8604C88.8897 19.6154 88.8508 18.3573 88.83 17.0861L88.3301 17.0942ZM88.4473 20.8833L88.5214 21.3778L92.6386 20.7606L92.5645 20.2661L92.4903 19.7716L88.3731 20.3888L88.4473 20.8833ZM92.5645 20.2661L92.071 20.347L92.3835 22.2533L92.877 22.1724L93.3704 22.0915L93.0579 20.1852L92.5645 20.2661ZM92.877 22.1724L92.7984 21.6786L88.4781 22.3661L88.5566 22.8599L88.6352 23.3537L92.9555 22.6662L92.877 22.1724ZM88.5566 22.8599L88.0582 22.8993C88.1428 23.9669 88.2775 25.0368 88.4623 26.1089L88.9551 26.0239L89.4478 25.939C89.2681 24.8965 89.1372 23.857 89.0551 22.8204L88.5566 22.8599ZM88.9551 26.0239L89.3327 26.3516C90.1483 25.4118 90.8289 24.3773 91.374 23.2493L90.9238 23.0317L90.4736 22.8142C89.9667 23.8633 89.3347 24.8236 88.5774 25.6962L88.9551 26.0239ZM95.5645 28.0161L95.5645 27.5161L93.502 27.5161L93.502 28.0161L93.502 28.5161L95.5645 28.5161L95.5645 28.0161ZM93.502 28.0161L94.002 28.0161L94.002 18.563L93.502 18.563L93.002 18.563L93.002 28.0161L93.502 28.0161ZM93.502 18.563L93.502 19.063L95.5645 19.063L95.5645 18.563L95.5645 18.063L93.502 18.063L93.502 18.563ZM95.5645 18.563L95.0645 18.563L95.0645 28.0161L95.5645 28.0161L96.0645 28.0161L96.0645 18.563L95.5645 18.563ZM109.799 32.3442L109.799 32.8442L110.299 32.8442L110.299 32.3442L109.799 32.3442ZM107.627 32.3442L107.127 32.3442L107.127 32.8442L107.627 32.8442L107.627 32.3442ZM107.627 25.1724L108.127 25.1724L108.127 24.6724L107.627 24.6724L107.627 25.1724ZM105.158 25.1724L105.158 24.6724L104.658 24.6724L104.658 25.1724L105.158 25.1724ZM105.158 31.1567L105.158 31.6567L105.658 31.6567L105.658 31.1567L105.158 31.1567ZM103.002 31.1567L102.502 31.1567L102.502 31.6567L103.002 31.6567L103.002 31.1567ZM103.002 26.1567L103.502 26.1567L103.502 24.8851L102.636 25.8162L103.002 26.1567ZM101.002 28.0942L100.522 28.2338L100.741 28.9871L101.331 28.4705L101.002 28.0942ZM100.283 25.9067L99.9459 25.5376L99.6931 25.7687L99.8172 26.088L100.283 25.9067ZM104.33 20.9849L104.763 21.2356L105.198 20.4849L104.33 20.4849L104.33 20.9849ZM100.502 20.9849L100.002 20.9849L100.002 21.4849L100.502 21.4849L100.502 20.9849ZM100.502 18.9067L100.502 18.4067L100.002 18.4067L100.002 18.9067L100.502 18.9067ZM105.354 18.9067L105.354 19.4067L105.689 19.4067L105.816 19.0958L105.354 18.9067ZM106.002 17.0005L106.059 16.5037L105.633 16.4551L105.52 16.8683L106.002 17.0005ZM108.189 17.2505L108.666 17.4006L108.848 16.8225L108.246 16.7537L108.189 17.2505ZM107.596 18.9067L107.132 18.7195L106.855 19.4067L107.596 19.4067L107.596 18.9067ZM115.627 18.9067L116.127 18.9067L116.127 18.4067L115.627 18.4067L115.627 18.9067ZM115.627 20.9849L115.627 21.4849L116.127 21.4849L116.127 20.9849L115.627 20.9849ZM106.65 20.9849L106.65 20.4849L106.347 20.4849L106.207 20.7545L106.65 20.9849ZM105.236 23.3442L104.824 23.0617L104.288 23.8442L105.236 23.8442L105.236 23.3442ZM107.627 23.3442L107.627 23.8442L108.127 23.8442L108.127 23.3442L107.627 23.3442ZM107.627 21.3442L107.627 20.8442L107.127 20.8442L107.127 21.3442L107.627 21.3442ZM109.799 21.3442L110.299 21.3442L110.299 20.8442L109.799 20.8442L109.799 21.3442ZM109.799 23.3442L109.299 23.3442L109.299 23.8442L109.799 23.8442L109.799 23.3442ZM114.502 23.3442L115.002 23.3442L115.002 22.8442L114.502 22.8442L114.502 23.3442ZM112.947 30.6646L112.859 30.1724L112.853 30.1734L112.947 30.6646ZM110.768 30.7974L110.274 30.8766L110.341 31.2974L110.768 31.2974L110.768 30.7974ZM110.393 28.7349L110.434 28.2366L109.762 28.1805L109.904 28.8403L110.393 28.7349ZM112.377 25.1724L112.877 25.1724L112.877 24.6724L112.377 24.6724L112.377 25.1724ZM109.799 25.1724L109.799 24.6724L109.299 24.6724L109.299 25.1724L109.799 25.1724ZM109.799 32.3442L109.799 31.8442L107.627 31.8442L107.627 32.3442L107.627 32.8442L109.799 32.8442L109.799 32.3442ZM107.627 32.3442L108.127 32.3442L108.127 25.1724L107.627 25.1724L107.127 25.1724L107.127 32.3442L107.627 32.3442ZM107.627 25.1724L107.627 24.6724L105.158 24.6724L105.158 25.1724L105.158 25.6724L107.627 25.6724L107.627 25.1724ZM105.158 25.1724L104.658 25.1724L104.658 31.1567L105.158 31.1567L105.658 31.1567L105.658 25.1724L105.158 25.1724ZM105.158 31.1567L105.158 30.6567L103.002 30.6567L103.002 31.1567L103.002 31.6567L105.158 31.6567L105.158 31.1567ZM103.002 31.1567L103.502 31.1567L103.502 26.1567L103.002 26.1567L102.502 26.1567L102.502 31.1567L103.002 31.1567ZM103.002 26.1567L102.636 25.8162C102.023 26.4752 101.368 27.1091 100.673 27.718L101.002 28.0942L101.331 28.4705C102.052 27.8398 102.731 27.182 103.368 26.4973L103.002 26.1567ZM101.002 28.0942L101.482 27.9547C101.22 27.0514 100.975 26.3069 100.749 25.7255L100.283 25.9067L99.8172 26.088C100.029 26.6316 100.264 27.3454 100.522 28.2338L101.002 28.0942ZM100.283 25.9067L100.62 26.2758C102.346 24.6994 103.729 23.0199 104.763 21.2356L104.33 20.9849L103.897 20.7341C102.921 22.4186 101.606 24.0203 99.9459 25.5376L100.283 25.9067ZM104.33 20.9849L104.33 20.4849L100.502 20.4849L100.502 20.9849L100.502 21.4849L104.33 21.4849L104.33 20.9849ZM100.502 20.9849L101.002 20.9849L101.002 18.9067L100.502 18.9067L100.002 18.9067L100.002 20.9849L100.502 20.9849ZM100.502 18.9067L100.502 19.4067L105.354 19.4067L105.354 18.9067L105.354 18.4067L100.502 18.4067L100.502 18.9067ZM105.354 18.9067L105.816 19.0958C106.079 18.4524 106.302 17.798 106.484 17.1327L106.002 17.0005L105.52 16.8683C105.348 17.4946 105.138 18.1111 104.891 18.7177L105.354 18.9067ZM106.002 17.0005L105.945 17.4973L108.133 17.7473L108.189 17.2505L108.246 16.7537L106.059 16.5037L106.002 17.0005ZM108.189 17.2505L107.713 17.1003C107.539 17.6504 107.346 18.1901 107.132 18.7195L107.596 18.9067L108.059 19.094C108.283 18.54 108.485 17.9755 108.666 17.4006L108.189 17.2505ZM107.596 18.9067L107.596 19.4067L115.627 19.4067L115.627 18.9067L115.627 18.4067L107.596 18.4067L107.596 18.9067ZM115.627 18.9067L115.127 18.9067L115.127 20.9849L115.627 20.9849L116.127 20.9849L116.127 18.9067L115.627 18.9067ZM115.627 20.9849L115.627 20.4849L106.65 20.4849L106.65 20.9849L106.65 21.4849L115.627 21.4849L115.627 20.9849ZM106.65 20.9849L106.207 20.7545C105.794 21.5488 105.333 22.3179 104.824 23.0617L105.236 23.3442L105.649 23.6268C106.181 22.8497 106.663 22.0459 107.094 21.2153L106.65 20.9849ZM105.236 23.3442L105.236 23.8442L107.627 23.8442L107.627 23.3442L107.627 22.8442L105.236 22.8442L105.236 23.3442ZM107.627 23.3442L108.127 23.3442L108.127 21.3442L107.627 21.3442L107.127 21.3442L107.127 23.3442L107.627 23.3442ZM107.627 21.3442L107.627 21.8442L109.799 21.8442L109.799 21.3442L109.799 20.8442L107.627 20.8442L107.627 21.3442ZM109.799 21.3442L109.299 21.3442L109.299 23.3442L109.799 23.3442L110.299 23.3442L110.299 21.3442L109.799 21.3442ZM109.799 23.3442L109.799 23.8442L114.502 23.8442L114.502 23.3442L114.502 22.8442L109.799 22.8442L109.799 23.3442ZM114.502 23.3442L114.002 23.3442L114.002 28.4067L114.502 28.4067L115.002 28.4067L115.002 23.3442L114.502 23.3442ZM114.502 28.4067L114.002 28.4067C114.002 29.0141 113.872 29.4158 113.675 29.6735L114.072 29.9771L114.47 30.2806C114.846 29.7883 115.002 29.1431 115.002 28.4067L114.502 28.4067ZM114.072 29.9771L113.675 29.6735C113.464 29.9495 113.199 30.1112 112.859 30.1724L112.947 30.6646L113.036 31.1567C113.622 31.0512 114.108 30.7546 114.47 30.2806L114.072 29.9771ZM112.947 30.6646L112.853 30.1734C112.439 30.2526 111.752 30.2974 110.768 30.2974L110.768 30.7974L110.768 31.2974C111.762 31.2974 112.528 31.2536 113.041 31.1557L112.947 30.6646ZM110.768 30.7974L111.261 30.7181C111.125 29.8699 110.999 29.1728 110.881 28.6294L110.393 28.7349L109.904 28.8403C110.016 29.3594 110.139 30.0373 110.274 30.8766L110.768 30.7974ZM110.393 28.7349L110.351 29.2331C110.845 29.2743 111.191 29.2974 111.361 29.2974L111.361 28.7974L111.361 28.2974C111.24 28.2974 110.94 28.2787 110.434 28.2366L110.393 28.7349ZM111.361 28.7974L111.361 29.2974C111.791 29.2974 112.201 29.1761 112.494 28.8512C112.779 28.536 112.877 28.1125 112.877 27.6724L112.377 27.6724L111.877 27.6724C111.877 27.9822 111.806 28.1212 111.752 28.1811C111.707 28.2312 111.609 28.2974 111.361 28.2974L111.361 28.7974ZM112.377 27.6724L112.877 27.6724L112.877 25.1724L112.377 25.1724L111.877 25.1724L111.877 27.6724L112.377 27.6724ZM112.377 25.1724L112.377 24.6724L109.799 24.6724L109.799 25.1724L109.799 25.6724L112.377 25.6724L112.377 25.1724ZM109.799 25.1724L109.299 25.1724L109.299 32.3442L109.799 32.3442L110.299 32.3442L110.299 25.1724L109.799 25.1724ZM117.689 17.5942L117.689 17.0942L117.189 17.0942L117.189 17.5942L117.689 17.5942ZM130.424 17.5942L130.924 17.5942L130.924 17.0942L130.424 17.0942L130.424 17.5942ZM130.424 22.3911L130.424 22.8911L130.924 22.8911L130.924 22.3911L130.424 22.3911ZM119.908 22.3911L119.908 21.8911L119.416 21.8911L119.408 22.3833L119.908 22.3911ZM119.9 23.3599L119.4 23.3599L119.4 23.8599L119.9 23.8599L119.9 23.3599ZM131.127 23.3599L131.627 23.368L131.635 22.8599L131.127 22.8599L131.127 23.3599ZM131.025 29.6177L131.525 29.6275L131.525 29.6258L131.025 29.6177ZM129.822 32.1099L129.613 31.6559L129.61 31.6571L129.822 32.1099ZM125.893 32.3442L125.398 32.4161L125.46 32.8442L125.893 32.8442L125.893 32.3442ZM125.486 30.313L125.507 29.8134L124.839 29.7856L125.001 30.4343L125.486 30.313ZM128.4 30.1958L128.686 30.6061L128.694 30.6002L128.4 30.1958ZM128.729 29.7505L129.211 29.8821L129.212 29.8784L128.729 29.7505ZM128.838 26.938L129.338 26.9457L129.338 26.9446L128.838 26.938ZM128.861 25.1567L129.361 25.1633L129.368 24.6567L128.861 24.6567L128.861 25.1567ZM119.854 25.1567L119.854 24.6567L119.354 24.6567L119.354 25.1559L119.854 25.1567ZM117.971 32.3599L117.595 32.6898L118.01 33.1621L118.377 32.6516L117.971 32.3599ZM116.252 30.4849L115.824 30.2262L115.624 30.5576L115.895 30.8345L116.252 30.4849ZM117.369 27.5005L117.861 27.5918L117.861 27.5914L117.369 27.5005ZM117.689 22.6099L118.189 22.6123L118.189 22.6099L117.689 22.6099ZM128.205 20.5942L128.205 21.0942L128.705 21.0942L128.705 20.5942L128.205 20.5942ZM128.205 19.3911L128.705 19.3911L128.705 18.8911L128.205 18.8911L128.205 19.3911ZM119.908 19.3911L119.908 18.8911L119.408 18.8911L119.408 19.3911L119.908 19.3911ZM119.908 20.5942L119.408 20.5942L119.408 21.0942L119.908 21.0942L119.908 20.5942ZM127.252 25.9849L127.752 25.9849L127.752 25.4849L127.252 25.4849L127.252 25.9849ZM127.252 29.8911L127.252 30.3911L127.752 30.3911L127.752 29.8911L127.252 29.8911ZM122.814 29.8911L122.814 29.3911L122.314 29.3911L122.314 29.8911L122.814 29.8911ZM122.814 30.6411L122.814 31.1411L123.314 31.1411L123.314 30.6411L122.814 30.6411ZM120.814 30.6411L120.314 30.6411L120.314 31.1411L120.814 31.1411L120.814 30.6411ZM120.814 25.9849L120.814 25.4849L120.314 25.4849L120.314 25.9849L120.814 25.9849ZM122.814 27.4067L122.814 26.9067L122.314 26.9067L122.314 27.4067L122.814 27.4067ZM122.814 28.4692L122.314 28.4692L122.314 28.9692L122.814 28.9692L122.814 28.4692ZM125.252 28.4692L125.252 28.9692L125.752 28.9692L125.752 28.4692L125.252 28.4692ZM125.252 27.4067L125.752 27.4067L125.752 26.9067L125.252 26.9067L125.252 27.4067ZM117.689 17.5942L117.689 18.0942L130.424 18.0942L130.424 17.5942L130.424 17.0942L117.689 17.0942L117.689 17.5942ZM130.424 17.5942L129.924 17.5942L129.924 22.3911L130.424 22.3911L130.924 22.3911L130.924 17.5942L130.424 17.5942ZM130.424 22.3911L130.424 21.8911L119.908 21.8911L119.908 22.3911L119.908 22.8911L130.424 22.8911L130.424 22.3911ZM119.908 22.3911L119.408 22.3833C119.403 22.7191 119.4 23.0446 119.4 23.3599L119.9 23.3599L120.4 23.3599C120.4 23.0501 120.403 22.7298 120.408 22.3989L119.908 22.3911ZM119.9 23.3599L119.9 23.8599L131.127 23.8599L131.127 23.3599L131.127 22.8599L119.9 22.8599L119.9 23.3599ZM131.127 23.3599L130.627 23.3517L130.525 29.6096L131.025 29.6177L131.525 29.6258L131.627 23.368L131.127 23.3599ZM131.025 29.6177L130.525 29.6079C130.51 30.3826 130.392 30.8427 130.243 31.077L130.666 31.3442L131.089 31.6115C131.388 31.1374 131.509 30.4465 131.525 29.6275L131.025 29.6177ZM130.666 31.3442L130.243 31.077C130.064 31.3601 129.853 31.5449 129.613 31.6559L129.822 32.1099L130.032 32.5638C130.468 32.3623 130.82 32.0367 131.089 31.6115L130.666 31.3442ZM129.822 32.1099L129.61 31.6571C129.612 31.656 129.593 31.6649 129.536 31.6782C129.483 31.6908 129.412 31.7041 129.319 31.7174C129.132 31.744 128.881 31.7674 128.56 31.7865C127.92 31.8247 127.032 31.8442 125.893 31.8442L125.893 32.3442L125.893 32.8442C127.04 32.8442 127.95 32.8247 128.62 32.7848C128.954 32.7648 129.235 32.7394 129.46 32.7074C129.668 32.6776 129.878 32.636 130.034 32.5626L129.822 32.1099ZM125.893 32.3442L126.387 32.2724C126.291 31.6081 126.152 30.9145 125.971 30.1917L125.486 30.313L125.001 30.4343C125.175 31.1282 125.307 31.7887 125.398 32.4161L125.893 32.3442ZM125.486 30.313L125.466 30.8126C126.466 30.8542 127.196 30.8755 127.65 30.8755L127.65 30.3755L127.65 29.8755C127.219 29.8755 126.507 29.8551 125.507 29.8134L125.486 30.313ZM127.65 30.3755L127.65 30.8755C128.027 30.8755 128.395 30.8088 128.686 30.606L128.4 30.1958L128.114 29.7856C128.062 29.8224 127.93 29.8755 127.65 29.8755L127.65 30.3755ZM128.4 30.1958L128.694 30.6002C128.94 30.4217 129.129 30.1838 129.211 29.882L128.729 29.7505L128.246 29.6189C128.235 29.661 128.205 29.7199 128.106 29.7914L128.4 30.1958ZM128.729 29.7505L129.212 29.8784C129.237 29.7819 129.251 29.6433 129.26 29.5124C129.271 29.3645 129.281 29.1709 129.291 28.934C129.309 28.4594 129.325 27.7959 129.338 26.9457L128.838 26.938L128.338 26.9303C128.325 27.7779 128.309 28.4322 128.291 28.8951C128.282 29.1269 128.273 29.3071 128.263 29.4378C128.252 29.5856 128.243 29.6305 128.245 29.6225L128.729 29.7505ZM128.838 26.938L129.338 26.9446L129.361 25.1633L128.861 25.1567L128.361 25.1502L128.338 26.9314L128.838 26.938ZM128.861 25.1567L128.861 24.6567L119.854 24.6567L119.854 25.1567L119.854 25.6567L128.861 25.6567L128.861 25.1567ZM119.854 25.1567L119.354 25.1559C119.348 28.1572 118.733 30.4427 117.565 32.0681L117.971 32.3599L118.377 32.6516C119.709 30.7979 120.348 28.2813 120.354 25.1576L119.854 25.1567ZM117.971 32.3599L118.346 32.0299C117.666 31.2555 117.087 30.6232 116.609 30.1352L116.252 30.4849L115.895 30.8345C116.355 31.3049 116.921 31.9226 117.595 32.6898L117.971 32.3599ZM116.252 30.4849L116.68 30.7436C117.255 29.7931 117.647 28.741 117.861 27.5918L117.369 27.5005L116.878 27.4092C116.685 28.4475 116.333 29.385 115.824 30.2262L116.252 30.4849ZM117.369 27.5005L117.861 27.5914C118.072 26.4475 118.179 24.7814 118.189 22.6123L117.689 22.6099L117.189 22.6075C117.179 24.7613 117.072 26.3555 116.877 27.4096L117.369 27.5005ZM117.689 22.6099L118.189 22.6099L118.189 17.5942L117.689 17.5942L117.189 17.5942L117.189 22.6099L117.689 22.6099ZM128.205 20.5942L128.705 20.5942L128.705 19.3911L128.205 19.3911L127.705 19.3911L127.705 20.5942L128.205 20.5942ZM128.205 19.3911L128.205 18.8911L119.908 18.8911L119.908 19.3911L119.908 19.8911L128.205 19.8911L128.205 19.3911ZM119.908 19.3911L119.408 19.3911L119.408 20.5942L119.908 20.5942L120.408 20.5942L120.408 19.3911L119.908 19.3911ZM119.908 20.5942L119.908 21.0942L128.205 21.0942L128.205 20.5942L128.205 20.0942L119.908 20.0942L119.908 20.5942ZM127.252 25.9849L126.752 25.9849L126.752 29.8911L127.252 29.8911L127.752 29.8911L127.752 25.9849L127.252 25.9849ZM127.252 29.8911L127.252 29.3911L122.814 29.3911L122.814 29.8911L122.814 30.3911L127.252 30.3911L127.252 29.8911ZM122.814 29.8911L122.314 29.8911L122.314 30.6411L122.814 30.6411L123.314 30.6411L123.314 29.8911L122.814 29.8911ZM122.814 30.6411L122.814 30.1411L120.814 30.1411L120.814 30.6411L120.814 31.1411L122.814 31.1411L122.814 30.6411ZM120.814 30.6411L121.314 30.6411L121.314 25.9849L120.814 25.9849L120.314 25.9849L120.314 30.6411L120.814 30.6411ZM120.814 25.9849L120.814 26.4849L127.252 26.4849L127.252 25.9849L127.252 25.4849L120.814 25.4849L120.814 25.9849ZM122.814 27.4067L122.314 27.4067L122.314 28.4692L122.814 28.4692L123.314 28.4692L123.314 27.4067L122.814 27.4067ZM122.814 28.4692L122.814 28.9692L125.252 28.9692L125.252 28.4692L125.252 27.9692L122.814 27.9692L122.814 28.4692ZM125.252 28.4692L125.752 28.4692L125.752 27.4067L125.252 27.4067L124.752 27.4067L124.752 28.4692L125.252 28.4692ZM125.252 27.4067L125.252 26.9067L122.814 26.9067L122.814 27.4067L122.814 27.9067L125.252 27.9067L125.252 27.4067Z" fill="url(#paint14_linear_2204_5835)" mask="url(#path-11-outside-1_2204_5835)"/>
</g>
<g id="2" filter="url(#filter4_d_2204_5835)">
<path d="M47.1602 27.5508L51.3306 27.5508L51.3306 29.2583L44.7925 29.2583L44.7925 28.5283C44.7925 28.0163 44.8856 27.5487 45.0718 27.1255C45.2622 26.7023 45.5225 26.3088 45.8525 25.9448C46.1826 25.5767 46.6947 25.1471 47.3887 24.6563C48.0234 24.1823 48.4678 23.7633 48.7217 23.3994C48.9756 23.0313 49.1025 22.6419 49.1025 22.2314C49.1025 21.347 48.6201 20.9048 47.6553 20.9048C46.8089 20.9048 46.0007 21.2433 45.2305 21.9204L45.2305 20.0923C46.0895 19.5379 47.0544 19.2607 48.125 19.2607C49.1068 19.2607 49.8833 19.5125 50.4546 20.0161C51.0259 20.5155 51.3115 21.2052 51.3115 22.0854C51.3115 22.5763 51.229 23.0207 51.064 23.4185C50.8989 23.812 50.6598 24.1823 50.3467 24.5293C50.0335 24.8763 49.5321 25.2931 48.8423 25.7798C48.1779 26.2537 47.7314 26.6198 47.5029 26.8779C47.2744 27.1361 47.1602 27.3604 47.1602 27.5508Z" fill="white"/>
</g>
</g>
<defs>
<filter id="filter0_f_2204_5835" x="0.292969" y="0.0673828" width="170.988" height="15.3003" filterUnits="userSpaceOnUse" color-interpolation-filters="sRGB">
<feFlood flood-opacity="0" result="BackgroundImageFix"/>
<feBlend mode="normal" in="SourceGraphic" in2="BackgroundImageFix" result="shape"/>
<feGaussianBlur stdDeviation="3" result="effect1_foregroundBlur_2204_5835"/>
</filter>
<filter id="filter1_f_2204_5835" x="0.292969" y="33.0674" width="170.988" height="15.3003" filterUnits="userSpaceOnUse" color-interpolation-filters="sRGB">
<feFlood flood-opacity="0" result="BackgroundImageFix"/>
<feBlend mode="normal" in="SourceGraphic" in2="BackgroundImageFix" result="shape"/>
<feGaussianBlur stdDeviation="3" result="effect1_foregroundBlur_2204_5835"/>
</filter>
<filter id="filter2_f_2204_5835" x="4.29297" y="39.0674" width="162.988" height="5" filterUnits="userSpaceOnUse" color-interpolation-filters="sRGB">
<feFlood flood-opacity="0" result="BackgroundImageFix"/>
<feBlend mode="normal" in="SourceGraphic" in2="BackgroundImageFix" result="shape"/>
<feGaussianBlur stdDeviation="1" result="effect1_foregroundBlur_2204_5835"/>
</filter>
<filter id="filter3_f_2204_5835" x="4.29297" y="4.06738" width="162.988" height="5" filterUnits="userSpaceOnUse" color-interpolation-filters="sRGB">
<feFlood flood-opacity="0" result="BackgroundImageFix"/>
<feBlend mode="normal" in="SourceGraphic" in2="BackgroundImageFix" result="shape"/>
<feGaussianBlur stdDeviation="1" result="effect1_foregroundBlur_2204_5835"/>
</filter>
<filter id="filter4_d_2204_5835" x="43.793" y="19.2607" width="8.53906" height="11.9976" filterUnits="userSpaceOnUse" color-interpolation-filters="sRGB">
<feFlood flood-opacity="0" result="BackgroundImageFix"/>
<feColorMatrix in="SourceAlpha" type="matrix" values="0 0 0 0 0 0 0 0 0 0 0 0 0 0 0 0 0 0 127 0" result="hardAlpha"/>
<feOffset dy="1"/>
<feGaussianBlur stdDeviation="0.5"/>
<feComposite in2="hardAlpha" operator="out"/>
<feColorMatrix type="matrix" values="0 0 0 0 1 0 0 0 0 0.517552 0 0 0 0 0.00183164 0 0 0 1 0"/>
<feBlend mode="normal" in2="BackgroundImageFix" result="effect1_dropShadow_2204_5835"/>
<feBlend mode="normal" in="SourceGraphic" in2="effect1_dropShadow_2204_5835" result="shape"/>
</filter>
<linearGradient id="paint0_linear_2204_5835" x1="6.29297" y1="24.0583" x2="165.281" y2="24.0583" gradientUnits="userSpaceOnUse">
<stop stop-color="#4F91FD"/>
<stop offset="0.525723" stop-color="#A2C9FF" stop-opacity="0.6"/>
<stop offset="1" stop-color="#488CFD"/>
</linearGradient>
<linearGradient id="paint1_linear_2204_5835" x1="6.29297" y1="24.0583" x2="165.281" y2="24.0583" gradientUnits="userSpaceOnUse">
<stop stop-color="#FFDB7E" stop-opacity="0.1"/>
<stop offset="0.525723" stop-color="#FFF677"/>
<stop offset="1" stop-color="#FFDB7E"/>
</linearGradient>
<linearGradient id="paint2_linear_2204_5835" x1="6.29297" y1="24.0583" x2="165.281" y2="24.0583" gradientUnits="userSpaceOnUse">
<stop stop-color="#FFC438"/>
<stop offset="1" stop-color="#FFB11F"/>
</linearGradient>
<linearGradient id="paint3_linear_2204_5835" x1="6.29297" y1="24.0583" x2="165.281" y2="24.0583" gradientUnits="userSpaceOnUse">
<stop stop-color="#FFC52D" stop-opacity="0.9"/>
<stop offset="0.525723" stop-color="#FFF677"/>
<stop offset="1" stop-color="#FFC52D" stop-opacity="0.9"/>
</linearGradient>
<linearGradient id="paint4_linear_2204_5835" x1="6.29297" y1="24.0583" x2="165.281" y2="24.0583" gradientUnits="userSpaceOnUse">
<stop stop-color="#FFB900"/>
<stop offset="1" stop-color="#FFAB0F"/>
</linearGradient>
<linearGradient id="paint5_linear_2204_5835" x1="6.29297" y1="7.71753" x2="165.281" y2="7.71753" gradientUnits="userSpaceOnUse">
<stop stop-color="white" stop-opacity="0.6"/>
<stop offset="0.525723" stop-color="#A2FFFD" stop-opacity="0.6"/>
<stop offset="1" stop-color="white" stop-opacity="0.6"/>
</linearGradient>
<linearGradient id="paint6_linear_2204_5835" x1="6.29297" y1="40.7175" x2="165.281" y2="40.7175" gradientUnits="userSpaceOnUse">
<stop stop-color="white" stop-opacity="0.6"/>
<stop offset="0.525723" stop-color="#A2FFFD" stop-opacity="0.6"/>
<stop offset="1" stop-color="white" stop-opacity="0.6"/>
</linearGradient>
<linearGradient id="paint7_linear_2204_5835" x1="6.29297" y1="41.5674" x2="165.281" y2="41.5674" gradientUnits="userSpaceOnUse">
<stop stop-color="white" stop-opacity="0.9"/>
<stop offset="0.525723" stop-color="#EBFFFF"/>
<stop offset="1" stop-color="white" stop-opacity="0.9"/>
</linearGradient>
<linearGradient id="paint8_linear_2204_5835" x1="6.29297" y1="6.56738" x2="165.281" y2="6.56738" gradientUnits="userSpaceOnUse">
<stop stop-color="white" stop-opacity="0.9"/>
<stop offset="0.525723" stop-color="#EBFFFF"/>
<stop offset="1" stop-color="white" stop-opacity="0.9"/>
</linearGradient>
<linearGradient id="paint9_linear_2204_5835" x1="146.061" y1="24.0422" x2="-12.9272" y2="24.0422" gradientUnits="userSpaceOnUse">
<stop stop-color="#FF8C00"/>
<stop offset="1" stop-color="#FFB700"/>
</linearGradient>
<linearGradient id="paint10_linear_2204_5835" x1="146.061" y1="24.0422" x2="-12.9272" y2="24.0422" gradientUnits="userSpaceOnUse">
<stop stop-color="#FFB11F"/>
<stop offset="1" stop-color="#FFD979"/>
</linearGradient>
<linearGradient id="paint11_linear_2204_5835" x1="54.9782" y1="24.2578" x2="36.9782" y2="24.2578" gradientUnits="userSpaceOnUse">
<stop stop-color="#FFA806"/>
<stop offset="1" stop-color="#FFE284"/>
</linearGradient>
<linearGradient id="paint12_linear_2204_5835" x1="48.1211" y1="37.143" x2="48.1211" y2="15.2578" gradientUnits="userSpaceOnUse">
<stop stop-color="#FFEAC4"/>
<stop offset="1" stop-color="#FFF5D4"/>
</linearGradient>
<linearGradient id="paint13_linear_2204_5835" x1="100.002" y1="17.2583" x2="100.002" y2="30.2583" gradientUnits="userSpaceOnUse">
<stop stop-color="#FFA908"/>
<stop offset="1" stop-color="#FF8C00"/>
</linearGradient>
<linearGradient id="paint14_linear_2204_5835" x1="100.002" y1="30.2583" x2="100.002" y2="17.2583" gradientUnits="userSpaceOnUse">
<stop stop-color="#FFCE78"/>
<stop offset="1" stop-color="#FFF5D4"/>
</linearGradient>
</defs>
</svg>
