<svg width="172" height="49" viewBox="0 0 172 49" fill="none" xmlns="http://www.w3.org/2000/svg">
<g id="3&#229;&#134;&#133;&#233;&#131;&#168;&#229;&#184;&#131;&#229;&#177;&#128;-&#233;&#187;&#152;&#232;&#174;&#164;">
<g id="Group 1321315616">
<mask id="mask0_2204_5851" style="mask-type:alpha" maskUnits="userSpaceOnUse" x="6" y="6" width="160" height="36">
<rect id="Rectangle 34628613" x="6.29297" y="6.01611" width="158.988" height="35.9819" fill="url(#paint0_linear_2204_5851)"/>
</mask>
<g mask="url(#mask0_2204_5851)">
<rect id="Rectangle 34628616" x="6.29297" y="6.01611" width="158.988" height="35.9819" fill="url(#paint1_linear_2204_5851)"/>
</g>
</g>
<g id="Rectangle 34628615" filter="url(#filter0_f_2204_5851)">
<rect x="6.29297" y="6.01611" width="158.988" height="3.30029" fill="url(#paint2_linear_2204_5851)"/>
</g>
<g id="Rectangle 34628616_2" filter="url(#filter1_f_2204_5851)">
<rect x="6.29297" y="39.0161" width="158.988" height="3.30029" fill="url(#paint3_linear_2204_5851)"/>
</g>
<g id="Rectangle 34628617" filter="url(#filter2_f_2204_5851)">
<rect x="6.29297" y="41.0161" width="158.988" height="1" fill="url(#paint4_linear_2204_5851)"/>
</g>
<g id="Rectangle 34628618" filter="url(#filter3_f_2204_5851)">
<rect x="6.29297" y="6.01611" width="158.988" height="1" fill="url(#paint5_linear_2204_5851)"/>
</g>
<rect id="Rectangle 34628621" x="6.29297" y="6.01611" width="158.988" height="35.9819" stroke="url(#paint6_linear_2204_5851)"/>
<path id="Rectangle 34628619" d="M6 10.9955L6 6L11.9368 6M6 36.9865L6 41.9819L11.9368 41.9819M164.988 10.9955L164.988 6L159.052 6M164.988 36.9865L164.988 41.9819L159.052 41.9819" stroke="url(#paint7_linear_2204_5851)" stroke-width="2"/>
<path id="Rectangle 34628620" d="M6 10.9955L6 6L11.9368 6M6 36.9865L6 41.9819L11.9368 41.9819M164.988 10.9955L164.988 6L159.052 6M164.988 36.9865L164.988 41.9819L159.052 41.9819" stroke="url(#paint8_linear_2204_5851)"/>
<path id="Vector" d="M48.1211 15.7065C50.4954 15.7065 52.4946 16.5289 54.1484 18.1812C55.6987 19.7301 56.5183 21.5834 56.6123 23.7651L56.6211 24.2056C56.6182 26.5806 55.7957 28.5809 54.1475 30.2349C52.6032 31.7843 50.7503 32.6038 48.5635 32.6978L48.1221 32.7065L48.1211 32.7065C45.8934 32.7065 43.9976 31.9842 42.4092 30.5337L42.0957 30.2339C40.4435 28.5801 39.6211 26.5808 39.6211 24.2065C39.6211 21.9806 40.3442 20.0853 41.7959 18.4956L42.0957 18.1812C43.748 16.5288 45.7467 15.7065 48.1211 15.7065Z" fill="url(#paint9_linear_2204_5851)" stroke="url(#paint10_linear_2204_5851)"/>
<path id="&#229;&#134;&#133;&#233;&#131;&#168;&#229;&#184;&#131;&#229;&#177;&#128;" d="M69.2207 19.3398L75.0176 19.3398C75.0436 18.4492 75.0592 17.6107 75.0645 16.8242L77.1113 16.8242C77.1113 17.7409 77.1035 18.5794 77.0879 19.3398L82.8145 19.3398L82.8145 29.543C82.8145 30.3242 82.6348 30.9206 82.2754 31.332C81.9212 31.7487 81.4004 31.9857 80.7129 32.043C80.0254 32.1003 79.0801 32.1159 77.877 32.0898C77.7624 31.4961 77.6061 30.8138 77.4082 30.043C78.1061 30.0951 78.7832 30.1211 79.4395 30.1211C79.7988 30.1211 80.0514 30.0977 80.1973 30.0508C80.3431 30.0039 80.4603 29.9023 80.5488 29.7461C80.6426 29.5846 80.6895 29.3763 80.6895 29.1211L80.6895 21.3867L77.0332 21.3867C76.9707 22.2201 76.8796 22.9388 76.7598 23.543C77.8379 24.3242 79.1113 25.3138 80.5801 26.5117L79.002 28.0898C78.3092 27.3763 77.3145 26.4466 76.0176 25.3008C75.3509 26.431 74.3561 27.4336 73.0332 28.3086C72.502 27.6836 71.9655 27.1367 71.4238 26.668C73.6426 25.3346 74.8197 23.5742 74.9551 21.3867L71.3457 21.3867L71.3457 32.2148L69.2207 32.2148L69.2207 19.3398ZM92.7207 20.3555L90.666 20.3555L92.3613 21.043C92.0228 21.5742 91.6556 22.1263 91.2598 22.6992L93.0645 22.6992L93.0645 24.4492L84.2988 24.4492L84.2988 22.6992L86.166 22.6992C85.8639 22.2305 85.5176 21.7409 85.127 21.2305L86.6504 20.3555L84.6582 20.3555L84.6582 18.6055L87.6895 18.6055C87.5228 18.1211 87.3405 17.6628 87.1426 17.2305L89.4863 16.8398C89.6895 17.3711 89.8796 17.9596 90.0566 18.6055L92.7207 18.6055L92.7207 20.3555ZM88.2676 22.1055L87.1973 22.6992L88.9238 22.6992C89.4395 21.9128 89.8691 21.1315 90.2129 20.3555L86.9004 20.3555C87.5098 21.0534 87.9655 21.6367 88.2676 22.1055ZM97.752 23.418C99.0749 24.7409 99.7363 26.1732 99.7363 27.7148C99.7363 28.5742 99.5046 29.2461 99.041 29.7305C98.5827 30.2096 97.6322 30.4388 96.1895 30.418C96.1165 29.6784 95.9863 28.9284 95.7988 28.168C96.1999 28.2305 96.4889 28.2617 96.666 28.2617C97.3066 28.2617 97.627 27.944 97.627 27.3086C97.627 26.1419 97.002 24.9076 95.752 23.6055C96.2936 22.3242 96.804 20.9492 97.2832 19.4805L95.5801 19.4805L95.5801 32.3242L93.5801 32.3242L93.5801 17.668L99.4395 17.668L99.4395 19.168C99.0749 20.168 98.5124 21.5846 97.752 23.418ZM85.002 31.9648L85.002 25.6367L92.3613 25.6367L92.3613 31.8711L90.3926 31.8711L90.3926 31.0742L86.9707 31.0742L86.9707 31.9648L85.002 31.9648ZM90.3926 27.3867L86.9707 27.3867L86.9707 29.3242L90.3926 29.3242L90.3926 27.3867ZM109.799 32.293L107.627 32.293L107.627 25.1211L105.158 25.1211L105.158 31.1055L103.002 31.1055L103.002 26.1055C102.377 26.7773 101.71 27.4232 101.002 28.043C100.742 27.1471 100.502 26.418 100.283 25.8555C101.976 24.3086 103.325 22.668 104.33 20.9336L100.502 20.9336L100.502 18.8555L105.354 18.8555C105.609 18.2305 105.825 17.5951 106.002 16.9492L108.189 17.1992C108.012 17.7617 107.814 18.3138 107.596 18.8555L115.627 18.8555L115.627 20.9336L106.65 20.9336C106.229 21.7461 105.757 22.5326 105.236 23.293L107.627 23.293L107.627 21.293L109.799 21.293L109.799 23.293L114.502 23.293L114.502 28.3555C114.502 29.0273 114.359 29.5508 114.072 29.9258C113.786 30.3008 113.411 30.5299 112.947 30.6133C112.484 30.7018 111.757 30.7461 110.768 30.7461C110.632 29.9023 110.507 29.2148 110.393 28.6836C110.893 28.7253 111.215 28.7461 111.361 28.7461C112.038 28.7461 112.377 28.3711 112.377 27.6211L112.377 25.1211L109.799 25.1211L109.799 32.293ZM117.689 17.543L130.424 17.543L130.424 22.3398L119.908 22.3398C119.903 22.6732 119.9 22.9961 119.9 23.3086L131.127 23.3086L131.025 29.5664C131.01 30.3633 130.89 30.9388 130.666 31.293C130.442 31.6471 130.161 31.9023 129.822 32.0586C129.489 32.2148 128.179 32.293 125.893 32.293C125.799 31.6471 125.663 30.9701 125.486 30.2617C126.486 30.3034 127.208 30.3242 127.65 30.3242C127.979 30.3242 128.229 30.2643 128.4 30.1445C128.572 30.0195 128.682 29.8711 128.729 29.6992C128.775 29.5221 128.812 28.5846 128.838 26.8867L128.861 25.1055L119.854 25.1055C119.848 28.168 119.221 30.569 117.971 32.3086C117.294 31.5378 116.721 30.9128 116.252 30.4336C116.794 29.5378 117.166 28.543 117.369 27.4492C117.572 26.3503 117.679 24.7201 117.689 22.5586L117.689 17.543ZM128.205 20.543L128.205 19.3398L119.908 19.3398L119.908 20.543L128.205 20.543ZM127.252 25.9336L127.252 29.8398L122.814 29.8398L122.814 30.5898L120.814 30.5898L120.814 25.9336L127.252 25.9336ZM122.814 27.3555L122.814 28.418L125.252 28.418L125.252 27.3555L122.814 27.3555Z" fill="url(#paint11_linear_2204_5851)"/>
<g id="3" filter="url(#filter4_d_2204_5851)">
<path d="M45.1162 27.0679C45.7721 27.5588 46.5381 27.8042 47.4141 27.8042C47.9684 27.8042 48.4085 27.6815 48.7344 27.436C49.0602 27.1906 49.2231 26.8415 49.2231 26.3887C49.2231 25.9232 49.0285 25.5677 48.6392 25.3223C48.2541 25.0768 47.7124 24.9541 47.0142 24.9541L46.1382 24.9541L46.1382 23.3735L46.9443 23.3735C48.2646 23.3735 48.9248 22.9292 48.9248 22.0405C48.9248 21.2026 48.4191 20.7837 47.4077 20.7837C46.7476 20.7837 46.1064 20.9995 45.4844 21.4312L45.4844 19.7363C46.1615 19.3851 46.9591 19.2095 47.8774 19.2095C48.8084 19.2095 49.5638 19.4253 50.1436 19.8569C50.7233 20.2843 51.0132 20.8789 51.0132 21.6406C51.0132 22.9271 50.3615 23.7354 49.0581 24.0654L49.0581 24.0972C49.7437 24.1733 50.2917 24.4251 50.7021 24.8525C51.1126 25.2757 51.3179 25.792 51.3179 26.4014C51.3179 27.3366 50.9751 28.0666 50.2896 28.5913C49.6082 29.116 48.6984 29.3784 47.5601 29.3784C46.5487 29.3784 45.734 29.2113 45.1162 28.877L45.1162 27.0679Z" fill="white"/>
</g>
</g>
<defs>
<filter id="filter0_f_2204_5851" x="0.292969" y="0.0161133" width="170.988" height="15.3003" filterUnits="userSpaceOnUse" color-interpolation-filters="sRGB">
<feFlood flood-opacity="0" result="BackgroundImageFix"/>
<feBlend mode="normal" in="SourceGraphic" in2="BackgroundImageFix" result="shape"/>
<feGaussianBlur stdDeviation="3" result="effect1_foregroundBlur_2204_5851"/>
</filter>
<filter id="filter1_f_2204_5851" x="0.292969" y="33.0161" width="170.988" height="15.3003" filterUnits="userSpaceOnUse" color-interpolation-filters="sRGB">
<feFlood flood-opacity="0" result="BackgroundImageFix"/>
<feBlend mode="normal" in="SourceGraphic" in2="BackgroundImageFix" result="shape"/>
<feGaussianBlur stdDeviation="3" result="effect1_foregroundBlur_2204_5851"/>
</filter>
<filter id="filter2_f_2204_5851" x="4.29297" y="39.0161" width="162.988" height="5" filterUnits="userSpaceOnUse" color-interpolation-filters="sRGB">
<feFlood flood-opacity="0" result="BackgroundImageFix"/>
<feBlend mode="normal" in="SourceGraphic" in2="BackgroundImageFix" result="shape"/>
<feGaussianBlur stdDeviation="1" result="effect1_foregroundBlur_2204_5851"/>
</filter>
<filter id="filter3_f_2204_5851" x="4.29297" y="4.01611" width="162.988" height="5" filterUnits="userSpaceOnUse" color-interpolation-filters="sRGB">
<feFlood flood-opacity="0" result="BackgroundImageFix"/>
<feBlend mode="normal" in="SourceGraphic" in2="BackgroundImageFix" result="shape"/>
<feGaussianBlur stdDeviation="1" result="effect1_foregroundBlur_2204_5851"/>
</filter>
<filter id="filter4_d_2204_5851" x="44.1172" y="19.2095" width="8.19922" height="12.1689" filterUnits="userSpaceOnUse" color-interpolation-filters="sRGB">
<feFlood flood-opacity="0" result="BackgroundImageFix"/>
<feColorMatrix in="SourceAlpha" type="matrix" values="0 0 0 0 0 0 0 0 0 0 0 0 0 0 0 0 0 0 127 0" result="hardAlpha"/>
<feOffset dy="1"/>
<feGaussianBlur stdDeviation="0.5"/>
<feComposite in2="hardAlpha" operator="out"/>
<feColorMatrix type="matrix" values="0 0 0 0 0.227451 0 0 0 0 0.513726 0 0 0 0 0.988235 0 0 0 1 0"/>
<feBlend mode="normal" in2="BackgroundImageFix" result="effect1_dropShadow_2204_5851"/>
<feBlend mode="normal" in="SourceGraphic" in2="effect1_dropShadow_2204_5851" result="shape"/>
</filter>
<linearGradient id="paint0_linear_2204_5851" x1="6.29297" y1="24.0071" x2="165.281" y2="24.0071" gradientUnits="userSpaceOnUse">
<stop stop-color="#4F91FD"/>
<stop offset="0.525723" stop-color="#A2C9FF" stop-opacity="0.6"/>
<stop offset="1" stop-color="#488CFD"/>
</linearGradient>
<linearGradient id="paint1_linear_2204_5851" x1="6.29297" y1="24.0071" x2="165.281" y2="24.0071" gradientUnits="userSpaceOnUse">
<stop stop-color="#A2C9FF" stop-opacity="0.9"/>
<stop offset="0.525723" stop-color="#70E5FF" stop-opacity="0.6"/>
<stop offset="1" stop-color="#A2C9FF" stop-opacity="0.9"/>
</linearGradient>
<linearGradient id="paint2_linear_2204_5851" x1="6.29297" y1="7.66626" x2="165.281" y2="7.66626" gradientUnits="userSpaceOnUse">
<stop stop-color="white" stop-opacity="0.6"/>
<stop offset="0.525723" stop-color="#A2FFFD" stop-opacity="0.6"/>
<stop offset="1" stop-color="white" stop-opacity="0.6"/>
</linearGradient>
<linearGradient id="paint3_linear_2204_5851" x1="6.29297" y1="40.6663" x2="165.281" y2="40.6663" gradientUnits="userSpaceOnUse">
<stop stop-color="white" stop-opacity="0.6"/>
<stop offset="0.525723" stop-color="#A2FFFD" stop-opacity="0.6"/>
<stop offset="1" stop-color="white" stop-opacity="0.6"/>
</linearGradient>
<linearGradient id="paint4_linear_2204_5851" x1="6.29297" y1="41.5161" x2="165.281" y2="41.5161" gradientUnits="userSpaceOnUse">
<stop stop-color="white" stop-opacity="0.9"/>
<stop offset="0.525723" stop-color="#EBFFFF"/>
<stop offset="1" stop-color="white" stop-opacity="0.9"/>
</linearGradient>
<linearGradient id="paint5_linear_2204_5851" x1="6.29297" y1="6.51611" x2="165.281" y2="6.51611" gradientUnits="userSpaceOnUse">
<stop stop-color="white" stop-opacity="0.9"/>
<stop offset="0.525723" stop-color="#EBFFFF"/>
<stop offset="1" stop-color="white" stop-opacity="0.9"/>
</linearGradient>
<linearGradient id="paint6_linear_2204_5851" x1="6.29297" y1="24.0071" x2="165.281" y2="24.0071" gradientUnits="userSpaceOnUse">
<stop stop-color="#6DD7FF"/>
<stop offset="1" stop-color="#7DBEFF"/>
</linearGradient>
<linearGradient id="paint7_linear_2204_5851" x1="146.061" y1="23.991" x2="-12.9272" y2="23.991" gradientUnits="userSpaceOnUse">
<stop stop-color="#419FFF"/>
<stop offset="1" stop-color="#47B3FF"/>
</linearGradient>
<linearGradient id="paint8_linear_2204_5851" x1="146.061" y1="23.991" x2="-12.9272" y2="23.991" gradientUnits="userSpaceOnUse">
<stop stop-color="#7EBEFF"/>
<stop offset="1" stop-color="#8BE3FF"/>
</linearGradient>
<linearGradient id="paint9_linear_2204_5851" x1="54.9782" y1="24.2065" x2="36.9782" y2="24.2065" gradientUnits="userSpaceOnUse">
<stop stop-color="#5997FD"/>
<stop offset="1" stop-color="#58D7FF"/>
</linearGradient>
<linearGradient id="paint10_linear_2204_5851" x1="39.1211" y1="24.2065" x2="57.0955" y2="24.8848" gradientUnits="userSpaceOnUse">
<stop stop-color="#D6F0FF"/>
<stop offset="1" stop-color="#C4E8FF"/>
</linearGradient>
<linearGradient id="paint11_linear_2204_5851" x1="100.002" y1="17.207" x2="100.002" y2="30.207" gradientUnits="userSpaceOnUse">
<stop stop-color="#666666"/>
<stop offset="1"/>
</linearGradient>
</defs>
</svg>
