<svg width="172" height="49" viewBox="0 0 172 49" fill="none" xmlns="http://www.w3.org/2000/svg">
<g id="3&#229;&#134;&#133;&#233;&#131;&#168;&#229;&#184;&#131;&#229;&#177;&#128;-&#231;&#130;&#185;&#229;&#135;&#187;&#233;&#162;&#156;&#232;&#137;&#178;">
<g id="Group 1321315616">
<mask id="mask0_2204_5866" style="mask-type:alpha" maskUnits="userSpaceOnUse" x="6" y="6" width="160" height="37">
<rect id="Rectangle 34628613" x="6.29297" y="6.06738" width="158.988" height="35.9819" fill="url(#paint0_linear_2204_5866)"/>
</mask>
<g mask="url(#mask0_2204_5866)">
<rect id="Rectangle 34628616" x="6.29297" y="6.06738" width="158.988" height="35.9819" fill="url(#paint1_linear_2204_5866)" stroke="url(#paint2_linear_2204_5866)"/>
</g>
</g>
<rect id="Rectangle 34628617" x="6.29297" y="6.06738" width="158.988" height="35.9819" fill="url(#paint3_linear_2204_5866)" stroke="url(#paint4_linear_2204_5866)"/>
<g id="Rectangle 34628615" filter="url(#filter0_f_2204_5866)">
<rect x="6.29297" y="6.06738" width="158.988" height="3.30029" fill="url(#paint5_linear_2204_5866)"/>
</g>
<g id="Rectangle 34628616_2" filter="url(#filter1_f_2204_5866)">
<rect x="6.29297" y="39.0674" width="158.988" height="3.30029" fill="url(#paint6_linear_2204_5866)"/>
</g>
<g id="Rectangle 34628617_2" filter="url(#filter2_f_2204_5866)">
<rect x="6.29297" y="41.0674" width="158.988" height="1" fill="url(#paint7_linear_2204_5866)"/>
</g>
<g id="Rectangle 34628618" filter="url(#filter3_f_2204_5866)">
<rect x="6.29297" y="6.06738" width="158.988" height="1" fill="url(#paint8_linear_2204_5866)"/>
</g>
<path id="Rectangle 34628619" d="M6 11.0468L6 6.05127L11.9368 6.05127M6 37.0377L6 42.0332L11.9368 42.0332M164.988 11.0468L164.988 6.05127L159.052 6.05127M164.988 37.0377L164.988 42.0332L159.052 42.0332" stroke="url(#paint9_linear_2204_5866)" stroke-width="2"/>
<path id="Rectangle 34628620" d="M6 11.0468L6 6.05127L11.9368 6.05127M6 37.0377L6 42.0332L11.9368 42.0332M164.988 11.0468L164.988 6.05127L159.052 6.05127M164.988 37.0377L164.988 42.0332L159.052 42.0332" stroke="url(#paint10_linear_2204_5866)"/>
<path id="Vector" d="M48.1211 15.7578C50.4954 15.7578 52.4946 16.5802 54.1484 18.2324C55.6987 19.7813 56.5183 21.6347 56.6123 23.8164L56.6211 24.2568C56.6182 26.6319 55.7957 28.6322 54.1475 30.2861C52.6032 31.8355 50.7503 32.655 48.5635 32.749L48.1221 32.7578L48.1211 32.7578C45.8934 32.7578 43.9976 32.0355 42.4092 30.585L42.0957 30.2852C40.4435 28.6314 39.6211 26.6321 39.6211 24.2578C39.6211 22.0319 40.3442 20.1366 41.7959 18.5469L42.0957 18.2324C43.748 16.5801 45.7467 15.7578 48.1211 15.7578Z" fill="url(#paint11_linear_2204_5866)" stroke="url(#paint12_linear_2204_5866)"/>
<g id="&#229;&#134;&#133;&#233;&#131;&#168;&#229;&#184;&#131;&#229;&#177;&#128;">
<mask id="path-11-outside-1_2204_5866" maskUnits="userSpaceOnUse" x="68.125" y="16.2583" width="64" height="17" fill="black">
<rect fill="white" x="68.125" y="16.2583" width="64" height="17"/>
<path d="M69.2207 19.3911L75.0176 19.3911C75.0436 18.5005 75.0592 17.6619 75.0645 16.8755L77.1113 16.8755C77.1113 17.7922 77.1035 18.6307 77.0879 19.3911L82.8145 19.3911L82.8145 29.5942C82.8145 30.3755 82.6348 30.9718 82.2754 31.3833C81.9212 31.8 81.4004 32.0369 80.7129 32.0942C80.0254 32.1515 79.0801 32.1672 77.877 32.1411C77.7624 31.5474 77.6061 30.8651 77.4082 30.0942C78.1061 30.1463 78.7832 30.1724 79.4395 30.1724C79.7988 30.1724 80.0514 30.1489 80.1973 30.1021C80.3431 30.0552 80.4603 29.9536 80.5488 29.7974C80.6426 29.6359 80.6895 29.4276 80.6895 29.1724L80.6895 21.438L77.0332 21.438C76.9707 22.2713 76.8796 22.9901 76.7598 23.5942C77.8379 24.3755 79.1113 25.3651 80.5801 26.563L79.002 28.1411C78.3092 27.4276 77.3145 26.4979 76.0176 25.3521C75.3509 26.4823 74.3561 27.4849 73.0332 28.3599C72.502 27.7349 71.9655 27.188 71.4238 26.7192C73.6426 25.3859 74.8197 23.6255 74.9551 21.438L71.3457 21.438L71.3457 32.2661L69.2207 32.2661L69.2207 19.3911ZM92.7207 20.4067L90.666 20.4067L92.3613 21.0942C92.0228 21.6255 91.6556 22.1776 91.2598 22.7505L93.0645 22.7505L93.0645 24.5005L84.2988 24.5005L84.2988 22.7505L86.166 22.7505C85.8639 22.2817 85.5176 21.7922 85.127 21.2817L86.6504 20.4067L84.6582 20.4067L84.6582 18.6567L87.6895 18.6567C87.5228 18.1724 87.3405 17.714 87.1426 17.2817L89.4863 16.8911C89.6895 17.4224 89.8796 18.0109 90.0566 18.6567L92.7207 18.6567L92.7207 20.4067ZM88.2676 22.1567L87.1973 22.7505L88.9238 22.7505C89.4395 21.964 89.8691 21.1828 90.2129 20.4067L86.9004 20.4067C87.5098 21.1047 87.9655 21.688 88.2676 22.1567ZM97.752 23.4692C99.0749 24.7922 99.7363 26.2244 99.7363 27.7661C99.7363 28.6255 99.5046 29.2974 99.041 29.7817C98.5827 30.2609 97.6322 30.4901 96.1895 30.4692C96.1165 29.7297 95.9863 28.9797 95.7988 28.2192C96.1999 28.2817 96.4889 28.313 96.666 28.313C97.3066 28.313 97.627 27.9953 97.627 27.3599C97.627 26.1932 97.002 24.9588 95.752 23.6567C96.2936 22.3755 96.804 21.0005 97.2832 19.5317L95.5801 19.5317L95.5801 32.3755L93.5801 32.3755L93.5801 17.7192L99.4395 17.7192L99.4395 19.2192C99.0749 20.2192 98.5124 21.6359 97.752 23.4692ZM85.002 32.0161L85.002 25.688L92.3613 25.688L92.3613 31.9224L90.3926 31.9224L90.3926 31.1255L86.9707 31.1255L86.9707 32.0161L85.002 32.0161ZM90.3926 27.438L86.9707 27.438L86.9707 29.3755L90.3926 29.3755L90.3926 27.438ZM109.799 32.3442L107.627 32.3442L107.627 25.1724L105.158 25.1724L105.158 31.1567L103.002 31.1567L103.002 26.1567C102.377 26.8286 101.71 27.4744 101.002 28.0942C100.742 27.1984 100.502 26.4692 100.283 25.9067C101.976 24.3599 103.325 22.7192 104.33 20.9849L100.502 20.9849L100.502 18.9067L105.354 18.9067C105.609 18.2817 105.825 17.6463 106.002 17.0005L108.189 17.2505C108.012 17.813 107.814 18.3651 107.596 18.9067L115.627 18.9067L115.627 20.9849L106.65 20.9849C106.229 21.7974 105.757 22.5838 105.236 23.3442L107.627 23.3442L107.627 21.3442L109.799 21.3442L109.799 23.3442L114.502 23.3442L114.502 28.4067C114.502 29.0786 114.359 29.6021 114.072 29.9771C113.786 30.3521 113.411 30.5812 112.947 30.6646C112.484 30.7531 111.757 30.7974 110.768 30.7974C110.632 29.9536 110.507 29.2661 110.393 28.7349C110.893 28.7765 111.215 28.7974 111.361 28.7974C112.038 28.7974 112.377 28.4224 112.377 27.6724L112.377 25.1724L109.799 25.1724L109.799 32.3442ZM117.689 17.5942L130.424 17.5942L130.424 22.3911L119.908 22.3911C119.903 22.7244 119.9 23.0474 119.9 23.3599L131.127 23.3599L131.025 29.6177C131.01 30.4146 130.89 30.9901 130.666 31.3442C130.442 31.6984 130.161 31.9536 129.822 32.1099C129.489 32.2661 128.179 32.3442 125.893 32.3442C125.799 31.6984 125.663 31.0213 125.486 30.313C126.486 30.3547 127.208 30.3755 127.65 30.3755C127.979 30.3755 128.229 30.3156 128.4 30.1958C128.572 30.0708 128.682 29.9224 128.729 29.7505C128.775 29.5734 128.812 28.6359 128.838 26.938L128.861 25.1567L119.854 25.1567C119.848 28.2192 119.221 30.6203 117.971 32.3599C117.294 31.589 116.721 30.964 116.252 30.4849C116.794 29.589 117.166 28.5942 117.369 27.5005C117.572 26.4015 117.679 24.7713 117.689 22.6099L117.689 17.5942ZM128.205 20.5942L128.205 19.3911L119.908 19.3911L119.908 20.5942L128.205 20.5942ZM127.252 25.9849L127.252 29.8911L122.814 29.8911L122.814 30.6411L120.814 30.6411L120.814 25.9849L127.252 25.9849ZM122.814 27.4067L122.814 28.4692L125.252 28.4692L125.252 27.4067L122.814 27.4067Z"/>
</mask>
<path d="M69.2207 19.3911L75.0176 19.3911C75.0436 18.5005 75.0592 17.6619 75.0645 16.8755L77.1113 16.8755C77.1113 17.7922 77.1035 18.6307 77.0879 19.3911L82.8145 19.3911L82.8145 29.5942C82.8145 30.3755 82.6348 30.9718 82.2754 31.3833C81.9212 31.8 81.4004 32.0369 80.7129 32.0942C80.0254 32.1515 79.0801 32.1672 77.877 32.1411C77.7624 31.5474 77.6061 30.8651 77.4082 30.0942C78.1061 30.1463 78.7832 30.1724 79.4395 30.1724C79.7988 30.1724 80.0514 30.1489 80.1973 30.1021C80.3431 30.0552 80.4603 29.9536 80.5488 29.7974C80.6426 29.6359 80.6895 29.4276 80.6895 29.1724L80.6895 21.438L77.0332 21.438C76.9707 22.2713 76.8796 22.9901 76.7598 23.5942C77.8379 24.3755 79.1113 25.3651 80.5801 26.563L79.002 28.1411C78.3092 27.4276 77.3145 26.4979 76.0176 25.3521C75.3509 26.4823 74.3561 27.4849 73.0332 28.3599C72.502 27.7349 71.9655 27.188 71.4238 26.7192C73.6426 25.3859 74.8197 23.6255 74.9551 21.438L71.3457 21.438L71.3457 32.2661L69.2207 32.2661L69.2207 19.3911ZM92.7207 20.4067L90.666 20.4067L92.3613 21.0942C92.0228 21.6255 91.6556 22.1776 91.2598 22.7505L93.0645 22.7505L93.0645 24.5005L84.2988 24.5005L84.2988 22.7505L86.166 22.7505C85.8639 22.2817 85.5176 21.7922 85.127 21.2817L86.6504 20.4067L84.6582 20.4067L84.6582 18.6567L87.6895 18.6567C87.5228 18.1724 87.3405 17.714 87.1426 17.2817L89.4863 16.8911C89.6895 17.4224 89.8796 18.0109 90.0566 18.6567L92.7207 18.6567L92.7207 20.4067ZM88.2676 22.1567L87.1973 22.7505L88.9238 22.7505C89.4395 21.964 89.8691 21.1828 90.2129 20.4067L86.9004 20.4067C87.5098 21.1047 87.9655 21.688 88.2676 22.1567ZM97.752 23.4692C99.0749 24.7922 99.7363 26.2244 99.7363 27.7661C99.7363 28.6255 99.5046 29.2974 99.041 29.7817C98.5827 30.2609 97.6322 30.4901 96.1895 30.4692C96.1165 29.7297 95.9863 28.9797 95.7988 28.2192C96.1999 28.2817 96.4889 28.313 96.666 28.313C97.3066 28.313 97.627 27.9953 97.627 27.3599C97.627 26.1932 97.002 24.9588 95.752 23.6567C96.2936 22.3755 96.804 21.0005 97.2832 19.5317L95.5801 19.5317L95.5801 32.3755L93.5801 32.3755L93.5801 17.7192L99.4395 17.7192L99.4395 19.2192C99.0749 20.2192 98.5124 21.6359 97.752 23.4692ZM85.002 32.0161L85.002 25.688L92.3613 25.688L92.3613 31.9224L90.3926 31.9224L90.3926 31.1255L86.9707 31.1255L86.9707 32.0161L85.002 32.0161ZM90.3926 27.438L86.9707 27.438L86.9707 29.3755L90.3926 29.3755L90.3926 27.438ZM109.799 32.3442L107.627 32.3442L107.627 25.1724L105.158 25.1724L105.158 31.1567L103.002 31.1567L103.002 26.1567C102.377 26.8286 101.71 27.4744 101.002 28.0942C100.742 27.1984 100.502 26.4692 100.283 25.9067C101.976 24.3599 103.325 22.7192 104.33 20.9849L100.502 20.9849L100.502 18.9067L105.354 18.9067C105.609 18.2817 105.825 17.6463 106.002 17.0005L108.189 17.2505C108.012 17.813 107.814 18.3651 107.596 18.9067L115.627 18.9067L115.627 20.9849L106.65 20.9849C106.229 21.7974 105.757 22.5838 105.236 23.3442L107.627 23.3442L107.627 21.3442L109.799 21.3442L109.799 23.3442L114.502 23.3442L114.502 28.4067C114.502 29.0786 114.359 29.6021 114.072 29.9771C113.786 30.3521 113.411 30.5812 112.947 30.6646C112.484 30.7531 111.757 30.7974 110.768 30.7974C110.632 29.9536 110.507 29.2661 110.393 28.7349C110.893 28.7765 111.215 28.7974 111.361 28.7974C112.038 28.7974 112.377 28.4224 112.377 27.6724L112.377 25.1724L109.799 25.1724L109.799 32.3442ZM117.689 17.5942L130.424 17.5942L130.424 22.3911L119.908 22.3911C119.903 22.7244 119.9 23.0474 119.9 23.3599L131.127 23.3599L131.025 29.6177C131.01 30.4146 130.89 30.9901 130.666 31.3442C130.442 31.6984 130.161 31.9536 129.822 32.1099C129.489 32.2661 128.179 32.3442 125.893 32.3442C125.799 31.6984 125.663 31.0213 125.486 30.313C126.486 30.3547 127.208 30.3755 127.65 30.3755C127.979 30.3755 128.229 30.3156 128.4 30.1958C128.572 30.0708 128.682 29.9224 128.729 29.7505C128.775 29.5734 128.812 28.6359 128.838 26.938L128.861 25.1567L119.854 25.1567C119.848 28.2192 119.221 30.6203 117.971 32.3599C117.294 31.589 116.721 30.964 116.252 30.4849C116.794 29.589 117.166 28.5942 117.369 27.5005C117.572 26.4015 117.679 24.7713 117.689 22.6099L117.689 17.5942ZM128.205 20.5942L128.205 19.3911L119.908 19.3911L119.908 20.5942L128.205 20.5942ZM127.252 25.9849L127.252 29.8911L122.814 29.8911L122.814 30.6411L120.814 30.6411L120.814 25.9849L127.252 25.9849ZM122.814 27.4067L122.814 28.4692L125.252 28.4692L125.252 27.4067L122.814 27.4067Z" fill="url(#paint13_linear_2204_5866)"/>
<path d="M69.2207 19.3911L69.2207 18.8911L68.7207 18.8911L68.7207 19.3911L69.2207 19.3911ZM75.0176 19.3911L75.0176 19.8911L75.5032 19.8911L75.5174 19.4057L75.0176 19.3911ZM75.0645 16.8755L75.0645 16.3755L74.5678 16.3755L74.5645 16.8722L75.0645 16.8755ZM77.1113 16.8755L77.6113 16.8755L77.6113 16.3755L77.1113 16.3755L77.1113 16.8755ZM77.0879 19.3911L76.588 19.3808L76.5775 19.8911L77.0879 19.8911L77.0879 19.3911ZM82.8145 19.3911L83.3145 19.3911L83.3145 18.8911L82.8145 18.8911L82.8145 19.3911ZM82.2754 31.3833L81.8988 31.0544L81.8944 31.0595L82.2754 31.3833ZM77.877 32.1411L77.386 32.2359L77.4625 32.6323L77.8661 32.641L77.877 32.1411ZM77.4082 30.0942L77.4454 29.5956L76.7507 29.5438L76.9239 30.2186L77.4082 30.0942ZM80.5488 29.7974L80.1164 29.5463L80.1138 29.5509L80.5488 29.7974ZM80.6895 21.438L81.1895 21.438L81.1895 20.938L80.6895 20.938L80.6895 21.438ZM77.0332 21.438L77.0332 20.938L76.5693 20.938L76.5346 21.4006L77.0332 21.438ZM76.7598 23.5942L76.2693 23.497L76.207 23.8112L76.4664 23.9991L76.7598 23.5942ZM80.5801 26.563L80.9336 26.9165L81.3249 26.5253L80.8961 26.1755L80.5801 26.563ZM79.002 28.1411L78.6432 28.4894L78.9967 28.8535L79.3555 28.4947L79.002 28.1411ZM76.0176 25.3521L76.3486 24.9774L75.8947 24.5763L75.5869 25.098L76.0176 25.3521ZM73.0332 28.3599L72.6522 28.6837L72.9393 29.0214L73.309 28.7769L73.0332 28.3599ZM71.4238 26.7192L71.1663 26.2907L70.5751 26.646L71.0966 27.0973L71.4238 26.7192ZM74.9551 21.438L75.4541 21.4689L75.487 20.938L74.9551 20.938L74.9551 21.438ZM71.3457 21.438L71.3457 20.938L70.8457 20.938L70.8457 21.438L71.3457 21.438ZM71.3457 32.2661L71.3457 32.7661L71.8457 32.7661L71.8457 32.2661L71.3457 32.2661ZM69.2207 32.2661L68.7207 32.2661L68.7207 32.7661L69.2207 32.7661L69.2207 32.2661ZM69.2207 19.3911L69.2207 19.8911L75.0176 19.8911L75.0176 19.3911L75.0176 18.8911L69.2207 18.8911L69.2207 19.3911ZM75.0176 19.3911L75.5174 19.4057C75.5435 18.5118 75.5592 17.6695 75.5644 16.8788L75.0645 16.8755L74.5645 16.8722C74.5593 17.6544 74.5437 18.4892 74.5178 19.3765L75.0176 19.3911ZM75.0645 16.8755L75.0645 17.3755L77.1113 17.3755L77.1113 16.8755L77.1113 16.3755L75.0645 16.3755L75.0645 16.8755ZM77.1113 16.8755L76.6113 16.8755C76.6113 17.7894 76.6035 18.6245 76.588 19.3808L77.0879 19.3911L77.5878 19.4014C77.6035 18.6369 77.6113 17.7949 77.6113 16.8755L77.1113 16.8755ZM77.0879 19.3911L77.0879 19.8911L82.8145 19.8911L82.8145 19.3911L82.8145 18.8911L77.0879 18.8911L77.0879 19.3911ZM82.8145 19.3911L82.3145 19.3911L82.3145 29.5942L82.8145 29.5942L83.3145 29.5942L83.3145 19.3911L82.8145 19.3911ZM82.8145 29.5942L82.3145 29.5942C82.3145 30.3059 82.1503 30.7664 81.8988 31.0544L82.2754 31.3833L82.652 31.7122C83.1192 31.1773 83.3145 30.4451 83.3145 29.5942L82.8145 29.5942ZM82.2754 31.3833L81.8944 31.0595C81.6469 31.3507 81.2634 31.5466 80.6714 31.596L80.7129 32.0942L80.7544 32.5925C81.5374 32.5273 82.1956 32.2492 82.6564 31.7071L82.2754 31.3833ZM80.7129 32.0942L80.6714 31.596C80.0095 31.6511 79.0842 31.6671 77.8878 31.6412L77.877 32.1411L77.8661 32.641C79.0759 32.6672 80.0413 32.6519 80.7544 32.5925L80.7129 32.0942ZM77.877 32.1411L78.3679 32.0464C78.2509 31.4402 78.0922 30.7477 77.8925 29.9699L77.4082 30.0942L76.9239 30.2186C77.12 30.9825 77.2738 31.6546 77.386 32.2359L77.877 32.1411ZM77.4082 30.0942L77.371 30.5929C78.0805 30.6458 78.77 30.6724 79.4395 30.6724L79.4395 30.1724L79.4395 29.6724C78.7964 29.6724 78.1318 29.6468 77.4454 29.5956L77.4082 30.0942ZM79.4395 30.1724L79.4395 30.6724C79.7998 30.6724 80.1227 30.6512 80.3503 30.5781L80.1973 30.1021L80.0443 29.626C79.9802 29.6466 79.7979 29.6724 79.4395 29.6724L79.4395 30.1724ZM80.1973 30.1021L80.3503 30.5781C80.6358 30.4863 80.8448 30.2893 80.9838 30.0439L80.5488 29.7974L80.1138 29.5509C80.0758 29.618 80.0504 29.6241 80.0443 29.626L80.1973 30.1021ZM80.5488 29.7974L80.9812 30.0484C81.1326 29.7877 81.1895 29.4847 81.1895 29.1724L80.6895 29.1724L80.1895 29.1724C80.1895 29.3704 80.1526 29.4841 80.1164 29.5463L80.5488 29.7974ZM80.6895 29.1724L81.1895 29.1724L81.1895 21.438L80.6895 21.438L80.1895 21.438L80.1895 29.1724L80.6895 29.1724ZM80.6895 21.438L80.6895 20.938L77.0332 20.938L77.0332 21.438L77.0332 21.938L80.6895 21.938L80.6895 21.438ZM77.0332 21.438L76.5346 21.4006C76.4731 22.2204 76.3841 22.9181 76.2693 23.497L76.7598 23.5942L77.2502 23.6915C77.375 23.062 77.4683 22.3222 77.5318 21.4754L77.0332 21.438ZM76.7598 23.5942L76.4664 23.9991C77.5343 24.773 78.7999 25.7563 80.2641 26.9505L80.5801 26.563L80.8961 26.1755C79.4228 24.9739 78.1414 23.978 77.0532 23.1894L76.7598 23.5942ZM80.5801 26.563L80.2265 26.2094L78.6484 27.7876L79.002 28.1411L79.3555 28.4947L80.9336 26.9165L80.5801 26.563ZM79.002 28.1411L79.3607 27.7928C78.6549 27.0659 77.6492 26.1264 76.3486 24.9774L76.0176 25.3521L75.6865 25.7268C76.9797 26.8693 77.9635 27.7893 78.6432 28.4894L79.002 28.1411ZM76.0176 25.3521L75.5869 25.098C74.966 26.1506 74.03 27.1011 72.7574 27.9428L73.0332 28.3599L73.309 28.7769C74.6822 27.8686 75.7358 26.8139 76.4482 25.6061L76.0176 25.3521ZM73.0332 28.3599L73.4142 28.036C72.8687 27.3943 72.3145 26.8288 71.751 26.3412L71.4238 26.7192L71.0966 27.0973C71.6165 27.5472 72.1352 28.0754 72.6522 28.6837L73.0332 28.3599ZM71.4238 26.7192L71.6814 27.1478C74.0118 25.7473 75.3066 23.852 75.4541 21.4689L74.9551 21.438L74.456 21.4071C74.3327 23.399 73.2733 25.0245 71.1663 26.2907L71.4238 26.7192ZM74.9551 21.438L74.9551 20.938L71.3457 20.938L71.3457 21.438L71.3457 21.938L74.9551 21.938L74.9551 21.438ZM71.3457 21.438L70.8457 21.438L70.8457 32.2661L71.3457 32.2661L71.8457 32.2661L71.8457 21.438L71.3457 21.438ZM71.3457 32.2661L71.3457 31.7661L69.2207 31.7661L69.2207 32.2661L69.2207 32.7661L71.3457 32.7661L71.3457 32.2661ZM69.2207 32.2661L69.7207 32.2661L69.7207 19.3911L69.2207 19.3911L68.7207 19.3911L68.7207 32.2661L69.2207 32.2661ZM92.7207 20.4067L92.7207 20.9067L93.2207 20.9067L93.2207 20.4067L92.7207 20.4067ZM90.666 20.4067L90.666 19.9067L90.4781 20.8701L90.666 20.4067ZM92.3613 21.0942L92.783 21.3629L93.1057 20.8566L92.5492 20.6309L92.3613 21.0942ZM91.2598 22.7505L90.8484 22.4663L90.3066 23.2505L91.2598 23.2505L91.2598 22.7505ZM93.0645 22.7505L93.5645 22.7505L93.5645 22.2505L93.0645 22.2505L93.0645 22.7505ZM93.0645 24.5005L93.0645 25.0005L93.5645 25.0005L93.5645 24.5005L93.0645 24.5005ZM84.2988 24.5005L83.7988 24.5005L83.7988 25.0005L84.2988 25.0005L84.2988 24.5005ZM84.2988 22.7505L84.2988 22.2505L83.7988 22.2505L83.7988 22.7505L84.2988 22.7505ZM86.166 22.7505L86.166 23.2505L87.0831 23.2505L86.5863 22.4796L86.166 22.7505ZM85.127 21.2817L84.8779 20.8482L84.383 21.1324L84.7299 21.5856L85.127 21.2817ZM86.6504 20.4067L86.8994 20.8403L88.5248 19.9067L86.6504 19.9067L86.6504 20.4067ZM84.6582 20.4067L84.1582 20.4067L84.1582 20.9067L84.6582 20.9067L84.6582 20.4067ZM84.6582 18.6567L84.6582 18.1567L84.1582 18.1567L84.1582 18.6567L84.6582 18.6567ZM87.6895 18.6567L87.6895 19.1567L88.3903 19.1567L88.1622 18.4941L87.6895 18.6567ZM87.1426 17.2817L87.0604 16.7885L86.416 16.8959L86.688 17.4899L87.1426 17.2817ZM89.4863 16.8911L89.9534 16.7125L89.8074 16.3307L89.4041 16.3979L89.4863 16.8911ZM90.0566 18.6567L89.5744 18.789L89.6753 19.1567L90.0566 19.1567L90.0566 18.6567ZM92.7207 18.6567L93.2207 18.6567L93.2207 18.1567L92.7207 18.1567L92.7207 18.6567ZM88.2676 22.1567L88.5101 22.594L88.9772 22.3349L88.6879 21.8859L88.2676 22.1567ZM87.1973 22.7505L86.9547 22.3133L85.2652 23.2505L87.1973 23.2505L87.1973 22.7505ZM88.9238 22.7505L88.9238 23.2505L89.1939 23.2505L89.342 23.0246L88.9238 22.7505ZM90.2129 20.4067L90.67 20.6092L90.9812 19.9067L90.2129 19.9067L90.2129 20.4067ZM86.9004 20.4067L86.9004 19.9067L85.8001 19.9067L86.5238 20.7356L86.9004 20.4067ZM97.752 23.4692L97.2901 23.2777L97.162 23.5864L97.3984 23.8228L97.752 23.4692ZM99.041 29.7817L98.6798 29.436L98.6797 29.4361L99.041 29.7817ZM96.1895 30.4692L95.6919 30.5183L95.7357 30.9627L96.1822 30.9692L96.1895 30.4692ZM95.7988 28.2192L95.8758 27.7252L95.1335 27.6095L95.3134 28.3389L95.7988 28.2192ZM95.752 23.6567L95.2914 23.462L95.1632 23.7654L95.3913 24.003L95.752 23.6567ZM97.2832 19.5317L97.7585 19.6868L97.9723 19.0317L97.2832 19.0317L97.2832 19.5317ZM95.5801 19.5317L95.5801 19.0317L95.0801 19.0317L95.0801 19.5317L95.5801 19.5317ZM95.5801 32.3755L95.5801 32.8755L96.0801 32.8755L96.0801 32.3755L95.5801 32.3755ZM93.5801 32.3755L93.0801 32.3755L93.0801 32.8755L93.5801 32.8755L93.5801 32.3755ZM93.5801 17.7192L93.5801 17.2192L93.0801 17.2192L93.0801 17.7192L93.5801 17.7192ZM99.4395 17.7192L99.9395 17.7192L99.9395 17.2192L99.4395 17.2192L99.4395 17.7192ZM99.4395 19.2192L99.9092 19.3905L99.9395 19.3075L99.9395 19.2192L99.4395 19.2192ZM85.002 32.0161L84.502 32.0161L84.502 32.5161L85.002 32.5161L85.002 32.0161ZM85.002 25.688L85.002 25.188L84.502 25.188L84.502 25.688L85.002 25.688ZM92.3613 25.688L92.8613 25.688L92.8613 25.188L92.3613 25.188L92.3613 25.688ZM92.3613 31.9224L92.3613 32.4224L92.8613 32.4224L92.8613 31.9224L92.3613 31.9224ZM90.3926 31.9224L89.8926 31.9224L89.8926 32.4224L90.3926 32.4224L90.3926 31.9224ZM90.3926 31.1255L90.8926 31.1255L90.8926 30.6255L90.3926 30.6255L90.3926 31.1255ZM86.9707 31.1255L86.9707 30.6255L86.4707 30.6255L86.4707 31.1255L86.9707 31.1255ZM86.9707 32.0161L86.9707 32.5161L87.4707 32.5161L87.4707 32.0161L86.9707 32.0161ZM90.3926 27.438L90.8926 27.438L90.8926 26.938L90.3926 26.938L90.3926 27.438ZM86.9707 27.438L86.9707 26.938L86.4707 26.938L86.4707 27.438L86.9707 27.438ZM86.9707 29.3755L86.4707 29.3755L86.4707 29.8755L86.9707 29.8755L86.9707 29.3755ZM90.3926 29.3755L90.3926 29.8755L90.8926 29.8755L90.8926 29.3755L90.3926 29.3755ZM92.7207 20.4067L92.7207 19.9067L90.666 19.9067L90.666 20.4067L90.666 20.9067L92.7207 20.9067L92.7207 20.4067ZM90.666 20.4067L90.4781 20.8701L92.1734 21.5576L92.3613 21.0942L92.5492 20.6309L90.8539 19.9434L90.666 20.4067ZM92.3613 21.0942L91.9397 20.8255C91.6048 21.351 91.2411 21.8979 90.8484 22.4663L91.2598 22.7505L91.6711 23.0347C92.0701 22.4572 92.4408 21.8999 92.783 21.3629L92.3613 21.0942ZM91.2598 22.7505L91.2598 23.2505L93.0645 23.2505L93.0645 22.7505L93.0645 22.2505L91.2598 22.2505L91.2598 22.7505ZM93.0645 22.7505L92.5645 22.7505L92.5645 24.5005L93.0645 24.5005L93.5645 24.5005L93.5645 22.7505L93.0645 22.7505ZM93.0645 24.5005L93.0645 24.0005L84.2988 24.0005L84.2988 24.5005L84.2988 25.0005L93.0645 25.0005L93.0645 24.5005ZM84.2988 24.5005L84.7988 24.5005L84.7988 22.7505L84.2988 22.7505L83.7988 22.7505L83.7988 24.5005L84.2988 24.5005ZM84.2988 22.7505L84.2988 23.2505L86.166 23.2505L86.166 22.7505L86.166 22.2505L84.2988 22.2505L84.2988 22.7505ZM86.166 22.7505L86.5863 22.4796C86.2759 21.998 85.9216 21.4974 85.524 20.9779L85.127 21.2817L84.7299 21.5856C85.1135 22.0869 85.4519 22.5655 85.7457 23.0213L86.166 22.7505ZM85.127 21.2817L85.376 21.7153L86.8994 20.8403L86.6504 20.4067L86.4014 19.9732L84.8779 20.8482L85.127 21.2817ZM86.6504 20.4067L86.6504 19.9067L84.6582 19.9067L84.6582 20.4067L84.6582 20.9067L86.6504 20.9067L86.6504 20.4067ZM84.6582 20.4067L85.1582 20.4067L85.1582 18.6567L84.6582 18.6567L84.1582 18.6567L84.1582 20.4067L84.6582 20.4067ZM84.6582 18.6567L84.6582 19.1567L87.6895 19.1567L87.6895 18.6567L87.6895 18.1567L84.6582 18.1567L84.6582 18.6567ZM87.6895 18.6567L88.1622 18.4941C87.9907 17.9954 87.8024 17.5218 87.5972 17.0736L87.1426 17.2817L86.688 17.4899C86.8786 17.9062 87.0549 18.3493 87.2167 18.8194L87.6895 18.6567ZM87.1426 17.2817L87.2248 17.7749L89.5685 17.3843L89.4863 16.8911L89.4041 16.3979L87.0604 16.7885L87.1426 17.2817ZM89.4863 16.8911L89.0193 17.0697C89.2157 17.5834 89.4009 18.1561 89.5744 18.789L90.0566 18.6567L90.5388 18.5245C90.3582 17.8657 90.1632 17.2614 89.9534 16.7125L89.4863 16.8911ZM90.0566 18.6567L90.0566 19.1567L92.7207 19.1567L92.7207 18.6567L92.7207 18.1567L90.0566 18.1567L90.0566 18.6567ZM92.7207 18.6567L92.2207 18.6567L92.2207 20.4067L92.7207 20.4067L93.2207 20.4067L93.2207 18.6567L92.7207 18.6567ZM88.2676 22.1567L88.025 21.7195L86.9547 22.3133L87.1973 22.7505L87.4398 23.1877L88.5101 22.594L88.2676 22.1567ZM87.1973 22.7505L87.1973 23.2505L88.9238 23.2505L88.9238 22.7505L88.9238 22.2505L87.1973 22.2505L87.1973 22.7505ZM88.9238 22.7505L89.342 23.0246C89.871 22.2178 90.3142 21.4127 90.67 20.6092L90.2129 20.4067L89.7557 20.2042C89.4241 20.9529 89.008 21.7103 88.5057 22.4763L88.9238 22.7505ZM90.2129 20.4067L90.2129 19.9067L86.9004 19.9067L86.9004 20.4067L86.9004 20.9067L90.2129 20.9067L90.2129 20.4067ZM86.9004 20.4067L86.5238 20.7356C87.1261 21.4255 87.5641 21.9881 87.8473 22.4276L88.2676 22.1567L88.6879 21.8859C88.3669 21.3879 87.8934 20.7838 87.277 20.0779L86.9004 20.4067ZM97.752 23.4692L97.3984 23.8228C98.6489 25.0733 99.2363 26.3845 99.2363 27.7661L99.7363 27.7661L100.236 27.7661C100.236 26.0644 99.5008 24.511 98.1055 23.1157L97.752 23.4692ZM99.7363 27.7661L99.2363 27.7661C99.2363 28.5344 99.0312 29.0688 98.6798 29.436L99.041 29.7817L99.4023 30.1274C99.9779 29.5259 100.236 28.7165 100.236 27.7661L99.7363 27.7661ZM99.041 29.7817L98.6797 29.4361C98.5412 29.5809 98.2909 29.7248 97.8672 29.8269C97.447 29.9282 96.894 29.9794 96.1967 29.9693L96.1895 30.4692L96.1822 30.9692C96.9276 30.98 97.5713 30.9269 98.1016 30.7991C98.6284 30.672 99.0825 30.4617 99.4023 30.1274L99.041 29.7817ZM96.1895 30.4692L96.687 30.4202C96.6117 29.6556 96.4772 28.8819 96.2843 28.0995L95.7988 28.2192L95.3134 28.3389C95.4954 29.0774 95.6214 29.8038 95.6919 30.5183L96.1895 30.4692ZM95.7988 28.2192L95.7218 28.7133C96.1243 28.776 96.4468 28.813 96.666 28.813L96.666 28.313L96.666 27.813C96.531 27.813 96.2754 27.7875 95.8758 27.7252L95.7988 28.2192ZM96.666 28.313L96.666 28.813C97.0624 28.813 97.4517 28.7145 97.7388 28.4297C98.0267 28.1442 98.127 27.7557 98.127 27.3599L97.627 27.3599L97.127 27.3599C97.127 27.5995 97.067 27.6875 97.0346 27.7197C97.0014 27.7526 96.9103 27.813 96.666 27.813L96.666 28.313ZM97.627 27.3599L98.127 27.3599C98.127 26.0089 97.4046 24.6563 96.1126 23.3105L95.752 23.6567L95.3913 24.003C96.5993 25.2614 97.127 26.3775 97.127 27.3599L97.627 27.3599ZM95.752 23.6567L96.2125 23.8514C96.7602 22.5559 97.2755 21.1675 97.7585 19.6868L97.2832 19.5317L96.8079 19.3767C96.3326 20.8334 95.827 22.1951 95.2914 23.462L95.752 23.6567ZM97.2832 19.5317L97.2832 19.0317L95.5801 19.0317L95.5801 19.5317L95.5801 20.0317L97.2832 20.0317L97.2832 19.5317ZM95.5801 19.5317L95.0801 19.5317L95.0801 32.3755L95.5801 32.3755L96.0801 32.3755L96.0801 19.5317L95.5801 19.5317ZM95.5801 32.3755L95.5801 31.8755L93.5801 31.8755L93.5801 32.3755L93.5801 32.8755L95.5801 32.8755L95.5801 32.3755ZM93.5801 32.3755L94.0801 32.3755L94.0801 17.7192L93.5801 17.7192L93.0801 17.7192L93.0801 32.3755L93.5801 32.3755ZM93.5801 17.7192L93.5801 18.2192L99.4395 18.2192L99.4395 17.7192L99.4395 17.2192L93.5801 17.2192L93.5801 17.7192ZM99.4395 17.7192L98.9395 17.7192L98.9395 19.2192L99.4395 19.2192L99.9395 19.2192L99.9395 17.7192L99.4395 17.7192ZM99.4395 19.2192L98.9697 19.048C98.6089 20.0377 98.0497 21.4464 97.2901 23.2777L97.752 23.4692L98.2138 23.6608C98.9751 21.8254 99.5409 20.4008 99.9092 19.3905L99.4395 19.2192ZM85.002 32.0161L85.502 32.0161L85.502 25.688L85.002 25.688L84.502 25.688L84.502 32.0161L85.002 32.0161ZM85.002 25.688L85.002 26.188L92.3613 26.188L92.3613 25.688L92.3613 25.188L85.002 25.188L85.002 25.688ZM92.3613 25.688L91.8613 25.688L91.8613 31.9224L92.3613 31.9224L92.8613 31.9224L92.8613 25.688L92.3613 25.688ZM92.3613 31.9224L92.3613 31.4224L90.3926 31.4224L90.3926 31.9224L90.3926 32.4224L92.3613 32.4224L92.3613 31.9224ZM90.3926 31.9224L90.8926 31.9224L90.8926 31.1255L90.3926 31.1255L89.8926 31.1255L89.8926 31.9224L90.3926 31.9224ZM90.3926 31.1255L90.3926 30.6255L86.9707 30.6255L86.9707 31.1255L86.9707 31.6255L90.3926 31.6255L90.3926 31.1255ZM86.9707 31.1255L86.4707 31.1255L86.4707 32.0161L86.9707 32.0161L87.4707 32.0161L87.4707 31.1255L86.9707 31.1255ZM86.9707 32.0161L86.9707 31.5161L85.002 31.5161L85.002 32.0161L85.002 32.5161L86.9707 32.5161L86.9707 32.0161ZM90.3926 27.438L90.3926 26.938L86.9707 26.938L86.9707 27.438L86.9707 27.938L90.3926 27.938L90.3926 27.438ZM86.9707 27.438L86.4707 27.438L86.4707 29.3755L86.9707 29.3755L87.4707 29.3755L87.4707 27.438L86.9707 27.438ZM86.9707 29.3755L86.9707 29.8755L90.3926 29.8755L90.3926 29.3755L90.3926 28.8755L86.9707 28.8755L86.9707 29.3755ZM90.3926 29.3755L90.8926 29.3755L90.8926 27.438L90.3926 27.438L89.8926 27.438L89.8926 29.3755L90.3926 29.3755ZM109.799 32.3442L109.799 32.8442L110.299 32.8442L110.299 32.3442L109.799 32.3442ZM107.627 32.3442L107.127 32.3442L107.127 32.8442L107.627 32.8442L107.627 32.3442ZM107.627 25.1724L108.127 25.1724L108.127 24.6724L107.627 24.6724L107.627 25.1724ZM105.158 25.1724L105.158 24.6724L104.658 24.6724L104.658 25.1724L105.158 25.1724ZM105.158 31.1567L105.158 31.6567L105.658 31.6567L105.658 31.1567L105.158 31.1567ZM103.002 31.1567L102.502 31.1567L102.502 31.6567L103.002 31.6567L103.002 31.1567ZM103.002 26.1567L103.502 26.1567L103.502 24.8851L102.636 25.8162L103.002 26.1567ZM101.002 28.0942L100.522 28.2338L100.741 28.9871L101.331 28.4705L101.002 28.0942ZM100.283 25.9067L99.9459 25.5376L99.6931 25.7687L99.8172 26.088L100.283 25.9067ZM104.33 20.9849L104.763 21.2356L105.198 20.4849L104.33 20.4849L104.33 20.9849ZM100.502 20.9849L100.002 20.9849L100.002 21.4849L100.502 21.4849L100.502 20.9849ZM100.502 18.9067L100.502 18.4067L100.002 18.4067L100.002 18.9067L100.502 18.9067ZM105.354 18.9067L105.354 19.4067L105.689 19.4067L105.816 19.0958L105.354 18.9067ZM106.002 17.0005L106.059 16.5037L105.633 16.4551L105.52 16.8683L106.002 17.0005ZM108.189 17.2505L108.666 17.4006L108.848 16.8225L108.246 16.7537L108.189 17.2505ZM107.596 18.9067L107.132 18.7195L106.855 19.4067L107.596 19.4067L107.596 18.9067ZM115.627 18.9067L116.127 18.9067L116.127 18.4067L115.627 18.4067L115.627 18.9067ZM115.627 20.9849L115.627 21.4849L116.127 21.4849L116.127 20.9849L115.627 20.9849ZM106.65 20.9849L106.65 20.4849L106.347 20.4849L106.207 20.7545L106.65 20.9849ZM105.236 23.3442L104.824 23.0617L104.288 23.8442L105.236 23.8442L105.236 23.3442ZM107.627 23.3442L107.627 23.8442L108.127 23.8442L108.127 23.3442L107.627 23.3442ZM107.627 21.3442L107.627 20.8442L107.127 20.8442L107.127 21.3442L107.627 21.3442ZM109.799 21.3442L110.299 21.3442L110.299 20.8442L109.799 20.8442L109.799 21.3442ZM109.799 23.3442L109.299 23.3442L109.299 23.8442L109.799 23.8442L109.799 23.3442ZM114.502 23.3442L115.002 23.3442L115.002 22.8442L114.502 22.8442L114.502 23.3442ZM112.947 30.6646L112.859 30.1724L112.853 30.1734L112.947 30.6646ZM110.768 30.7974L110.274 30.8766L110.341 31.2974L110.768 31.2974L110.768 30.7974ZM110.393 28.7349L110.434 28.2366L109.762 28.1805L109.904 28.8403L110.393 28.7349ZM112.377 25.1724L112.877 25.1724L112.877 24.6724L112.377 24.6724L112.377 25.1724ZM109.799 25.1724L109.799 24.6724L109.299 24.6724L109.299 25.1724L109.799 25.1724ZM109.799 32.3442L109.799 31.8442L107.627 31.8442L107.627 32.3442L107.627 32.8442L109.799 32.8442L109.799 32.3442ZM107.627 32.3442L108.127 32.3442L108.127 25.1724L107.627 25.1724L107.127 25.1724L107.127 32.3442L107.627 32.3442ZM107.627 25.1724L107.627 24.6724L105.158 24.6724L105.158 25.1724L105.158 25.6724L107.627 25.6724L107.627 25.1724ZM105.158 25.1724L104.658 25.1724L104.658 31.1567L105.158 31.1567L105.658 31.1567L105.658 25.1724L105.158 25.1724ZM105.158 31.1567L105.158 30.6567L103.002 30.6567L103.002 31.1567L103.002 31.6567L105.158 31.6567L105.158 31.1567ZM103.002 31.1567L103.502 31.1567L103.502 26.1567L103.002 26.1567L102.502 26.1567L102.502 31.1567L103.002 31.1567ZM103.002 26.1567L102.636 25.8162C102.023 26.4752 101.368 27.1091 100.673 27.718L101.002 28.0942L101.331 28.4705C102.052 27.8398 102.731 27.182 103.368 26.4973L103.002 26.1567ZM101.002 28.0942L101.482 27.9547C101.22 27.0514 100.975 26.3069 100.749 25.7255L100.283 25.9067L99.8172 26.088C100.029 26.6316 100.264 27.3454 100.522 28.2338L101.002 28.0942ZM100.283 25.9067L100.62 26.2758C102.346 24.6994 103.729 23.0199 104.763 21.2356L104.33 20.9849L103.897 20.7341C102.921 22.4186 101.606 24.0203 99.9459 25.5376L100.283 25.9067ZM104.33 20.9849L104.33 20.4849L100.502 20.4849L100.502 20.9849L100.502 21.4849L104.33 21.4849L104.33 20.9849ZM100.502 20.9849L101.002 20.9849L101.002 18.9067L100.502 18.9067L100.002 18.9067L100.002 20.9849L100.502 20.9849ZM100.502 18.9067L100.502 19.4067L105.354 19.4067L105.354 18.9067L105.354 18.4067L100.502 18.4067L100.502 18.9067ZM105.354 18.9067L105.816 19.0958C106.079 18.4524 106.302 17.798 106.484 17.1327L106.002 17.0005L105.52 16.8683C105.348 17.4946 105.138 18.1111 104.891 18.7177L105.354 18.9067ZM106.002 17.0005L105.945 17.4973L108.133 17.7473L108.189 17.2505L108.246 16.7537L106.059 16.5037L106.002 17.0005ZM108.189 17.2505L107.713 17.1003C107.539 17.6504 107.346 18.1901 107.132 18.7195L107.596 18.9067L108.059 19.094C108.283 18.54 108.485 17.9755 108.666 17.4006L108.189 17.2505ZM107.596 18.9067L107.596 19.4067L115.627 19.4067L115.627 18.9067L115.627 18.4067L107.596 18.4067L107.596 18.9067ZM115.627 18.9067L115.127 18.9067L115.127 20.9849L115.627 20.9849L116.127 20.9849L116.127 18.9067L115.627 18.9067ZM115.627 20.9849L115.627 20.4849L106.65 20.4849L106.65 20.9849L106.65 21.4849L115.627 21.4849L115.627 20.9849ZM106.65 20.9849L106.207 20.7545C105.794 21.5488 105.333 22.3179 104.824 23.0617L105.236 23.3442L105.649 23.6268C106.181 22.8497 106.663 22.0459 107.094 21.2153L106.65 20.9849ZM105.236 23.3442L105.236 23.8442L107.627 23.8442L107.627 23.3442L107.627 22.8442L105.236 22.8442L105.236 23.3442ZM107.627 23.3442L108.127 23.3442L108.127 21.3442L107.627 21.3442L107.127 21.3442L107.127 23.3442L107.627 23.3442ZM107.627 21.3442L107.627 21.8442L109.799 21.8442L109.799 21.3442L109.799 20.8442L107.627 20.8442L107.627 21.3442ZM109.799 21.3442L109.299 21.3442L109.299 23.3442L109.799 23.3442L110.299 23.3442L110.299 21.3442L109.799 21.3442ZM109.799 23.3442L109.799 23.8442L114.502 23.8442L114.502 23.3442L114.502 22.8442L109.799 22.8442L109.799 23.3442ZM114.502 23.3442L114.002 23.3442L114.002 28.4067L114.502 28.4067L115.002 28.4067L115.002 23.3442L114.502 23.3442ZM114.502 28.4067L114.002 28.4067C114.002 29.0141 113.872 29.4158 113.675 29.6735L114.072 29.9771L114.47 30.2806C114.846 29.7883 115.002 29.1431 115.002 28.4067L114.502 28.4067ZM114.072 29.9771L113.675 29.6735C113.464 29.9495 113.199 30.1112 112.859 30.1724L112.947 30.6646L113.036 31.1567C113.622 31.0512 114.108 30.7546 114.47 30.2806L114.072 29.9771ZM112.947 30.6646L112.853 30.1734C112.439 30.2526 111.752 30.2974 110.768 30.2974L110.768 30.7974L110.768 31.2974C111.762 31.2974 112.528 31.2536 113.041 31.1557L112.947 30.6646ZM110.768 30.7974L111.261 30.7181C111.125 29.8699 110.999 29.1728 110.881 28.6294L110.393 28.7349L109.904 28.8403C110.016 29.3594 110.139 30.0373 110.274 30.8766L110.768 30.7974ZM110.393 28.7349L110.351 29.2331C110.845 29.2743 111.191 29.2974 111.361 29.2974L111.361 28.7974L111.361 28.2974C111.24 28.2974 110.94 28.2787 110.434 28.2366L110.393 28.7349ZM111.361 28.7974L111.361 29.2974C111.791 29.2974 112.201 29.1761 112.494 28.8512C112.779 28.536 112.877 28.1125 112.877 27.6724L112.377 27.6724L111.877 27.6724C111.877 27.9822 111.806 28.1212 111.752 28.1811C111.707 28.2312 111.609 28.2974 111.361 28.2974L111.361 28.7974ZM112.377 27.6724L112.877 27.6724L112.877 25.1724L112.377 25.1724L111.877 25.1724L111.877 27.6724L112.377 27.6724ZM112.377 25.1724L112.377 24.6724L109.799 24.6724L109.799 25.1724L109.799 25.6724L112.377 25.6724L112.377 25.1724ZM109.799 25.1724L109.299 25.1724L109.299 32.3442L109.799 32.3442L110.299 32.3442L110.299 25.1724L109.799 25.1724ZM117.689 17.5942L117.689 17.0942L117.189 17.0942L117.189 17.5942L117.689 17.5942ZM130.424 17.5942L130.924 17.5942L130.924 17.0942L130.424 17.0942L130.424 17.5942ZM130.424 22.3911L130.424 22.8911L130.924 22.8911L130.924 22.3911L130.424 22.3911ZM119.908 22.3911L119.908 21.8911L119.416 21.8911L119.408 22.3833L119.908 22.3911ZM119.9 23.3599L119.4 23.3599L119.4 23.8599L119.9 23.8599L119.9 23.3599ZM131.127 23.3599L131.627 23.368L131.635 22.8599L131.127 22.8599L131.127 23.3599ZM131.025 29.6177L131.525 29.6275L131.525 29.6258L131.025 29.6177ZM129.822 32.1099L129.613 31.6559L129.61 31.6571L129.822 32.1099ZM125.893 32.3442L125.398 32.4161L125.46 32.8442L125.893 32.8442L125.893 32.3442ZM125.486 30.313L125.507 29.8134L124.839 29.7856L125.001 30.4343L125.486 30.313ZM128.4 30.1958L128.686 30.6061L128.694 30.6002L128.4 30.1958ZM128.729 29.7505L129.211 29.8821L129.212 29.8784L128.729 29.7505ZM128.838 26.938L129.338 26.9457L129.338 26.9446L128.838 26.938ZM128.861 25.1567L129.361 25.1633L129.368 24.6567L128.861 24.6567L128.861 25.1567ZM119.854 25.1567L119.854 24.6567L119.354 24.6567L119.354 25.1559L119.854 25.1567ZM117.971 32.3599L117.595 32.6898L118.01 33.1621L118.377 32.6516L117.971 32.3599ZM116.252 30.4849L115.824 30.2262L115.624 30.5576L115.895 30.8345L116.252 30.4849ZM117.369 27.5005L117.861 27.5918L117.861 27.5914L117.369 27.5005ZM117.689 22.6099L118.189 22.6123L118.189 22.6099L117.689 22.6099ZM128.205 20.5942L128.205 21.0942L128.705 21.0942L128.705 20.5942L128.205 20.5942ZM128.205 19.3911L128.705 19.3911L128.705 18.8911L128.205 18.8911L128.205 19.3911ZM119.908 19.3911L119.908 18.8911L119.408 18.8911L119.408 19.3911L119.908 19.3911ZM119.908 20.5942L119.408 20.5942L119.408 21.0942L119.908 21.0942L119.908 20.5942ZM127.252 25.9849L127.752 25.9849L127.752 25.4849L127.252 25.4849L127.252 25.9849ZM127.252 29.8911L127.252 30.3911L127.752 30.3911L127.752 29.8911L127.252 29.8911ZM122.814 29.8911L122.814 29.3911L122.314 29.3911L122.314 29.8911L122.814 29.8911ZM122.814 30.6411L122.814 31.1411L123.314 31.1411L123.314 30.6411L122.814 30.6411ZM120.814 30.6411L120.314 30.6411L120.314 31.1411L120.814 31.1411L120.814 30.6411ZM120.814 25.9849L120.814 25.4849L120.314 25.4849L120.314 25.9849L120.814 25.9849ZM122.814 27.4067L122.814 26.9067L122.314 26.9067L122.314 27.4067L122.814 27.4067ZM122.814 28.4692L122.314 28.4692L122.314 28.9692L122.814 28.9692L122.814 28.4692ZM125.252 28.4692L125.252 28.9692L125.752 28.9692L125.752 28.4692L125.252 28.4692ZM125.252 27.4067L125.752 27.4067L125.752 26.9067L125.252 26.9067L125.252 27.4067ZM117.689 17.5942L117.689 18.0942L130.424 18.0942L130.424 17.5942L130.424 17.0942L117.689 17.0942L117.689 17.5942ZM130.424 17.5942L129.924 17.5942L129.924 22.3911L130.424 22.3911L130.924 22.3911L130.924 17.5942L130.424 17.5942ZM130.424 22.3911L130.424 21.8911L119.908 21.8911L119.908 22.3911L119.908 22.8911L130.424 22.8911L130.424 22.3911ZM119.908 22.3911L119.408 22.3833C119.403 22.7191 119.4 23.0446 119.4 23.3599L119.9 23.3599L120.4 23.3599C120.4 23.0501 120.403 22.7298 120.408 22.3989L119.908 22.3911ZM119.9 23.3599L119.9 23.8599L131.127 23.8599L131.127 23.3599L131.127 22.8599L119.9 22.8599L119.9 23.3599ZM131.127 23.3599L130.627 23.3517L130.525 29.6096L131.025 29.6177L131.525 29.6258L131.627 23.368L131.127 23.3599ZM131.025 29.6177L130.525 29.6079C130.51 30.3826 130.392 30.8427 130.243 31.077L130.666 31.3442L131.089 31.6115C131.388 31.1374 131.509 30.4465 131.525 29.6275L131.025 29.6177ZM130.666 31.3442L130.243 31.077C130.064 31.3601 129.853 31.5449 129.613 31.6559L129.822 32.1099L130.032 32.5638C130.468 32.3623 130.82 32.0367 131.089 31.6115L130.666 31.3442ZM129.822 32.1099L129.61 31.6571C129.612 31.656 129.593 31.6649 129.536 31.6782C129.483 31.6908 129.412 31.7041 129.319 31.7174C129.132 31.744 128.881 31.7674 128.56 31.7865C127.92 31.8247 127.032 31.8442 125.893 31.8442L125.893 32.3442L125.893 32.8442C127.04 32.8442 127.95 32.8247 128.62 32.7848C128.954 32.7648 129.235 32.7394 129.46 32.7074C129.668 32.6776 129.878 32.636 130.034 32.5626L129.822 32.1099ZM125.893 32.3442L126.387 32.2724C126.291 31.6081 126.152 30.9145 125.971 30.1917L125.486 30.313L125.001 30.4343C125.175 31.1282 125.307 31.7887 125.398 32.4161L125.893 32.3442ZM125.486 30.313L125.466 30.8126C126.466 30.8542 127.196 30.8755 127.65 30.8755L127.65 30.3755L127.65 29.8755C127.219 29.8755 126.507 29.8551 125.507 29.8134L125.486 30.313ZM127.65 30.3755L127.65 30.8755C128.027 30.8755 128.395 30.8088 128.686 30.606L128.4 30.1958L128.114 29.7856C128.062 29.8224 127.93 29.8755 127.65 29.8755L127.65 30.3755ZM128.4 30.1958L128.694 30.6002C128.94 30.4217 129.129 30.1838 129.211 29.882L128.729 29.7505L128.246 29.6189C128.235 29.661 128.205 29.7199 128.106 29.7914L128.4 30.1958ZM128.729 29.7505L129.212 29.8784C129.237 29.7819 129.251 29.6433 129.26 29.5124C129.271 29.3645 129.281 29.1709 129.291 28.934C129.309 28.4594 129.325 27.7959 129.338 26.9457L128.838 26.938L128.338 26.9303C128.325 27.7779 128.309 28.4322 128.291 28.8951C128.282 29.1269 128.273 29.3071 128.263 29.4378C128.252 29.5856 128.243 29.6305 128.245 29.6225L128.729 29.7505ZM128.838 26.938L129.338 26.9446L129.361 25.1633L128.861 25.1567L128.361 25.1502L128.338 26.9314L128.838 26.938ZM128.861 25.1567L128.861 24.6567L119.854 24.6567L119.854 25.1567L119.854 25.6567L128.861 25.6567L128.861 25.1567ZM119.854 25.1567L119.354 25.1559C119.348 28.1572 118.733 30.4427 117.565 32.0681L117.971 32.3599L118.377 32.6516C119.709 30.7979 120.348 28.2813 120.354 25.1576L119.854 25.1567ZM117.971 32.3599L118.346 32.0299C117.666 31.2555 117.087 30.6232 116.609 30.1352L116.252 30.4849L115.895 30.8345C116.355 31.3049 116.921 31.9226 117.595 32.6898L117.971 32.3599ZM116.252 30.4849L116.68 30.7436C117.255 29.7931 117.647 28.741 117.861 27.5918L117.369 27.5005L116.878 27.4092C116.685 28.4475 116.333 29.385 115.824 30.2262L116.252 30.4849ZM117.369 27.5005L117.861 27.5914C118.072 26.4475 118.179 24.7814 118.189 22.6123L117.689 22.6099L117.189 22.6075C117.179 24.7613 117.072 26.3555 116.877 27.4096L117.369 27.5005ZM117.689 22.6099L118.189 22.6099L118.189 17.5942L117.689 17.5942L117.189 17.5942L117.189 22.6099L117.689 22.6099ZM128.205 20.5942L128.705 20.5942L128.705 19.3911L128.205 19.3911L127.705 19.3911L127.705 20.5942L128.205 20.5942ZM128.205 19.3911L128.205 18.8911L119.908 18.8911L119.908 19.3911L119.908 19.8911L128.205 19.8911L128.205 19.3911ZM119.908 19.3911L119.408 19.3911L119.408 20.5942L119.908 20.5942L120.408 20.5942L120.408 19.3911L119.908 19.3911ZM119.908 20.5942L119.908 21.0942L128.205 21.0942L128.205 20.5942L128.205 20.0942L119.908 20.0942L119.908 20.5942ZM127.252 25.9849L126.752 25.9849L126.752 29.8911L127.252 29.8911L127.752 29.8911L127.752 25.9849L127.252 25.9849ZM127.252 29.8911L127.252 29.3911L122.814 29.3911L122.814 29.8911L122.814 30.3911L127.252 30.3911L127.252 29.8911ZM122.814 29.8911L122.314 29.8911L122.314 30.6411L122.814 30.6411L123.314 30.6411L123.314 29.8911L122.814 29.8911ZM122.814 30.6411L122.814 30.1411L120.814 30.1411L120.814 30.6411L120.814 31.1411L122.814 31.1411L122.814 30.6411ZM120.814 30.6411L121.314 30.6411L121.314 25.9849L120.814 25.9849L120.314 25.9849L120.314 30.6411L120.814 30.6411ZM120.814 25.9849L120.814 26.4849L127.252 26.4849L127.252 25.9849L127.252 25.4849L120.814 25.4849L120.814 25.9849ZM122.814 27.4067L122.314 27.4067L122.314 28.4692L122.814 28.4692L123.314 28.4692L123.314 27.4067L122.814 27.4067ZM122.814 28.4692L122.814 28.9692L125.252 28.9692L125.252 28.4692L125.252 27.9692L122.814 27.9692L122.814 28.4692ZM125.252 28.4692L125.752 28.4692L125.752 27.4067L125.252 27.4067L124.752 27.4067L124.752 28.4692L125.252 28.4692ZM125.252 27.4067L125.252 26.9067L122.814 26.9067L122.814 27.4067L122.814 27.9067L125.252 27.9067L125.252 27.4067Z" fill="url(#paint14_linear_2204_5866)" mask="url(#path-11-outside-1_2204_5866)"/>
</g>
<g id="3" filter="url(#filter4_d_2204_5866)">
<path d="M45.1162 27.1191C45.7721 27.61 46.5381 27.8555 47.4141 27.8555C47.9684 27.8555 48.4085 27.7327 48.7344 27.4873C49.0602 27.2419 49.2231 26.8927 49.2231 26.4399C49.2231 25.9744 49.0285 25.619 48.6392 25.3735C48.2541 25.1281 47.7124 25.0054 47.0142 25.0054L46.1382 25.0054L46.1382 23.4248L46.9443 23.4248C48.2646 23.4248 48.9248 22.9805 48.9248 22.0918C48.9248 21.2539 48.4191 20.835 47.4077 20.835C46.7476 20.835 46.1064 21.0508 45.4844 21.4824L45.4844 19.7876C46.1615 19.4364 46.9591 19.2607 47.8774 19.2607C48.8084 19.2607 49.5638 19.4766 50.1436 19.9082C50.7233 20.3356 51.0132 20.9302 51.0132 21.6919C51.0132 22.9784 50.3615 23.7866 49.0581 24.1167L49.0581 24.1484C49.7437 24.2246 50.2917 24.4764 50.7021 24.9038C51.1126 25.327 51.3179 25.8433 51.3179 26.4526C51.3179 27.3879 50.9751 28.1178 50.2896 28.6426C49.6082 29.1673 48.6984 29.4297 47.5601 29.4297C46.5487 29.4297 45.734 29.2625 45.1162 28.9282L45.1162 27.1191Z" fill="white"/>
</g>
</g>
<defs>
<filter id="filter0_f_2204_5866" x="0.292969" y="0.0673828" width="170.988" height="15.3003" filterUnits="userSpaceOnUse" color-interpolation-filters="sRGB">
<feFlood flood-opacity="0" result="BackgroundImageFix"/>
<feBlend mode="normal" in="SourceGraphic" in2="BackgroundImageFix" result="shape"/>
<feGaussianBlur stdDeviation="3" result="effect1_foregroundBlur_2204_5866"/>
</filter>
<filter id="filter1_f_2204_5866" x="0.292969" y="33.0674" width="170.988" height="15.3003" filterUnits="userSpaceOnUse" color-interpolation-filters="sRGB">
<feFlood flood-opacity="0" result="BackgroundImageFix"/>
<feBlend mode="normal" in="SourceGraphic" in2="BackgroundImageFix" result="shape"/>
<feGaussianBlur stdDeviation="3" result="effect1_foregroundBlur_2204_5866"/>
</filter>
<filter id="filter2_f_2204_5866" x="4.29297" y="39.0674" width="162.988" height="5" filterUnits="userSpaceOnUse" color-interpolation-filters="sRGB">
<feFlood flood-opacity="0" result="BackgroundImageFix"/>
<feBlend mode="normal" in="SourceGraphic" in2="BackgroundImageFix" result="shape"/>
<feGaussianBlur stdDeviation="1" result="effect1_foregroundBlur_2204_5866"/>
</filter>
<filter id="filter3_f_2204_5866" x="4.29297" y="4.06738" width="162.988" height="5" filterUnits="userSpaceOnUse" color-interpolation-filters="sRGB">
<feFlood flood-opacity="0" result="BackgroundImageFix"/>
<feBlend mode="normal" in="SourceGraphic" in2="BackgroundImageFix" result="shape"/>
<feGaussianBlur stdDeviation="1" result="effect1_foregroundBlur_2204_5866"/>
</filter>
<filter id="filter4_d_2204_5866" x="44.1172" y="19.2607" width="8.19922" height="12.1689" filterUnits="userSpaceOnUse" color-interpolation-filters="sRGB">
<feFlood flood-opacity="0" result="BackgroundImageFix"/>
<feColorMatrix in="SourceAlpha" type="matrix" values="0 0 0 0 0 0 0 0 0 0 0 0 0 0 0 0 0 0 127 0" result="hardAlpha"/>
<feOffset dy="1"/>
<feGaussianBlur stdDeviation="0.5"/>
<feComposite in2="hardAlpha" operator="out"/>
<feColorMatrix type="matrix" values="0 0 0 0 1 0 0 0 0 0.517552 0 0 0 0 0.00183164 0 0 0 1 0"/>
<feBlend mode="normal" in2="BackgroundImageFix" result="effect1_dropShadow_2204_5866"/>
<feBlend mode="normal" in="SourceGraphic" in2="effect1_dropShadow_2204_5866" result="shape"/>
</filter>
<linearGradient id="paint0_linear_2204_5866" x1="6.29297" y1="24.0583" x2="165.281" y2="24.0583" gradientUnits="userSpaceOnUse">
<stop stop-color="#4F91FD"/>
<stop offset="0.525723" stop-color="#A2C9FF" stop-opacity="0.6"/>
<stop offset="1" stop-color="#488CFD"/>
</linearGradient>
<linearGradient id="paint1_linear_2204_5866" x1="6.29297" y1="24.0583" x2="165.281" y2="24.0583" gradientUnits="userSpaceOnUse">
<stop stop-color="#FFDB7E" stop-opacity="0.1"/>
<stop offset="0.525723" stop-color="#FFF677"/>
<stop offset="1" stop-color="#FFDB7E"/>
</linearGradient>
<linearGradient id="paint2_linear_2204_5866" x1="6.29297" y1="24.0583" x2="165.281" y2="24.0583" gradientUnits="userSpaceOnUse">
<stop stop-color="#FFC438"/>
<stop offset="1" stop-color="#FFB11F"/>
</linearGradient>
<linearGradient id="paint3_linear_2204_5866" x1="6.29297" y1="24.0583" x2="165.281" y2="24.0583" gradientUnits="userSpaceOnUse">
<stop stop-color="#FFC52D" stop-opacity="0.9"/>
<stop offset="0.525723" stop-color="#FFF677"/>
<stop offset="1" stop-color="#FFC52D" stop-opacity="0.9"/>
</linearGradient>
<linearGradient id="paint4_linear_2204_5866" x1="6.29297" y1="24.0583" x2="165.281" y2="24.0583" gradientUnits="userSpaceOnUse">
<stop stop-color="#FFB900"/>
<stop offset="1" stop-color="#FFAB0F"/>
</linearGradient>
<linearGradient id="paint5_linear_2204_5866" x1="6.29297" y1="7.71753" x2="165.281" y2="7.71753" gradientUnits="userSpaceOnUse">
<stop stop-color="white" stop-opacity="0.6"/>
<stop offset="0.525723" stop-color="#A2FFFD" stop-opacity="0.6"/>
<stop offset="1" stop-color="white" stop-opacity="0.6"/>
</linearGradient>
<linearGradient id="paint6_linear_2204_5866" x1="6.29297" y1="40.7175" x2="165.281" y2="40.7175" gradientUnits="userSpaceOnUse">
<stop stop-color="white" stop-opacity="0.6"/>
<stop offset="0.525723" stop-color="#A2FFFD" stop-opacity="0.6"/>
<stop offset="1" stop-color="white" stop-opacity="0.6"/>
</linearGradient>
<linearGradient id="paint7_linear_2204_5866" x1="6.29297" y1="41.5674" x2="165.281" y2="41.5674" gradientUnits="userSpaceOnUse">
<stop stop-color="white" stop-opacity="0.9"/>
<stop offset="0.525723" stop-color="#EBFFFF"/>
<stop offset="1" stop-color="white" stop-opacity="0.9"/>
</linearGradient>
<linearGradient id="paint8_linear_2204_5866" x1="6.29297" y1="6.56738" x2="165.281" y2="6.56738" gradientUnits="userSpaceOnUse">
<stop stop-color="white" stop-opacity="0.9"/>
<stop offset="0.525723" stop-color="#EBFFFF"/>
<stop offset="1" stop-color="white" stop-opacity="0.9"/>
</linearGradient>
<linearGradient id="paint9_linear_2204_5866" x1="146.061" y1="24.0422" x2="-12.9272" y2="24.0422" gradientUnits="userSpaceOnUse">
<stop stop-color="#FF8C00"/>
<stop offset="1" stop-color="#FFB700"/>
</linearGradient>
<linearGradient id="paint10_linear_2204_5866" x1="146.061" y1="24.0422" x2="-12.9272" y2="24.0422" gradientUnits="userSpaceOnUse">
<stop stop-color="#FFB11F"/>
<stop offset="1" stop-color="#FFD979"/>
</linearGradient>
<linearGradient id="paint11_linear_2204_5866" x1="54.9782" y1="24.2578" x2="36.9782" y2="24.2578" gradientUnits="userSpaceOnUse">
<stop stop-color="#FFA806"/>
<stop offset="1" stop-color="#FFE284"/>
</linearGradient>
<linearGradient id="paint12_linear_2204_5866" x1="48.1211" y1="37.143" x2="48.1211" y2="15.2578" gradientUnits="userSpaceOnUse">
<stop stop-color="#FFEAC4"/>
<stop offset="1" stop-color="#FFF5D4"/>
</linearGradient>
<linearGradient id="paint13_linear_2204_5866" x1="100.002" y1="17.2583" x2="100.002" y2="30.2583" gradientUnits="userSpaceOnUse">
<stop stop-color="#FFA908"/>
<stop offset="1" stop-color="#FF8C00"/>
</linearGradient>
<linearGradient id="paint14_linear_2204_5866" x1="100.002" y1="30.2583" x2="100.002" y2="17.2583" gradientUnits="userSpaceOnUse">
<stop stop-color="#FFCE78"/>
<stop offset="1" stop-color="#FFF5D4"/>
</linearGradient>
</defs>
</svg>
