<svg width="172" height="49" viewBox="0 0 172 49" fill="none" xmlns="http://www.w3.org/2000/svg">
<g id="4&#231;&#187;&#147;&#230;&#158;&#132;&#232;&#174;&#190;&#232;&#174;&#161;-&#233;&#187;&#152;&#232;&#174;&#164;">
<g id="Group 1321315616">
<mask id="mask0_2204_5882" style="mask-type:alpha" maskUnits="userSpaceOnUse" x="6" y="6" width="160" height="36">
<rect id="Rectangle 34628613" x="6.29297" y="6.01611" width="158.988" height="35.9819" fill="url(#paint0_linear_2204_5882)"/>
</mask>
<g mask="url(#mask0_2204_5882)">
<rect id="Rectangle 34628616" x="6.29297" y="6.01611" width="158.988" height="35.9819" fill="url(#paint1_linear_2204_5882)"/>
</g>
</g>
<g id="Rectangle 34628615" filter="url(#filter0_f_2204_5882)">
<rect x="6.29297" y="6.01611" width="158.988" height="3.30029" fill="url(#paint2_linear_2204_5882)"/>
</g>
<g id="Rectangle 34628616_2" filter="url(#filter1_f_2204_5882)">
<rect x="6.29297" y="39.0161" width="158.988" height="3.30029" fill="url(#paint3_linear_2204_5882)"/>
</g>
<g id="Rectangle 34628617" filter="url(#filter2_f_2204_5882)">
<rect x="6.29297" y="41.0161" width="158.988" height="1" fill="url(#paint4_linear_2204_5882)"/>
</g>
<g id="Rectangle 34628618" filter="url(#filter3_f_2204_5882)">
<rect x="6.29297" y="6.01611" width="158.988" height="1" fill="url(#paint5_linear_2204_5882)"/>
</g>
<rect id="Rectangle 34628621" x="6.29297" y="6.01611" width="158.988" height="35.9819" stroke="url(#paint6_linear_2204_5882)"/>
<path id="Rectangle 34628619" d="M6 10.9955L6 6L11.9368 6M6 36.9865L6 41.9819L11.9368 41.9819M164.988 10.9955L164.988 6L159.052 6M164.988 36.9865L164.988 41.9819L159.052 41.9819" stroke="url(#paint7_linear_2204_5882)" stroke-width="2"/>
<path id="Rectangle 34628620" d="M6 10.9955L6 6L11.9368 6M6 36.9865L6 41.9819L11.9368 41.9819M164.988 10.9955L164.988 6L159.052 6M164.988 36.9865L164.988 41.9819L159.052 41.9819" stroke="url(#paint8_linear_2204_5882)"/>
<path id="Vector" d="M48.1211 15.7065C50.4954 15.7065 52.4946 16.5289 54.1484 18.1812C55.6987 19.7301 56.5183 21.5834 56.6123 23.7651L56.6211 24.2056C56.6182 26.5806 55.7957 28.5809 54.1475 30.2349C52.6032 31.7843 50.7503 32.6038 48.5635 32.6978L48.1221 32.7065L48.1211 32.7065C45.8934 32.7065 43.9976 31.9842 42.4092 30.5337L42.0957 30.2339C40.4435 28.5801 39.6211 26.5808 39.6211 24.2065C39.6211 21.9806 40.3442 20.0853 41.7959 18.4956L42.0957 18.1812C43.748 16.5288 45.7467 15.7065 48.1211 15.7065Z" fill="url(#paint9_linear_2204_5882)" stroke="url(#paint10_linear_2204_5882)"/>
<path id="&#231;&#187;&#147;&#230;&#158;&#132;&#232;&#174;&#190;&#232;&#174;&#161;" d="M74.3457 22.3867L77.627 22.3867L77.627 20.6836L74.1816 20.6836L74.7051 20.9336C73.4134 22.9023 72.304 24.5065 71.377 25.7461C72.127 25.6523 72.929 25.5638 73.7832 25.4805C73.7207 26.1888 73.679 26.8346 73.6582 27.418C71.377 27.668 69.8249 27.9023 69.002 28.1211L68.3926 26.3711C69.054 25.7878 69.8405 24.819 70.752 23.4648C69.9707 23.5221 69.2936 23.5898 68.7207 23.668L68.1426 21.8867C68.9655 20.8763 69.8665 19.1784 70.8457 16.793L72.9082 17.5586C72.0853 19.1003 71.2728 20.4857 70.4707 21.7148L71.9082 21.6445L72.8457 20.043L73.877 20.5352L73.877 18.8242L77.627 18.8242L77.627 16.8555L79.8145 16.8555L79.8145 18.8242L83.7207 18.8242L83.7207 20.6836L79.8145 20.6836L79.8145 22.3867L83.252 22.3867L83.252 24.2461L74.3457 24.2461L74.3457 22.3867ZM74.4863 32.3086L74.4863 25.5898L83.0645 25.5898L83.0645 32.3086L80.9707 32.3086L80.9707 31.3867L76.5801 31.3867L76.5801 32.3086L74.4863 32.3086ZM80.9707 27.4961L76.5801 27.4961L76.5801 29.4805L80.9707 29.4805L80.9707 27.4961ZM68.5801 31.4961L68.2363 29.3086C70.0384 29.0794 71.9655 28.8086 74.0176 28.4961C73.9551 29.3711 73.929 30.0951 73.9395 30.668C72.0853 30.9284 70.2988 31.2044 68.5801 31.4961ZM84.1895 25.9336C84.9811 24.7044 85.6087 23.3346 86.0723 21.8242L84.3457 21.8242L84.3457 19.9805L86.252 19.9805L86.252 16.9492L88.2832 16.9492L88.2832 19.9805L89.7832 19.9805L89.7832 20.8164C90.6374 19.6914 91.2936 18.4232 91.752 17.0117L93.9082 17.1836C93.7207 17.694 93.5176 18.1888 93.2988 18.668L99.1426 18.668C99.1426 20.9544 99.1296 22.957 99.1035 24.6758C99.0827 26.3945 99.0514 27.7669 99.0098 28.793C98.9733 29.819 98.7311 30.5951 98.2832 31.1211C97.8405 31.6523 97.2884 31.9518 96.627 32.0195C95.9707 32.0872 94.8249 32.1055 93.1895 32.0742C93.0436 31.2513 92.8926 30.5273 92.7363 29.9023C93.8717 29.9961 94.7936 30.043 95.502 30.043C95.9395 30.043 96.291 29.9258 96.5566 29.6914C96.8275 29.457 96.9681 28.944 96.9785 28.1523L95.9395 28.6836L95.6113 28.0117C93.1165 28.194 91.2832 28.4076 90.1113 28.6523L89.4707 26.8711C90.2728 26.2773 91.2728 24.5117 92.4707 21.5742L94.4707 22.3867L92.0176 26.5742L94.791 26.3945C94.4421 25.7227 94.0749 25.0378 93.6895 24.3398L95.2988 23.4961C95.877 24.4492 96.4525 25.4518 97.0254 26.5039C97.0618 24.9414 97.0801 22.9753 97.0801 20.6055L92.2832 20.6055C91.7467 21.5117 91.1478 22.3607 90.4863 23.1523C90.028 22.6471 89.5931 22.2044 89.1816 21.8242L88.2832 21.8242L88.2832 22.7305C89.0176 23.3919 89.7363 24.0586 90.4395 24.7305L89.0801 26.0117C88.8145 25.6315 88.5488 25.2669 88.2832 24.918L88.2832 32.2617L86.252 32.2617L86.252 25.668C85.8301 26.7669 85.3197 27.8086 84.7207 28.793C84.6061 28.0742 84.429 27.1211 84.1895 25.9336ZM102.752 16.8555C103.606 17.8763 104.351 18.8086 104.986 19.6523L103.049 20.9648C102.299 19.7253 101.617 18.7409 101.002 18.0117L102.752 16.8555ZM115.705 20.6367C115.507 21.4805 115.377 22.1211 115.314 22.5586C114.346 22.5794 113.637 22.5898 113.189 22.5898C112.012 22.5898 111.424 22.0326 111.424 20.918L111.424 19.3398L108.752 19.3398C108.742 20.8242 108.041 22.1523 106.65 23.3242L114.564 23.3242L114.564 25.168C113.83 26.6159 112.932 27.8581 111.869 28.8945C113.025 29.4414 114.33 29.8294 115.783 30.0586C115.367 30.694 114.96 31.4232 114.564 32.2461C112.872 31.8451 111.356 31.2253 110.018 30.3867C108.669 31.2826 107.122 31.9388 105.377 32.3555C105.106 31.6992 104.7 31.0169 104.158 30.3086C105.669 29.9805 106.989 29.5299 108.119 28.957C107.234 28.1497 106.45 27.2148 105.768 26.1523L107.135 25.2617L105.455 25.2617L105.455 23.3242L106.525 23.3242C106.114 22.8503 105.58 22.2982 104.924 21.668C106.049 20.8763 106.611 19.8034 106.611 18.4492L106.611 17.4336L113.533 17.4336L113.533 19.9336C113.533 20.3346 113.656 20.5586 113.9 20.6055C114.15 20.6523 114.752 20.6628 115.705 20.6367ZM109.994 27.7695C110.89 27.0508 111.596 26.2148 112.111 25.2617L107.611 25.2617C108.273 26.2409 109.067 27.0768 109.994 27.7695ZM105.314 26.3242C105.398 27.1159 105.549 27.9128 105.768 28.7148C104.309 30.0065 103.236 31.0378 102.549 31.8086L101.408 30.1367C101.627 29.8451 101.742 29.4388 101.752 28.918L101.752 24.2461L100.236 24.2461L100.236 22.1211L103.861 22.1211L103.861 27.793C104.153 27.4805 104.637 26.9909 105.314 26.3242ZM118.986 16.8711C119.799 17.9648 120.486 18.9336 121.049 19.7773L119.049 20.9805C118.538 20.0638 117.908 19.043 117.158 17.918L118.986 16.8711ZM121.439 21.6367L125.408 21.6367L125.408 16.8867L127.752 16.8867L127.752 21.6367L131.752 21.6367L131.752 23.7305L127.752 23.7305L127.752 32.3242L125.408 32.3242L125.408 23.7305L121.439 23.7305L121.439 21.6367ZM122.205 26.8555C122.288 27.8242 122.377 28.5951 122.471 29.168C120.471 30.4701 119.2 31.418 118.658 32.0117L117.502 30.4805C117.762 30.168 117.893 29.7305 117.893 29.168L117.893 24.1523L116.299 24.1523L116.299 22.1211L119.971 22.1211L119.971 28.293C120.398 28.043 121.143 27.5638 122.205 26.8555Z" fill="url(#paint11_linear_2204_5882)"/>
<g id="4" filter="url(#filter4_d_2204_5882)">
<path d="M50.5815 19.3745L50.5815 25.6206L51.9717 25.6206L51.9717 27.1123L50.5815 27.1123L50.5815 29.207L48.7153 29.207L48.7153 27.1123L44.3228 27.1123L44.3228 25.6079C45.2326 24.5923 46.0853 23.5174 46.8809 22.3833C47.6764 21.2492 48.2773 20.2463 48.6836 19.3745L50.5815 19.3745ZM46.1382 25.6206L48.7153 25.6206L48.7153 22.0151C48.5122 22.396 48.2202 22.8573 47.8394 23.3989C47.4627 23.9406 46.8957 24.6812 46.1382 25.6206Z" fill="white"/>
</g>
</g>
<defs>
<filter id="filter0_f_2204_5882" x="0.292969" y="0.0161133" width="170.988" height="15.3003" filterUnits="userSpaceOnUse" color-interpolation-filters="sRGB">
<feFlood flood-opacity="0" result="BackgroundImageFix"/>
<feBlend mode="normal" in="SourceGraphic" in2="BackgroundImageFix" result="shape"/>
<feGaussianBlur stdDeviation="3" result="effect1_foregroundBlur_2204_5882"/>
</filter>
<filter id="filter1_f_2204_5882" x="0.292969" y="33.0161" width="170.988" height="15.3003" filterUnits="userSpaceOnUse" color-interpolation-filters="sRGB">
<feFlood flood-opacity="0" result="BackgroundImageFix"/>
<feBlend mode="normal" in="SourceGraphic" in2="BackgroundImageFix" result="shape"/>
<feGaussianBlur stdDeviation="3" result="effect1_foregroundBlur_2204_5882"/>
</filter>
<filter id="filter2_f_2204_5882" x="4.29297" y="39.0161" width="162.988" height="5" filterUnits="userSpaceOnUse" color-interpolation-filters="sRGB">
<feFlood flood-opacity="0" result="BackgroundImageFix"/>
<feBlend mode="normal" in="SourceGraphic" in2="BackgroundImageFix" result="shape"/>
<feGaussianBlur stdDeviation="1" result="effect1_foregroundBlur_2204_5882"/>
</filter>
<filter id="filter3_f_2204_5882" x="4.29297" y="4.01611" width="162.988" height="5" filterUnits="userSpaceOnUse" color-interpolation-filters="sRGB">
<feFlood flood-opacity="0" result="BackgroundImageFix"/>
<feBlend mode="normal" in="SourceGraphic" in2="BackgroundImageFix" result="shape"/>
<feGaussianBlur stdDeviation="1" result="effect1_foregroundBlur_2204_5882"/>
</filter>
<filter id="filter4_d_2204_5882" x="43.3242" y="19.3745" width="9.64844" height="11.8325" filterUnits="userSpaceOnUse" color-interpolation-filters="sRGB">
<feFlood flood-opacity="0" result="BackgroundImageFix"/>
<feColorMatrix in="SourceAlpha" type="matrix" values="0 0 0 0 0 0 0 0 0 0 0 0 0 0 0 0 0 0 127 0" result="hardAlpha"/>
<feOffset dy="1"/>
<feGaussianBlur stdDeviation="0.5"/>
<feComposite in2="hardAlpha" operator="out"/>
<feColorMatrix type="matrix" values="0 0 0 0 0.227451 0 0 0 0 0.513726 0 0 0 0 0.988235 0 0 0 1 0"/>
<feBlend mode="normal" in2="BackgroundImageFix" result="effect1_dropShadow_2204_5882"/>
<feBlend mode="normal" in="SourceGraphic" in2="effect1_dropShadow_2204_5882" result="shape"/>
</filter>
<linearGradient id="paint0_linear_2204_5882" x1="6.29297" y1="24.0071" x2="165.281" y2="24.0071" gradientUnits="userSpaceOnUse">
<stop stop-color="#4F91FD"/>
<stop offset="0.525723" stop-color="#A2C9FF" stop-opacity="0.6"/>
<stop offset="1" stop-color="#488CFD"/>
</linearGradient>
<linearGradient id="paint1_linear_2204_5882" x1="6.29297" y1="24.0071" x2="165.281" y2="24.0071" gradientUnits="userSpaceOnUse">
<stop stop-color="#A2C9FF" stop-opacity="0.9"/>
<stop offset="0.525723" stop-color="#70E5FF" stop-opacity="0.6"/>
<stop offset="1" stop-color="#A2C9FF" stop-opacity="0.9"/>
</linearGradient>
<linearGradient id="paint2_linear_2204_5882" x1="6.29297" y1="7.66626" x2="165.281" y2="7.66626" gradientUnits="userSpaceOnUse">
<stop stop-color="white" stop-opacity="0.6"/>
<stop offset="0.525723" stop-color="#A2FFFD" stop-opacity="0.6"/>
<stop offset="1" stop-color="white" stop-opacity="0.6"/>
</linearGradient>
<linearGradient id="paint3_linear_2204_5882" x1="6.29297" y1="40.6663" x2="165.281" y2="40.6663" gradientUnits="userSpaceOnUse">
<stop stop-color="white" stop-opacity="0.6"/>
<stop offset="0.525723" stop-color="#A2FFFD" stop-opacity="0.6"/>
<stop offset="1" stop-color="white" stop-opacity="0.6"/>
</linearGradient>
<linearGradient id="paint4_linear_2204_5882" x1="6.29297" y1="41.5161" x2="165.281" y2="41.5161" gradientUnits="userSpaceOnUse">
<stop stop-color="white" stop-opacity="0.9"/>
<stop offset="0.525723" stop-color="#EBFFFF"/>
<stop offset="1" stop-color="white" stop-opacity="0.9"/>
</linearGradient>
<linearGradient id="paint5_linear_2204_5882" x1="6.29297" y1="6.51611" x2="165.281" y2="6.51611" gradientUnits="userSpaceOnUse">
<stop stop-color="white" stop-opacity="0.9"/>
<stop offset="0.525723" stop-color="#EBFFFF"/>
<stop offset="1" stop-color="white" stop-opacity="0.9"/>
</linearGradient>
<linearGradient id="paint6_linear_2204_5882" x1="6.29297" y1="24.0071" x2="165.281" y2="24.0071" gradientUnits="userSpaceOnUse">
<stop stop-color="#6DD7FF"/>
<stop offset="1" stop-color="#7DBEFF"/>
</linearGradient>
<linearGradient id="paint7_linear_2204_5882" x1="146.061" y1="23.991" x2="-12.9272" y2="23.991" gradientUnits="userSpaceOnUse">
<stop stop-color="#419FFF"/>
<stop offset="1" stop-color="#47B3FF"/>
</linearGradient>
<linearGradient id="paint8_linear_2204_5882" x1="146.061" y1="23.991" x2="-12.9272" y2="23.991" gradientUnits="userSpaceOnUse">
<stop stop-color="#7EBEFF"/>
<stop offset="1" stop-color="#8BE3FF"/>
</linearGradient>
<linearGradient id="paint9_linear_2204_5882" x1="54.9782" y1="24.2065" x2="36.9782" y2="24.2065" gradientUnits="userSpaceOnUse">
<stop stop-color="#5997FD"/>
<stop offset="1" stop-color="#58D7FF"/>
</linearGradient>
<linearGradient id="paint10_linear_2204_5882" x1="39.1211" y1="24.2065" x2="57.0955" y2="24.8848" gradientUnits="userSpaceOnUse">
<stop stop-color="#D6F0FF"/>
<stop offset="1" stop-color="#C4E8FF"/>
</linearGradient>
<linearGradient id="paint11_linear_2204_5882" x1="100.002" y1="17.207" x2="100.002" y2="30.207" gradientUnits="userSpaceOnUse">
<stop stop-color="#666666"/>
<stop offset="1"/>
</linearGradient>
</defs>
</svg>
