<svg width="172" height="49" viewBox="0 0 172 49" fill="none" xmlns="http://www.w3.org/2000/svg">
<g id="4&#231;&#187;&#147;&#230;&#158;&#132;&#232;&#174;&#190;&#232;&#174;&#161;-&#231;&#130;&#185;&#229;&#135;&#187;&#233;&#162;&#156;&#232;&#137;&#178;">
<g id="Group 1321315616">
<mask id="mask0_2204_5897" style="mask-type:alpha" maskUnits="userSpaceOnUse" x="6" y="6" width="160" height="37">
<rect id="Rectangle 34628613" x="6.29297" y="6.06738" width="158.988" height="35.9819" fill="url(#paint0_linear_2204_5897)"/>
</mask>
<g mask="url(#mask0_2204_5897)">
<rect id="Rectangle 34628616" x="6.29297" y="6.06738" width="158.988" height="35.9819" fill="url(#paint1_linear_2204_5897)" stroke="url(#paint2_linear_2204_5897)"/>
</g>
</g>
<rect id="Rectangle 34628617" x="6.29297" y="6.06738" width="158.988" height="35.9819" fill="url(#paint3_linear_2204_5897)" stroke="url(#paint4_linear_2204_5897)"/>
<g id="Rectangle 34628615" filter="url(#filter0_f_2204_5897)">
<rect x="6.29297" y="6.06738" width="158.988" height="3.30029" fill="url(#paint5_linear_2204_5897)"/>
</g>
<g id="Rectangle 34628616_2" filter="url(#filter1_f_2204_5897)">
<rect x="6.29297" y="39.0674" width="158.988" height="3.30029" fill="url(#paint6_linear_2204_5897)"/>
</g>
<g id="Rectangle 34628617_2" filter="url(#filter2_f_2204_5897)">
<rect x="6.29297" y="41.0674" width="158.988" height="1" fill="url(#paint7_linear_2204_5897)"/>
</g>
<g id="Rectangle 34628618" filter="url(#filter3_f_2204_5897)">
<rect x="6.29297" y="6.06738" width="158.988" height="1" fill="url(#paint8_linear_2204_5897)"/>
</g>
<path id="Rectangle 34628619" d="M6 11.0468L6 6.05127L11.9368 6.05127M6 37.0377L6 42.0332L11.9368 42.0332M164.988 11.0468L164.988 6.05127L159.052 6.05127M164.988 37.0377L164.988 42.0332L159.052 42.0332" stroke="url(#paint9_linear_2204_5897)" stroke-width="2"/>
<path id="Rectangle 34628620" d="M6 11.0468L6 6.05127L11.9368 6.05127M6 37.0377L6 42.0332L11.9368 42.0332M164.988 11.0468L164.988 6.05127L159.052 6.05127M164.988 37.0377L164.988 42.0332L159.052 42.0332" stroke="url(#paint10_linear_2204_5897)"/>
<path id="Vector" d="M48.1211 15.7578C50.4954 15.7578 52.4946 16.5802 54.1484 18.2324C55.6987 19.7813 56.5183 21.6347 56.6123 23.8164L56.6211 24.2568C56.6182 26.6319 55.7957 28.6322 54.1475 30.2861C52.6032 31.8355 50.7503 32.655 48.5635 32.749L48.1221 32.7578L48.1211 32.7578C45.8934 32.7578 43.9976 32.0355 42.4092 30.585L42.0957 30.2852C40.4435 28.6314 39.6211 26.6321 39.6211 24.2578C39.6211 22.0319 40.3442 20.1366 41.7959 18.5469L42.0957 18.2324C43.748 16.5801 45.7467 15.7578 48.1211 15.7578Z" fill="url(#paint11_linear_2204_5897)" stroke="url(#paint12_linear_2204_5897)"/>
<g id="&#231;&#187;&#147;&#230;&#158;&#132;&#232;&#174;&#190;&#232;&#174;&#161;">
<mask id="path-11-outside-1_2204_5897" maskUnits="userSpaceOnUse" x="67.125" y="15.2583" width="66" height="18" fill="black">
<rect fill="white" x="67.125" y="15.2583" width="66" height="18"/>
<path d="M74.3457 22.438L77.627 22.438L77.627 20.7349L74.1816 20.7349L74.7051 20.9849C73.4134 22.9536 72.304 24.5578 71.377 25.7974C72.127 25.7036 72.929 25.6151 73.7832 25.5317C73.7207 26.2401 73.679 26.8859 73.6582 27.4692C71.377 27.7192 69.8249 27.9536 69.002 28.1724L68.3926 26.4224C69.054 25.839 69.8405 24.8703 70.752 23.5161C69.9707 23.5734 69.2936 23.6411 68.7207 23.7192L68.1426 21.938C68.9655 20.9276 69.8665 19.2297 70.8457 16.8442L72.9082 17.6099C72.0853 19.1515 71.2728 20.5369 70.4707 21.7661L71.9082 21.6958L72.8457 20.0942L73.877 20.5864L73.877 18.8755L77.627 18.8755L77.627 16.9067L79.8145 16.9067L79.8145 18.8755L83.7207 18.8755L83.7207 20.7349L79.8145 20.7349L79.8145 22.438L83.252 22.438L83.252 24.2974L74.3457 24.2974L74.3457 22.438ZM74.4863 32.3599L74.4863 25.6411L83.0645 25.6411L83.0645 32.3599L80.9707 32.3599L80.9707 31.438L76.5801 31.438L76.5801 32.3599L74.4863 32.3599ZM80.9707 27.5474L76.5801 27.5474L76.5801 29.5317L80.9707 29.5317L80.9707 27.5474ZM68.5801 31.5474L68.2363 29.3599C70.0384 29.1307 71.9655 28.8599 74.0176 28.5474C73.9551 29.4224 73.929 30.1463 73.9395 30.7192C72.0853 30.9797 70.2988 31.2557 68.5801 31.5474ZM84.1895 25.9849C84.9811 24.7557 85.6087 23.3859 86.0723 21.8755L84.3457 21.8755L84.3457 20.0317L86.252 20.0317L86.252 17.0005L88.2832 17.0005L88.2832 20.0317L89.7832 20.0317L89.7832 20.8677C90.6374 19.7427 91.2936 18.4744 91.752 17.063L93.9082 17.2349C93.7207 17.7453 93.5176 18.2401 93.2988 18.7192L99.1426 18.7192C99.1426 21.0057 99.1296 23.0083 99.1035 24.7271C99.0827 26.4458 99.0514 27.8182 99.0098 28.8442C98.9733 29.8703 98.7311 30.6463 98.2832 31.1724C97.8405 31.7036 97.2884 32.0031 96.627 32.0708C95.9707 32.1385 94.8249 32.1567 93.1895 32.1255C93.0436 31.3026 92.8926 30.5786 92.7363 29.9536C93.8717 30.0474 94.7936 30.0942 95.502 30.0942C95.9395 30.0942 96.291 29.9771 96.5566 29.7427C96.8275 29.5083 96.9681 28.9953 96.9785 28.2036L95.9395 28.7349L95.6113 28.063C93.1165 28.2453 91.2832 28.4588 90.1113 28.7036L89.4707 26.9224C90.2728 26.3286 91.2728 24.563 92.4707 21.6255L94.4707 22.438L92.0176 26.6255L94.791 26.4458C94.4421 25.7739 94.0749 25.089 93.6895 24.3911L95.2988 23.5474C95.877 24.5005 96.4525 25.5031 97.0254 26.5552C97.0618 24.9927 97.0801 23.0265 97.0801 20.6567L92.2832 20.6567C91.7467 21.563 91.1478 22.4119 90.4863 23.2036C90.028 22.6984 89.5931 22.2557 89.1816 21.8755L88.2832 21.8755L88.2832 22.7817C89.0176 23.4432 89.7363 24.1099 90.4395 24.7817L89.0801 26.063C88.8145 25.6828 88.5488 25.3182 88.2832 24.9692L88.2832 32.313L86.252 32.313L86.252 25.7192C85.8301 26.8182 85.3197 27.8599 84.7207 28.8442C84.6061 28.1255 84.429 27.1724 84.1895 25.9849ZM102.752 16.9067C103.606 17.9276 104.351 18.8599 104.986 19.7036L103.049 21.0161C102.299 19.7765 101.617 18.7922 101.002 18.063L102.752 16.9067ZM115.705 20.688C115.507 21.5317 115.377 22.1724 115.314 22.6099C114.346 22.6307 113.637 22.6411 113.189 22.6411C112.012 22.6411 111.424 22.0838 111.424 20.9692L111.424 19.3911L108.752 19.3911C108.742 20.8755 108.041 22.2036 106.65 23.3755L114.564 23.3755L114.564 25.2192C113.83 26.6672 112.932 27.9093 111.869 28.9458C113.025 29.4927 114.33 29.8807 115.783 30.1099C115.367 30.7453 114.96 31.4744 114.564 32.2974C112.872 31.8963 111.356 31.2765 110.018 30.438C108.669 31.3338 107.122 31.9901 105.377 32.4067C105.106 31.7505 104.7 31.0682 104.158 30.3599C105.669 30.0317 106.989 29.5812 108.119 29.0083C107.234 28.201 106.45 27.2661 105.768 26.2036L107.135 25.313L105.455 25.313L105.455 23.3755L106.525 23.3755C106.114 22.9015 105.58 22.3494 104.924 21.7192C106.049 20.9276 106.611 19.8547 106.611 18.5005L106.611 17.4849L113.533 17.4849L113.533 19.9849C113.533 20.3859 113.656 20.6099 113.9 20.6567C114.15 20.7036 114.752 20.714 115.705 20.688ZM109.994 27.8208C110.89 27.1021 111.596 26.2661 112.111 25.313L107.611 25.313C108.273 26.2922 109.067 27.1281 109.994 27.8208ZM105.314 26.3755C105.398 27.1672 105.549 27.964 105.768 28.7661C104.309 30.0578 103.236 31.089 102.549 31.8599L101.408 30.188C101.627 29.8963 101.742 29.4901 101.752 28.9692L101.752 24.2974L100.236 24.2974L100.236 22.1724L103.861 22.1724L103.861 27.8442C104.153 27.5317 104.637 27.0422 105.314 26.3755ZM118.986 16.9224C119.799 18.0161 120.486 18.9849 121.049 19.8286L119.049 21.0317C118.538 20.1151 117.908 19.0942 117.158 17.9692L118.986 16.9224ZM121.439 21.688L125.408 21.688L125.408 16.938L127.752 16.938L127.752 21.688L131.752 21.688L131.752 23.7817L127.752 23.7817L127.752 32.3755L125.408 32.3755L125.408 23.7817L121.439 23.7817L121.439 21.688ZM122.205 26.9067C122.288 27.8755 122.377 28.6463 122.471 29.2192C120.471 30.5213 119.2 31.4692 118.658 32.063L117.502 30.5317C117.762 30.2192 117.893 29.7817 117.893 29.2192L117.893 24.2036L116.299 24.2036L116.299 22.1724L119.971 22.1724L119.971 28.3442C120.398 28.0942 121.143 27.6151 122.205 26.9067Z"/>
</mask>
<path d="M74.3457 22.438L77.627 22.438L77.627 20.7349L74.1816 20.7349L74.7051 20.9849C73.4134 22.9536 72.304 24.5578 71.377 25.7974C72.127 25.7036 72.929 25.6151 73.7832 25.5317C73.7207 26.2401 73.679 26.8859 73.6582 27.4692C71.377 27.7192 69.8249 27.9536 69.002 28.1724L68.3926 26.4224C69.054 25.839 69.8405 24.8703 70.752 23.5161C69.9707 23.5734 69.2936 23.6411 68.7207 23.7192L68.1426 21.938C68.9655 20.9276 69.8665 19.2297 70.8457 16.8442L72.9082 17.6099C72.0853 19.1515 71.2728 20.5369 70.4707 21.7661L71.9082 21.6958L72.8457 20.0942L73.877 20.5864L73.877 18.8755L77.627 18.8755L77.627 16.9067L79.8145 16.9067L79.8145 18.8755L83.7207 18.8755L83.7207 20.7349L79.8145 20.7349L79.8145 22.438L83.252 22.438L83.252 24.2974L74.3457 24.2974L74.3457 22.438ZM74.4863 32.3599L74.4863 25.6411L83.0645 25.6411L83.0645 32.3599L80.9707 32.3599L80.9707 31.438L76.5801 31.438L76.5801 32.3599L74.4863 32.3599ZM80.9707 27.5474L76.5801 27.5474L76.5801 29.5317L80.9707 29.5317L80.9707 27.5474ZM68.5801 31.5474L68.2363 29.3599C70.0384 29.1307 71.9655 28.8599 74.0176 28.5474C73.9551 29.4224 73.929 30.1463 73.9395 30.7192C72.0853 30.9797 70.2988 31.2557 68.5801 31.5474ZM84.1895 25.9849C84.9811 24.7557 85.6087 23.3859 86.0723 21.8755L84.3457 21.8755L84.3457 20.0317L86.252 20.0317L86.252 17.0005L88.2832 17.0005L88.2832 20.0317L89.7832 20.0317L89.7832 20.8677C90.6374 19.7427 91.2936 18.4744 91.752 17.063L93.9082 17.2349C93.7207 17.7453 93.5176 18.2401 93.2988 18.7192L99.1426 18.7192C99.1426 21.0057 99.1296 23.0083 99.1035 24.7271C99.0827 26.4458 99.0514 27.8182 99.0098 28.8442C98.9733 29.8703 98.7311 30.6463 98.2832 31.1724C97.8405 31.7036 97.2884 32.0031 96.627 32.0708C95.9707 32.1385 94.8249 32.1567 93.1895 32.1255C93.0436 31.3026 92.8926 30.5786 92.7363 29.9536C93.8717 30.0474 94.7936 30.0942 95.502 30.0942C95.9395 30.0942 96.291 29.9771 96.5566 29.7427C96.8275 29.5083 96.9681 28.9953 96.9785 28.2036L95.9395 28.7349L95.6113 28.063C93.1165 28.2453 91.2832 28.4588 90.1113 28.7036L89.4707 26.9224C90.2728 26.3286 91.2728 24.563 92.4707 21.6255L94.4707 22.438L92.0176 26.6255L94.791 26.4458C94.4421 25.7739 94.0749 25.089 93.6895 24.3911L95.2988 23.5474C95.877 24.5005 96.4525 25.5031 97.0254 26.5552C97.0618 24.9927 97.0801 23.0265 97.0801 20.6567L92.2832 20.6567C91.7467 21.563 91.1478 22.4119 90.4863 23.2036C90.028 22.6984 89.5931 22.2557 89.1816 21.8755L88.2832 21.8755L88.2832 22.7817C89.0176 23.4432 89.7363 24.1099 90.4395 24.7817L89.0801 26.063C88.8145 25.6828 88.5488 25.3182 88.2832 24.9692L88.2832 32.313L86.252 32.313L86.252 25.7192C85.8301 26.8182 85.3197 27.8599 84.7207 28.8442C84.6061 28.1255 84.429 27.1724 84.1895 25.9849ZM102.752 16.9067C103.606 17.9276 104.351 18.8599 104.986 19.7036L103.049 21.0161C102.299 19.7765 101.617 18.7922 101.002 18.063L102.752 16.9067ZM115.705 20.688C115.507 21.5317 115.377 22.1724 115.314 22.6099C114.346 22.6307 113.637 22.6411 113.189 22.6411C112.012 22.6411 111.424 22.0838 111.424 20.9692L111.424 19.3911L108.752 19.3911C108.742 20.8755 108.041 22.2036 106.65 23.3755L114.564 23.3755L114.564 25.2192C113.83 26.6672 112.932 27.9093 111.869 28.9458C113.025 29.4927 114.33 29.8807 115.783 30.1099C115.367 30.7453 114.96 31.4744 114.564 32.2974C112.872 31.8963 111.356 31.2765 110.018 30.438C108.669 31.3338 107.122 31.9901 105.377 32.4067C105.106 31.7505 104.7 31.0682 104.158 30.3599C105.669 30.0317 106.989 29.5812 108.119 29.0083C107.234 28.201 106.45 27.2661 105.768 26.2036L107.135 25.313L105.455 25.313L105.455 23.3755L106.525 23.3755C106.114 22.9015 105.58 22.3494 104.924 21.7192C106.049 20.9276 106.611 19.8547 106.611 18.5005L106.611 17.4849L113.533 17.4849L113.533 19.9849C113.533 20.3859 113.656 20.6099 113.9 20.6567C114.15 20.7036 114.752 20.714 115.705 20.688ZM109.994 27.8208C110.89 27.1021 111.596 26.2661 112.111 25.313L107.611 25.313C108.273 26.2922 109.067 27.1281 109.994 27.8208ZM105.314 26.3755C105.398 27.1672 105.549 27.964 105.768 28.7661C104.309 30.0578 103.236 31.089 102.549 31.8599L101.408 30.188C101.627 29.8963 101.742 29.4901 101.752 28.9692L101.752 24.2974L100.236 24.2974L100.236 22.1724L103.861 22.1724L103.861 27.8442C104.153 27.5317 104.637 27.0422 105.314 26.3755ZM118.986 16.9224C119.799 18.0161 120.486 18.9849 121.049 19.8286L119.049 21.0317C118.538 20.1151 117.908 19.0942 117.158 17.9692L118.986 16.9224ZM121.439 21.688L125.408 21.688L125.408 16.938L127.752 16.938L127.752 21.688L131.752 21.688L131.752 23.7817L127.752 23.7817L127.752 32.3755L125.408 32.3755L125.408 23.7817L121.439 23.7817L121.439 21.688ZM122.205 26.9067C122.288 27.8755 122.377 28.6463 122.471 29.2192C120.471 30.5213 119.2 31.4692 118.658 32.063L117.502 30.5317C117.762 30.2192 117.893 29.7817 117.893 29.2192L117.893 24.2036L116.299 24.2036L116.299 22.1724L119.971 22.1724L119.971 28.3442C120.398 28.0942 121.143 27.6151 122.205 26.9067Z" fill="url(#paint13_linear_2204_5897)"/>
<path d="M74.3457 22.438L74.3457 21.938L73.8457 21.938L73.8457 22.438L74.3457 22.438ZM77.627 22.438L77.627 22.938L78.127 22.938L78.127 22.438L77.627 22.438ZM77.627 20.7349L78.127 20.7349L78.127 20.2349L77.627 20.2349L77.627 20.7349ZM74.1816 20.7349L74.1816 20.2349L73.9662 21.186L74.1816 20.7349ZM74.7051 20.9849L75.1231 21.2591L75.4372 20.7804L74.9206 20.5337L74.7051 20.9849ZM71.377 25.7974L70.9766 25.4979L70.2725 26.4393L71.439 26.2935L71.377 25.7974ZM73.7832 25.5317L74.2813 25.5757L74.3342 24.9756L73.7347 25.0341L73.7832 25.5317ZM73.6582 27.4692L73.7127 27.9663L74.1425 27.9192L74.1579 27.4871L73.6582 27.4692ZM69.002 28.1724L68.5298 28.3368L68.6823 28.7747L69.1304 28.6556L69.002 28.1724ZM68.3926 26.4224L68.0619 26.0474L67.8099 26.2695L67.9204 26.5868L68.3926 26.4224ZM70.752 23.5161L71.1667 23.7953L71.7409 22.9422L70.7154 23.0175L70.752 23.5161ZM68.7207 23.7192L68.2451 23.8736L68.3741 24.2711L68.7883 24.2147L68.7207 23.7192ZM68.1426 21.938L67.7549 21.6222L67.5829 21.8334L67.667 22.0923L68.1426 21.938ZM70.8457 16.8442L71.0197 16.3755L70.5667 16.2073L70.3832 16.6544L70.8457 16.8442ZM72.9082 17.6099L73.3493 17.8453L73.6189 17.3403L73.0822 17.1411L72.9082 17.6099ZM70.4707 21.7661L70.052 21.4929L69.5166 22.3134L70.4951 22.2655L70.4707 21.7661ZM71.9082 21.6958L71.9326 22.1952L72.203 22.182L72.3397 21.9484L71.9082 21.6958ZM72.8457 20.0942L73.0611 19.643L72.6463 19.4451L72.4142 19.8416L72.8457 20.0942ZM73.877 20.5864L73.6616 21.0377L74.377 21.3791L74.377 20.5864L73.877 20.5864ZM73.877 18.8755L73.877 18.3755L73.377 18.3755L73.377 18.8755L73.877 18.8755ZM77.627 18.8755L77.627 19.3755L78.127 19.3755L78.127 18.8755L77.627 18.8755ZM77.627 16.9067L77.627 16.4067L77.127 16.4067L77.127 16.9067L77.627 16.9067ZM79.8145 16.9067L80.3145 16.9067L80.3145 16.4067L79.8145 16.4067L79.8145 16.9067ZM79.8145 18.8755L79.3145 18.8755L79.3145 19.3755L79.8145 19.3755L79.8145 18.8755ZM83.7207 18.8755L84.2207 18.8755L84.2207 18.3755L83.7207 18.3755L83.7207 18.8755ZM83.7207 20.7349L83.7207 21.2349L84.2207 21.2349L84.2207 20.7349L83.7207 20.7349ZM79.8145 20.7349L79.8145 20.2349L79.3145 20.2349L79.3145 20.7349L79.8145 20.7349ZM79.8145 22.438L79.3145 22.438L79.3145 22.938L79.8145 22.938L79.8145 22.438ZM83.252 22.438L83.752 22.438L83.752 21.938L83.252 21.938L83.252 22.438ZM83.252 24.2974L83.252 24.7974L83.752 24.7974L83.752 24.2974L83.252 24.2974ZM74.3457 24.2974L73.8457 24.2974L73.8457 24.7974L74.3457 24.7974L74.3457 24.2974ZM74.4863 32.3599L73.9863 32.3599L73.9863 32.8599L74.4863 32.8599L74.4863 32.3599ZM74.4863 25.6411L74.4863 25.1411L73.9863 25.1411L73.9863 25.6411L74.4863 25.6411ZM83.0645 25.6411L83.5645 25.6411L83.5645 25.1411L83.0645 25.1411L83.0645 25.6411ZM83.0645 32.3599L83.0645 32.8599L83.5645 32.8599L83.5645 32.3599L83.0645 32.3599ZM80.9707 32.3599L80.4707 32.3599L80.4707 32.8599L80.9707 32.8599L80.9707 32.3599ZM80.9707 31.438L81.4707 31.438L81.4707 30.938L80.9707 30.938L80.9707 31.438ZM76.5801 31.438L76.5801 30.938L76.0801 30.938L76.0801 31.438L76.5801 31.438ZM76.5801 32.3599L76.5801 32.8599L77.0801 32.8599L77.0801 32.3599L76.5801 32.3599ZM80.9707 27.5474L81.4707 27.5474L81.4707 27.0474L80.9707 27.0474L80.9707 27.5474ZM76.5801 27.5474L76.5801 27.0474L76.0801 27.0474L76.0801 27.5474L76.5801 27.5474ZM76.5801 29.5317L76.0801 29.5317L76.0801 30.0317L76.5801 30.0317L76.5801 29.5317ZM80.9707 29.5317L80.9707 30.0317L81.4707 30.0317L81.4707 29.5317L80.9707 29.5317ZM68.5801 31.5474L68.0861 31.625L68.1647 32.125L68.6637 32.0403L68.5801 31.5474ZM68.2363 29.3599L68.1733 28.8639L67.6625 28.9288L67.7424 29.4375L68.2363 29.3599ZM74.0176 28.5474L74.5163 28.583L74.5609 27.9589L73.9423 28.0531L74.0176 28.5474ZM73.9395 30.7192L74.009 31.2144L74.4474 31.1528L74.4394 30.7101L73.9395 30.7192ZM74.3457 22.438L74.3457 22.938L77.627 22.938L77.627 22.438L77.627 21.938L74.3457 21.938L74.3457 22.438ZM77.627 22.438L78.127 22.438L78.127 20.7349L77.627 20.7349L77.127 20.7349L77.127 22.438L77.627 22.438ZM77.627 20.7349L77.627 20.2349L74.1816 20.2349L74.1816 20.7349L74.1816 21.2349L77.627 21.2349L77.627 20.7349ZM74.1816 20.7349L73.9662 21.186L74.4896 21.436L74.7051 20.9849L74.9206 20.5337L74.3971 20.2837L74.1816 20.7349ZM74.7051 20.9849L74.287 20.7106C72.9984 22.6747 71.8952 24.2696 70.9766 25.4979L71.377 25.7974L71.7774 26.0968C72.7129 24.846 73.8284 23.2326 75.1231 21.2591L74.7051 20.9849ZM71.377 25.7974L71.439 26.2935C72.1839 26.2004 72.9815 26.1123 73.8318 26.0294L73.7832 25.5317L73.7347 25.0341C72.8766 25.1178 72.07 25.2068 71.3149 25.3012L71.377 25.7974ZM73.7832 25.5317L73.2851 25.4878C73.222 26.203 73.1797 26.8577 73.1585 27.4514L73.6582 27.4692L74.1579 27.4871C74.1783 26.9141 74.2194 26.2771 74.2813 25.5757L73.7832 25.5317ZM73.6582 27.4692L73.6037 26.9722C71.3258 27.2219 69.7379 27.4594 68.8735 27.6891L69.002 28.1724L69.1304 28.6556C69.9118 28.4479 71.4281 28.2166 73.7127 27.9663L73.6582 27.4692ZM69.002 28.1724L69.4741 28.0079L68.8648 26.2579L68.3926 26.4224L67.9204 26.5868L68.5298 28.3368L69.002 28.1724ZM68.3926 26.4224L68.7233 26.7974C69.4332 26.1713 70.248 25.1603 71.1667 23.7953L70.752 23.5161L70.3372 23.2369C69.433 24.5803 68.6749 25.5067 68.0619 26.0474L68.3926 26.4224ZM70.752 23.5161L70.7154 23.0175C69.9271 23.0753 69.2392 23.1439 68.6531 23.2238L68.7207 23.7192L68.7883 24.2147C69.348 24.1383 70.0143 24.0716 70.7885 24.0148L70.752 23.5161ZM68.7207 23.7192L69.1963 23.5649L68.6182 21.7836L68.1426 21.938L67.667 22.0923L68.2451 23.8736L68.7207 23.7192ZM68.1426 21.938L68.5303 22.2537C69.4015 21.184 70.3249 19.4297 71.3083 17.0341L70.8457 16.8442L70.3832 16.6544C69.4082 19.0296 68.5295 20.6711 67.7549 21.6222L68.1426 21.938ZM70.8457 16.8442L70.6717 17.313L72.7342 18.0786L72.9082 17.6099L73.0822 17.1411L71.0197 16.3755L70.8457 16.8442ZM72.9082 17.6099L72.4671 17.3744C71.6498 18.9055 70.8447 20.278 70.052 21.4929L70.4707 21.7661L70.8894 22.0394C71.7009 20.7959 72.5207 19.3975 73.3493 17.8453L72.9082 17.6099ZM70.4707 21.7661L70.4951 22.2655L71.9326 22.1952L71.9082 21.6958L71.8838 21.1964L70.4463 21.2667L70.4707 21.7661ZM71.9082 21.6958L72.3397 21.9484L73.2772 20.3468L72.8457 20.0942L72.4142 19.8416L71.4767 21.4432L71.9082 21.6958ZM72.8457 20.0942L72.6303 20.5455L73.6616 21.0377L73.877 20.5864L74.0923 20.1352L73.0611 19.643L72.8457 20.0942ZM73.877 20.5864L74.377 20.5864L74.377 18.8755L73.877 18.8755L73.377 18.8755L73.377 20.5864L73.877 20.5864ZM73.877 18.8755L73.877 19.3755L77.627 19.3755L77.627 18.8755L77.627 18.3755L73.877 18.3755L73.877 18.8755ZM77.627 18.8755L78.127 18.8755L78.127 16.9067L77.627 16.9067L77.127 16.9067L77.127 18.8755L77.627 18.8755ZM77.627 16.9067L77.627 17.4067L79.8145 17.4067L79.8145 16.9067L79.8145 16.4067L77.627 16.4067L77.627 16.9067ZM79.8145 16.9067L79.3145 16.9067L79.3145 18.8755L79.8145 18.8755L80.3145 18.8755L80.3145 16.9067L79.8145 16.9067ZM79.8145 18.8755L79.8145 19.3755L83.7207 19.3755L83.7207 18.8755L83.7207 18.3755L79.8145 18.3755L79.8145 18.8755ZM83.7207 18.8755L83.2207 18.8755L83.2207 20.7349L83.7207 20.7349L84.2207 20.7349L84.2207 18.8755L83.7207 18.8755ZM83.7207 20.7349L83.7207 20.2349L79.8145 20.2349L79.8145 20.7349L79.8145 21.2349L83.7207 21.2349L83.7207 20.7349ZM79.8145 20.7349L79.3145 20.7349L79.3145 22.438L79.8145 22.438L80.3145 22.438L80.3145 20.7349L79.8145 20.7349ZM79.8145 22.438L79.8145 22.938L83.252 22.938L83.252 22.438L83.252 21.938L79.8145 21.938L79.8145 22.438ZM83.252 22.438L82.752 22.438L82.752 24.2974L83.252 24.2974L83.752 24.2974L83.752 22.438L83.252 22.438ZM83.252 24.2974L83.252 23.7974L74.3457 23.7974L74.3457 24.2974L74.3457 24.7974L83.252 24.7974L83.252 24.2974ZM74.3457 24.2974L74.8457 24.2974L74.8457 22.438L74.3457 22.438L73.8457 22.438L73.8457 24.2974L74.3457 24.2974ZM74.4863 32.3599L74.9863 32.3599L74.9863 25.6411L74.4863 25.6411L73.9863 25.6411L73.9863 32.3599L74.4863 32.3599ZM74.4863 25.6411L74.4863 26.1411L83.0645 26.1411L83.0645 25.6411L83.0645 25.1411L74.4863 25.1411L74.4863 25.6411ZM83.0645 25.6411L82.5645 25.6411L82.5645 32.3599L83.0645 32.3599L83.5645 32.3599L83.5645 25.6411L83.0645 25.6411ZM83.0645 32.3599L83.0645 31.8599L80.9707 31.8599L80.9707 32.3599L80.9707 32.8599L83.0645 32.8599L83.0645 32.3599ZM80.9707 32.3599L81.4707 32.3599L81.4707 31.438L80.9707 31.438L80.4707 31.438L80.4707 32.3599L80.9707 32.3599ZM80.9707 31.438L80.9707 30.938L76.5801 30.938L76.5801 31.438L76.5801 31.938L80.9707 31.938L80.9707 31.438ZM76.5801 31.438L76.0801 31.438L76.0801 32.3599L76.5801 32.3599L77.0801 32.3599L77.0801 31.438L76.5801 31.438ZM76.5801 32.3599L76.5801 31.8599L74.4863 31.8599L74.4863 32.3599L74.4863 32.8599L76.5801 32.8599L76.5801 32.3599ZM80.9707 27.5474L80.9707 27.0474L76.5801 27.0474L76.5801 27.5474L76.5801 28.0474L80.9707 28.0474L80.9707 27.5474ZM76.5801 27.5474L76.0801 27.5474L76.0801 29.5317L76.5801 29.5317L77.0801 29.5317L77.0801 27.5474L76.5801 27.5474ZM76.5801 29.5317L76.5801 30.0317L80.9707 30.0317L80.9707 29.5317L80.9707 29.0317L76.5801 29.0317L76.5801 29.5317ZM80.9707 29.5317L81.4707 29.5317L81.4707 27.5474L80.9707 27.5474L80.4707 27.5474L80.4707 29.5317L80.9707 29.5317ZM68.5801 31.5474L69.074 31.4697L68.7303 29.2822L68.2363 29.3599L67.7424 29.4375L68.0861 31.625L68.5801 31.5474ZM68.2363 29.3599L68.2994 29.8559C70.1061 29.6261 72.0373 29.3547 74.0929 29.0417L74.0176 28.5474L73.9423 28.0531C71.8937 28.365 69.9707 28.6353 68.1733 28.8639L68.2363 29.3599ZM74.0176 28.5474L73.5188 28.5117C73.4558 29.3947 73.4287 30.1349 73.4395 30.7283L73.9395 30.7192L74.4394 30.7101C74.4293 30.1578 74.4544 29.45 74.5163 28.583L74.0176 28.5474ZM73.9395 30.7192L73.8699 30.2241C72.0114 30.4851 70.2202 30.7619 68.4964 31.0544L68.5801 31.5474L68.6637 32.0403C70.3775 31.7495 72.1592 31.4742 74.009 31.2144L73.9395 30.7192ZM84.1895 25.9849L83.7691 25.7141L83.6592 25.8848L83.6993 26.0837L84.1895 25.9849ZM86.0723 21.8755L86.5503 22.0222L86.7487 21.3755L86.0723 21.3755L86.0723 21.8755ZM84.3457 21.8755L83.8457 21.8755L83.8457 22.3755L84.3457 22.3755L84.3457 21.8755ZM84.3457 20.0317L84.3457 19.5317L83.8457 19.5317L83.8457 20.0317L84.3457 20.0317ZM86.252 20.0317L86.252 20.5317L86.752 20.5317L86.752 20.0317L86.252 20.0317ZM86.252 17.0005L86.252 16.5005L85.752 16.5005L85.752 17.0005L86.252 17.0005ZM88.2832 17.0005L88.7832 17.0005L88.7832 16.5005L88.2832 16.5005L88.2832 17.0005ZM88.2832 20.0317L87.7832 20.0317L87.7832 20.5317L88.2832 20.5317L88.2832 20.0317ZM89.7832 20.0317L90.2832 20.0317L90.2832 19.5317L89.7832 19.5317L89.7832 20.0317ZM89.7832 20.8677L89.2832 20.8677L89.2832 22.3531L90.1814 21.17L89.7832 20.8677ZM91.752 17.063L91.7917 16.5646L91.3983 16.5332L91.2764 16.9086L91.752 17.063ZM93.9082 17.2349L94.3775 17.4073L94.6047 16.7888L93.9479 16.7364L93.9082 17.2349ZM93.2988 18.7192L92.844 18.5116L92.5209 19.2192L93.2988 19.2192L93.2988 18.7192ZM99.1426 18.7192L99.6426 18.7192L99.6426 18.2192L99.1426 18.2192L99.1426 18.7192ZM99.1035 24.7271L98.6036 24.7195L98.6036 24.721L99.1035 24.7271ZM99.0098 28.8442L98.5102 28.8239L98.5101 28.8265L99.0098 28.8442ZM98.2832 31.1724L97.9025 30.8482L97.8991 30.8523L98.2832 31.1724ZM96.627 32.0708L96.576 31.5734L96.5756 31.5734L96.627 32.0708ZM93.1895 32.1255L92.6971 32.2127L92.7689 32.6175L93.1799 32.6254L93.1895 32.1255ZM92.7363 29.9536L92.7775 29.4553L92.082 29.3979L92.2513 30.0749L92.7363 29.9536ZM96.5566 29.7427L96.2294 29.3646L96.2258 29.3678L96.5566 29.7427ZM96.9785 28.2036L97.4785 28.2102L97.4894 27.3809L96.7509 27.7584L96.9785 28.2036ZM95.9395 28.7349L95.4902 28.9543L95.7136 29.4119L96.1671 29.1801L95.9395 28.7349ZM95.6113 28.063L96.0606 27.8436L95.9122 27.5397L95.5749 27.5643L95.6113 28.063ZM90.1113 28.7036L89.6408 28.8728L89.788 29.282L90.2136 29.193L90.1113 28.7036ZM89.4707 26.9224L89.1732 26.5205L88.8744 26.7417L89.0002 27.0916L89.4707 26.9224ZM92.4707 21.6255L92.6589 21.1623L92.1963 20.9743L92.0077 21.4367L92.4707 21.6255ZM94.4707 22.438L94.9021 22.6907L95.1942 22.1922L94.6589 21.9748L94.4707 22.438ZM92.0176 26.6255L91.5862 26.3728L91.1101 27.1853L92.0499 27.1244L92.0176 26.6255ZM94.791 26.4458L94.8233 26.9448L95.5879 26.8952L95.2347 26.2153L94.791 26.4458ZM93.6895 24.3911L93.4573 23.9483L93.0047 24.1855L93.2518 24.6328L93.6895 24.3911ZM95.2988 23.5474L95.7263 23.2881L95.4827 22.8864L95.0667 23.1045L95.2988 23.5474ZM97.0254 26.5552L96.5863 26.7943L97.4816 28.4384L97.5253 26.5668L97.0254 26.5552ZM97.0801 20.6567L97.5801 20.6567L97.5801 20.1567L97.0801 20.1567L97.0801 20.6567ZM92.2832 20.6567L92.2832 20.1567L91.9981 20.1567L91.8529 20.402L92.2832 20.6567ZM90.4863 23.2036L90.116 23.5396L90.5018 23.9649L90.87 23.5242L90.4863 23.2036ZM89.1816 21.8755L89.521 21.5083L89.3773 21.3755L89.1816 21.3755L89.1816 21.8755ZM88.2832 21.8755L88.2832 21.3755L87.7832 21.3755L87.7832 21.8755L88.2832 21.8755ZM88.2832 22.7817L87.7832 22.7817L87.7832 23.0043L87.9486 23.1533L88.2832 22.7817ZM90.4395 24.7817L90.7824 25.1456L91.1658 24.7842L90.7849 24.4202L90.4395 24.7817ZM89.0801 26.063L88.6702 26.3493L89.0017 26.8239L89.423 26.4268L89.0801 26.063ZM88.2832 24.9692L88.6811 24.6664L87.7832 23.4869L87.7832 24.9692L88.2832 24.9692ZM88.2832 32.313L88.2832 32.813L88.7832 32.813L88.7832 32.313L88.2832 32.313ZM86.252 32.313L85.752 32.313L85.752 32.813L86.252 32.813L86.252 32.313ZM86.252 25.7192L86.752 25.7192L85.7852 25.54L86.252 25.7192ZM84.7207 28.8442L84.2269 28.923L84.441 30.2658L85.1478 29.1041L84.7207 28.8442ZM84.1895 25.9849L84.6098 26.2556C85.4282 24.985 86.0744 23.5729 86.5503 22.0222L86.0723 21.8755L85.5943 21.7288C85.1431 23.1989 84.534 24.5264 83.7691 25.7141L84.1895 25.9849ZM86.0723 21.8755L86.0723 21.3755L84.3457 21.3755L84.3457 21.8755L84.3457 22.3755L86.0723 22.3755L86.0723 21.8755ZM84.3457 21.8755L84.8457 21.8755L84.8457 20.0317L84.3457 20.0317L83.8457 20.0317L83.8457 21.8755L84.3457 21.8755ZM84.3457 20.0317L84.3457 20.5317L86.252 20.5317L86.252 20.0317L86.252 19.5317L84.3457 19.5317L84.3457 20.0317ZM86.252 20.0317L86.752 20.0317L86.752 17.0005L86.252 17.0005L85.752 17.0005L85.752 20.0317L86.252 20.0317ZM86.252 17.0005L86.252 17.5005L88.2832 17.5005L88.2832 17.0005L88.2832 16.5005L86.252 16.5005L86.252 17.0005ZM88.2832 17.0005L87.7832 17.0005L87.7832 20.0317L88.2832 20.0317L88.7832 20.0317L88.7832 17.0005L88.2832 17.0005ZM88.2832 20.0317L88.2832 20.5317L89.7832 20.5317L89.7832 20.0317L89.7832 19.5317L88.2832 19.5317L88.2832 20.0317ZM89.7832 20.0317L89.2832 20.0317L89.2832 20.8677L89.7832 20.8677L90.2832 20.8677L90.2832 20.0317L89.7832 20.0317ZM89.7832 20.8677L90.1814 21.17C91.0712 19.9982 91.7528 18.6794 92.2275 17.2174L91.752 17.063L91.2764 16.9086C90.8345 18.2694 90.2036 19.4872 89.385 20.5653L89.7832 20.8677ZM91.752 17.063L91.7122 17.5614L93.8685 17.7333L93.9082 17.2349L93.9479 16.7364L91.7917 16.5646L91.752 17.063ZM93.9082 17.2349L93.4389 17.0625C93.2556 17.5613 93.0573 18.0443 92.844 18.5116L93.2988 18.7192L93.7537 18.9269C93.9779 18.4358 94.1858 17.9292 94.3775 17.4073L93.9082 17.2349ZM93.2988 18.7192L93.2988 19.2192L99.1426 19.2192L99.1426 18.7192L99.1426 18.2192L93.2988 18.2192L93.2988 18.7192ZM99.1426 18.7192L98.6426 18.7192C98.6426 21.0039 98.6296 23.0039 98.6036 24.7195L99.1035 24.7271L99.6035 24.7346C99.6295 23.0127 99.6426 21.0075 99.6426 18.7192L99.1426 18.7192ZM99.1035 24.7271L98.6036 24.721C98.5827 26.4377 98.5516 27.8047 98.5102 28.824L99.0098 28.8442L99.5094 28.8645C99.5513 27.8317 99.5826 26.4539 99.6035 24.7331L99.1035 24.7271ZM99.0098 28.8442L98.5101 28.8265C98.4758 29.7925 98.2493 30.4409 97.9025 30.8482L98.2832 31.1724L98.6639 31.4965C99.2129 30.8517 99.4709 29.9481 99.5094 28.862L99.0098 28.8442ZM98.2832 31.1724L97.8991 30.8523C97.5363 31.2876 97.1019 31.5196 96.576 31.5734L96.627 32.0708L96.6779 32.5682C97.475 32.4866 98.1447 32.1196 98.6673 31.4925L98.2832 31.1724ZM96.627 32.0708L96.5756 31.5734C95.9532 31.6377 94.8351 31.6568 93.199 31.6256L93.1895 32.1255L93.1799 32.6254C94.8146 32.6566 95.9882 32.6394 96.6783 32.5682L96.627 32.0708ZM93.1895 32.1255L93.6818 32.0382C93.5345 31.2071 93.3811 30.4713 93.2214 29.8323L92.7363 29.9536L92.2513 30.0749C92.404 30.6859 92.5528 31.3981 92.6971 32.2127L93.1895 32.1255ZM92.7363 29.9536L92.6952 30.4519C93.8371 30.5462 94.7742 30.5942 95.502 30.5942L95.502 30.0942L95.502 29.5942C94.813 29.5942 93.9063 29.5485 92.7775 29.4553L92.7363 29.9536ZM95.502 30.0942L95.502 30.5942C96.0315 30.5942 96.5104 30.4503 96.8875 30.1176L96.5566 29.7427L96.2258 29.3678C96.0717 29.5038 95.8474 29.5942 95.502 29.5942L95.502 30.0942ZM96.5566 29.7427L96.8838 30.1208C97.1223 29.9144 97.2629 29.6227 97.3474 29.3143C97.433 29.0022 97.473 28.63 97.4785 28.2102L96.9785 28.2036L96.4786 28.197C96.4737 28.5689 96.4381 28.8491 96.383 29.0499C96.3269 29.2546 96.2618 29.3366 96.2295 29.3646L96.5566 29.7427ZM96.9785 28.2036L96.7509 27.7584L95.7118 28.2897L95.9395 28.7349L96.1671 29.1801L97.2061 28.6488L96.9785 28.2036ZM95.9395 28.7349L96.3887 28.5154L96.0606 27.8436L95.6113 28.063L95.162 28.2824L95.4902 28.9543L95.9395 28.7349ZM95.6113 28.063L95.5749 27.5643C93.0764 27.7469 91.2153 27.9622 90.0091 28.2142L90.1113 28.7036L90.2136 29.193C91.3511 28.9554 93.1567 28.7437 95.6478 28.5617L95.6113 28.063ZM90.1113 28.7036L90.5818 28.5344L89.9412 26.7532L89.4707 26.9224L89.0002 27.0916L89.6408 28.8728L90.1113 28.7036ZM89.4707 26.9224L89.7682 27.3242C90.2582 26.9615 90.7512 26.2929 91.2573 25.3992C91.772 24.4905 92.3306 23.2931 92.9337 21.8143L92.4707 21.6255L92.0077 21.4367C91.4129 22.8953 90.8725 24.0495 90.3872 24.9064C89.8933 25.7784 89.4852 26.2895 89.1732 26.5205L89.4707 26.9224ZM92.4707 21.6255L92.2825 22.0887L94.2825 22.9012L94.4707 22.438L94.6589 21.9748L92.6589 21.1623L92.4707 21.6255ZM94.4707 22.438L94.0393 22.1853L91.5862 26.3728L92.0176 26.6255L92.449 26.8782L94.9021 22.6907L94.4707 22.438ZM92.0176 26.6255L92.0499 27.1244L94.8233 26.9448L94.791 26.4458L94.7587 25.9468L91.9853 26.1265L92.0176 26.6255ZM94.791 26.4458L95.2347 26.2153C94.8837 25.5395 94.5145 24.8508 94.1271 24.1494L93.6895 24.3911L93.2518 24.6328C93.6352 25.3272 94.0004 26.0084 94.3473 26.6763L94.791 26.4458ZM93.6895 24.3911L93.9216 24.8339L95.531 23.9902L95.2988 23.5474L95.0667 23.1045L93.4573 23.9483L93.6895 24.3911ZM95.2988 23.5474L94.8713 23.8067C95.4451 24.7527 96.0168 25.7485 96.5863 26.7943L97.0254 26.5552L97.4645 26.3161C96.8881 25.2577 96.3088 24.2483 95.7263 23.2881L95.2988 23.5474ZM97.0254 26.5552L97.5253 26.5668C97.5618 24.999 97.5801 23.0287 97.5801 20.6567L97.0801 20.6567L96.5801 20.6567C96.5801 23.0244 96.5619 24.9863 96.5255 26.5435L97.0254 26.5552ZM97.0801 20.6567L97.0801 20.1567L92.2832 20.1567L92.2832 20.6567L92.2832 21.1567L97.0801 21.1567L97.0801 20.6567ZM92.2832 20.6567L91.8529 20.402C91.3299 21.2856 90.7465 22.1125 90.1026 22.883L90.4863 23.2036L90.87 23.5242C91.5491 22.7114 92.1636 21.8404 92.7135 20.9114L92.2832 20.6567ZM90.4863 23.2036L90.8566 22.8677C90.3905 22.3538 89.9452 21.9003 89.521 21.5083L89.1816 21.8755L88.8423 22.2427C89.241 22.6111 89.6655 23.043 90.116 23.5396L90.4863 23.2036ZM89.1816 21.8755L89.1816 21.3755L88.2832 21.3755L88.2832 21.8755L88.2832 22.3755L89.1816 22.3755L89.1816 21.8755ZM88.2832 21.8755L87.7832 21.8755L87.7832 22.7817L88.2832 22.7817L88.7832 22.7817L88.7832 21.8755L88.2832 21.8755ZM88.2832 22.7817L87.9486 23.1533C88.6794 23.8115 89.3945 24.4748 90.094 25.1432L90.4395 24.7817L90.7849 24.4202C90.0782 23.7449 89.3558 23.0749 88.6178 22.4102L88.2832 22.7817ZM90.4395 24.7817L90.0965 24.4179L88.7371 25.6991L89.0801 26.063L89.423 26.4268L90.7824 25.1456L90.4395 24.7817ZM89.0801 26.063L89.49 25.7766C89.2207 25.3912 88.951 25.0211 88.6811 24.6664L88.2832 24.9692L87.8854 25.2721C88.1466 25.6153 88.4082 25.9744 88.6702 26.3493L89.0801 26.063ZM88.2832 24.9692L87.7832 24.9692L87.7832 32.313L88.2832 32.313L88.7832 32.313L88.7832 24.9692L88.2832 24.9692ZM88.2832 32.313L88.2832 31.813L86.252 31.813L86.252 32.313L86.252 32.813L88.2832 32.813L88.2832 32.313ZM86.252 32.313L86.752 32.313L86.752 25.7192L86.252 25.7192L85.752 25.7192L85.752 32.313L86.252 32.313ZM86.252 25.7192L85.7852 25.54C85.3738 26.6116 84.8766 27.6262 84.2936 28.5843L84.7207 28.8442L85.1478 29.1041C85.7628 28.0936 86.2863 27.0248 86.7187 25.8984L86.252 25.7192ZM84.7207 28.8442L85.2145 28.7655C85.0983 28.0371 84.9198 27.0764 84.6796 25.886L84.1895 25.9849L83.6993 26.0837C83.9383 27.2683 84.1139 28.2139 84.2269 28.923L84.7207 28.8442ZM102.752 16.9067L103.135 16.5859L102.849 16.2434L102.476 16.4896L102.752 16.9067ZM104.986 19.7036L105.267 20.1176L105.702 19.8227L105.386 19.4028L104.986 19.7036ZM103.049 21.0161L102.621 21.2749L102.893 21.7253L103.329 21.4301L103.049 21.0161ZM101.002 18.063L100.726 17.6458L100.258 17.9556L100.62 18.3852L101.002 18.063ZM115.705 20.688L116.192 20.8022L116.34 20.1705L115.691 20.1882L115.705 20.688ZM115.314 22.6099L115.325 23.1097L115.749 23.1006L115.809 22.6806L115.314 22.6099ZM111.424 19.3911L111.924 19.3911L111.924 18.8911L111.424 18.8911L111.424 19.3911ZM108.752 19.3911L108.752 18.8911L108.255 18.8911L108.252 19.3876L108.752 19.3911ZM106.65 23.3755L106.328 22.9931L105.281 23.8755L106.65 23.8755L106.65 23.3755ZM114.564 23.3755L115.064 23.3755L115.064 22.8755L114.564 22.8755L114.564 23.3755ZM114.564 25.2192L115.01 25.4454L115.064 25.3388L115.064 25.2192L114.564 25.2192ZM111.869 28.9458L111.52 28.5879L111.005 29.0902L111.655 29.3978L111.869 28.9458ZM115.783 30.1099L116.201 30.384L116.626 29.7366L115.861 29.616L115.783 30.1099ZM114.564 32.2974L114.449 32.7839L114.841 32.8766L115.015 32.5141L114.564 32.2974ZM110.018 30.438L110.283 30.0143L110.01 29.843L109.741 30.0215L110.018 30.438ZM105.377 32.4067L104.915 32.5975L105.078 32.9923L105.493 32.8931L105.377 32.4067ZM104.158 30.3599L104.052 29.8713L103.283 30.0384L103.761 30.6636L104.158 30.3599ZM108.119 29.0083L108.345 29.4543L108.991 29.1268L108.456 28.6388L108.119 29.0083ZM105.768 26.2036L105.495 25.7847L105.078 26.0558L105.347 26.4738L105.768 26.2036ZM107.135 25.313L107.408 25.7319L108.818 24.813L107.135 24.813L107.135 25.313ZM105.455 25.313L104.955 25.313L104.955 25.813L105.455 25.813L105.455 25.313ZM105.455 23.3755L105.455 22.8755L104.955 22.8755L104.955 23.3755L105.455 23.3755ZM106.525 23.3755L106.525 23.8755L107.622 23.8755L106.903 23.0477L106.525 23.3755ZM104.924 21.7192L104.636 21.3103L104.14 21.6596L104.578 22.0799L104.924 21.7192ZM106.611 17.4849L106.611 16.9849L106.111 16.9849L106.111 17.4849L106.611 17.4849ZM113.533 17.4849L114.033 17.4849L114.033 16.9849L113.533 16.9849L113.533 17.4849ZM113.9 20.6567L113.806 21.1478L113.808 21.1482L113.9 20.6567ZM109.994 27.8208L109.695 28.2213L110.005 28.4531L110.307 28.2108L109.994 27.8208ZM112.111 25.313L112.551 25.5509L112.95 24.813L112.111 24.813L112.111 25.313ZM107.611 25.313L107.611 24.813L106.67 24.813L107.197 25.5929L107.611 25.313ZM105.314 26.3755L105.812 26.3231L105.703 25.2912L104.964 26.0192L105.314 26.3755ZM105.768 28.7661L106.099 29.1404L106.332 28.9344L106.25 28.6346L105.768 28.7661ZM102.549 31.8599L102.136 32.1417L102.496 32.67L102.922 32.1927L102.549 31.8599ZM101.408 30.188L101.008 29.888L100.794 30.1742L100.995 30.4698L101.408 30.188ZM101.752 28.9692L102.252 28.9792L102.252 28.9692L101.752 28.9692ZM101.752 24.2974L102.252 24.2974L102.252 23.7974L101.752 23.7974L101.752 24.2974ZM100.236 24.2974L99.7363 24.2974L99.7363 24.7974L100.236 24.7974L100.236 24.2974ZM100.236 22.1724L100.236 21.6724L99.7363 21.6724L99.7363 22.1724L100.236 22.1724ZM103.861 22.1724L104.361 22.1724L104.361 21.6724L103.861 21.6724L103.861 22.1724ZM103.861 27.8442L103.361 27.8442L103.361 29.1127L104.227 28.1854L103.861 27.8442ZM102.752 16.9067L102.368 17.2276C103.219 18.2435 103.958 19.169 104.587 20.0044L104.986 19.7036L105.386 19.4028C104.744 18.5508 103.994 17.6117 103.135 16.5859L102.752 16.9067ZM104.986 19.7036L104.706 19.2897L102.768 20.6022L103.049 21.0161L103.329 21.4301L105.267 20.1176L104.986 19.7036ZM103.049 21.0161L103.477 20.7573C102.719 19.5056 102.022 18.4972 101.384 17.7408L101.002 18.063L100.62 18.3852C101.211 19.0871 101.878 20.0475 102.621 21.2749L103.049 21.0161ZM101.002 18.063L101.278 18.4802L103.028 17.3239L102.752 16.9067L102.476 16.4896L100.726 17.6458L101.002 18.063ZM115.705 20.688L115.218 20.5738C115.02 21.4211 114.885 22.0791 114.819 22.5392L115.314 22.6099L115.809 22.6806C115.869 22.2656 115.995 21.6424 116.192 20.8022L115.705 20.688ZM115.314 22.6099L115.304 22.11C114.335 22.1308 113.632 22.1411 113.189 22.1411L113.189 22.6411L113.189 23.1411C113.643 23.1411 114.356 23.1306 115.325 23.1097L115.314 22.6099ZM113.189 22.6411L113.189 22.1411C112.671 22.1411 112.376 22.018 112.209 21.8601C112.047 21.707 111.924 21.4423 111.924 20.9692L111.424 20.9692L110.924 20.9692C110.924 21.6108 111.095 22.182 111.521 22.5862C111.943 22.9856 112.53 23.1411 113.189 23.1411L113.189 22.6411ZM111.424 20.9692L111.924 20.9692L111.924 19.3911L111.424 19.3911L110.924 19.3911L110.924 20.9692L111.424 20.9692ZM111.424 19.3911L111.424 18.8911L108.752 18.8911L108.752 19.3911L108.752 19.8911L111.424 19.8911L111.424 19.3911ZM108.752 19.3911L108.252 19.3876C108.243 20.6933 107.634 21.8923 106.328 22.9931L106.65 23.3755L106.973 23.7578C108.448 22.5149 109.24 21.0576 109.252 19.3946L108.752 19.3911ZM106.65 23.3755L106.65 23.8755L114.564 23.8755L114.564 23.3755L114.564 22.8755L106.65 22.8755L106.65 23.3755ZM114.564 23.3755L114.064 23.3755L114.064 25.2192L114.564 25.2192L115.064 25.2192L115.064 23.3755L114.564 23.3755ZM114.564 25.2192L114.119 24.9931C113.407 26.3966 112.54 27.5932 111.52 28.5879L111.869 28.9458L112.218 29.3037C113.324 28.2255 114.254 26.9377 115.01 25.4454L114.564 25.2192ZM111.869 28.9458L111.655 29.3978C112.861 29.9678 114.212 30.3683 115.705 30.6038L115.783 30.1099L115.861 29.616C114.448 29.3931 113.19 29.0175 112.083 28.4938L111.869 28.9458ZM115.783 30.1099L115.365 29.8357C114.934 30.4927 114.517 31.2417 114.114 32.0806L114.564 32.2974L115.015 32.5141C115.403 31.7072 115.799 30.9978 116.201 30.384L115.783 30.1099ZM114.564 32.2974L114.68 31.8108C113.035 31.4211 111.571 30.821 110.283 30.0143L110.018 30.438L109.752 30.8617C111.141 31.732 112.709 32.3715 114.449 32.7839L114.564 32.2974ZM110.018 30.438L109.741 30.0215C108.446 30.8815 106.955 31.5159 105.261 31.9204L105.377 32.4067L105.493 32.8931C107.289 32.4642 108.891 31.7862 110.294 30.8545L110.018 30.438ZM105.377 32.4067L105.839 32.216C105.548 31.5107 105.117 30.7907 104.555 30.0561L104.158 30.3599L103.761 30.6636C104.283 31.3457 104.664 31.9903 104.915 32.5975L105.377 32.4067ZM104.158 30.3599L104.264 30.8485C105.808 30.5132 107.17 30.0501 108.345 29.4543L108.119 29.0083L107.893 28.5623C106.808 29.1123 105.53 29.5503 104.052 29.8713L104.158 30.3599ZM108.119 29.0083L108.456 28.6388C107.604 27.8624 106.848 26.9613 106.188 25.9334L105.768 26.2036L105.347 26.4738C106.051 27.5709 106.863 28.5396 107.782 29.3778L108.119 29.0083ZM105.768 26.2036L106.04 26.6226L107.408 25.7319L107.135 25.313L106.862 24.894L105.495 25.7847L105.768 26.2036ZM107.135 25.313L107.135 24.813L105.455 24.813L105.455 25.313L105.455 25.813L107.135 25.813L107.135 25.313ZM105.455 25.313L105.955 25.313L105.955 23.3755L105.455 23.3755L104.955 23.3755L104.955 25.313L105.455 25.313ZM105.455 23.3755L105.455 23.8755L106.525 23.8755L106.525 23.3755L106.525 22.8755L105.455 22.8755L105.455 23.3755ZM106.525 23.3755L106.903 23.0477C106.478 22.5585 105.933 21.9951 105.27 21.3586L104.924 21.7192L104.578 22.0799C105.227 22.7038 105.75 23.2445 106.148 23.7033L106.525 23.3755ZM104.924 21.7192L105.212 22.1281C106.467 21.2446 107.111 20.0204 107.111 18.5005L106.611 18.5005L106.111 18.5005C106.111 19.6889 105.631 20.6105 104.636 21.3103L104.924 21.7192ZM106.611 18.5005L107.111 18.5005L107.111 17.4849L106.611 17.4849L106.111 17.4849L106.111 18.5005L106.611 18.5005ZM106.611 17.4849L106.611 17.9849L113.533 17.9849L113.533 17.4849L113.533 16.9849L106.611 16.9849L106.611 17.4849ZM113.533 17.4849L113.033 17.4849L113.033 19.9849L113.533 19.9849L114.033 19.9849L114.033 17.4849L113.533 17.4849ZM113.533 19.9849L113.033 19.9849C113.033 20.2259 113.068 20.4775 113.186 20.6934C113.317 20.9328 113.533 21.0955 113.806 21.1478L113.9 20.6567L113.994 20.1657C114 20.1667 114.017 20.1715 114.037 20.186C114.046 20.1926 114.052 20.1994 114.057 20.2052C114.062 20.2108 114.064 20.2142 114.064 20.2138C114.063 20.2123 114.055 20.1961 114.047 20.1564C114.039 20.1168 114.033 20.0608 114.033 19.9849L113.533 19.9849ZM113.9 20.6567L113.808 21.1482C114.122 21.207 114.783 21.2134 115.719 21.1878L115.705 20.688L115.691 20.1882C114.72 20.2147 114.179 20.2002 113.993 20.1653L113.9 20.6567ZM109.994 27.8208L110.307 28.2108C111.252 27.4529 112.002 26.5661 112.551 25.5509L112.111 25.313L111.672 25.0751C111.19 25.9661 110.528 26.7513 109.681 27.4308L109.994 27.8208ZM112.111 25.313L112.111 24.813L107.611 24.813L107.611 25.313L107.611 25.813L112.111 25.813L112.111 25.313ZM107.611 25.313L107.197 25.5929C107.889 26.6174 108.722 27.4944 109.695 28.2213L109.994 27.8208L110.293 27.4203C109.412 26.7618 108.656 25.9669 108.026 25.0331L107.611 25.313ZM105.314 26.3755L104.817 26.4278C104.903 27.2474 105.06 28.0708 105.285 28.8977L105.768 28.7661L106.25 28.6346C106.038 27.8573 105.892 27.0869 105.812 26.3231L105.314 26.3755ZM105.768 28.7661L105.436 28.3918C103.973 29.6873 102.883 30.734 102.176 31.5271L102.549 31.8599L102.922 32.1927C103.59 31.4441 104.645 30.4283 106.099 29.1404L105.768 28.7661ZM102.549 31.8599L102.962 31.5781L101.821 29.9062L101.408 30.188L100.995 30.4698L102.136 32.1417L102.549 31.8599ZM101.408 30.188L101.808 30.488C102.112 30.0835 102.24 29.5615 102.252 28.9792L101.752 28.9692L101.252 28.9592C101.243 29.4186 101.142 29.7092 101.008 29.888L101.408 30.188ZM101.752 28.9692L102.252 28.9692L102.252 24.2974L101.752 24.2974L101.252 24.2974L101.252 28.9692L101.752 28.9692ZM101.752 24.2974L101.752 23.7974L100.236 23.7974L100.236 24.2974L100.236 24.7974L101.752 24.7974L101.752 24.2974ZM100.236 24.2974L100.736 24.2974L100.736 22.1724L100.236 22.1724L99.7363 22.1724L99.7363 24.2974L100.236 24.2974ZM100.236 22.1724L100.236 22.6724L103.861 22.6724L103.861 22.1724L103.861 21.6724L100.236 21.6724L100.236 22.1724ZM103.861 22.1724L103.361 22.1724L103.361 27.8442L103.861 27.8442L104.361 27.8442L104.361 22.1724L103.861 22.1724ZM103.861 27.8442L104.227 28.1854C104.511 27.8812 104.989 27.398 105.665 26.7318L105.314 26.3755L104.964 26.0192C104.286 26.6864 103.795 27.1823 103.496 27.5031L103.861 27.8442ZM118.986 16.9224L119.388 16.6242L119.123 16.2679L118.738 16.4885L118.986 16.9224ZM121.049 19.8286L121.307 20.2571L121.755 19.9871L121.465 19.5513L121.049 19.8286ZM119.049 21.0317L118.612 21.275L118.864 21.7267L119.307 21.4602L119.049 21.0317ZM117.158 17.9692L116.91 17.5353L116.445 17.8013L116.742 18.2466L117.158 17.9692ZM121.439 21.688L121.439 21.188L120.939 21.188L120.939 21.688L121.439 21.688ZM125.408 21.688L125.408 22.188L125.908 22.188L125.908 21.688L125.408 21.688ZM125.408 16.938L125.408 16.438L124.908 16.438L124.908 16.938L125.408 16.938ZM127.752 16.938L128.252 16.938L128.252 16.438L127.752 16.438L127.752 16.938ZM127.752 21.688L127.252 21.688L127.252 22.188L127.752 22.188L127.752 21.688ZM131.752 21.688L132.252 21.688L132.252 21.188L131.752 21.188L131.752 21.688ZM131.752 23.7817L131.752 24.2817L132.252 24.2817L132.252 23.7817L131.752 23.7817ZM127.752 23.7817L127.752 23.2817L127.252 23.2817L127.252 23.7817L127.752 23.7817ZM127.752 32.3755L127.752 32.8755L128.252 32.8755L128.252 32.3755L127.752 32.3755ZM125.408 32.3755L124.908 32.3755L124.908 32.8755L125.408 32.8755L125.408 32.3755ZM125.408 23.7817L125.908 23.7817L125.908 23.2817L125.408 23.2817L125.408 23.7817ZM121.439 23.7817L120.939 23.7817L120.939 24.2817L121.439 24.2817L121.439 23.7817ZM122.205 26.9067L122.703 26.8639L122.631 26.022L121.928 26.4907L122.205 26.9067ZM122.471 29.2192L122.744 29.6383L123.017 29.4603L122.964 29.1385L122.471 29.2192ZM118.658 32.063L118.259 32.3643L118.622 32.8447L119.028 32.4L118.658 32.063ZM117.502 30.5317L117.118 30.2116L116.864 30.5164L117.103 30.833L117.502 30.5317ZM117.893 24.2036L118.393 24.2036L118.393 23.7036L117.893 23.7036L117.893 24.2036ZM116.299 24.2036L115.799 24.2036L115.799 24.7036L116.299 24.7036L116.299 24.2036ZM116.299 22.1724L116.299 21.6724L115.799 21.6724L115.799 22.1724L116.299 22.1724ZM119.971 22.1724L120.471 22.1724L120.471 21.6724L119.971 21.6724L119.971 22.1724ZM119.971 28.3442L119.471 28.3442L119.471 29.2163L120.223 28.7757L119.971 28.3442ZM118.986 16.9224L118.585 17.2205C119.394 18.3096 120.076 19.2712 120.633 20.106L121.049 19.8286L121.465 19.5513C120.896 18.6985 120.204 17.7226 119.388 16.6242L118.986 16.9224ZM121.049 19.8286L120.791 19.4002L118.791 20.6033L119.049 21.0317L119.307 21.4602L121.307 20.2571L121.049 19.8286ZM119.049 21.0317L119.486 20.7885C118.967 19.8574 118.33 18.825 117.574 17.6919L117.158 17.9692L116.742 18.2466C117.487 19.3635 118.11 20.3727 118.612 21.275L119.049 21.0317ZM117.158 17.9692L117.407 18.4031L119.235 17.3563L118.986 16.9224L118.738 16.4885L116.91 17.5353L117.158 17.9692ZM121.439 21.688L121.439 22.188L125.408 22.188L125.408 21.688L125.408 21.188L121.439 21.188L121.439 21.688ZM125.408 21.688L125.908 21.688L125.908 16.938L125.408 16.938L124.908 16.938L124.908 21.688L125.408 21.688ZM125.408 16.938L125.408 17.438L127.752 17.438L127.752 16.938L127.752 16.438L125.408 16.438L125.408 16.938ZM127.752 16.938L127.252 16.938L127.252 21.688L127.752 21.688L128.252 21.688L128.252 16.938L127.752 16.938ZM127.752 21.688L127.752 22.188L131.752 22.188L131.752 21.688L131.752 21.188L127.752 21.188L127.752 21.688ZM131.752 21.688L131.252 21.688L131.252 23.7817L131.752 23.7817L132.252 23.7817L132.252 21.688L131.752 21.688ZM131.752 23.7817L131.752 23.2817L127.752 23.2817L127.752 23.7817L127.752 24.2817L131.752 24.2817L131.752 23.7817ZM127.752 23.7817L127.252 23.7817L127.252 32.3755L127.752 32.3755L128.252 32.3755L128.252 23.7817L127.752 23.7817ZM127.752 32.3755L127.752 31.8755L125.408 31.8755L125.408 32.3755L125.408 32.8755L127.752 32.8755L127.752 32.3755ZM125.408 32.3755L125.908 32.3755L125.908 23.7817L125.408 23.7817L124.908 23.7817L124.908 32.3755L125.408 32.3755ZM125.408 23.7817L125.408 23.2817L121.439 23.2817L121.439 23.7817L121.439 24.2817L125.408 24.2817L125.408 23.7817ZM121.439 23.7817L121.939 23.7817L121.939 21.688L121.439 21.688L120.939 21.688L120.939 23.7817L121.439 23.7817ZM122.205 26.9067L121.707 26.9496C121.791 27.9238 121.881 28.709 121.977 29.3L122.471 29.2192L122.964 29.1385C122.873 28.5837 122.786 27.8272 122.703 26.8639L122.205 26.9067ZM122.471 29.2192L122.198 28.8002C120.207 30.0965 118.881 31.0773 118.289 31.726L118.658 32.063L119.028 32.4C119.519 31.8612 120.735 30.9461 122.744 29.6383L122.471 29.2192ZM118.658 32.063L119.057 31.7617L117.901 30.2304L117.502 30.5317L117.103 30.833L118.259 32.3643L118.658 32.063ZM117.502 30.5317L117.886 30.8518C118.246 30.4204 118.393 29.8542 118.393 29.2192L117.893 29.2192L117.393 29.2192C117.393 29.7092 117.279 30.0181 117.118 30.2116L117.502 30.5317ZM117.893 29.2192L118.393 29.2192L118.393 24.2036L117.893 24.2036L117.393 24.2036L117.393 29.2192L117.893 29.2192ZM117.893 24.2036L117.893 23.7036L116.299 23.7036L116.299 24.2036L116.299 24.7036L117.893 24.7036L117.893 24.2036ZM116.299 24.2036L116.799 24.2036L116.799 22.1724L116.299 22.1724L115.799 22.1724L115.799 24.2036L116.299 24.2036ZM116.299 22.1724L116.299 22.6724L119.971 22.6724L119.971 22.1724L119.971 21.6724L116.299 21.6724L116.299 22.1724ZM119.971 22.1724L119.471 22.1724L119.471 28.3442L119.971 28.3442L120.471 28.3442L120.471 22.1724L119.971 22.1724ZM119.971 28.3442L120.223 28.7757C120.665 28.5174 121.421 28.0307 122.482 27.3228L122.205 26.9067L121.928 26.4907C120.865 27.1995 120.131 27.671 119.718 27.9127L119.971 28.3442Z" fill="url(#paint14_linear_2204_5897)" mask="url(#path-11-outside-1_2204_5897)"/>
</g>
<g id="4" filter="url(#filter4_d_2204_5897)">
<path d="M50.5815 19.4258L50.5815 25.6719L51.9717 25.6719L51.9717 27.1636L50.5815 27.1636L50.5815 29.2583L48.7153 29.2583L48.7153 27.1636L44.3228 27.1636L44.3228 25.6592C45.2326 24.6436 46.0853 23.5687 46.8809 22.4346C47.6764 21.3005 48.2773 20.2975 48.6836 19.4258L50.5815 19.4258ZM46.1382 25.6719L48.7153 25.6719L48.7153 22.0664C48.5122 22.4473 48.2202 22.9085 47.8394 23.4502C47.4627 23.9919 46.8957 24.7324 46.1382 25.6719Z" fill="white"/>
</g>
</g>
<defs>
<filter id="filter0_f_2204_5897" x="0.292969" y="0.0673828" width="170.988" height="15.3003" filterUnits="userSpaceOnUse" color-interpolation-filters="sRGB">
<feFlood flood-opacity="0" result="BackgroundImageFix"/>
<feBlend mode="normal" in="SourceGraphic" in2="BackgroundImageFix" result="shape"/>
<feGaussianBlur stdDeviation="3" result="effect1_foregroundBlur_2204_5897"/>
</filter>
<filter id="filter1_f_2204_5897" x="0.292969" y="33.0674" width="170.988" height="15.3003" filterUnits="userSpaceOnUse" color-interpolation-filters="sRGB">
<feFlood flood-opacity="0" result="BackgroundImageFix"/>
<feBlend mode="normal" in="SourceGraphic" in2="BackgroundImageFix" result="shape"/>
<feGaussianBlur stdDeviation="3" result="effect1_foregroundBlur_2204_5897"/>
</filter>
<filter id="filter2_f_2204_5897" x="4.29297" y="39.0674" width="162.988" height="5" filterUnits="userSpaceOnUse" color-interpolation-filters="sRGB">
<feFlood flood-opacity="0" result="BackgroundImageFix"/>
<feBlend mode="normal" in="SourceGraphic" in2="BackgroundImageFix" result="shape"/>
<feGaussianBlur stdDeviation="1" result="effect1_foregroundBlur_2204_5897"/>
</filter>
<filter id="filter3_f_2204_5897" x="4.29297" y="4.06738" width="162.988" height="5" filterUnits="userSpaceOnUse" color-interpolation-filters="sRGB">
<feFlood flood-opacity="0" result="BackgroundImageFix"/>
<feBlend mode="normal" in="SourceGraphic" in2="BackgroundImageFix" result="shape"/>
<feGaussianBlur stdDeviation="1" result="effect1_foregroundBlur_2204_5897"/>
</filter>
<filter id="filter4_d_2204_5897" x="43.3242" y="19.4258" width="9.64844" height="11.8325" filterUnits="userSpaceOnUse" color-interpolation-filters="sRGB">
<feFlood flood-opacity="0" result="BackgroundImageFix"/>
<feColorMatrix in="SourceAlpha" type="matrix" values="0 0 0 0 0 0 0 0 0 0 0 0 0 0 0 0 0 0 127 0" result="hardAlpha"/>
<feOffset dy="1"/>
<feGaussianBlur stdDeviation="0.5"/>
<feComposite in2="hardAlpha" operator="out"/>
<feColorMatrix type="matrix" values="0 0 0 0 1 0 0 0 0 0.517552 0 0 0 0 0.00183164 0 0 0 1 0"/>
<feBlend mode="normal" in2="BackgroundImageFix" result="effect1_dropShadow_2204_5897"/>
<feBlend mode="normal" in="SourceGraphic" in2="effect1_dropShadow_2204_5897" result="shape"/>
</filter>
<linearGradient id="paint0_linear_2204_5897" x1="6.29297" y1="24.0583" x2="165.281" y2="24.0583" gradientUnits="userSpaceOnUse">
<stop stop-color="#4F91FD"/>
<stop offset="0.525723" stop-color="#A2C9FF" stop-opacity="0.6"/>
<stop offset="1" stop-color="#488CFD"/>
</linearGradient>
<linearGradient id="paint1_linear_2204_5897" x1="6.29297" y1="24.0583" x2="165.281" y2="24.0583" gradientUnits="userSpaceOnUse">
<stop stop-color="#FFDB7E" stop-opacity="0.1"/>
<stop offset="0.525723" stop-color="#FFF677"/>
<stop offset="1" stop-color="#FFDB7E"/>
</linearGradient>
<linearGradient id="paint2_linear_2204_5897" x1="6.29297" y1="24.0583" x2="165.281" y2="24.0583" gradientUnits="userSpaceOnUse">
<stop stop-color="#FFC438"/>
<stop offset="1" stop-color="#FFB11F"/>
</linearGradient>
<linearGradient id="paint3_linear_2204_5897" x1="6.29297" y1="24.0583" x2="165.281" y2="24.0583" gradientUnits="userSpaceOnUse">
<stop stop-color="#FFC52D" stop-opacity="0.9"/>
<stop offset="0.525723" stop-color="#FFF677"/>
<stop offset="1" stop-color="#FFC52D" stop-opacity="0.9"/>
</linearGradient>
<linearGradient id="paint4_linear_2204_5897" x1="6.29297" y1="24.0583" x2="165.281" y2="24.0583" gradientUnits="userSpaceOnUse">
<stop stop-color="#FFB900"/>
<stop offset="1" stop-color="#FFAB0F"/>
</linearGradient>
<linearGradient id="paint5_linear_2204_5897" x1="6.29297" y1="7.71753" x2="165.281" y2="7.71753" gradientUnits="userSpaceOnUse">
<stop stop-color="white" stop-opacity="0.6"/>
<stop offset="0.525723" stop-color="#A2FFFD" stop-opacity="0.6"/>
<stop offset="1" stop-color="white" stop-opacity="0.6"/>
</linearGradient>
<linearGradient id="paint6_linear_2204_5897" x1="6.29297" y1="40.7175" x2="165.281" y2="40.7175" gradientUnits="userSpaceOnUse">
<stop stop-color="white" stop-opacity="0.6"/>
<stop offset="0.525723" stop-color="#A2FFFD" stop-opacity="0.6"/>
<stop offset="1" stop-color="white" stop-opacity="0.6"/>
</linearGradient>
<linearGradient id="paint7_linear_2204_5897" x1="6.29297" y1="41.5674" x2="165.281" y2="41.5674" gradientUnits="userSpaceOnUse">
<stop stop-color="white" stop-opacity="0.9"/>
<stop offset="0.525723" stop-color="#EBFFFF"/>
<stop offset="1" stop-color="white" stop-opacity="0.9"/>
</linearGradient>
<linearGradient id="paint8_linear_2204_5897" x1="6.29297" y1="6.56738" x2="165.281" y2="6.56738" gradientUnits="userSpaceOnUse">
<stop stop-color="white" stop-opacity="0.9"/>
<stop offset="0.525723" stop-color="#EBFFFF"/>
<stop offset="1" stop-color="white" stop-opacity="0.9"/>
</linearGradient>
<linearGradient id="paint9_linear_2204_5897" x1="146.061" y1="24.0422" x2="-12.9272" y2="24.0422" gradientUnits="userSpaceOnUse">
<stop stop-color="#FF8C00"/>
<stop offset="1" stop-color="#FFB700"/>
</linearGradient>
<linearGradient id="paint10_linear_2204_5897" x1="146.061" y1="24.0422" x2="-12.9272" y2="24.0422" gradientUnits="userSpaceOnUse">
<stop stop-color="#FFB11F"/>
<stop offset="1" stop-color="#FFD979"/>
</linearGradient>
<linearGradient id="paint11_linear_2204_5897" x1="54.9782" y1="24.2578" x2="36.9782" y2="24.2578" gradientUnits="userSpaceOnUse">
<stop stop-color="#FFA806"/>
<stop offset="1" stop-color="#FFE284"/>
</linearGradient>
<linearGradient id="paint12_linear_2204_5897" x1="48.1211" y1="37.143" x2="48.1211" y2="15.2578" gradientUnits="userSpaceOnUse">
<stop stop-color="#FFEAC4"/>
<stop offset="1" stop-color="#FFF5D4"/>
</linearGradient>
<linearGradient id="paint13_linear_2204_5897" x1="100.002" y1="17.2583" x2="100.002" y2="30.2583" gradientUnits="userSpaceOnUse">
<stop stop-color="#FFA908"/>
<stop offset="1" stop-color="#FF8C00"/>
</linearGradient>
<linearGradient id="paint14_linear_2204_5897" x1="100.002" y1="30.2583" x2="100.002" y2="17.2583" gradientUnits="userSpaceOnUse">
<stop stop-color="#FFCE78"/>
<stop offset="1" stop-color="#FFF5D4"/>
</linearGradient>
</defs>
</svg>
