<svg width="172" height="49" viewBox="0 0 172 49" fill="none" xmlns="http://www.w3.org/2000/svg">
<g id="5&#233;&#131;&#168;&#228;&#187;&#182;&#231;&#148;&#159;&#228;&#186;&#167;-&#233;&#187;&#152;&#232;&#174;&#164;">
<g id="Group 1321315616">
<mask id="mask0_2204_5913" style="mask-type:alpha" maskUnits="userSpaceOnUse" x="6" y="6" width="160" height="36">
<rect id="Rectangle 34628613" x="6.29297" y="6.01611" width="158.988" height="35.9819" fill="url(#paint0_linear_2204_5913)"/>
</mask>
<g mask="url(#mask0_2204_5913)">
<rect id="Rectangle 34628616" x="6.29297" y="6.01611" width="158.988" height="35.9819" fill="url(#paint1_linear_2204_5913)"/>
</g>
</g>
<g id="Rectangle 34628615" filter="url(#filter0_f_2204_5913)">
<rect x="6.29297" y="6.01611" width="158.988" height="3.30029" fill="url(#paint2_linear_2204_5913)"/>
</g>
<g id="Rectangle 34628616_2" filter="url(#filter1_f_2204_5913)">
<rect x="6.29297" y="39.0161" width="158.988" height="3.30029" fill="url(#paint3_linear_2204_5913)"/>
</g>
<g id="Rectangle 34628617" filter="url(#filter2_f_2204_5913)">
<rect x="6.29297" y="41.0161" width="158.988" height="1" fill="url(#paint4_linear_2204_5913)"/>
</g>
<g id="Rectangle 34628618" filter="url(#filter3_f_2204_5913)">
<rect x="6.29297" y="6.01611" width="158.988" height="1" fill="url(#paint5_linear_2204_5913)"/>
</g>
<rect id="Rectangle 34628621" x="6.29297" y="6.01611" width="158.988" height="35.9819" stroke="url(#paint6_linear_2204_5913)"/>
<path id="Rectangle 34628619" d="M6 10.9955L6 6L11.9368 6M6 36.9865L6 41.9819L11.9368 41.9819M164.988 10.9955L164.988 6L159.052 6M164.988 36.9865L164.988 41.9819L159.052 41.9819" stroke="url(#paint7_linear_2204_5913)" stroke-width="2"/>
<path id="Rectangle 34628620" d="M6 10.9955L6 6L11.9368 6M6 36.9865L6 41.9819L11.9368 41.9819M164.988 10.9955L164.988 6L159.052 6M164.988 36.9865L164.988 41.9819L159.052 41.9819" stroke="url(#paint8_linear_2204_5913)"/>
<path id="Vector" d="M48.1211 15.7065C50.4954 15.7065 52.4946 16.5289 54.1484 18.1812C55.6987 19.7301 56.5183 21.5834 56.6123 23.7651L56.6211 24.2056C56.6182 26.5806 55.7957 28.5809 54.1475 30.2349C52.6032 31.7843 50.7503 32.6038 48.5635 32.6978L48.1221 32.7065L48.1211 32.7065C45.8934 32.7065 43.9976 31.9842 42.4092 30.5337L42.0957 30.2339C40.4435 28.5801 39.6211 26.5808 39.6211 24.2065C39.6211 21.9806 40.3442 20.0853 41.7959 18.4956L42.0957 18.1812C43.748 16.5288 45.7467 15.7065 48.1211 15.7065Z" fill="url(#paint9_linear_2204_5913)" stroke="url(#paint10_linear_2204_5913)"/>
<path id="&#233;&#131;&#168;&#228;&#187;&#182;&#231;&#148;&#159;&#228;&#186;&#167;" d="M76.7207 20.3555L74.666 20.3555L76.3613 21.043C76.0228 21.5742 75.6556 22.1263 75.2598 22.6992L77.0645 22.6992L77.0645 24.4492L68.2988 24.4492L68.2988 22.6992L70.166 22.6992C69.8639 22.2305 69.5176 21.7409 69.127 21.2305L70.6504 20.3555L68.6582 20.3555L68.6582 18.6055L71.6895 18.6055C71.5228 18.1211 71.3405 17.6628 71.1426 17.2305L73.4863 16.8398C73.6895 17.3711 73.8796 17.9596 74.0566 18.6055L76.7207 18.6055L76.7207 20.3555ZM72.2676 22.1055L71.1973 22.6992L72.9238 22.6992C73.4395 21.9128 73.8691 21.1315 74.2129 20.3555L70.9004 20.3555C71.5098 21.0534 71.9655 21.6367 72.2676 22.1055ZM81.752 23.418C83.0749 24.7409 83.7363 26.1732 83.7363 27.7148C83.7363 28.5742 83.5046 29.2461 83.041 29.7305C82.5827 30.2096 81.6322 30.4388 80.1895 30.418C80.1165 29.6784 79.9863 28.9284 79.7988 28.168C80.1999 28.2305 80.4889 28.2617 80.666 28.2617C81.3066 28.2617 81.627 27.944 81.627 27.3086C81.627 26.1419 81.002 24.9076 79.752 23.6055C80.2936 22.3242 80.804 20.9492 81.2832 19.4805L79.5801 19.4805L79.5801 32.3242L77.5801 32.3242L77.5801 17.668L83.4395 17.668L83.4395 19.168C83.0749 20.168 82.5124 21.5846 81.752 23.418ZM69.002 31.9648L69.002 25.6367L76.3613 25.6367L76.3613 31.8711L74.3926 31.8711L74.3926 31.0742L70.9707 31.0742L70.9707 31.9648L69.002 31.9648ZM74.3926 27.3867L70.9707 27.3867L70.9707 29.3242L74.3926 29.3242L74.3926 27.3867ZM88.8613 25.3086L93.8457 25.3086L93.8457 22.3242L91.6973 22.3242C91.3952 23.3086 91.0749 24.1888 90.7363 24.9648C90.1634 24.6523 89.5124 24.3451 88.7832 24.043C89.4811 22.3659 90.0749 20.3346 90.5645 17.9492L92.6738 18.4648C92.5384 19.1107 92.3978 19.7253 92.252 20.3086L93.8457 20.3086L93.8457 16.9336L96.1113 16.9336L96.1113 20.3086L99.377 20.3086L99.377 22.3242L96.1113 22.3242L96.1113 25.3086L99.7988 25.3086L99.7988 27.3242L96.1113 27.3242L96.1113 32.3398L93.8457 32.3398L93.8457 27.3242L88.8613 27.3242L88.8613 25.3086ZM87.1738 16.9492L89.3301 17.5742C88.9551 18.6888 88.5697 19.7383 88.1738 20.7227L88.1738 32.3242L86.0801 32.3242L86.0801 25.207C85.6582 25.9727 85.2259 26.6784 84.7832 27.3242C84.5957 26.1888 84.4134 25.2148 84.2363 24.4023C85.3301 22.3398 86.3092 19.8555 87.1738 16.9492ZM100.877 29.4805L107.455 29.4805L107.455 26.8242L102.83 26.8242L102.83 24.7148L107.455 24.7148L107.455 22.1211L103.674 22.1211C102.992 23.4648 102.226 24.7201 101.377 25.8867C101.054 25.0221 100.7 24.1263 100.314 23.1992C101.387 21.7721 102.299 19.8711 103.049 17.4961L105.377 18.0742C105.148 18.7357 104.903 19.3815 104.643 20.0117L107.455 20.0117L107.455 16.918L109.799 16.918L109.799 20.0117L114.986 20.0117L114.986 22.1211L109.799 22.1211L109.799 24.7148L114.377 24.7148L114.377 26.8242L109.799 26.8242L109.799 29.4805L115.549 29.4805L115.549 31.6523L100.877 31.6523L100.877 29.4805ZM117.814 23.293L120.814 23.293C120.382 22.7617 119.872 22.1576 119.283 21.4805L120.908 20.5117L116.783 20.5117L116.783 18.543L123.018 18.543C122.851 18.0742 122.679 17.6159 122.502 17.168L124.971 16.793L125.416 18.543L131.502 18.543L131.502 20.5117L127.174 20.5117L129.174 21.4805L127.572 23.293L131.236 23.293L131.236 25.2617L119.877 25.2617L119.877 25.6367C119.877 27.9388 119.195 30.194 117.83 32.4023C117.445 31.9753 116.893 31.4388 116.174 30.793C117.215 29.0638 117.762 27.2565 117.814 25.3711L117.814 23.293ZM123.205 22.8086L122.424 23.293L125.025 23.293C125.635 22.4544 126.268 21.5273 126.924 20.5117L121.268 20.5117L123.205 22.8086Z" fill="url(#paint11_linear_2204_5913)"/>
<g id="5" filter="url(#filter4_d_2204_5913)">
<path d="M45.2114 28.9531L45.2114 27.1821C45.8927 27.5968 46.6185 27.8042 47.3887 27.8042C47.9684 27.8042 48.4212 27.6624 48.7471 27.3789C49.0771 27.0911 49.2422 26.7039 49.2422 26.2173C49.2422 25.1974 48.5439 24.6875 47.1475 24.6875C46.6312 24.6875 46.0366 24.7256 45.3638 24.8018L45.7319 19.3745L50.937 19.3745L50.937 21.063L47.3887 21.063L47.249 23.1323C47.6003 23.1027 47.924 23.0879 48.2202 23.0879C49.1808 23.0879 49.9383 23.3503 50.4927 23.875C51.0513 24.3997 51.3306 25.1107 51.3306 26.0078C51.3306 26.998 50.9941 27.8084 50.3213 28.439C49.6484 29.0653 48.7344 29.3784 47.5791 29.3784C46.6439 29.3784 45.8547 29.2367 45.2114 28.9531Z" fill="white"/>
</g>
</g>
<defs>
<filter id="filter0_f_2204_5913" x="0.292969" y="0.0161133" width="170.988" height="15.3003" filterUnits="userSpaceOnUse" color-interpolation-filters="sRGB">
<feFlood flood-opacity="0" result="BackgroundImageFix"/>
<feBlend mode="normal" in="SourceGraphic" in2="BackgroundImageFix" result="shape"/>
<feGaussianBlur stdDeviation="3" result="effect1_foregroundBlur_2204_5913"/>
</filter>
<filter id="filter1_f_2204_5913" x="0.292969" y="33.0161" width="170.988" height="15.3003" filterUnits="userSpaceOnUse" color-interpolation-filters="sRGB">
<feFlood flood-opacity="0" result="BackgroundImageFix"/>
<feBlend mode="normal" in="SourceGraphic" in2="BackgroundImageFix" result="shape"/>
<feGaussianBlur stdDeviation="3" result="effect1_foregroundBlur_2204_5913"/>
</filter>
<filter id="filter2_f_2204_5913" x="4.29297" y="39.0161" width="162.988" height="5" filterUnits="userSpaceOnUse" color-interpolation-filters="sRGB">
<feFlood flood-opacity="0" result="BackgroundImageFix"/>
<feBlend mode="normal" in="SourceGraphic" in2="BackgroundImageFix" result="shape"/>
<feGaussianBlur stdDeviation="1" result="effect1_foregroundBlur_2204_5913"/>
</filter>
<filter id="filter3_f_2204_5913" x="4.29297" y="4.01611" width="162.988" height="5" filterUnits="userSpaceOnUse" color-interpolation-filters="sRGB">
<feFlood flood-opacity="0" result="BackgroundImageFix"/>
<feBlend mode="normal" in="SourceGraphic" in2="BackgroundImageFix" result="shape"/>
<feGaussianBlur stdDeviation="1" result="effect1_foregroundBlur_2204_5913"/>
</filter>
<filter id="filter4_d_2204_5913" x="44.2109" y="19.3745" width="8.12109" height="12.0039" filterUnits="userSpaceOnUse" color-interpolation-filters="sRGB">
<feFlood flood-opacity="0" result="BackgroundImageFix"/>
<feColorMatrix in="SourceAlpha" type="matrix" values="0 0 0 0 0 0 0 0 0 0 0 0 0 0 0 0 0 0 127 0" result="hardAlpha"/>
<feOffset dy="1"/>
<feGaussianBlur stdDeviation="0.5"/>
<feComposite in2="hardAlpha" operator="out"/>
<feColorMatrix type="matrix" values="0 0 0 0 0.227451 0 0 0 0 0.513726 0 0 0 0 0.988235 0 0 0 1 0"/>
<feBlend mode="normal" in2="BackgroundImageFix" result="effect1_dropShadow_2204_5913"/>
<feBlend mode="normal" in="SourceGraphic" in2="effect1_dropShadow_2204_5913" result="shape"/>
</filter>
<linearGradient id="paint0_linear_2204_5913" x1="6.29297" y1="24.0071" x2="165.281" y2="24.0071" gradientUnits="userSpaceOnUse">
<stop stop-color="#4F91FD"/>
<stop offset="0.525723" stop-color="#A2C9FF" stop-opacity="0.6"/>
<stop offset="1" stop-color="#488CFD"/>
</linearGradient>
<linearGradient id="paint1_linear_2204_5913" x1="6.29297" y1="24.0071" x2="165.281" y2="24.0071" gradientUnits="userSpaceOnUse">
<stop stop-color="#A2C9FF" stop-opacity="0.9"/>
<stop offset="0.525723" stop-color="#70E5FF" stop-opacity="0.6"/>
<stop offset="1" stop-color="#A2C9FF" stop-opacity="0.9"/>
</linearGradient>
<linearGradient id="paint2_linear_2204_5913" x1="6.29297" y1="7.66626" x2="165.281" y2="7.66626" gradientUnits="userSpaceOnUse">
<stop stop-color="white" stop-opacity="0.6"/>
<stop offset="0.525723" stop-color="#A2FFFD" stop-opacity="0.6"/>
<stop offset="1" stop-color="white" stop-opacity="0.6"/>
</linearGradient>
<linearGradient id="paint3_linear_2204_5913" x1="6.29297" y1="40.6663" x2="165.281" y2="40.6663" gradientUnits="userSpaceOnUse">
<stop stop-color="white" stop-opacity="0.6"/>
<stop offset="0.525723" stop-color="#A2FFFD" stop-opacity="0.6"/>
<stop offset="1" stop-color="white" stop-opacity="0.6"/>
</linearGradient>
<linearGradient id="paint4_linear_2204_5913" x1="6.29297" y1="41.5161" x2="165.281" y2="41.5161" gradientUnits="userSpaceOnUse">
<stop stop-color="white" stop-opacity="0.9"/>
<stop offset="0.525723" stop-color="#EBFFFF"/>
<stop offset="1" stop-color="white" stop-opacity="0.9"/>
</linearGradient>
<linearGradient id="paint5_linear_2204_5913" x1="6.29297" y1="6.51611" x2="165.281" y2="6.51611" gradientUnits="userSpaceOnUse">
<stop stop-color="white" stop-opacity="0.9"/>
<stop offset="0.525723" stop-color="#EBFFFF"/>
<stop offset="1" stop-color="white" stop-opacity="0.9"/>
</linearGradient>
<linearGradient id="paint6_linear_2204_5913" x1="6.29297" y1="24.0071" x2="165.281" y2="24.0071" gradientUnits="userSpaceOnUse">
<stop stop-color="#6DD7FF"/>
<stop offset="1" stop-color="#7DBEFF"/>
</linearGradient>
<linearGradient id="paint7_linear_2204_5913" x1="146.061" y1="23.991" x2="-12.9272" y2="23.991" gradientUnits="userSpaceOnUse">
<stop stop-color="#419FFF"/>
<stop offset="1" stop-color="#47B3FF"/>
</linearGradient>
<linearGradient id="paint8_linear_2204_5913" x1="146.061" y1="23.991" x2="-12.9272" y2="23.991" gradientUnits="userSpaceOnUse">
<stop stop-color="#7EBEFF"/>
<stop offset="1" stop-color="#8BE3FF"/>
</linearGradient>
<linearGradient id="paint9_linear_2204_5913" x1="54.9782" y1="24.2065" x2="36.9782" y2="24.2065" gradientUnits="userSpaceOnUse">
<stop stop-color="#5997FD"/>
<stop offset="1" stop-color="#58D7FF"/>
</linearGradient>
<linearGradient id="paint10_linear_2204_5913" x1="39.1211" y1="24.2065" x2="57.0955" y2="24.8848" gradientUnits="userSpaceOnUse">
<stop stop-color="#D6F0FF"/>
<stop offset="1" stop-color="#C4E8FF"/>
</linearGradient>
<linearGradient id="paint11_linear_2204_5913" x1="100.002" y1="17.207" x2="100.002" y2="30.207" gradientUnits="userSpaceOnUse">
<stop stop-color="#666666"/>
<stop offset="1"/>
</linearGradient>
</defs>
</svg>
