<svg width="172" height="49" viewBox="0 0 172 49" fill="none" xmlns="http://www.w3.org/2000/svg">
<g id="5&#233;&#131;&#168;&#228;&#187;&#182;&#231;&#148;&#159;&#228;&#186;&#167;-&#231;&#130;&#185;&#229;&#135;&#187;&#233;&#162;&#156;&#232;&#137;&#178;">
<g id="Group 1321315616">
<mask id="mask0_2204_5928" style="mask-type:alpha" maskUnits="userSpaceOnUse" x="6" y="6" width="160" height="37">
<rect id="Rectangle 34628613" x="6.29297" y="6.06738" width="158.988" height="35.9819" fill="url(#paint0_linear_2204_5928)"/>
</mask>
<g mask="url(#mask0_2204_5928)">
<rect id="Rectangle 34628616" x="6.29297" y="6.06738" width="158.988" height="35.9819" fill="url(#paint1_linear_2204_5928)" stroke="url(#paint2_linear_2204_5928)"/>
</g>
</g>
<rect id="Rectangle 34628617" x="6.29297" y="6.06738" width="158.988" height="35.9819" fill="url(#paint3_linear_2204_5928)" stroke="url(#paint4_linear_2204_5928)"/>
<g id="Rectangle 34628615" filter="url(#filter0_f_2204_5928)">
<rect x="6.29297" y="6.06738" width="158.988" height="3.30029" fill="url(#paint5_linear_2204_5928)"/>
</g>
<g id="Rectangle 34628616_2" filter="url(#filter1_f_2204_5928)">
<rect x="6.29297" y="39.0674" width="158.988" height="3.30029" fill="url(#paint6_linear_2204_5928)"/>
</g>
<g id="Rectangle 34628617_2" filter="url(#filter2_f_2204_5928)">
<rect x="6.29297" y="41.0674" width="158.988" height="1" fill="url(#paint7_linear_2204_5928)"/>
</g>
<g id="Rectangle 34628618" filter="url(#filter3_f_2204_5928)">
<rect x="6.29297" y="6.06738" width="158.988" height="1" fill="url(#paint8_linear_2204_5928)"/>
</g>
<path id="Rectangle 34628619" d="M6 11.0468L6 6.05127L11.9368 6.05127M6 37.0377L6 42.0332L11.9368 42.0332M164.988 11.0468L164.988 6.05127L159.052 6.05127M164.988 37.0377L164.988 42.0332L159.052 42.0332" stroke="url(#paint9_linear_2204_5928)" stroke-width="2"/>
<path id="Rectangle 34628620" d="M6 11.0468L6 6.05127L11.9368 6.05127M6 37.0377L6 42.0332L11.9368 42.0332M164.988 11.0468L164.988 6.05127L159.052 6.05127M164.988 37.0377L164.988 42.0332L159.052 42.0332" stroke="url(#paint10_linear_2204_5928)"/>
<path id="Vector" d="M48.1211 15.7578C50.4954 15.7578 52.4946 16.5802 54.1484 18.2324C55.6987 19.7813 56.5183 21.6347 56.6123 23.8164L56.6211 24.2568C56.6182 26.6319 55.7957 28.6322 54.1475 30.2861C52.6032 31.8355 50.7503 32.655 48.5635 32.749L48.1221 32.7578L48.1211 32.7578C45.8934 32.7578 43.9976 32.0355 42.4092 30.585L42.0957 30.2852C40.4435 28.6314 39.6211 26.6321 39.6211 24.2578C39.6211 22.0319 40.3442 20.1366 41.7959 18.5469L42.0957 18.2324C43.748 16.5801 45.7467 15.7578 48.1211 15.7578Z" fill="url(#paint11_linear_2204_5928)" stroke="url(#paint12_linear_2204_5928)"/>
<g id="&#233;&#131;&#168;&#228;&#187;&#182;&#231;&#148;&#159;&#228;&#186;&#167;">
<mask id="path-11-outside-1_2204_5928" maskUnits="userSpaceOnUse" x="67.125" y="16.2583" width="65" height="18" fill="black">
<rect fill="white" x="67.125" y="16.2583" width="65" height="18"/>
<path d="M76.7207 20.4067L74.666 20.4067L76.3613 21.0942C76.0228 21.6255 75.6556 22.1776 75.2598 22.7505L77.0645 22.7505L77.0645 24.5005L68.2988 24.5005L68.2988 22.7505L70.166 22.7505C69.8639 22.2817 69.5176 21.7922 69.127 21.2817L70.6504 20.4067L68.6582 20.4067L68.6582 18.6567L71.6895 18.6567C71.5228 18.1724 71.3405 17.714 71.1426 17.2817L73.4863 16.8911C73.6895 17.4224 73.8796 18.0109 74.0566 18.6567L76.7207 18.6567L76.7207 20.4067ZM72.2676 22.1567L71.1973 22.7505L72.9238 22.7505C73.4395 21.964 73.8691 21.1828 74.2129 20.4067L70.9004 20.4067C71.5098 21.1047 71.9655 21.688 72.2676 22.1567ZM81.752 23.4692C83.0749 24.7922 83.7363 26.2244 83.7363 27.7661C83.7363 28.6255 83.5046 29.2974 83.041 29.7817C82.5827 30.2609 81.6322 30.4901 80.1895 30.4692C80.1165 29.7297 79.9863 28.9797 79.7988 28.2192C80.1999 28.2817 80.4889 28.313 80.666 28.313C81.3066 28.313 81.627 27.9953 81.627 27.3599C81.627 26.1932 81.002 24.9588 79.752 23.6567C80.2936 22.3755 80.804 21.0005 81.2832 19.5317L79.5801 19.5317L79.5801 32.3755L77.5801 32.3755L77.5801 17.7192L83.4395 17.7192L83.4395 19.2192C83.0749 20.2192 82.5124 21.6359 81.752 23.4692ZM69.002 32.0161L69.002 25.688L76.3613 25.688L76.3613 31.9224L74.3926 31.9224L74.3926 31.1255L70.9707 31.1255L70.9707 32.0161L69.002 32.0161ZM74.3926 27.438L70.9707 27.438L70.9707 29.3755L74.3926 29.3755L74.3926 27.438ZM88.8613 25.3599L93.8457 25.3599L93.8457 22.3755L91.6973 22.3755C91.3952 23.3599 91.0749 24.2401 90.7363 25.0161C90.1634 24.7036 89.5124 24.3963 88.7832 24.0942C89.4811 22.4172 90.0749 20.3859 90.5645 18.0005L92.6738 18.5161C92.5384 19.1619 92.3978 19.7765 92.252 20.3599L93.8457 20.3599L93.8457 16.9849L96.1113 16.9849L96.1113 20.3599L99.377 20.3599L99.377 22.3755L96.1113 22.3755L96.1113 25.3599L99.7988 25.3599L99.7988 27.3755L96.1113 27.3755L96.1113 32.3911L93.8457 32.3911L93.8457 27.3755L88.8613 27.3755L88.8613 25.3599ZM87.1738 17.0005L89.3301 17.6255C88.9551 18.7401 88.5697 19.7896 88.1738 20.7739L88.1738 32.3755L86.0801 32.3755L86.0801 25.2583C85.6582 26.0239 85.2259 26.7297 84.7832 27.3755C84.5957 26.2401 84.4134 25.2661 84.2363 24.4536C85.3301 22.3911 86.3092 19.9067 87.1738 17.0005ZM100.877 29.5317L107.455 29.5317L107.455 26.8755L102.83 26.8755L102.83 24.7661L107.455 24.7661L107.455 22.1724L103.674 22.1724C102.992 23.5161 102.226 24.7713 101.377 25.938C101.054 25.0734 100.7 24.1776 100.314 23.2505C101.387 21.8234 102.299 19.9224 103.049 17.5474L105.377 18.1255C105.148 18.7869 104.903 19.4328 104.643 20.063L107.455 20.063L107.455 16.9692L109.799 16.9692L109.799 20.063L114.986 20.063L114.986 22.1724L109.799 22.1724L109.799 24.7661L114.377 24.7661L114.377 26.8755L109.799 26.8755L109.799 29.5317L115.549 29.5317L115.549 31.7036L100.877 31.7036L100.877 29.5317ZM117.814 23.3442L120.814 23.3442C120.382 22.813 119.872 22.2088 119.283 21.5317L120.908 20.563L116.783 20.563L116.783 18.5942L123.018 18.5942C122.851 18.1255 122.679 17.6672 122.502 17.2192L124.971 16.8442L125.416 18.5942L131.502 18.5942L131.502 20.563L127.174 20.563L129.174 21.5317L127.572 23.3442L131.236 23.3442L131.236 25.313L119.877 25.313L119.877 25.688C119.877 27.9901 119.195 30.2453 117.83 32.4536C117.445 32.0265 116.893 31.4901 116.174 30.8442C117.215 29.1151 117.762 27.3078 117.814 25.4224L117.814 23.3442ZM123.205 22.8599L122.424 23.3442L125.025 23.3442C125.635 22.5057 126.268 21.5786 126.924 20.563L121.268 20.563L123.205 22.8599Z"/>
</mask>
<path d="M76.7207 20.4067L74.666 20.4067L76.3613 21.0942C76.0228 21.6255 75.6556 22.1776 75.2598 22.7505L77.0645 22.7505L77.0645 24.5005L68.2988 24.5005L68.2988 22.7505L70.166 22.7505C69.8639 22.2817 69.5176 21.7922 69.127 21.2817L70.6504 20.4067L68.6582 20.4067L68.6582 18.6567L71.6895 18.6567C71.5228 18.1724 71.3405 17.714 71.1426 17.2817L73.4863 16.8911C73.6895 17.4224 73.8796 18.0109 74.0566 18.6567L76.7207 18.6567L76.7207 20.4067ZM72.2676 22.1567L71.1973 22.7505L72.9238 22.7505C73.4395 21.964 73.8691 21.1828 74.2129 20.4067L70.9004 20.4067C71.5098 21.1047 71.9655 21.688 72.2676 22.1567ZM81.752 23.4692C83.0749 24.7922 83.7363 26.2244 83.7363 27.7661C83.7363 28.6255 83.5046 29.2974 83.041 29.7817C82.5827 30.2609 81.6322 30.4901 80.1895 30.4692C80.1165 29.7297 79.9863 28.9797 79.7988 28.2192C80.1999 28.2817 80.4889 28.313 80.666 28.313C81.3066 28.313 81.627 27.9953 81.627 27.3599C81.627 26.1932 81.002 24.9588 79.752 23.6567C80.2936 22.3755 80.804 21.0005 81.2832 19.5317L79.5801 19.5317L79.5801 32.3755L77.5801 32.3755L77.5801 17.7192L83.4395 17.7192L83.4395 19.2192C83.0749 20.2192 82.5124 21.6359 81.752 23.4692ZM69.002 32.0161L69.002 25.688L76.3613 25.688L76.3613 31.9224L74.3926 31.9224L74.3926 31.1255L70.9707 31.1255L70.9707 32.0161L69.002 32.0161ZM74.3926 27.438L70.9707 27.438L70.9707 29.3755L74.3926 29.3755L74.3926 27.438ZM88.8613 25.3599L93.8457 25.3599L93.8457 22.3755L91.6973 22.3755C91.3952 23.3599 91.0749 24.2401 90.7363 25.0161C90.1634 24.7036 89.5124 24.3963 88.7832 24.0942C89.4811 22.4172 90.0749 20.3859 90.5645 18.0005L92.6738 18.5161C92.5384 19.1619 92.3978 19.7765 92.252 20.3599L93.8457 20.3599L93.8457 16.9849L96.1113 16.9849L96.1113 20.3599L99.377 20.3599L99.377 22.3755L96.1113 22.3755L96.1113 25.3599L99.7988 25.3599L99.7988 27.3755L96.1113 27.3755L96.1113 32.3911L93.8457 32.3911L93.8457 27.3755L88.8613 27.3755L88.8613 25.3599ZM87.1738 17.0005L89.3301 17.6255C88.9551 18.7401 88.5697 19.7896 88.1738 20.7739L88.1738 32.3755L86.0801 32.3755L86.0801 25.2583C85.6582 26.0239 85.2259 26.7297 84.7832 27.3755C84.5957 26.2401 84.4134 25.2661 84.2363 24.4536C85.3301 22.3911 86.3092 19.9067 87.1738 17.0005ZM100.877 29.5317L107.455 29.5317L107.455 26.8755L102.83 26.8755L102.83 24.7661L107.455 24.7661L107.455 22.1724L103.674 22.1724C102.992 23.5161 102.226 24.7713 101.377 25.938C101.054 25.0734 100.7 24.1776 100.314 23.2505C101.387 21.8234 102.299 19.9224 103.049 17.5474L105.377 18.1255C105.148 18.7869 104.903 19.4328 104.643 20.063L107.455 20.063L107.455 16.9692L109.799 16.9692L109.799 20.063L114.986 20.063L114.986 22.1724L109.799 22.1724L109.799 24.7661L114.377 24.7661L114.377 26.8755L109.799 26.8755L109.799 29.5317L115.549 29.5317L115.549 31.7036L100.877 31.7036L100.877 29.5317ZM117.814 23.3442L120.814 23.3442C120.382 22.813 119.872 22.2088 119.283 21.5317L120.908 20.563L116.783 20.563L116.783 18.5942L123.018 18.5942C122.851 18.1255 122.679 17.6672 122.502 17.2192L124.971 16.8442L125.416 18.5942L131.502 18.5942L131.502 20.563L127.174 20.563L129.174 21.5317L127.572 23.3442L131.236 23.3442L131.236 25.313L119.877 25.313L119.877 25.688C119.877 27.9901 119.195 30.2453 117.83 32.4536C117.445 32.0265 116.893 31.4901 116.174 30.8442C117.215 29.1151 117.762 27.3078 117.814 25.4224L117.814 23.3442ZM123.205 22.8599L122.424 23.3442L125.025 23.3442C125.635 22.5057 126.268 21.5786 126.924 20.563L121.268 20.563L123.205 22.8599Z" fill="url(#paint13_linear_2204_5928)"/>
<path d="M76.7207 20.4067L76.7207 20.9067L77.2207 20.9067L77.2207 20.4067L76.7207 20.4067ZM74.666 20.4067L74.666 19.9067L74.4781 20.8701L74.666 20.4067ZM76.3613 21.0942L76.783 21.3629L77.1057 20.8566L76.5492 20.6309L76.3613 21.0942ZM75.2598 22.7505L74.8484 22.4663L74.3066 23.2505L75.2598 23.2505L75.2598 22.7505ZM77.0645 22.7505L77.5645 22.7505L77.5645 22.2505L77.0645 22.2505L77.0645 22.7505ZM77.0645 24.5005L77.0645 25.0005L77.5645 25.0005L77.5645 24.5005L77.0645 24.5005ZM68.2988 24.5005L67.7988 24.5005L67.7988 25.0005L68.2988 25.0005L68.2988 24.5005ZM68.2988 22.7505L68.2988 22.2505L67.7988 22.2505L67.7988 22.7505L68.2988 22.7505ZM70.166 22.7505L70.166 23.2505L71.0831 23.2505L70.5863 22.4796L70.166 22.7505ZM69.127 21.2817L68.8779 20.8482L68.383 21.1324L68.7299 21.5856L69.127 21.2817ZM70.6504 20.4067L70.8994 20.8403L72.5248 19.9067L70.6504 19.9067L70.6504 20.4067ZM68.6582 20.4067L68.1582 20.4067L68.1582 20.9067L68.6582 20.9067L68.6582 20.4067ZM68.6582 18.6567L68.6582 18.1567L68.1582 18.1567L68.1582 18.6567L68.6582 18.6567ZM71.6895 18.6567L71.6895 19.1567L72.3903 19.1567L72.1622 18.4941L71.6895 18.6567ZM71.1426 17.2817L71.0604 16.7885L70.416 16.8959L70.688 17.4899L71.1426 17.2817ZM73.4863 16.8911L73.9534 16.7125L73.8074 16.3307L73.4041 16.3979L73.4863 16.8911ZM74.0566 18.6567L73.5744 18.789L73.6753 19.1567L74.0566 19.1567L74.0566 18.6567ZM76.7207 18.6567L77.2207 18.6567L77.2207 18.1567L76.7207 18.1567L76.7207 18.6567ZM72.2676 22.1567L72.5101 22.594L72.9772 22.3349L72.6879 21.8859L72.2676 22.1567ZM71.1973 22.7505L70.9547 22.3133L69.2652 23.2505L71.1973 23.2505L71.1973 22.7505ZM72.9238 22.7505L72.9238 23.2505L73.1939 23.2505L73.342 23.0246L72.9238 22.7505ZM74.2129 20.4067L74.67 20.6092L74.9812 19.9067L74.2129 19.9067L74.2129 20.4067ZM70.9004 20.4067L70.9004 19.9067L69.8001 19.9067L70.5238 20.7356L70.9004 20.4067ZM81.752 23.4692L81.2901 23.2777L81.162 23.5864L81.3984 23.8228L81.752 23.4692ZM83.041 29.7817L82.6798 29.436L82.6797 29.4361L83.041 29.7817ZM80.1895 30.4692L79.6919 30.5183L79.7357 30.9627L80.1822 30.9692L80.1895 30.4692ZM79.7988 28.2192L79.8758 27.7252L79.1335 27.6095L79.3134 28.3389L79.7988 28.2192ZM79.752 23.6567L79.2914 23.462L79.1632 23.7654L79.3913 24.003L79.752 23.6567ZM81.2832 19.5317L81.7585 19.6868L81.9723 19.0317L81.2832 19.0317L81.2832 19.5317ZM79.5801 19.5317L79.5801 19.0317L79.0801 19.0317L79.0801 19.5317L79.5801 19.5317ZM79.5801 32.3755L79.5801 32.8755L80.0801 32.8755L80.0801 32.3755L79.5801 32.3755ZM77.5801 32.3755L77.0801 32.3755L77.0801 32.8755L77.5801 32.8755L77.5801 32.3755ZM77.5801 17.7192L77.5801 17.2192L77.0801 17.2192L77.0801 17.7192L77.5801 17.7192ZM83.4395 17.7192L83.9395 17.7192L83.9395 17.2192L83.4395 17.2192L83.4395 17.7192ZM83.4395 19.2192L83.9092 19.3905L83.9395 19.3075L83.9395 19.2192L83.4395 19.2192ZM69.002 32.0161L68.502 32.0161L68.502 32.5161L69.002 32.5161L69.002 32.0161ZM69.002 25.688L69.002 25.188L68.502 25.188L68.502 25.688L69.002 25.688ZM76.3613 25.688L76.8613 25.688L76.8613 25.188L76.3613 25.188L76.3613 25.688ZM76.3613 31.9224L76.3613 32.4224L76.8613 32.4224L76.8613 31.9224L76.3613 31.9224ZM74.3926 31.9224L73.8926 31.9224L73.8926 32.4224L74.3926 32.4224L74.3926 31.9224ZM74.3926 31.1255L74.8926 31.1255L74.8926 30.6255L74.3926 30.6255L74.3926 31.1255ZM70.9707 31.1255L70.9707 30.6255L70.4707 30.6255L70.4707 31.1255L70.9707 31.1255ZM70.9707 32.0161L70.9707 32.5161L71.4707 32.5161L71.4707 32.0161L70.9707 32.0161ZM74.3926 27.438L74.8926 27.438L74.8926 26.938L74.3926 26.938L74.3926 27.438ZM70.9707 27.438L70.9707 26.938L70.4707 26.938L70.4707 27.438L70.9707 27.438ZM70.9707 29.3755L70.4707 29.3755L70.4707 29.8755L70.9707 29.8755L70.9707 29.3755ZM74.3926 29.3755L74.3926 29.8755L74.8926 29.8755L74.8926 29.3755L74.3926 29.3755ZM76.7207 20.4067L76.7207 19.9067L74.666 19.9067L74.666 20.4067L74.666 20.9067L76.7207 20.9067L76.7207 20.4067ZM74.666 20.4067L74.4781 20.8701L76.1734 21.5576L76.3613 21.0942L76.5492 20.6309L74.8539 19.9434L74.666 20.4067ZM76.3613 21.0942L75.9397 20.8255C75.6048 21.351 75.2411 21.8979 74.8484 22.4663L75.2598 22.7505L75.6711 23.0347C76.0701 22.4572 76.4408 21.8999 76.783 21.3629L76.3613 21.0942ZM75.2598 22.7505L75.2598 23.2505L77.0645 23.2505L77.0645 22.7505L77.0645 22.2505L75.2598 22.2505L75.2598 22.7505ZM77.0645 22.7505L76.5645 22.7505L76.5645 24.5005L77.0645 24.5005L77.5645 24.5005L77.5645 22.7505L77.0645 22.7505ZM77.0645 24.5005L77.0645 24.0005L68.2988 24.0005L68.2988 24.5005L68.2988 25.0005L77.0645 25.0005L77.0645 24.5005ZM68.2988 24.5005L68.7988 24.5005L68.7988 22.7505L68.2988 22.7505L67.7988 22.7505L67.7988 24.5005L68.2988 24.5005ZM68.2988 22.7505L68.2988 23.2505L70.166 23.2505L70.166 22.7505L70.166 22.2505L68.2988 22.2505L68.2988 22.7505ZM70.166 22.7505L70.5863 22.4796C70.2759 21.998 69.9216 21.4974 69.524 20.9779L69.127 21.2817L68.7299 21.5856C69.1135 22.0869 69.4519 22.5655 69.7457 23.0213L70.166 22.7505ZM69.127 21.2817L69.376 21.7153L70.8994 20.8403L70.6504 20.4067L70.4014 19.9732L68.8779 20.8482L69.127 21.2817ZM70.6504 20.4067L70.6504 19.9067L68.6582 19.9067L68.6582 20.4067L68.6582 20.9067L70.6504 20.9067L70.6504 20.4067ZM68.6582 20.4067L69.1582 20.4067L69.1582 18.6567L68.6582 18.6567L68.1582 18.6567L68.1582 20.4067L68.6582 20.4067ZM68.6582 18.6567L68.6582 19.1567L71.6895 19.1567L71.6895 18.6567L71.6895 18.1567L68.6582 18.1567L68.6582 18.6567ZM71.6895 18.6567L72.1622 18.4941C71.9907 17.9954 71.8024 17.5218 71.5972 17.0736L71.1426 17.2817L70.688 17.4899C70.8786 17.9062 71.0549 18.3493 71.2167 18.8194L71.6895 18.6567ZM71.1426 17.2817L71.2248 17.7749L73.5685 17.3843L73.4863 16.8911L73.4041 16.3979L71.0604 16.7885L71.1426 17.2817ZM73.4863 16.8911L73.0193 17.0697C73.2157 17.5834 73.4009 18.1561 73.5744 18.789L74.0566 18.6567L74.5388 18.5245C74.3582 17.8657 74.1632 17.2614 73.9534 16.7125L73.4863 16.8911ZM74.0566 18.6567L74.0566 19.1567L76.7207 19.1567L76.7207 18.6567L76.7207 18.1567L74.0566 18.1567L74.0566 18.6567ZM76.7207 18.6567L76.2207 18.6567L76.2207 20.4067L76.7207 20.4067L77.2207 20.4067L77.2207 18.6567L76.7207 18.6567ZM72.2676 22.1567L72.025 21.7195L70.9547 22.3133L71.1973 22.7505L71.4398 23.1877L72.5101 22.594L72.2676 22.1567ZM71.1973 22.7505L71.1973 23.2505L72.9238 23.2505L72.9238 22.7505L72.9238 22.2505L71.1973 22.2505L71.1973 22.7505ZM72.9238 22.7505L73.342 23.0246C73.871 22.2178 74.3142 21.4127 74.67 20.6092L74.2129 20.4067L73.7557 20.2042C73.4241 20.9529 73.008 21.7103 72.5057 22.4763L72.9238 22.7505ZM74.2129 20.4067L74.2129 19.9067L70.9004 19.9067L70.9004 20.4067L70.9004 20.9067L74.2129 20.9067L74.2129 20.4067ZM70.9004 20.4067L70.5238 20.7356C71.1261 21.4255 71.5641 21.9881 71.8473 22.4276L72.2676 22.1567L72.6879 21.8859C72.3669 21.3879 71.8934 20.7838 71.277 20.0779L70.9004 20.4067ZM81.752 23.4692L81.3984 23.8228C82.6489 25.0733 83.2363 26.3845 83.2363 27.7661L83.7363 27.7661L84.2363 27.7661C84.2363 26.0644 83.5008 24.511 82.1055 23.1157L81.752 23.4692ZM83.7363 27.7661L83.2363 27.7661C83.2363 28.5344 83.0312 29.0688 82.6798 29.436L83.041 29.7817L83.4023 30.1274C83.9779 29.5259 84.2363 28.7165 84.2363 27.7661L83.7363 27.7661ZM83.041 29.7817L82.6797 29.4361C82.5412 29.5809 82.2909 29.7248 81.8672 29.8269C81.447 29.9282 80.894 29.9794 80.1967 29.9693L80.1895 30.4692L80.1822 30.9692C80.9276 30.98 81.5713 30.9269 82.1016 30.7991C82.6284 30.672 83.0825 30.4617 83.4023 30.1273L83.041 29.7817ZM80.1895 30.4692L80.687 30.4202C80.6117 29.6556 80.4772 28.8819 80.2843 28.0995L79.7988 28.2192L79.3134 28.3389C79.4954 29.0774 79.6214 29.8038 79.6919 30.5183L80.1895 30.4692ZM79.7988 28.2192L79.7218 28.7133C80.1243 28.776 80.4468 28.813 80.666 28.813L80.666 28.313L80.666 27.813C80.531 27.813 80.2754 27.7875 79.8758 27.7252L79.7988 28.2192ZM80.666 28.313L80.666 28.813C81.0624 28.813 81.4517 28.7145 81.7388 28.4297C82.0267 28.1442 82.127 27.7557 82.127 27.3599L81.627 27.3599L81.127 27.3599C81.127 27.5995 81.067 27.6875 81.0346 27.7197C81.0014 27.7526 80.9103 27.813 80.666 27.813L80.666 28.313ZM81.627 27.3599L82.127 27.3599C82.127 26.0089 81.4046 24.6563 80.1126 23.3105L79.752 23.6567L79.3913 24.003C80.5993 25.2614 81.127 26.3775 81.127 27.3599L81.627 27.3599ZM79.752 23.6567L80.2125 23.8514C80.7602 22.5559 81.2755 21.1675 81.7585 19.6868L81.2832 19.5317L80.8079 19.3767C80.3326 20.8334 79.827 22.1951 79.2914 23.462L79.752 23.6567ZM81.2832 19.5317L81.2832 19.0317L79.5801 19.0317L79.5801 19.5317L79.5801 20.0317L81.2832 20.0317L81.2832 19.5317ZM79.5801 19.5317L79.0801 19.5317L79.0801 32.3755L79.5801 32.3755L80.0801 32.3755L80.0801 19.5317L79.5801 19.5317ZM79.5801 32.3755L79.5801 31.8755L77.5801 31.8755L77.5801 32.3755L77.5801 32.8755L79.5801 32.8755L79.5801 32.3755ZM77.5801 32.3755L78.0801 32.3755L78.0801 17.7192L77.5801 17.7192L77.0801 17.7192L77.0801 32.3755L77.5801 32.3755ZM77.5801 17.7192L77.5801 18.2192L83.4395 18.2192L83.4395 17.7192L83.4395 17.2192L77.5801 17.2192L77.5801 17.7192ZM83.4395 17.7192L82.9395 17.7192L82.9395 19.2192L83.4395 19.2192L83.9395 19.2192L83.9395 17.7192L83.4395 17.7192ZM83.4395 19.2192L82.9697 19.048C82.6089 20.0377 82.0497 21.4464 81.2901 23.2777L81.752 23.4692L82.2138 23.6608C82.9751 21.8254 83.5409 20.4008 83.9092 19.3905L83.4395 19.2192ZM69.002 32.0161L69.502 32.0161L69.502 25.688L69.002 25.688L68.502 25.688L68.502 32.0161L69.002 32.0161ZM69.002 25.688L69.002 26.188L76.3613 26.188L76.3613 25.688L76.3613 25.188L69.002 25.188L69.002 25.688ZM76.3613 25.688L75.8613 25.688L75.8613 31.9224L76.3613 31.9224L76.8613 31.9224L76.8613 25.688L76.3613 25.688ZM76.3613 31.9224L76.3613 31.4224L74.3926 31.4224L74.3926 31.9224L74.3926 32.4224L76.3613 32.4224L76.3613 31.9224ZM74.3926 31.9224L74.8926 31.9224L74.8926 31.1255L74.3926 31.1255L73.8926 31.1255L73.8926 31.9224L74.3926 31.9224ZM74.3926 31.1255L74.3926 30.6255L70.9707 30.6255L70.9707 31.1255L70.9707 31.6255L74.3926 31.6255L74.3926 31.1255ZM70.9707 31.1255L70.4707 31.1255L70.4707 32.0161L70.9707 32.0161L71.4707 32.0161L71.4707 31.1255L70.9707 31.1255ZM70.9707 32.0161L70.9707 31.5161L69.002 31.5161L69.002 32.0161L69.002 32.5161L70.9707 32.5161L70.9707 32.0161ZM74.3926 27.438L74.3926 26.938L70.9707 26.938L70.9707 27.438L70.9707 27.938L74.3926 27.938L74.3926 27.438ZM70.9707 27.438L70.4707 27.438L70.4707 29.3755L70.9707 29.3755L71.4707 29.3755L71.4707 27.438L70.9707 27.438ZM70.9707 29.3755L70.9707 29.8755L74.3926 29.8755L74.3926 29.3755L74.3926 28.8755L70.9707 28.8755L70.9707 29.3755ZM74.3926 29.3755L74.8926 29.3755L74.8926 27.438L74.3926 27.438L73.8926 27.438L73.8926 29.3755L74.3926 29.3755ZM88.8613 25.3599L88.8613 24.8599L88.3613 24.8599L88.3613 25.3599L88.8613 25.3599ZM93.8457 25.3599L93.8457 25.8599L94.3457 25.8599L94.3457 25.3599L93.8457 25.3599ZM93.8457 22.3755L94.3457 22.3755L94.3457 21.8755L93.8457 21.8755L93.8457 22.3755ZM91.6973 22.3755L91.6973 21.8755L91.3277 21.8755L91.2193 22.2288L91.6973 22.3755ZM90.7363 25.0161L90.4969 25.4551L90.9763 25.7165L91.1946 25.216L90.7363 25.0161ZM88.7832 24.0942L88.3216 23.9021L88.1292 24.3645L88.5918 24.5562L88.7832 24.0942ZM90.5645 18.0005L90.6832 17.5148L90.179 17.3915L90.0747 17.9L90.5645 18.0005ZM92.6738 18.5161L93.1632 18.6187L93.2625 18.1453L92.7926 18.0304L92.6738 18.5161ZM92.252 20.3599L91.7669 20.2386L91.6116 20.8599L92.252 20.8599L92.252 20.3599ZM93.8457 20.3599L93.8457 20.8599L94.3457 20.8599L94.3457 20.3599L93.8457 20.3599ZM93.8457 16.9849L93.8457 16.4849L93.3457 16.4849L93.3457 16.9849L93.8457 16.9849ZM96.1113 16.9849L96.6113 16.9849L96.6113 16.4849L96.1113 16.4849L96.1113 16.9849ZM96.1113 20.3599L95.6113 20.3599L95.6113 20.8599L96.1113 20.8599L96.1113 20.3599ZM99.377 20.3599L99.877 20.3599L99.877 19.8599L99.377 19.8599L99.377 20.3599ZM99.377 22.3755L99.377 22.8755L99.877 22.8755L99.877 22.3755L99.377 22.3755ZM96.1113 22.3755L96.1113 21.8755L95.6113 21.8755L95.6113 22.3755L96.1113 22.3755ZM96.1113 25.3599L95.6113 25.3599L95.6113 25.8599L96.1113 25.8599L96.1113 25.3599ZM99.7988 25.3599L100.299 25.3599L100.299 24.8599L99.7988 24.8599L99.7988 25.3599ZM99.7988 27.3755L99.7988 27.8755L100.299 27.8755L100.299 27.3755L99.7988 27.3755ZM96.1113 27.3755L96.1113 26.8755L95.6113 26.8755L95.6113 27.3755L96.1113 27.3755ZM96.1113 32.3911L96.1113 32.8911L96.6113 32.8911L96.6113 32.3911L96.1113 32.3911ZM93.8457 32.3911L93.3457 32.3911L93.3457 32.8911L93.8457 32.8911L93.8457 32.3911ZM93.8457 27.3755L94.3457 27.3755L94.3457 26.8755L93.8457 26.8755L93.8457 27.3755ZM88.8613 27.3755L88.3613 27.3755L88.3613 27.8755L88.8613 27.8755L88.8613 27.3755ZM87.1738 17.0005L87.313 16.5203L86.8362 16.382L86.6946 16.8579L87.1738 17.0005ZM89.3301 17.6255L89.804 17.7849L89.9703 17.2905L89.4693 17.1453L89.3301 17.6255ZM88.1738 20.7739L87.7099 20.5874L87.6738 20.6772L87.6738 20.7739L88.1738 20.7739ZM88.1738 32.3755L88.1738 32.8755L88.6738 32.8755L88.6738 32.3755L88.1738 32.3755ZM86.0801 32.3755L85.5801 32.3755L85.5801 32.8755L86.0801 32.8755L86.0801 32.3755ZM86.0801 25.2583L86.5801 25.2583L85.6422 25.017L86.0801 25.2583ZM84.7832 27.3755L84.2899 27.457L84.4925 28.6839L85.1956 27.6582L84.7832 27.3755ZM84.2363 24.4536L83.7946 24.2194L83.7088 24.3812L83.7478 24.5601L84.2363 24.4536ZM88.8613 25.3599L88.8613 25.8599L93.8457 25.8599L93.8457 25.3599L93.8457 24.8599L88.8613 24.8599L88.8613 25.3599ZM93.8457 25.3599L94.3457 25.3599L94.3457 22.3755L93.8457 22.3755L93.3457 22.3755L93.3457 25.3599L93.8457 25.3599ZM93.8457 22.3755L93.8457 21.8755L91.6973 21.8755L91.6973 22.3755L91.6973 22.8755L93.8457 22.8755L93.8457 22.3755ZM91.6973 22.3755L91.2193 22.2288C90.9216 23.1988 90.6076 24.0607 90.278 24.8162L90.7363 25.0161L91.1946 25.216C91.5421 24.4194 91.8688 23.5209 92.1753 22.5222L91.6973 22.3755ZM90.7363 25.0161L90.9758 24.5772C90.3844 24.2546 89.7169 23.9398 88.9746 23.6323L88.7832 24.0942L88.5918 24.5562C89.3079 24.8528 89.9424 25.1526 90.4969 25.4551L90.7363 25.0161ZM88.7832 24.0942L89.2448 24.2863C89.9584 22.5717 90.5602 20.5079 91.0542 18.101L90.5645 18.0005L90.0747 17.9C89.5895 20.2639 89.0039 22.2626 88.3216 23.9021L88.7832 24.0942ZM90.5645 18.0005L90.4457 18.4862L92.5551 19.0018L92.6738 18.5161L92.7926 18.0304L90.6832 17.5148L90.5645 18.0005ZM92.6738 18.5161L92.1845 18.4135C92.0502 19.0537 91.911 19.662 91.7669 20.2386L92.252 20.3599L92.737 20.4811C92.8845 19.891 93.0266 19.2702 93.1632 18.6187L92.6738 18.5161ZM92.252 20.3599L92.252 20.8599L93.8457 20.8599L93.8457 20.3599L93.8457 19.8599L92.252 19.8599L92.252 20.3599ZM93.8457 20.3599L94.3457 20.3599L94.3457 16.9849L93.8457 16.9849L93.3457 16.9849L93.3457 20.3599L93.8457 20.3599ZM93.8457 16.9849L93.8457 17.4849L96.1113 17.4849L96.1113 16.9849L96.1113 16.4849L93.8457 16.4849L93.8457 16.9849ZM96.1113 16.9849L95.6113 16.9849L95.6113 20.3599L96.1113 20.3599L96.6113 20.3599L96.6113 16.9849L96.1113 16.9849ZM96.1113 20.3599L96.1113 20.8599L99.377 20.8599L99.377 20.3599L99.377 19.8599L96.1113 19.8599L96.1113 20.3599ZM99.377 20.3599L98.877 20.3599L98.877 22.3755L99.377 22.3755L99.877 22.3755L99.877 20.3599L99.377 20.3599ZM99.377 22.3755L99.377 21.8755L96.1113 21.8755L96.1113 22.3755L96.1113 22.8755L99.377 22.8755L99.377 22.3755ZM96.1113 22.3755L95.6113 22.3755L95.6113 25.3599L96.1113 25.3599L96.6113 25.3599L96.6113 22.3755L96.1113 22.3755ZM96.1113 25.3599L96.1113 25.8599L99.7988 25.8599L99.7988 25.3599L99.7988 24.8599L96.1113 24.8599L96.1113 25.3599ZM99.7988 25.3599L99.2988 25.3599L99.2988 27.3755L99.7988 27.3755L100.299 27.3755L100.299 25.3599L99.7988 25.3599ZM99.7988 27.3755L99.7988 26.8755L96.1113 26.8755L96.1113 27.3755L96.1113 27.8755L99.7988 27.8755L99.7988 27.3755ZM96.1113 27.3755L95.6113 27.3755L95.6113 32.3911L96.1113 32.3911L96.6113 32.3911L96.6113 27.3755L96.1113 27.3755ZM96.1113 32.3911L96.1113 31.8911L93.8457 31.8911L93.8457 32.3911L93.8457 32.8911L96.1113 32.8911L96.1113 32.3911ZM93.8457 32.3911L94.3457 32.3911L94.3457 27.3755L93.8457 27.3755L93.3457 27.3755L93.3457 32.3911L93.8457 32.3911ZM93.8457 27.3755L93.8457 26.8755L88.8613 26.8755L88.8613 27.3755L88.8613 27.8755L93.8457 27.8755L93.8457 27.3755ZM88.8613 27.3755L89.3613 27.3755L89.3613 25.3599L88.8613 25.3599L88.3613 25.3599L88.3613 27.3755L88.8613 27.3755ZM87.1738 17.0005L87.0346 17.4807L89.1909 18.1057L89.3301 17.6255L89.4693 17.1453L87.313 16.5203L87.1738 17.0005ZM89.3301 17.6255L88.8562 17.466C88.4839 18.5725 88.1018 19.6128 87.7099 20.5874L88.1738 20.7739L88.6377 20.9605C89.0375 19.9663 89.4262 18.9077 89.804 17.7849L89.3301 17.6255ZM88.1738 20.7739L87.6738 20.7739L87.6738 32.3755L88.1738 32.3755L88.6738 32.3755L88.6738 20.7739L88.1738 20.7739ZM88.1738 32.3755L88.1738 31.8755L86.0801 31.8755L86.0801 32.3755L86.0801 32.8755L88.1738 32.8755L88.1738 32.3755ZM86.0801 32.3755L86.5801 32.3755L86.5801 25.2583L86.0801 25.2583L85.5801 25.2583L85.5801 32.3755L86.0801 32.3755ZM86.0801 25.2583L85.6422 25.017C85.2272 25.77 84.8034 26.4618 84.3708 27.0928L84.7832 27.3755L85.1956 27.6582C85.6485 26.9975 86.0892 26.2778 86.518 25.4996L86.0801 25.2583ZM84.7832 27.3755L85.2765 27.294C85.0881 26.1531 84.9043 25.1704 84.7249 24.3471L84.2363 24.4536L83.7478 24.5601C83.9225 25.3618 84.1033 26.327 84.2899 27.457L84.7832 27.3755ZM84.2363 24.4536L84.6781 24.6879C85.7911 22.589 86.7817 20.0722 87.6531 17.1431L87.1738 17.0005L86.6946 16.8579C85.8368 19.7413 84.869 22.1933 83.7946 24.2194L84.2363 24.4536ZM100.877 29.5317L100.877 29.0317L100.377 29.0317L100.377 29.5317L100.877 29.5317ZM107.455 29.5317L107.455 30.0317L107.955 30.0317L107.955 29.5317L107.455 29.5317ZM107.455 26.8755L107.955 26.8755L107.955 26.3755L107.455 26.3755L107.455 26.8755ZM102.83 26.8755L102.33 26.8755L102.33 27.3755L102.83 27.3755L102.83 26.8755ZM102.83 24.7661L102.83 24.2661L102.33 24.2661L102.33 24.7661L102.83 24.7661ZM107.455 24.7661L107.455 25.2661L107.955 25.2661L107.955 24.7661L107.455 24.7661ZM107.455 22.1724L107.955 22.1724L107.955 21.6724L107.455 21.6724L107.455 22.1724ZM103.674 22.1724L103.674 21.6724L103.367 21.6724L103.228 21.946L103.674 22.1724ZM101.377 25.938L100.909 26.1129L101.234 26.9842L101.781 26.2322L101.377 25.938ZM100.314 23.2505L99.9148 22.95L99.743 23.1785L99.8528 23.4424L100.314 23.2505ZM103.049 17.5474L103.169 17.0621L102.713 16.9489L102.572 17.3968L103.049 17.5474ZM105.377 18.1255L105.849 18.2892L106.029 17.7721L105.497 17.6402L105.377 18.1255ZM104.643 20.063L104.18 19.872L103.895 20.563L104.643 20.563L104.643 20.063ZM107.455 20.063L107.455 20.563L107.955 20.563L107.955 20.063L107.455 20.063ZM107.455 16.9692L107.455 16.4692L106.955 16.4692L106.955 16.9692L107.455 16.9692ZM109.799 16.9692L110.299 16.9692L110.299 16.4692L109.799 16.4692L109.799 16.9692ZM109.799 20.063L109.299 20.063L109.299 20.563L109.799 20.563L109.799 20.063ZM114.986 20.063L115.486 20.063L115.486 19.563L114.986 19.563L114.986 20.063ZM114.986 22.1724L114.986 22.6724L115.486 22.6724L115.486 22.1724L114.986 22.1724ZM109.799 22.1724L109.799 21.6724L109.299 21.6724L109.299 22.1724L109.799 22.1724ZM109.799 24.7661L109.299 24.7661L109.299 25.2661L109.799 25.2661L109.799 24.7661ZM114.377 24.7661L114.877 24.7661L114.877 24.2661L114.377 24.2661L114.377 24.7661ZM114.377 26.8755L114.377 27.3755L114.877 27.3755L114.877 26.8755L114.377 26.8755ZM109.799 26.8755L109.799 26.3755L109.299 26.3755L109.299 26.8755L109.799 26.8755ZM109.799 29.5317L109.299 29.5317L109.299 30.0317L109.799 30.0317L109.799 29.5317ZM115.549 29.5317L116.049 29.5317L116.049 29.0317L115.549 29.0317L115.549 29.5317ZM115.549 31.7036L115.549 32.2036L116.049 32.2036L116.049 31.7036L115.549 31.7036ZM100.877 31.7036L100.377 31.7036L100.377 32.2036L100.877 32.2036L100.877 31.7036ZM100.877 29.5317L100.877 30.0317L107.455 30.0317L107.455 29.5317L107.455 29.0317L100.877 29.0317L100.877 29.5317ZM107.455 29.5317L107.955 29.5317L107.955 26.8755L107.455 26.8755L106.955 26.8755L106.955 29.5317L107.455 29.5317ZM107.455 26.8755L107.455 26.3755L102.83 26.3755L102.83 26.8755L102.83 27.3755L107.455 27.3755L107.455 26.8755ZM102.83 26.8755L103.33 26.8755L103.33 24.7661L102.83 24.7661L102.33 24.7661L102.33 26.8755L102.83 26.8755ZM102.83 24.7661L102.83 25.2661L107.455 25.2661L107.455 24.7661L107.455 24.2661L102.83 24.2661L102.83 24.7661ZM107.455 24.7661L107.955 24.7661L107.955 22.1724L107.455 22.1724L106.955 22.1724L106.955 24.7661L107.455 24.7661ZM107.455 22.1724L107.455 21.6724L103.674 21.6724L103.674 22.1724L103.674 22.6724L107.455 22.6724L107.455 22.1724ZM103.674 22.1724L103.228 21.946C102.557 23.2671 101.805 24.4995 100.973 25.6438L101.377 25.938L101.781 26.2322C102.647 25.0431 103.426 23.7651 104.12 22.3987L103.674 22.1724ZM101.377 25.938L101.845 25.763C101.52 24.8923 101.164 23.9908 100.776 23.0585L100.314 23.2505L99.8528 23.4424C100.236 24.3644 100.588 25.2545 100.909 26.1129L101.377 25.938ZM100.314 23.2505L100.714 23.551C101.832 22.0646 102.765 20.1072 103.526 17.6979L103.049 17.5474L102.572 17.3968C101.833 19.7375 100.943 21.5822 99.9148 22.95L100.314 23.2505ZM103.049 17.5474L102.928 18.0326L105.256 18.6108L105.377 18.1255L105.497 17.6402L103.169 17.0621L103.049 17.5474ZM105.377 18.1255L104.905 17.9618C104.678 18.6143 104.437 19.2511 104.18 19.872L104.643 20.063L105.105 20.2539C105.369 19.6145 105.617 18.9596 105.849 18.2892L105.377 18.1255ZM104.643 20.063L104.643 20.563L107.455 20.563L107.455 20.063L107.455 19.563L104.643 19.563L104.643 20.063ZM107.455 20.063L107.955 20.063L107.955 16.9692L107.455 16.9692L106.955 16.9692L106.955 20.063L107.455 20.063ZM107.455 16.9692L107.455 17.4692L109.799 17.4692L109.799 16.9692L109.799 16.4692L107.455 16.4692L107.455 16.9692ZM109.799 16.9692L109.299 16.9692L109.299 20.063L109.799 20.063L110.299 20.063L110.299 16.9692L109.799 16.9692ZM109.799 20.063L109.799 20.563L114.986 20.563L114.986 20.063L114.986 19.563L109.799 19.563L109.799 20.063ZM114.986 20.063L114.486 20.063L114.486 22.1724L114.986 22.1724L115.486 22.1724L115.486 20.063L114.986 20.063ZM114.986 22.1724L114.986 21.6724L109.799 21.6724L109.799 22.1724L109.799 22.6724L114.986 22.6724L114.986 22.1724ZM109.799 22.1724L109.299 22.1724L109.299 24.7661L109.799 24.7661L110.299 24.7661L110.299 22.1724L109.799 22.1724ZM109.799 24.7661L109.799 25.2661L114.377 25.2661L114.377 24.7661L114.377 24.2661L109.799 24.2661L109.799 24.7661ZM114.377 24.7661L113.877 24.7661L113.877 26.8755L114.377 26.8755L114.877 26.8755L114.877 24.7661L114.377 24.7661ZM114.377 26.8755L114.377 26.3755L109.799 26.3755L109.799 26.8755L109.799 27.3755L114.377 27.3755L114.377 26.8755ZM109.799 26.8755L109.299 26.8755L109.299 29.5317L109.799 29.5317L110.299 29.5317L110.299 26.8755L109.799 26.8755ZM109.799 29.5317L109.799 30.0317L115.549 30.0317L115.549 29.5317L115.549 29.0317L109.799 29.0317L109.799 29.5317ZM115.549 29.5317L115.049 29.5317L115.049 31.7036L115.549 31.7036L116.049 31.7036L116.049 29.5317L115.549 29.5317ZM115.549 31.7036L115.549 31.2036L100.877 31.2036L100.877 31.7036L100.877 32.2036L115.549 32.2036L115.549 31.7036ZM100.877 31.7036L101.377 31.7036L101.377 29.5317L100.877 29.5317L100.377 29.5317L100.377 31.7036L100.877 31.7036ZM117.814 23.3442L117.814 22.8442L117.314 22.8442L117.314 23.3442L117.814 23.3442ZM120.814 23.3442L120.814 23.8442L121.866 23.8442L121.202 23.0287L120.814 23.3442ZM119.283 21.5317L119.027 21.1023L118.514 21.4085L118.906 21.8598L119.283 21.5317ZM120.908 20.563L121.164 20.9925L122.723 20.063L120.908 20.063L120.908 20.563ZM116.783 20.563L116.283 20.563L116.283 21.063L116.783 21.063L116.783 20.563ZM116.783 18.5942L116.783 18.0942L116.283 18.0942L116.283 18.5942L116.783 18.5942ZM123.018 18.5942L123.018 19.0942L123.726 19.0942L123.489 18.4267L123.018 18.5942ZM122.502 17.2192L122.427 16.7249L121.806 16.8192L122.037 17.4031L122.502 17.2192ZM124.971 16.8442L125.455 16.7209L125.344 16.2819L124.896 16.3499L124.971 16.8442ZM125.416 18.5942L124.931 18.7175L125.027 19.0942L125.416 19.0942L125.416 18.5942ZM131.502 18.5942L132.002 18.5942L132.002 18.0942L131.502 18.0942L131.502 18.5942ZM131.502 20.563L131.502 21.063L132.002 21.063L132.002 20.563L131.502 20.563ZM127.174 20.563L127.174 20.063L126.956 21.013L127.174 20.563ZM129.174 21.5317L129.549 21.8628L129.985 21.369L129.392 21.0817L129.174 21.5317ZM127.572 23.3442L127.198 23.0132L126.463 23.8442L127.572 23.8442L127.572 23.3442ZM131.236 23.3442L131.736 23.3442L131.736 22.8442L131.236 22.8442L131.236 23.3442ZM131.236 25.313L131.236 25.813L131.736 25.813L131.736 25.313L131.236 25.313ZM119.877 25.313L119.877 24.813L119.377 24.813L119.377 25.313L119.877 25.313ZM117.83 32.4536L117.459 32.7886L117.905 33.2832L118.255 32.7164L117.83 32.4536ZM116.174 30.8442L115.746 30.5862L115.532 30.9401L115.84 31.2162L116.174 30.8442ZM117.814 25.4224L118.314 25.4362L118.314 25.4224L117.814 25.4224ZM123.205 22.8599L123.469 23.2848L123.96 22.9799L123.587 22.5375L123.205 22.8599ZM122.424 23.3442L122.16 22.9193L120.669 23.8442L122.424 23.8442L122.424 23.3442ZM125.025 23.3442L125.025 23.8442L125.28 23.8442L125.43 23.6382L125.025 23.3442ZM126.924 20.563L127.344 20.8343L127.842 20.063L126.924 20.063L126.924 20.563ZM121.268 20.563L121.268 20.063L120.192 20.063L120.885 20.8854L121.268 20.563ZM117.814 23.3442L117.814 23.8442L120.814 23.8442L120.814 23.3442L120.814 22.8442L117.814 22.8442L117.814 23.3442ZM120.814 23.3442L121.202 23.0287C120.766 22.4922 120.252 21.8837 119.661 21.2037L119.283 21.5317L118.906 21.8598C119.492 22.5339 119.999 23.1338 120.427 23.6598L120.814 23.3442ZM119.283 21.5317L119.539 21.9612L121.164 20.9925L120.908 20.563L120.652 20.1335L119.027 21.1023L119.283 21.5317ZM120.908 20.563L120.908 20.063L116.783 20.063L116.783 20.563L116.783 21.063L120.908 21.063L120.908 20.563ZM116.783 20.563L117.283 20.563L117.283 18.5942L116.783 18.5942L116.283 18.5942L116.283 20.563L116.783 20.563ZM116.783 18.5942L116.783 19.0942L123.018 19.0942L123.018 18.5942L123.018 18.0942L116.783 18.0942L116.783 18.5942ZM123.018 18.5942L123.489 18.4267C123.32 17.9527 123.146 17.4889 122.967 17.0354L122.502 17.2192L122.037 17.4031C122.212 17.8454 122.382 18.2983 122.546 18.7617L123.018 18.5942ZM122.502 17.2192L122.577 17.7136L125.046 17.3386L124.971 16.8442L124.896 16.3499L122.427 16.7249L122.502 17.2192ZM124.971 16.8442L124.486 16.9675L124.931 18.7175L125.416 18.5942L125.901 18.4709L125.455 16.7209L124.971 16.8442ZM125.416 18.5942L125.416 19.0942L131.502 19.0942L131.502 18.5942L131.502 18.0942L125.416 18.0942L125.416 18.5942ZM131.502 18.5942L131.002 18.5942L131.002 20.563L131.502 20.563L132.002 20.563L132.002 18.5942L131.502 18.5942ZM131.502 20.563L131.502 20.063L127.174 20.063L127.174 20.563L127.174 21.063L131.502 21.063L131.502 20.563ZM127.174 20.563L126.956 21.013L128.956 21.9817L129.174 21.5317L129.392 21.0817L127.392 20.113L127.174 20.563ZM129.174 21.5317L128.799 21.2007L127.198 23.0132L127.572 23.3442L127.947 23.6753L129.549 21.8628L129.174 21.5317ZM127.572 23.3442L127.572 23.8442L131.236 23.8442L131.236 23.3442L131.236 22.8442L127.572 22.8442L127.572 23.3442ZM131.236 23.3442L130.736 23.3442L130.736 25.313L131.236 25.313L131.736 25.313L131.736 23.3442L131.236 23.3442ZM131.236 25.313L131.236 24.813L119.877 24.813L119.877 25.313L119.877 25.813L131.236 25.813L131.236 25.313ZM119.877 25.313L119.377 25.313L119.377 25.688L119.877 25.688L120.377 25.688L120.377 25.313L119.877 25.313ZM119.877 25.688L119.377 25.688C119.377 27.8858 118.727 30.0511 117.405 32.1908L117.83 32.4536L118.255 32.7164C119.662 30.4395 120.377 28.0944 120.377 25.688L119.877 25.688ZM117.83 32.4536L118.201 32.1186C117.799 31.6729 117.232 31.1231 116.508 30.4723L116.174 30.8442L115.84 31.2162C116.553 31.857 117.09 32.3802 117.459 32.7886L117.83 32.4536ZM116.174 30.8442L116.602 31.1022C117.685 29.3046 118.26 27.4138 118.314 25.4362L117.814 25.4224L117.315 25.4086C117.265 27.2017 116.746 28.9256 115.746 30.5862L116.174 30.8442ZM117.814 25.4224L118.314 25.4224L118.314 23.3442L117.814 23.3442L117.314 23.3442L117.314 25.4224L117.814 25.4224ZM123.205 22.8599L122.942 22.4349L122.16 22.9193L122.424 23.3442L122.687 23.7692L123.469 23.2848L123.205 22.8599ZM122.424 23.3442L122.424 23.8442L125.025 23.8442L125.025 23.3442L125.025 22.8442L122.424 22.8442L122.424 23.3442ZM125.025 23.3442L125.43 23.6382C126.045 22.7912 126.683 21.8564 127.344 20.8343L126.924 20.563L126.504 20.2916C125.852 21.3008 125.224 22.2202 124.621 23.0503L125.025 23.3442ZM126.924 20.563L126.924 20.063L121.268 20.063L121.268 20.563L121.268 21.063L126.924 21.063L126.924 20.563ZM121.268 20.563L120.885 20.8854L122.823 23.1823L123.205 22.8599L123.587 22.5375L121.65 20.2406L121.268 20.563Z" fill="url(#paint14_linear_2204_5928)" mask="url(#path-11-outside-1_2204_5928)"/>
</g>
<g id="5" filter="url(#filter4_d_2204_5928)">
<path d="M45.2114 29.0044L45.2114 27.2334C45.8927 27.6481 46.6185 27.8555 47.3887 27.8555C47.9684 27.8555 48.4212 27.7137 48.7471 27.4302C49.0771 27.1424 49.2422 26.7552 49.2422 26.2686C49.2422 25.2487 48.5439 24.7388 47.1475 24.7388C46.6312 24.7388 46.0366 24.7769 45.3638 24.853L45.7319 19.4258L50.937 19.4258L50.937 21.1143L47.3887 21.1143L47.249 23.1836C47.6003 23.154 47.924 23.1392 48.2202 23.1392C49.1808 23.1392 49.9383 23.4015 50.4927 23.9263C51.0513 24.451 51.3306 25.1619 51.3306 26.0591C51.3306 27.0493 50.9941 27.8597 50.3213 28.4902C49.6484 29.1165 48.7344 29.4297 47.5791 29.4297C46.6439 29.4297 45.8547 29.2879 45.2114 29.0044Z" fill="white"/>
</g>
</g>
<defs>
<filter id="filter0_f_2204_5928" x="0.292969" y="0.0673828" width="170.988" height="15.3003" filterUnits="userSpaceOnUse" color-interpolation-filters="sRGB">
<feFlood flood-opacity="0" result="BackgroundImageFix"/>
<feBlend mode="normal" in="SourceGraphic" in2="BackgroundImageFix" result="shape"/>
<feGaussianBlur stdDeviation="3" result="effect1_foregroundBlur_2204_5928"/>
</filter>
<filter id="filter1_f_2204_5928" x="0.292969" y="33.0674" width="170.988" height="15.3003" filterUnits="userSpaceOnUse" color-interpolation-filters="sRGB">
<feFlood flood-opacity="0" result="BackgroundImageFix"/>
<feBlend mode="normal" in="SourceGraphic" in2="BackgroundImageFix" result="shape"/>
<feGaussianBlur stdDeviation="3" result="effect1_foregroundBlur_2204_5928"/>
</filter>
<filter id="filter2_f_2204_5928" x="4.29297" y="39.0674" width="162.988" height="5" filterUnits="userSpaceOnUse" color-interpolation-filters="sRGB">
<feFlood flood-opacity="0" result="BackgroundImageFix"/>
<feBlend mode="normal" in="SourceGraphic" in2="BackgroundImageFix" result="shape"/>
<feGaussianBlur stdDeviation="1" result="effect1_foregroundBlur_2204_5928"/>
</filter>
<filter id="filter3_f_2204_5928" x="4.29297" y="4.06738" width="162.988" height="5" filterUnits="userSpaceOnUse" color-interpolation-filters="sRGB">
<feFlood flood-opacity="0" result="BackgroundImageFix"/>
<feBlend mode="normal" in="SourceGraphic" in2="BackgroundImageFix" result="shape"/>
<feGaussianBlur stdDeviation="1" result="effect1_foregroundBlur_2204_5928"/>
</filter>
<filter id="filter4_d_2204_5928" x="44.2109" y="19.4258" width="8.12109" height="12.0039" filterUnits="userSpaceOnUse" color-interpolation-filters="sRGB">
<feFlood flood-opacity="0" result="BackgroundImageFix"/>
<feColorMatrix in="SourceAlpha" type="matrix" values="0 0 0 0 0 0 0 0 0 0 0 0 0 0 0 0 0 0 127 0" result="hardAlpha"/>
<feOffset dy="1"/>
<feGaussianBlur stdDeviation="0.5"/>
<feComposite in2="hardAlpha" operator="out"/>
<feColorMatrix type="matrix" values="0 0 0 0 1 0 0 0 0 0.517552 0 0 0 0 0.00183164 0 0 0 1 0"/>
<feBlend mode="normal" in2="BackgroundImageFix" result="effect1_dropShadow_2204_5928"/>
<feBlend mode="normal" in="SourceGraphic" in2="effect1_dropShadow_2204_5928" result="shape"/>
</filter>
<linearGradient id="paint0_linear_2204_5928" x1="6.29297" y1="24.0583" x2="165.281" y2="24.0583" gradientUnits="userSpaceOnUse">
<stop stop-color="#4F91FD"/>
<stop offset="0.525723" stop-color="#A2C9FF" stop-opacity="0.6"/>
<stop offset="1" stop-color="#488CFD"/>
</linearGradient>
<linearGradient id="paint1_linear_2204_5928" x1="6.29297" y1="24.0583" x2="165.281" y2="24.0583" gradientUnits="userSpaceOnUse">
<stop stop-color="#FFDB7E" stop-opacity="0.1"/>
<stop offset="0.525723" stop-color="#FFF677"/>
<stop offset="1" stop-color="#FFDB7E"/>
</linearGradient>
<linearGradient id="paint2_linear_2204_5928" x1="6.29297" y1="24.0583" x2="165.281" y2="24.0583" gradientUnits="userSpaceOnUse">
<stop stop-color="#FFC438"/>
<stop offset="1" stop-color="#FFB11F"/>
</linearGradient>
<linearGradient id="paint3_linear_2204_5928" x1="6.29297" y1="24.0583" x2="165.281" y2="24.0583" gradientUnits="userSpaceOnUse">
<stop stop-color="#FFC52D" stop-opacity="0.9"/>
<stop offset="0.525723" stop-color="#FFF677"/>
<stop offset="1" stop-color="#FFC52D" stop-opacity="0.9"/>
</linearGradient>
<linearGradient id="paint4_linear_2204_5928" x1="6.29297" y1="24.0583" x2="165.281" y2="24.0583" gradientUnits="userSpaceOnUse">
<stop stop-color="#FFB900"/>
<stop offset="1" stop-color="#FFAB0F"/>
</linearGradient>
<linearGradient id="paint5_linear_2204_5928" x1="6.29297" y1="7.71753" x2="165.281" y2="7.71753" gradientUnits="userSpaceOnUse">
<stop stop-color="white" stop-opacity="0.6"/>
<stop offset="0.525723" stop-color="#A2FFFD" stop-opacity="0.6"/>
<stop offset="1" stop-color="white" stop-opacity="0.6"/>
</linearGradient>
<linearGradient id="paint6_linear_2204_5928" x1="6.29297" y1="40.7175" x2="165.281" y2="40.7175" gradientUnits="userSpaceOnUse">
<stop stop-color="white" stop-opacity="0.6"/>
<stop offset="0.525723" stop-color="#A2FFFD" stop-opacity="0.6"/>
<stop offset="1" stop-color="white" stop-opacity="0.6"/>
</linearGradient>
<linearGradient id="paint7_linear_2204_5928" x1="6.29297" y1="41.5674" x2="165.281" y2="41.5674" gradientUnits="userSpaceOnUse">
<stop stop-color="white" stop-opacity="0.9"/>
<stop offset="0.525723" stop-color="#EBFFFF"/>
<stop offset="1" stop-color="white" stop-opacity="0.9"/>
</linearGradient>
<linearGradient id="paint8_linear_2204_5928" x1="6.29297" y1="6.56738" x2="165.281" y2="6.56738" gradientUnits="userSpaceOnUse">
<stop stop-color="white" stop-opacity="0.9"/>
<stop offset="0.525723" stop-color="#EBFFFF"/>
<stop offset="1" stop-color="white" stop-opacity="0.9"/>
</linearGradient>
<linearGradient id="paint9_linear_2204_5928" x1="146.061" y1="24.0422" x2="-12.9272" y2="24.0422" gradientUnits="userSpaceOnUse">
<stop stop-color="#FF8C00"/>
<stop offset="1" stop-color="#FFB700"/>
</linearGradient>
<linearGradient id="paint10_linear_2204_5928" x1="146.061" y1="24.0422" x2="-12.9272" y2="24.0422" gradientUnits="userSpaceOnUse">
<stop stop-color="#FFB11F"/>
<stop offset="1" stop-color="#FFD979"/>
</linearGradient>
<linearGradient id="paint11_linear_2204_5928" x1="54.9782" y1="24.2578" x2="36.9782" y2="24.2578" gradientUnits="userSpaceOnUse">
<stop stop-color="#FFA806"/>
<stop offset="1" stop-color="#FFE284"/>
</linearGradient>
<linearGradient id="paint12_linear_2204_5928" x1="48.1211" y1="37.143" x2="48.1211" y2="15.2578" gradientUnits="userSpaceOnUse">
<stop stop-color="#FFEAC4"/>
<stop offset="1" stop-color="#FFF5D4"/>
</linearGradient>
<linearGradient id="paint13_linear_2204_5928" x1="100.002" y1="17.2583" x2="100.002" y2="30.2583" gradientUnits="userSpaceOnUse">
<stop stop-color="#FFA908"/>
<stop offset="1" stop-color="#FF8C00"/>
</linearGradient>
<linearGradient id="paint14_linear_2204_5928" x1="100.002" y1="30.2583" x2="100.002" y2="17.2583" gradientUnits="userSpaceOnUse">
<stop stop-color="#FFCE78"/>
<stop offset="1" stop-color="#FFF5D4"/>
</linearGradient>
</defs>
</svg>
