<svg width="172" height="49" viewBox="0 0 172 49" fill="none" xmlns="http://www.w3.org/2000/svg">
<g id="6&#232;&#191;&#144;&#232;&#190;&#147;&#228;&#191;&#157;&#233;&#154;&#156;-&#233;&#187;&#152;&#232;&#174;&#164;">
<g id="Group 1321315616">
<mask id="mask0_2204_5944" style="mask-type:alpha" maskUnits="userSpaceOnUse" x="6" y="6" width="160" height="36">
<rect id="Rectangle 34628613" x="6.29297" y="6.01611" width="158.988" height="35.9819" fill="url(#paint0_linear_2204_5944)"/>
</mask>
<g mask="url(#mask0_2204_5944)">
<rect id="Rectangle 34628616" x="6.29297" y="6.01611" width="158.988" height="35.9819" fill="url(#paint1_linear_2204_5944)"/>
</g>
</g>
<g id="Rectangle 34628615" filter="url(#filter0_f_2204_5944)">
<rect x="6.29297" y="6.01611" width="158.988" height="3.30029" fill="url(#paint2_linear_2204_5944)"/>
</g>
<g id="Rectangle 34628616_2" filter="url(#filter1_f_2204_5944)">
<rect x="6.29297" y="39.0161" width="158.988" height="3.30029" fill="url(#paint3_linear_2204_5944)"/>
</g>
<g id="Rectangle 34628617" filter="url(#filter2_f_2204_5944)">
<rect x="6.29297" y="41.0161" width="158.988" height="1" fill="url(#paint4_linear_2204_5944)"/>
</g>
<g id="Rectangle 34628618" filter="url(#filter3_f_2204_5944)">
<rect x="6.29297" y="6.01611" width="158.988" height="1" fill="url(#paint5_linear_2204_5944)"/>
</g>
<rect id="Rectangle 34628621" x="6.29297" y="6.01611" width="158.988" height="35.9819" stroke="url(#paint6_linear_2204_5944)"/>
<path id="Rectangle 34628619" d="M6 10.9955L6 6L11.9368 6M6 36.9865L6 41.9819L11.9368 41.9819M164.988 10.9955L164.988 6L159.052 6M164.988 36.9865L164.988 41.9819L159.052 41.9819" stroke="url(#paint7_linear_2204_5944)" stroke-width="2"/>
<path id="Rectangle 34628620" d="M6 10.9955L6 6L11.9368 6M6 36.9865L6 41.9819L11.9368 41.9819M164.988 10.9955L164.988 6L159.052 6M164.988 36.9865L164.988 41.9819L159.052 41.9819" stroke="url(#paint8_linear_2204_5944)"/>
<path id="Vector" d="M48.1211 15.7065C50.4954 15.7065 52.4946 16.5289 54.1484 18.1812C55.6987 19.7301 56.5183 21.5834 56.6123 23.7651L56.6211 24.2056C56.6182 26.5806 55.7957 28.5809 54.1475 30.2349C52.6032 31.7843 50.7503 32.6038 48.5635 32.6978L48.1221 32.7065L48.1211 32.7065C45.8934 32.7065 43.9976 31.9842 42.4092 30.5337L42.0957 30.2339C40.4435 28.5801 39.6211 26.5808 39.6211 24.2065C39.6211 21.9806 40.3442 20.0853 41.7959 18.4956L42.0957 18.1812C43.748 16.5288 45.7467 15.7065 48.1211 15.7065Z" fill="url(#paint9_linear_2204_5944)" stroke="url(#paint10_linear_2204_5944)"/>
<path id="&#232;&#191;&#144;&#232;&#190;&#147;&#228;&#191;&#157;&#233;&#154;&#156;" d="M70.502 16.8242C71.2832 17.7826 72.0384 18.7826 72.7676 19.8242L70.8457 21.0898C70.1895 19.9961 69.4811 18.9544 68.7207 17.9648L70.502 16.8242ZM82.5957 19.6836L73.8613 19.6836L73.8613 17.6523L82.5957 17.6523L82.5957 19.6836ZM80.5801 23.7305C81.5801 25.1159 82.5488 26.6315 83.4863 28.2773L81.5957 29.2773C81.3978 28.9023 81.1973 28.5326 80.9941 28.168C77.6816 28.3607 75.2624 28.5586 73.7363 28.7617L72.8926 27.0117C73.8353 26.2253 74.6868 25.0846 75.4473 23.5898L72.877 23.5898L72.877 21.5586L83.502 21.5586L83.502 23.5898L77.9941 23.5898C77.3952 24.6315 76.7259 25.6263 75.9863 26.5742C77.0176 26.5378 78.3431 26.4674 79.9629 26.3633C79.6087 25.7852 79.252 25.2253 78.8926 24.6836L80.5801 23.7305ZM83.7832 29.8711L83.0801 31.918C77.1374 31.9596 73.7598 31.8815 72.9473 31.6836C72.1348 31.4909 71.4759 31.0638 70.9707 30.4023C70.3249 31.0169 69.6947 31.6576 69.0801 32.3242L68.2051 29.8867C68.6895 29.444 69.2051 29.0091 69.752 28.582L69.752 24.2617L68.3301 24.2617L68.3301 22.1992L71.9082 22.1992L71.9082 28.5586C72.2415 28.9596 72.6165 29.2695 73.0332 29.4883C73.4551 29.707 73.89 29.8424 74.3379 29.8945C74.791 29.9466 75.7546 29.9701 77.2285 29.9648C78.8535 29.9648 81.0384 29.9336 83.7832 29.8711ZM86.0332 24.4492L86.877 24.4492L86.877 21.6992L88.6895 21.6992L88.6895 24.4492L89.502 24.4492L89.502 26.293L88.6895 26.293L88.6895 27.5586C88.9811 27.5378 89.2832 27.5117 89.5957 27.4805C89.5749 28.1263 89.5749 28.7565 89.5957 29.3711C89.3249 29.3919 89.0228 29.418 88.6895 29.4492L88.6895 32.3555L86.877 32.3555L86.877 29.5898C86.127 29.6523 85.2728 29.7253 84.3145 29.8086L84.2676 27.8398C84.9551 27.7982 85.8249 27.7461 86.877 27.6836L86.877 26.293L84.377 26.293L84.377 24.1523C84.6478 23.1315 84.903 22.0013 85.1426 20.7617L84.2676 20.7617L84.2676 18.918L85.4863 18.918C85.5905 18.2826 85.6947 17.6159 85.7988 16.918L87.627 17.0586C87.502 17.7044 87.3822 18.3242 87.2676 18.918L89.9082 18.918L89.9082 20.668C91.5436 19.668 92.7624 18.4596 93.5645 17.043L96.1113 17.043L95.7207 17.5742C96.8665 19.1263 98.2415 20.3034 99.8457 21.1055C99.5124 21.5326 99.1165 22.0951 98.6582 22.793C98.0957 22.4805 97.5697 22.1263 97.0801 21.7305L97.0801 22.2617L91.6582 22.2617L91.6582 21.8555C91.2624 22.1576 90.8405 22.4544 90.3926 22.7461C89.8926 21.9857 89.4915 21.4284 89.1895 21.0742C89.377 20.9805 89.5592 20.8763 89.7363 20.7617L86.877 20.7617C86.5957 22.1055 86.3145 23.3346 86.0332 24.4492ZM91.6895 32.3398L90.0332 32.3398L90.0332 22.9492L94.7363 22.9492L94.7363 30.6992C94.7363 31.6992 94.2467 32.1992 93.2676 32.1992C92.9863 32.1992 92.6113 32.194 92.1426 32.1836C92.0905 31.7773 92.002 31.2044 91.877 30.4648C92.1895 30.4857 92.4811 30.4909 92.752 30.4805C92.9707 30.4805 93.0801 30.3711 93.0801 30.1523L93.0801 29.2617L91.6895 29.2617L91.6895 32.3398ZM97.2363 23.0742L99.002 23.0742L99.002 30.168C99.002 31.5221 98.4707 32.1992 97.4082 32.1992C96.4395 32.1992 95.8509 32.1888 95.6426 32.168C95.5384 31.4492 95.4342 30.819 95.3301 30.2773C95.7884 30.319 96.2311 30.3451 96.6582 30.3555C97.0436 30.3555 97.2363 30.0534 97.2363 29.4492L97.2363 23.0742ZM95.1895 23.6367L96.5801 23.6367L96.5801 29.2617L95.1895 29.2617L95.1895 23.6367ZM94.4707 19.0898C94.002 19.6523 93.554 20.1471 93.127 20.5742L95.7988 20.5742C95.3405 20.0951 94.8978 19.6003 94.4707 19.0898ZM93.0801 24.418L91.6895 24.418L91.6895 25.3086L93.0801 25.3086L93.0801 24.418ZM91.6895 27.6992L93.0801 27.6992L93.0801 26.8086L91.6895 26.8086L91.6895 27.6992ZM102.955 16.8867L105.049 17.5117C104.684 18.8294 104.273 20.0742 103.814 21.2461L103.814 32.3242L101.846 32.3242L101.846 25.3711C101.497 25.9701 101.132 26.543 100.752 27.0898C100.637 26.0794 100.465 25.0898 100.236 24.1211C101.33 22.2357 102.236 19.8242 102.955 16.8867ZM105.408 17.543L114.564 17.543L114.564 23.3867L111.033 23.3867L111.033 24.793L115.596 24.793L115.596 26.5742L112.01 26.5742C112.838 27.694 114.096 28.6367 115.783 29.4023C115.262 30.2357 114.851 30.9128 114.549 31.4336C113.033 30.4805 111.861 29.2852 111.033 27.8477L111.033 32.3242L108.814 32.3242L108.814 27.9492C107.778 29.4128 106.554 30.6367 105.143 31.6211C104.809 31.0065 104.413 30.3815 103.955 29.7461C105.367 28.9336 106.604 27.8763 107.666 26.5742L104.393 26.5742L104.393 24.793L108.814 24.793L108.814 23.3867L105.408 23.3867L105.408 17.543ZM112.486 19.4023L107.486 19.4023L107.486 21.5273L112.486 21.5273L112.486 19.4023ZM131.283 19.4805L128.877 19.4805L130.393 20.0273L129.666 20.8867L131.596 20.8867L131.596 22.3867L121.502 22.3867L121.502 20.8867L123.564 20.8867C123.314 20.5117 123.085 20.2044 122.877 19.9648L124.182 19.4805L122.08 19.4805L122.08 17.9805L125.33 17.9805C125.21 17.6992 125.085 17.4336 124.955 17.1836L127.221 16.8242C127.361 17.1367 127.515 17.5221 127.682 17.9805L131.283 17.9805L131.283 19.4805ZM125.893 20.6836L125.322 20.8867L127.377 20.8867C127.742 20.3919 128.051 19.9232 128.307 19.4805L124.908 19.4805C125.179 19.8034 125.507 20.2044 125.893 20.6836ZM116.861 17.5742L121.721 17.5742L121.721 19.4336L120.596 23.1836C121.335 24.5898 121.705 25.8242 121.705 26.8867C121.705 27.5273 121.614 28.0456 121.432 28.4414C121.249 28.8372 120.994 29.1055 120.666 29.2461C120.343 29.3815 119.757 29.4388 118.908 29.418C118.835 28.8815 118.752 28.3268 118.658 27.7539L118.658 32.293L116.861 32.293L116.861 17.5742ZM118.846 23.2617L119.846 19.418L118.658 19.418L118.658 27.4883C118.919 27.5143 119.143 27.5273 119.33 27.5273C119.747 27.5273 119.955 27.2565 119.955 26.7148C119.955 25.4128 119.585 24.2617 118.846 23.2617ZM122.096 22.9961L130.752 22.9961L130.752 28.2773L127.455 28.2773L127.455 28.9492L131.627 28.9492L131.627 30.6055L127.455 30.6055L127.455 32.3242L125.393 32.3242L125.393 30.6055L121.158 30.6055L121.158 28.9492L125.393 28.9492L125.393 28.2773L122.096 28.2773L122.096 22.9961ZM128.877 24.4023L123.971 24.4023L123.971 25.0273L128.877 25.0273L128.877 24.4023ZM128.877 26.8711L128.877 26.2461L123.971 26.2461L123.971 26.8711L128.877 26.8711Z" fill="url(#paint11_linear_2204_5944)"/>
<g id="6" filter="url(#filter4_d_2204_5944)">
<path d="M50.9751 21.209C50.4757 20.9255 49.932 20.7837 49.3437 20.7837C48.5863 20.7837 47.979 21.082 47.522 21.6787C47.0692 22.2712 46.8428 23.0392 46.8428 23.9829L46.8809 23.9829C47.3506 23.2635 48.0467 22.9038 48.9692 22.9038C49.7944 22.9038 50.4482 23.1873 50.9307 23.7544C51.4173 24.3172 51.6606 25.0514 51.6606 25.957C51.6606 26.9473 51.3454 27.7661 50.7148 28.4136C50.0843 29.0568 49.2782 29.3784 48.2964 29.3784C47.1707 29.3784 46.3075 28.9722 45.7065 28.1597C45.1099 27.3472 44.8115 26.2342 44.8115 24.8208C44.8115 23.1577 45.1987 21.8078 45.9731 20.771C46.7518 19.73 47.833 19.2095 49.2168 19.2095C49.9616 19.2095 50.5477 19.2983 50.9751 19.4761L50.9751 21.209ZM46.9126 25.9761C46.9126 26.4839 47.0396 26.9155 47.2935 27.271C47.5474 27.6265 47.8817 27.8042 48.2964 27.8042C48.7153 27.8042 49.0454 27.6413 49.2866 27.3154C49.5278 26.9896 49.6484 26.5812 49.6484 26.0903C49.6484 24.9858 49.1935 24.4336 48.2837 24.4336C47.8732 24.4336 47.541 24.5796 47.2871 24.8716C47.0374 25.1636 46.9126 25.5317 46.9126 25.9761Z" fill="white"/>
</g>
</g>
<defs>
<filter id="filter0_f_2204_5944" x="0.292969" y="0.0161133" width="170.988" height="15.3003" filterUnits="userSpaceOnUse" color-interpolation-filters="sRGB">
<feFlood flood-opacity="0" result="BackgroundImageFix"/>
<feBlend mode="normal" in="SourceGraphic" in2="BackgroundImageFix" result="shape"/>
<feGaussianBlur stdDeviation="3" result="effect1_foregroundBlur_2204_5944"/>
</filter>
<filter id="filter1_f_2204_5944" x="0.292969" y="33.0161" width="170.988" height="15.3003" filterUnits="userSpaceOnUse" color-interpolation-filters="sRGB">
<feFlood flood-opacity="0" result="BackgroundImageFix"/>
<feBlend mode="normal" in="SourceGraphic" in2="BackgroundImageFix" result="shape"/>
<feGaussianBlur stdDeviation="3" result="effect1_foregroundBlur_2204_5944"/>
</filter>
<filter id="filter2_f_2204_5944" x="4.29297" y="39.0161" width="162.988" height="5" filterUnits="userSpaceOnUse" color-interpolation-filters="sRGB">
<feFlood flood-opacity="0" result="BackgroundImageFix"/>
<feBlend mode="normal" in="SourceGraphic" in2="BackgroundImageFix" result="shape"/>
<feGaussianBlur stdDeviation="1" result="effect1_foregroundBlur_2204_5944"/>
</filter>
<filter id="filter3_f_2204_5944" x="4.29297" y="4.01611" width="162.988" height="5" filterUnits="userSpaceOnUse" color-interpolation-filters="sRGB">
<feFlood flood-opacity="0" result="BackgroundImageFix"/>
<feBlend mode="normal" in="SourceGraphic" in2="BackgroundImageFix" result="shape"/>
<feGaussianBlur stdDeviation="1" result="effect1_foregroundBlur_2204_5944"/>
</filter>
<filter id="filter4_d_2204_5944" x="43.8125" y="19.2095" width="8.84766" height="12.1689" filterUnits="userSpaceOnUse" color-interpolation-filters="sRGB">
<feFlood flood-opacity="0" result="BackgroundImageFix"/>
<feColorMatrix in="SourceAlpha" type="matrix" values="0 0 0 0 0 0 0 0 0 0 0 0 0 0 0 0 0 0 127 0" result="hardAlpha"/>
<feOffset dy="1"/>
<feGaussianBlur stdDeviation="0.5"/>
<feComposite in2="hardAlpha" operator="out"/>
<feColorMatrix type="matrix" values="0 0 0 0 0.227451 0 0 0 0 0.513726 0 0 0 0 0.988235 0 0 0 1 0"/>
<feBlend mode="normal" in2="BackgroundImageFix" result="effect1_dropShadow_2204_5944"/>
<feBlend mode="normal" in="SourceGraphic" in2="effect1_dropShadow_2204_5944" result="shape"/>
</filter>
<linearGradient id="paint0_linear_2204_5944" x1="6.29297" y1="24.0071" x2="165.281" y2="24.0071" gradientUnits="userSpaceOnUse">
<stop stop-color="#4F91FD"/>
<stop offset="0.525723" stop-color="#A2C9FF" stop-opacity="0.6"/>
<stop offset="1" stop-color="#488CFD"/>
</linearGradient>
<linearGradient id="paint1_linear_2204_5944" x1="6.29297" y1="24.0071" x2="165.281" y2="24.0071" gradientUnits="userSpaceOnUse">
<stop stop-color="#A2C9FF" stop-opacity="0.9"/>
<stop offset="0.525723" stop-color="#70E5FF" stop-opacity="0.6"/>
<stop offset="1" stop-color="#A2C9FF" stop-opacity="0.9"/>
</linearGradient>
<linearGradient id="paint2_linear_2204_5944" x1="6.29297" y1="7.66626" x2="165.281" y2="7.66626" gradientUnits="userSpaceOnUse">
<stop stop-color="white" stop-opacity="0.6"/>
<stop offset="0.525723" stop-color="#A2FFFD" stop-opacity="0.6"/>
<stop offset="1" stop-color="white" stop-opacity="0.6"/>
</linearGradient>
<linearGradient id="paint3_linear_2204_5944" x1="6.29297" y1="40.6663" x2="165.281" y2="40.6663" gradientUnits="userSpaceOnUse">
<stop stop-color="white" stop-opacity="0.6"/>
<stop offset="0.525723" stop-color="#A2FFFD" stop-opacity="0.6"/>
<stop offset="1" stop-color="white" stop-opacity="0.6"/>
</linearGradient>
<linearGradient id="paint4_linear_2204_5944" x1="6.29297" y1="41.5161" x2="165.281" y2="41.5161" gradientUnits="userSpaceOnUse">
<stop stop-color="white" stop-opacity="0.9"/>
<stop offset="0.525723" stop-color="#EBFFFF"/>
<stop offset="1" stop-color="white" stop-opacity="0.9"/>
</linearGradient>
<linearGradient id="paint5_linear_2204_5944" x1="6.29297" y1="6.51611" x2="165.281" y2="6.51611" gradientUnits="userSpaceOnUse">
<stop stop-color="white" stop-opacity="0.9"/>
<stop offset="0.525723" stop-color="#EBFFFF"/>
<stop offset="1" stop-color="white" stop-opacity="0.9"/>
</linearGradient>
<linearGradient id="paint6_linear_2204_5944" x1="6.29297" y1="24.0071" x2="165.281" y2="24.0071" gradientUnits="userSpaceOnUse">
<stop stop-color="#6DD7FF"/>
<stop offset="1" stop-color="#7DBEFF"/>
</linearGradient>
<linearGradient id="paint7_linear_2204_5944" x1="146.061" y1="23.991" x2="-12.9272" y2="23.991" gradientUnits="userSpaceOnUse">
<stop stop-color="#419FFF"/>
<stop offset="1" stop-color="#47B3FF"/>
</linearGradient>
<linearGradient id="paint8_linear_2204_5944" x1="146.061" y1="23.991" x2="-12.9272" y2="23.991" gradientUnits="userSpaceOnUse">
<stop stop-color="#7EBEFF"/>
<stop offset="1" stop-color="#8BE3FF"/>
</linearGradient>
<linearGradient id="paint9_linear_2204_5944" x1="54.9782" y1="24.2065" x2="36.9782" y2="24.2065" gradientUnits="userSpaceOnUse">
<stop stop-color="#5997FD"/>
<stop offset="1" stop-color="#58D7FF"/>
</linearGradient>
<linearGradient id="paint10_linear_2204_5944" x1="39.1211" y1="24.2065" x2="57.0955" y2="24.8848" gradientUnits="userSpaceOnUse">
<stop stop-color="#D6F0FF"/>
<stop offset="1" stop-color="#C4E8FF"/>
</linearGradient>
<linearGradient id="paint11_linear_2204_5944" x1="100.002" y1="17.207" x2="100.002" y2="30.207" gradientUnits="userSpaceOnUse">
<stop stop-color="#666666"/>
<stop offset="1"/>
</linearGradient>
</defs>
</svg>
