<svg width="172" height="49" viewBox="0 0 172 49" fill="none" xmlns="http://www.w3.org/2000/svg">
<g id="6&#232;&#191;&#144;&#232;&#190;&#147;&#228;&#191;&#157;&#233;&#154;&#156;-&#231;&#130;&#185;&#229;&#135;&#187;&#233;&#162;&#156;&#232;&#137;&#178;">
<g id="Group 1321315616">
<mask id="mask0_2204_5959" style="mask-type:alpha" maskUnits="userSpaceOnUse" x="6" y="6" width="160" height="37">
<rect id="Rectangle 34628613" x="6.29297" y="6.06738" width="158.988" height="35.9819" fill="url(#paint0_linear_2204_5959)"/>
</mask>
<g mask="url(#mask0_2204_5959)">
<rect id="Rectangle 34628616" x="6.29297" y="6.06738" width="158.988" height="35.9819" fill="url(#paint1_linear_2204_5959)" stroke="url(#paint2_linear_2204_5959)"/>
</g>
</g>
<rect id="Rectangle 34628617" x="6.29297" y="6.06738" width="158.988" height="35.9819" fill="url(#paint3_linear_2204_5959)" stroke="url(#paint4_linear_2204_5959)"/>
<g id="Rectangle 34628615" filter="url(#filter0_f_2204_5959)">
<rect x="6.29297" y="6.06738" width="158.988" height="3.30029" fill="url(#paint5_linear_2204_5959)"/>
</g>
<g id="Rectangle 34628616_2" filter="url(#filter1_f_2204_5959)">
<rect x="6.29297" y="39.0674" width="158.988" height="3.30029" fill="url(#paint6_linear_2204_5959)"/>
</g>
<g id="Rectangle 34628617_2" filter="url(#filter2_f_2204_5959)">
<rect x="6.29297" y="41.0674" width="158.988" height="1" fill="url(#paint7_linear_2204_5959)"/>
</g>
<g id="Rectangle 34628618" filter="url(#filter3_f_2204_5959)">
<rect x="6.29297" y="6.06738" width="158.988" height="1" fill="url(#paint8_linear_2204_5959)"/>
</g>
<path id="Rectangle 34628619" d="M6 11.0468L6 6.05127L11.9368 6.05127M6 37.0377L6 42.0332L11.9368 42.0332M164.988 11.0468L164.988 6.05127L159.052 6.05127M164.988 37.0377L164.988 42.0332L159.052 42.0332" stroke="url(#paint9_linear_2204_5959)" stroke-width="2"/>
<path id="Rectangle 34628620" d="M6 11.0468L6 6.05127L11.9368 6.05127M6 37.0377L6 42.0332L11.9368 42.0332M164.988 11.0468L164.988 6.05127L159.052 6.05127M164.988 37.0377L164.988 42.0332L159.052 42.0332" stroke="url(#paint10_linear_2204_5959)"/>
<path id="Vector" d="M48.1211 15.7578C50.4954 15.7578 52.4946 16.5802 54.1484 18.2324C55.6987 19.7813 56.5183 21.6347 56.6123 23.8164L56.6211 24.2568C56.6182 26.6319 55.7957 28.6322 54.1475 30.2861C52.6032 31.8355 50.7503 32.655 48.5635 32.749L48.1221 32.7578L48.1211 32.7578C45.8934 32.7578 43.9976 32.0355 42.4092 30.585L42.0957 30.2852C40.4435 28.6314 39.6211 26.6321 39.6211 24.2578C39.6211 22.0319 40.3442 20.1366 41.7959 18.5469L42.0957 18.2324C43.748 16.5801 45.7467 15.7578 48.1211 15.7578Z" fill="url(#paint11_linear_2204_5959)" stroke="url(#paint12_linear_2204_5959)"/>
<g id="&#232;&#191;&#144;&#232;&#190;&#147;&#228;&#191;&#157;&#233;&#154;&#156;">
<mask id="path-11-outside-1_2204_5959" maskUnits="userSpaceOnUse" x="67.125" y="15.2583" width="66" height="19" fill="black">
<rect fill="white" x="67.125" y="15.2583" width="66" height="19"/>
<path d="M70.502 16.8755C71.2832 17.8338 72.0384 18.8338 72.7676 19.8755L70.8457 21.1411C70.1895 20.0474 69.4811 19.0057 68.7207 18.0161L70.502 16.8755ZM82.5957 19.7349L73.8613 19.7349L73.8613 17.7036L82.5957 17.7036L82.5957 19.7349ZM80.5801 23.7817C81.5801 25.1672 82.5488 26.6828 83.4863 28.3286L81.5957 29.3286C81.3978 28.9536 81.1973 28.5838 80.9941 28.2192C77.6816 28.4119 75.2624 28.6099 73.7363 28.813L72.8926 27.063C73.8353 26.2765 74.6868 25.1359 75.4473 23.6411L72.877 23.6411L72.877 21.6099L83.502 21.6099L83.502 23.6411L77.9941 23.6411C77.3952 24.6828 76.7259 25.6776 75.9863 26.6255C77.0176 26.589 78.3431 26.5187 79.9629 26.4146C79.6087 25.8364 79.252 25.2765 78.8926 24.7349L80.5801 23.7817ZM83.7832 29.9224L83.0801 31.9692C77.1374 32.0109 73.7598 31.9328 72.9473 31.7349C72.1348 31.5422 71.4759 31.1151 70.9707 30.4536C70.3249 31.0682 69.6947 31.7088 69.0801 32.3755L68.2051 29.938C68.6895 29.4953 69.2051 29.0604 69.752 28.6333L69.752 24.313L68.3301 24.313L68.3301 22.2505L71.9082 22.2505L71.9082 28.6099C72.2415 29.0109 72.6165 29.3208 73.0332 29.5396C73.4551 29.7583 73.89 29.8937 74.3379 29.9458C74.791 29.9979 75.7546 30.0213 77.2285 30.0161C78.8535 30.0161 81.0384 29.9849 83.7832 29.9224ZM86.0332 24.5005L86.877 24.5005L86.877 21.7505L88.6895 21.7505L88.6895 24.5005L89.502 24.5005L89.502 26.3442L88.6895 26.3442L88.6895 27.6099C88.9811 27.589 89.2832 27.563 89.5957 27.5317C89.5749 28.1776 89.5749 28.8078 89.5957 29.4224C89.3249 29.4432 89.0228 29.4692 88.6895 29.5005L88.6895 32.4067L86.877 32.4067L86.877 29.6411C86.127 29.7036 85.2728 29.7765 84.3145 29.8599L84.2676 27.8911C84.9551 27.8494 85.8249 27.7974 86.877 27.7349L86.877 26.3442L84.377 26.3442L84.377 24.2036C84.6478 23.1828 84.903 22.0526 85.1426 20.813L84.2676 20.813L84.2676 18.9692L85.4863 18.9692C85.5905 18.3338 85.6947 17.6672 85.7988 16.9692L87.627 17.1099C87.502 17.7557 87.3822 18.3755 87.2676 18.9692L89.9082 18.9692L89.9082 20.7192C91.5436 19.7192 92.7624 18.5109 93.5645 17.0942L96.1113 17.0942L95.7207 17.6255C96.8665 19.1776 98.2415 20.3547 99.8457 21.1567C99.5124 21.5838 99.1165 22.1463 98.6582 22.8442C98.0957 22.5317 97.5697 22.1776 97.0801 21.7817L97.0801 22.313L91.6582 22.313L91.6582 21.9067C91.2624 22.2088 90.8405 22.5057 90.3926 22.7974C89.8926 22.0369 89.4915 21.4797 89.1895 21.1255C89.377 21.0317 89.5592 20.9276 89.7363 20.813L86.877 20.813C86.5957 22.1567 86.3145 23.3859 86.0332 24.5005ZM91.6895 32.3911L90.0332 32.3911L90.0332 23.0005L94.7363 23.0005L94.7363 30.7505C94.7363 31.7505 94.2467 32.2505 93.2676 32.2505C92.9863 32.2505 92.6113 32.2453 92.1426 32.2349C92.0905 31.8286 92.002 31.2557 91.877 30.5161C92.1895 30.5369 92.4811 30.5422 92.752 30.5317C92.9707 30.5317 93.0801 30.4224 93.0801 30.2036L93.0801 29.313L91.6895 29.313L91.6895 32.3911ZM97.2363 23.1255L99.002 23.1255L99.002 30.2192C99.002 31.5734 98.4707 32.2505 97.4082 32.2505C96.4395 32.2505 95.8509 32.2401 95.6426 32.2192C95.5384 31.5005 95.4342 30.8703 95.3301 30.3286C95.7884 30.3703 96.2311 30.3963 96.6582 30.4067C97.0436 30.4067 97.2363 30.1047 97.2363 29.5005L97.2363 23.1255ZM95.1895 23.688L96.5801 23.688L96.5801 29.313L95.1895 29.313L95.1895 23.688ZM94.4707 19.1411C94.002 19.7036 93.554 20.1984 93.127 20.6255L95.7988 20.6255C95.3405 20.1463 94.8978 19.6515 94.4707 19.1411ZM93.0801 24.4692L91.6895 24.4692L91.6895 25.3599L93.0801 25.3599L93.0801 24.4692ZM91.6895 27.7505L93.0801 27.7505L93.0801 26.8599L91.6895 26.8599L91.6895 27.7505ZM102.955 16.938L105.049 17.563C104.684 18.8807 104.273 20.1255 103.814 21.2974L103.814 32.3755L101.846 32.3755L101.846 25.4224C101.497 26.0213 101.132 26.5942 100.752 27.1411C100.637 26.1307 100.465 25.1411 100.236 24.1724C101.33 22.2869 102.236 19.8755 102.955 16.938ZM105.408 17.5942L114.564 17.5942L114.564 23.438L111.033 23.438L111.033 24.8442L115.596 24.8442L115.596 26.6255L112.01 26.6255C112.838 27.7453 114.096 28.688 115.783 29.4536C115.262 30.2869 114.851 30.964 114.549 31.4849C113.033 30.5317 111.861 29.3364 111.033 27.8989L111.033 32.3755L108.814 32.3755L108.814 28.0005C107.778 29.464 106.554 30.688 105.143 31.6724C104.809 31.0578 104.413 30.4328 103.955 29.7974C105.367 28.9849 106.604 27.9276 107.666 26.6255L104.393 26.6255L104.393 24.8442L108.814 24.8442L108.814 23.438L105.408 23.438L105.408 17.5942ZM112.486 19.4536L107.486 19.4536L107.486 21.5786L112.486 21.5786L112.486 19.4536ZM131.283 19.5317L128.877 19.5317L130.393 20.0786L129.666 20.938L131.596 20.938L131.596 22.438L121.502 22.438L121.502 20.938L123.564 20.938C123.314 20.563 123.085 20.2557 122.877 20.0161L124.182 19.5317L122.08 19.5317L122.08 18.0317L125.33 18.0317C125.21 17.7505 125.085 17.4849 124.955 17.2349L127.221 16.8755C127.361 17.188 127.515 17.5734 127.682 18.0317L131.283 18.0317L131.283 19.5317ZM125.893 20.7349L125.322 20.938L127.377 20.938C127.742 20.4432 128.051 19.9744 128.307 19.5317L124.908 19.5317C125.179 19.8547 125.507 20.2557 125.893 20.7349ZM116.861 17.6255L121.721 17.6255L121.721 19.4849L120.596 23.2349C121.335 24.6411 121.705 25.8755 121.705 26.938C121.705 27.5786 121.614 28.0968 121.432 28.4927C121.249 28.8885 120.994 29.1567 120.666 29.2974C120.343 29.4328 119.757 29.4901 118.908 29.4692C118.835 28.9328 118.752 28.3781 118.658 27.8052L118.658 32.3442L116.861 32.3442L116.861 17.6255ZM118.846 23.313L119.846 19.4692L118.658 19.4692L118.658 27.5396C118.919 27.5656 119.143 27.5786 119.33 27.5786C119.747 27.5786 119.955 27.3078 119.955 26.7661C119.955 25.464 119.585 24.313 118.846 23.313ZM122.096 23.0474L130.752 23.0474L130.752 28.3286L127.455 28.3286L127.455 29.0005L131.627 29.0005L131.627 30.6567L127.455 30.6567L127.455 32.3755L125.393 32.3755L125.393 30.6567L121.158 30.6567L121.158 29.0005L125.393 29.0005L125.393 28.3286L122.096 28.3286L122.096 23.0474ZM128.877 24.4536L123.971 24.4536L123.971 25.0786L128.877 25.0786L128.877 24.4536ZM128.877 26.9224L128.877 26.2974L123.971 26.2974L123.971 26.9224L128.877 26.9224Z"/>
</mask>
<path d="M70.502 16.8755C71.2832 17.8338 72.0384 18.8338 72.7676 19.8755L70.8457 21.1411C70.1895 20.0474 69.4811 19.0057 68.7207 18.0161L70.502 16.8755ZM82.5957 19.7349L73.8613 19.7349L73.8613 17.7036L82.5957 17.7036L82.5957 19.7349ZM80.5801 23.7817C81.5801 25.1672 82.5488 26.6828 83.4863 28.3286L81.5957 29.3286C81.3978 28.9536 81.1973 28.5838 80.9941 28.2192C77.6816 28.4119 75.2624 28.6099 73.7363 28.813L72.8926 27.063C73.8353 26.2765 74.6868 25.1359 75.4473 23.6411L72.877 23.6411L72.877 21.6099L83.502 21.6099L83.502 23.6411L77.9941 23.6411C77.3952 24.6828 76.7259 25.6776 75.9863 26.6255C77.0176 26.589 78.3431 26.5187 79.9629 26.4146C79.6087 25.8364 79.252 25.2765 78.8926 24.7349L80.5801 23.7817ZM83.7832 29.9224L83.0801 31.9692C77.1374 32.0109 73.7598 31.9328 72.9473 31.7349C72.1348 31.5422 71.4759 31.1151 70.9707 30.4536C70.3249 31.0682 69.6947 31.7088 69.0801 32.3755L68.2051 29.938C68.6895 29.4953 69.2051 29.0604 69.752 28.6333L69.752 24.313L68.3301 24.313L68.3301 22.2505L71.9082 22.2505L71.9082 28.6099C72.2415 29.0109 72.6165 29.3208 73.0332 29.5396C73.4551 29.7583 73.89 29.8937 74.3379 29.9458C74.791 29.9979 75.7546 30.0213 77.2285 30.0161C78.8535 30.0161 81.0384 29.9849 83.7832 29.9224ZM86.0332 24.5005L86.877 24.5005L86.877 21.7505L88.6895 21.7505L88.6895 24.5005L89.502 24.5005L89.502 26.3442L88.6895 26.3442L88.6895 27.6099C88.9811 27.589 89.2832 27.563 89.5957 27.5317C89.5749 28.1776 89.5749 28.8078 89.5957 29.4224C89.3249 29.4432 89.0228 29.4692 88.6895 29.5005L88.6895 32.4067L86.877 32.4067L86.877 29.6411C86.127 29.7036 85.2728 29.7765 84.3145 29.8599L84.2676 27.8911C84.9551 27.8494 85.8249 27.7974 86.877 27.7349L86.877 26.3442L84.377 26.3442L84.377 24.2036C84.6478 23.1828 84.903 22.0526 85.1426 20.813L84.2676 20.813L84.2676 18.9692L85.4863 18.9692C85.5905 18.3338 85.6947 17.6672 85.7988 16.9692L87.627 17.1099C87.502 17.7557 87.3822 18.3755 87.2676 18.9692L89.9082 18.9692L89.9082 20.7192C91.5436 19.7192 92.7624 18.5109 93.5645 17.0942L96.1113 17.0942L95.7207 17.6255C96.8665 19.1776 98.2415 20.3547 99.8457 21.1567C99.5124 21.5838 99.1165 22.1463 98.6582 22.8442C98.0957 22.5317 97.5697 22.1776 97.0801 21.7817L97.0801 22.313L91.6582 22.313L91.6582 21.9067C91.2624 22.2088 90.8405 22.5057 90.3926 22.7974C89.8926 22.0369 89.4915 21.4797 89.1895 21.1255C89.377 21.0317 89.5592 20.9276 89.7363 20.813L86.877 20.813C86.5957 22.1567 86.3145 23.3859 86.0332 24.5005ZM91.6895 32.3911L90.0332 32.3911L90.0332 23.0005L94.7363 23.0005L94.7363 30.7505C94.7363 31.7505 94.2467 32.2505 93.2676 32.2505C92.9863 32.2505 92.6113 32.2453 92.1426 32.2349C92.0905 31.8286 92.002 31.2557 91.877 30.5161C92.1895 30.5369 92.4811 30.5422 92.752 30.5317C92.9707 30.5317 93.0801 30.4224 93.0801 30.2036L93.0801 29.313L91.6895 29.313L91.6895 32.3911ZM97.2363 23.1255L99.002 23.1255L99.002 30.2192C99.002 31.5734 98.4707 32.2505 97.4082 32.2505C96.4395 32.2505 95.8509 32.2401 95.6426 32.2192C95.5384 31.5005 95.4342 30.8703 95.3301 30.3286C95.7884 30.3703 96.2311 30.3963 96.6582 30.4067C97.0436 30.4067 97.2363 30.1047 97.2363 29.5005L97.2363 23.1255ZM95.1895 23.688L96.5801 23.688L96.5801 29.313L95.1895 29.313L95.1895 23.688ZM94.4707 19.1411C94.002 19.7036 93.554 20.1984 93.127 20.6255L95.7988 20.6255C95.3405 20.1463 94.8978 19.6515 94.4707 19.1411ZM93.0801 24.4692L91.6895 24.4692L91.6895 25.3599L93.0801 25.3599L93.0801 24.4692ZM91.6895 27.7505L93.0801 27.7505L93.0801 26.8599L91.6895 26.8599L91.6895 27.7505ZM102.955 16.938L105.049 17.563C104.684 18.8807 104.273 20.1255 103.814 21.2974L103.814 32.3755L101.846 32.3755L101.846 25.4224C101.497 26.0213 101.132 26.5942 100.752 27.1411C100.637 26.1307 100.465 25.1411 100.236 24.1724C101.33 22.2869 102.236 19.8755 102.955 16.938ZM105.408 17.5942L114.564 17.5942L114.564 23.438L111.033 23.438L111.033 24.8442L115.596 24.8442L115.596 26.6255L112.01 26.6255C112.838 27.7453 114.096 28.688 115.783 29.4536C115.262 30.2869 114.851 30.964 114.549 31.4849C113.033 30.5317 111.861 29.3364 111.033 27.8989L111.033 32.3755L108.814 32.3755L108.814 28.0005C107.778 29.464 106.554 30.688 105.143 31.6724C104.809 31.0578 104.413 30.4328 103.955 29.7974C105.367 28.9849 106.604 27.9276 107.666 26.6255L104.393 26.6255L104.393 24.8442L108.814 24.8442L108.814 23.438L105.408 23.438L105.408 17.5942ZM112.486 19.4536L107.486 19.4536L107.486 21.5786L112.486 21.5786L112.486 19.4536ZM131.283 19.5317L128.877 19.5317L130.393 20.0786L129.666 20.938L131.596 20.938L131.596 22.438L121.502 22.438L121.502 20.938L123.564 20.938C123.314 20.563 123.085 20.2557 122.877 20.0161L124.182 19.5317L122.08 19.5317L122.08 18.0317L125.33 18.0317C125.21 17.7505 125.085 17.4849 124.955 17.2349L127.221 16.8755C127.361 17.188 127.515 17.5734 127.682 18.0317L131.283 18.0317L131.283 19.5317ZM125.893 20.7349L125.322 20.938L127.377 20.938C127.742 20.4432 128.051 19.9744 128.307 19.5317L124.908 19.5317C125.179 19.8547 125.507 20.2557 125.893 20.7349ZM116.861 17.6255L121.721 17.6255L121.721 19.4849L120.596 23.2349C121.335 24.6411 121.705 25.8755 121.705 26.938C121.705 27.5786 121.614 28.0968 121.432 28.4927C121.249 28.8885 120.994 29.1567 120.666 29.2974C120.343 29.4328 119.757 29.4901 118.908 29.4692C118.835 28.9328 118.752 28.3781 118.658 27.8052L118.658 32.3442L116.861 32.3442L116.861 17.6255ZM118.846 23.313L119.846 19.4692L118.658 19.4692L118.658 27.5396C118.919 27.5656 119.143 27.5786 119.33 27.5786C119.747 27.5786 119.955 27.3078 119.955 26.7661C119.955 25.464 119.585 24.313 118.846 23.313ZM122.096 23.0474L130.752 23.0474L130.752 28.3286L127.455 28.3286L127.455 29.0005L131.627 29.0005L131.627 30.6567L127.455 30.6567L127.455 32.3755L125.393 32.3755L125.393 30.6567L121.158 30.6567L121.158 29.0005L125.393 29.0005L125.393 28.3286L122.096 28.3286L122.096 23.0474ZM128.877 24.4536L123.971 24.4536L123.971 25.0786L128.877 25.0786L128.877 24.4536ZM128.877 26.9224L128.877 26.2974L123.971 26.2974L123.971 26.9224L128.877 26.9224Z" fill="url(#paint13_linear_2204_5959)"/>
<path d="M70.502 16.8755L70.8895 16.5596L70.6078 16.214L70.2323 16.4544L70.502 16.8755ZM72.7676 19.8755L73.0426 20.2931L73.4722 20.0102L73.1772 19.5888L72.7676 19.8755ZM70.8457 21.1411L70.417 21.3984L70.6852 21.8455L71.1207 21.5587L70.8457 21.1411ZM68.7207 18.0161L68.4511 17.595L67.9923 17.8888L68.3242 18.3208L68.7207 18.0161ZM82.5957 19.7349L82.5957 20.2349L83.0957 20.2349L83.0957 19.7349L82.5957 19.7349ZM73.8613 19.7349L73.3613 19.7349L73.3613 20.2349L73.8613 20.2349L73.8613 19.7349ZM73.8613 17.7036L73.8613 17.2036L73.3613 17.2036L73.3613 17.7036L73.8613 17.7036ZM82.5957 17.7036L83.0957 17.7036L83.0957 17.2036L82.5957 17.2036L82.5957 17.7036ZM80.5801 23.7817L80.9855 23.4891L80.7237 23.1264L80.3342 23.3464L80.5801 23.7817ZM83.4863 28.3286L83.7201 28.7706L84.1761 28.5294L83.9208 28.0811L83.4863 28.3286ZM81.5957 29.3286L81.1535 29.562L81.3871 30.0046L81.8295 29.7706L81.5957 29.3286ZM80.9941 28.2192L81.4309 27.9759L81.2783 27.7019L80.9651 27.7201L80.9941 28.2192ZM73.7363 28.813L73.2859 29.0301L73.4433 29.3564L73.8023 29.3086L73.7363 28.813ZM72.8926 27.063L72.5723 26.6791L72.2728 26.9289L72.4422 27.2801L72.8926 27.063ZM75.4473 23.6411L75.8929 23.8678L76.2626 23.1411L75.4473 23.1411L75.4473 23.6411ZM72.877 23.6411L72.377 23.6411L72.377 24.1411L72.877 24.1411L72.877 23.6411ZM72.877 21.6099L72.877 21.1099L72.377 21.1099L72.377 21.6099L72.877 21.6099ZM83.502 21.6099L84.002 21.6099L84.002 21.1099L83.502 21.1099L83.502 21.6099ZM83.502 23.6411L83.502 24.1411L84.002 24.1411L84.002 23.6411L83.502 23.6411ZM77.9941 23.6411L77.9941 23.1411L77.7049 23.1411L77.5607 23.3919L77.9941 23.6411ZM75.9863 26.6255L75.5921 26.3179L74.9327 27.163L76.004 27.1252L75.9863 26.6255ZM79.9629 26.4146L79.995 26.9135L80.8223 26.8603L80.3892 26.1534L79.9629 26.4146ZM78.8926 24.7349L78.6467 24.2995L78.179 24.5637L78.4759 25.0113L78.8926 24.7349ZM83.7832 29.9224L84.2561 30.0848L84.4892 29.4062L83.7718 29.4225L83.7832 29.9224ZM83.0801 31.9692L83.0836 32.4692L83.4379 32.4667L83.553 32.1317L83.0801 31.9692ZM72.9473 31.7349L73.0656 31.2491L73.0627 31.2484L72.9473 31.7349ZM70.9707 30.4536L71.3681 30.1501L71.0298 29.7072L70.626 30.0914L70.9707 30.4536ZM69.0801 32.3755L68.6095 32.5444L68.8883 33.3212L69.4477 32.7144L69.0801 32.3755ZM68.2051 29.938L67.8678 29.5689L67.622 29.7935L67.7345 30.1069L68.2051 29.938ZM69.752 28.6333L70.0597 29.0274L70.252 28.8772L70.252 28.6333L69.752 28.6333ZM69.752 24.313L70.252 24.313L70.252 23.813L69.752 23.813L69.752 24.313ZM68.3301 24.313L67.8301 24.313L67.8301 24.813L68.3301 24.813L68.3301 24.313ZM68.3301 22.2505L68.3301 21.7505L67.8301 21.7505L67.8301 22.2505L68.3301 22.2505ZM71.9082 22.2505L72.4082 22.2505L72.4082 21.7505L71.9082 21.7505L71.9082 22.2505ZM71.9082 28.6099L71.4082 28.6099L71.4082 28.7905L71.5237 28.9295L71.9082 28.6099ZM73.0332 29.5396L72.8008 29.9823L72.803 29.9834L73.0332 29.5396ZM74.3379 29.9458L74.2801 30.4425L74.2808 30.4425L74.3379 29.9458ZM77.2285 30.0161L77.2285 29.5161L77.2267 29.5161L77.2285 30.0161ZM70.502 16.8755L70.1144 17.1914C70.8877 18.14 71.6356 19.1303 72.358 20.1622L72.7676 19.8755L73.1772 19.5888C72.4412 18.5374 71.6787 17.5276 70.8895 16.5596L70.502 16.8755ZM72.7676 19.8755L72.4926 19.4579L70.5707 20.7235L70.8457 21.1411L71.1207 21.5587L73.0426 20.2931L72.7676 19.8755ZM70.8457 21.1411L71.2745 20.8839C70.6086 19.7741 69.8895 18.7165 69.1172 17.7115L68.7207 18.0161L68.3242 18.3208C69.0727 19.2948 69.7703 20.3207 70.417 21.3984L70.8457 21.1411ZM68.7207 18.0161L68.9903 18.4372L70.7716 17.2966L70.502 16.8755L70.2323 16.4544L68.4511 17.595L68.7207 18.0161ZM82.5957 19.7349L82.5957 19.2349L73.8613 19.2349L73.8613 19.7349L73.8613 20.2349L82.5957 20.2349L82.5957 19.7349ZM73.8613 19.7349L74.3613 19.7349L74.3613 17.7036L73.8613 17.7036L73.3613 17.7036L73.3613 19.7349L73.8613 19.7349ZM73.8613 17.7036L73.8613 18.2036L82.5957 18.2036L82.5957 17.7036L82.5957 17.2036L73.8613 17.2036L73.8613 17.7036ZM82.5957 17.7036L82.0957 17.7036L82.0957 19.7349L82.5957 19.7349L83.0957 19.7349L83.0957 17.7036L82.5957 17.7036ZM80.5801 23.7817L80.1747 24.0744C81.1631 25.4438 82.1223 26.9442 83.0519 28.5761L83.4863 28.3286L83.9208 28.0811C82.9754 26.4214 81.997 24.8905 80.9855 23.4891L80.5801 23.7817ZM83.4863 28.3286L83.2526 27.8866L81.3619 28.8866L81.5957 29.3286L81.8295 29.7706L83.7201 28.7706L83.4863 28.3286ZM81.5957 29.3286L82.0379 29.0952C81.8382 28.7169 81.6359 28.3438 81.4309 27.9759L80.9941 28.2192L80.5574 28.4626C80.7586 28.8238 80.9573 29.1903 81.1535 29.562L81.5957 29.3286ZM80.9941 28.2192L80.9651 27.7201C77.651 27.9129 75.216 28.1116 73.6704 28.3174L73.7363 28.813L73.8023 29.3086C75.3087 29.1081 77.7123 28.911 81.0232 28.7184L80.9941 28.2192ZM73.7363 28.813L74.1867 28.5958L73.343 26.8458L72.8926 27.063L72.4422 27.2801L73.2859 29.0301L73.7363 28.813ZM72.8926 27.063L73.2129 27.4469C74.2229 26.6043 75.1123 25.4022 75.8929 23.8678L75.4473 23.6411L75.0016 23.4144C74.2614 24.8696 73.4477 25.9487 72.5723 26.6791L72.8926 27.063ZM75.4473 23.6411L75.4473 23.1411L72.877 23.1411L72.877 23.6411L72.877 24.1411L75.4473 24.1411L75.4473 23.6411ZM72.877 23.6411L73.377 23.6411L73.377 21.6099L72.877 21.6099L72.377 21.6099L72.377 23.6411L72.877 23.6411ZM72.877 21.6099L72.877 22.1099L83.502 22.1099L83.502 21.6099L83.502 21.1099L72.877 21.1099L72.877 21.6099ZM83.502 21.6099L83.002 21.6099L83.002 23.6411L83.502 23.6411L84.002 23.6411L84.002 21.6099L83.502 21.6099ZM83.502 23.6411L83.502 23.1411L77.9941 23.1411L77.9941 23.6411L77.9941 24.1411L83.502 24.1411L83.502 23.6411ZM77.9941 23.6411L77.5607 23.3919C76.9734 24.4132 76.3173 25.3885 75.5921 26.3179L75.9863 26.6255L76.3805 26.9331C77.1345 25.9667 77.8169 24.9524 78.4276 23.8903L77.9941 23.6411ZM75.9863 26.6255L76.004 27.1252C77.042 27.0885 78.3728 27.0178 79.995 26.9135L79.9629 26.4146L79.9308 25.9156C78.3134 26.0196 76.9932 26.0896 75.9687 26.1258L75.9863 26.6255ZM79.9629 26.4146L80.3892 26.1534C80.0321 25.5703 79.6721 25.0053 79.3092 24.4584L78.8926 24.7349L78.4759 25.0113C78.8318 25.5477 79.1854 26.1025 79.5365 26.6757L79.9629 26.4146ZM78.8926 24.7349L79.1385 25.1702L80.826 24.2171L80.5801 23.7817L80.3342 23.3464L78.6467 24.2995L78.8926 24.7349ZM83.7832 29.9224L83.3103 29.7599L82.6072 31.8068L83.0801 31.9692L83.553 32.1317L84.2561 30.0848L83.7832 29.9224ZM83.0801 31.9692L83.0766 31.4693C80.1071 31.4901 77.7828 31.4809 76.1014 31.442C75.2604 31.4226 74.5842 31.3958 74.0705 31.3619C73.5452 31.3273 73.2216 31.2871 73.0656 31.2491L72.9473 31.7349L72.8289 32.2207C73.0792 32.2816 73.4824 32.3253 74.0047 32.3598C74.5385 32.3949 75.2305 32.4222 76.0783 32.4418C77.7745 32.481 80.1104 32.4901 83.0836 32.4692L83.0801 31.9692ZM72.9473 31.7349L73.0627 31.2484C72.362 31.0822 71.803 30.7195 71.3681 30.1501L70.9707 30.4536L70.5733 30.7571C71.1489 31.5106 71.9075 32.0021 72.8319 32.2214L72.9473 31.7349ZM70.9707 30.4536L70.626 30.0914C69.9722 30.7136 69.3343 31.362 68.7125 32.0366L69.0801 32.3755L69.4477 32.7144C70.055 32.0556 70.6776 31.4228 71.3154 30.8158L70.9707 30.4536ZM69.0801 32.3755L69.5507 32.2066L68.6757 29.7691L68.2051 29.938L67.7345 30.1069L68.6095 32.5444L69.0801 32.3755ZM68.2051 29.938L68.5424 30.3071C69.0167 29.8735 69.5224 29.447 70.0597 29.0274L69.752 28.6333L69.4442 28.2392C68.8877 28.6738 68.3622 29.117 67.8678 29.5689L68.2051 29.938ZM69.752 28.6333L70.252 28.6333L70.252 24.313L69.752 24.313L69.252 24.313L69.252 28.6333L69.752 28.6333ZM69.752 24.313L69.752 23.813L68.3301 23.813L68.3301 24.313L68.3301 24.813L69.752 24.813L69.752 24.313ZM68.3301 24.313L68.8301 24.313L68.8301 22.2505L68.3301 22.2505L67.8301 22.2505L67.8301 24.313L68.3301 24.313ZM68.3301 22.2505L68.3301 22.7505L71.9082 22.7505L71.9082 22.2505L71.9082 21.7505L68.3301 21.7505L68.3301 22.2505ZM71.9082 22.2505L71.4082 22.2505L71.4082 28.6099L71.9082 28.6099L72.4082 28.6099L72.4082 22.2505L71.9082 22.2505ZM71.9082 28.6099L71.5237 28.9295C71.8946 29.3757 72.3198 29.7297 72.8008 29.9822L73.0332 29.5396L73.2656 29.0969C72.9133 28.9119 72.5885 28.6461 72.2927 28.2903L71.9082 28.6099ZM73.0332 29.5396L72.803 29.9834C73.2758 30.2286 73.7688 30.383 74.2801 30.4425L74.3379 29.9458L74.3956 29.4491C74.0111 29.4044 73.6344 29.288 73.2634 29.0957L73.0332 29.5396ZM74.3379 29.9458L74.2808 30.4425C74.7687 30.4986 75.7629 30.5213 77.2303 30.5161L77.2285 30.0161L77.2267 29.5161C75.7462 29.5213 74.8134 29.4972 74.395 29.4491L74.3379 29.9458ZM77.2285 30.0161L77.2285 30.5161C78.859 30.5161 81.0482 30.4848 83.7946 30.4222L83.7832 29.9224L83.7718 29.4225C81.0286 29.485 78.848 29.5161 77.2285 29.5161L77.2285 30.0161ZM86.0332 24.5005L85.5484 24.3782L85.3914 25.0005L86.0332 25.0005L86.0332 24.5005ZM86.877 24.5005L86.877 25.0005L87.377 25.0005L87.377 24.5005L86.877 24.5005ZM86.877 21.7505L86.877 21.2505L86.377 21.2505L86.377 21.7505L86.877 21.7505ZM88.6895 21.7505L89.1895 21.7505L89.1895 21.2505L88.6895 21.2505L88.6895 21.7505ZM88.6895 24.5005L88.1895 24.5005L88.1895 25.0005L88.6895 25.0005L88.6895 24.5005ZM89.502 24.5005L90.002 24.5005L90.002 24.0005L89.502 24.0005L89.502 24.5005ZM89.502 26.3442L89.502 26.8442L90.002 26.8442L90.002 26.3442L89.502 26.3442ZM88.6895 26.3442L88.6895 25.8442L88.1895 25.8442L88.1895 26.3442L88.6895 26.3442ZM88.6895 27.6099L88.1895 27.6099L88.1895 28.1469L88.7251 28.1086L88.6895 27.6099ZM89.5957 27.5317L90.0954 27.5479L90.1138 26.9774L89.546 27.0342L89.5957 27.5317ZM89.5957 29.4224L89.6341 29.9209L90.1116 29.8842L90.0954 29.4054L89.5957 29.4224ZM88.6895 29.5005L88.6428 29.0027L88.1895 29.0452L88.1895 29.5005L88.6895 29.5005ZM88.6895 32.4067L88.6895 32.9067L89.1895 32.9067L89.1895 32.4067L88.6895 32.4067ZM86.877 32.4067L86.377 32.4067L86.377 32.9067L86.877 32.9067L86.877 32.4067ZM86.877 29.6411L87.377 29.6411L87.377 29.0977L86.8354 29.1428L86.877 29.6411ZM84.3145 29.8599L83.8146 29.8718L83.8273 30.4041L84.3578 30.358L84.3145 29.8599ZM84.2676 27.8911L84.2373 27.392L83.7562 27.4212L83.7677 27.903L84.2676 27.8911ZM86.877 27.7349L86.9066 28.234L87.377 28.206L87.377 27.7349L86.877 27.7349ZM86.877 26.3442L87.377 26.3442L87.377 25.8442L86.877 25.8442L86.877 26.3442ZM84.377 26.3442L83.877 26.3442L83.877 26.8442L84.377 26.8442L84.377 26.3442ZM84.377 24.2036L83.8937 24.0754L83.877 24.1384L83.877 24.2036L84.377 24.2036ZM85.1426 20.813L85.6335 20.9079L85.7485 20.313L85.1426 20.313L85.1426 20.813ZM84.2676 20.813L83.7676 20.813L83.7676 21.313L84.2676 21.313L84.2676 20.813ZM84.2676 18.9692L84.2676 18.4692L83.7676 18.4692L83.7676 18.9692L84.2676 18.9692ZM85.4863 18.9692L85.4863 19.4692L85.911 19.4692L85.9797 19.0501L85.4863 18.9692ZM85.7988 16.9692L85.8372 16.4707L85.373 16.435L85.3043 16.8954L85.7988 16.9692ZM87.627 17.1099L88.1178 17.2049L88.2244 16.6543L87.6653 16.6113L87.627 17.1099ZM87.2676 18.9692L86.7766 18.8745L86.6619 19.4692L87.2676 19.4692L87.2676 18.9692ZM89.9082 18.9692L90.4082 18.9692L90.4082 18.4692L89.9082 18.4692L89.9082 18.9692ZM89.9082 20.7192L89.4082 20.7192L89.4082 21.611L90.169 21.1458L89.9082 20.7192ZM93.5645 17.0942L93.5645 16.5942L93.273 16.5942L93.1294 16.8479L93.5645 17.0942ZM96.1113 17.0942L96.5142 17.3904L97.0996 16.5942L96.1113 16.5942L96.1113 17.0942ZM95.7207 17.6255L95.3179 17.3293L95.0996 17.6261L95.3184 17.9225L95.7207 17.6255ZM99.8457 21.1567L100.24 21.4644L100.616 20.9828L100.069 20.7095L99.8457 21.1567ZM98.6582 22.8442L98.4154 23.2813L98.8213 23.5068L99.0761 23.1187L98.6582 22.8442ZM97.0801 21.7817L97.3944 21.3929L96.5801 20.7345L96.5801 21.7817L97.0801 21.7817ZM97.0801 22.313L97.0801 22.813L97.5801 22.813L97.5801 22.313L97.0801 22.313ZM91.6582 22.313L91.1582 22.313L91.1582 22.813L91.6582 22.813L91.6582 22.313ZM91.6582 21.9067L92.1582 21.9067L92.1582 20.8962L91.3549 21.5093L91.6582 21.9067ZM90.3926 22.7974L89.9748 23.0721L90.2483 23.488L90.6654 23.2164L90.3926 22.7974ZM89.1895 21.1255L88.9658 20.6783L88.3945 20.9639L88.809 21.45L89.1895 21.1255ZM89.7363 20.813L90.008 21.2328L91.4294 20.313L89.7363 20.313L89.7363 20.813ZM86.877 20.813L86.877 20.313L86.4708 20.313L86.3876 20.7106L86.877 20.813ZM91.6895 32.3911L91.6895 32.8911L92.1895 32.8911L92.1895 32.3911L91.6895 32.3911ZM90.0332 32.3911L89.5332 32.3911L89.5332 32.8911L90.0332 32.8911L90.0332 32.3911ZM90.0332 23.0005L90.0332 22.5005L89.5332 22.5005L89.5332 23.0005L90.0332 23.0005ZM94.7363 23.0005L95.2363 23.0005L95.2363 22.5005L94.7363 22.5005L94.7363 23.0005ZM92.1426 32.2349L91.6466 32.2984L91.7013 32.7252L92.1315 32.7347L92.1426 32.2349ZM91.877 30.5161L91.9102 30.0172L91.2784 29.9751L91.3839 30.5994L91.877 30.5161ZM92.752 30.5317L92.752 30.0317L92.7423 30.0317L92.7327 30.0321L92.752 30.5317ZM93.0801 29.313L93.5801 29.313L93.5801 28.813L93.0801 28.813L93.0801 29.313ZM91.6895 29.313L91.6895 28.813L91.1895 28.813L91.1895 29.313L91.6895 29.313ZM97.2363 23.1255L97.2363 22.6255L96.7363 22.6255L96.7363 23.1255L97.2363 23.1255ZM99.002 23.1255L99.502 23.1255L99.502 22.6255L99.002 22.6255L99.002 23.1255ZM95.6426 32.2192L95.1477 32.291L95.2038 32.6779L95.5928 32.7168L95.6426 32.2192ZM95.3301 30.3286L95.3753 29.8307L94.7136 29.7705L94.8391 30.423L95.3301 30.3286ZM96.6582 30.4067L96.646 30.9067L96.6582 30.9067L96.6582 30.4067ZM95.1895 23.688L95.1895 23.188L94.6895 23.188L94.6895 23.688L95.1895 23.688ZM96.5801 23.688L97.0801 23.688L97.0801 23.188L96.5801 23.188L96.5801 23.688ZM96.5801 29.313L96.5801 29.813L97.0801 29.813L97.0801 29.313L96.5801 29.313ZM95.1895 29.313L94.6895 29.313L94.6895 29.813L95.1895 29.813L95.1895 29.313ZM94.4707 19.1411L94.8542 18.8203L94.4699 18.361L94.0866 18.821L94.4707 19.1411ZM93.127 20.6255L92.7734 20.2719L91.9198 21.1255L93.127 21.1255L93.127 20.6255ZM95.7988 20.6255L95.7988 21.1255L96.969 21.1255L96.1601 20.2799L95.7988 20.6255ZM93.0801 24.4692L93.5801 24.4692L93.5801 23.9692L93.0801 23.9692L93.0801 24.4692ZM91.6895 24.4692L91.6895 23.9692L91.1895 23.9692L91.1895 24.4692L91.6895 24.4692ZM91.6895 25.3599L91.1895 25.3599L91.1895 25.8599L91.6895 25.8599L91.6895 25.3599ZM93.0801 25.3599L93.0801 25.8599L93.5801 25.8599L93.5801 25.3599L93.0801 25.3599ZM91.6895 27.7505L91.1895 27.7505L91.1895 28.2505L91.6895 28.2505L91.6895 27.7505ZM93.0801 27.7505L93.0801 28.2505L93.5801 28.2505L93.5801 27.7505L93.0801 27.7505ZM93.0801 26.8599L93.5801 26.8599L93.5801 26.3599L93.0801 26.3599L93.0801 26.8599ZM91.6895 26.8599L91.6895 26.3599L91.1895 26.3599L91.1895 26.8599L91.6895 26.8599ZM86.0332 24.5005L86.0332 25.0005L86.877 25.0005L86.877 24.5005L86.877 24.0005L86.0332 24.0005L86.0332 24.5005ZM86.877 24.5005L87.377 24.5005L87.377 21.7505L86.877 21.7505L86.377 21.7505L86.377 24.5005L86.877 24.5005ZM86.877 21.7505L86.877 22.2505L88.6895 22.2505L88.6895 21.7505L88.6895 21.2505L86.877 21.2505L86.877 21.7505ZM88.6895 21.7505L88.1895 21.7505L88.1895 24.5005L88.6895 24.5005L89.1895 24.5005L89.1895 21.7505L88.6895 21.7505ZM88.6895 24.5005L88.6895 25.0005L89.502 25.0005L89.502 24.5005L89.502 24.0005L88.6895 24.0005L88.6895 24.5005ZM89.502 24.5005L89.002 24.5005L89.002 26.3442L89.502 26.3442L90.002 26.3442L90.002 24.5005L89.502 24.5005ZM89.502 26.3442L89.502 25.8442L88.6895 25.8442L88.6895 26.3442L88.6895 26.8442L89.502 26.8442L89.502 26.3442ZM88.6895 26.3442L88.1895 26.3442L88.1895 27.6099L88.6895 27.6099L89.1895 27.6099L89.1895 26.3442L88.6895 26.3442ZM88.6895 27.6099L88.7251 28.1086C89.0218 28.0874 89.3286 28.0609 89.6455 28.0293L89.5957 27.5317L89.546 27.0342C89.2378 27.065 88.9405 27.0907 88.6538 27.1111L88.6895 27.6099ZM89.5957 27.5317L89.096 27.5156C89.0748 28.1719 89.0748 28.8132 89.096 29.4393L89.5957 29.4224L90.0954 29.4054C90.075 28.8024 90.0749 28.1832 90.0954 27.5479L89.5957 27.5317ZM89.5957 29.4224L89.5574 28.9238C89.2832 28.9449 88.9783 28.9712 88.6428 29.0027L88.6895 29.5005L88.7361 29.9983C89.0673 29.9673 89.3665 29.9415 89.6341 29.9209L89.5957 29.4224ZM88.6895 29.5005L88.1895 29.5005L88.1895 32.4067L88.6895 32.4067L89.1895 32.4067L89.1895 29.5005L88.6895 29.5005ZM88.6895 32.4067L88.6895 31.9067L86.877 31.9067L86.877 32.4067L86.877 32.9067L88.6895 32.9067L88.6895 32.4067ZM86.877 32.4067L87.377 32.4067L87.377 29.6411L86.877 29.6411L86.377 29.6411L86.377 32.4067L86.877 32.4067ZM86.877 29.6411L86.8354 29.1428C86.0847 29.2054 85.2299 29.2784 84.2711 29.3617L84.3145 29.8599L84.3578 30.358C85.3157 30.2747 86.1692 30.2018 86.9185 30.1394L86.877 29.6411ZM84.3145 29.8599L84.8143 29.848L84.7674 27.8792L84.2676 27.8911L83.7677 27.903L83.8146 29.8718L84.3145 29.8599ZM84.2676 27.8911L84.2978 28.3902C84.9851 28.3485 85.8546 28.2965 86.9066 28.234L86.877 27.7349L86.8473 27.2357C85.7951 27.2982 84.9251 27.3503 84.2373 27.392L84.2676 27.8911ZM86.877 27.7349L87.377 27.7349L87.377 26.3442L86.877 26.3442L86.377 26.3442L86.377 27.7349L86.877 27.7349ZM86.877 26.3442L86.877 25.8442L84.377 25.8442L84.377 26.3442L84.377 26.8442L86.877 26.8442L86.877 26.3442ZM84.377 26.3442L84.877 26.3442L84.877 24.2036L84.377 24.2036L83.877 24.2036L83.877 26.3442L84.377 26.3442ZM84.377 24.2036L84.8602 24.3318C85.1345 23.2981 85.3921 22.1566 85.6335 20.9079L85.1426 20.813L84.6517 20.7181C84.4138 21.9486 84.1611 23.0675 83.8937 24.0754L84.377 24.2036ZM85.1426 20.813L85.1426 20.313L84.2676 20.313L84.2676 20.813L84.2676 21.313L85.1426 21.313L85.1426 20.813ZM84.2676 20.813L84.7676 20.813L84.7676 18.9692L84.2676 18.9692L83.7676 18.9692L83.7676 20.813L84.2676 20.813ZM84.2676 18.9692L84.2676 19.4692L85.4863 19.4692L85.4863 18.9692L85.4863 18.4692L84.2676 18.4692L84.2676 18.9692ZM85.4863 18.9692L85.9797 19.0501C86.0843 18.4121 86.1889 17.7431 86.2934 17.043L85.7988 16.9692L85.3043 16.8954C85.2005 17.5912 85.0967 18.2555 84.9929 18.8884L85.4863 18.9692ZM85.7988 16.9692L85.7605 17.4678L87.5886 17.6084L87.627 17.1099L87.6653 16.6113L85.8372 16.4707L85.7988 16.9692ZM87.627 17.1099L87.1361 17.0149C87.011 17.6608 86.8912 18.2806 86.7766 18.8745L87.2676 18.9692L87.7585 19.064C87.8731 18.4703 87.9929 17.8506 88.1178 17.2049L87.627 17.1099ZM87.2676 18.9692L87.2676 19.4692L89.9082 19.4692L89.9082 18.9692L89.9082 18.4692L87.2676 18.4692L87.2676 18.9692ZM89.9082 18.9692L89.4082 18.9692L89.4082 20.7192L89.9082 20.7192L90.4082 20.7192L90.4082 18.9692L89.9082 18.9692ZM89.9082 20.7192L90.169 21.1458C91.864 20.1094 93.1488 18.8433 93.9996 17.3406L93.5645 17.0942L93.1294 16.8479C92.376 18.1785 91.2232 19.3291 89.6474 20.2927L89.9082 20.7192ZM93.5645 17.0942L93.5645 17.5942L96.1113 17.5942L96.1113 17.0942L96.1113 16.5942L93.5645 16.5942L93.5645 17.0942ZM96.1113 17.0942L95.7085 16.798L95.3179 17.3293L95.7207 17.6255L96.1235 17.9217L96.5142 17.3904L96.1113 17.0942ZM95.7207 17.6255L95.3184 17.9225C96.5075 19.5331 97.9421 20.7639 99.6221 21.604L99.8457 21.1567L100.069 20.7095C98.541 19.9454 97.2256 18.822 96.123 17.3285L95.7207 17.6255ZM99.8457 21.1567L99.4515 20.8491C99.1066 21.291 98.7025 21.8658 98.2403 22.5698L98.6582 22.8442L99.0761 23.1187C99.5305 22.4268 99.9181 21.8766 100.24 21.4644L99.8457 21.1567ZM98.6582 22.8442L98.901 22.4072C98.3632 22.1083 97.8611 21.7702 97.3944 21.3929L97.0801 21.7817L96.7657 22.1706C97.2782 22.5849 97.8282 22.9551 98.4154 23.2813L98.6582 22.8442ZM97.0801 21.7817L96.5801 21.7817L96.5801 22.313L97.0801 22.313L97.5801 22.313L97.5801 21.7817L97.0801 21.7817ZM97.0801 22.313L97.0801 21.813L91.6582 21.813L91.6582 22.313L91.6582 22.813L97.0801 22.813L97.0801 22.313ZM91.6582 22.313L92.1582 22.313L92.1582 21.9067L91.6582 21.9067L91.1582 21.9067L91.1582 22.313L91.6582 22.313ZM91.6582 21.9067L91.3549 21.5093C90.9696 21.8033 90.558 22.093 90.1197 22.3784L90.3926 22.7974L90.6654 23.2164C91.123 22.9184 91.5551 22.6144 91.9615 22.3042L91.6582 21.9067ZM90.3926 22.7974L90.8104 22.5227C90.3075 21.758 89.8928 21.1796 89.5699 20.801L89.1895 21.1255L88.809 21.45C89.0903 21.7797 89.4776 22.3159 89.9748 23.0721L90.3926 22.7974ZM89.1895 21.1255L89.4131 21.5727C89.6172 21.4707 89.8155 21.3573 90.008 21.2328L89.7363 20.813L89.4647 20.3932C89.303 20.4978 89.1367 20.5928 88.9658 20.6783L89.1895 21.1255ZM89.7363 20.813L89.7363 20.313L86.877 20.313L86.877 20.813L86.877 21.313L89.7363 21.313L89.7363 20.813ZM86.877 20.813L86.3876 20.7106C86.1074 22.0489 85.8277 23.2713 85.5484 24.3782L86.0332 24.5005L86.518 24.6228C86.8012 23.5005 87.084 22.2646 87.3663 20.9154L86.877 20.813ZM91.6895 32.3911L91.6895 31.8911L90.0332 31.8911L90.0332 32.3911L90.0332 32.8911L91.6895 32.8911L91.6895 32.3911ZM90.0332 32.3911L90.5332 32.3911L90.5332 23.0005L90.0332 23.0005L89.5332 23.0005L89.5332 32.3911L90.0332 32.3911ZM90.0332 23.0005L90.0332 23.5005L94.7363 23.5005L94.7363 23.0005L94.7363 22.5005L90.0332 22.5005L90.0332 23.0005ZM94.7363 23.0005L94.2363 23.0005L94.2363 30.7505L94.7363 30.7505L95.2363 30.7505L95.2363 23.0005L94.7363 23.0005ZM94.7363 30.7505L94.2363 30.7505C94.2363 31.176 94.1322 31.4028 94.0119 31.5257C93.8935 31.6466 93.6774 31.7505 93.2676 31.7505L93.2676 32.2505L93.2676 32.7505C93.8369 32.7505 94.3552 32.6044 94.7264 32.2253C95.0957 31.8481 95.2363 31.3249 95.2363 30.7505L94.7363 30.7505ZM93.2676 32.2505L93.2676 31.7505C92.9917 31.7505 92.6208 31.7454 92.1537 31.735L92.1426 32.2349L92.1315 32.7347C92.6018 32.7452 92.981 32.7505 93.2676 32.7505L93.2676 32.2505ZM92.1426 32.2349L92.6385 32.1713C92.5852 31.7551 92.4953 31.1745 92.37 30.4328L91.877 30.5161L91.3839 30.5994C91.5086 31.3369 91.5958 31.9021 91.6466 32.2984L92.1426 32.2349ZM91.877 30.5161L91.8437 31.015C92.171 31.0368 92.4804 31.0426 92.7712 31.0314L92.752 30.5317L92.7327 30.0321C92.4818 30.0418 92.2079 30.0371 91.9102 30.0172L91.877 30.5161ZM92.752 30.5317L92.752 31.0317C92.9384 31.0317 93.1701 30.9848 93.3516 30.8033C93.5331 30.6217 93.5801 30.3901 93.5801 30.2036L93.0801 30.2036L92.5801 30.2036C92.5801 30.2359 92.5723 30.1683 92.6445 30.0962C92.7166 30.024 92.7843 30.0317 92.752 30.0317L92.752 30.5317ZM93.0801 30.2036L93.5801 30.2036L93.5801 29.313L93.0801 29.313L92.5801 29.313L92.5801 30.2036L93.0801 30.2036ZM93.0801 29.313L93.0801 28.813L91.6895 28.813L91.6895 29.313L91.6895 29.813L93.0801 29.813L93.0801 29.313ZM91.6895 29.313L91.1895 29.313L91.1895 32.3911L91.6895 32.3911L92.1895 32.3911L92.1895 29.313L91.6895 29.313ZM97.2363 23.1255L97.2363 23.6255L99.002 23.6255L99.002 23.1255L99.002 22.6255L97.2363 22.6255L97.2363 23.1255ZM99.002 23.1255L98.502 23.1255L98.502 30.2192L99.002 30.2192L99.502 30.2192L99.502 23.1255L99.002 23.1255ZM99.002 30.2192L98.502 30.2192C98.502 30.8446 98.377 31.2214 98.2101 31.434C98.0614 31.6236 97.8257 31.7505 97.4082 31.7505L97.4082 32.2505L97.4082 32.7505C98.0532 32.7505 98.6144 32.5389 98.9969 32.0513C99.3613 31.5869 99.502 30.9481 99.502 30.2192L99.002 30.2192ZM97.4082 32.2505L97.4082 31.7505C96.4277 31.7505 95.8697 31.7395 95.6923 31.7217L95.6426 32.2192L95.5928 32.7168C95.8322 32.7407 96.4512 32.7505 97.4082 32.7505L97.4082 32.2505ZM95.6426 32.2192L96.1374 32.1475C96.0325 31.4234 95.9271 30.7853 95.8211 30.2342L95.3301 30.3286L94.8391 30.423C94.9414 30.9552 95.0444 31.5776 95.1477 32.291L95.6426 32.2192ZM95.3301 30.3286L95.2848 30.8266C95.7533 30.8692 96.2071 30.8959 96.646 30.9066L96.6582 30.4067L96.6704 29.9069C96.2552 29.8968 95.8235 29.8714 95.3753 29.8307L95.3301 30.3286ZM96.6582 30.4067L96.6582 30.9067C97.0062 30.9067 97.3171 30.7566 97.5133 30.4491C97.6851 30.1797 97.7363 29.8396 97.7363 29.5005L97.2363 29.5005L96.7363 29.5005C96.7363 29.7655 96.6912 29.8785 96.6703 29.9113C96.6643 29.9206 96.6669 29.9136 96.6796 29.9069C96.6907 29.9011 96.6885 29.9067 96.6582 29.9067L96.6582 30.4067ZM97.2363 29.5005L97.7363 29.5005L97.7363 23.1255L97.2363 23.1255L96.7363 23.1255L96.7363 29.5005L97.2363 29.5005ZM95.1895 23.688L95.1895 24.188L96.5801 24.188L96.5801 23.688L96.5801 23.188L95.1895 23.188L95.1895 23.688ZM96.5801 23.688L96.0801 23.688L96.0801 29.313L96.5801 29.313L97.0801 29.313L97.0801 23.688L96.5801 23.688ZM96.5801 29.313L96.5801 28.813L95.1895 28.813L95.1895 29.313L95.1895 29.813L96.5801 29.813L96.5801 29.313ZM95.1895 29.313L95.6895 29.313L95.6895 23.688L95.1895 23.688L94.6895 23.688L94.6895 29.313L95.1895 29.313ZM94.4707 19.1411L94.0866 18.821C93.6256 19.3743 93.1878 19.8575 92.7734 20.2719L93.127 20.6255L93.4805 20.979C93.9202 20.5393 94.3783 20.033 94.8548 19.4612L94.4707 19.1411ZM93.127 20.6255L93.127 21.1255L95.7988 21.1255L95.7988 20.6255L95.7988 20.1255L93.127 20.1255L93.127 20.6255ZM95.7988 20.6255L96.1601 20.2799C95.7095 19.8087 95.2742 19.3222 94.8542 18.8203L94.4707 19.1411L94.0872 19.462C94.5214 19.9809 94.9715 20.4839 95.4375 20.9711L95.7988 20.6255ZM93.0801 24.4692L93.0801 23.9692L91.6895 23.9692L91.6895 24.4692L91.6895 24.9692L93.0801 24.9692L93.0801 24.4692ZM91.6895 24.4692L91.1895 24.4692L91.1895 25.3599L91.6895 25.3599L92.1895 25.3599L92.1895 24.4692L91.6895 24.4692ZM91.6895 25.3599L91.6895 25.8599L93.0801 25.8599L93.0801 25.3599L93.0801 24.8599L91.6895 24.8599L91.6895 25.3599ZM93.0801 25.3599L93.5801 25.3599L93.5801 24.4692L93.0801 24.4692L92.5801 24.4692L92.5801 25.3599L93.0801 25.3599ZM91.6895 27.7505L91.6895 28.2505L93.0801 28.2505L93.0801 27.7505L93.0801 27.2505L91.6895 27.2505L91.6895 27.7505ZM93.0801 27.7505L93.5801 27.7505L93.5801 26.8599L93.0801 26.8599L92.5801 26.8599L92.5801 27.7505L93.0801 27.7505ZM93.0801 26.8599L93.0801 26.3599L91.6895 26.3599L91.6895 26.8599L91.6895 27.3599L93.0801 27.3599L93.0801 26.8599ZM91.6895 26.8599L91.1895 26.8599L91.1895 27.7505L91.6895 27.7505L92.1895 27.7505L92.1895 26.8599L91.6895 26.8599ZM102.955 16.938L103.098 16.4589L102.594 16.3085L102.469 16.8192L102.955 16.938ZM105.049 17.563L105.531 17.6963L105.661 17.224L105.192 17.0839L105.049 17.563ZM103.814 21.2974L103.349 21.1152L103.314 21.2031L103.314 21.2974L103.814 21.2974ZM103.814 32.3755L103.814 32.8755L104.314 32.8755L104.314 32.3755L103.814 32.3755ZM101.846 32.3755L101.346 32.3755L101.346 32.8755L101.846 32.8755L101.846 32.3755ZM101.846 25.4224L102.346 25.4224L102.346 23.5709L101.414 25.1707L101.846 25.4224ZM100.752 27.1411L100.255 27.1975L100.405 28.5165L101.162 27.4265L100.752 27.1411ZM100.236 24.1724L99.8038 23.9215L99.7039 24.0937L99.7498 24.2875L100.236 24.1724ZM105.408 17.5942L105.408 17.0942L104.908 17.0942L104.908 17.5942L105.408 17.5942ZM114.564 17.5942L115.064 17.5942L115.064 17.0942L114.564 17.0942L114.564 17.5942ZM114.564 23.438L114.564 23.938L115.064 23.938L115.064 23.438L114.564 23.438ZM111.033 23.438L111.033 22.938L110.533 22.938L110.533 23.438L111.033 23.438ZM111.033 24.8442L110.533 24.8442L110.533 25.3442L111.033 25.3442L111.033 24.8442ZM115.596 24.8442L116.096 24.8442L116.096 24.3442L115.596 24.3442L115.596 24.8442ZM115.596 26.6255L115.596 27.1255L116.096 27.1255L116.096 26.6255L115.596 26.6255ZM112.01 26.6255L112.01 26.1255L111.018 26.1255L111.608 26.9228L112.01 26.6255ZM115.783 29.4536L116.207 29.7186L116.51 29.2343L115.99 28.9983L115.783 29.4536ZM114.549 31.4849L114.283 31.9081L114.721 32.184L114.981 31.7357L114.549 31.4849ZM111.033 27.8989L111.466 27.6493L110.533 26.0294L110.533 27.8989L111.033 27.8989ZM111.033 32.3755L111.033 32.8755L111.533 32.8755L111.533 32.3755L111.033 32.3755ZM108.814 32.3755L108.314 32.3755L108.314 32.8755L108.814 32.8755L108.814 32.3755ZM108.814 28.0005L109.314 28.0005L109.314 26.4293L108.406 27.7115L108.814 28.0005ZM105.143 31.6724L104.703 31.9107L104.97 32.4025L105.429 32.0825L105.143 31.6724ZM103.955 29.7974L103.706 29.364L103.225 29.6405L103.55 30.0899L103.955 29.7974ZM107.666 26.6255L108.053 26.9416L108.719 26.1255L107.666 26.1255L107.666 26.6255ZM104.393 26.6255L103.893 26.6255L103.893 27.1255L104.393 27.1255L104.393 26.6255ZM104.393 24.8442L104.393 24.3442L103.893 24.3442L103.893 24.8442L104.393 24.8442ZM108.814 24.8442L108.814 25.3442L109.314 25.3442L109.314 24.8442L108.814 24.8442ZM108.814 23.438L109.314 23.438L109.314 22.938L108.814 22.938L108.814 23.438ZM105.408 23.438L104.908 23.438L104.908 23.938L105.408 23.938L105.408 23.438ZM112.486 19.4536L112.986 19.4536L112.986 18.9536L112.486 18.9536L112.486 19.4536ZM107.486 19.4536L107.486 18.9536L106.986 18.9536L106.986 19.4536L107.486 19.4536ZM107.486 21.5786L106.986 21.5786L106.986 22.0786L107.486 22.0786L107.486 21.5786ZM112.486 21.5786L112.486 22.0786L112.986 22.0786L112.986 21.5786L112.486 21.5786ZM102.955 16.938L102.812 17.4171L104.906 18.0421L105.049 17.563L105.192 17.0839L103.098 16.4589L102.955 16.938ZM105.049 17.563L104.567 17.4297C104.207 18.7322 103.8 19.9606 103.349 21.1152L103.814 21.2974L104.28 21.4795C104.745 20.2903 105.162 19.0292 105.531 17.6963L105.049 17.563ZM103.814 21.2974L103.314 21.2974L103.314 32.3755L103.814 32.3755L104.314 32.3755L104.314 21.2974L103.814 21.2974ZM103.814 32.3755L103.814 31.8755L101.846 31.8755L101.846 32.3755L101.846 32.8755L103.814 32.8755L103.814 32.3755ZM101.846 32.3755L102.346 32.3755L102.346 25.4224L101.846 25.4224L101.346 25.4224L101.346 32.3755L101.846 32.3755ZM101.846 25.4224L101.414 25.1707C101.071 25.7586 100.714 26.3202 100.341 26.8557L100.752 27.1411L101.162 27.4265C101.551 26.8683 101.922 26.2841 102.278 25.6741L101.846 25.4224ZM100.752 27.1411L101.249 27.0848C101.132 26.055 100.957 25.0458 100.723 24.0573L100.236 24.1724L99.7498 24.2875C99.9742 25.2364 100.143 26.2064 100.255 27.1975L100.752 27.1411ZM100.236 24.1724L100.669 24.4233C101.794 22.4841 102.715 20.0242 103.441 17.0568L102.955 16.938L102.469 16.8192C101.758 19.7268 100.866 22.0898 99.8038 23.9215L100.236 24.1724ZM105.408 17.5942L105.408 18.0942L114.564 18.0942L114.564 17.5942L114.564 17.0942L105.408 17.0942L105.408 17.5942ZM114.564 17.5942L114.064 17.5942L114.064 23.438L114.564 23.438L115.064 23.438L115.064 17.5942L114.564 17.5942ZM114.564 23.438L114.564 22.938L111.033 22.938L111.033 23.438L111.033 23.938L114.564 23.938L114.564 23.438ZM111.033 23.438L110.533 23.438L110.533 24.8442L111.033 24.8442L111.533 24.8442L111.533 23.438L111.033 23.438ZM111.033 24.8442L111.033 25.3442L115.596 25.3442L115.596 24.8442L115.596 24.3442L111.033 24.3442L111.033 24.8442ZM115.596 24.8442L115.096 24.8442L115.096 26.6255L115.596 26.6255L116.096 26.6255L116.096 24.8442L115.596 24.8442ZM115.596 26.6255L115.596 26.1255L112.01 26.1255L112.01 26.6255L112.01 27.1255L115.596 27.1255L115.596 26.6255ZM112.01 26.6255L111.608 26.9228C112.501 28.13 113.836 29.1194 115.577 29.9089L115.783 29.4536L115.99 28.9983C114.355 28.2566 113.175 27.3606 112.412 26.3282L112.01 26.6255ZM115.783 29.4536L115.359 29.1886C114.837 30.0241 114.422 30.7064 114.116 31.234L114.549 31.4849L114.981 31.7357C115.279 31.2217 115.688 30.5498 116.207 29.7186L115.783 29.4536ZM114.549 31.4849L114.815 31.0616C113.363 30.1484 112.251 29.0107 111.466 27.6493L111.033 27.8989L110.6 28.1485C111.472 29.6622 112.704 30.9151 114.283 31.9081L114.549 31.4849ZM111.033 27.8989L110.533 27.8989L110.533 32.3755L111.033 32.3755L111.533 32.3755L111.533 27.8989L111.033 27.8989ZM111.033 32.3755L111.033 31.8755L108.814 31.8755L108.814 32.3755L108.814 32.8755L111.033 32.8755L111.033 32.3755ZM108.814 32.3755L109.314 32.3755L109.314 28.0005L108.814 28.0005L108.314 28.0005L108.314 32.3755L108.814 32.3755ZM108.814 28.0005L108.406 27.7115C107.402 29.1299 106.219 30.3123 104.857 31.2623L105.143 31.6724L105.429 32.0825C106.889 31.0637 108.154 29.7981 109.222 28.2895L108.814 28.0005ZM105.143 31.6724L105.582 31.434C105.237 30.7986 104.83 30.1555 104.361 29.5049L103.955 29.7974L103.55 30.0899C103.997 30.71 104.381 31.317 104.703 31.9107L105.143 31.6724ZM103.955 29.7974L104.205 30.2307C105.67 29.3869 106.954 28.2893 108.053 26.9416L107.666 26.6255L107.279 26.3094C106.253 27.5658 105.063 28.5829 103.706 29.364L103.955 29.7974ZM107.666 26.6255L107.666 26.1255L104.393 26.1255L104.393 26.6255L104.393 27.1255L107.666 27.1255L107.666 26.6255ZM104.393 26.6255L104.893 26.6255L104.893 24.8442L104.393 24.8442L103.893 24.8442L103.893 26.6255L104.393 26.6255ZM104.393 24.8442L104.393 25.3442L108.814 25.3442L108.814 24.8442L108.814 24.3442L104.393 24.3442L104.393 24.8442ZM108.814 24.8442L109.314 24.8442L109.314 23.438L108.814 23.438L108.314 23.438L108.314 24.8442L108.814 24.8442ZM108.814 23.438L108.814 22.938L105.408 22.938L105.408 23.438L105.408 23.938L108.814 23.938L108.814 23.438ZM105.408 23.438L105.908 23.438L105.908 17.5942L105.408 17.5942L104.908 17.5942L104.908 23.438L105.408 23.438ZM112.486 19.4536L112.486 18.9536L107.486 18.9536L107.486 19.4536L107.486 19.9536L112.486 19.9536L112.486 19.4536ZM107.486 19.4536L106.986 19.4536L106.986 21.5786L107.486 21.5786L107.986 21.5786L107.986 19.4536L107.486 19.4536ZM107.486 21.5786L107.486 22.0786L112.486 22.0786L112.486 21.5786L112.486 21.0786L107.486 21.0786L107.486 21.5786ZM112.486 21.5786L112.986 21.5786L112.986 19.4536L112.486 19.4536L111.986 19.4536L111.986 21.5786L112.486 21.5786ZM131.283 19.5317L131.283 20.0317L131.783 20.0317L131.783 19.5317L131.283 19.5317ZM128.877 19.5317L128.877 19.0317L128.707 20.0021L128.877 19.5317ZM130.393 20.0786L130.774 20.4014L131.239 19.8523L130.562 19.6083L130.393 20.0786ZM129.666 20.938L129.284 20.6152L128.589 21.438L129.666 21.438L129.666 20.938ZM131.596 20.938L132.096 20.938L132.096 20.438L131.596 20.438L131.596 20.938ZM131.596 22.438L131.596 22.938L132.096 22.938L132.096 22.438L131.596 22.438ZM121.502 22.438L121.002 22.438L121.002 22.938L121.502 22.938L121.502 22.438ZM121.502 20.938L121.502 20.438L121.002 20.438L121.002 20.938L121.502 20.938ZM123.564 20.938L123.564 21.438L124.499 21.438L123.98 20.6606L123.564 20.938ZM122.877 20.0161L122.703 19.5474L122.025 19.7989L122.5 20.3442L122.877 20.0161ZM124.182 19.5317L124.356 20.0005L124.182 19.0317L124.182 19.5317ZM122.08 19.5317L121.58 19.5317L121.58 20.0317L122.08 20.0317L122.08 19.5317ZM122.08 18.0317L122.08 17.5317L121.58 17.5317L121.58 18.0317L122.08 18.0317ZM125.33 18.0317L125.33 18.5317L126.087 18.5317L125.79 17.8358L125.33 18.0317ZM124.955 17.2349L124.877 16.741L124.191 16.8498L124.512 17.4658L124.955 17.2349ZM127.221 16.8755L127.677 16.6703L127.52 16.3218L127.142 16.3817L127.221 16.8755ZM127.682 18.0317L127.212 18.2026L127.331 18.5317L127.682 18.5317L127.682 18.0317ZM131.283 18.0317L131.783 18.0317L131.783 17.5317L131.283 17.5317L131.283 18.0317ZM125.893 20.7349L126.06 21.2059L126.723 20.9698L126.282 20.4215L125.893 20.7349ZM125.322 20.938L125.155 20.467L125.322 21.438L125.322 20.938ZM127.377 20.938L127.377 21.438L127.63 21.438L127.779 21.2346L127.377 20.938ZM128.307 19.5317L128.74 19.7815L129.172 19.0317L128.307 19.0317L128.307 19.5317ZM124.908 19.5317L124.908 19.0317L123.836 19.0317L124.525 19.853L124.908 19.5317ZM116.861 17.6255L116.861 17.1255L116.361 17.1255L116.361 17.6255L116.861 17.6255ZM121.721 17.6255L122.221 17.6255L122.221 17.1255L121.721 17.1255L121.721 17.6255ZM121.721 19.4849L122.2 19.6285L122.221 19.5582L122.221 19.4849L121.721 19.4849ZM120.596 23.2349L120.117 23.0912L120.058 23.2868L120.153 23.4676L120.596 23.2349ZM120.666 29.2974L120.859 29.7585L120.863 29.7569L120.666 29.2974ZM118.908 29.4692L118.413 29.5366L118.47 29.9586L118.896 29.9691L118.908 29.4692ZM118.658 27.8052L119.152 27.7244L118.158 27.8052L118.658 27.8052ZM118.658 32.3442L118.658 32.8442L119.158 32.8442L119.158 32.3442L118.658 32.3442ZM116.861 32.3442L116.361 32.3442L116.361 32.8442L116.861 32.8442L116.861 32.3442ZM118.846 23.313L118.362 23.1871L118.302 23.4183L118.444 23.6103L118.846 23.313ZM119.846 19.4692L120.33 19.5951L120.492 18.9692L119.846 18.9692L119.846 19.4692ZM118.658 19.4692L118.658 18.9692L118.158 18.9692L118.158 19.4692L118.658 19.4692ZM118.658 27.5396L118.158 27.5396L118.158 27.992L118.608 28.0371L118.658 27.5396ZM122.096 23.0474L122.096 22.5474L121.596 22.5474L121.596 23.0474L122.096 23.0474ZM130.752 23.0474L131.252 23.0474L131.252 22.5474L130.752 22.5474L130.752 23.0474ZM130.752 28.3286L130.752 28.8286L131.252 28.8286L131.252 28.3286L130.752 28.3286ZM127.455 28.3286L127.455 27.8286L126.955 27.8286L126.955 28.3286L127.455 28.3286ZM127.455 29.0005L126.955 29.0005L126.955 29.5005L127.455 29.5005L127.455 29.0005ZM131.627 29.0005L132.127 29.0005L132.127 28.5005L131.627 28.5005L131.627 29.0005ZM131.627 30.6567L131.627 31.1567L132.127 31.1567L132.127 30.6567L131.627 30.6567ZM127.455 30.6567L127.455 30.1567L126.955 30.1567L126.955 30.6567L127.455 30.6567ZM127.455 32.3755L127.455 32.8755L127.955 32.8755L127.955 32.3755L127.455 32.3755ZM125.393 32.3755L124.893 32.3755L124.893 32.8755L125.393 32.8755L125.393 32.3755ZM125.393 30.6567L125.893 30.6567L125.893 30.1567L125.393 30.1567L125.393 30.6567ZM121.158 30.6567L120.658 30.6567L120.658 31.1567L121.158 31.1567L121.158 30.6567ZM121.158 29.0005L121.158 28.5005L120.658 28.5005L120.658 29.0005L121.158 29.0005ZM125.393 29.0005L125.393 29.5005L125.893 29.5005L125.893 29.0005L125.393 29.0005ZM125.393 28.3286L125.893 28.3286L125.893 27.8286L125.393 27.8286L125.393 28.3286ZM122.096 28.3286L121.596 28.3286L121.596 28.8286L122.096 28.8286L122.096 28.3286ZM128.877 24.4536L129.377 24.4536L129.377 23.9536L128.877 23.9536L128.877 24.4536ZM123.971 24.4536L123.971 23.9536L123.471 23.9536L123.471 24.4536L123.971 24.4536ZM123.971 25.0786L123.471 25.0786L123.471 25.5786L123.971 25.5786L123.971 25.0786ZM128.877 25.0786L128.877 25.5786L129.377 25.5786L129.377 25.0786L128.877 25.0786ZM128.877 26.9224L128.877 27.4224L129.377 27.4224L129.377 26.9224L128.877 26.9224ZM128.877 26.2974L129.377 26.2974L129.377 25.7974L128.877 25.7974L128.877 26.2974ZM123.971 26.2974L123.971 25.7974L123.471 25.7974L123.471 26.2974L123.971 26.2974ZM123.971 26.9224L123.471 26.9224L123.471 27.4224L123.971 27.4224L123.971 26.9224ZM131.283 19.5317L131.283 19.0317L128.877 19.0317L128.877 19.5317L128.877 20.0317L131.283 20.0317L131.283 19.5317ZM128.877 19.5317L128.707 20.0021L130.223 20.5489L130.393 20.0786L130.562 19.6083L129.047 19.0614L128.877 19.5317ZM130.393 20.0786L130.011 19.7558L129.284 20.6152L129.666 20.938L130.048 21.2608L130.774 20.4014L130.393 20.0786ZM129.666 20.938L129.666 21.438L131.596 21.438L131.596 20.938L131.596 20.438L129.666 20.438L129.666 20.938ZM131.596 20.938L131.096 20.938L131.096 22.438L131.596 22.438L132.096 22.438L132.096 20.938L131.596 20.938ZM131.596 22.438L131.596 21.938L121.502 21.938L121.502 22.438L121.502 22.938L131.596 22.938L131.596 22.438ZM121.502 22.438L122.002 22.438L122.002 20.938L121.502 20.938L121.002 20.938L121.002 22.438L121.502 22.438ZM121.502 20.938L121.502 21.438L123.564 21.438L123.564 20.938L123.564 20.438L121.502 20.438L121.502 20.938ZM123.564 20.938L123.98 20.6606C123.723 20.2746 123.481 19.9488 123.254 19.688L122.877 20.0161L122.5 20.3442C122.69 20.5626 122.906 20.8514 123.148 21.2153L123.564 20.938ZM122.877 20.0161L123.051 20.4849L124.356 20.0005L124.182 19.5317L124.008 19.063L122.703 19.5474L122.877 20.0161ZM124.182 19.5317L124.182 19.0317L122.08 19.0317L122.08 19.5317L122.08 20.0317L124.182 20.0317L124.182 19.5317ZM122.08 19.5317L122.58 19.5317L122.58 18.0317L122.08 18.0317L121.58 18.0317L121.58 19.5317L122.08 19.5317ZM122.08 18.0317L122.08 18.5317L125.33 18.5317L125.33 18.0317L125.33 17.5317L122.08 17.5317L122.08 18.0317ZM125.33 18.0317L125.79 17.8358C125.666 17.5437 125.535 17.2663 125.399 17.0039L124.955 17.2349L124.512 17.4658C124.635 17.7035 124.755 17.9573 124.87 18.2277L125.33 18.0317ZM124.955 17.2349L125.033 17.7287L127.299 17.3693L127.221 16.8755L127.142 16.3817L124.877 16.741L124.955 17.2349ZM127.221 16.8755L126.765 17.0807C126.899 17.3783 127.048 17.7515 127.212 18.2026L127.682 18.0317L128.152 17.8609C127.982 17.3953 127.824 16.9977 127.677 16.6703L127.221 16.8755ZM127.682 18.0317L127.682 18.5317L131.283 18.5317L131.283 18.0317L131.283 17.5317L127.682 17.5317L127.682 18.0317ZM131.283 18.0317L130.783 18.0317L130.783 19.5317L131.283 19.5317L131.783 19.5317L131.783 18.0317L131.283 18.0317ZM125.893 20.7349L125.725 20.2638L125.155 20.467L125.322 20.938L125.49 21.409L126.06 21.2059L125.893 20.7349ZM125.322 20.938L125.322 21.438L127.377 21.438L127.377 20.938L127.377 20.438L125.322 20.438L125.322 20.938ZM127.377 20.938L127.779 21.2346C128.153 20.7277 128.474 20.2432 128.74 19.7815L128.307 19.5317L127.873 19.282C127.629 19.7057 127.33 20.1587 126.974 20.6414L127.377 20.938ZM128.307 19.5317L128.307 19.0317L124.908 19.0317L124.908 19.5317L124.908 20.0317L128.307 20.0317L128.307 19.5317ZM124.908 19.5317L124.525 19.853C124.793 20.1725 125.119 20.5707 125.503 21.0482L125.893 20.7349L126.282 20.4215C125.896 19.9407 125.565 19.5369 125.291 19.2104L124.908 19.5317ZM116.861 17.6255L116.861 18.1255L121.721 18.1255L121.721 17.6255L121.721 17.1255L116.861 17.1255L116.861 17.6255ZM121.721 17.6255L121.221 17.6255L121.221 19.4849L121.721 19.4849L122.221 19.4849L122.221 17.6255L121.721 17.6255ZM121.721 19.4849L121.242 19.3412L120.117 23.0912L120.596 23.2349L121.075 23.3785L122.2 19.6285L121.721 19.4849ZM120.596 23.2349L120.153 23.4676C120.872 24.8348 121.205 25.9869 121.205 26.938L121.705 26.938L122.205 26.938C122.205 25.7641 121.798 24.4474 121.038 23.0021L120.596 23.2349ZM121.705 26.938L121.205 26.938C121.205 27.5376 121.119 27.9767 120.977 28.2835L121.432 28.4927L121.886 28.7018C122.109 28.217 122.205 27.6197 122.205 26.938L121.705 26.938ZM121.432 28.4927L120.977 28.2835C120.835 28.5929 120.66 28.7561 120.469 28.8378L120.666 29.2974L120.863 29.7569C121.329 29.5573 121.664 29.1841 121.886 28.7018L121.432 28.4927ZM120.666 29.2974L120.473 28.8363C120.259 28.9259 119.772 28.9903 118.92 28.9694L118.908 29.4692L118.896 29.9691C119.742 29.9899 120.427 29.9397 120.859 29.7585L120.666 29.2974ZM118.908 29.4692L119.404 29.4019C119.33 28.8607 119.246 28.3015 119.152 27.7244L118.658 27.8052L118.165 27.8859C118.258 28.4547 118.34 29.0049 118.413 29.5366L118.908 29.4692ZM118.658 27.8052L118.158 27.8052L118.158 32.3442L118.658 32.3442L119.158 32.3442L119.158 27.8052L118.658 27.8052ZM118.658 32.3442L118.658 31.8442L116.861 31.8442L116.861 32.3442L116.861 32.8442L118.658 32.8442L118.658 32.3442ZM116.861 32.3442L117.361 32.3442L117.361 17.6255L116.861 17.6255L116.361 17.6255L116.361 32.3442L116.861 32.3442ZM118.846 23.313L119.33 23.4389L120.33 19.5951L119.846 19.4692L119.362 19.3433L118.362 23.1871L118.846 23.313ZM119.846 19.4692L119.846 18.9692L118.658 18.9692L118.658 19.4692L118.658 19.9692L119.846 19.9692L119.846 19.4692ZM118.658 19.4692L118.158 19.4692L118.158 27.5396L118.658 27.5396L119.158 27.5396L119.158 19.4692L118.658 19.4692ZM118.658 27.5396L118.608 28.0371C118.879 28.0642 119.121 28.0786 119.33 28.0786L119.33 27.5786L119.33 27.0786C119.164 27.0786 118.958 27.067 118.708 27.042L118.658 27.5396ZM119.33 27.5786L119.33 28.0786C119.656 28.0786 119.975 27.966 120.195 27.6803C120.396 27.4195 120.455 27.087 120.455 26.7661L119.955 26.7661L119.455 26.7661C119.455 26.9868 119.41 27.0606 119.403 27.0706C119.402 27.0713 119.405 27.069 119.405 27.0691C119.402 27.0704 119.381 27.0786 119.33 27.0786L119.33 27.5786ZM119.955 26.7661L120.455 26.7661C120.455 25.3624 120.054 24.1059 119.248 23.0157L118.846 23.313L118.444 23.6103C119.117 24.52 119.455 25.5657 119.455 26.7661L119.955 26.7661ZM122.096 23.0474L122.096 23.5474L130.752 23.5474L130.752 23.0474L130.752 22.5474L122.096 22.5474L122.096 23.0474ZM130.752 23.0474L130.252 23.0474L130.252 28.3286L130.752 28.3286L131.252 28.3286L131.252 23.0474L130.752 23.0474ZM130.752 28.3286L130.752 27.8286L127.455 27.8286L127.455 28.3286L127.455 28.8286L130.752 28.8286L130.752 28.3286ZM127.455 28.3286L126.955 28.3286L126.955 29.0005L127.455 29.0005L127.955 29.0005L127.955 28.3286L127.455 28.3286ZM127.455 29.0005L127.455 29.5005L131.627 29.5005L131.627 29.0005L131.627 28.5005L127.455 28.5005L127.455 29.0005ZM131.627 29.0005L131.127 29.0005L131.127 30.6567L131.627 30.6567L132.127 30.6567L132.127 29.0005L131.627 29.0005ZM131.627 30.6567L131.627 30.1567L127.455 30.1567L127.455 30.6567L127.455 31.1567L131.627 31.1567L131.627 30.6567ZM127.455 30.6567L126.955 30.6567L126.955 32.3755L127.455 32.3755L127.955 32.3755L127.955 30.6567L127.455 30.6567ZM127.455 32.3755L127.455 31.8755L125.393 31.8755L125.393 32.3755L125.393 32.8755L127.455 32.8755L127.455 32.3755ZM125.393 32.3755L125.893 32.3755L125.893 30.6567L125.393 30.6567L124.893 30.6567L124.893 32.3755L125.393 32.3755ZM125.393 30.6567L125.393 30.1567L121.158 30.1567L121.158 30.6567L121.158 31.1567L125.393 31.1567L125.393 30.6567ZM121.158 30.6567L121.658 30.6567L121.658 29.0005L121.158 29.0005L120.658 29.0005L120.658 30.6567L121.158 30.6567ZM121.158 29.0005L121.158 29.5005L125.393 29.5005L125.393 29.0005L125.393 28.5005L121.158 28.5005L121.158 29.0005ZM125.393 29.0005L125.893 29.0005L125.893 28.3286L125.393 28.3286L124.893 28.3286L124.893 29.0005L125.393 29.0005ZM125.393 28.3286L125.393 27.8286L122.096 27.8286L122.096 28.3286L122.096 28.8286L125.393 28.8286L125.393 28.3286ZM122.096 28.3286L122.596 28.3286L122.596 23.0474L122.096 23.0474L121.596 23.0474L121.596 28.3286L122.096 28.3286ZM128.877 24.4536L128.877 23.9536L123.971 23.9536L123.971 24.4536L123.971 24.9536L128.877 24.9536L128.877 24.4536ZM123.971 24.4536L123.471 24.4536L123.471 25.0786L123.971 25.0786L124.471 25.0786L124.471 24.4536L123.971 24.4536ZM123.971 25.0786L123.971 25.5786L128.877 25.5786L128.877 25.0786L128.877 24.5786L123.971 24.5786L123.971 25.0786ZM128.877 25.0786L129.377 25.0786L129.377 24.4536L128.877 24.4536L128.377 24.4536L128.377 25.0786L128.877 25.0786ZM128.877 26.9224L129.377 26.9224L129.377 26.2974L128.877 26.2974L128.377 26.2974L128.377 26.9224L128.877 26.9224ZM128.877 26.2974L128.877 25.7974L123.971 25.7974L123.971 26.2974L123.971 26.7974L128.877 26.7974L128.877 26.2974ZM123.971 26.2974L123.471 26.2974L123.471 26.9224L123.971 26.9224L124.471 26.9224L124.471 26.2974L123.971 26.2974ZM123.971 26.9224L123.971 27.4224L128.877 27.4224L128.877 26.9224L128.877 26.4224L123.971 26.4224L123.971 26.9224Z" fill="url(#paint14_linear_2204_5959)" mask="url(#path-11-outside-1_2204_5959)"/>
</g>
<g id="6" filter="url(#filter4_d_2204_5959)">
<path d="M50.9751 21.2603C50.4757 20.9767 49.932 20.835 49.3437 20.835C48.5863 20.835 47.979 21.1333 47.522 21.73C47.0692 22.3224 46.8428 23.0905 46.8428 24.0342L46.8809 24.0342C47.3506 23.3148 48.0467 22.9551 48.9692 22.9551C49.7944 22.9551 50.4482 23.2386 50.9307 23.8057C51.4173 24.3685 51.6606 25.1027 51.6606 26.0083C51.6606 26.9985 51.3454 27.8174 50.7148 28.4648C50.0843 29.1081 49.2782 29.4297 48.2964 29.4297C47.1707 29.4297 46.3075 29.0234 45.7065 28.2109C45.1099 27.3984 44.8115 26.2855 44.8115 24.8721C44.8115 23.209 45.1987 21.859 45.9731 20.8223C46.7518 19.7813 47.833 19.2607 49.2168 19.2607C49.9616 19.2607 50.5477 19.3496 50.9751 19.5273L50.9751 21.2603ZM46.9126 26.0273C46.9126 26.5352 47.0396 26.9668 47.2935 27.3223C47.5474 27.6777 47.8817 27.8555 48.2964 27.8555C48.7153 27.8555 49.0454 27.6925 49.2866 27.3667C49.5278 27.0409 49.6484 26.6325 49.6484 26.1416C49.6484 25.0371 49.1935 24.4849 48.2837 24.4849C47.8732 24.4849 47.541 24.6309 47.2871 24.9229C47.0374 25.2148 46.9126 25.583 46.9126 26.0273Z" fill="white"/>
</g>
</g>
<defs>
<filter id="filter0_f_2204_5959" x="0.292969" y="0.0673828" width="170.988" height="15.3003" filterUnits="userSpaceOnUse" color-interpolation-filters="sRGB">
<feFlood flood-opacity="0" result="BackgroundImageFix"/>
<feBlend mode="normal" in="SourceGraphic" in2="BackgroundImageFix" result="shape"/>
<feGaussianBlur stdDeviation="3" result="effect1_foregroundBlur_2204_5959"/>
</filter>
<filter id="filter1_f_2204_5959" x="0.292969" y="33.0674" width="170.988" height="15.3003" filterUnits="userSpaceOnUse" color-interpolation-filters="sRGB">
<feFlood flood-opacity="0" result="BackgroundImageFix"/>
<feBlend mode="normal" in="SourceGraphic" in2="BackgroundImageFix" result="shape"/>
<feGaussianBlur stdDeviation="3" result="effect1_foregroundBlur_2204_5959"/>
</filter>
<filter id="filter2_f_2204_5959" x="4.29297" y="39.0674" width="162.988" height="5" filterUnits="userSpaceOnUse" color-interpolation-filters="sRGB">
<feFlood flood-opacity="0" result="BackgroundImageFix"/>
<feBlend mode="normal" in="SourceGraphic" in2="BackgroundImageFix" result="shape"/>
<feGaussianBlur stdDeviation="1" result="effect1_foregroundBlur_2204_5959"/>
</filter>
<filter id="filter3_f_2204_5959" x="4.29297" y="4.06738" width="162.988" height="5" filterUnits="userSpaceOnUse" color-interpolation-filters="sRGB">
<feFlood flood-opacity="0" result="BackgroundImageFix"/>
<feBlend mode="normal" in="SourceGraphic" in2="BackgroundImageFix" result="shape"/>
<feGaussianBlur stdDeviation="1" result="effect1_foregroundBlur_2204_5959"/>
</filter>
<filter id="filter4_d_2204_5959" x="43.8125" y="19.2607" width="8.84766" height="12.1689" filterUnits="userSpaceOnUse" color-interpolation-filters="sRGB">
<feFlood flood-opacity="0" result="BackgroundImageFix"/>
<feColorMatrix in="SourceAlpha" type="matrix" values="0 0 0 0 0 0 0 0 0 0 0 0 0 0 0 0 0 0 127 0" result="hardAlpha"/>
<feOffset dy="1"/>
<feGaussianBlur stdDeviation="0.5"/>
<feComposite in2="hardAlpha" operator="out"/>
<feColorMatrix type="matrix" values="0 0 0 0 1 0 0 0 0 0.517552 0 0 0 0 0.00183164 0 0 0 1 0"/>
<feBlend mode="normal" in2="BackgroundImageFix" result="effect1_dropShadow_2204_5959"/>
<feBlend mode="normal" in="SourceGraphic" in2="effect1_dropShadow_2204_5959" result="shape"/>
</filter>
<linearGradient id="paint0_linear_2204_5959" x1="6.29297" y1="24.0583" x2="165.281" y2="24.0583" gradientUnits="userSpaceOnUse">
<stop stop-color="#4F91FD"/>
<stop offset="0.525723" stop-color="#A2C9FF" stop-opacity="0.6"/>
<stop offset="1" stop-color="#488CFD"/>
</linearGradient>
<linearGradient id="paint1_linear_2204_5959" x1="6.29297" y1="24.0583" x2="165.281" y2="24.0583" gradientUnits="userSpaceOnUse">
<stop stop-color="#FFDB7E" stop-opacity="0.1"/>
<stop offset="0.525723" stop-color="#FFF677"/>
<stop offset="1" stop-color="#FFDB7E"/>
</linearGradient>
<linearGradient id="paint2_linear_2204_5959" x1="6.29297" y1="24.0583" x2="165.281" y2="24.0583" gradientUnits="userSpaceOnUse">
<stop stop-color="#FFC438"/>
<stop offset="1" stop-color="#FFB11F"/>
</linearGradient>
<linearGradient id="paint3_linear_2204_5959" x1="6.29297" y1="24.0583" x2="165.281" y2="24.0583" gradientUnits="userSpaceOnUse">
<stop stop-color="#FFC52D" stop-opacity="0.9"/>
<stop offset="0.525723" stop-color="#FFF677"/>
<stop offset="1" stop-color="#FFC52D" stop-opacity="0.9"/>
</linearGradient>
<linearGradient id="paint4_linear_2204_5959" x1="6.29297" y1="24.0583" x2="165.281" y2="24.0583" gradientUnits="userSpaceOnUse">
<stop stop-color="#FFB900"/>
<stop offset="1" stop-color="#FFAB0F"/>
</linearGradient>
<linearGradient id="paint5_linear_2204_5959" x1="6.29297" y1="7.71753" x2="165.281" y2="7.71753" gradientUnits="userSpaceOnUse">
<stop stop-color="white" stop-opacity="0.6"/>
<stop offset="0.525723" stop-color="#A2FFFD" stop-opacity="0.6"/>
<stop offset="1" stop-color="white" stop-opacity="0.6"/>
</linearGradient>
<linearGradient id="paint6_linear_2204_5959" x1="6.29297" y1="40.7175" x2="165.281" y2="40.7175" gradientUnits="userSpaceOnUse">
<stop stop-color="white" stop-opacity="0.6"/>
<stop offset="0.525723" stop-color="#A2FFFD" stop-opacity="0.6"/>
<stop offset="1" stop-color="white" stop-opacity="0.6"/>
</linearGradient>
<linearGradient id="paint7_linear_2204_5959" x1="6.29297" y1="41.5674" x2="165.281" y2="41.5674" gradientUnits="userSpaceOnUse">
<stop stop-color="white" stop-opacity="0.9"/>
<stop offset="0.525723" stop-color="#EBFFFF"/>
<stop offset="1" stop-color="white" stop-opacity="0.9"/>
</linearGradient>
<linearGradient id="paint8_linear_2204_5959" x1="6.29297" y1="6.56738" x2="165.281" y2="6.56738" gradientUnits="userSpaceOnUse">
<stop stop-color="white" stop-opacity="0.9"/>
<stop offset="0.525723" stop-color="#EBFFFF"/>
<stop offset="1" stop-color="white" stop-opacity="0.9"/>
</linearGradient>
<linearGradient id="paint9_linear_2204_5959" x1="146.061" y1="24.0422" x2="-12.9272" y2="24.0422" gradientUnits="userSpaceOnUse">
<stop stop-color="#FF8C00"/>
<stop offset="1" stop-color="#FFB700"/>
</linearGradient>
<linearGradient id="paint10_linear_2204_5959" x1="146.061" y1="24.0422" x2="-12.9272" y2="24.0422" gradientUnits="userSpaceOnUse">
<stop stop-color="#FFB11F"/>
<stop offset="1" stop-color="#FFD979"/>
</linearGradient>
<linearGradient id="paint11_linear_2204_5959" x1="54.9782" y1="24.2578" x2="36.9782" y2="24.2578" gradientUnits="userSpaceOnUse">
<stop stop-color="#FFA806"/>
<stop offset="1" stop-color="#FFE284"/>
</linearGradient>
<linearGradient id="paint12_linear_2204_5959" x1="48.1211" y1="37.143" x2="48.1211" y2="15.2578" gradientUnits="userSpaceOnUse">
<stop stop-color="#FFEAC4"/>
<stop offset="1" stop-color="#FFF5D4"/>
</linearGradient>
<linearGradient id="paint13_linear_2204_5959" x1="100.002" y1="17.2583" x2="100.002" y2="30.2583" gradientUnits="userSpaceOnUse">
<stop stop-color="#FFA908"/>
<stop offset="1" stop-color="#FF8C00"/>
</linearGradient>
<linearGradient id="paint14_linear_2204_5959" x1="100.002" y1="30.2583" x2="100.002" y2="17.2583" gradientUnits="userSpaceOnUse">
<stop stop-color="#FFCE78"/>
<stop offset="1" stop-color="#FFF5D4"/>
</linearGradient>
</defs>
</svg>
