<svg width="172" height="49" viewBox="0 0 172 49" fill="none" xmlns="http://www.w3.org/2000/svg">
<g id="7&#231;&#142;&#176;&#229;&#156;&#186;&#231;&#187;&#132;&#232;&#163;&#133;-&#233;&#187;&#152;&#232;&#174;&#164;">
<g id="Group 1321315616">
<mask id="mask0_2204_5975" style="mask-type:alpha" maskUnits="userSpaceOnUse" x="6" y="6" width="160" height="36">
<rect id="Rectangle 34628613" x="6.29297" y="6.01611" width="158.988" height="35.9819" fill="url(#paint0_linear_2204_5975)"/>
</mask>
<g mask="url(#mask0_2204_5975)">
<rect id="Rectangle 34628616" x="6.29297" y="6.01611" width="158.988" height="35.9819" fill="url(#paint1_linear_2204_5975)"/>
</g>
</g>
<g id="Rectangle 34628615" filter="url(#filter0_f_2204_5975)">
<rect x="6.29297" y="6.01611" width="158.988" height="3.30029" fill="url(#paint2_linear_2204_5975)"/>
</g>
<g id="Rectangle 34628616_2" filter="url(#filter1_f_2204_5975)">
<rect x="6.29297" y="39.0161" width="158.988" height="3.30029" fill="url(#paint3_linear_2204_5975)"/>
</g>
<g id="Rectangle 34628617" filter="url(#filter2_f_2204_5975)">
<rect x="6.29297" y="41.0161" width="158.988" height="1" fill="url(#paint4_linear_2204_5975)"/>
</g>
<g id="Rectangle 34628618" filter="url(#filter3_f_2204_5975)">
<rect x="6.29297" y="6.01611" width="158.988" height="1" fill="url(#paint5_linear_2204_5975)"/>
</g>
<rect id="Rectangle 34628621" x="6.29297" y="6.01611" width="158.988" height="35.9819" stroke="url(#paint6_linear_2204_5975)"/>
<path id="Rectangle 34628619" d="M6 10.9955L6 6L11.9368 6M6 36.9865L6 41.9819L11.9368 41.9819M164.988 10.9955L164.988 6L159.052 6M164.988 36.9865L164.988 41.9819L159.052 41.9819" stroke="url(#paint7_linear_2204_5975)" stroke-width="2"/>
<path id="Rectangle 34628620" d="M6 10.9955L6 6L11.9368 6M6 36.9865L6 41.9819L11.9368 41.9819M164.988 10.9955L164.988 6L159.052 6M164.988 36.9865L164.988 41.9819L159.052 41.9819" stroke="url(#paint8_linear_2204_5975)"/>
<path id="Vector" d="M48.1211 15.7065C50.4954 15.7065 52.4946 16.5289 54.1484 18.1812C55.6987 19.7301 56.5183 21.5834 56.6123 23.7651L56.6211 24.2056C56.6182 26.5806 55.7957 28.5809 54.1475 30.2349C52.6032 31.7843 50.7503 32.6038 48.5635 32.6978L48.1221 32.7065L48.1211 32.7065C45.8934 32.7065 43.9976 31.9842 42.4092 30.5337L42.0957 30.2339C40.4435 28.5801 39.6211 26.5808 39.6211 24.2065C39.6211 21.9806 40.3442 20.0853 41.7959 18.4956L42.0957 18.1812C43.748 16.5288 45.7467 15.7065 48.1211 15.7065Z" fill="url(#paint9_linear_2204_5975)" stroke="url(#paint10_linear_2204_5975)"/>
<path id="&#231;&#142;&#176;&#229;&#156;&#186;&#231;&#187;&#132;&#232;&#163;&#133;" d="M74.1895 27.2773L74.1895 17.4492L82.752 17.4492L82.752 27.1523L80.6895 27.1523L80.6895 19.4961L76.252 19.4961L76.252 27.2773L74.1895 27.2773ZM68.8457 31.5898L68.1895 29.3086L70.0332 28.6602L70.0332 24.8242L68.5176 24.8242L68.5176 22.7617L70.0332 22.7617L70.0332 19.7305L68.4082 19.7305L68.4082 17.668L73.7363 17.668L73.7363 19.7305L72.0645 19.7305L72.0645 22.7617L73.5176 22.7617L73.5176 24.8242L72.0645 24.8242L72.0645 27.8789C72.6686 27.6341 73.179 27.4076 73.5957 27.1992C73.6478 28.0638 73.7155 28.8086 73.7988 29.4336C72.0488 30.1523 70.3978 30.8711 68.8457 31.5898ZM81.7676 27.6992C82.5697 28.0846 83.2363 28.3711 83.7676 28.5586C83.5384 30.2461 83.252 31.2461 82.9082 31.5586C82.5697 31.8711 82.1686 32.0273 81.7051 32.0273L80.0488 32.0273C78.8092 32.0273 78.1895 31.4388 78.1895 30.2617L78.1895 28.207C77.3561 29.8424 76.0124 31.2253 74.1582 32.3555C73.7207 31.7721 73.2103 31.168 72.627 30.543C74.4967 29.5951 75.7546 28.5143 76.4004 27.3008C77.0514 26.082 77.3717 23.7982 77.3613 20.4492L79.4707 20.4492C79.4499 22.7096 79.2728 24.569 78.9395 26.0273L80.1582 26.0273L80.1582 29.5117C80.1582 29.9701 80.3796 30.1992 80.8223 30.1992C81.166 30.1992 81.39 30.082 81.4941 29.8477C81.6035 29.6081 81.6947 28.8919 81.7676 27.6992ZM93.6738 22.5742L99.2832 22.5742C99.2832 24.7409 99.2207 26.9701 99.0957 29.2617C99.0228 30.9909 98.2363 31.9076 96.7363 32.0117C96.1738 32.0534 95.5072 32.0846 94.7363 32.1055C94.6634 31.4909 94.5332 30.7669 94.3457 29.9336C93.752 30.7878 93.054 31.5586 92.252 32.2461C91.6582 31.7878 91.028 31.3398 90.3613 30.9023C92.6322 29.1732 94.0332 27.0221 94.5645 24.4492L93.2988 24.4492C92.7259 26.5534 91.752 28.2357 90.377 29.4961C90.127 29.2773 89.8822 29.069 89.6426 28.8711C89.6322 29.2253 89.6322 29.6107 89.6426 30.0273C87.7988 30.4023 86.1217 30.7669 84.6113 31.1211L84.2051 28.8867C84.8092 28.7826 85.4186 28.6732 86.0332 28.5586L86.0332 23.043L84.3613 23.043L84.3613 20.9023L86.0332 20.9023L86.0332 16.9492L88.1113 16.9492L88.1113 20.9023L89.5957 20.9023L89.5957 23.043L88.1113 23.043L88.1113 28.1523C88.3613 28.1003 88.6061 28.0482 88.8457 27.9961C90.002 27.0794 90.8249 25.8971 91.3145 24.4492L89.9238 24.4492L89.9238 22.5898L94.5801 19.5742L89.9082 19.5742L89.9082 17.6992L98.252 17.6992L98.252 19.4961L93.6738 22.5742ZM95.7363 29.918C96.6009 29.918 97.0592 29.5482 97.1113 28.8086C97.2051 27.7357 97.2728 26.2826 97.3145 24.4492L96.502 24.4492C96.1165 26.543 95.4134 28.3503 94.3926 29.8711C94.8822 29.9023 95.3301 29.918 95.7363 29.918ZM100.611 31.6055L100.236 29.5273C102.08 29.319 103.992 29.0742 105.971 28.793C105.95 29.0951 105.934 29.3971 105.924 29.6992L106.736 29.6992L106.736 20.7852C105.585 22.6914 104.476 24.3919 103.408 25.8867L106.158 25.5586C106.064 26.3086 106.007 26.9336 105.986 27.4336C103.309 27.7148 101.721 27.944 101.221 28.1211L100.455 26.2461C100.986 25.944 101.788 24.9857 102.861 23.3711C101.851 23.4232 101.169 23.5065 100.814 23.6211L100.189 21.793C100.752 21.4388 101.715 19.7721 103.08 16.793L105.064 17.5586C104.21 19.069 103.387 20.444 102.596 21.6836L103.963 21.6133C104.307 21.0299 104.648 20.418 104.986 19.7773L106.736 20.6133L106.736 17.5586L114.783 17.5586L114.783 29.6992L115.768 29.6992L115.768 31.7148L105.643 31.7148L105.643 30.8633L100.611 31.6055ZM112.596 19.5742L108.924 19.5742L108.924 21.6211L112.596 21.6211L112.596 19.5742ZM108.924 25.6367L112.596 25.6367L112.596 23.5898L108.924 23.5898L108.924 25.6367ZM108.924 29.6992L112.596 29.6992L112.596 27.6055L108.924 27.6055L108.924 29.6992ZM116.877 23.8555L116.221 21.793C117.648 21.293 118.976 20.7852 120.205 20.2695L120.205 16.8867L122.221 16.8867L122.221 23.793L120.205 23.793L120.205 22.4414C119.111 22.8789 118.002 23.3503 116.877 23.8555ZM123.018 21.6055L126.002 21.6055L126.002 20.293L122.611 20.293L122.611 18.5586L126.002 18.5586L126.002 16.918L128.08 16.918L128.08 18.5586L131.455 18.5586L131.455 20.293L128.08 20.293L128.08 21.6055L131.096 21.6055L131.096 23.3398L123.018 23.3398L123.018 21.6055ZM118.018 17.2461C118.497 17.6628 119.169 18.2878 120.033 19.1211L118.533 20.4336C117.762 19.569 117.127 18.8919 116.627 18.4023L118.018 17.2461ZM130.658 27.918C129.986 28.2096 129.187 28.5352 128.26 28.8945C129.213 29.3424 130.382 29.6992 131.768 29.9648C131.163 30.7773 130.684 31.4648 130.33 32.0273C128.236 31.3398 126.614 30.457 125.463 29.3789C125.38 30.1237 125.335 30.7201 125.33 31.168C122.768 31.5951 121.158 31.9909 120.502 32.3555L119.518 30.6211C119.924 30.3294 120.137 30.0065 120.158 29.6523L120.158 29.3711C119.278 29.8503 118.299 30.3138 117.221 30.7617C116.939 30.1055 116.606 29.444 116.221 28.7773C118.46 28.1055 120.312 27.2669 121.775 26.2617L116.33 26.2617L116.33 24.5273L123.041 24.5273C122.963 24.2982 122.887 24.0846 122.814 23.8867L124.986 23.6055L125.275 24.5273L131.658 24.5273L131.658 26.2617L129.588 26.2617L130.658 27.918ZM126.541 27.7852C127.739 27.2279 128.708 26.7201 129.447 26.2617L125.229 26.2617C125.63 26.8555 126.067 27.3633 126.541 27.7852ZM123.588 26.9805C123.171 27.3711 122.7 27.7539 122.174 28.1289L122.174 29.6992C122.747 29.5951 123.731 29.3763 125.127 29.043C124.538 28.4388 124.025 27.7513 123.588 26.9805Z" fill="url(#paint11_linear_2204_5975)"/>
<g id="7" filter="url(#filter4_d_2204_5975)">
<path d="M51.5781 20.625C50.7826 22.0511 50.188 23.2 49.7944 24.0718C49.4051 24.9435 49.0877 25.792 48.8423 26.6172C48.5968 27.4424 48.4085 28.3057 48.2773 29.207L46.0747 29.207C46.2863 27.9248 46.6587 26.6278 47.1919 25.3159C47.7293 23.9998 48.4699 22.5822 49.4136 21.063L44.7227 21.063L44.7227 19.3745L51.5781 19.3745L51.5781 20.625Z" fill="white"/>
</g>
</g>
<defs>
<filter id="filter0_f_2204_5975" x="0.292969" y="0.0161133" width="170.988" height="15.3003" filterUnits="userSpaceOnUse" color-interpolation-filters="sRGB">
<feFlood flood-opacity="0" result="BackgroundImageFix"/>
<feBlend mode="normal" in="SourceGraphic" in2="BackgroundImageFix" result="shape"/>
<feGaussianBlur stdDeviation="3" result="effect1_foregroundBlur_2204_5975"/>
</filter>
<filter id="filter1_f_2204_5975" x="0.292969" y="33.0161" width="170.988" height="15.3003" filterUnits="userSpaceOnUse" color-interpolation-filters="sRGB">
<feFlood flood-opacity="0" result="BackgroundImageFix"/>
<feBlend mode="normal" in="SourceGraphic" in2="BackgroundImageFix" result="shape"/>
<feGaussianBlur stdDeviation="3" result="effect1_foregroundBlur_2204_5975"/>
</filter>
<filter id="filter2_f_2204_5975" x="4.29297" y="39.0161" width="162.988" height="5" filterUnits="userSpaceOnUse" color-interpolation-filters="sRGB">
<feFlood flood-opacity="0" result="BackgroundImageFix"/>
<feBlend mode="normal" in="SourceGraphic" in2="BackgroundImageFix" result="shape"/>
<feGaussianBlur stdDeviation="1" result="effect1_foregroundBlur_2204_5975"/>
</filter>
<filter id="filter3_f_2204_5975" x="4.29297" y="4.01611" width="162.988" height="5" filterUnits="userSpaceOnUse" color-interpolation-filters="sRGB">
<feFlood flood-opacity="0" result="BackgroundImageFix"/>
<feBlend mode="normal" in="SourceGraphic" in2="BackgroundImageFix" result="shape"/>
<feGaussianBlur stdDeviation="1" result="effect1_foregroundBlur_2204_5975"/>
</filter>
<filter id="filter4_d_2204_5975" x="43.7227" y="19.3745" width="8.85547" height="11.8325" filterUnits="userSpaceOnUse" color-interpolation-filters="sRGB">
<feFlood flood-opacity="0" result="BackgroundImageFix"/>
<feColorMatrix in="SourceAlpha" type="matrix" values="0 0 0 0 0 0 0 0 0 0 0 0 0 0 0 0 0 0 127 0" result="hardAlpha"/>
<feOffset dy="1"/>
<feGaussianBlur stdDeviation="0.5"/>
<feComposite in2="hardAlpha" operator="out"/>
<feColorMatrix type="matrix" values="0 0 0 0 0.227451 0 0 0 0 0.513726 0 0 0 0 0.988235 0 0 0 1 0"/>
<feBlend mode="normal" in2="BackgroundImageFix" result="effect1_dropShadow_2204_5975"/>
<feBlend mode="normal" in="SourceGraphic" in2="effect1_dropShadow_2204_5975" result="shape"/>
</filter>
<linearGradient id="paint0_linear_2204_5975" x1="6.29297" y1="24.0071" x2="165.281" y2="24.0071" gradientUnits="userSpaceOnUse">
<stop stop-color="#4F91FD"/>
<stop offset="0.525723" stop-color="#A2C9FF" stop-opacity="0.6"/>
<stop offset="1" stop-color="#488CFD"/>
</linearGradient>
<linearGradient id="paint1_linear_2204_5975" x1="6.29297" y1="24.0071" x2="165.281" y2="24.0071" gradientUnits="userSpaceOnUse">
<stop stop-color="#A2C9FF" stop-opacity="0.9"/>
<stop offset="0.525723" stop-color="#70E5FF" stop-opacity="0.6"/>
<stop offset="1" stop-color="#A2C9FF" stop-opacity="0.9"/>
</linearGradient>
<linearGradient id="paint2_linear_2204_5975" x1="6.29297" y1="7.66626" x2="165.281" y2="7.66626" gradientUnits="userSpaceOnUse">
<stop stop-color="white" stop-opacity="0.6"/>
<stop offset="0.525723" stop-color="#A2FFFD" stop-opacity="0.6"/>
<stop offset="1" stop-color="white" stop-opacity="0.6"/>
</linearGradient>
<linearGradient id="paint3_linear_2204_5975" x1="6.29297" y1="40.6663" x2="165.281" y2="40.6663" gradientUnits="userSpaceOnUse">
<stop stop-color="white" stop-opacity="0.6"/>
<stop offset="0.525723" stop-color="#A2FFFD" stop-opacity="0.6"/>
<stop offset="1" stop-color="white" stop-opacity="0.6"/>
</linearGradient>
<linearGradient id="paint4_linear_2204_5975" x1="6.29297" y1="41.5161" x2="165.281" y2="41.5161" gradientUnits="userSpaceOnUse">
<stop stop-color="white" stop-opacity="0.9"/>
<stop offset="0.525723" stop-color="#EBFFFF"/>
<stop offset="1" stop-color="white" stop-opacity="0.9"/>
</linearGradient>
<linearGradient id="paint5_linear_2204_5975" x1="6.29297" y1="6.51611" x2="165.281" y2="6.51611" gradientUnits="userSpaceOnUse">
<stop stop-color="white" stop-opacity="0.9"/>
<stop offset="0.525723" stop-color="#EBFFFF"/>
<stop offset="1" stop-color="white" stop-opacity="0.9"/>
</linearGradient>
<linearGradient id="paint6_linear_2204_5975" x1="6.29297" y1="24.0071" x2="165.281" y2="24.0071" gradientUnits="userSpaceOnUse">
<stop stop-color="#6DD7FF"/>
<stop offset="1" stop-color="#7DBEFF"/>
</linearGradient>
<linearGradient id="paint7_linear_2204_5975" x1="146.061" y1="23.991" x2="-12.9272" y2="23.991" gradientUnits="userSpaceOnUse">
<stop stop-color="#419FFF"/>
<stop offset="1" stop-color="#47B3FF"/>
</linearGradient>
<linearGradient id="paint8_linear_2204_5975" x1="146.061" y1="23.991" x2="-12.9272" y2="23.991" gradientUnits="userSpaceOnUse">
<stop stop-color="#7EBEFF"/>
<stop offset="1" stop-color="#8BE3FF"/>
</linearGradient>
<linearGradient id="paint9_linear_2204_5975" x1="54.9782" y1="24.2065" x2="36.9782" y2="24.2065" gradientUnits="userSpaceOnUse">
<stop stop-color="#5997FD"/>
<stop offset="1" stop-color="#58D7FF"/>
</linearGradient>
<linearGradient id="paint10_linear_2204_5975" x1="39.1211" y1="24.2065" x2="57.0955" y2="24.8848" gradientUnits="userSpaceOnUse">
<stop stop-color="#D6F0FF"/>
<stop offset="1" stop-color="#C4E8FF"/>
</linearGradient>
<linearGradient id="paint11_linear_2204_5975" x1="100.002" y1="17.207" x2="100.002" y2="30.207" gradientUnits="userSpaceOnUse">
<stop stop-color="#666666"/>
<stop offset="1"/>
</linearGradient>
</defs>
</svg>
