<svg width="172" height="49" viewBox="0 0 172 49" fill="none" xmlns="http://www.w3.org/2000/svg">
<g id="7&#231;&#142;&#176;&#229;&#156;&#186;&#231;&#187;&#132;&#232;&#163;&#133;-&#231;&#130;&#185;&#229;&#135;&#187;&#233;&#162;&#156;&#232;&#137;&#178;">
<g id="Group 1321315616">
<mask id="mask0_2204_5990" style="mask-type:alpha" maskUnits="userSpaceOnUse" x="6" y="6" width="160" height="37">
<rect id="Rectangle 34628613" x="6.29297" y="6.06738" width="158.988" height="35.9819" fill="url(#paint0_linear_2204_5990)"/>
</mask>
<g mask="url(#mask0_2204_5990)">
<rect id="Rectangle 34628616" x="6.29297" y="6.06738" width="158.988" height="35.9819" fill="url(#paint1_linear_2204_5990)" stroke="url(#paint2_linear_2204_5990)"/>
</g>
</g>
<rect id="Rectangle 34628617" x="6.29297" y="6.06738" width="158.988" height="35.9819" fill="url(#paint3_linear_2204_5990)" stroke="url(#paint4_linear_2204_5990)"/>
<g id="Rectangle 34628615" filter="url(#filter0_f_2204_5990)">
<rect x="6.29297" y="6.06738" width="158.988" height="3.30029" fill="url(#paint5_linear_2204_5990)"/>
</g>
<g id="Rectangle 34628616_2" filter="url(#filter1_f_2204_5990)">
<rect x="6.29297" y="39.0674" width="158.988" height="3.30029" fill="url(#paint6_linear_2204_5990)"/>
</g>
<g id="Rectangle 34628617_2" filter="url(#filter2_f_2204_5990)">
<rect x="6.29297" y="41.0674" width="158.988" height="1" fill="url(#paint7_linear_2204_5990)"/>
</g>
<g id="Rectangle 34628618" filter="url(#filter3_f_2204_5990)">
<rect x="6.29297" y="6.06738" width="158.988" height="1" fill="url(#paint8_linear_2204_5990)"/>
</g>
<path id="Rectangle 34628619" d="M6 11.0468L6 6.05127L11.9368 6.05127M6 37.0377L6 42.0332L11.9368 42.0332M164.988 11.0468L164.988 6.05127L159.052 6.05127M164.988 37.0377L164.988 42.0332L159.052 42.0332" stroke="url(#paint9_linear_2204_5990)" stroke-width="2"/>
<path id="Rectangle 34628620" d="M6 11.0468L6 6.05127L11.9368 6.05127M6 37.0377L6 42.0332L11.9368 42.0332M164.988 11.0468L164.988 6.05127L159.052 6.05127M164.988 37.0377L164.988 42.0332L159.052 42.0332" stroke="url(#paint10_linear_2204_5990)"/>
<path id="Vector" d="M48.1211 15.7578C50.4954 15.7578 52.4946 16.5802 54.1484 18.2324C55.6987 19.7813 56.5183 21.6347 56.6123 23.8164L56.6211 24.2568C56.6182 26.6319 55.7957 28.6322 54.1475 30.2861C52.6032 31.8355 50.7503 32.655 48.5635 32.749L48.1221 32.7578L48.1211 32.7578C45.8934 32.7578 43.9976 32.0355 42.4092 30.585L42.0957 30.2852C40.4435 28.6314 39.6211 26.6321 39.6211 24.2578C39.6211 22.0319 40.3442 20.1366 41.7959 18.5469L42.0957 18.2324C43.748 16.5801 45.7467 15.7578 48.1211 15.7578Z" fill="url(#paint11_linear_2204_5990)" stroke="url(#paint12_linear_2204_5990)"/>
<g id="&#231;&#142;&#176;&#229;&#156;&#186;&#231;&#187;&#132;&#232;&#163;&#133;">
<mask id="path-11-outside-1_2204_5990" maskUnits="userSpaceOnUse" x="67.125" y="15.2583" width="66" height="18" fill="black">
<rect fill="white" x="67.125" y="15.2583" width="66" height="18"/>
<path d="M74.1895 27.3286L74.1895 17.5005L82.752 17.5005L82.752 27.2036L80.6895 27.2036L80.6895 19.5474L76.252 19.5474L76.252 27.3286L74.1895 27.3286ZM68.8457 31.6411L68.1895 29.3599L70.0332 28.7114L70.0332 24.8755L68.5176 24.8755L68.5176 22.813L70.0332 22.813L70.0332 19.7817L68.4082 19.7817L68.4082 17.7192L73.7363 17.7192L73.7363 19.7817L72.0645 19.7817L72.0645 22.813L73.5176 22.813L73.5176 24.8755L72.0645 24.8755L72.0645 27.9302C72.6686 27.6854 73.179 27.4588 73.5957 27.2505C73.6478 28.1151 73.7155 28.8599 73.7988 29.4849C72.0488 30.2036 70.3978 30.9224 68.8457 31.6411ZM81.7676 27.7505C82.5697 28.1359 83.2363 28.4224 83.7676 28.6099C83.5384 30.2974 83.252 31.2974 82.9082 31.6099C82.5697 31.9224 82.1686 32.0786 81.7051 32.0786L80.0488 32.0786C78.8092 32.0786 78.1895 31.4901 78.1895 30.313L78.1895 28.2583C77.3561 29.8937 76.0124 31.2765 74.1582 32.4067C73.7207 31.8234 73.2103 31.2192 72.627 30.5942C74.4967 29.6463 75.7546 28.5656 76.4004 27.3521C77.0514 26.1333 77.3717 23.8494 77.3613 20.5005L79.4707 20.5005C79.4499 22.7609 79.2728 24.6203 78.9395 26.0786L80.1582 26.0786L80.1582 29.563C80.1582 30.0213 80.3796 30.2505 80.8223 30.2505C81.166 30.2505 81.39 30.1333 81.4941 29.8989C81.6035 29.6593 81.6947 28.9432 81.7676 27.7505ZM93.6738 22.6255L99.2832 22.6255C99.2832 24.7922 99.2207 27.0213 99.0957 29.313C99.0228 31.0422 98.2363 31.9588 96.7363 32.063C96.1738 32.1047 95.5072 32.1359 94.7363 32.1567C94.6634 31.5422 94.5332 30.8182 94.3457 29.9849C93.752 30.839 93.054 31.6099 92.252 32.2974C91.6582 31.839 91.028 31.3911 90.3613 30.9536C92.6322 29.2244 94.0332 27.0734 94.5645 24.5005L93.2988 24.5005C92.7259 26.6047 91.752 28.2869 90.377 29.5474C90.127 29.3286 89.8822 29.1203 89.6426 28.9224C89.6322 29.2765 89.6322 29.6619 89.6426 30.0786C87.7988 30.4536 86.1217 30.8182 84.6113 31.1724L84.2051 28.938C84.8092 28.8338 85.4186 28.7244 86.0332 28.6099L86.0332 23.0942L84.3613 23.0942L84.3613 20.9536L86.0332 20.9536L86.0332 17.0005L88.1113 17.0005L88.1113 20.9536L89.5957 20.9536L89.5957 23.0942L88.1113 23.0942L88.1113 28.2036C88.3613 28.1515 88.6061 28.0994 88.8457 28.0474C90.002 27.1307 90.8249 25.9484 91.3145 24.5005L89.9238 24.5005L89.9238 22.6411L94.5801 19.6255L89.9082 19.6255L89.9082 17.7505L98.252 17.7505L98.252 19.5474L93.6738 22.6255ZM95.7363 29.9692C96.6009 29.9692 97.0592 29.5994 97.1113 28.8599C97.2051 27.7869 97.2728 26.3338 97.3145 24.5005L96.502 24.5005C96.1165 26.5942 95.4134 28.4015 94.3926 29.9224C94.8822 29.9536 95.3301 29.9692 95.7363 29.9692ZM100.611 31.6567L100.236 29.5786C102.08 29.3703 103.992 29.1255 105.971 28.8442C105.95 29.1463 105.934 29.4484 105.924 29.7505L106.736 29.7505L106.736 20.8364C105.585 22.7427 104.476 24.4432 103.408 25.938L106.158 25.6099C106.064 26.3599 106.007 26.9849 105.986 27.4849C103.309 27.7661 101.721 27.9953 101.221 28.1724L100.455 26.2974C100.986 25.9953 101.788 25.0369 102.861 23.4224C101.851 23.4744 101.169 23.5578 100.814 23.6724L100.189 21.8442C100.752 21.4901 101.715 19.8234 103.08 16.8442L105.064 17.6099C104.21 19.1203 103.387 20.4953 102.596 21.7349L103.963 21.6646C104.307 21.0812 104.648 20.4692 104.986 19.8286L106.736 20.6646L106.736 17.6099L114.783 17.6099L114.783 29.7505L115.768 29.7505L115.768 31.7661L105.643 31.7661L105.643 30.9146L100.611 31.6567ZM112.596 19.6255L108.924 19.6255L108.924 21.6724L112.596 21.6724L112.596 19.6255ZM108.924 25.688L112.596 25.688L112.596 23.6411L108.924 23.6411L108.924 25.688ZM108.924 29.7505L112.596 29.7505L112.596 27.6567L108.924 27.6567L108.924 29.7505ZM116.877 23.9067L116.221 21.8442C117.648 21.3442 118.976 20.8364 120.205 20.3208L120.205 16.938L122.221 16.938L122.221 23.8442L120.205 23.8442L120.205 22.4927C119.111 22.9302 118.002 23.4015 116.877 23.9067ZM123.018 21.6567L126.002 21.6567L126.002 20.3442L122.611 20.3442L122.611 18.6099L126.002 18.6099L126.002 16.9692L128.08 16.9692L128.08 18.6099L131.455 18.6099L131.455 20.3442L128.08 20.3442L128.08 21.6567L131.096 21.6567L131.096 23.3911L123.018 23.3911L123.018 21.6567ZM118.018 17.2974C118.497 17.714 119.169 18.339 120.033 19.1724L118.533 20.4849C117.762 19.6203 117.127 18.9432 116.627 18.4536L118.018 17.2974ZM130.658 27.9692C129.986 28.2609 129.187 28.5864 128.26 28.9458C129.213 29.3937 130.382 29.7505 131.768 30.0161C131.163 30.8286 130.684 31.5161 130.33 32.0786C128.236 31.3911 126.614 30.5083 125.463 29.4302C125.38 30.175 125.335 30.7713 125.33 31.2192C122.768 31.6463 121.158 32.0422 120.502 32.4067L119.518 30.6724C119.924 30.3807 120.137 30.0578 120.158 29.7036L120.158 29.4224C119.278 29.9015 118.299 30.3651 117.221 30.813C116.939 30.1567 116.606 29.4953 116.221 28.8286C118.46 28.1567 120.312 27.3182 121.775 26.313L116.33 26.313L116.33 24.5786L123.041 24.5786C122.963 24.3494 122.887 24.1359 122.814 23.938L124.986 23.6567L125.275 24.5786L131.658 24.5786L131.658 26.313L129.588 26.313L130.658 27.9692ZM126.541 27.8364C127.739 27.2791 128.708 26.7713 129.447 26.313L125.229 26.313C125.63 26.9067 126.067 27.4146 126.541 27.8364ZM123.588 27.0317C123.171 27.4224 122.7 27.8052 122.174 28.1802L122.174 29.7505C122.747 29.6463 123.731 29.4276 125.127 29.0942C124.538 28.4901 124.025 27.8026 123.588 27.0317Z"/>
</mask>
<path d="M74.1895 27.3286L74.1895 17.5005L82.752 17.5005L82.752 27.2036L80.6895 27.2036L80.6895 19.5474L76.252 19.5474L76.252 27.3286L74.1895 27.3286ZM68.8457 31.6411L68.1895 29.3599L70.0332 28.7114L70.0332 24.8755L68.5176 24.8755L68.5176 22.813L70.0332 22.813L70.0332 19.7817L68.4082 19.7817L68.4082 17.7192L73.7363 17.7192L73.7363 19.7817L72.0645 19.7817L72.0645 22.813L73.5176 22.813L73.5176 24.8755L72.0645 24.8755L72.0645 27.9302C72.6686 27.6854 73.179 27.4588 73.5957 27.2505C73.6478 28.1151 73.7155 28.8599 73.7988 29.4849C72.0488 30.2036 70.3978 30.9224 68.8457 31.6411ZM81.7676 27.7505C82.5697 28.1359 83.2363 28.4224 83.7676 28.6099C83.5384 30.2974 83.252 31.2974 82.9082 31.6099C82.5697 31.9224 82.1686 32.0786 81.7051 32.0786L80.0488 32.0786C78.8092 32.0786 78.1895 31.4901 78.1895 30.313L78.1895 28.2583C77.3561 29.8937 76.0124 31.2765 74.1582 32.4067C73.7207 31.8234 73.2103 31.2192 72.627 30.5942C74.4967 29.6463 75.7546 28.5656 76.4004 27.3521C77.0514 26.1333 77.3717 23.8494 77.3613 20.5005L79.4707 20.5005C79.4499 22.7609 79.2728 24.6203 78.9395 26.0786L80.1582 26.0786L80.1582 29.563C80.1582 30.0213 80.3796 30.2505 80.8223 30.2505C81.166 30.2505 81.39 30.1333 81.4941 29.8989C81.6035 29.6593 81.6947 28.9432 81.7676 27.7505ZM93.6738 22.6255L99.2832 22.6255C99.2832 24.7922 99.2207 27.0213 99.0957 29.313C99.0228 31.0422 98.2363 31.9588 96.7363 32.063C96.1738 32.1047 95.5072 32.1359 94.7363 32.1567C94.6634 31.5422 94.5332 30.8182 94.3457 29.9849C93.752 30.839 93.054 31.6099 92.252 32.2974C91.6582 31.839 91.028 31.3911 90.3613 30.9536C92.6322 29.2244 94.0332 27.0734 94.5645 24.5005L93.2988 24.5005C92.7259 26.6047 91.752 28.2869 90.377 29.5474C90.127 29.3286 89.8822 29.1203 89.6426 28.9224C89.6322 29.2765 89.6322 29.6619 89.6426 30.0786C87.7988 30.4536 86.1217 30.8182 84.6113 31.1724L84.2051 28.938C84.8092 28.8338 85.4186 28.7244 86.0332 28.6099L86.0332 23.0942L84.3613 23.0942L84.3613 20.9536L86.0332 20.9536L86.0332 17.0005L88.1113 17.0005L88.1113 20.9536L89.5957 20.9536L89.5957 23.0942L88.1113 23.0942L88.1113 28.2036C88.3613 28.1515 88.6061 28.0994 88.8457 28.0474C90.002 27.1307 90.8249 25.9484 91.3145 24.5005L89.9238 24.5005L89.9238 22.6411L94.5801 19.6255L89.9082 19.6255L89.9082 17.7505L98.252 17.7505L98.252 19.5474L93.6738 22.6255ZM95.7363 29.9692C96.6009 29.9692 97.0592 29.5994 97.1113 28.8599C97.2051 27.7869 97.2728 26.3338 97.3145 24.5005L96.502 24.5005C96.1165 26.5942 95.4134 28.4015 94.3926 29.9224C94.8822 29.9536 95.3301 29.9692 95.7363 29.9692ZM100.611 31.6567L100.236 29.5786C102.08 29.3703 103.992 29.1255 105.971 28.8442C105.95 29.1463 105.934 29.4484 105.924 29.7505L106.736 29.7505L106.736 20.8364C105.585 22.7427 104.476 24.4432 103.408 25.938L106.158 25.6099C106.064 26.3599 106.007 26.9849 105.986 27.4849C103.309 27.7661 101.721 27.9953 101.221 28.1724L100.455 26.2974C100.986 25.9953 101.788 25.0369 102.861 23.4224C101.851 23.4744 101.169 23.5578 100.814 23.6724L100.189 21.8442C100.752 21.4901 101.715 19.8234 103.08 16.8442L105.064 17.6099C104.21 19.1203 103.387 20.4953 102.596 21.7349L103.963 21.6646C104.307 21.0812 104.648 20.4692 104.986 19.8286L106.736 20.6646L106.736 17.6099L114.783 17.6099L114.783 29.7505L115.768 29.7505L115.768 31.7661L105.643 31.7661L105.643 30.9146L100.611 31.6567ZM112.596 19.6255L108.924 19.6255L108.924 21.6724L112.596 21.6724L112.596 19.6255ZM108.924 25.688L112.596 25.688L112.596 23.6411L108.924 23.6411L108.924 25.688ZM108.924 29.7505L112.596 29.7505L112.596 27.6567L108.924 27.6567L108.924 29.7505ZM116.877 23.9067L116.221 21.8442C117.648 21.3442 118.976 20.8364 120.205 20.3208L120.205 16.938L122.221 16.938L122.221 23.8442L120.205 23.8442L120.205 22.4927C119.111 22.9302 118.002 23.4015 116.877 23.9067ZM123.018 21.6567L126.002 21.6567L126.002 20.3442L122.611 20.3442L122.611 18.6099L126.002 18.6099L126.002 16.9692L128.08 16.9692L128.08 18.6099L131.455 18.6099L131.455 20.3442L128.08 20.3442L128.08 21.6567L131.096 21.6567L131.096 23.3911L123.018 23.3911L123.018 21.6567ZM118.018 17.2974C118.497 17.714 119.169 18.339 120.033 19.1724L118.533 20.4849C117.762 19.6203 117.127 18.9432 116.627 18.4536L118.018 17.2974ZM130.658 27.9692C129.986 28.2609 129.187 28.5864 128.26 28.9458C129.213 29.3937 130.382 29.7505 131.768 30.0161C131.163 30.8286 130.684 31.5161 130.33 32.0786C128.236 31.3911 126.614 30.5083 125.463 29.4302C125.38 30.175 125.335 30.7713 125.33 31.2192C122.768 31.6463 121.158 32.0422 120.502 32.4067L119.518 30.6724C119.924 30.3807 120.137 30.0578 120.158 29.7036L120.158 29.4224C119.278 29.9015 118.299 30.3651 117.221 30.813C116.939 30.1567 116.606 29.4953 116.221 28.8286C118.46 28.1567 120.312 27.3182 121.775 26.313L116.33 26.313L116.33 24.5786L123.041 24.5786C122.963 24.3494 122.887 24.1359 122.814 23.938L124.986 23.6567L125.275 24.5786L131.658 24.5786L131.658 26.313L129.588 26.313L130.658 27.9692ZM126.541 27.8364C127.739 27.2791 128.708 26.7713 129.447 26.313L125.229 26.313C125.63 26.9067 126.067 27.4146 126.541 27.8364ZM123.588 27.0317C123.171 27.4224 122.7 27.8052 122.174 28.1802L122.174 29.7505C122.747 29.6463 123.731 29.4276 125.127 29.0942C124.538 28.4901 124.025 27.8026 123.588 27.0317Z" fill="url(#paint13_linear_2204_5990)"/>
<path d="M74.1895 27.3286L73.6895 27.3286L73.6895 27.8286L74.1895 27.8286L74.1895 27.3286ZM74.1895 17.5005L74.1895 17.0005L73.6895 17.0005L73.6895 17.5005L74.1895 17.5005ZM82.752 17.5005L83.252 17.5005L83.252 17.0005L82.752 17.0005L82.752 17.5005ZM82.752 27.2036L82.752 27.7036L83.252 27.7036L83.252 27.2036L82.752 27.2036ZM80.6895 27.2036L80.1895 27.2036L80.1895 27.7036L80.6895 27.7036L80.6895 27.2036ZM80.6895 19.5474L81.1895 19.5474L81.1895 19.0474L80.6895 19.0474L80.6895 19.5474ZM76.252 19.5474L76.252 19.0474L75.752 19.0474L75.752 19.5474L76.252 19.5474ZM76.252 27.3286L76.252 27.8286L76.752 27.8286L76.752 27.3286L76.252 27.3286ZM68.8457 31.6411L68.3652 31.7793L68.5265 32.34L69.0558 32.0948L68.8457 31.6411ZM68.1895 29.3599L68.0236 28.8882L67.5785 29.0447L67.7089 29.4981L68.1895 29.3599ZM70.0332 28.7114L70.1991 29.1831L70.5332 29.0656L70.5332 28.7114L70.0332 28.7114ZM70.0332 24.8755L70.5332 24.8755L70.5332 24.3755L70.0332 24.3755L70.0332 24.8755ZM68.5176 24.8755L68.0176 24.8755L68.0176 25.3755L68.5176 25.3755L68.5176 24.8755ZM68.5176 22.813L68.5176 22.313L68.0176 22.313L68.0176 22.813L68.5176 22.813ZM70.0332 22.813L70.0332 23.313L70.5332 23.313L70.5332 22.813L70.0332 22.813ZM70.0332 19.7817L70.5332 19.7817L70.5332 19.2817L70.0332 19.2817L70.0332 19.7817ZM68.4082 19.7817L67.9082 19.7817L67.9082 20.2817L68.4082 20.2817L68.4082 19.7817ZM68.4082 17.7192L68.4082 17.2192L67.9082 17.2192L67.9082 17.7192L68.4082 17.7192ZM73.7363 17.7192L74.2363 17.7192L74.2363 17.2192L73.7363 17.2192L73.7363 17.7192ZM73.7363 19.7817L73.7363 20.2817L74.2363 20.2817L74.2363 19.7817L73.7363 19.7817ZM72.0645 19.7817L72.0645 19.2817L71.5645 19.2817L71.5645 19.7817L72.0645 19.7817ZM72.0645 22.813L71.5645 22.813L71.5645 23.313L72.0645 23.313L72.0645 22.813ZM73.5176 22.813L74.0176 22.813L74.0176 22.313L73.5176 22.313L73.5176 22.813ZM73.5176 24.8755L73.5176 25.3755L74.0176 25.3755L74.0176 24.8755L73.5176 24.8755ZM72.0645 24.8755L72.0645 24.3755L71.5645 24.3755L71.5645 24.8755L72.0645 24.8755ZM72.0645 27.9302L71.5645 27.9302L71.5645 28.6722L72.2522 28.3936L72.0645 27.9302ZM73.5957 27.2505L74.0948 27.2204L74.0493 26.4647L73.3721 26.8033L73.5957 27.2505ZM73.7988 29.4849L73.9888 29.9474L74.3454 29.8009L74.2944 29.4188L73.7988 29.4849ZM81.7676 27.7505L81.9841 27.2998L81.3139 26.9778L81.2685 27.72L81.7676 27.7505ZM83.7676 28.6099L84.263 28.6771L84.3178 28.2738L83.934 28.1384L83.7676 28.6099ZM82.9082 31.6099L82.5719 31.2399L82.5691 31.2425L82.9082 31.6099ZM78.1895 28.2583L78.6895 28.2583L77.744 28.0313L78.1895 28.2583ZM74.1582 32.4067L73.7582 32.7067L74.0307 33.07L74.4184 32.8337L74.1582 32.4067ZM72.627 30.5942L72.4009 30.1483L71.8075 30.4491L72.2614 30.9354L72.627 30.5942ZM76.4004 27.3521L75.9594 27.1165L75.959 27.1172L76.4004 27.3521ZM77.3613 20.5005L77.3613 20.0005L76.8598 20.0005L76.8613 20.502L77.3613 20.5005ZM79.4707 20.5005L79.9707 20.5051L79.9753 20.0005L79.4707 20.0005L79.4707 20.5005ZM78.9395 26.0786L78.452 25.9672L78.3123 26.5786L78.9395 26.5786L78.9395 26.0786ZM80.1582 26.0786L80.6582 26.0786L80.6582 25.5786L80.1582 25.5786L80.1582 26.0786ZM81.4941 29.8989L81.0393 29.6913L81.0372 29.6959L81.4941 29.8989ZM74.1895 27.3286L74.6895 27.3286L74.6895 17.5005L74.1895 17.5005L73.6895 17.5005L73.6895 27.3286L74.1895 27.3286ZM74.1895 17.5005L74.1895 18.0005L82.752 18.0005L82.752 17.5005L82.752 17.0005L74.1895 17.0005L74.1895 17.5005ZM82.752 17.5005L82.252 17.5005L82.252 27.2036L82.752 27.2036L83.252 27.2036L83.252 17.5005L82.752 17.5005ZM82.752 27.2036L82.752 26.7036L80.6895 26.7036L80.6895 27.2036L80.6895 27.7036L82.752 27.7036L82.752 27.2036ZM80.6895 27.2036L81.1895 27.2036L81.1895 19.5474L80.6895 19.5474L80.1895 19.5474L80.1895 27.2036L80.6895 27.2036ZM80.6895 19.5474L80.6895 19.0474L76.252 19.0474L76.252 19.5474L76.252 20.0474L80.6895 20.0474L80.6895 19.5474ZM76.252 19.5474L75.752 19.5474L75.752 27.3286L76.252 27.3286L76.752 27.3286L76.752 19.5474L76.252 19.5474ZM76.252 27.3286L76.252 26.8286L74.1895 26.8286L74.1895 27.3286L74.1895 27.8286L76.252 27.8286L76.252 27.3286ZM68.8457 31.6411L69.3262 31.5029L68.67 29.2216L68.1895 29.3599L67.7089 29.4981L68.3652 31.7793L68.8457 31.6411ZM68.1895 29.3599L68.3553 29.8315L70.1991 29.1831L70.0332 28.7114L69.8673 28.2397L68.0236 28.8882L68.1895 29.3599ZM70.0332 28.7114L70.5332 28.7114L70.5332 24.8755L70.0332 24.8755L69.5332 24.8755L69.5332 28.7114L70.0332 28.7114ZM70.0332 24.8755L70.0332 24.3755L68.5176 24.3755L68.5176 24.8755L68.5176 25.3755L70.0332 25.3755L70.0332 24.8755ZM68.5176 24.8755L69.0176 24.8755L69.0176 22.813L68.5176 22.813L68.0176 22.813L68.0176 24.8755L68.5176 24.8755ZM68.5176 22.813L68.5176 23.313L70.0332 23.313L70.0332 22.813L70.0332 22.313L68.5176 22.313L68.5176 22.813ZM70.0332 22.813L70.5332 22.813L70.5332 19.7817L70.0332 19.7817L69.5332 19.7817L69.5332 22.813L70.0332 22.813ZM70.0332 19.7817L70.0332 19.2817L68.4082 19.2817L68.4082 19.7817L68.4082 20.2817L70.0332 20.2817L70.0332 19.7817ZM68.4082 19.7817L68.9082 19.7817L68.9082 17.7192L68.4082 17.7192L67.9082 17.7192L67.9082 19.7817L68.4082 19.7817ZM68.4082 17.7192L68.4082 18.2192L73.7363 18.2192L73.7363 17.7192L73.7363 17.2192L68.4082 17.2192L68.4082 17.7192ZM73.7363 17.7192L73.2363 17.7192L73.2363 19.7817L73.7363 19.7817L74.2363 19.7817L74.2363 17.7192L73.7363 17.7192ZM73.7363 19.7817L73.7363 19.2817L72.0645 19.2817L72.0645 19.7817L72.0645 20.2817L73.7363 20.2817L73.7363 19.7817ZM72.0645 19.7817L71.5645 19.7817L71.5645 22.813L72.0645 22.813L72.5645 22.813L72.5645 19.7817L72.0645 19.7817ZM72.0645 22.813L72.0645 23.313L73.5176 23.313L73.5176 22.813L73.5176 22.313L72.0645 22.313L72.0645 22.813ZM73.5176 22.813L73.0176 22.813L73.0176 24.8755L73.5176 24.8755L74.0176 24.8755L74.0176 22.813L73.5176 22.813ZM73.5176 24.8755L73.5176 24.3755L72.0645 24.3755L72.0645 24.8755L72.0645 25.3755L73.5176 25.3755L73.5176 24.8755ZM72.0645 24.8755L71.5645 24.8755L71.5645 27.9302L72.0645 27.9302L72.5645 27.9302L72.5645 24.8755L72.0645 24.8755ZM72.0645 27.9302L72.2522 28.3936C72.8641 28.1456 73.3873 27.9137 73.8193 27.6977L73.5957 27.2505L73.3721 26.8033C72.9707 27.004 72.4731 27.2251 71.8767 27.4668L72.0645 27.9302ZM73.5957 27.2505L73.0966 27.2806C73.1492 28.1531 73.2178 28.9105 73.3032 29.5509L73.7988 29.4849L74.2944 29.4188C74.2132 28.8092 74.1464 28.0771 74.0948 27.2204L73.5957 27.2505ZM73.7988 29.4849L73.6089 29.0224C71.8528 29.7436 70.195 30.4653 68.6356 31.1874L68.8457 31.6411L69.0558 32.0948C70.6006 31.3795 72.2449 30.6636 73.9888 29.9474L73.7988 29.4849ZM81.7676 27.7505L81.551 28.2012C82.3613 28.5905 83.046 28.8854 83.6012 29.0814L83.7676 28.6099L83.934 28.1384C83.4266 27.9593 82.7781 27.6813 81.9841 27.2998L81.7676 27.7505ZM83.7676 28.6099L83.2721 28.5426C83.159 29.3755 83.034 30.0207 82.9002 30.4878C82.758 30.9842 82.6301 31.1869 82.5719 31.2399L82.9082 31.6099L83.2445 31.9798C83.5301 31.7203 83.7173 31.2667 83.8615 30.7632C84.0142 30.2303 84.147 29.5318 84.263 28.6771L83.7676 28.6099ZM82.9082 31.6099L82.5691 31.2425C82.3235 31.4691 82.0438 31.5786 81.7051 31.5786L81.7051 32.0786L81.7051 32.5786C82.2935 32.5786 82.8158 32.3756 83.2473 31.9773L82.9082 31.6099ZM81.7051 32.0786L81.7051 31.5786L80.0488 31.5786L80.0488 32.0786L80.0488 32.5786L81.7051 32.5786L81.7051 32.0786ZM80.0488 32.0786L80.0488 31.5786C79.4998 31.5786 79.181 31.4478 78.9986 31.2746C78.821 31.106 78.6895 30.8177 78.6895 30.313L78.1895 30.313L77.6895 30.313C77.6895 30.9854 77.8678 31.5798 78.31 31.9998C78.7474 32.4151 79.3582 32.5786 80.0488 32.5786L80.0488 32.0786ZM78.1895 30.313L78.6895 30.313L78.6895 28.2583L78.1895 28.2583L77.6895 28.2583L77.6895 30.313L78.1895 30.313ZM78.1895 28.2583L77.744 28.0313C76.9598 29.5702 75.6877 30.8889 73.898 31.9798L74.1582 32.4067L74.4184 32.8337C76.337 31.6642 77.7524 30.2173 78.635 28.4853L78.1895 28.2583ZM74.1582 32.4067L74.5582 32.1067C74.1083 31.5069 73.586 30.889 72.9925 30.2531L72.627 30.5942L72.2614 30.9354C72.8346 31.5495 73.3331 32.1399 73.7582 32.7067L74.1582 32.4067ZM72.627 30.5942L72.853 31.0402C74.7694 30.0687 76.1283 28.9276 76.8418 27.587L76.4004 27.3521L75.959 27.1172C75.3808 28.2036 74.224 29.224 72.4009 30.1483L72.627 30.5942ZM76.4004 27.3521L76.8414 27.5876C77.207 26.9033 77.4605 25.9611 77.6241 24.7945C77.7886 23.6212 77.8666 22.1876 77.8613 20.4989L77.3613 20.5005L76.8613 20.502C76.8665 22.1624 76.7895 23.5452 76.6338 24.6557C76.477 25.773 76.2448 26.5821 75.9594 27.1165L76.4004 27.3521ZM77.3613 20.5005L77.3613 21.0005L79.4707 21.0005L79.4707 20.5005L79.4707 20.0005L77.3613 20.0005L77.3613 20.5005ZM79.4707 20.5005L78.9707 20.4959C78.9501 22.7366 78.7744 24.5568 78.452 25.9672L78.9395 26.0786L79.4269 26.19C79.7712 24.6837 79.9497 22.7852 79.9707 20.5051L79.4707 20.5005ZM78.9395 26.0786L78.9395 26.5786L80.1582 26.5786L80.1582 26.0786L80.1582 25.5786L78.9395 25.5786L78.9395 26.0786ZM80.1582 26.0786L79.6582 26.0786L79.6582 29.563L80.1582 29.563L80.6582 29.563L80.6582 26.0786L80.1582 26.0786ZM80.1582 29.563L79.6582 29.563C79.6582 29.865 79.7309 30.1841 79.9646 30.426C80.2014 30.6711 80.5193 30.7505 80.8223 30.7505L80.8223 30.2505L80.8223 29.7505C80.6825 29.7505 80.6684 29.7153 80.6839 29.7312C80.6962 29.744 80.6582 29.7193 80.6582 29.563L80.1582 29.563ZM80.8223 30.2505L80.8223 30.7505C81.2834 30.7505 81.7385 30.5803 81.951 30.102L81.4941 29.8989L81.0372 29.6959C81.0323 29.7071 81.0287 29.7109 81.028 29.7116C81.0275 29.7122 81.0248 29.7151 81.0162 29.7196C80.9968 29.7297 80.9411 29.7505 80.8223 29.7505L80.8223 30.2505ZM81.4941 29.8989L81.949 30.1066C82.0398 29.9077 82.096 29.5951 82.1405 29.2453C82.1881 28.8717 82.2299 28.3822 82.2666 27.781L81.7676 27.7505L81.2685 27.72C81.2323 28.3115 81.1921 28.7765 81.1485 29.119C81.1267 29.2904 81.1048 29.4254 81.0834 29.5272C81.0728 29.5779 81.063 29.6171 81.0544 29.6465C81.0501 29.661 81.0465 29.672 81.0437 29.6799C81.0408 29.6879 81.0392 29.6914 81.0393 29.6913L81.4941 29.8989ZM93.6738 22.6255L93.3948 22.2106L92.0341 23.1255L93.6738 23.1255L93.6738 22.6255ZM99.2832 22.6255L99.7832 22.6255L99.7832 22.1255L99.2832 22.1255L99.2832 22.6255ZM99.0957 29.313L98.5964 29.2858L98.5961 29.2919L99.0957 29.313ZM96.7363 32.063L96.7017 31.5642L96.6994 31.5644L96.7363 32.063ZM94.7363 32.1567L94.2398 32.2156L94.2936 32.6689L94.7498 32.6566L94.7363 32.1567ZM94.3457 29.9849L94.8335 29.8751L94.584 28.7661L93.9351 29.6995L94.3457 29.9849ZM92.252 32.2974L91.9464 32.6932L92.2685 32.9417L92.5773 32.677L92.252 32.2974ZM90.3613 30.9536L90.0584 30.5558L89.4962 30.9839L90.087 31.3716L90.3613 30.9536ZM94.5645 24.5005L95.0541 24.6016L95.1782 24.0005L94.5645 24.0005L94.5645 24.5005ZM93.2988 24.5005L93.2988 24.0005L92.9168 24.0005L92.8164 24.3691L93.2988 24.5005ZM90.377 29.5474L90.0477 29.9237L90.3847 30.2185L90.7148 29.9159L90.377 29.5474ZM89.6426 28.9224L89.961 28.5369L89.1729 27.8858L89.1428 28.9077L89.6426 28.9224ZM89.6426 30.0786L89.7422 30.5686L90.1529 30.4851L90.1424 30.0661L89.6426 30.0786ZM84.6113 31.1724L84.1194 31.2618L84.2135 31.7792L84.7255 31.6592L84.6113 31.1724ZM84.2051 28.938L84.1201 28.4453L83.6229 28.531L83.7131 29.0274L84.2051 28.938ZM86.0332 28.6099L86.1248 29.1014L86.5332 29.0253L86.5332 28.6099L86.0332 28.6099ZM86.0332 23.0942L86.5332 23.0942L86.5332 22.5942L86.0332 22.5942L86.0332 23.0942ZM84.3613 23.0942L83.8613 23.0942L83.8613 23.5942L84.3613 23.5942L84.3613 23.0942ZM84.3613 20.9536L84.3613 20.4536L83.8613 20.4536L83.8613 20.9536L84.3613 20.9536ZM86.0332 20.9536L86.0332 21.4536L86.5332 21.4536L86.5332 20.9536L86.0332 20.9536ZM86.0332 17.0005L86.0332 16.5005L85.5332 16.5005L85.5332 17.0005L86.0332 17.0005ZM88.1113 17.0005L88.6113 17.0005L88.6113 16.5005L88.1113 16.5005L88.1113 17.0005ZM88.1113 20.9536L87.6113 20.9536L87.6113 21.4536L88.1113 21.4536L88.1113 20.9536ZM89.5957 20.9536L90.0957 20.9536L90.0957 20.4536L89.5957 20.4536L89.5957 20.9536ZM89.5957 23.0942L89.5957 23.5942L90.0957 23.5942L90.0957 23.0942L89.5957 23.0942ZM88.1113 23.0942L88.1113 22.5942L87.6113 22.5942L87.6113 23.0942L88.1113 23.0942ZM88.1113 28.2036L87.6113 28.2036L87.6113 28.8185L88.2133 28.6931L88.1113 28.2036ZM88.8457 28.0474L88.9519 28.536L89.0654 28.5113L89.1563 28.4392L88.8457 28.0474ZM91.3145 24.5005L91.7881 24.6606L92.0113 24.0005L91.3145 24.0005L91.3145 24.5005ZM89.9238 24.5005L89.4238 24.5005L89.4238 25.0005L89.9238 25.0005L89.9238 24.5005ZM89.9238 22.6411L89.652 22.2214L89.4238 22.3692L89.4238 22.6411L89.9238 22.6411ZM94.5801 19.6255L94.8519 20.0452L96.2719 19.1255L94.5801 19.1255L94.5801 19.6255ZM89.9082 19.6255L89.4082 19.6255L89.4082 20.1255L89.9082 20.1255L89.9082 19.6255ZM89.9082 17.7505L89.9082 17.2505L89.4082 17.2505L89.4082 17.7505L89.9082 17.7505ZM98.252 17.7505L98.752 17.7505L98.752 17.2505L98.252 17.2505L98.252 17.7505ZM98.252 19.5474L98.5309 19.9623L98.752 19.8137L98.752 19.5474L98.252 19.5474ZM97.1113 28.8599L96.6132 28.8163L96.6126 28.8247L97.1113 28.8599ZM97.3145 24.5005L97.8143 24.5118L97.8259 24.0005L97.3145 24.0005L97.3145 24.5005ZM96.502 24.5005L96.502 24.0005L96.0856 24.0005L96.0102 24.41L96.502 24.5005ZM94.3926 29.9224L93.9774 29.6437L93.4926 30.3659L94.3607 30.4213L94.3926 29.9224ZM93.6738 22.6255L93.6738 23.1255L99.2832 23.1255L99.2832 22.6255L99.2832 22.1255L93.6738 22.1255L93.6738 22.6255ZM99.2832 22.6255L98.7832 22.6255C98.7832 24.7826 98.721 27.0026 98.5964 29.2858L99.0957 29.313L99.595 29.3402C99.7204 27.04 99.7832 24.8018 99.7832 22.6255L99.2832 22.6255ZM99.0957 29.313L98.5961 29.2919C98.5624 30.0916 98.3661 30.6286 98.0717 30.9718C97.7859 31.3049 97.3529 31.519 96.7017 31.5642L96.7363 32.063L96.771 32.5618C97.6198 32.5028 98.33 32.2065 98.8306 31.6229C99.3227 31.0494 99.5561 30.2635 99.5953 29.3341L99.0957 29.313ZM96.7363 32.063L96.6994 31.5644C96.1469 31.6053 95.4884 31.6362 94.7228 31.6569L94.7363 32.1567L94.7498 32.6566C95.5259 32.6356 96.2007 32.604 96.7733 32.5616L96.7363 32.063ZM94.7363 32.1567L95.2328 32.0978C95.1573 31.4611 95.0235 30.7194 94.8335 29.8751L94.3457 29.9849L93.8579 30.0946C94.0429 30.917 94.1695 31.6232 94.2398 32.2156L94.7363 32.1567ZM94.3457 29.9849L93.9351 29.6995C93.366 30.5182 92.6969 31.2575 91.9266 31.9177L92.252 32.2974L92.5773 32.677C93.4112 31.9623 94.1379 31.1599 94.7563 30.2702L94.3457 29.9849ZM92.252 32.2974L92.5575 31.9016C91.953 31.435 91.3123 30.9797 90.6357 30.5356L90.3613 30.9536L90.087 31.3716C90.7437 31.8026 91.3634 32.2431 91.9464 32.6932L92.252 32.2974ZM90.3613 30.9536L90.6642 31.3514C93.0221 29.556 94.4963 27.3033 95.0541 24.6016L94.5645 24.5005L94.0748 24.3994C93.5701 26.8435 92.2422 28.8929 90.0584 30.5558L90.3613 30.9536ZM94.5645 24.5005L94.5645 24.0005L93.2988 24.0005L93.2988 24.5005L93.2988 25.0005L94.5645 25.0005L94.5645 24.5005ZM93.2988 24.5005L92.8164 24.3691C92.264 26.3978 91.3334 27.9924 90.0391 29.1788L90.377 29.5474L90.7148 29.9159C92.1705 28.5815 93.1878 26.8115 93.7813 24.6318L93.2988 24.5005ZM90.377 29.5474L90.7062 29.1711C90.4529 28.9494 90.2045 28.738 89.961 28.5369L89.6426 28.9224L89.3241 29.3078C89.5598 29.5026 89.801 29.7078 90.0477 29.9237L90.377 29.5474ZM89.6426 28.9224L89.1428 28.9077C89.1321 29.2723 89.1321 29.6669 89.1427 30.0911L89.6426 30.0786L90.1424 30.0661C90.1322 29.657 90.1323 29.2808 90.1424 28.9371L89.6426 28.9224ZM89.6426 30.0786L89.5429 29.5886C87.6953 29.9644 86.0133 30.3301 84.4972 30.6856L84.6113 31.1724L84.7255 31.6592C86.2302 31.3063 87.9024 30.9428 89.7422 30.5686L89.6426 30.0786ZM84.6113 31.1724L85.1033 31.0829L84.697 28.8485L84.2051 28.938L83.7131 29.0274L84.1194 31.2618L84.6113 31.1724ZM84.2051 28.938L84.29 29.4307C84.8965 29.3262 85.5081 29.2164 86.1248 29.1014L86.0332 28.6099L85.9416 28.1183C85.3292 28.2325 84.722 28.3415 84.1201 28.4453L84.2051 28.938ZM86.0332 28.6099L86.5332 28.6099L86.5332 23.0942L86.0332 23.0942L85.5332 23.0942L85.5332 28.6099L86.0332 28.6099ZM86.0332 23.0942L86.0332 22.5942L84.3613 22.5942L84.3613 23.0942L84.3613 23.5942L86.0332 23.5942L86.0332 23.0942ZM84.3613 23.0942L84.8613 23.0942L84.8613 20.9536L84.3613 20.9536L83.8613 20.9536L83.8613 23.0942L84.3613 23.0942ZM84.3613 20.9536L84.3613 21.4536L86.0332 21.4536L86.0332 20.9536L86.0332 20.4536L84.3613 20.4536L84.3613 20.9536ZM86.0332 20.9536L86.5332 20.9536L86.5332 17.0005L86.0332 17.0005L85.5332 17.0005L85.5332 20.9536L86.0332 20.9536ZM86.0332 17.0005L86.0332 17.5005L88.1113 17.5005L88.1113 17.0005L88.1113 16.5005L86.0332 16.5005L86.0332 17.0005ZM88.1113 17.0005L87.6113 17.0005L87.6113 20.9536L88.1113 20.9536L88.6113 20.9536L88.6113 17.0005L88.1113 17.0005ZM88.1113 20.9536L88.1113 21.4536L89.5957 21.4536L89.5957 20.9536L89.5957 20.4536L88.1113 20.4536L88.1113 20.9536ZM89.5957 20.9536L89.0957 20.9536L89.0957 23.0942L89.5957 23.0942L90.0957 23.0942L90.0957 20.9536L89.5957 20.9536ZM89.5957 23.0942L89.5957 22.5942L88.1113 22.5942L88.1113 23.0942L88.1113 23.5942L89.5957 23.5942L89.5957 23.0942ZM88.1113 23.0942L87.6113 23.0942L87.6113 28.2036L88.1113 28.2036L88.6113 28.2036L88.6113 23.0942L88.1113 23.0942ZM88.1113 28.2036L88.2133 28.6931C88.4647 28.6407 88.7109 28.5884 88.9519 28.536L88.8457 28.0474L88.7395 27.5588C88.5014 27.6105 88.258 27.6623 88.0094 27.7141L88.1113 28.2036ZM88.8457 28.0474L89.1563 28.4392C90.3909 27.4604 91.2688 26.1964 91.7881 24.6606L91.3145 24.5005L90.8408 24.3403C90.3809 25.7004 89.613 26.801 88.5351 27.6556L88.8457 28.0474ZM91.3145 24.5005L91.3145 24.0005L89.9238 24.0005L89.9238 24.5005L89.9238 25.0005L91.3145 25.0005L91.3145 24.5005ZM89.9238 24.5005L90.4238 24.5005L90.4238 22.6411L89.9238 22.6411L89.4238 22.6411L89.4238 24.5005L89.9238 24.5005ZM89.9238 22.6411L90.1956 23.0608L94.8519 20.0452L94.5801 19.6255L94.3083 19.2058L89.652 22.2214L89.9238 22.6411ZM94.5801 19.6255L94.5801 19.1255L89.9082 19.1255L89.9082 19.6255L89.9082 20.1255L94.5801 20.1255L94.5801 19.6255ZM89.9082 19.6255L90.4082 19.6255L90.4082 17.7505L89.9082 17.7505L89.4082 17.7505L89.4082 19.6255L89.9082 19.6255ZM89.9082 17.7505L89.9082 18.2505L98.252 18.2505L98.252 17.7505L98.252 17.2505L89.9082 17.2505L89.9082 17.7505ZM98.252 17.7505L97.752 17.7505L97.752 19.5474L98.252 19.5474L98.752 19.5474L98.752 17.7505L98.252 17.7505ZM98.252 19.5474L97.973 19.1324L93.3948 22.2106L93.6738 22.6255L93.9528 23.0404L98.5309 19.9623L98.252 19.5474ZM95.7363 29.9692L95.7363 30.4692C96.2311 30.4692 96.6911 30.3645 97.0425 30.081C97.4063 29.7875 97.577 29.3651 97.6101 28.895L97.1113 28.8599L96.6126 28.8247C96.5936 29.0942 96.509 29.2265 96.4146 29.3028C96.3076 29.3891 96.1061 29.4692 95.7363 29.4692L95.7363 29.9692ZM97.1113 28.8599L97.6094 28.9034C97.7045 27.8149 97.7726 26.3496 97.8143 24.5118L97.3145 24.5005L96.8146 24.4891C96.773 26.318 96.7056 27.759 96.6132 28.8163L97.1113 28.8599ZM97.3145 24.5005L97.3145 24.0005L96.502 24.0005L96.502 24.5005L96.502 25.0005L97.3145 25.0005L97.3145 24.5005ZM96.502 24.5005L96.0102 24.41C95.6352 26.4472 94.9544 28.1882 93.9774 29.6437L94.3926 29.9224L94.8077 30.201C95.8724 28.6149 96.5979 26.7412 96.9937 24.591L96.502 24.5005ZM94.3926 29.9224L94.3607 30.4213C94.8588 30.4531 95.3175 30.4692 95.7363 30.4692L95.7363 29.9692L95.7363 29.4692C95.3426 29.4692 94.9055 29.4541 94.4244 29.4234L94.3926 29.9224ZM100.611 31.6567L100.119 31.7455L100.205 32.222L100.684 32.1514L100.611 31.6567ZM100.236 29.5786L100.18 29.0818L99.6494 29.1417L99.7443 29.6674L100.236 29.5786ZM105.971 28.8442L106.47 28.8786L106.512 28.2623L105.9 28.3492L105.971 28.8442ZM105.924 29.7505L105.424 29.7333L105.406 30.2505L105.924 30.2505L105.924 29.7505ZM106.736 29.7505L106.736 30.2505L107.236 30.2505L107.236 29.7505L106.736 29.7505ZM106.736 20.8364L107.236 20.8364L107.236 19.0411L106.308 20.578L106.736 20.8364ZM103.408 25.938L103.001 25.6474L102.343 26.5686L103.467 26.4345L103.408 25.938ZM106.158 25.6099L106.654 25.6719L106.734 25.0377L106.099 25.1134L106.158 25.6099ZM105.986 27.4849L106.039 27.9821L106.468 27.937L106.486 27.5057L105.986 27.4849ZM101.221 28.1724L100.758 28.3614L100.938 28.8029L101.388 28.6437L101.221 28.1724ZM100.455 26.2974L100.208 25.8627L99.8262 26.0798L99.9922 26.4864L100.455 26.2974ZM102.861 23.4224L103.278 23.6991L103.827 22.8719L102.836 22.923L102.861 23.4224ZM100.814 23.6724L100.341 23.8341L100.5 24.2995L100.968 24.1481L100.814 23.6724ZM100.189 21.8442L99.923 21.4211L99.5884 21.6318L99.7163 22.006L100.189 21.8442ZM103.08 16.8442L103.26 16.3778L102.821 16.2085L102.625 16.636L103.08 16.8442ZM105.064 17.6099L105.5 17.856L105.785 17.3519L105.244 17.1434L105.064 17.6099ZM102.596 21.7349L102.174 21.4657L101.652 22.2841L102.621 22.2342L102.596 21.7349ZM103.963 21.6646L103.989 22.1639L104.257 22.1501L104.394 21.9184L103.963 21.6646ZM104.986 19.8286L105.202 19.3774L104.769 19.1705L104.544 19.595L104.986 19.8286ZM106.736 20.6646L106.521 21.1157L107.236 21.4575L107.236 20.6646L106.736 20.6646ZM106.736 17.6099L106.736 17.1099L106.236 17.1099L106.236 17.6099L106.736 17.6099ZM114.783 17.6099L115.283 17.6099L115.283 17.1099L114.783 17.1099L114.783 17.6099ZM114.783 29.7505L114.283 29.7505L114.283 30.2505L114.783 30.2505L114.783 29.7505ZM115.768 29.7505L116.268 29.7505L116.268 29.2505L115.768 29.2505L115.768 29.7505ZM115.768 31.7661L115.768 32.2661L116.268 32.2661L116.268 31.7661L115.768 31.7661ZM105.643 31.7661L105.143 31.7661L105.143 32.2661L105.643 32.2661L105.643 31.7661ZM105.643 30.9146L106.143 30.9146L106.143 30.3354L105.57 30.4199L105.643 30.9146ZM112.596 19.6255L113.096 19.6255L113.096 19.1255L112.596 19.1255L112.596 19.6255ZM108.924 19.6255L108.924 19.1255L108.424 19.1255L108.424 19.6255L108.924 19.6255ZM108.924 21.6724L108.424 21.6724L108.424 22.1724L108.924 22.1724L108.924 21.6724ZM112.596 21.6724L112.596 22.1724L113.096 22.1724L113.096 21.6724L112.596 21.6724ZM108.924 25.688L108.424 25.688L108.424 26.188L108.924 26.188L108.924 25.688ZM112.596 25.688L112.596 26.188L113.096 26.188L113.096 25.688L112.596 25.688ZM112.596 23.6411L113.096 23.6411L113.096 23.1411L112.596 23.1411L112.596 23.6411ZM108.924 23.6411L108.924 23.1411L108.424 23.1411L108.424 23.6411L108.924 23.6411ZM108.924 29.7505L108.424 29.7505L108.424 30.2505L108.924 30.2505L108.924 29.7505ZM112.596 29.7505L112.596 30.2505L113.096 30.2505L113.096 29.7505L112.596 29.7505ZM112.596 27.6567L113.096 27.6567L113.096 27.1567L112.596 27.1567L112.596 27.6567ZM108.924 27.6567L108.924 27.1567L108.424 27.1567L108.424 27.6567L108.924 27.6567ZM100.611 31.6567L101.103 31.5679L100.728 29.4898L100.236 29.5786L99.7443 29.6674L100.119 31.7455L100.611 31.6567ZM100.236 29.5786L100.292 30.0755C102.141 29.8665 104.058 29.6211 106.041 29.3393L105.971 28.8442L105.9 28.3492C103.926 28.6298 102.019 28.874 100.18 29.0818L100.236 29.5786ZM105.971 28.8442L105.472 28.8098C105.451 29.1176 105.435 29.4254 105.424 29.7333L105.924 29.7505L106.424 29.7677C106.434 29.4714 106.449 29.175 106.47 28.8786L105.971 28.8442ZM105.924 29.7505L105.924 30.2505L106.736 30.2505L106.736 29.7505L106.736 29.2505L105.924 29.2505L105.924 29.7505ZM106.736 29.7505L107.236 29.7505L107.236 20.8364L106.736 20.8364L106.236 20.8364L106.236 29.7505L106.736 29.7505ZM106.736 20.8364L106.308 20.578C105.163 22.4754 104.06 24.1649 103.001 25.6474L103.408 25.938L103.815 26.2286C104.892 24.7215 106.008 23.0099 107.164 21.0949L106.736 20.8364ZM103.408 25.938L103.467 26.4345L106.217 26.1063L106.158 25.6099L106.099 25.1134L103.349 25.4415L103.408 25.938ZM106.158 25.6099L105.662 25.5478C105.567 26.3054 105.508 26.9452 105.487 27.464L105.986 27.4849L106.486 27.5057C106.506 27.0245 106.562 26.4143 106.654 25.6719L106.158 25.6099ZM105.986 27.4849L105.934 26.9876C104.593 27.1285 103.519 27.2569 102.716 27.3728C101.93 27.4861 101.358 27.5932 101.054 27.701L101.221 28.1724L101.388 28.6437C101.583 28.5744 102.056 28.4784 102.859 28.3626C103.644 28.2493 104.703 28.1225 106.039 27.9821L105.986 27.4849ZM101.221 28.1724L101.684 27.9833L100.918 26.1083L100.455 26.2974L99.9922 26.4864L100.758 28.3614L101.221 28.1724ZM100.455 26.2974L100.702 26.732C101.05 26.5343 101.431 26.1603 101.839 25.673C102.256 25.1742 102.736 24.5144 103.278 23.6991L102.861 23.4224L102.445 23.1456C101.914 23.945 101.456 24.5715 101.072 25.0311C100.677 25.5022 100.392 25.7583 100.208 25.8627L100.455 26.2974ZM102.861 23.4224L102.836 22.923C101.832 22.9748 101.086 23.059 100.661 23.1966L100.814 23.6724L100.968 24.1481C101.251 24.0566 101.87 23.9741 102.887 23.9217L102.861 23.4224ZM100.814 23.6724L101.288 23.5106L100.663 21.6825L100.189 21.8442L99.7163 22.006L100.341 23.8341L100.814 23.6724ZM100.189 21.8442L100.456 22.2674C100.675 22.1292 100.885 21.8992 101.086 21.6338C101.293 21.3589 101.52 21.0051 101.767 20.5789C102.26 19.7257 102.85 18.5479 103.535 17.0525L103.08 16.8442L102.625 16.636C101.946 18.1197 101.371 19.2649 100.901 20.0784C100.666 20.4854 100.461 20.801 100.288 21.0312C100.106 21.2711 99.9849 21.3822 99.923 21.4211L100.189 21.8442ZM103.08 16.8442L102.9 17.3107L104.884 18.0763L105.064 17.6099L105.244 17.1434L103.26 16.3778L103.08 16.8442ZM105.064 17.6099L104.629 17.3637C103.779 18.8677 102.96 20.2349 102.174 21.4657L102.596 21.7349L103.017 22.004C103.814 20.7557 104.642 19.3729 105.5 17.856L105.064 17.6099ZM102.596 21.7349L102.621 22.2342L103.989 22.1639L103.963 21.6646L103.937 21.1652L102.57 21.2355L102.596 21.7349ZM103.963 21.6646L104.394 21.9184C104.742 21.328 105.086 20.7092 105.428 20.0622L104.986 19.8286L104.544 19.595C104.209 20.2293 103.872 20.8345 103.532 21.4107L103.963 21.6646ZM104.986 19.8286L104.771 20.2798L106.521 21.1157L106.736 20.6646L106.952 20.2134L105.202 19.3774L104.986 19.8286ZM106.736 20.6646L107.236 20.6646L107.236 17.6099L106.736 17.6099L106.236 17.6099L106.236 20.6646L106.736 20.6646ZM106.736 17.6099L106.736 18.1099L114.783 18.1099L114.783 17.6099L114.783 17.1099L106.736 17.1099L106.736 17.6099ZM114.783 17.6099L114.283 17.6099L114.283 29.7505L114.783 29.7505L115.283 29.7505L115.283 17.6099L114.783 17.6099ZM114.783 29.7505L114.783 30.2505L115.768 30.2505L115.768 29.7505L115.768 29.2505L114.783 29.2505L114.783 29.7505ZM115.768 29.7505L115.268 29.7505L115.268 31.7661L115.768 31.7661L116.268 31.7661L116.268 29.7505L115.768 29.7505ZM115.768 31.7661L115.768 31.2661L105.643 31.2661L105.643 31.7661L105.643 32.2661L115.768 32.2661L115.768 31.7661ZM105.643 31.7661L106.143 31.7661L106.143 30.9146L105.643 30.9146L105.143 30.9146L105.143 31.7661L105.643 31.7661ZM105.643 30.9146L105.57 30.4199L100.538 31.1621L100.611 31.6567L100.684 32.1514L105.716 31.4092L105.643 30.9146ZM112.596 19.6255L112.596 19.1255L108.924 19.1255L108.924 19.6255L108.924 20.1255L112.596 20.1255L112.596 19.6255ZM108.924 19.6255L108.424 19.6255L108.424 21.6724L108.924 21.6724L109.424 21.6724L109.424 19.6255L108.924 19.6255ZM108.924 21.6724L108.924 22.1724L112.596 22.1724L112.596 21.6724L112.596 21.1724L108.924 21.1724L108.924 21.6724ZM112.596 21.6724L113.096 21.6724L113.096 19.6255L112.596 19.6255L112.096 19.6255L112.096 21.6724L112.596 21.6724ZM108.924 25.688L108.924 26.188L112.596 26.188L112.596 25.688L112.596 25.188L108.924 25.188L108.924 25.688ZM112.596 25.688L113.096 25.688L113.096 23.6411L112.596 23.6411L112.096 23.6411L112.096 25.688L112.596 25.688ZM112.596 23.6411L112.596 23.1411L108.924 23.1411L108.924 23.6411L108.924 24.1411L112.596 24.1411L112.596 23.6411ZM108.924 23.6411L108.424 23.6411L108.424 25.688L108.924 25.688L109.424 25.688L109.424 23.6411L108.924 23.6411ZM108.924 29.7505L108.924 30.2505L112.596 30.2505L112.596 29.7505L112.596 29.2505L108.924 29.2505L108.924 29.7505ZM112.596 29.7505L113.096 29.7505L113.096 27.6567L112.596 27.6567L112.096 27.6567L112.096 29.7505L112.596 29.7505ZM112.596 27.6567L112.596 27.1567L108.924 27.1567L108.924 27.6567L108.924 28.1567L112.596 28.1567L112.596 27.6567ZM108.924 27.6567L108.424 27.6567L108.424 29.7505L108.924 29.7505L109.424 29.7505L109.424 27.6567L108.924 27.6567ZM116.877 23.9067L116.4 24.0583L116.57 24.5925L117.082 24.3629L116.877 23.9067ZM116.221 21.8442L116.055 21.3724L115.597 21.533L115.744 21.9958L116.221 21.8442ZM120.205 20.3208L120.398 20.7819L120.705 20.6533L120.705 20.3208L120.205 20.3208ZM120.205 16.938L120.205 16.438L119.705 16.438L119.705 16.938L120.205 16.938ZM122.221 16.938L122.721 16.938L122.721 16.438L122.221 16.438L122.221 16.938ZM122.221 23.8442L122.221 24.3442L122.721 24.3442L122.721 23.8442L122.221 23.8442ZM120.205 23.8442L119.705 23.8442L119.705 24.3442L120.205 24.3442L120.205 23.8442ZM120.205 22.4927L120.705 22.4927L120.705 21.7542L120.019 22.0284L120.205 22.4927ZM123.018 21.6567L123.018 21.1567L122.518 21.1567L122.518 21.6567L123.018 21.6567ZM126.002 21.6567L126.002 22.1567L126.502 22.1567L126.502 21.6567L126.002 21.6567ZM126.002 20.3442L126.502 20.3442L126.502 19.8442L126.002 19.8442L126.002 20.3442ZM122.611 20.3442L122.111 20.3442L122.111 20.8442L122.611 20.8442L122.611 20.3442ZM122.611 18.6099L122.611 18.1099L122.111 18.1099L122.111 18.6099L122.611 18.6099ZM126.002 18.6099L126.002 19.1099L126.502 19.1099L126.502 18.6099L126.002 18.6099ZM126.002 16.9692L126.002 16.4692L125.502 16.4692L125.502 16.9692L126.002 16.9692ZM128.08 16.9692L128.58 16.9692L128.58 16.4692L128.08 16.4692L128.08 16.9692ZM128.08 18.6099L127.58 18.6099L127.58 19.1099L128.08 19.1099L128.08 18.6099ZM131.455 18.6099L131.955 18.6099L131.955 18.1099L131.455 18.1099L131.455 18.6099ZM131.455 20.3442L131.455 20.8442L131.955 20.8442L131.955 20.3442L131.455 20.3442ZM128.08 20.3442L128.08 19.8442L127.58 19.8442L127.58 20.3442L128.08 20.3442ZM128.08 21.6567L127.58 21.6567L127.58 22.1567L128.08 22.1567L128.08 21.6567ZM131.096 21.6567L131.596 21.6567L131.596 21.1567L131.096 21.1567L131.096 21.6567ZM131.096 23.3911L131.096 23.8911L131.596 23.8911L131.596 23.3911L131.096 23.3911ZM123.018 23.3911L122.518 23.3911L122.518 23.8911L123.018 23.8911L123.018 23.3911ZM118.018 17.2974L118.346 16.9201L118.025 16.6411L117.698 16.9129L118.018 17.2974ZM120.033 19.1724L120.362 19.5487L120.772 19.1902L120.38 18.8124L120.033 19.1724ZM118.533 20.4849L118.16 20.8176L118.49 21.1874L118.862 20.8612L118.533 20.4849ZM116.627 18.4536L116.307 18.0691L115.881 18.4233L116.277 18.8109L116.627 18.4536ZM130.658 27.9692L130.857 28.4279L131.398 28.1931L131.078 27.6979L130.658 27.9692ZM128.26 28.9458L128.079 28.4796L126.99 28.9017L128.047 29.3983L128.26 28.9458ZM131.768 30.0161L132.169 30.3145L132.644 29.6751L131.862 29.5251L131.768 30.0161ZM130.33 32.0786L130.174 32.5537L130.545 32.6755L130.753 32.345L130.33 32.0786ZM125.463 29.4302L125.805 29.0653L125.077 28.3835L124.966 29.3746L125.463 29.4302ZM125.33 31.2192L125.412 31.7124L125.825 31.6436L125.83 31.2251L125.33 31.2192ZM120.502 32.4067L120.067 32.6535L120.312 33.0844L120.745 32.8438L120.502 32.4067ZM119.518 30.6724L119.226 30.2662L118.861 30.5283L119.083 30.9192L119.518 30.6724ZM120.158 29.7036L120.657 29.733L120.658 29.7183L120.658 29.7036L120.158 29.7036ZM120.158 29.4224L120.658 29.4224L120.658 28.5809L119.919 28.9832L120.158 29.4224ZM117.221 30.813L116.761 31.0099L116.956 31.4644L117.413 31.2747L117.221 30.813ZM116.221 28.8286L116.077 28.3497L115.471 28.5314L115.788 29.0789L116.221 28.8286ZM121.775 26.313L122.058 26.7251L123.387 25.813L121.775 25.813L121.775 26.313ZM116.33 26.313L115.83 26.313L115.83 26.813L116.33 26.813L116.33 26.313ZM116.33 24.5786L116.33 24.0786L115.83 24.0786L115.83 24.5786L116.33 24.5786ZM123.041 24.5786L123.041 25.0786L123.74 25.0786L123.514 24.4173L123.041 24.5786ZM122.814 23.938L122.75 23.4421L122.129 23.5226L122.345 24.1108L122.814 23.938ZM124.986 23.6567L125.463 23.5071L125.338 23.107L124.922 23.1609L124.986 23.6567ZM125.275 24.5786L124.798 24.7282L124.908 25.0786L125.275 25.0786L125.275 24.5786ZM131.658 24.5786L132.158 24.5786L132.158 24.0786L131.658 24.0786L131.658 24.5786ZM131.658 26.313L131.658 26.813L132.158 26.813L132.158 26.313L131.658 26.313ZM129.588 26.313L129.588 25.813L128.669 25.813L129.168 26.5844L129.588 26.313ZM126.541 27.8364L126.209 28.2099L126.454 28.4284L126.752 28.2898L126.541 27.8364ZM129.447 26.313L129.711 26.738L131.203 25.813L129.447 25.813L129.447 26.313ZM125.229 26.313L125.229 25.813L124.287 25.813L124.814 26.5929L125.229 26.313ZM123.588 27.0317L124.023 26.7849L123.709 26.2326L123.246 26.667L123.588 27.0317ZM122.174 28.1802L121.884 27.773L121.674 27.9226L121.674 28.1802L122.174 28.1802ZM122.174 29.7505L121.674 29.7505L121.674 30.3496L122.263 30.2424L122.174 29.7505ZM125.127 29.0942L125.243 29.5806L126.099 29.376L125.485 28.7453L125.127 29.0942ZM116.877 23.9067L117.353 23.7551L116.697 21.6926L116.221 21.8442L115.744 21.9958L116.4 24.0583L116.877 23.9067ZM116.221 21.8442L116.386 22.3161C117.821 21.8132 119.159 21.3019 120.398 20.7819L120.205 20.3208L120.012 19.8597C118.793 20.371 117.474 20.8752 116.055 21.3724L116.221 21.8442ZM120.205 20.3208L120.705 20.3208L120.705 16.938L120.205 16.938L119.705 16.938L119.705 20.3208L120.205 20.3208ZM120.205 16.938L120.205 17.438L122.221 17.438L122.221 16.938L122.221 16.438L120.205 16.438L120.205 16.938ZM122.221 16.938L121.721 16.938L121.721 23.8442L122.221 23.8442L122.721 23.8442L122.721 16.938L122.221 16.938ZM122.221 23.8442L122.221 23.3442L120.205 23.3442L120.205 23.8442L120.205 24.3442L122.221 24.3442L122.221 23.8442ZM120.205 23.8442L120.705 23.8442L120.705 22.4927L120.205 22.4927L119.705 22.4927L119.705 23.8442L120.205 23.8442ZM120.205 22.4927L120.019 22.0284C118.919 22.4686 117.803 22.9427 116.672 23.4506L116.877 23.9067L117.082 24.3629C118.201 23.8604 119.304 23.3917 120.391 22.9569L120.205 22.4927ZM123.018 21.6567L123.018 22.1567L126.002 22.1567L126.002 21.6567L126.002 21.1567L123.018 21.1567L123.018 21.6567ZM126.002 21.6567L126.502 21.6567L126.502 20.3442L126.002 20.3442L125.502 20.3442L125.502 21.6567L126.002 21.6567ZM126.002 20.3442L126.002 19.8442L122.611 19.8442L122.611 20.3442L122.611 20.8442L126.002 20.8442L126.002 20.3442ZM122.611 20.3442L123.111 20.3442L123.111 18.6099L122.611 18.6099L122.111 18.6099L122.111 20.3442L122.611 20.3442ZM122.611 18.6099L122.611 19.1099L126.002 19.1099L126.002 18.6099L126.002 18.1099L122.611 18.1099L122.611 18.6099ZM126.002 18.6099L126.502 18.6099L126.502 16.9692L126.002 16.9692L125.502 16.9692L125.502 18.6099L126.002 18.6099ZM126.002 16.9692L126.002 17.4692L128.08 17.4692L128.08 16.9692L128.08 16.4692L126.002 16.4692L126.002 16.9692ZM128.08 16.9692L127.58 16.9692L127.58 18.6099L128.08 18.6099L128.58 18.6099L128.58 16.9692L128.08 16.9692ZM128.08 18.6099L128.08 19.1099L131.455 19.1099L131.455 18.6099L131.455 18.1099L128.08 18.1099L128.08 18.6099ZM131.455 18.6099L130.955 18.6099L130.955 20.3442L131.455 20.3442L131.955 20.3442L131.955 18.6099L131.455 18.6099ZM131.455 20.3442L131.455 19.8442L128.08 19.8442L128.08 20.3442L128.08 20.8442L131.455 20.8442L131.455 20.3442ZM128.08 20.3442L127.58 20.3442L127.58 21.6567L128.08 21.6567L128.58 21.6567L128.58 20.3442L128.08 20.3442ZM128.08 21.6567L128.08 22.1567L131.096 22.1567L131.096 21.6567L131.096 21.1567L128.08 21.1567L128.08 21.6567ZM131.096 21.6567L130.596 21.6567L130.596 23.3911L131.096 23.3911L131.596 23.3911L131.596 21.6567L131.096 21.6567ZM131.096 23.3911L131.096 22.8911L123.018 22.8911L123.018 23.3911L123.018 23.8911L131.096 23.8911L131.096 23.3911ZM123.018 23.3911L123.518 23.3911L123.518 21.6567L123.018 21.6567L122.518 21.6567L122.518 23.3911L123.018 23.3911ZM118.018 17.2974L117.689 17.6747C118.159 18.0828 118.823 18.7007 119.686 19.5324L120.033 19.1724L120.38 18.8124C119.514 17.9773 118.835 17.3453 118.346 16.9201L118.018 17.2974ZM120.033 19.1724L119.704 18.7961L118.204 20.1086L118.533 20.4849L118.862 20.8612L120.362 19.5487L120.033 19.1724ZM118.533 20.4849L118.906 20.1521C118.132 19.2838 117.488 18.5973 116.977 18.0964L116.627 18.4536L116.277 18.8109C116.766 19.2891 117.393 19.9568 118.16 20.8176L118.533 20.4849ZM116.627 18.4536L116.947 18.8381L118.337 17.6818L118.018 17.2974L117.698 16.9129L116.307 18.0691L116.627 18.4536ZM130.658 27.9692L130.459 27.5106C129.795 27.7989 129.002 28.1218 128.079 28.4796L128.26 28.9458L128.44 29.412C129.372 29.051 130.178 28.7229 130.857 28.4279L130.658 27.9692ZM128.26 28.9458L128.047 29.3983C129.048 29.8688 130.26 30.2362 131.673 30.5072L131.768 30.0161L131.862 29.5251C130.504 29.2648 129.378 28.9186 128.472 28.4933L128.26 28.9458ZM131.768 30.0161L131.366 29.7178C130.758 30.5359 130.271 31.2347 129.907 31.8122L130.33 32.0786L130.753 32.345C131.098 31.7975 131.569 31.1214 132.169 30.3145L131.768 30.0161ZM130.33 32.0786L130.486 31.6036C128.436 30.9303 126.886 30.0779 125.805 29.0653L125.463 29.4302L125.121 29.7951C126.342 30.9387 128.037 31.8519 130.174 32.5537L130.33 32.0786ZM125.463 29.4302L124.966 29.3746C124.882 30.1265 124.836 30.7415 124.83 31.2134L125.33 31.2192L125.83 31.2251C125.835 30.8011 125.877 30.2234 125.96 29.4858L125.463 29.4302ZM125.33 31.2192L125.248 30.726C123.96 30.9406 122.904 31.1488 122.082 31.3509C121.273 31.5498 120.65 31.7525 120.259 31.9697L120.502 32.4067L120.745 32.8438C121.01 32.6964 121.52 32.5189 122.321 32.322C123.108 32.1283 124.137 31.9249 125.412 31.7124L125.33 31.2192ZM120.502 32.4067L120.937 32.1599L119.952 30.4256L119.518 30.6724L119.083 30.9192L120.067 32.6535L120.502 32.4067ZM119.518 30.6724L119.809 31.0785C120.285 30.7367 120.624 30.2921 120.657 29.733L120.158 29.7036L119.659 29.6743C119.65 29.8235 119.562 30.0247 119.226 30.2662L119.518 30.6724ZM120.158 29.7036L120.658 29.7036L120.658 29.4224L120.158 29.4224L119.658 29.4224L119.658 29.7036L120.158 29.7036ZM120.158 29.4224L119.919 28.9832C119.057 29.4528 118.093 29.909 117.029 30.3513L117.221 30.813L117.413 31.2747C118.504 30.8212 119.499 30.3503 120.397 29.8615L120.158 29.4224ZM117.221 30.813L117.68 30.616C117.391 29.9401 117.048 29.2609 116.654 28.5784L116.221 28.8286L115.788 29.0789C116.164 29.7296 116.488 30.3733 116.761 31.0099L117.221 30.813ZM116.221 28.8286L116.364 29.3075C118.639 28.6252 120.541 27.7673 122.058 26.7251L121.775 26.313L121.492 25.9008C120.083 26.8691 118.282 27.6883 116.077 28.3497L116.221 28.8286ZM121.775 26.313L121.775 25.813L116.33 25.813L116.33 26.313L116.33 26.813L121.775 26.813L121.775 26.313ZM116.33 26.313L116.83 26.313L116.83 24.5786L116.33 24.5786L115.83 24.5786L115.83 26.313L116.33 26.313ZM116.33 24.5786L116.33 25.0786L123.041 25.0786L123.041 24.5786L123.041 24.0786L116.33 24.0786L116.33 24.5786ZM123.041 24.5786L123.514 24.4173C123.435 24.1848 123.358 23.9674 123.284 23.7651L122.814 23.938L122.345 24.1108C122.417 24.3044 122.491 24.5141 122.568 24.74L123.041 24.5786ZM122.814 23.938L122.879 24.4338L125.051 24.1526L124.986 23.6567L124.922 23.1609L122.75 23.4421L122.814 23.938ZM124.986 23.6567L124.509 23.8063L124.798 24.7282L125.275 24.5786L125.752 24.429L125.463 23.5071L124.986 23.6567ZM125.275 24.5786L125.275 25.0786L131.658 25.0786L131.658 24.5786L131.658 24.0786L125.275 24.0786L125.275 24.5786ZM131.658 24.5786L131.158 24.5786L131.158 26.313L131.658 26.313L132.158 26.313L132.158 24.5786L131.658 24.5786ZM131.658 26.313L131.658 25.813L129.588 25.813L129.588 26.313L129.588 26.813L131.658 26.813L131.658 26.313ZM129.588 26.313L129.168 26.5844L130.238 28.2406L130.658 27.9692L131.078 27.6979L130.008 26.0416L129.588 26.313ZM126.541 27.8364L126.752 28.2898C127.96 27.7279 128.948 27.2107 129.711 26.738L129.447 26.313L129.184 25.888C128.467 26.332 127.518 26.8304 126.33 27.3831L126.541 27.8364ZM129.447 26.313L129.447 25.813L125.229 25.813L125.229 26.313L125.229 26.813L129.447 26.813L129.447 26.313ZM125.229 26.313L124.814 26.5929C125.236 27.2167 125.7 27.7571 126.209 28.2099L126.541 27.8364L126.873 27.4629C126.434 27.072 126.024 26.5967 125.643 26.0331L125.229 26.313ZM123.588 27.0317L123.246 26.667C122.847 27.0405 122.394 27.4093 121.884 27.773L122.174 28.1802L122.464 28.5873C123.006 28.201 123.495 27.8042 123.93 27.3965L123.588 27.0317ZM122.174 28.1802L121.674 28.1802L121.674 29.7505L122.174 29.7505L122.674 29.7505L122.674 28.1802L122.174 28.1802ZM122.174 29.7505L122.263 30.2424C122.851 30.1355 123.847 29.9138 125.243 29.5806L125.127 29.0942L125.011 28.6079C123.615 28.9413 122.642 29.1571 122.084 29.2586L122.174 29.7505ZM125.127 29.0942L125.485 28.7453C124.928 28.1733 124.44 27.5205 124.023 26.7849L123.588 27.0317L123.153 27.2785C123.611 28.0847 124.149 28.8068 124.769 29.4431L125.127 29.0942Z" fill="url(#paint14_linear_2204_5990)" mask="url(#path-11-outside-1_2204_5990)"/>
</g>
<g id="7" filter="url(#filter4_d_2204_5990)">
<path d="M51.5781 20.6763C50.7826 22.1024 50.188 23.2513 49.7944 24.123C49.4051 24.9948 49.0877 25.8433 48.8423 26.6685C48.5968 27.4937 48.4085 28.3569 48.2773 29.2583L46.0747 29.2583C46.2863 27.9761 46.6587 26.679 47.1919 25.3672C47.7293 24.0511 48.4699 22.6335 49.4136 21.1143L44.7227 21.1143L44.7227 19.4258L51.5781 19.4258L51.5781 20.6763Z" fill="white"/>
</g>
</g>
<defs>
<filter id="filter0_f_2204_5990" x="0.292969" y="0.0673828" width="170.988" height="15.3003" filterUnits="userSpaceOnUse" color-interpolation-filters="sRGB">
<feFlood flood-opacity="0" result="BackgroundImageFix"/>
<feBlend mode="normal" in="SourceGraphic" in2="BackgroundImageFix" result="shape"/>
<feGaussianBlur stdDeviation="3" result="effect1_foregroundBlur_2204_5990"/>
</filter>
<filter id="filter1_f_2204_5990" x="0.292969" y="33.0674" width="170.988" height="15.3003" filterUnits="userSpaceOnUse" color-interpolation-filters="sRGB">
<feFlood flood-opacity="0" result="BackgroundImageFix"/>
<feBlend mode="normal" in="SourceGraphic" in2="BackgroundImageFix" result="shape"/>
<feGaussianBlur stdDeviation="3" result="effect1_foregroundBlur_2204_5990"/>
</filter>
<filter id="filter2_f_2204_5990" x="4.29297" y="39.0674" width="162.988" height="5" filterUnits="userSpaceOnUse" color-interpolation-filters="sRGB">
<feFlood flood-opacity="0" result="BackgroundImageFix"/>
<feBlend mode="normal" in="SourceGraphic" in2="BackgroundImageFix" result="shape"/>
<feGaussianBlur stdDeviation="1" result="effect1_foregroundBlur_2204_5990"/>
</filter>
<filter id="filter3_f_2204_5990" x="4.29297" y="4.06738" width="162.988" height="5" filterUnits="userSpaceOnUse" color-interpolation-filters="sRGB">
<feFlood flood-opacity="0" result="BackgroundImageFix"/>
<feBlend mode="normal" in="SourceGraphic" in2="BackgroundImageFix" result="shape"/>
<feGaussianBlur stdDeviation="1" result="effect1_foregroundBlur_2204_5990"/>
</filter>
<filter id="filter4_d_2204_5990" x="43.7227" y="19.4258" width="8.85547" height="11.8325" filterUnits="userSpaceOnUse" color-interpolation-filters="sRGB">
<feFlood flood-opacity="0" result="BackgroundImageFix"/>
<feColorMatrix in="SourceAlpha" type="matrix" values="0 0 0 0 0 0 0 0 0 0 0 0 0 0 0 0 0 0 127 0" result="hardAlpha"/>
<feOffset dy="1"/>
<feGaussianBlur stdDeviation="0.5"/>
<feComposite in2="hardAlpha" operator="out"/>
<feColorMatrix type="matrix" values="0 0 0 0 1 0 0 0 0 0.517552 0 0 0 0 0.00183164 0 0 0 1 0"/>
<feBlend mode="normal" in2="BackgroundImageFix" result="effect1_dropShadow_2204_5990"/>
<feBlend mode="normal" in="SourceGraphic" in2="effect1_dropShadow_2204_5990" result="shape"/>
</filter>
<linearGradient id="paint0_linear_2204_5990" x1="6.29297" y1="24.0583" x2="165.281" y2="24.0583" gradientUnits="userSpaceOnUse">
<stop stop-color="#4F91FD"/>
<stop offset="0.525723" stop-color="#A2C9FF" stop-opacity="0.6"/>
<stop offset="1" stop-color="#488CFD"/>
</linearGradient>
<linearGradient id="paint1_linear_2204_5990" x1="6.29297" y1="24.0583" x2="165.281" y2="24.0583" gradientUnits="userSpaceOnUse">
<stop stop-color="#FFDB7E" stop-opacity="0.1"/>
<stop offset="0.525723" stop-color="#FFF677"/>
<stop offset="1" stop-color="#FFDB7E"/>
</linearGradient>
<linearGradient id="paint2_linear_2204_5990" x1="6.29297" y1="24.0583" x2="165.281" y2="24.0583" gradientUnits="userSpaceOnUse">
<stop stop-color="#FFC438"/>
<stop offset="1" stop-color="#FFB11F"/>
</linearGradient>
<linearGradient id="paint3_linear_2204_5990" x1="6.29297" y1="24.0583" x2="165.281" y2="24.0583" gradientUnits="userSpaceOnUse">
<stop stop-color="#FFC52D" stop-opacity="0.9"/>
<stop offset="0.525723" stop-color="#FFF677"/>
<stop offset="1" stop-color="#FFC52D" stop-opacity="0.9"/>
</linearGradient>
<linearGradient id="paint4_linear_2204_5990" x1="6.29297" y1="24.0583" x2="165.281" y2="24.0583" gradientUnits="userSpaceOnUse">
<stop stop-color="#FFB900"/>
<stop offset="1" stop-color="#FFAB0F"/>
</linearGradient>
<linearGradient id="paint5_linear_2204_5990" x1="6.29297" y1="7.71753" x2="165.281" y2="7.71753" gradientUnits="userSpaceOnUse">
<stop stop-color="white" stop-opacity="0.6"/>
<stop offset="0.525723" stop-color="#A2FFFD" stop-opacity="0.6"/>
<stop offset="1" stop-color="white" stop-opacity="0.6"/>
</linearGradient>
<linearGradient id="paint6_linear_2204_5990" x1="6.29297" y1="40.7175" x2="165.281" y2="40.7175" gradientUnits="userSpaceOnUse">
<stop stop-color="white" stop-opacity="0.6"/>
<stop offset="0.525723" stop-color="#A2FFFD" stop-opacity="0.6"/>
<stop offset="1" stop-color="white" stop-opacity="0.6"/>
</linearGradient>
<linearGradient id="paint7_linear_2204_5990" x1="6.29297" y1="41.5674" x2="165.281" y2="41.5674" gradientUnits="userSpaceOnUse">
<stop stop-color="white" stop-opacity="0.9"/>
<stop offset="0.525723" stop-color="#EBFFFF"/>
<stop offset="1" stop-color="white" stop-opacity="0.9"/>
</linearGradient>
<linearGradient id="paint8_linear_2204_5990" x1="6.29297" y1="6.56738" x2="165.281" y2="6.56738" gradientUnits="userSpaceOnUse">
<stop stop-color="white" stop-opacity="0.9"/>
<stop offset="0.525723" stop-color="#EBFFFF"/>
<stop offset="1" stop-color="white" stop-opacity="0.9"/>
</linearGradient>
<linearGradient id="paint9_linear_2204_5990" x1="146.061" y1="24.0422" x2="-12.9272" y2="24.0422" gradientUnits="userSpaceOnUse">
<stop stop-color="#FF8C00"/>
<stop offset="1" stop-color="#FFB700"/>
</linearGradient>
<linearGradient id="paint10_linear_2204_5990" x1="146.061" y1="24.0422" x2="-12.9272" y2="24.0422" gradientUnits="userSpaceOnUse">
<stop stop-color="#FFB11F"/>
<stop offset="1" stop-color="#FFD979"/>
</linearGradient>
<linearGradient id="paint11_linear_2204_5990" x1="54.9782" y1="24.2578" x2="36.9782" y2="24.2578" gradientUnits="userSpaceOnUse">
<stop stop-color="#FFA806"/>
<stop offset="1" stop-color="#FFE284"/>
</linearGradient>
<linearGradient id="paint12_linear_2204_5990" x1="48.1211" y1="37.143" x2="48.1211" y2="15.2578" gradientUnits="userSpaceOnUse">
<stop stop-color="#FFEAC4"/>
<stop offset="1" stop-color="#FFF5D4"/>
</linearGradient>
<linearGradient id="paint13_linear_2204_5990" x1="100.002" y1="17.2583" x2="100.002" y2="30.2583" gradientUnits="userSpaceOnUse">
<stop stop-color="#FFA908"/>
<stop offset="1" stop-color="#FF8C00"/>
</linearGradient>
<linearGradient id="paint14_linear_2204_5990" x1="100.002" y1="30.2583" x2="100.002" y2="17.2583" gradientUnits="userSpaceOnUse">
<stop stop-color="#FFCE78"/>
<stop offset="1" stop-color="#FFF5D4"/>
</linearGradient>
</defs>
</svg>
