
<svg width="47" height="46" viewBox="0 0 47 46" fill="none" xmlns="http://www.w3.org/2000/svg">
<g id="&#233;&#128;&#137;&#229;&#157;&#128;&#229;&#134;&#179;&#231;&#173;&#150;" clip-path="url(#clip0_2209_6443)">
<g id="&#233;&#128;&#137;&#229;&#157;&#128;&#229;&#134;&#179;&#231;&#173;&#150;_2">
<path id="Vector" d="M24 0.50293C28.2327 0.50293 31.9539 1.99438 35.1846 4.99707C38.2866 7.8802 39.8998 11.7252 39.9951 16.584L40 17.0566L40 17.0576C39.9999 20.3914 38.6851 24.065 35.9863 28.0889C33.3419 32.0317 29.3509 36.3132 23.999 40.9365C18.6491 36.3123 14.6599 32.0301 12.0156 28.0889C9.31693 24.0665 8.00148 20.3928 8 17.0576C8 11.9746 9.61675 7.97317 12.8174 4.99707C16.0466 1.99444 19.7673 0.50293 24 0.50293Z" fill="url(#paint0_linear_2209_6443)" stroke="url(#paint1_linear_2209_6443)"/>
<path id="Vector_2" d="M24 4.90723C28.2327 4.90723 31.9539 6.39868 35.1846 9.40137C38.2866 12.2845 39.8998 16.1295 39.9951 20.9883L40 21.4609L40 21.4619C39.9999 24.7957 38.6851 28.4693 35.9863 32.4932C33.3419 36.436 29.3509 40.7175 23.999 45.3408C18.6491 40.7166 14.6599 36.4344 12.0156 32.4932C9.31693 28.4708 8.00148 24.7971 8 21.4619C8 16.3789 9.61675 12.3775 12.8174 9.40137C16.0466 6.39874 19.7673 4.90723 24 4.90723Z" fill="url(#paint2_linear_2209_6443)" stroke="url(#paint3_linear_2209_6443)"/>
<path id="Vector_3" d="M23.9951 9.37891C27.2802 9.37896 30.167 10.5256 32.6758 12.8379C35.1555 15.1235 36.4103 18.1969 36.4082 22.1143L36.3955 22.5967C36.2762 25.0255 35.2594 27.6946 33.2861 30.6123C31.2357 33.644 28.1438 36.9397 23.9951 40.501C19.8473 36.9386 16.7556 33.6431 14.7051 30.6123C12.6004 27.5014 11.5831 24.672 11.582 22.1143L11.5967 21.3896C11.7437 17.8159 12.9917 14.9807 15.3154 12.8379C17.8231 10.5256 20.7099 9.37891 23.9951 9.37891Z" fill="url(#paint4_linear_2209_6443)" stroke="url(#paint5_linear_2209_6443)"/>
<path id="Vector_4" d="M23.9949 41.1611C19.6637 37.4755 16.429 34.0525 14.2909 30.8921C12.1527 27.7317 11.0831 24.8059 11.082 22.1146C11.082 18.0793 12.3803 14.8646 14.9769 12.4703C17.5734 10.076 20.5794 8.87891 23.9949 8.87891C27.4104 8.87891 30.4169 10.076 33.0145 12.4703C35.6122 14.8646 36.9099 18.0793 36.9078 22.1146C36.9078 24.8048 35.8387 27.7306 33.7005 30.8921C31.5624 34.0536 28.3272 37.4766 23.9949 41.1611Z" stroke="url(#paint6_linear_2209_6443)"/>
<path id="Vector_5" d="M23.9951 17.3857C24.9983 17.3882 25.8429 17.7422 26.5557 18.4609C27.2684 19.1798 27.6199 20.0323 27.6211 21.0459C27.6223 22.0587 27.2711 22.9116 26.5557 23.6318C25.8846 24.3074 25.1006 24.6598 24.1816 24.7012L23.9961 24.7051L23.9941 24.7051C23.0028 24.7099 22.159 24.3584 21.4385 23.6318C20.718 22.9052 20.3675 22.0521 20.3711 21.0469C20.3748 20.0388 20.727 19.1846 21.4404 18.459C22.1514 17.736 22.9939 17.3833 23.9951 17.3857Z" fill="url(#paint7_linear_2209_6443)" stroke="url(#paint8_linear_2209_6443)"/>
</g>
</g>
<defs>
<linearGradient id="paint0_linear_2209_6443" x1="24.0095" y1="13.0942" x2="23.9998" y2="0.00293018" gradientUnits="userSpaceOnUse">
<stop offset="0.158654" stop-color="#3A83FC"/>
<stop offset="1" stop-color="#A0C6FF"/>
</linearGradient>
<linearGradient id="paint1_linear_2209_6443" x1="24" y1="41.5988" x2="24" y2="0.00292971" gradientUnits="userSpaceOnUse">
<stop offset="0.158654" stop-color="#8BB7FF"/>
<stop offset="1" stop-color="white"/>
</linearGradient>
<linearGradient id="paint2_linear_2209_6443" x1="24" y1="46.0031" x2="24" y2="4.40723" gradientUnits="userSpaceOnUse">
<stop offset="0.158654" stop-color="#3A83FC"/>
<stop offset="1" stop-color="#A0C6FF"/>
</linearGradient>
<linearGradient id="paint3_linear_2209_6443" x1="24" y1="46.0031" x2="24" y2="4.40723" gradientUnits="userSpaceOnUse">
<stop offset="0.158654" stop-color="#BCD5FF"/>
<stop offset="1" stop-color="#EDF5FF"/>
</linearGradient>
<linearGradient id="paint4_linear_2209_6443" x1="23.9949" y1="41.1611" x2="23.9949" y2="8.87891" gradientUnits="userSpaceOnUse">
<stop offset="0.158654" stop-color="#5192FF"/>
<stop offset="1" stop-color="#C9DFFF"/>
</linearGradient>
<linearGradient id="paint5_linear_2209_6443" x1="23.9949" y1="41.1611" x2="23.9949" y2="8.87891" gradientUnits="userSpaceOnUse">
<stop offset="0.158654" stop-color="#4C93FF"/>
<stop offset="1" stop-color="#CCE1FF"/>
</linearGradient>
<linearGradient id="paint6_linear_2209_6443" x1="23.9949" y1="41.1611" x2="23.9949" y2="8.87891" gradientUnits="userSpaceOnUse">
<stop offset="0.158654" stop-color="#6FA8FF"/>
<stop offset="1" stop-color="#E9F2FF"/>
</linearGradient>
<linearGradient id="paint7_linear_2209_6443" x1="24.0056" y1="28.876" x2="23.9959" y2="4.40699" gradientUnits="userSpaceOnUse">
<stop stop-color="white"/>
<stop offset="1" stop-color="#D0E3FF"/>
</linearGradient>
<linearGradient id="paint8_linear_2209_6443" x1="23.9961" y1="4.40699" x2="23.9961" y2="46.0028" gradientUnits="userSpaceOnUse">
<stop stop-color="#9FC4FF"/>
<stop offset="1" stop-color="#5396FF"/>
</linearGradient>
<clipPath id="clip0_2209_6443">
<rect width="46" height="46" fill="white" transform="translate(0.5)"/>
</clipPath>
</defs>
</svg>
