
<svg width="47" height="46" viewBox="0 0 47 46" fill="none" xmlns="http://www.w3.org/2000/svg">
<g id="&#232;&#191;&#144;&#232;&#190;&#147;&#228;&#191;&#157;&#233;&#154;&#156;" clip-path="url(#clip0_2209_6604)">
<g id="&#232;&#191;&#144;&#232;&#190;&#147;&#228;&#191;&#157;&#233;&#154;&#156;_2">
<g id="Group">
<path id="Union" d="M30.0684 2.5L6.5 2.5C3.60643 2.5 1.23691 4.73467 1.01855 7.57227C1.7157 6.57085 2.80293 5.9041 4.01855 5.74219L4.08398 6.23828L4.08398 5.73828L30.0684 5.73828L30.2539 5.74219C31.1162 5.78618 31.9342 6.13639 32.5869 6.72656L32.7236 6.85645L32.7324 6.86523L32.8555 6.99316L32.8643 7.00293C32.9106 7.05377 32.9563 7.1052 33 7.1582L33 5.93652L32.9854 5.60938C32.917 4.85673 32.6147 4.15477 32.1338 3.62305L32.0195 3.50293C31.4634 2.95064 30.8134 2.5525 30.1924 2.50488L30.0684 2.5Z" fill="url(#paint0_linear_2209_6604)" stroke="url(#paint1_linear_2209_6604)" stroke-linejoin="round"/>
<g id="Vector">
<path d="M4.68164 7.5H27.5625C30.6001 7.5 33.0625 9.96243 33.0625 13V16H39.9746L46 24.1641V34.125H41.8184V34.625C41.8184 36.1857 41.2084 37.6811 40.125 38.7822C39.0419 39.883 37.5741 40.4999 36.0459 40.5C34.5176 40.5 33.05 39.883 31.9668 38.7822C30.8833 37.681 30.2725 36.1857 30.2725 34.625V34.125H16.7275V34.625C16.7275 36.1857 16.1167 37.681 15.0332 38.7822C13.95 39.883 12.4824 40.5 10.9541 40.5L10.6689 40.4932C9.24433 40.4214 7.89059 39.8144 6.875 38.7822C5.7916 37.6811 5.18164 36.1856 5.18164 34.625V34.125H1V11.25C1 10.2529 1.38979 9.29835 2.08105 8.5957C2.72904 7.93715 3.59216 7.55058 4.5 7.50488L4.68164 7.5ZM33.0625 24.5H44.3213L43.6963 23.6934L39.5771 18.3809L39.4268 18.1875H33.0625V24.5Z" fill="url(#paint2_linear_2209_6604)"/>
<path d="M4.68164 7.5H27.5625C30.6001 7.5 33.0625 9.96243 33.0625 13V16H39.9746L46 24.1641V34.125H41.8184V34.625C41.8184 36.1857 41.2084 37.6811 40.125 38.7822C39.0419 39.883 37.5741 40.4999 36.0459 40.5C34.5176 40.5 33.05 39.883 31.9668 38.7822C30.8833 37.681 30.2725 36.1857 30.2725 34.625V34.125H16.7275V34.625C16.7275 36.1857 16.1167 37.681 15.0332 38.7822C13.95 39.883 12.4824 40.5 10.9541 40.5L10.6689 40.4932C9.24433 40.4214 7.89059 39.8144 6.875 38.7822C5.7916 37.6811 5.18164 36.1856 5.18164 34.625V34.125H1V11.25C1 10.2529 1.38979 9.29835 2.08105 8.5957C2.72904 7.93715 3.59216 7.55058 4.5 7.50488L4.68164 7.5ZM33.0625 24.5H44.3213L43.6963 23.6934L39.5771 18.3809L39.4268 18.1875H33.0625V24.5Z" stroke="black"/>
<path d="M4.68164 7.5H27.5625C30.6001 7.5 33.0625 9.96243 33.0625 13V16H39.9746L46 24.1641V34.125H41.8184V34.625C41.8184 36.1857 41.2084 37.6811 40.125 38.7822C39.0419 39.883 37.5741 40.4999 36.0459 40.5C34.5176 40.5 33.05 39.883 31.9668 38.7822C30.8833 37.681 30.2725 36.1857 30.2725 34.625V34.125H16.7275V34.625C16.7275 36.1857 16.1167 37.681 15.0332 38.7822C13.95 39.883 12.4824 40.5 10.9541 40.5L10.6689 40.4932C9.24433 40.4214 7.89059 39.8144 6.875 38.7822C5.7916 37.6811 5.18164 36.1856 5.18164 34.625V34.125H1V11.25C1 10.2529 1.38979 9.29835 2.08105 8.5957C2.72904 7.93715 3.59216 7.55058 4.5 7.50488L4.68164 7.5ZM33.0625 24.5H44.3213L43.6963 23.6934L39.5771 18.3809L39.4268 18.1875H33.0625V24.5Z" stroke="url(#paint3_linear_2209_6604)"/>
</g>
<path id="Vector_2" d="M25.792 14.6777L15.1309 25.2939L9.20703 19.3945L11.1719 17.4238L14.7783 21.0146L15.1318 21.3662L15.4844 21.0146L23.8271 12.707L25.792 14.6777Z" fill="url(#paint4_linear_2209_6604)" stroke="url(#paint5_linear_2209_6604)"/>
</g>
<path id="Vector_3" d="M36.0771 31.25C37.0343 31.2524 37.8387 31.5868 38.5176 32.2656C39.1965 32.9445 39.5301 33.7486 39.5313 34.7041C39.5323 35.6585 39.1988 36.4625 38.5176 37.1426C37.8784 37.7806 37.1315 38.1133 36.2549 38.1523L36.0781 38.1563L36.0762 38.1563C35.1305 38.1609 34.3269 37.8289 33.6406 37.1426C32.9543 36.4563 32.6216 35.6524 32.625 34.7051C32.6285 33.7548 32.963 32.95 33.6426 32.2646C34.3197 31.5817 35.1219 31.2477 36.0771 31.25Z" fill="url(#paint6_linear_2209_6604)" stroke="url(#paint7_linear_2209_6604)"/>
<path id="Vector_4" d="M10.9209 31.25C11.878 31.2524 12.6825 31.5868 13.3613 32.2656C14.0402 32.9445 14.3738 33.7486 14.375 34.7041C14.3761 35.6585 14.0426 36.4625 13.3613 37.1426C12.7221 37.7806 11.9752 38.1133 11.0986 38.1523L10.9219 38.1563L10.9199 38.1563C9.97422 38.1609 9.17068 37.8289 8.48438 37.1426C7.79809 36.4563 7.46533 35.6524 7.46875 34.7051C7.47222 33.7548 7.8068 32.95 8.48633 32.2646C9.1635 31.5817 9.96562 31.2477 10.9209 31.25Z" fill="url(#paint8_linear_2209_6604)" stroke="url(#paint9_linear_2209_6604)"/>
</g>
</g>
<defs>
<linearGradient id="paint0_linear_2209_6604" x1="33.7149" y1="9.82504" x2="33.7149" y2="3.10174" gradientUnits="userSpaceOnUse">
<stop offset="0.158654" stop-color="#3A88FC"/>
<stop offset="1" stop-color="#A0C6FF"/>
</linearGradient>
<linearGradient id="paint1_linear_2209_6604" x1="18.7819" y1="9.82527" x2="18.7819" y2="2" gradientUnits="userSpaceOnUse">
<stop offset="0.158654" stop-color="#8BB9FF"/>
<stop offset="1" stop-color="white"/>
</linearGradient>
<linearGradient id="paint2_linear_2209_6604" x1="23.5" y1="41" x2="23.5" y2="7" gradientUnits="userSpaceOnUse">
<stop offset="0.158654" stop-color="#3A88FC"/>
<stop offset="1" stop-color="#A0C6FF"/>
</linearGradient>
<linearGradient id="paint3_linear_2209_6604" x1="23.5" y1="41" x2="23.5" y2="7" gradientUnits="userSpaceOnUse">
<stop offset="0.158654" stop-color="#BCD7FF"/>
<stop offset="1" stop-color="#EDF4FF"/>
</linearGradient>
<linearGradient id="paint4_linear_2209_6604" x1="17.5206" y1="32.1777" x2="17.5081" y2="-8.99983" gradientUnits="userSpaceOnUse">
<stop stop-color="white"/>
<stop offset="1" stop-color="#D0E3FF"/>
</linearGradient>
<linearGradient id="paint5_linear_2209_6604" x1="17.5" y1="-8.99983" x2="17.5" y2="60.9996" gradientUnits="userSpaceOnUse">
<stop stop-color="#9FC5FF"/>
<stop offset="1" stop-color="#5398FF"/>
</linearGradient>
<linearGradient id="paint6_linear_2209_6604" x1="36.0872" y1="42.145" x2="36.0781" y2="18.8907" gradientUnits="userSpaceOnUse">
<stop stop-color="white"/>
<stop offset="1" stop-color="#D0E3FF"/>
</linearGradient>
<linearGradient id="paint7_linear_2209_6604" x1="36.0781" y1="18.8907" x2="36.0781" y2="58.4216" gradientUnits="userSpaceOnUse">
<stop stop-color="#9FC5FF"/>
<stop offset="1" stop-color="#5398FF"/>
</linearGradient>
<linearGradient id="paint8_linear_2209_6604" x1="10.9309" y1="42.145" x2="10.9219" y2="18.8907" gradientUnits="userSpaceOnUse">
<stop stop-color="white"/>
<stop offset="1" stop-color="#D0E3FF"/>
</linearGradient>
<linearGradient id="paint9_linear_2209_6604" x1="10.9219" y1="18.8907" x2="10.9219" y2="58.4216" gradientUnits="userSpaceOnUse">
<stop stop-color="#9FC5FF"/>
<stop offset="1" stop-color="#5398FF"/>
</linearGradient>
<clipPath id="clip0_2209_6604">
<rect width="46" height="46" fill="white" transform="translate(0.5)"/>
</clipPath>
</defs>
</svg>
