
<svg width="47" height="46" viewBox="0 0 47 46" fill="none" xmlns="http://www.w3.org/2000/svg">
<g id="&#231;&#142;&#176;&#229;&#156;&#186;&#231;&#187;&#132;&#232;&#163;&#133;" clip-path="url(#clip0_2209_6597)">
<g id="&#231;&#142;&#176;&#229;&#156;&#186;&#231;&#187;&#132;&#232;&#163;&#133;_2">
<path id="Vector" d="M29.166 20.7568L38.0391 29.0117L38.0469 29.0186L38.21 29.1855C39.7895 30.8829 39.7898 33.4808 38.21 35.1777L38.0469 35.3438L35.7324 37.5869C33.9436 39.3224 31.03 39.3225 29.2412 37.5869L29.2334 37.5801V37.5791L29.208 37.5537C29.1912 37.5367 29.1663 37.5113 29.1338 37.4785C29.0685 37.4125 28.9727 37.3156 28.8506 37.1924C28.6064 36.9459 28.2574 36.5937 27.8379 36.1709C26.9985 35.3251 25.8763 34.1968 24.748 33.0674C23.6197 31.9379 22.4858 30.8078 21.6201 29.958C21.1869 29.5328 20.8224 29.1792 20.5605 28.9316C20.4293 28.8075 20.3269 28.7131 20.2559 28.6504C20.2494 28.6447 20.243 28.6397 20.2373 28.6348L19.6533 28.5186L20.0176 27.9102C21.7831 24.9603 23.9398 23.1451 25.6602 22.0674C26.5197 21.529 27.2708 21.1742 27.8105 20.9531C28.0804 20.8426 28.2981 20.766 28.4502 20.7158C28.5262 20.6907 28.586 20.6715 28.6279 20.6592C28.6486 20.6531 28.665 20.6488 28.6768 20.6455C28.6827 20.6439 28.6878 20.6426 28.6914 20.6416C28.6929 20.6412 28.6942 20.6409 28.6953 20.6406L28.6973 20.6396H28.6982L28.9648 20.5693L29.166 20.7568ZM25.0576 27.4434C24.8986 27.2851 24.617 27.2546 24.4033 27.3867L24.3164 27.4531C24.1457 27.6144 24.1246 27.8606 24.2529 28.043L24.3164 28.1162L24.3213 28.1211L31.7568 35.3213L31.7617 35.3262L31.8369 35.3857C32.0238 35.505 32.3018 35.4947 32.4922 35.3242C32.6921 35.1019 32.6614 34.8022 32.5039 34.6543L32.499 34.6484L25.0635 27.4482L25.0576 27.4434ZM28.293 24.2803C28.1341 24.1221 27.8523 24.0919 27.6387 24.2236L27.5518 24.29C27.381 24.4512 27.3593 24.6975 27.4873 24.8799L27.5518 24.9541L27.5557 24.958L35.0137 32.1582L35.0195 32.1631L35.0947 32.2236C35.2834 32.3436 35.5647 32.3314 35.7549 32.1562C35.9677 31.938 35.9367 31.6585 35.7598 31.5098L35.7461 31.499L35.7334 31.4863L28.2979 24.2861L28.293 24.2803ZM19.4873 21.2783L18.6514 20.5225L10.0576 12.7461L8.95703 13.8115L8.7207 14.04L8.41699 13.9131L0.307617 10.5342L0 10.4062V5.38965L0.152344 5.24219L5.94727 -0.365234L6.2959 -0.702148L6.64355 -0.364258L14.7305 7.48633L15.0977 7.84277L14.7324 8.20117L13.6562 9.25879L19.3389 14.8916L19.4873 15.0381V21.2783Z" fill="url(#paint0_linear_2209_6597)" stroke="url(#paint1_linear_2209_6597)"/>
<path id="Vector 28" d="M6.24219 -0.0380859V4.28868" stroke="#E8F1FF"/>
<path id="Vector_2" d="M12.4961 32.9873C12.1815 32.6843 11.729 32.6881 11.418 32.999C11.1027 33.3144 11.1027 33.7755 11.418 34.0908C11.7299 34.4029 12.1832 34.4054 12.498 34.0996C12.6347 33.9471 12.7119 33.75 12.7119 33.5449C12.7119 33.3386 12.6343 33.1402 12.4961 32.9873ZM38.8428 3.1875L37.1201 4.91016L35.9219 6.10938L34.9053 7.12598L35.6416 9.85352L38.3691 10.5732L39.3877 9.55469L40.5869 8.35645L42.1621 6.7793L42.3086 6.63281H46.8574L46.9521 7.0127C46.9878 7.15643 46.9874 7.29365 46.9873 7.37695H46.9883C47.1049 9.92696 46.1934 12.5283 44.2695 14.4326L44.2705 14.4336C42.6483 16.0798 40.5363 16.9701 38.4092 17.1572H38.4053C37.2584 17.2508 36.0391 17.1348 34.9082 16.7812L34.8906 16.7754L34.8721 16.7676C34.6706 16.6871 34.5158 16.6299 34.332 16.5732C34.1651 16.558 33.9591 16.5875 33.7383 16.7646L33.6357 16.8564C33.2533 17.239 28.1087 22.6459 23.0488 27.9688C20.5216 30.6273 18.0187 33.2617 16.1475 35.2314C15.2118 36.2164 14.4334 37.0359 13.8896 37.6084C13.6179 37.8945 13.4042 38.1194 13.2588 38.2725C13.1863 38.3488 13.1303 38.4078 13.0928 38.4473C13.0744 38.4666 13.0602 38.4812 13.0508 38.4912C13.0461 38.4962 13.0424 38.5004 13.04 38.5029L13.0361 38.5068C11.4393 40.3164 8.62859 40.1717 6.97363 38.541L6.96777 38.5352C5.34392 36.886 5.16425 34.0495 6.98145 32.4688L6.98242 32.4678C6.98494 32.4654 6.98916 32.4618 6.99414 32.457C7.0042 32.4474 7.01927 32.433 7.03906 32.4141C7.0787 32.3762 7.13808 32.3204 7.21484 32.2471C7.36833 32.1005 7.59311 31.8851 7.87988 31.6113C8.45368 31.0635 9.27425 30.2798 10.2607 29.3379C12.234 27.4538 14.8724 24.9346 17.5303 22.3965C22.8146 17.3503 28.1746 12.2295 28.5547 11.8633C28.7314 11.676 28.7968 11.5174 28.8193 11.3896C28.8373 11.2874 28.8327 11.1819 28.8105 11.0684L28.7822 10.9521L28.7646 10.8867V10.8799C28.7616 10.8692 28.7568 10.8574 28.7539 10.8438C28.3429 9.63271 28.208 8.36074 28.2998 7.09668V7.09473L28.3398 6.69434C28.582 4.69756 29.4827 2.76593 31.0195 1.22852L31.0215 1.22656L31.3936 0.87793C33.2846 -0.80013 35.6897 -1.57606 38.0312 -1.49316V-1.49414C38.0357 -1.49414 38.0404 -1.49322 38.0449 -1.49316C38.0465 -1.4931 38.0482 -1.49322 38.0498 -1.49316L38.0488 -1.49219C38.1186 -1.49102 38.1925 -1.48483 38.2363 -1.48047C38.3001 -1.47413 38.3286 -1.47168 38.3428 -1.47168H38.8428V3.1875Z" fill="url(#paint2_linear_2209_6597)" stroke="url(#paint3_linear_2209_6597)"/>
<path id="Vector 29" d="M42.6562 6.69238V11.0191" stroke="#E8F1FF"/>
<path id="Vector_3" d="M29.1455 25.585L38.0127 33.8457L38.0205 33.8525H38.0195C39.7591 35.5434 39.8136 38.2601 38.1826 40.0146L38.0195 40.1816L35.708 42.4268C33.9203 44.1638 31.0075 44.1637 29.2197 42.4268L29.1865 42.3936C29.1697 42.3765 29.1448 42.3513 29.1123 42.3184C29.047 42.2523 28.9511 42.1546 28.8291 42.0312C28.5851 41.7845 28.2366 41.4318 27.8174 41.0088C26.9786 40.1624 25.8579 39.0335 24.7305 37.9033C23.6028 36.7729 22.4687 35.6424 21.6035 34.792C21.1709 34.3667 20.8075 34.0133 20.5459 33.7656C20.4146 33.6413 20.3122 33.5462 20.2412 33.4834C20.2347 33.4777 20.2283 33.4727 20.2227 33.4678L19.6396 33.3516L20.0029 32.7432C21.7671 29.7913 23.9215 27.975 25.6406 26.8965C26.4997 26.3575 27.2505 26.0025 27.79 25.7812C28.0598 25.6706 28.2776 25.5932 28.4297 25.543C28.5055 25.5179 28.5656 25.4997 28.6074 25.4873C28.6281 25.4812 28.6445 25.4769 28.6562 25.4736C28.6622 25.472 28.6673 25.4707 28.6709 25.4697C28.6725 25.4693 28.6737 25.4681 28.6748 25.4678H28.6768C28.6769 25.4677 28.6772 25.4676 28.7227 25.6396L28.6777 25.4678L28.9443 25.3975L29.1455 25.585ZM25.04 32.2754C24.8815 32.117 24.6 32.0868 24.3867 32.2188L24.2998 32.2852C24.1291 32.4465 24.1074 32.6933 24.2354 32.876L24.2998 32.9502L24.3047 32.9541L31.7344 40.1602L31.7402 40.165L31.8145 40.2246C32.0013 40.3441 32.2797 40.3335 32.4697 40.1621C32.6686 39.9395 32.6378 39.6391 32.4805 39.4912L32.4746 39.4863L25.0449 32.2803L25.04 32.2754ZM28.2725 29.1104C28.1139 28.952 27.8325 28.9217 27.6191 29.0537L27.5322 29.1201C27.3614 29.2816 27.3405 29.5282 27.4688 29.7109L27.5322 29.7852L27.5361 29.7891L34.9893 36.9941L34.9951 37H34.9941C35.1742 37.1798 35.5122 37.1938 35.7295 36.9932C35.9422 36.7746 35.9104 36.4937 35.7334 36.3447L35.7197 36.334L35.707 36.3213L28.2773 29.1152L28.2725 29.1104ZM6.63965 4.44824L14.7207 12.3047L15.0869 12.6611L14.7227 13.0195L13.6465 14.0781L19.3262 19.7148L19.6865 20.0732L19.3232 20.4277L16.4268 23.2559L16.0742 23.6006L15.7246 23.2529L10.0342 17.584L8.95117 18.6328L8.60352 18.9707L8.25488 18.6328L0.152344 10.7773L-0.21875 10.418L0.152344 10.0596L5.94336 4.44727L6.29199 4.10938L6.63965 4.44824Z" fill="url(#paint4_linear_2209_6597)" stroke="url(#paint5_linear_2209_6597)"/>
<path id="Vector_4" d="M38.8447 8.02783L37.1221 9.75049L35.9238 10.9497L34.9072 11.9663L35.6436 14.6938L38.3711 15.4126L39.3896 14.395L40.5889 13.1968L42.1641 11.6196L42.3105 11.4731H46.8594L46.9541 11.853C46.9898 11.9968 46.9903 12.134 46.9902 12.2173L47 12.6958C46.989 15.0899 46.0751 17.4877 44.2715 19.2729L44.2725 19.2739C42.6502 20.9202 40.5383 21.8105 38.4111 21.9976H38.4082C37.2614 22.0912 36.0421 21.975 34.9111 21.6216L34.8926 21.6157L34.874 21.6079C34.6726 21.5274 34.5177 21.4702 34.334 21.4136C34.1671 21.3983 33.961 21.4278 33.7402 21.605L33.6377 21.6968C33.2559 22.0787 28.5921 27.0047 24.0117 31.8481C21.7243 34.2669 19.4609 36.6618 17.7695 38.4517C16.9241 39.3463 16.2217 40.0899 15.7305 40.6099C15.4848 40.8699 15.2915 41.0743 15.1602 41.2134C15.0948 41.2826 15.0446 41.3357 15.0107 41.3716C14.9938 41.3895 14.9803 41.4035 14.9717 41.4126C14.9675 41.4171 14.9641 41.4211 14.9619 41.4233L14.959 41.4263C13.3623 43.2371 10.5508 43.0925 8.89551 41.4614L8.88965 41.4556C7.26089 39.8013 7.08483 36.9524 8.91992 35.3745C8.92884 35.366 8.94064 35.354 8.95605 35.3394C8.99204 35.3052 9.04557 35.2542 9.11523 35.188C9.2547 35.0555 9.46003 34.8615 9.7207 34.6138C10.2421 34.1183 10.9871 33.4092 11.8838 32.5571C13.6771 30.853 16.0753 28.5749 18.4932 26.2769C23.2821 21.7252 28.1452 17.1005 28.5527 16.7085C28.7328 16.5192 28.7986 16.3587 28.8213 16.23C28.8393 16.1277 28.8347 16.0222 28.8125 15.9087L28.7842 15.7925L28.7666 15.7271V15.7173C28.7663 15.7162 28.7649 15.7154 28.7646 15.7144C28.3457 14.4944 28.2092 13.2114 28.3018 11.937V11.9351L28.3418 11.5347C28.584 9.5379 29.4847 7.60626 31.0215 6.06885L31.0234 6.06689L31.3955 5.71826C33.2865 4.04018 35.6916 3.26432 38.0332 3.34717V3.34619C38.0373 3.34619 38.0418 3.34712 38.0459 3.34717C38.048 3.34725 38.0506 3.34709 38.0527 3.34717L38.0518 3.34814C38.1215 3.34936 38.1957 3.35553 38.2393 3.35986C38.3027 3.36617 38.3306 3.36865 38.3447 3.36865H38.8447V8.02783Z" fill="url(#paint6_linear_2209_6597)" stroke="url(#paint7_linear_2209_6597)"/>
<path id="Vector_5" d="M12.6865 35.9404C13.1636 35.9416 13.5578 36.1057 13.8965 36.4443C14.2351 36.783 14.3988 37.1764 14.3994 37.6523C14.4 38.1273 14.2373 38.521 13.8975 38.8604C13.5996 39.1577 13.2603 39.3196 12.8623 39.3555L12.6885 39.3633L12.6855 39.3633C12.2165 39.3656 11.8237 39.2035 11.4805 38.8604C11.1373 38.5172 10.9748 38.1235 10.9766 37.6533C10.9784 37.1804 11.1416 36.7851 11.4814 36.4424C11.8189 36.102 12.2115 35.9393 12.6865 35.9404Z" fill="url(#paint8_linear_2209_6597)" stroke="url(#paint9_linear_2209_6597)"/>
</g>
</g>
<defs>
<linearGradient id="paint0_linear_2209_6597" x1="1.42728" y1="38.3877" x2="1.42728" y2="5.39983" gradientUnits="userSpaceOnUse">
<stop offset="0.408654" stop-color="#3A88FC"/>
<stop offset="1" stop-color="#7BB0FF"/>
</linearGradient>
<linearGradient id="paint1_linear_2209_6597" x1="39.8508" y1="34.0699" x2="7.21531" y2="-3.36493" gradientUnits="userSpaceOnUse">
<stop offset="0.158654" stop-color="#BCD7FF"/>
<stop offset="1" stop-color="white"/>
</linearGradient>
<linearGradient id="paint2_linear_2209_6597" x1="9.0306" y1="37.3935" x2="9.0306" y2="4.40569" gradientUnits="userSpaceOnUse">
<stop offset="0.408654" stop-color="#3A88FC"/>
<stop offset="1" stop-color="#7BB0FF"/>
</linearGradient>
<linearGradient id="paint3_linear_2209_6597" x1="8.09958" y1="34.5155" x2="36.5897" y2="-0.999999" gradientUnits="userSpaceOnUse">
<stop offset="0.158654" stop-color="#BBD6FF"/>
<stop offset="1" stop-color="#F6FAFF"/>
</linearGradient>
<linearGradient id="paint4_linear_2209_6597" x1="19.6834" y1="43.2293" x2="19.6834" y2="4.80664" gradientUnits="userSpaceOnUse">
<stop offset="0.158654" stop-color="#3A88FC"/>
<stop offset="1" stop-color="#A0C6FF"/>
</linearGradient>
<linearGradient id="paint5_linear_2209_6597" x1="19.6834" y1="43.2293" x2="19.6834" y2="4.80664" gradientUnits="userSpaceOnUse">
<stop offset="0.158654" stop-color="#BCD7FF"/>
<stop offset="1" stop-color="#EDF4FF"/>
</linearGradient>
<linearGradient id="paint6_linear_2209_6597" x1="27.3028" y1="42.235" x2="27.3028" y2="3.84033" gradientUnits="userSpaceOnUse">
<stop offset="0.158654" stop-color="#3A88FC"/>
<stop offset="1" stop-color="#A0C6FF"/>
</linearGradient>
<linearGradient id="paint7_linear_2209_6597" x1="27.3028" y1="42.235" x2="27.3028" y2="3.84033" gradientUnits="userSpaceOnUse">
<stop offset="0.158654" stop-color="#BCD7FF"/>
<stop offset="1" stop-color="#EDF4FF"/>
</linearGradient>
<linearGradient id="paint8_linear_2209_6597" x1="12.6931" y1="41.815" x2="12.688" y2="28.8061" gradientUnits="userSpaceOnUse">
<stop stop-color="white"/>
<stop offset="1" stop-color="#D0E3FF"/>
</linearGradient>
<linearGradient id="paint9_linear_2209_6597" x1="12.688" y1="28.8061" x2="12.688" y2="50.9206" gradientUnits="userSpaceOnUse">
<stop stop-color="#9FC5FF"/>
<stop offset="1" stop-color="#5398FF"/>
</linearGradient>
<clipPath id="clip0_2209_6597">
<rect width="46" height="46" fill="white" transform="translate(0.5)"/>
</clipPath>
</defs>
</svg>
