
<svg width="47" height="46" viewBox="0 0 47 46" fill="none" xmlns="http://www.w3.org/2000/svg">
<g id="&#233;&#131;&#168;&#228;&#187;&#182;&#231;&#148;&#159;&#228;&#186;&#167;" clip-path="url(#clip0_2209_6614)">
<g id="&#233;&#131;&#168;&#228;&#187;&#182;&#231;&#148;&#159;&#228;&#186;&#167;_2">
<g id="Group 1321315588">
<path id="Union" d="M32.123 22.4834L39.5049 22.4834L39.5732 22.4844C39.6566 22.4906 39.7396 22.513 39.8184 22.5498L39.8975 22.5928C40.0125 22.6647 40.1124 22.7711 40.1846 22.9043C40.186 22.9071 40.187 22.9103 40.1885 22.9131L43.8779 29.8125L43.8779 29.8135L43.9219 29.9033C43.9762 30.0294 44.0032 30.1682 44 30.3076L43.9863 30.4463L43.6455 32.499L40.4072 26.4395L40.3477 26.335C40.2213 26.13 40.0574 25.951 39.8633 25.8105L39.7637 25.7441C39.5845 25.6322 39.3874 25.5537 39.1826 25.5137L38.9756 25.4863L38.9561 25.4854L38.8721 25.4834L31.46 25.4834C30.9236 25.4834 30.431 25.7413 30.1016 26.1533L29.9707 26.3398L29.9629 26.3525L29.917 26.4307L29.9092 26.4453L27.5273 30.8955L27.6563 30.124L27.6572 30.124C27.6658 30.0723 27.6778 30.0215 27.6943 29.9727L27.7559 29.832L27.7559 29.8311L31.4473 22.9316L31.4873 22.8604C31.6416 22.6142 31.8872 22.4834 32.123 22.4834Z" fill="url(#paint0_linear_2209_6614)" stroke="url(#paint1_linear_2209_6614)" stroke-linejoin="round"/>
</g>
<path id="Vector" d="M26.4908 33.8015L30.3265 26.7254C30.5642 26.2847 31.0062 26.0112 31.4768 26.0112L39.1482 26.0112C39.3816 26.0109 39.6109 26.0763 39.8129 26.2008C40.0149 26.3253 40.1824 26.5046 40.2985 26.7203L44.1342 33.8015C44.3719 34.2371 44.3719 34.7791 44.1342 35.2147L40.2985 42.2908C40.0608 42.7264 39.6235 42.9999 39.1482 42.9999L31.4767 42.9999C31.2434 43.0002 31.0141 42.9348 30.8121 42.8103C30.61 42.6858 30.4425 42.5065 30.3265 42.2908L26.4907 35.2147C26.2531 34.7791 26.2531 34.2371 26.4908 33.8015Z" fill="url(#paint2_linear_2209_6614)"/>
<path id="Vector_2" d="M35.4971 30.4766C36.4667 30.4789 37.2819 30.8181 37.9697 31.5059C38.6575 32.1937 38.9959 33.0083 38.9971 33.9766C38.9982 34.9437 38.6608 35.7582 37.9707 36.4473C37.3231 37.0939 36.566 37.4311 35.6777 37.4707L35.499 37.4746L35.4961 37.4746C34.538 37.4792 33.7245 37.1426 33.0293 36.4473C32.3341 35.7519 31.9965 34.9375 32 33.9775C32.0035 33.0146 32.3418 32.1983 33.0303 31.5039C33.7162 30.812 34.5294 30.4743 35.4971 30.4766Z" fill="url(#paint3_linear_2209_6614)" stroke="url(#paint4_linear_2209_6614)"/>
<path id="Vector_3" d="M28.8623 -2.04883C28.3163 -2.61266 27.4321 -2.64765 26.8437 -2.1543L26.7295 -2.04883L23.0576 1.74219L23.0576 1.74316C22.6349 2.18233 22.3396 2.45085 22.1211 2.78125C21.9272 3.07444 21.8016 3.4153 21.7998 3.95898L22.0283 6.84082L23.0176 7.85547C23.3049 7.95968 23.5761 8.11653 23.8145 8.32617L23.9609 8.46582C24.291 8.80666 24.4689 9.22001 24.6133 9.53223L23.8018 10.0918L22.4834 8.73926C22.202 8.67883 21.9052 8.70034 21.6299 8.81055L21.5215 8.85938L21.5195 8.86035C21.2027 9.0159 20.9512 9.27752 20.8018 9.61133L20.7441 9.75879L20.7432 9.75977C20.6238 10.1097 20.626 10.4843 20.749 10.8291L20.8096 10.9746L20.8096 10.9756L21.5889 12.6436L21.7344 12.9561L21.4951 13.2031L20.0811 14.6631L19.5752 15.1855L19.2686 14.5254L19.1006 14.1631L19.0996 14.1621C19.0459 14.0456 18.9756 13.9334 18.8926 13.832L18.8057 13.7344C18.3787 13.2934 17.7423 13.1634 17.1924 13.3838L17.084 13.4326L17.082 13.4336C16.7653 13.5891 16.5137 13.8499 16.3643 14.1836L16.3066 14.3311L16.3057 14.332C16.1863 14.6819 16.1886 15.0567 16.3115 15.4014L16.3721 15.5469L16.3721 15.5479L17.1514 17.2168L17.2969 17.5283L17.0576 17.7754L15.6436 19.2354L15.1377 19.7578L14.8311 19.0986L14.6631 18.7354L14.6621 18.7344C14.6083 18.6178 14.5381 18.5056 14.4551 18.4043L14.3682 18.3066C13.9414 17.866 13.3056 17.7362 12.7559 17.9561L12.6465 18.0049L12.6445 18.0059C12.3276 18.1615 12.0762 18.4229 11.9268 18.7568L11.8691 18.9033L11.8691 18.9053C11.7498 19.255 11.7521 19.629 11.875 19.9736L11.9346 20.1201L11.9355 20.1211L12.7139 21.7891L12.8594 22.1016L12.6201 22.3486L11.207 23.8086L10.7002 24.3311L10.3945 23.6709L10.2256 23.3086L10.2256 23.3076C10.1718 23.191 10.1006 23.0789 10.0176 22.9775L9.93066 22.8799C9.50384 22.4391 8.86816 22.3084 8.31836 22.5283L8.20996 22.5771L8.20703 22.5781C7.84652 22.7551 7.56881 23.0757 7.43164 23.4775C7.31225 23.8275 7.31446 24.2021 7.4375 24.5469L7.49707 24.6924L7.49805 24.6934L8.27637 26.3613L8.42383 26.6777L8.17871 26.9258L2.78027 32.3672C2.41498 32.7475 2.18579 33.0646 2.07617 33.4219C1.96896 33.7715 1.95922 34.2203 2.15332 34.8916L2.85449 36.9443C2.915 36.9905 3.00592 37.0549 3.13867 37.1279C3.32921 37.2327 3.5722 37.3458 3.85449 37.4619C4.41916 37.6941 5.1167 37.9262 5.81641 38.1094C6.51863 38.2932 7.20411 38.4233 7.74902 38.4609C8.02235 38.4798 8.2415 38.474 8.40137 38.4482C8.48863 38.4341 8.54113 38.417 8.56934 38.4053L8.59473 38.3945L8.60156 38.3867L11.7217 35.2988L12.2275 34.7979L12.5273 35.4434L12.6953 35.8057L12.6963 35.8076C12.8339 36.1068 13.0673 36.3541 13.3506 36.5117C13.8896 36.8037 14.5645 36.7261 15.0293 36.3232L15.1191 36.2383L15.1211 36.2373L15.2021 36.1465C15.5645 35.7114 15.6705 35.0793 15.4668 34.5361L15.4189 34.4219L15.418 34.4209L14.6396 32.7529L14.4941 32.4404L14.7334 32.1934L16.1465 30.7334L16.6533 30.2109L16.959 30.8711L17.1279 31.2334L17.1289 31.2354C17.2661 31.5333 17.4975 31.7809 17.7793 31.9385C18.3188 32.2324 18.9962 32.1546 19.4619 31.751L19.5518 31.666L19.5527 31.6641L19.6348 31.5742C19.9972 31.1392 20.1029 30.507 19.8994 29.9639L19.8516 29.8486L19.8486 29.8438L19.0791 28.1504L18.9385 27.8408L19.1758 27.5957L20.5889 26.1357L21.0947 25.6133L21.4014 26.2734L21.5693 26.6357L21.5703 26.6377C21.7242 26.9719 21.9793 27.2287 22.2959 27.3799L22.4346 27.4385L22.4355 27.4385C22.6779 27.5263 22.9359 27.5486 23.1826 27.5059L23.2871 27.4834L23.2891 27.4834C23.6521 27.3928 23.9779 27.1581 24.1875 26.835L24.2705 26.6914L24.2705 26.6904L24.3447 26.5205C24.4934 26.114 24.4759 25.6515 24.292 25.2549L24.293 25.2539L23.5137 23.5879L23.3682 23.2754L23.6084 23.0283L25.0215 21.5684L25.5273 21.0459L25.834 21.7061L26.002 22.0684L26.0029 22.0693C26.1567 22.4034 26.4111 22.6613 26.7275 22.8125L26.8672 22.8711L26.8701 22.8721C27.1918 22.9902 27.5497 22.9859 27.876 22.8633L28.0137 22.8037C28.7153 22.4507 29.0486 21.5943 28.7822 20.833L28.7207 20.6826L27.9414 19.0146L27.7959 18.7031L28.0352 18.4551L32.1895 14.166L32.5488 13.7949L32.9072 14.166L36.2344 17.6016C36.2342 17.6014 36.286 17.6458 36.46 17.6885C36.6221 17.7282 36.8406 17.7543 37.1084 17.7627C37.6427 17.7794 38.3123 17.7244 38.9961 17.6182C39.6785 17.5122 40.3562 17.3584 40.9033 17.1855C41.1771 17.099 41.4098 17.0098 41.5908 16.9238C41.7186 16.8632 41.802 16.8094 41.8545 16.7715L42.832 14.3281C43.0643 13.7133 43.0327 13.2147 42.8779 12.7871C42.7569 12.4529 42.5537 12.1442 42.3037 11.8496L42.04 11.5596L35.2734 4.56738L35.2656 4.56055L35.2627 4.55762L32.2686 1.46875L28.8623 -2.04883Z" fill="url(#paint5_linear_2209_6614)" stroke="url(#paint6_linear_2209_6614)"/>
<path id="Vector_4" d="M28.1016 1.93945C27.5399 1.37781 26.6236 1.34253 26.0176 1.83398L25.9004 1.93945L22.1553 5.68457L22.1553 5.68555C21.5872 6.25733 21.5528 7.16233 22.0479 7.77051L22.1543 7.8877L25.5479 11.2822L25.8975 11.6318L25.5518 11.9854L23.6484 13.9277L23.1484 14.4375L22.8408 13.793C22.695 13.4877 22.5904 13.2672 22.4375 13.0879L22.3691 13.0137C21.9316 12.5762 21.2736 12.4439 20.7031 12.665L20.5908 12.7139L20.5889 12.7148C20.2618 12.8703 20.0055 13.1292 19.8545 13.4561L19.7969 13.5996L19.7959 13.6016C19.6759 13.9426 19.6779 14.3071 19.8018 14.6436L19.8623 14.7861L19.8633 14.7871L20.6572 16.4355L20.8115 16.7549L20.5605 17.0059L19.1191 18.4482L18.6201 18.9473L18.3145 18.3105L18.1426 17.9521L18.1426 17.9512C18.0882 17.837 18.0163 17.727 17.9316 17.627L17.8428 17.5303C17.4054 17.0932 16.7479 16.9609 16.1777 17.1816L16.0645 17.2305L16.0625 17.2314C15.7356 17.3868 15.4802 17.646 15.3291 17.9727L15.2705 18.1172L15.2705 18.1182C15.1503 18.4595 15.1522 18.8244 15.2764 19.1611L15.3369 19.3037L15.3369 19.3047L16.1318 20.9521L16.2861 21.2725L16.0352 21.5234L14.5928 22.9648L14.0937 23.4639L13.7891 22.8271L13.6172 22.4697L13.6162 22.4688C13.562 22.3548 13.4907 22.2444 13.4062 22.1445L13.3174 22.0479C12.88 21.6104 12.2217 21.4774 11.6514 21.6982L11.5391 21.7471L11.5361 21.748C11.2091 21.9035 10.9538 22.1633 10.8027 22.4902L10.7441 22.6338L10.7441 22.6348C10.6239 22.9759 10.6259 23.3411 10.75 23.6777L10.8105 23.8203L10.8115 23.8213L11.6055 25.4697L11.7598 25.7891L9.56738 27.9814L9.26269 27.3447L9.09082 26.9863L9.09082 26.9854C9.0365 26.8713 8.96442 26.7611 8.87988 26.6611L8.79102 26.5645C8.35347 26.127 7.69544 25.9947 7.125 26.2158L7.01269 26.2646L7.01074 26.2656C6.63857 26.4426 6.35602 26.7599 6.21777 27.1523C6.09769 27.4934 6.09975 27.8579 6.22363 28.1943L6.28418 28.3369L6.28516 28.3379L7.0791 29.9863L7.2334 30.3057L6.98242 30.5566L2.45312 35.0869L2.45312 35.0879C1.85802 35.6868 1.8572 36.6891 2.45117 37.2891L6.20215 41.0264L6.20312 41.0273C6.76487 41.5889 7.68118 41.6243 8.28711 41.1328L8.40332 41.0273L11.1094 38.3213L11.415 38.957L11.5859 39.3154L11.5869 39.3174C11.7255 39.6092 11.9615 39.8544 12.252 40.0117C12.8115 40.307 13.5129 40.2264 13.9912 39.8252L14.083 39.7412L14.085 39.7393L14.168 39.6504C14.5362 39.2226 14.6414 38.6053 14.4365 38.0762L14.3877 37.9639L13.5928 36.3154L13.4385 35.9961L15.6309 33.8037L15.9355 34.4404L16.1074 34.7988L16.1084 34.7998C16.2474 35.0925 16.4847 35.3379 16.7764 35.4951C17.3353 35.7886 18.0342 35.7087 18.5117 35.3086L18.6045 35.2236L18.6064 35.2227L18.6895 35.1338C19.0576 34.706 19.1626 34.0886 18.958 33.5596L18.9092 33.4473L18.9062 33.4414L18.1221 31.7695L17.9727 31.4512L19.6621 29.7617L20.1621 29.2627L20.4668 29.8994L20.6387 30.2568L20.6396 30.2588C20.7951 30.5857 21.0542 30.8412 21.3809 30.9922L21.5244 31.0508L21.5254 31.0508C21.7763 31.1388 22.0438 31.1611 22.2998 31.1182L22.4082 31.0957L22.4092 31.0957C22.7859 31.0048 23.1202 30.7707 23.333 30.4531L23.417 30.3115L23.417 30.3105L23.4912 30.1445C23.6412 29.7478 23.6245 29.2974 23.4395 28.9102L22.6455 27.2617L22.4912 26.9424L24.1836 25.25L24.6826 24.75L24.9883 25.3867L25.1602 25.7451L25.1602 25.7461C25.3156 26.0731 25.5748 26.3294 25.9014 26.4805L26.0459 26.5381L26.0488 26.54C26.3823 26.6586 26.7535 26.6539 27.0908 26.5313L27.2334 26.4717C27.9556 26.1198 28.2849 25.2788 28.0176 24.5391L27.9561 24.3926L27.1611 22.7451L27.0078 22.4258L27.2578 22.1748L31.4951 17.9375L31.8486 17.583L32.2021 17.9375L35.5957 21.3311C36.1529 21.8882 37.0777 21.9232 37.6807 21.4355L37.7959 21.3311L41.543 17.584C42.1045 17.0223 42.1396 16.1061 41.6484 15.5L41.543 15.3828L34.6377 8.47266L34.6387 8.47168L34.6338 8.46875L34.6299 8.46582L31.5762 5.41406L31.5752 5.41406L28.1016 1.93945Z" fill="url(#paint7_linear_2209_6614)" stroke="url(#paint8_linear_2209_6614)"/>
</g>
</g>
<defs>
<linearGradient id="paint0_linear_2209_6614" x1="35.3005" y1="26.0063" x2="35.2988" y2="21.9834" gradientUnits="userSpaceOnUse">
<stop offset="0.158654" stop-color="#3A83FC"/>
<stop offset="1" stop-color="#A0C6FF"/>
</linearGradient>
<linearGradient id="paint1_linear_2209_6614" x1="35.2955" y1="34.7655" x2="35.2955" y2="21.9834" gradientUnits="userSpaceOnUse">
<stop offset="0.158654" stop-color="#8BB7FF"/>
<stop offset="1" stop-color="white"/>
</linearGradient>
<linearGradient id="paint2_linear_2209_6614" x1="35.3125" y1="42.9999" x2="35.3125" y2="26.0112" gradientUnits="userSpaceOnUse">
<stop offset="0.158654" stop-color="#3A88FC"/>
<stop offset="1" stop-color="#A0C6FF"/>
</linearGradient>
<linearGradient id="paint3_linear_2209_6614" x1="35.5078" y1="41.5043" x2="35.4986" y2="17.9792" gradientUnits="userSpaceOnUse">
<stop stop-color="white"/>
<stop offset="1" stop-color="#D0E3FF"/>
</linearGradient>
<linearGradient id="paint4_linear_2209_6614" x1="35.4986" y1="17.9792" x2="35.4986" y2="57.9705" gradientUnits="userSpaceOnUse">
<stop stop-color="#9FC5FF"/>
<stop offset="1" stop-color="#5398FF"/>
</linearGradient>
<linearGradient id="paint5_linear_2209_6614" x1="23.3402" y1="9.84823" x2="23.348" y2="-3" gradientUnits="userSpaceOnUse">
<stop offset="0.158654" stop-color="#3A88FC"/>
<stop offset="1" stop-color="#A0C6FF"/>
</linearGradient>
<linearGradient id="paint6_linear_2209_6614" x1="23.3515" y1="37.8235" x2="23.3515" y2="-3" gradientUnits="userSpaceOnUse">
<stop offset="0.158654" stop-color="#BBD6FF"/>
<stop offset="1" stop-color="white"/>
</linearGradient>
<linearGradient id="paint7_linear_2209_6614" x1="21.999" y1="41.9765" x2="21.999" y2="0.990234" gradientUnits="userSpaceOnUse">
<stop offset="0.158654" stop-color="#3A88FC"/>
<stop offset="1" stop-color="#A0C6FF"/>
</linearGradient>
<linearGradient id="paint8_linear_2209_6614" x1="21.999" y1="41.9765" x2="21.999" y2="0.990234" gradientUnits="userSpaceOnUse">
<stop offset="0.158654" stop-color="#BCD7FF"/>
<stop offset="1" stop-color="#EDF4FF"/>
</linearGradient>
<clipPath id="clip0_2209_6614">
<rect width="46" height="46" fill="white" transform="translate(0.5)"/>
</clipPath>
</defs>
</svg>
