
<svg width="47" height="46" viewBox="0 0 47 46" fill="none" xmlns="http://www.w3.org/2000/svg">
<g id="&#231;&#187;&#147;&#230;&#158;&#132;&#232;&#174;&#190;&#232;&#174;&#161;" clip-path="url(#clip0_2209_6482)">
<g id="&#231;&#187;&#147;&#230;&#158;&#132;&#232;&#174;&#190;&#232;&#174;&#161;_2">
<path id="Union" d="M29.7796 33.2864V35.4424L13.7267 45.183L2.26562 38.675V36.3264L4.565 35.0035V36.0402C4.56504 36.1293 4.58872 36.2169 4.6332 36.2941C4.67775 36.3713 4.74199 36.4357 4.81919 36.4805L13.4029 41.4605L13.4043 41.4612C13.4441 41.4834 13.4898 41.4833 13.5324 41.4949C13.5952 41.5149 13.6611 41.5221 13.7267 41.5162C13.7922 41.5104 13.8559 41.4919 13.9141 41.4612L26.6061 34.1553C26.684 34.1104 26.7487 34.0453 26.7935 33.9674C26.8382 33.8896 26.8615 33.8013 26.861 33.7115L26.8541 31.605L29.7796 33.2864ZM16.8313 25.8243C17.1999 26.0354 24.3008 30.125 25.8353 31.0162L25.8422 33.1784V33.4192L14.1738 40.1376L14.1448 27.3735L16.8313 25.8236V25.8243ZM13.1205 27.335L13.1508 40.1321H13.1501L5.59001 35.7472L5.55832 22.9493L13.1205 27.335ZM42.564 35.8964L42.5557 39.4744L40.3245 38.1894L39.6405 34.211L42.564 35.8964ZM44.5286 38.9186L43.578 39.4689L43.5855 35.8944L44.5341 35.3447L44.5286 38.9186ZM38.4887 33.5464L39.1735 37.5248L35.5584 35.4424L34.8737 31.464L38.4887 33.5464ZM44.0278 34.4593L43.684 34.6588L43.0758 35.0111L42.429 34.6382L8.21177 14.9073L9.16307 14.3549C22.0371 21.78 43.8603 34.3631 44.0278 34.4593ZM33.7233 30.8008L34.4073 34.7785L30.7668 32.6748L30.082 28.7006V28.6999L33.7233 30.8008ZM28.9358 28.036L29.6198 32.0109L26.004 29.9333L25.9827 29.9217L25.2973 25.9378L28.9358 28.036ZM24.1435 25.2712C24.0997 25.0105 24.808 29.1183 24.8316 29.2509L21.1862 27.1534L20.4981 23.1674L24.1435 25.2712ZM19.3429 22.5063L19.3436 22.507L20.0324 26.4881L16.396 24.392L15.7037 20.406L19.3429 22.5063ZM15.8112 25.2333L14.1428 26.1964L14.1372 24.3466V24.2688L15.8112 25.2333ZM13.0778 12.7644L13.0854 15.4384L9.41932 13.325C9.34158 13.28 9.25296 13.2563 9.16307 13.2562C9.07313 13.2562 8.9846 13.2799 8.90682 13.325L6.93533 14.4677C6.86827 14.509 6.81136 14.5658 6.77001 14.6328C6.76419 14.6404 6.75444 14.6442 6.74865 14.6528C6.70501 14.7293 6.68115 14.8169 6.68115 14.908L6.6715 19.6734C6.67147 19.763 6.69495 19.8509 6.7397 19.9286C6.78447 20.0062 6.84877 20.0707 6.92638 20.1157L13.1088 23.6806L13.1143 26.1531L5.55212 21.7675L5.51699 8.37871L13.0778 12.7644ZM14.5464 19.7387L15.2394 23.7247L11.5892 21.6202L10.9065 17.6391V17.6384L14.5464 19.7387ZM25.8208 22.7794L23.9692 21.7117L25.8146 20.6461L25.8208 22.7794ZM25.8119 19.4711L22.9469 21.1229L14.1131 16.028L14.1049 12.7637C28.046 4.7381 25.306 6.31504 25.7733 6.0459L25.8119 19.4711ZM9.75755 16.9746L10.4416 20.9584L7.69858 19.3796L7.70547 15.792L9.75755 16.9746Z" fill="url(#paint0_linear_2209_6482)"/>
<path id="Union (Stroke)" d="M26.5209 19.8769H26.5195L26.5305 23.5539C35.933 28.9758 44.2792 33.7892 44.382 33.8483L45.0502 34.2322L45.2438 34.1201L45.2431 34.3429L45.4394 34.4558L45.2424 34.5693L45.2355 39.325L43.9343 40.0783L43.2606 40.467V40.692L43.0663 40.5798L42.8721 40.6927V40.4684L39.6875 38.6343L39.6868 38.6323L35.3588 36.1392L35.3595 36.1412L30.4873 33.3255V35.8385L13.7407 46.0001L1.5625 39.0849V35.919L4.21526 34.3932L4.88206 34.0086L4.85313 22.1746L4.85038 22.1732L4.81042 7.15268L13.5919 12.2469L13.7551 12.1533C27.6939 4.12918 24.9568 5.70404 25.4229 5.43558L26.4775 4.82812L26.5209 19.8769ZM14.1471 27.3734L14.176 40.1375L25.8444 33.419V33.1783L25.8375 31.0161C24.3031 30.1249 17.2022 26.0353 16.8336 25.8241L14.1471 27.3734ZM5.59227 35.747L13.1524 40.132L13.1228 27.3349L5.56058 22.9492L5.59227 35.747ZM40.3268 38.1892L42.558 39.4743L42.5662 35.8963L39.6428 34.2109L40.3268 38.1892ZM43.5878 35.8943L43.5802 39.4688L44.5308 38.9185L44.5363 35.3446L43.5878 35.8943ZM35.5606 35.4423L39.1757 37.5247L38.491 33.5463L34.8759 31.4639L35.5606 35.4423ZM8.21403 14.9072L43.078 35.0109L44.03 34.4592C43.8626 34.363 22.0393 21.7799 9.16533 14.3548L8.21403 14.9072ZM30.0843 28.7004L30.769 32.6747L34.4096 34.7784L33.7255 30.8007L30.0843 28.7004ZM25.985 29.9215L26.0063 29.9332L29.6221 32.0108L28.938 28.0359L25.2995 25.9377L25.985 29.9215ZM21.1885 27.1533L24.8339 29.2508C24.8103 29.1181 24.1019 25.0104 24.1457 25.271L20.5003 23.1673L21.1885 27.1533ZM16.3982 24.3919L20.0347 26.488L19.3458 22.5069L19.3451 22.5062L15.7059 20.4059L16.3982 24.3919ZM14.1395 24.3464L14.145 26.1963L15.8134 25.2332L14.1395 24.2687V24.3464ZM5.55438 21.7673L13.1166 26.153L13.1111 23.6805L6.92863 20.1156C6.85103 20.0706 6.78672 20.0061 6.74196 19.9285C6.69721 19.8508 6.67373 19.7628 6.67376 19.6732L6.6834 14.9079C6.6834 14.8168 6.70726 14.7292 6.75091 14.6526C6.75669 14.644 6.76645 14.6403 6.77226 14.6327C6.81362 14.5657 6.87052 14.5089 6.93759 14.4676L8.90907 13.3249C8.98686 13.2798 9.07539 13.2561 9.16533 13.2561C9.25521 13.2561 9.34383 13.2799 9.42158 13.3249L13.0876 15.4383L13.0801 12.7642L5.51925 8.3786L5.55438 21.7673ZM10.9088 17.639L11.5915 21.6201L15.2417 23.7245L14.5487 19.7386L10.9088 17.639ZM23.9714 21.7116L25.8231 22.7793L25.8169 20.646L23.9714 21.7116ZM14.1071 12.7635L14.1154 16.0278L22.9492 21.1227L25.8141 19.471L25.7755 6.04578C25.3083 6.31492 28.0483 4.73799 14.1071 12.7635ZM7.70083 19.3795L10.4438 20.9583L9.7598 16.9744L7.70772 15.7919L7.70083 19.3795ZM2.26788 38.6749L13.729 45.1829L29.7819 35.4423V33.2863L26.8563 31.6049L26.8632 33.7114C26.8637 33.8012 26.8404 33.8895 26.7957 33.9673C26.7509 34.0452 26.6863 34.1103 26.6084 34.1551L13.9163 41.4611C13.8581 41.4917 13.7945 41.5103 13.729 41.5161C13.6634 41.5219 13.5974 41.5148 13.5347 41.4948C13.4921 41.4832 13.4463 41.4833 13.4066 41.4611L13.4052 41.4604L4.82144 36.4804C4.74425 36.4356 4.68001 36.3712 4.63546 36.294C4.59097 36.2167 4.5673 36.1292 4.56726 36.0401V35.0034L2.26788 36.3263V38.6749Z" fill="url(#paint1_linear_2209_6482)"/>
<path id="Vector 30" d="M13.7225 11.2542L6.0625 6.82902L17.7697 0L25.2094 4.53457L13.7225 11.2542Z" fill="url(#paint2_linear_2209_6482)" stroke="#E8F1FF"/>
<path id="Vector" d="M9.84305 7.23478C9.6898 7.14276 9.59766 6.98004 9.59766 6.79601C9.59766 6.61197 9.6898 6.43859 9.85275 6.34754L17.4346 1.97915C17.5122 1.93396 17.6004 1.91016 17.6902 1.91016C17.78 1.91016 17.8682 1.93396 17.9458 1.97915L21.4394 4.01031C21.5165 4.05506 21.5806 4.11902 21.6255 4.19593C21.6703 4.27284 21.6945 4.36007 21.6955 4.44908C21.6955 4.63312 21.5927 4.79584 21.4394 4.88786L13.8585 9.26594C13.7795 9.30828 13.692 9.33244 13.6025 9.33665C13.5099 9.33328 13.4193 9.30876 13.3377 9.26497L9.84305 7.23478Z" fill="url(#paint3_linear_2209_6482)"/>
</g>
</g>
<defs>
<linearGradient id="paint0_linear_2209_6482" x1="24.0405" y1="40.1532" x2="24.0405" y2="12.7549" gradientUnits="userSpaceOnUse">
<stop offset="0.158654" stop-color="#3A88FC"/>
<stop offset="1" stop-color="#A0C6FF"/>
</linearGradient>
<linearGradient id="paint1_linear_2209_6482" x1="23.4021" y1="45.1829" x2="23.4021" y2="-12.3822" gradientUnits="userSpaceOnUse">
<stop offset="0.158654" stop-color="#BCD7FF"/>
<stop offset="1" stop-color="#EDF4FF"/>
</linearGradient>
<linearGradient id="paint2_linear_2209_6482" x1="15.6359" y1="11.2542" x2="15.6359" y2="-5.29914" gradientUnits="userSpaceOnUse">
<stop offset="0.158654" stop-color="#3A88FC"/>
<stop offset="1" stop-color="#A0C6FF"/>
</linearGradient>
<linearGradient id="paint3_linear_2209_6482" x1="17.8246" y1="39.4329" x2="17.8246" y2="0.059245" gradientUnits="userSpaceOnUse">
<stop offset="0.158654" stop-color="#3A88FC"/>
<stop offset="1" stop-color="#A0C6FF"/>
</linearGradient>
<clipPath id="clip0_2209_6482">
<rect width="46" height="46" fill="white" transform="translate(0.5)"/>
</clipPath>
</defs>
</svg>
