<svg width="16" height="16" viewBox="0 0 16 16" fill="none" xmlns="http://www.w3.org/2000/svg">
<g id="&#230;&#151;&#182;&#233;&#151;&#180;" clip-path="url(#clip0_2204_4955)">
<path id="Union" d="M7.99902 0.833008C11.9569 0.833184 15.165 4.04304 15.165 8.00098C15.1646 11.9585 11.9566 15.1668 7.99902 15.167C4.04125 15.167 0.832471 11.9586 0.832031 8.00098C0.832031 4.04294 4.04098 0.833008 7.99902 0.833008ZM7.99902 1.83398C4.59327 1.83398 1.83203 4.59522 1.83203 8.00098C1.83247 11.4064 4.59354 14.167 7.99902 14.167C11.4044 14.1668 14.1646 11.4062 14.165 8.00098C14.165 4.59533 11.4046 1.83416 7.99902 1.83398Z" fill="url(#paint0_linear_2204_4955)"/>
<path id="Vector" d="M8 12C10.2091 12 12 10.2091 12 8C12 5.79086 10.2091 4 8 4C5.79086 4 4 5.79086 4 8C4 10.2091 5.79086 12 8 12Z" fill="url(#paint1_linear_2204_4955)"/>
<path id="Union_2" d="M8 3.5C8.27614 3.5 8.5 3.72386 8.5 4V7.69043L10.8906 8.88574L10.9756 8.94043C11.1585 9.08392 11.2221 9.34057 11.1143 9.55664C11.0062 9.77266 10.7626 9.87643 10.5381 9.81641L10.4434 9.78027L7.77637 8.44727C7.60698 8.36257 7.5 8.18939 7.5 8V4C7.5 3.72386 7.72386 3.5 8 3.5Z" fill="url(#paint2_linear_2204_4955)"/>
</g>
<defs>
<linearGradient id="paint0_linear_2204_4955" x1="7.99854" y1="0.833984" x2="7.99854" y2="15.167" gradientUnits="userSpaceOnUse">
<stop stop-color="#91A5CD"/>
<stop offset="1" stop-color="#67789D"/>
</linearGradient>
<linearGradient id="paint1_linear_2204_4955" x1="9.41901" y1="6.53378" x2="4.96623" y2="11.1539" gradientUnits="userSpaceOnUse">
<stop stop-color="#8AAFFF"/>
<stop offset="1" stop-color="#D2E1FF"/>
</linearGradient>
<linearGradient id="paint2_linear_2204_4955" x1="9.33343" y1="3.5" x2="9.33343" y2="9.83323" gradientUnits="userSpaceOnUse">
<stop stop-color="#5595FF"/>
<stop offset="1" stop-color="#3A83FC"/>
</linearGradient>
<clipPath id="clip0_2204_4955">
<rect width="16" height="16" fill="white"/>
</clipPath>
</defs>
</svg>
