<svg width="24" height="24" viewBox="0 0 24 24" fill="none" xmlns="http://www.w3.org/2000/svg">
<g id="&#233;&#187;&#152;&#232;&#174;&#164;&#229;&#164;&#180;&#229;&#131;&#143;">
<path id="Vector" d="M12 0.5C15.2093 0.500001 17.9175 1.61381 20.1543 3.84863C22.3908 6.08324 23.5038 8.79011 23.5 11.999C23.4962 15.209 22.3835 17.9184 20.1543 20.1553C18.0652 22.2515 15.5544 23.3601 12.5977 23.4873L12.001 23.5H12C8.98893 23.5 6.42136 22.5217 4.27246 20.5596L3.84863 20.1543C1.61381 17.9175 0.500001 15.2093 0.5 12C0.5 8.79058 1.61383 6.08344 3.84863 3.84863C6.08344 1.61383 8.79058 0.5 12 0.5Z" fill="url(#paint0_linear_2204_4878)" stroke="url(#paint1_linear_2204_4878)"/>
<path id="Vector_2" d="M12.1169 12.358C13.1388 12.358 14.0079 12.0007 14.7241 11.2861C15.4402 10.5716 15.7975 9.70256 15.7959 8.67899C15.7942 7.65542 15.437 6.78718 14.7241 6.07428C14.0112 5.36138 13.1421 5.00329 12.1169 5.00002C11.0917 4.99675 10.2235 5.35484 9.51219 6.07428C8.80092 6.79372 8.44283 7.66196 8.43793 8.67899C8.43302 9.69602 8.79111 10.5651 9.51219 11.2861C10.2333 12.0072 11.1015 12.3645 12.1169 12.358ZM12.1169 19.7159C13.4152 19.7159 14.5883 19.4273 15.6364 18.8501C16.6829 18.2729 17.5495 17.4938 18.2362 16.5127C17.3042 15.9503 16.3273 15.5259 15.3053 15.2398C14.2834 14.9537 13.2206 14.8106 12.1169 14.8106C11.0132 14.8106 9.95039 14.9537 8.92846 15.2398C7.90652 15.5259 6.93037 15.9511 6 16.5152C6.68511 17.4962 7.55171 18.2745 8.5998 18.8501C9.64463 19.4273 10.817 19.7159 12.1169 19.7159Z" fill="url(#paint2_linear_2204_4878)"/>
</g>
<defs>
<linearGradient id="paint0_linear_2204_4878" x1="12" y1="0" x2="12" y2="24" gradientUnits="userSpaceOnUse">
<stop stop-color="#DAE2FA"/>
<stop offset="1" stop-color="#EFFDFF"/>
</linearGradient>
<linearGradient id="paint1_linear_2204_4878" x1="12" y1="0" x2="12" y2="24" gradientUnits="userSpaceOnUse">
<stop stop-color="#66A0FF"/>
<stop offset="1" stop-color="#3A83FC"/>
</linearGradient>
<linearGradient id="paint2_linear_2204_4878" x1="12.1181" y1="5" x2="12.1181" y2="19.7159" gradientUnits="userSpaceOnUse">
<stop stop-color="#78C0FF"/>
<stop offset="1" stop-color="#3A83FC"/>
</linearGradient>
</defs>
</svg>
