<svg width="16" height="16" viewBox="0 0 16 16" fill="none" xmlns="http://www.w3.org/2000/svg">
<g id="&#231;&#177;&#187;&#229;&#158;&#139;" clip-path="url(#clip0_2204_4946)">
<path id="Vector" d="M9.33203 1.38477V5.33336H13.3132" fill="url(#paint0_linear_2204_4946)"/>
<path id="Vector (Stroke)" d="M9.13965 0.922752C9.32596 0.845153 9.54126 0.887072 9.68457 1.0292L13.665 4.97842C13.8088 5.12104 13.8524 5.33605 13.7754 5.52334C13.6983 5.7106 13.516 5.8328 13.3135 5.83291H9.33203C9.05589 5.83291 8.83203 5.60905 8.83203 5.33291V1.38467L8.83789 1.31045C8.86357 1.13917 8.9765 0.990723 9.13965 0.922752ZM9.83203 4.83291H12.0986L9.83203 2.58486V4.83291Z" fill="url(#paint1_linear_2204_4946)"/>
<path id="Union" d="M9.43262 0.84375C9.52869 0.862973 9.61817 0.910164 9.68848 0.980469L13.6885 4.98047C13.782 5.0742 13.835 5.20157 13.835 5.33398V13.334C13.8348 13.8199 13.6413 14.2862 13.2979 14.6299C12.9541 14.9735 12.4871 15.167 12.001 15.167H4.00098C3.51498 15.1669 3.04879 14.9735 2.70508 14.6299C2.36148 14.2862 2.1681 13.82 2.16797 13.334V2.66699C2.16805 2.18099 2.36149 1.71481 2.70508 1.37109C3.04882 1.02735 3.51486 0.833094 4.00098 0.833008H9.33496L9.43262 0.84375ZM4.00098 1.83398C3.78008 1.83407 3.56831 1.92192 3.41211 2.07812C3.25606 2.2343 3.16805 2.44621 3.16797 2.66699V13.334C3.1681 13.5547 3.25605 13.7667 3.41211 13.9229C3.56829 14.0789 3.7802 14.1669 4.00098 14.167H12.001C12.2219 14.167 12.4346 14.079 12.5908 13.9229C12.7468 13.7667 12.8348 13.5547 12.835 13.334V5.54102L9.12793 1.83398H4.00098Z" fill="url(#paint2_linear_2204_4946)"/>
<g id="Union_2">
<mask id="path-4-inside-1_2204_4946" fill="white">
<path d="M10.7666 10.8438C10.9942 10.8906 11.165 11.0925 11.165 11.334C11.1648 11.5753 10.9941 11.7775 10.7666 11.8242L10.665 11.834H5.33203C5.05605 11.834 4.83229 11.6099 4.83203 11.334C4.83203 11.0578 5.05589 10.834 5.33203 10.834H10.665L10.7666 10.8438ZM10.7666 8.17676C10.9942 8.22356 11.165 8.42553 11.165 8.66699C11.1648 8.90827 10.9941 9.11049 10.7666 9.15723L10.665 9.16699H5.33203C5.05605 9.16699 4.83229 8.94291 4.83203 8.66699C4.83203 8.39085 5.05589 8.16699 5.33203 8.16699H10.665L10.7666 8.17676ZM6.7666 5.50977C6.99426 5.55653 7.16504 5.75851 7.16504 6C7.16504 6.24149 6.99426 6.44347 6.7666 6.49023L6.66504 6.5H5.33203C5.05589 6.5 4.83203 6.27614 4.83203 6C4.83203 5.72386 5.05589 5.5 5.33203 5.5H6.66504L6.7666 5.50977Z"/>
</mask>
<path d="M10.7666 10.8438L10.968 9.86425C10.9331 9.85706 10.8978 9.85175 10.8623 9.84834L10.7666 10.8438ZM11.165 11.334L12.165 11.3349V11.334H11.165ZM10.7666 11.8242L10.8623 12.8196C10.8977 12.8162 10.933 12.8109 10.9678 12.8038L10.7666 11.8242ZM10.665 11.834V12.834C10.697 12.834 10.7289 12.8325 10.7608 12.8294L10.665 11.834ZM4.83203 11.334L3.83203 11.334L3.83203 11.3349L4.83203 11.334ZM10.665 10.834L10.7608 9.83858C10.7289 9.83552 10.697 9.83398 10.665 9.83398L10.665 10.834ZM10.7666 8.17676L10.968 7.19725C10.9331 7.19007 10.8978 7.18476 10.8623 7.18135L10.7666 8.17676ZM11.165 8.66699L12.165 8.66795V8.66699H11.165ZM10.7666 9.15723L10.8623 10.1526C10.8977 10.1492 10.933 10.1439 10.9678 10.1368L10.7666 9.15723ZM10.665 9.16699V10.167C10.697 10.167 10.7289 10.1655 10.7608 10.1624L10.665 9.16699ZM4.83203 8.66699L3.83203 8.66699L3.83203 8.66795L4.83203 8.66699ZM10.665 8.16699L10.7608 7.17158C10.7289 7.16852 10.697 7.16699 10.665 7.16699L10.665 8.16699ZM6.7666 5.50977L6.96783 4.53022C6.93296 4.52306 6.89774 4.51776 6.86231 4.51436L6.7666 5.50977ZM6.7666 6.49023L6.86231 7.48564C6.89774 7.48224 6.93296 7.47694 6.96783 7.46978L6.7666 6.49023ZM6.66504 6.5V7.5C6.697 7.5 6.72894 7.49847 6.76075 7.49541L6.66504 6.5ZM6.66504 5.5L6.76075 4.50459C6.72894 4.50153 6.697 4.5 6.66504 4.5L6.66504 5.5ZM10.7666 10.8438L10.5652 11.8233C10.3351 11.7759 10.165 11.5745 10.165 11.334H11.165H12.165C12.165 10.6106 11.6534 10.0052 10.968 9.86425L10.7666 10.8438ZM11.165 11.334L10.165 11.333C10.1653 11.0941 10.3339 10.8922 10.5654 10.8447L10.7666 11.8242L10.9678 12.8038C11.6543 12.6628 12.1644 12.0564 12.165 11.3349L11.165 11.334ZM10.7666 11.8242L10.6709 10.8288L10.5693 10.8386L10.665 11.834L10.7608 12.8294L10.8623 12.8196L10.7666 11.8242ZM10.665 11.834V10.834H5.33203V11.834V12.834H10.665V11.834ZM5.33203 11.834V10.834C5.60929 10.834 5.83177 11.0584 5.83203 11.333L4.83203 11.334L3.83203 11.3349C3.83282 12.1614 4.50282 12.834 5.33203 12.834V11.834ZM4.83203 11.334H5.83203C5.83203 11.6101 5.60817 11.834 5.33203 11.834V10.834V9.83398C4.5036 9.83398 3.83203 10.5056 3.83203 11.334H4.83203ZM5.33203 10.834V11.834H10.665V10.834V9.83398H5.33203V10.834ZM10.665 10.834L10.5693 11.8294L10.6709 11.8392L10.7666 10.8438L10.8623 9.84834L10.7608 9.83858L10.665 10.834ZM10.7666 8.17676L10.5652 9.15626C10.3351 9.10894 10.165 8.90748 10.165 8.66699H11.165H12.165C12.165 7.94359 11.6534 7.33818 10.968 7.19725L10.7666 8.17676ZM11.165 8.66699L10.165 8.66604C10.1653 8.42713 10.3339 8.22522 10.5654 8.17768L10.7666 9.15723L10.9678 10.1368C11.6543 9.99576 12.1644 9.38941 12.165 8.66795L11.165 8.66699ZM10.7666 9.15723L10.6709 8.16182L10.5693 8.17158L10.665 9.16699L10.7608 10.1624L10.8623 10.1526L10.7666 9.15723ZM10.665 9.16699V8.16699H5.33203V9.16699V10.167H10.665V9.16699ZM5.33203 9.16699V8.16699C5.60929 8.16699 5.83177 8.39137 5.83203 8.66604L4.83203 8.66699L3.83203 8.66795C3.83282 9.49445 4.50282 10.167 5.33203 10.167V9.16699ZM4.83203 8.66699H5.83203C5.83203 8.94313 5.60817 9.16699 5.33203 9.16699V8.16699V7.16699C4.5036 7.16699 3.83203 7.83857 3.83203 8.66699H4.83203ZM5.33203 8.16699V9.16699H10.665V8.16699V7.16699H5.33203V8.16699ZM10.665 8.16699L10.5693 9.1624L10.6709 9.17217L10.7666 8.17676L10.8623 7.18135L10.7608 7.17158L10.665 8.16699ZM6.7666 5.50977L6.56538 6.48931C6.33497 6.44198 6.16504 6.24028 6.16504 6H7.16504H8.16504C8.16504 5.27673 7.65355 4.67109 6.96783 4.53022L6.7666 5.50977ZM7.16504 6H6.16504C6.16504 5.75972 6.33497 5.55802 6.56538 5.51069L6.7666 6.49023L6.96783 7.46978C7.65355 7.32891 8.16504 6.72327 8.16504 6H7.16504ZM6.7666 6.49023L6.67089 5.49483L6.56933 5.50459L6.66504 6.5L6.76075 7.49541L6.86231 7.48564L6.7666 6.49023ZM6.66504 6.5V5.5H5.33203V6.5V7.5H6.66504V6.5ZM5.33203 6.5V5.5C5.60817 5.5 5.83203 5.72386 5.83203 6H4.83203H3.83203C3.83203 6.82843 4.5036 7.5 5.33203 7.5V6.5ZM4.83203 6H5.83203C5.83203 6.27614 5.60817 6.5 5.33203 6.5V5.5V4.5C4.5036 4.5 3.83203 5.17157 3.83203 6H4.83203ZM5.33203 5.5V6.5H6.66504V5.5V4.5H5.33203V5.5ZM6.66504 5.5L6.56933 6.49541L6.67089 6.50517L6.7666 5.50977L6.86231 4.51436L6.76075 4.50459L6.66504 5.5Z" fill="url(#paint3_linear_2204_4946)" mask="url(#path-4-inside-1_2204_4946)"/>
</g>
</g>
<defs>
<linearGradient id="paint0_linear_2204_4946" x1="12.0288" y1="2.63537" x2="9.83175" y2="4.93381" gradientUnits="userSpaceOnUse">
<stop stop-color="#8AAFFF"/>
<stop offset="1" stop-color="#D2E1FF"/>
</linearGradient>
<linearGradient id="paint1_linear_2204_4946" x1="11.332" y1="1.3334" x2="11.332" y2="5.3334" gradientUnits="userSpaceOnUse">
<stop stop-color="#91A5CD"/>
<stop offset="1" stop-color="#8295BC"/>
</linearGradient>
<linearGradient id="paint2_linear_2204_4946" x1="8.00146" y1="0.833984" x2="8.00146" y2="15.167" gradientUnits="userSpaceOnUse">
<stop stop-color="#91A5CD"/>
<stop offset="1" stop-color="#67789D"/>
</linearGradient>
<linearGradient id="paint3_linear_2204_4946" x1="7.99854" y1="5.5" x2="7.99854" y2="11.834" gradientUnits="userSpaceOnUse">
<stop stop-color="#5595FF"/>
<stop offset="1" stop-color="#3A83FC"/>
</linearGradient>
<clipPath id="clip0_2204_4946">
<rect width="16" height="16" fill="white"/>
</clipPath>
</defs>
</svg>
